<svg id="Calque_1" data-name="Calque 1" xmlns="http://www.w3.org/2000/svg" viewBox="0 0 15.66 18.72"><defs><style>.cls-1{fill:#56596d;}</style></defs><title>arbres_ensoleilles</title><path class="cls-1" d="M1.82,18.24a1.8,1.8,0,0,1,0,.25.21.21,0,0,1-.07.14.28.28,0,0,1-.11.07.12.12,0,0,1-.16-.05v0a.5.5,0,0,1,0-.23v-.79a.45.45,0,0,1,0-.18.09.09,0,0,0-.07-.07h0a6.92,6.92,0,0,1-.89-.1c-.25,0-.4-.08-.4-.23v-.65a1,1,0,0,0,0-.32A.06.06,0,0,1,0,16a3,3,0,0,0,.1-.58A7.45,7.45,0,0,1,.24,14.3a2.77,2.77,0,0,1,.07-.43.85.85,0,0,1,.07-.4A2.66,2.66,0,0,0,.45,13c0-.16.11-.26.11-.43h0c.12-.49.25-1,.37-1.46a4,4,0,0,1,.17-.55.19.19,0,0,1,.11-.14.12.12,0,0,1,.17,0h0l.11.31c.16.54.32,1.06.47,1.6l.54,1.93L3,15.83c.08.35.16.67.23,1a.31.31,0,0,1-.16.35.44.44,0,0,1-.17.07,1.42,1.42,0,0,1-.4,0,4.84,4.84,0,0,0-.59,0,.11.11,0,0,0-.11.11h0v.47C1.8,18,1.82,18.13,1.82,18.24Zm1-2.24-.29-.18a.2.2,0,0,0-.24,0l-.22.2a.4.4,0,0,1-.41.08.82.82,0,0,1-.2-.1.76.76,0,0,0-.2-.06.59.59,0,0,0-.47,0,1.26,1.26,0,0,1-.47.14.11.11,0,0,0-.08.06A5.5,5.5,0,0,0,.18,17a.13.13,0,0,0,.11.1,3.87,3.87,0,0,0,1.17.07h1a1.72,1.72,0,0,0,.36,0H3a.15.15,0,0,0,0-.27,1.16,1.16,0,0,0,0-.2,3.75,3.75,0,0,0-.17-.7ZM.25,15.89s.06.07.1.07a.35.35,0,0,0,.16,0,.73.73,0,0,0,.2-.08l.22-.07a.36.36,0,0,1,.23,0l.35.1.22.08A.2.2,0,0,0,2,16l.2-.18a.32.32,0,0,1,.34-.1h.2a.16.16,0,0,1,0-.1c-.08-.3-.18-.59-.26-.9a.53.53,0,0,0-.14-.22c-.22-.18-.28-.16-.49,0H1.73a.35.35,0,0,1-.32,0l-.14-.07H1.08l-.1.1a.45.45,0,0,1-.26.14H.58c-.16,0-.19,0-.22.22s-.07.62-.11.95Zm.86-2.79-.29.1c-.16,0-.19.11-.22.22-.07.34-.12.66-.18,1,0,0,0,.1.07.1a.35.35,0,0,0,.32-.1l.11-.14a.21.21,0,0,1,.2,0,.36.36,0,0,1,.16,0l.17.07a.12.12,0,0,0,.11,0,.5.5,0,0,0,.16-.08.51.51,0,0,1,.47-.1h.06a.21.21,0,0,0,0-.13,1.8,1.8,0,0,0-.12-.44c0-.14-.06-.24-.1-.35A.4.4,0,0,1,2,13a.13.13,0,0,0-.18,0l-.11.11a.31.31,0,0,1-.4.07Zm.76-.48a1.91,1.91,0,0,0-.14-.5c-.11-.36-.19-.71-.3-1.07,0-.13-.07-.25-.13-.25s-.06.1-.07.11a2.63,2.63,0,0,1-.18.65c-.11.42-.19.85-.3,1.28a.18.18,0,0,0,0,.11s0,.08.07.07L1,12.94a.28.28,0,0,1,.24,0h0c.22.07.2.11.38-.08s.12-.07.19-.11a.12.12,0,0,0,.06-.14Z" transform="translate(0.01 0.01)"/><path class="cls-1" d="M12.07,14.36a1.21,1.21,0,0,1-.34.1.61.61,0,0,1-.35-.12A1.1,1.1,0,0,1,11,13.6a1.23,1.23,0,0,1,.07-.52.75.75,0,0,0,.11-.53,2.15,2.15,0,0,1,.1-.86.86.86,0,0,1,.28-.42c.13-.11.23-.23.36-.36A1.41,1.41,0,0,1,13,10.44a.82.82,0,0,1,.66.28.76.76,0,0,1,.13.16.28.28,0,0,0,.2.07,1.27,1.27,0,0,0,.3,0,1.31,1.31,0,0,1,.78.36.81.81,0,0,1,.25.53v.3a.89.89,0,0,0,.13.46,1.24,1.24,0,0,1,.18.41.74.74,0,0,1-.23.73l-.18.13c0,.07-.13.12-.2.2a1,1,0,0,1-.66.3,1.52,1.52,0,0,1-.58,0,1,1,0,0,0-.38,0h0v.08a17,17,0,0,0,.1,1.75c0,.53.11,1.08.11,1.87v.16c0,.06-.08.1-.13.1h-.27v-.08a2.44,2.44,0,0,0,0-.73V14.61h-.08a.68.68,0,0,1-.5-.08A1.12,1.12,0,0,0,12.07,14.36Zm1.64-.89a2.16,2.16,0,0,0-.34.13.16.16,0,0,0-.1.17,1.59,1.59,0,0,1,0,.34c0,.1,0,.12.14.12a1.31,1.31,0,0,1,.43,0h.48A.87.87,0,0,0,14.9,14a1,1,0,0,1,.25-.25.7.7,0,0,0,.17-.16.31.31,0,0,0,.13-.25.44.44,0,0,0,0-.25.86.86,0,0,0-.18-.4,1,1,0,0,1-.1-.36.46.46,0,0,0,0-.18v-.3a.46.46,0,0,0-.13-.3,1.08,1.08,0,0,0-.43-.34,1.58,1.58,0,0,0-.32-.07,1.3,1.3,0,0,1-.32,0,.36.36,0,0,1-.29-.13.64.64,0,0,0-.12-.14.67.67,0,0,0-.56-.23A1.27,1.27,0,0,0,12,11a3.46,3.46,0,0,1-.35.38.63.63,0,0,0-.23.3,2,2,0,0,0-.13.79v.23a.82.82,0,0,1,0,.32,1.39,1.39,0,0,0-.07.18.87.87,0,0,0,.23.94.52.52,0,0,0,.12.1.33.33,0,0,0,.36,0,.18.18,0,0,1,.12,0,1.59,1.59,0,0,1,.52.2.55.55,0,0,0,.48,0,.14.14,0,0,0,.07-.13V14.2A.19.19,0,0,0,13,14l-.2-.17a7.43,7.43,0,0,0-.68-.46v-.06a.15.15,0,0,1,0-.1.14.14,0,0,1,.1,0h.1c.23.16.46.34.68.48h.11v-.62a.36.36,0,0,0-.2-.34h-.1a.54.54,0,0,1-.2-.13,1.12,1.12,0,0,1-.23-.19h0v-.1s0,0,.1,0,.08.07.11.12a1.12,1.12,0,0,0,.4.29l.16.07h0a3.74,3.74,0,0,0,.38-.76.47.47,0,0,1,0-.2v-.11a.11.11,0,0,1,.08,0h0a.1.1,0,0,1,0,.08,1.57,1.57,0,0,1-.11.35.18.18,0,0,0,0,.11h0a.86.86,0,0,1,.26,0v.1h-.08a1.89,1.89,0,0,0-.4.11,1.5,1.5,0,0,0-.16.23.56.56,0,0,0-.07.28,2.31,2.31,0,0,0,0,.41h.1a6.31,6.31,0,0,0,.66-.29h.2c.07,0,0,.06,0,.08h0l-.18.07v.06h.64v.08h-.33a.8.8,0,0,1-.43-.11A.56.56,0,0,1,13.71,13.47Zm-1.85-.68h0a.12.12,0,0,0-.11.08.07.07,0,0,0,0,.1h0a.06.06,0,0,1-.07.06.22.22,0,0,1-.2-.11v-.07a.41.41,0,0,1,.18-.28.15.15,0,1,1,.2.22Zm-.16,1.07a.07.07,0,0,1-.07,0s-.06,0,0-.07h0a.17.17,0,0,0,.13-.07.15.15,0,0,1,0-.08.13.13,0,0,1,0,.08.26.26,0,0,1-.05.13Zm0-1.91a.24.24,0,0,1,.07-.19.21.21,0,0,1,.11-.06h0l-.07.07a.08.08,0,0,0,0,.13h.1s-.06.07-.08.07a.21.21,0,0,1-.28-.11h0Zm.78,1h.23V13a.17.17,0,0,1-.14.07.3.3,0,0,1-.16,0,.09.09,0,0,1,0-.07h0Zm.38-1.82h0l-.11.1a.28.28,0,0,0,0,.13l.06.07a.09.09,0,0,1-.08.08h-.07a.35.35,0,0,1,0-.26.67.67,0,0,1,.14-.19c.06,0,.11-.06.18,0Zm1,2.7h.23c.07,0,.06.06.06.06a.06.06,0,0,0-.06.07.42.42,0,0,1-.25,0h-.07a.1.1,0,0,1,0-.08h.07Zm.61-2.06a.56.56,0,0,1-.07.28.13.13,0,0,1-.18,0,.14.14,0,0,1,0-.2h0v-.06c0-.06,0,0-.1,0s0,0,0-.07h.07a.18.18,0,0,1,.23.11h0Zm.64,1h0a.74.74,0,0,1-.23.3.44.44,0,0,1-.18,0L14.65,13v-.07h0a.29.29,0,0,0,.25-.18v-.1s0-.06.07-.06.18.1.18.15Z" transform="translate(0.01 0.01)"/><path class="cls-1" d="M9.72,13.22v1a.31.31,0,0,0,.06.25v.12l-.86.2a2.62,2.62,0,0,1-.43.06l-.59.08H7.67A.13.13,0,0,0,7.6,15a.6.6,0,0,0,0,.14V18a.69.69,0,0,0,.06.35s0,.11-.06.12a.34.34,0,0,1-.34-.07v-.08a3.33,3.33,0,0,1,0-.35,11,11,0,0,0,0-1.27V15.14a.09.09,0,0,0-.1-.08H7.08a3.5,3.5,0,0,1-.71,0A1.62,1.62,0,0,1,6,15l-.47-.16a.56.56,0,0,1-.36-.37,1.49,1.49,0,0,1-.06-.22c0-.2-.06-.4-.07-.59s0-.62,0-.94a6.06,6.06,0,0,1,.11-1,1.79,1.79,0,0,1,.16-.47.8.8,0,0,1,.49-.43A5.63,5.63,0,0,1,7,10.57l.78-.1a4.52,4.52,0,0,1,.8,0,2.12,2.12,0,0,1,.48.11.63.63,0,0,1,.36.3,1,1,0,0,1,.11.26,2.41,2.41,0,0,1,.12.52,4.41,4.41,0,0,1,.06.79C9.72,12.69,9.72,13,9.72,13.22Zm-1.91.24-.29.11a.15.15,0,0,0-.1.17,1.51,1.51,0,0,0,0,.23,3,3,0,0,0,.06.73h0a.09.09,0,0,0,.11.07h0l.82-.12a7.29,7.29,0,0,0,.86-.17c.18,0,.2-.07.22-.26a8,8,0,0,0,0-1.2v-.36a7.1,7.1,0,0,0,0-.88,3.64,3.64,0,0,0-.13-.64,1.6,1.6,0,0,0-.1-.22A.44.44,0,0,0,9,10.7a2.22,2.22,0,0,0-.49-.08H7.8l-.8.1a4.33,4.33,0,0,0-.95.2,2.44,2.44,0,0,0-.41.17.42.42,0,0,0-.2.2,2,2,0,0,0-.17.47,4.64,4.64,0,0,0-.1.91,6.32,6.32,0,0,0,0,1.26,3.89,3.89,0,0,0,.11.52.44.44,0,0,0,.28.29l.25.08a2.31,2.31,0,0,0,1.25.08h.13a.1.1,0,0,0,.07-.08v-.69a2.14,2.14,0,0,0-.1-.54A1.07,1.07,0,0,0,7,13.18c0-.08-.08-.1-.17-.07H6.66A.77.77,0,0,1,6.17,13h0v-.1h.08l.17.06a.64.64,0,0,0,.4,0,.24.24,0,0,0,.1-.1.56.56,0,0,1,0-.12.69.69,0,0,1,0-.14v-.07a.1.1,0,0,1,.08,0v.08c.07.16.16.31.24.47a1.23,1.23,0,0,0,.1.18.05.05,0,0,0,.1,0,5.14,5.14,0,0,0,.31-.7A2.09,2.09,0,0,0,7.86,12v-.08a.12.12,0,0,1,.1,0A.11.11,0,0,1,8,12H8a7.26,7.26,0,0,1-.32.91,2.11,2.11,0,0,0-.12.24.21.21,0,0,0,0,.08v.07h0l.74-.2h.14a.08.08,0,0,1,0,.07H8.37l-.25.08h0a.09.09,0,0,0,0,.06l.1.06.31.17a.15.15,0,0,1,.07.1v.07h0a4,4,0,0,1-.44-.24A1.07,1.07,0,0,0,7.81,13.46Zm-2-.36a.12.12,0,0,0,0,.06l-.25.32H5.48a.08.08,0,0,1,0-.1A.93.93,0,0,1,5.76,13h0Zm0-1h0l-.25.32H5.48A1.33,1.33,0,0,1,5.72,12h.07s0,0,0,.05ZM5.5,14.41v-.06a.23.23,0,0,1,0-.08,6.23,6.23,0,0,1,.5-.78l.12-.12H6.2s0,0,0,.07a.26.26,0,0,1,0,.07,8.17,8.17,0,0,0-.5.7l-.11.13Zm.8.13H6.24a.45.45,0,0,1,.17-.25h.07A.54.54,0,0,1,6.3,14.54Zm.76-.17h0a1,1,0,0,1-.19.25H6.8a.19.19,0,0,1,0-.06A.79.79,0,0,1,7,14.3h.08s0,0,0,0Z" transform="translate(0.01 0.01)"/><path class="cls-1" d="M11.56,7.16v-.1a3,3,0,0,0,0-.32,3.57,3.57,0,0,1,0-.36.32.32,0,0,0,0-.11V5.78a.06.06,0,0,0-.06-.07h0L11,5.65a.07.07,0,0,0-.08,0c-.08.24-.16.48-.25.72s-.06.22-.11.32a2.26,2.26,0,0,1-.12.3.26.26,0,0,1,0,.07H10.4A.15.15,0,0,1,10.1,7h0V6.9a3.65,3.65,0,0,0,.19-.5c.07-.23.16-.46.23-.7V5.5h0c-.14-.06-.29-.16-.43-.23a.09.09,0,0,0-.12,0l-.14.1L9.1,6l-.22.18H8.82a.1.1,0,0,1-.13-.1A.14.14,0,0,1,8.75,6l.4-.3c.19-.14.37-.29.55-.44l.08-.07a.06.06,0,0,0,0-.08l0,0h0l-.22-.28a.16.16,0,0,0-.13-.06,5.82,5.82,0,0,0-.64.1L8.15,5a.49.49,0,0,1-.23,0,0,0,0,0,1-.06,0,.08.08,0,0,1,0-.1H8l.28-.06.3-.07.55-.1H9.2c.17,0,.22,0,.14-.24a2.7,2.7,0,0,1-.08-.34A.1.1,0,0,0,9.16,4H7.78a.63.63,0,0,1-.25,0,.07.07,0,0,1,0-.1l0,0a.15.15,0,0,1,.13-.06h.65a4.17,4.17,0,0,0,.67,0,.42.42,0,0,0,.17,0c.06,0,.08-.06.1-.12s0-.08,0-.13a1.3,1.3,0,0,1,0-.22.17.17,0,0,0,0-.08A.14.14,0,0,0,9.19,3h0a4.56,4.56,0,0,1-1-.26l-.25-.11a.17.17,0,0,1-.11-.13.07.07,0,0,1,.06-.08H8l.6.22a2.65,2.65,0,0,0,.68.13.1.1,0,0,0,.12-.06h0a3.12,3.12,0,0,1,.22-.4V2.19s0,0-.06-.06a2.72,2.72,0,0,1-.29-.24,4.29,4.29,0,0,0-.49-.44l-.08-.1a.11.11,0,0,1,0-.12.12.12,0,0,1,.11,0h.06l.61.52L9.76,2a.11.11,0,0,0,.13,0,2.14,2.14,0,0,1,.38-.29.1.1,0,0,0,0-.13h0V1.52L10,.77c0-.12-.1-.23-.13-.35a.11.11,0,0,1,0-.12.08.08,0,0,1,.11,0l0,0a.72.72,0,0,1,.11.18l.36.82a.94.94,0,0,1,.1.19.14.14,0,0,0,.12,0,.34.34,0,0,0,.19-.07.7.7,0,0,1,.23-.12.13.13,0,0,0,.1-.13V.42a1.9,1.9,0,0,0,0-.26.32.32,0,0,1,0-.14.09.09,0,0,1,.13,0h0V.08a.2.2,0,0,1,0,.08,5.85,5.85,0,0,1,0,.65v.37a.32.32,0,0,0,0,.08h.06l.44.06h0a.1.1,0,0,0,.08,0L12,1.21c.13-.24.28-.46.42-.68s.16-.23.23-.34L12.7.11h0a.09.09,0,0,1,.11,0V.19a.2.2,0,0,1,0,.12c-.07.11-.14.2-.2.31l-.43.67a.44.44,0,0,0-.06.13.09.09,0,0,0,0,.1,2.19,2.19,0,0,0,.32.18.17.17,0,0,0,.13,0l.13-.07L13,1.49,14,1l.25-.13a.11.11,0,0,1,.12,0,.08.08,0,0,1,0,.11l0,0-.17.11-.3.16-.5.26L13,1.75l-.11.07a.06.06,0,0,0,0,.07A.42.42,0,0,0,13,2a2.25,2.25,0,0,1,.2.26h0a.18.18,0,0,0,.16.06h.06l.47-.12L14.55,2h.18a.08.08,0,0,1,.06.1h0a.13.13,0,0,1-.1.1l-.53.11-.16.1a3.21,3.21,0,0,0-.48.13h0s-.07.06-.06.1a3.52,3.52,0,0,0,.08.38.1.1,0,0,0,.11.08h1.58a.1.1,0,0,1,0,.1.08.08,0,0,1-.07.06H15a10.85,10.85,0,0,1-1.4-.06h-.07V4a.11.11,0,0,0,.07.12L14,4.2h.11c.17,0,.32.11.49.13l.12.06a.09.09,0,0,1,0,.11.08.08,0,0,1-.07.07h-.08a1.69,1.69,0,0,0-.35-.1l-.67-.19h-.06a.08.08,0,0,0-.07,0,.25.25,0,0,0,0,.07,1.38,1.38,0,0,1-.24.46v.06a.1.1,0,0,0,0,.08.9.9,0,0,0,.17.13c.23.14.44.29.67.42a2.82,2.82,0,0,1,.3.23.22.22,0,0,1,.08.12.08.08,0,0,1,0,.11.11.11,0,0,1-.12,0h0a3.8,3.8,0,0,0-.58-.41l-.38-.25L13,5.15h-.08a2.91,2.91,0,0,1-.38.29h0a.07.07,0,0,0,0,.08v.06c0,.06.22.26.31.41s.25.34.37.5a.28.28,0,0,1,.07.13.2.2,0,0,1,0,.08c0,.06-.1.1-.13.06a.16.16,0,0,1-.16,0c-.2-.3-.43-.59-.66-.88l-.12-.2a.11.11,0,0,0-.1,0h-.26c-.2,0-.2,0-.18.25l.07.85a2.67,2.67,0,0,1,0,.31.41.41,0,0,1,0,.12.09.09,0,0,1-.06.08.05.05,0,0,1-.07,0A.11.11,0,0,1,11.56,7.16Zm.19-1.72a1.66,1.66,0,0,0,.52-.14,2,2,0,0,0,.54-.41,1.7,1.7,0,0,0,.38-.65V4.12a1.66,1.66,0,0,0,.11-.66,2.41,2.41,0,0,0,0-.38,1.83,1.83,0,0,0-.17-.55A2,2,0,0,0,12.7,2c-.08-.06-.18-.12-.26-.19a.62.62,0,0,0-.29-.12h-.79a.09.09,0,0,0-.08.06.19.19,0,0,1-.22.1h-.13a.38.38,0,0,0-.17,0L10.4,2a1.64,1.64,0,0,0-.62.59,2.7,2.7,0,0,0-.18.31A.44.44,0,0,0,9.6,3a1.94,1.94,0,0,0-.11.65A1.36,1.36,0,0,0,9.5,4a1.77,1.77,0,0,0,.16.42,1.46,1.46,0,0,0,.62.7,2.43,2.43,0,0,0,.58.24,2.25,2.25,0,0,0,.85.07ZM11,4.76a1.43,1.43,0,0,1-.42-.23,1.74,1.74,0,0,1-.48-.66.91.91,0,0,1-.1-.3.07.07,0,0,1,0-.07h.13a.17.17,0,0,1,0,.08,1.29,1.29,0,0,0,.26.56,1.27,1.27,0,0,0,.18.18,1.12,1.12,0,0,0,.74.3,1.44,1.44,0,0,0,.64-.1.72.72,0,0,0,.28-.19,2.79,2.79,0,0,0,.2-.31,2.91,2.91,0,0,0,.26-.66.43.43,0,0,1,0-.13h0a.08.08,0,0,1,.11,0v.06a1.37,1.37,0,0,1-.11.4,3.11,3.11,0,0,1-.12.3,1.27,1.27,0,0,1-.24.41.74.74,0,0,1-.36.3,1.51,1.51,0,0,1-.61.13A1.78,1.78,0,0,1,11,4.76Zm-.4-2.3a.14.14,0,0,1,.13-.22.13.13,0,0,1,.12.14v0a.14.14,0,0,1-.13.11.13.13,0,0,1-.13-.06Zm.31.88a.36.36,0,0,1-.14-.23V3a.26.26,0,0,1,0-.22.32.32,0,0,1,.3-.13.39.39,0,0,1,.19.08.05.05,0,0,1,0,.07H11a.13.13,0,0,0-.13,0,.2.2,0,0,0,0,.28h0l.17.08a.07.07,0,0,1,0,.1H11Zm.82-.94a.17.17,0,0,1,0-.18.15.15,0,0,1,.14-.08h.06A.14.14,0,0,1,12,2.3h0a.13.13,0,0,1-.14.12h0a.2.2,0,0,1-.2,0Z" transform="translate(0.01 0.01)"/></svg>