<?xml version="1.0" encoding="UTF-8"?>
<svg width="32px" height="32px" viewBox="0 0 32 32" version="1.1" xmlns="http://www.w3.org/2000/svg" xmlns:xlink="http://www.w3.org/1999/xlink">
    <title>Shape</title>
    <g id="Page-1" stroke="none" stroke-width="1" fill="none" fill-rule="evenodd">
        <g id="close" fill="#FFFFFF" fill-rule="nonzero">
            <path d="M0.627,2.04 C-0.316,1.097 1.098,-0.316 2.04,0.627 L16.707,15.294 C16.888,15.475 16.999,15.725 16.999,16.001 C16.999,16.277 16.887,16.527 16.707,16.708 L16.707,16.708 L2.04,31.375 C1.097,32.318 -0.316,30.904 0.627,29.962 L14.587,16.002 L0.627,2.042 L0.627,2.04 Z M16.707,15.293 L16.707,16.706 L17.414,15.999 L16.707,15.292 L16.707,15.293 Z M31.373,29.96 C32.316,30.903 30.902,32.316 29.96,31.373 L15.293,16.706 C15.112,16.525 15.001,16.275 15.001,15.999 C15.001,15.723 15.113,15.473 15.293,15.292 L15.293,15.292 L29.96,0.625 C30.903,-0.318 32.316,1.096 31.373,2.038 L17.413,15.998 L31.373,29.958 L31.373,29.96 Z M16.707,15.293 L16.707,16.706 L17.414,15.999 L16.707,15.292 L16.707,15.293 Z" id="Shape"></path>
        </g>
    </g>
</svg>