<?xml version="1.0" encoding="utf-8"?>
<!-- Generator: Adobe Illustrator 21.1.0, SVG Export Plug-In . SVG Version: 6.00 Build 0)  -->
<svg version="1.1" id="COOK_4U" xmlns="http://www.w3.org/2000/svg" xmlns:xlink="http://www.w3.org/1999/xlink" x="0px" y="0px"
	 viewBox="0 0 300 300.1" style="enable-background:new 0 0 300 300.1;" xml:space="preserve">
<style type="text/css">
	.st0{opacity:0.8;fill:#56596D;enable-background:new    ;}
	.st1{enable-background:new    ;}
	.st2{fill:#FFFFFF;}
</style>
<rect id="Fond_accroche" y="0" class="st0" width="300" height="300.1"/>
<g class="st1">
	<path class="st2" d="M53.5,235.8c-0.1-0.2-0.2-0.3-0.2-0.5v-1.8c0-0.2,0-0.3,0-0.5c-0.1-0.6-0.1-1.2-0.1-1.7c0-0.3,0-0.6-0.1-0.9
		c0-0.2,0-0.3,0-0.5v-1.3c0-0.2,0-0.4,0-0.6c-0.1-0.6-0.1-1.2-0.1-1.7c0-0.5,0-0.9-0.1-1.3c-0.1-0.2,0-0.4,0-0.6v-1.8
		c0-0.3,0-0.6,0-0.8c0-0.2,0-0.3,0-0.5c0-0.6,0-1.2,0.1-1.8c0-0.1,0-0.2,0-0.3c0-0.1,0.1-0.3,0.2-0.3c0.1-0.1,0.1-0.1,0.2-0.1
		c0.3-0.3,0.7-0.4,1.2-0.4c0.3,0,0.6,0,0.9-0.1c0.1-0.1,0.3,0,0.4,0h1c0.3,0,0.6,0,0.8,0c0.6,0,1.1,0.2,1.6,0.5
		c0.1,0.1,0.2,0.2,0.3,0.3c0,0.1,0.1,0.1,0.2,0.1c0.1,0,0.2,0.1,0.3,0.2c0.2,0.2,0.3,0.3,0.4,0.5c0.4,0.7,0.7,1.4,0.8,2.1
		c0.2,1.1,0.2,2.3,0.1,3.4c-0.2,1-0.6,1.9-1.3,2.6c-0.3,0.3-0.6,0.5-0.9,0.8c-0.1,0.1-0.2,0.1-0.3,0.2c-0.5,0.3-1.1,0.6-1.7,0.7
		c-0.2,0.1-0.5,0.1-0.7,0.1c-0.3,0-0.7,0.1-1,0.1c-0.1,0-0.2,0.1-0.2,0.2c-0.1,0.6-0.1,1.3,0,1.9c0,0.4,0.1,0.9,0.1,1.3v2.1
		c0,0.2-0.1,0.3-0.3,0.4c-0.1,0-0.2,0.1-0.2,0.1c-0.3,0-0.7,0.1-1,0.2h-0.3C53.7,236,53.6,235.9,53.5,235.8z M56.8,227.4
		c1-0.2,1.6-0.8,2.2-1.5c0.1-0.1,0.1-0.2,0.2-0.3c0.2-0.4,0.3-0.8,0.3-1.2c0-0.2,0-0.5,0-0.7c0-0.7-0.1-1.3-0.3-1.9
		c0-0.2-0.1-0.3-0.2-0.5c-0.2-0.3-0.4-0.6-0.8-0.7c-0.2-0.1-0.4-0.2-0.7-0.2c-0.4,0-0.7,0-1.1,0c-0.3,0-0.5,0.1-0.8,0.1
		c-0.1,0-0.2,0.1-0.2,0.2c0,0.6,0,1.1-0.1,1.8c0,0.3,0,0.8,0,1.3c0,0.2,0,0.4,0,0.6c0.1,0.5,0.1,1,0.1,1.5v0.9
		c0,0.2,0.1,0.3,0.1,0.5c0,0.1,0.1,0.2,0.3,0.2C56.1,227.5,56.4,227.5,56.8,227.4z"/>
	<path class="st2" d="M65,236c-0.4-0.1-0.8-0.3-1.1-0.5c-0.2-0.1-0.3-0.3-0.3-0.5v-1c0-1,0-2.4,0-3.4c0-0.5,0-1-0.1-1.5
		c-0.1-0.5,0-1-0.1-1.6c0-0.3,0.2-0.6,0-0.9c0-0.3-0.1-0.6-0.1-0.8c0-0.1,0-0.2,0-0.3c0-0.7-0.1-1.4,0-2.2c0-0.1,0-0.2-0.1-0.3
		c-0.1-0.2-0.1-0.3-0.1-0.5v-3.1c0-0.1,0-0.1,0-0.2c0-0.1,0.1-0.3,0.2-0.4c0.1-0.1,0.1-0.1,0.2-0.1c0.1-0.1,0.3-0.2,0.4-0.3
		c0.2-0.1,0.3-0.1,0.5-0.1c0.4-0.1,0.8-0.2,1.3-0.2c0.2,0,0.5-0.1,0.7,0c0.9,0.1,1.7,0.2,2.5,0.6c0.9,0.3,1.6,0.9,2,1.7
		c0.2,0.4,0.4,0.8,0.5,1.2c0.1,0.1,0.1,0.2,0.1,0.3c0.1,0.3,0,0.7,0.1,1c0.1,0.2,0.1,0.5,0,0.7c-0.1,0.6-0.2,1.2-0.5,1.8
		c-0.4,0.8-0.9,1.4-1.6,1.9c-0.1,0.1-0.2,0.2-0.3,0.3c0,0.3,0.2,0.5,0.3,0.8c0.4,1,1.1,2.4,1.6,3.4c0.2,0.5,0.4,1,0.7,1.4
		c0.2,0.3,0.3,0.7,0.5,1c0.1,0.2,0.1,0.3,0.1,0.5c0,0.2,0.1,0.4,0.2,0.6c0,0.2-0.1,0.4-0.3,0.5l-0.2,0.1c0,0-0.1,0-0.1,0
		c-0.4,0-0.8,0-1.2,0c-0.2,0-0.3-0.1-0.3-0.2l-0.7-1.3c-0.3-0.6-0.5-1.1-0.8-1.7c-0.1-0.2-0.2-0.3-0.1-0.6c0-0.1-0.1-0.2-0.1-0.2
		c-0.1-0.1-0.2-0.2-0.3-0.3c-0.2-0.3-0.3-0.7-0.7-1.5c-0.2-0.5-0.4-1-0.7-1.5c0-0.1-0.1-0.2-0.3-0.2c-0.3,0-0.6,0-1,0
		c-0.1,0-0.2,0.1-0.2,0.2v0.8c0,1.7,0,3.9,0,5.6c0,0.3,0,0.5-0.1,0.8c0,0.2-0.2,0.3-0.4,0.3C65.2,236,65.1,236,65,236z M67.9,225.8
		c0.2-0.1,0.4-0.2,0.5-0.3c0.7-0.5,1.1-1.1,1.1-2c0-0.1,0-0.2,0-0.4c0-0.2,0-0.5,0-0.7c-0.1-0.5-0.3-0.9-0.6-1.3
		c-0.2-0.2-0.5-0.4-0.8-0.5c-0.4-0.1-0.9-0.2-1.4-0.3c-0.3-0.1-0.7,0-1,0.1c-0.1,0-0.2,0.1-0.2,0.2c0,0.5,0,1,0,1.6
		c0.1,0.4,0.1,0.8,0.1,1.2c0,0.4,0,0.7,0,1.1c0.1,0.5,0.1,1,0.1,1.5c0,0.1,0.1,0.1,0.2,0.2c0.2,0.1,0.4,0.1,0.6,0.1
		C67,226.1,67.5,226,67.9,225.8z"/>
	<path class="st2" d="M75.5,236c-0.1-0.2-0.3-0.3-0.4-0.3c-0.1,0-0.2-0.1-0.3-0.1c-0.1,0-0.2-0.1-0.2-0.2c-0.1-0.2-0.1-0.5-0.1-0.7
		c0-0.4,0-0.8,0-1.2c0-1,0-1.9,0-2.9c0-0.2,0-0.5,0.1-0.8c0-0.1,0-0.2,0-0.3c0-1.5,0-3,0-4.5c0-0.1,0-0.2,0-0.3
		c-0.1-0.5-0.1-1-0.1-1.5c0-1,0-1.9,0-2.9c0-0.2,0-0.3,0-0.5c0-0.2,0.2-0.4,0.2-0.7c0-0.2,0-0.4,0-0.6c0-0.2,0.2-0.3,0.3-0.3
		c0.2,0,0.4-0.1,0.6-0.1c0.5,0,1,0,1.5-0.1c0.1,0,0.2,0,0.3,0c1.2,0,2.3-0.1,3.5-0.1c0.2,0,0.3,0,0.5,0c0.1,0,0.2,0.1,0.3,0.2
		c0.1,0.1,0.1,0.2,0.1,0.3c0,0.3,0.1,0.7,0.2,1c0,0.1,0,0.2,0,0.3c0,0.1-0.1,0.1-0.1,0.2c-0.5,0.2-1,0.3-1.6,0.1
		c-0.1-0.1-0.2,0-0.3,0c-0.2,0.1-0.3,0.1-0.5,0.1c-0.6,0-1.2,0-1.7,0c-0.3,0-0.6,0.1-0.8,0.1c-0.1,0-0.2,0.2-0.2,0.3
		c0,0.9,0,1.8,0,2.7c0,0.5,0.1,0.9,0.1,1.3c0,0.1,0.1,0.1,0.1,0.1l0.3,0c0.6,0,1.1-0.1,1.6-0.1h0.5c0.2,0,0.3,0.1,0.3,0.3
		c0.2,0.4,0.3,0.8,0.2,1.2c0,0.1-0.1,0.2-0.1,0.3c-0.1,0.2-0.2,0.3-0.4,0.3c-0.2,0-0.3,0.1-0.4,0.1c-0.6,0-1.1,0.1-1.6,0.1L77,227
		c-0.1,0-0.2,0.2-0.2,0.2c0,0.2,0,0.4,0,0.6c0,0.7,0,1.4-0.1,2.2c0,0.4,0.1,0.7,0,1.1s0,0.7,0,1.1c0,0.4,0,0.8,0,1.1
		c0,0.1,0,0.2,0,0.3c0,0.1,0.1,0.2,0.3,0.2H77c0.8,0,1.6-0.1,2.4-0.1c0.3,0,0.6,0,0.9-0.1c0.3-0.1,0.6,0,0.8,0.1
		c0.1,0.1,0.2,0.1,0.2,0.2c0.1,0.5,0.1,1-0.1,1.5c-0.1,0.2-0.2,0.4-0.4,0.4c-0.2,0-0.3,0.1-0.5,0.1c-0.7,0-1.4,0-2.1,0.1
		c-0.2,0-0.5,0-0.7-0.1c-0.3,0.2-0.7,0.3-1.1,0.3c-0.2,0-0.3,0-0.5,0C75.7,236.3,75.6,236.2,75.5,236z M77.6,215.1
		c-0.2-0.1-0.3-0.2-0.5-0.3c0-0.1-0.1-0.1-0.1-0.2c-0.1-0.2,0-0.4,0.1-0.6l0.5-1.3c0.1-0.2,0.2-0.3,0.4-0.3c0.3,0,0.5,0.1,0.7,0.2
		c0.1,0.1,0.2,0.3,0.2,0.5l-0.5,1.6c-0.1,0.2-0.2,0.3-0.3,0.3l-0.2,0.1C77.7,215.1,77.6,215.1,77.6,215.1z"/>
	<path class="st2" d="M84.1,235.8c-0.1-0.2-0.2-0.3-0.2-0.5v-1.8c0-0.2,0-0.3,0-0.5c-0.1-0.6-0.1-1.2-0.1-1.7c0-0.3,0-0.6-0.1-0.9
		c0-0.2,0-0.3,0-0.5v-1.3c0-0.2,0-0.4,0-0.6c-0.1-0.6-0.1-1.2-0.1-1.7c0-0.5,0-0.9-0.1-1.3c-0.1-0.2,0-0.4,0-0.6v-1.8
		c0-0.3,0-0.6,0-0.8c0-0.2,0-0.3,0-0.5c0-0.6,0-1.2,0.1-1.8c0-0.1,0-0.2,0-0.3c0-0.1,0.1-0.3,0.2-0.3c0.1-0.1,0.1-0.1,0.2-0.1
		c0.3-0.3,0.7-0.4,1.2-0.4c0.3,0,0.6,0,0.9-0.1c0.1-0.1,0.3,0,0.4,0h1c0.3,0,0.6,0,0.8,0c0.6,0,1.1,0.2,1.6,0.5
		c0.1,0.1,0.2,0.2,0.3,0.3c0,0.1,0.1,0.1,0.2,0.1c0.1,0,0.2,0.1,0.3,0.2c0.2,0.2,0.3,0.3,0.4,0.5c0.4,0.7,0.7,1.4,0.8,2.1
		c0.2,1.1,0.2,2.3,0.1,3.4c-0.2,1-0.6,1.9-1.3,2.6c-0.3,0.3-0.6,0.5-0.9,0.8c-0.1,0.1-0.2,0.1-0.3,0.2c-0.5,0.3-1.1,0.6-1.7,0.7
		c-0.2,0.1-0.5,0.1-0.7,0.1c-0.3,0-0.7,0.1-1,0.1c-0.1,0-0.2,0.1-0.2,0.2c-0.1,0.6-0.1,1.3,0,1.9c0,0.4,0.1,0.9,0.1,1.3v2.1
		c0,0.2-0.1,0.3-0.3,0.4c-0.1,0-0.2,0.1-0.2,0.1c-0.3,0-0.7,0.1-1,0.2h-0.3C84.3,236,84.2,235.9,84.1,235.8z M87.3,227.4
		c1-0.2,1.6-0.8,2.2-1.5c0.1-0.1,0.1-0.2,0.2-0.3c0.2-0.4,0.3-0.8,0.3-1.2c0-0.2,0-0.5,0-0.7c0-0.7-0.1-1.3-0.3-1.9
		c0-0.2-0.1-0.3-0.2-0.5c-0.2-0.3-0.4-0.6-0.8-0.7c-0.2-0.1-0.4-0.2-0.7-0.2c-0.4,0-0.7,0-1.1,0c-0.3,0-0.5,0.1-0.8,0.1
		c-0.1,0-0.2,0.1-0.2,0.2c0,0.6,0,1.1-0.1,1.8c0,0.3,0,0.8,0,1.3c0,0.2,0,0.4,0,0.6c0.1,0.5,0.1,1,0.1,1.5v0.9
		c0,0.2,0.1,0.3,0.1,0.5c0,0.1,0.1,0.2,0.3,0.2C86.6,227.5,87,227.5,87.3,227.4z"/>
	<path class="st2" d="M101.3,235.7c-0.1-0.2-0.2-0.3-0.1-0.5c0-0.1,0-0.1,0-0.2c-0.3-0.5-0.3-0.5-0.4-0.9c0-0.1,0-0.2-0.1-0.3
		c-0.3-0.6-0.5-1.2-0.7-1.9c0-0.1,0-0.2-0.1-0.3c-0.1-0.1-0.1-0.2-0.3-0.2h-0.3c-0.3,0-0.6,0-0.8,0c-0.5,0-1,0-1.5,0.1
		c-0.1,0-0.2,0-0.3,0c-0.7,0-0.7,0.1-0.8,0.7l-0.6,2.4c-0.1,0.2-0.2,0.4-0.2,0.6c-0.1,0.1-0.2,0.2-0.3,0.2c-0.6,0.1-1.1,0-1.6-0.3
		c-0.1,0-0.1-0.1-0.1-0.1c-0.1-0.1-0.2-0.2-0.2-0.4l0.2-0.9c0.2-0.8,0.4-1.7,0.6-2.5c0.3-1.2,0.6-2.3,0.8-3.4c0-0.2,0.1-0.3,0.1-0.5
		s0.2-0.3,0.2-0.5c0-0.2,0-0.3,0-0.5c0-0.2,0.1-0.3,0.1-0.4l1-4.1c0.1-0.4,0.2-0.8,0.2-1.2c0.1-0.2,0.1-0.4,0.1-0.6
		c-0.1-0.7,0.2-1.3,0.4-1.9c0.1-0.1,0.2-0.2,0.3-0.2c0.5-0.1,1,0,1.5,0.2c0.2,0.1,0.3,0.2,0.3,0.5c0,0.6,0.2,1.1,0.2,1.6
		c0.1,0.6,0.3,1.2,0.4,1.9c0.1,0.6,0.2,1.2,0.4,1.8c0.3,1.1,0.6,2.2,0.9,3.2l0.9,2.7c0.1,0.5,0.3,0.9,0.4,1.4
		c0.2,0.7,0.4,1.5,0.7,2.1c0.2,0.5,0.2,1,0.4,1.4c0.1,0.1,0,0.3,0,0.4c0,0.1-0.1,0.2-0.2,0.3l-0.2,0.1c-0.3,0.1-0.7,0.2-1.1,0.4
		C101.7,236.1,101.5,236,101.3,235.7z M98.1,229.3c0.2,0,0.6,0,1-0.1c0.1,0,0.1-0.1,0.1-0.2c0-0.1,0-0.2-0.1-0.3
		c-0.3-0.9-0.6-1.9-0.8-2.8l-0.3-1.1c0,0-0.1-0.1-0.1-0.1s-0.1,0-0.1,0.1l-0.2,0.4c-0.2,1.1-0.5,2.1-0.7,3.2c0,0.2-0.1,0.4-0.1,0.6
		c0,0.1,0.1,0.2,0.2,0.2H98.1z"/>
	<path class="st2" d="M106.5,236c-0.4-0.1-0.8-0.3-1.1-0.5c-0.2-0.1-0.3-0.3-0.3-0.5v-1c0-1,0-2.4,0-3.4c0-0.5,0-1-0.1-1.5
		c-0.1-0.5,0-1-0.1-1.6c0-0.3,0.2-0.6,0-0.9c0-0.3-0.1-0.6-0.1-0.8c0-0.1,0-0.2,0-0.3c0-0.7-0.1-1.4,0-2.2c0-0.1,0-0.2-0.1-0.3
		c-0.1-0.2-0.1-0.3-0.1-0.5v-3.1c0-0.1,0-0.1,0-0.2c0-0.1,0.1-0.3,0.2-0.4c0.1-0.1,0.1-0.1,0.2-0.1c0.1-0.1,0.3-0.2,0.4-0.3
		c0.2-0.1,0.3-0.1,0.5-0.1c0.4-0.1,0.8-0.2,1.3-0.2c0.2,0,0.5-0.1,0.7,0c0.9,0.1,1.7,0.2,2.5,0.6c0.9,0.3,1.6,0.9,2,1.7
		c0.2,0.4,0.4,0.8,0.5,1.2c0.1,0.1,0.1,0.2,0.1,0.3c0.1,0.3,0,0.7,0.1,1c0.1,0.2,0.1,0.5,0,0.7c-0.1,0.6-0.2,1.2-0.5,1.8
		c-0.4,0.8-0.9,1.4-1.6,1.9c-0.1,0.1-0.2,0.2-0.3,0.3c0,0.3,0.2,0.5,0.3,0.8c0.4,1,1.1,2.4,1.6,3.4c0.2,0.5,0.4,1,0.7,1.4
		c0.2,0.3,0.3,0.7,0.5,1c0.1,0.2,0.1,0.3,0.1,0.5c0,0.2,0.1,0.4,0.2,0.6c0,0.2-0.1,0.4-0.3,0.5l-0.2,0.1c0,0-0.1,0-0.1,0
		c-0.4,0-0.8,0-1.2,0c-0.2,0-0.3-0.1-0.3-0.2l-0.7-1.3c-0.3-0.6-0.5-1.1-0.8-1.7c-0.1-0.2-0.2-0.3-0.1-0.6c0-0.1-0.1-0.2-0.1-0.2
		c-0.1-0.1-0.2-0.2-0.3-0.3c-0.2-0.3-0.3-0.7-0.7-1.5c-0.2-0.5-0.4-1-0.7-1.5c0-0.1-0.1-0.2-0.3-0.2c-0.3,0-0.6,0-1,0
		c-0.1,0-0.2,0.1-0.2,0.2v0.8c0,1.7,0,3.9,0,5.6c0,0.3,0,0.5-0.1,0.8c0,0.2-0.2,0.3-0.4,0.3C106.7,236,106.6,236,106.5,236z
		 M109.3,225.8c0.2-0.1,0.4-0.2,0.5-0.3c0.7-0.5,1.1-1.1,1.1-2c0-0.1,0-0.2,0-0.4c0-0.2,0-0.5,0-0.7c-0.1-0.5-0.3-0.9-0.6-1.3
		c-0.2-0.2-0.5-0.4-0.8-0.5c-0.4-0.1-0.9-0.2-1.4-0.3c-0.3-0.1-0.7,0-1,0.1c-0.1,0-0.2,0.1-0.2,0.2c0,0.5,0,1,0,1.6
		c0.1,0.4,0.1,0.8,0.1,1.2c0,0.4,0,0.7,0,1.1c0.1,0.5,0.1,1,0.1,1.5c0,0.1,0.1,0.1,0.2,0.2c0.2,0.1,0.4,0.1,0.6,0.1
		C108.4,226.1,108.9,226,109.3,225.8z"/>
	<path class="st2" d="M123.3,235.7c-0.1-0.2-0.2-0.3-0.1-0.5c0-0.1,0-0.1,0-0.2c-0.3-0.5-0.3-0.5-0.4-0.9c0-0.1,0-0.2-0.1-0.3
		c-0.3-0.6-0.5-1.2-0.7-1.9c0-0.1,0-0.2-0.1-0.3c-0.1-0.1-0.1-0.2-0.3-0.2h-0.3c-0.3,0-0.6,0-0.8,0c-0.5,0-1,0-1.5,0.1
		c-0.1,0-0.2,0-0.3,0c-0.7,0-0.7,0.1-0.8,0.7l-0.6,2.4c-0.1,0.2-0.2,0.4-0.2,0.6c-0.1,0.1-0.2,0.2-0.3,0.2c-0.6,0.1-1.1,0-1.6-0.3
		c-0.1,0-0.1-0.1-0.1-0.1c-0.1-0.1-0.2-0.2-0.2-0.4l0.2-0.9c0.2-0.8,0.4-1.7,0.6-2.5c0.3-1.2,0.6-2.3,0.8-3.4c0-0.2,0.1-0.3,0.1-0.5
		s0.2-0.3,0.2-0.5c0-0.2,0-0.3,0-0.5c0-0.2,0.1-0.3,0.1-0.4l1-4.1c0.1-0.4,0.2-0.8,0.2-1.2c0.1-0.2,0.1-0.4,0.1-0.6
		c-0.1-0.7,0.2-1.3,0.4-1.9c0.1-0.1,0.2-0.2,0.3-0.2c0.5-0.1,1,0,1.5,0.2c0.2,0.1,0.3,0.2,0.3,0.5c0,0.6,0.2,1.1,0.2,1.6
		c0.1,0.6,0.3,1.2,0.4,1.9c0.1,0.6,0.2,1.2,0.4,1.8c0.3,1.1,0.6,2.2,0.9,3.2l0.9,2.7c0.1,0.5,0.3,0.9,0.4,1.4
		c0.2,0.7,0.4,1.5,0.7,2.1c0.2,0.5,0.2,1,0.4,1.4c0.1,0.1,0,0.3,0,0.4c0,0.1-0.1,0.2-0.2,0.3l-0.2,0.1c-0.3,0.1-0.7,0.2-1.1,0.4
		C123.7,236.1,123.5,236,123.3,235.7z M120.1,229.3c0.2,0,0.6,0,1-0.1c0.1,0,0.1-0.1,0.1-0.2c0-0.1,0-0.2-0.1-0.3
		c-0.3-0.9-0.6-1.9-0.8-2.8l-0.3-1.1c0,0-0.1-0.1-0.1-0.1s-0.1,0-0.1,0.1l-0.2,0.4c-0.2,1.1-0.5,2.1-0.7,3.2c0,0.2-0.1,0.4-0.1,0.6
		c0,0.1,0.1,0.2,0.2,0.2H120.1z"/>
	<path class="st2" d="M129.2,235.8c-0.1,0-0.1-0.1-0.1-0.1c-0.1-0.4-0.2-0.8-0.2-1.3v-1.8c0-3.4,0-7.6,0-10.9v-0.3
		c0-0.8,0-0.8-0.8-0.8c-0.2,0-0.4,0.1-0.6,0.1c-0.2,0-0.4,0-0.6,0.1c-0.3,0.1-0.6-0.1-0.9-0.2c0,0-0.1-0.1-0.1-0.2
		c0-0.2,0-0.3,0-0.5c0-0.4,0.2-0.7,0.3-1.1c0.1-0.2,0.2-0.3,0.4-0.3c0.6-0.1,1.1-0.2,1.7-0.2c0.6-0.1,1.1-0.1,1.7-0.2
		c0.9-0.1,1.8-0.1,2.7-0.2c0.4,0,0.9,0,1.3-0.1c0.1,0,0.2,0,0.3,0c0.2,0,0.3,0.1,0.3,0.2c0.1,0.2,0.2,0.3,0.2,0.6
		c0,0.2,0,0.4,0.1,0.6l-0.1,0.6c0,0.1-0.1,0.2-0.2,0.2c-0.2,0.1-0.5,0.1-0.8,0.1c-0.4,0-0.9,0-1.4,0c-0.3,0-0.7,0-1,0.1
		c-0.1,0-0.2,0.1-0.2,0.2c0,0.4-0.1,0.8-0.1,1.3c0,3.6,0,8,0,11.5c0,0.3,0,0.7,0.1,1c0.1,0.3,0,0.6,0,1c0,0.2-0.1,0.3-0.3,0.4
		c-0.4,0.2-0.9,0.3-1.4,0.2C129.4,236,129.3,235.9,129.2,235.8z"/>
	<path class="st2" d="M137.3,236c-0.2,0-0.3-0.1-0.5-0.2c-0.1-0.1-0.2-0.2-0.2-0.3c0-0.1,0-0.2,0-0.3c0-0.4,0-0.8-0.1-1.2
		c0-0.2,0-0.3,0-0.5c0-1,0-1.9,0-2.9c0-0.9,0-1.9,0-2.8c0-0.4,0-0.7-0.1-1.1c-0.1-0.2,0-0.5,0-0.7c0-1.8,0-4.4-0.1-6.3v-1
		c0-0.1,0.1-0.2,0.2-0.3c0.1-0.1,0.2-0.1,0.4-0.2c0.4-0.1,0.8-0.1,1.2,0c0.2,0.1,0.4,0.3,0.4,0.6c0,0.2,0,0.3,0,0.5v3.3h0v2.3
		c0,0.4,0,0.7,0.1,1.1c0,0.2,0,0.4,0,0.6c0,1.8,0,3.6,0,5.5c0,0.5,0.1,1,0.1,1.6c0.1,0.6,0.1,1.3,0,1.9c0,0,0,0.1,0,0.1
		c0,0.1-0.2,0.2-0.2,0.2C138.2,236.1,137.7,236.1,137.3,236z"/>
	<path class="st2" d="M142.8,234.4c-0.6-1-1-2-1.3-3.1c-0.2-0.7-0.4-1.4-0.5-2.1c0-0.2-0.1-0.3-0.1-0.5c0-0.3-0.1-0.5-0.1-0.8
		c-0.1-0.2-0.1-0.4-0.1-0.6c-0.1-1.1-0.1-2.3,0-3.4c0-0.2,0-0.3,0.1-0.5s0.1-0.4,0.1-0.6c0.1-1.1,0.5-2.1,1.1-3
		c0.6-1,1.5-1.6,2.7-1.9l0.4-0.1c0.7-0.1,1.3,0,2,0c0.3,0,0.6,0.1,0.9,0.2c0.4,0.2,0.7,0.5,1,0.9c0.2,0.3,0.3,0.5,0.4,0.8
		c0.3,0.8,0.6,1.6,0.8,2.5c0.1,0.5,0.3,1.5,0.3,1.9c0,0.4,0,0.8,0.1,1.2v0.8c0,0.7,0,1.5-0.1,2.2c0,0.2,0,0.3-0.1,0.5
		c-0.1,0.2-0.1,0.5-0.1,0.7c0,0.2,0,0.3-0.1,0.4c-0.1,0.2-0.1,0.5-0.1,0.7c0,0.5-0.2,1.9-0.4,2.3c-0.1,0.2-0.1,0.4-0.2,0.6
		c-0.3,0.8-0.8,1.5-1.6,2c-0.4,0.3-0.8,0.5-1.2,0.6c-0.5,0.1-1,0.1-1.5,0C144.2,236,143.3,235.4,142.8,234.4z M146.4,233.9
		c0.4-0.2,0.7-0.5,0.9-1c0.1-0.3,0.3-0.6,0.3-1c0.1-0.5,0.2-1,0.2-1.5c0-0.1,0-0.2,0.1-0.2c0.1-0.2,0.1-0.5,0.1-0.7
		c0-0.3,0-0.7,0.1-1c0.1-0.3,0.1-0.6,0.1-1c0-0.5,0-0.9,0.1-1.6c0-0.3,0-0.9-0.1-1.4c0-0.3-0.1-0.6-0.1-1c-0.1-0.6-0.2-1.2-0.4-1.9
		c-0.1-0.4-0.3-0.8-0.5-1.3c-0.1-0.2-0.2-0.3-0.4-0.3c-0.5-0.1-1.1-0.1-1.6,0c-0.3,0.1-0.6,0.2-0.8,0.3c-0.4,0.3-0.7,0.7-0.9,1.2
		c-0.1,0.2-0.2,0.5-0.2,0.7c-0.2,0.8-0.3,1.6-0.3,2.4c0,0.3,0,0.6,0,0.9c0,0.7,0,1.5,0.2,2.1c0,0.2,0,0.3,0,0.5c0,0.1,0,0.3,0.1,0.4
		c0.1,0.7,0.3,1.4,0.5,2.1c0.2,0.8,0.5,1.5,0.9,2.2c0.1,0.3,0.3,0.5,0.5,0.7c0.3,0.2,0.5,0.3,0.9,0.4
		C146.1,234,146.3,234,146.4,233.9z"/>
	<path class="st2" d="M160.3,235.6l-0.5-1c-0.5-1-0.9-2-1.3-2.9l-0.1-0.2c-0.8-1.8-1.7-4.1-2.5-5.8c-0.4-0.8-0.6-1.6-1-2.4
		c0-0.1-0.1-0.1-0.1-0.1c0,0-0.1,0.1-0.1,0.1c0,0.8,0.1,1.6,0.1,2.3c0,0.6,0.1,1.1,0,1.6c-0.1,0.3-0.1,1-0.1,1.3v3.6
		c0,0.2,0,0.5,0,0.7c0,0.2,0,0.3,0.1,0.5c0,0.1,0.1,0.2,0.1,0.3v1.5c0,0.2-0.1,0.3-0.2,0.4c-0.2,0.1-0.3,0.2-0.6,0.2h-1
		c-0.1,0-0.3-0.1-0.4-0.2c-0.1-0.1-0.2-0.2-0.2-0.4c0-0.2,0-0.4,0-0.6v-5.9c0,0,0,0,0,0l-0.1-6.3c0-0.4,0-0.7-0.1-1.1
		c-0.1-0.7-0.1-1.4-0.1-2.1c0-0.1,0-0.1,0-0.2c0-0.2,0.1-0.3,0.3-0.4c0.1-0.1,0.2-0.1,0.3-0.1c0.3,0,0.6-0.1,0.8-0.2
		c0.1,0,0.2,0,0.3,0c0.1,0,0.3,0,0.4,0.1c0.3,0.4,0.5,0.8,0.8,1.3c0.4,0.7,0.7,1.5,1.1,2.2c0.2,0.5,0.3,1,0.5,1.4
		c0.2,0.5,0.4,0.9,0.6,1.4c0.6,1.2,1.3,3,1.8,4.2c0.3,0.6,0.5,1.2,0.8,1.7c0,0.1,0.1,0.1,0.2,0.2l0.1,0c0.1-0.3,0-0.6,0-1
		c-0.1-0.3-0.1-0.7-0.1-1l-0.1-6.5c0-0.3,0-1.4-0.1-1.7c-0.1-0.7-0.1-1.3-0.1-2c0-0.1,0.1-0.2,0.2-0.3c0.3-0.1,0.7-0.2,1.1-0.2
		c0.2,0,0.4,0.1,0.6,0.2c0.2,0.1,0.3,0.2,0.3,0.5c0,0.4,0.1,0.7,0.1,1c0.1,0.4,0.1,0.9,0.1,1.3l0.1,5.2c0,0.1,0,0.2,0,0.3
		c0.1,0.6,0.1,1.2,0.1,1.8c0,1.1,0,2.3,0.1,3.4c0,0.3,0,0.7,0.1,1c0,0.2,0,0.3,0,0.5c0,0.6,0,1.3,0,1.9c0,0.2-0.1,0.4-0.2,0.6
		c-0.1,0.1-0.2,0.2-0.3,0.2c-0.1,0-0.1,0-0.2,0c-0.2,0-0.4-0.1-0.6-0.1c-0.2,0-0.3,0.1-0.5,0.1C160.7,236.1,160.5,236,160.3,235.6z"
		/>
	<path class="st2" d="M170.9,235.8c-0.2-0.1-0.4-0.2-0.6-0.3c-0.1-0.1-0.1-0.2-0.1-0.2c0-0.1,0-0.3,0.1-0.4c0.1-0.2,0.1-0.4,0.1-0.6
		c0-0.2,0-0.5,0.1-0.7c0.1-0.1,0.1-0.2,0.1-0.3v-1c0-2.5,0-5,0-7.5c0-0.3,0-0.7,0-1c0-0.1,0-0.2,0-0.3c-0.2-0.9-0.1-1.8-0.1-2.6
		c0-0.7,0-1.3,0-2c0-0.1,0-0.2,0-0.3c0-0.2,0.2-0.3,0.3-0.4c0.1,0,0.1,0,0.2,0c0.3-0.1,0.7,0,1-0.2c0.7-0.1,1.3-0.1,2,0
		c0.8,0.2,1.5,0.5,2.1,1c0.5,0.5,0.9,1,1.2,1.6l0.4,0.7c0.3,0.6,0.5,1.3,0.7,2c0,0.5,0.2,1,0.3,1.5l0.1,0.4c0,0.1,0,0.3,0,0.4
		c0.2,0.7,0.1,1.3,0.1,2v0.5c0,0.5,0,0.9-0.1,1.4c-0.1,0.7-0.3,1.4-0.5,2.1c-0.2,0.7-0.6,1.4-1,2.1c-0.3,0.5-0.7,1-1.2,1.4
		c-0.2,0.2-0.5,0.3-0.7,0.5c-0.7,0.4-1.4,0.5-2.1,0.6c-0.3,0-0.7,0-1,0C171.6,236,171.3,235.9,170.9,235.8z M173.4,233.7
		c0.5-0.1,0.8-0.3,1.2-0.6c0.5-0.5,0.9-1.1,1.2-1.8c0.2-0.6,0.4-1.1,0.5-1.7c0.1-0.6,0.3-1.2,0.2-1.7c0-0.5,0-0.8,0-1.1
		c-0.1-0.7-0.2-1.5-0.3-2.2l-0.2-1c-0.2-0.7-0.5-1.4-0.8-2c-0.2-0.3-0.4-0.6-0.7-0.9c-0.2-0.2-0.5-0.3-0.7-0.4
		c-0.3-0.1-0.6-0.1-1-0.1c-0.1,0-0.1,0.1-0.2,0.2v0.1c0,0.7,0,1.5,0.1,2.3c0.1,0.5,0.1,1,0.1,1.6c0,2.6,0,5.1,0,7.7
		c0,0.2,0,0.4,0,0.6c-0.1,0.4,0,0.7,0.1,1.1c0,0.1,0.1,0.2,0.2,0.2C173.1,233.8,173.3,233.7,173.4,233.7z"/>
	<path class="st2" d="M181.7,236c-0.1-0.2-0.3-0.3-0.4-0.3c-0.1,0-0.2-0.1-0.3-0.1c-0.1,0-0.2-0.1-0.2-0.2c-0.1-0.2-0.1-0.5-0.1-0.7
		c0-0.4,0-0.8,0-1.2c0-1,0-1.9,0-2.9c0-0.2,0-0.5,0.1-0.8c0-0.1,0-0.2,0-0.3c0-1.5,0-3,0-4.5c0-0.1,0-0.2,0-0.3
		c-0.1-0.5-0.1-1-0.1-1.5c0-1,0-1.9,0-2.9c0-0.2,0-0.3,0-0.5c0-0.2,0.2-0.4,0.2-0.7c0-0.2,0-0.4,0-0.6c0-0.2,0.2-0.3,0.3-0.3
		c0.2,0,0.4-0.1,0.6-0.1c0.5,0,1,0,1.5-0.1c0.1,0,0.2,0,0.3,0c1.2,0,2.3-0.1,3.5-0.1c0.2,0,0.3,0,0.5,0c0.1,0,0.2,0.1,0.3,0.2
		c0.1,0.1,0.1,0.2,0.1,0.3c0,0.3,0.1,0.7,0.2,1c0,0.1,0,0.2,0,0.3c0,0.1-0.1,0.1-0.1,0.2c-0.5,0.2-1,0.3-1.6,0.1
		c-0.1-0.1-0.2,0-0.3,0c-0.2,0.1-0.3,0.1-0.5,0.1c-0.6,0-1.2,0-1.7,0c-0.3,0-0.6,0.1-0.8,0.1c-0.1,0-0.2,0.2-0.2,0.3
		c0,0.9,0,1.8,0,2.7c0,0.5,0.1,0.9,0.1,1.3c0,0.1,0.1,0.1,0.1,0.1l0.3,0c0.6,0,1.1-0.1,1.6-0.1h0.5c0.2,0,0.3,0.1,0.3,0.3
		c0.2,0.4,0.3,0.8,0.2,1.2c0,0.1-0.1,0.2-0.1,0.3c-0.1,0.2-0.2,0.3-0.4,0.3c-0.2,0-0.3,0.1-0.4,0.1c-0.6,0-1.1,0.1-1.6,0.1l-0.3,0.1
		c-0.1,0-0.2,0.2-0.2,0.2c0,0.2,0,0.4,0,0.6c0,0.7,0,1.4-0.1,2.2c0,0.4,0.1,0.7,0,1.1s0,0.7,0,1.1c0,0.4,0,0.8,0,1.1
		c0,0.1,0,0.2,0,0.3c0,0.1,0.1,0.2,0.3,0.2h0.1c0.8,0,1.6-0.1,2.4-0.1c0.3,0,0.6,0,0.9-0.1c0.3-0.1,0.6,0,0.8,0.1
		c0.1,0.1,0.2,0.1,0.2,0.2c0.1,0.5,0.1,1-0.1,1.5c-0.1,0.2-0.2,0.4-0.4,0.4c-0.2,0-0.3,0.1-0.5,0.1c-0.7,0-1.4,0-2.1,0.1
		c-0.2,0-0.5,0-0.7-0.1c-0.3,0.2-0.7,0.3-1.1,0.3c-0.2,0-0.3,0-0.5,0C181.9,236.3,181.8,236.2,181.7,236z"/>
	<path class="st2" d="M196.7,236c-0.4-0.1-0.8-0.3-1.1-0.5c-0.2-0.1-0.3-0.3-0.3-0.5v-1c0-1,0-2.4,0-3.4c0-0.5,0-1-0.1-1.5
		c-0.1-0.5,0-1-0.1-1.6c0-0.3,0.2-0.6,0-0.9c0-0.3-0.1-0.6-0.1-0.8c0-0.1,0-0.2,0-0.3c0-0.7-0.1-1.4,0-2.2c0-0.1,0-0.2-0.1-0.3
		c-0.1-0.2-0.1-0.3-0.1-0.5v-3.1c0-0.1,0-0.1,0-0.2c0-0.1,0.1-0.3,0.2-0.4c0.1-0.1,0.1-0.1,0.2-0.1c0.1-0.1,0.3-0.2,0.4-0.3
		c0.2-0.1,0.3-0.1,0.5-0.1c0.4-0.1,0.8-0.2,1.3-0.2c0.2,0,0.5-0.1,0.7,0c0.9,0.1,1.7,0.2,2.5,0.6c0.9,0.3,1.6,0.9,2,1.7
		c0.2,0.4,0.4,0.8,0.5,1.2c0.1,0.1,0.1,0.2,0.1,0.3c0.1,0.3,0,0.7,0.1,1c0.1,0.2,0.1,0.5,0,0.7c-0.1,0.6-0.2,1.2-0.5,1.8
		c-0.4,0.8-0.9,1.4-1.6,1.9c-0.1,0.1-0.2,0.2-0.3,0.3c0,0.3,0.2,0.5,0.3,0.8c0.4,1,1.1,2.4,1.6,3.4c0.2,0.5,0.4,1,0.7,1.4
		c0.2,0.3,0.3,0.7,0.5,1c0.1,0.2,0.1,0.3,0.1,0.5c0,0.2,0.1,0.4,0.2,0.6c0,0.2-0.1,0.4-0.3,0.5l-0.2,0.1c0,0-0.1,0-0.1,0
		c-0.4,0-0.8,0-1.2,0c-0.2,0-0.3-0.1-0.3-0.2l-0.7-1.3c-0.3-0.6-0.5-1.1-0.8-1.7c-0.1-0.2-0.2-0.3-0.1-0.6c0-0.1-0.1-0.2-0.1-0.2
		c-0.1-0.1-0.2-0.2-0.3-0.3c-0.2-0.3-0.3-0.7-0.7-1.5c-0.2-0.5-0.4-1-0.7-1.5c0-0.1-0.1-0.2-0.3-0.2c-0.3,0-0.6,0-0.9,0
		c-0.1,0-0.2,0.1-0.2,0.2v0.8c0,1.7,0,3.9,0,5.6c0,0.3,0,0.5-0.1,0.8c0,0.2-0.2,0.3-0.4,0.3C197,236,196.9,236,196.7,236z
		 M199.6,225.8c0.2-0.1,0.4-0.2,0.5-0.3c0.7-0.5,1.1-1.1,1.1-2c0-0.1,0-0.2,0-0.4c0-0.2,0-0.5,0-0.7c-0.1-0.5-0.3-0.9-0.6-1.3
		c-0.2-0.2-0.5-0.4-0.8-0.5c-0.4-0.1-0.9-0.2-1.4-0.3c-0.3-0.1-0.7,0-1,0.1c-0.1,0-0.2,0.1-0.2,0.2c0,0.5,0,1,0,1.6
		c0.1,0.4,0.1,0.8,0.1,1.2c0,0.4,0,0.7,0,1.1c0.1,0.5,0.1,1,0.1,1.5c0,0.1,0.1,0.1,0.2,0.2c0.2,0.1,0.4,0.1,0.6,0.1
		C198.7,226.1,199.2,226,199.6,225.8z"/>
	<path class="st2" d="M207.2,236c-0.1-0.2-0.3-0.3-0.4-0.3c-0.1,0-0.2-0.1-0.3-0.1c-0.1,0-0.2-0.1-0.2-0.2c-0.1-0.2-0.1-0.5-0.1-0.7
		c0-0.4,0-0.8,0-1.2c0-1,0-1.9,0-2.9c0-0.2,0-0.5,0.1-0.8c0-0.1,0-0.2,0-0.3c0-1.5,0-3,0-4.5c0-0.1,0-0.2,0-0.3
		c-0.1-0.5-0.1-1-0.1-1.5c0-1,0-1.9,0-2.9c0-0.2,0-0.3,0-0.5c0-0.2,0.2-0.4,0.2-0.7c0-0.2,0-0.4,0-0.6c0-0.2,0.2-0.3,0.3-0.3
		c0.2,0,0.4-0.1,0.6-0.1c0.5,0,1,0,1.5-0.1c0.1,0,0.2,0,0.3,0c1.2,0,2.3-0.1,3.5-0.1c0.2,0,0.3,0,0.5,0c0.1,0,0.2,0.1,0.3,0.2
		c0.1,0.1,0.1,0.2,0.1,0.3c0,0.3,0.1,0.7,0.2,1c0,0.1,0,0.2,0,0.3c0,0.1-0.1,0.1-0.1,0.2c-0.5,0.2-1,0.3-1.6,0.1
		c-0.1-0.1-0.2,0-0.3,0c-0.2,0.1-0.3,0.1-0.5,0.1c-0.6,0-1.2,0-1.7,0c-0.3,0-0.6,0.1-0.8,0.1c-0.1,0-0.2,0.2-0.2,0.3
		c0,0.9,0,1.8,0,2.7c0,0.5,0.1,0.9,0.1,1.3c0,0.1,0.1,0.1,0.1,0.1l0.3,0c0.6,0,1.1-0.1,1.6-0.1h0.5c0.2,0,0.3,0.1,0.3,0.3
		c0.2,0.4,0.3,0.8,0.2,1.2c0,0.1-0.1,0.2-0.1,0.3c-0.1,0.2-0.2,0.3-0.4,0.3c-0.2,0-0.3,0.1-0.4,0.1c-0.6,0-1.1,0.1-1.6,0.1l-0.3,0.1
		c-0.1,0-0.2,0.2-0.2,0.2c0,0.2,0,0.4,0,0.6c0,0.7,0,1.4-0.1,2.2c0,0.4,0.1,0.7,0,1.1c-0.1,0.4,0,0.7,0,1.1c0,0.4,0,0.8,0,1.1
		c0,0.1,0,0.2,0,0.3c0,0.1,0.1,0.2,0.3,0.2h0.1c0.8,0,1.6-0.1,2.4-0.1c0.3,0,0.6,0,0.9-0.1c0.3-0.1,0.6,0,0.8,0.1
		c0.1,0.1,0.2,0.1,0.2,0.2c0.1,0.5,0.1,1-0.1,1.5c-0.1,0.2-0.2,0.4-0.4,0.4c-0.2,0-0.3,0.1-0.5,0.1c-0.7,0-1.4,0-2.1,0.1
		c-0.2,0-0.5,0-0.7-0.1c-0.3,0.2-0.7,0.3-1.1,0.3c-0.2,0-0.3,0-0.5,0C207.5,236.3,207.3,236.2,207.2,236z"/>
	<path class="st2" d="M215.8,235.8c-0.1-0.2-0.2-0.3-0.2-0.5v-1.8c0-0.2,0-0.3,0-0.5c-0.1-0.6-0.1-1.2-0.1-1.7c0-0.3,0-0.6-0.1-0.9
		c0-0.2,0-0.3,0-0.5v-1.3c0-0.2,0-0.4,0-0.6c-0.1-0.6-0.1-1.2-0.1-1.7c0-0.5,0-0.9-0.1-1.3c-0.1-0.2,0-0.4,0-0.6v-1.8
		c0-0.3,0-0.6,0-0.8c0-0.2,0-0.3,0-0.5c0-0.6,0-1.2,0.1-1.8c0-0.1,0-0.2,0-0.3c0-0.1,0.1-0.3,0.2-0.3c0.1-0.1,0.1-0.1,0.2-0.1
		c0.3-0.3,0.7-0.4,1.2-0.4c0.3,0,0.6,0,0.9-0.1c0.1-0.1,0.3,0,0.4,0h1c0.3,0,0.6,0,0.8,0c0.6,0,1.1,0.2,1.6,0.5
		c0.1,0.1,0.2,0.2,0.3,0.3c0,0.1,0.1,0.1,0.2,0.1c0.1,0,0.2,0.1,0.3,0.2c0.2,0.2,0.3,0.3,0.4,0.5c0.4,0.7,0.7,1.4,0.8,2.1
		c0.2,1.1,0.2,2.3,0.1,3.4c-0.2,1-0.6,1.9-1.3,2.6c-0.3,0.3-0.6,0.5-0.9,0.8c-0.1,0.1-0.2,0.1-0.3,0.2c-0.5,0.3-1.1,0.6-1.7,0.7
		c-0.2,0.1-0.5,0.1-0.7,0.1c-0.3,0-0.7,0.1-1,0.1c-0.1,0-0.2,0.1-0.2,0.2c-0.1,0.6-0.1,1.3,0,1.9c0,0.4,0.1,0.9,0.1,1.3v2.1
		c0,0.2-0.1,0.3-0.3,0.4c-0.1,0-0.2,0.1-0.2,0.1c-0.3,0-0.7,0.1-1,0.2h-0.3C216,236,215.9,235.9,215.8,235.8z M219,227.4
		c1-0.2,1.6-0.8,2.2-1.5c0.1-0.1,0.1-0.2,0.2-0.3c0.2-0.4,0.3-0.8,0.3-1.2c0-0.2,0-0.5,0-0.7c0-0.7-0.1-1.3-0.3-1.9
		c0-0.2-0.1-0.3-0.2-0.5c-0.2-0.3-0.4-0.6-0.8-0.7c-0.2-0.1-0.4-0.2-0.7-0.2c-0.4,0-0.7,0-1.1,0c-0.3,0-0.5,0.1-0.8,0.1
		c-0.1,0-0.2,0.1-0.2,0.2c0,0.6,0,1.1-0.1,1.8c0,0.3,0,0.8,0,1.3c0,0.2,0,0.4,0,0.6c0.1,0.5,0.1,1,0.1,1.5v0.9
		c0,0.2,0.1,0.3,0.1,0.5c0,0.1,0.1,0.2,0.3,0.2C218.4,227.5,218.7,227.5,219,227.4z"/>
	<path class="st2" d="M233.1,235.7c-0.1-0.2-0.2-0.3-0.1-0.5c0-0.1,0-0.1,0-0.2c-0.3-0.5-0.3-0.5-0.4-0.9c0-0.1,0-0.2-0.1-0.3
		c-0.3-0.6-0.5-1.2-0.7-1.9c0-0.1,0-0.2-0.1-0.3c-0.1-0.1-0.1-0.2-0.3-0.2h-0.3c-0.3,0-0.6,0-0.8,0c-0.5,0-1,0-1.5,0.1
		c-0.1,0-0.2,0-0.3,0c-0.7,0-0.7,0.1-0.8,0.7l-0.6,2.4c-0.1,0.2-0.2,0.4-0.2,0.6c-0.1,0.1-0.2,0.2-0.3,0.2c-0.6,0.1-1.1,0-1.6-0.3
		c-0.1,0-0.1-0.1-0.1-0.1c-0.1-0.1-0.2-0.2-0.2-0.4l0.2-0.9c0.2-0.8,0.4-1.7,0.6-2.5c0.3-1.2,0.6-2.3,0.8-3.4c0-0.2,0.1-0.3,0.1-0.5
		s0.2-0.3,0.2-0.5c0-0.2,0-0.3,0-0.5c0-0.2,0.1-0.3,0.1-0.4l1-4.1c0.1-0.4,0.2-0.8,0.2-1.2c0.1-0.2,0.1-0.4,0.1-0.6
		c-0.1-0.7,0.2-1.3,0.4-1.9c0.1-0.1,0.2-0.2,0.3-0.2c0.5-0.1,1,0,1.5,0.2c0.2,0.1,0.3,0.2,0.3,0.5c0,0.6,0.2,1.1,0.2,1.6
		c0.1,0.6,0.3,1.2,0.4,1.9c0.1,0.6,0.2,1.2,0.4,1.8c0.3,1.1,0.6,2.2,0.9,3.2l0.9,2.7c0.1,0.5,0.3,0.9,0.4,1.4
		c0.2,0.7,0.4,1.5,0.7,2.1c0.2,0.5,0.2,1,0.4,1.4c0.1,0.1,0,0.3,0,0.4c0,0.1-0.1,0.2-0.2,0.3l-0.2,0.1c-0.3,0.1-0.7,0.2-1.1,0.4
		C233.5,236.1,233.2,236,233.1,235.7z M229.8,229.3c0.2,0,0.6,0,1-0.1c0.1,0,0.1-0.1,0.1-0.2c0-0.1,0-0.2-0.1-0.3
		c-0.3-0.9-0.6-1.9-0.8-2.8l-0.3-1.1c0,0-0.1-0.1-0.1-0.1c0,0-0.1,0-0.1,0.1l-0.2,0.4c-0.2,1.1-0.5,2.1-0.7,3.2
		c0,0.2-0.1,0.4-0.1,0.6c0,0.1,0.1,0.2,0.2,0.2H229.8z"/>
	<path class="st2" d="M238.9,236.1c-0.6-0.2-1.1-0.5-1.6-0.9c-0.2-0.1-0.3-0.3-0.5-0.5c-0.6-0.8-1-1.8-1.2-2.8c0-0.3,0-0.6,0-0.8
		c0.1-0.3,0.1-0.6,0.1-0.8c0-0.1,0.1-0.3,0.2-0.3c0.1-0.1,0.2-0.1,0.3-0.1c0.4,0,0.8,0,1.2-0.1c0,0,0.1,0,0.1,0
		c0.1,0,0.2,0.1,0.2,0.2c0.1,0.2,0.1,0.4,0.1,0.7c0,0.2,0,0.3,0,0.5c-0.1,0.8,0.2,1.6,0.7,2.2c0,0.1,0.1,0.1,0.1,0.1
		c0.6,0.4,1.2,0.7,1.9,0.5c0.3-0.1,0.5-0.1,0.7-0.2c0.3-0.2,0.6-0.4,0.8-0.8c0.1-0.3,0.2-0.6,0.2-0.8c0.1-0.7,0-1.4-0.2-2.1
		c-0.1-0.5-0.3-0.9-0.6-1.3c-0.4-0.7-1-1.3-1.6-2c-0.2-0.2-0.4-0.4-0.7-0.6c-0.3-0.3-0.5-0.5-0.8-0.8c-0.5-0.5-0.9-1.1-1.2-1.7
		c-0.2-0.3-0.2-0.7-0.4-1.1c0-0.1,0-0.1,0-0.2c-0.2-1.7,0.8-3.2,2.3-3.8c0.3-0.1,0.7-0.2,1.1-0.3c0.2,0,0.3,0,0.5-0.1h0.2
		c0.3,0.1,0.6,0.1,1,0.2c0.7,0.2,1.3,0.7,1.7,1.5c0.4,0.8,0.5,1.6,0.4,2.4c0,0.1-0.1,0.3-0.3,0.3c-0.4,0.2-0.7,0.3-1.2,0.2
		c-0.2,0-0.4-0.1-0.6-0.2c-0.1-0.1-0.2-0.2-0.2-0.3c0-0.4,0-0.7-0.1-1.1c0-0.1-0.1-0.2-0.1-0.3c-0.1-0.2-0.3-0.4-0.6-0.4
		c-0.5-0.1-1,0-1.5,0.3c-0.1,0.1-0.2,0.1-0.2,0.2c-0.1,0.1-0.1,0.1-0.1,0.2c-0.2,0.6-0.3,0.7,0.1,1.5c0.1,0.3,0.3,0.6,0.5,0.8
		c0.4,0.5,0.8,0.9,1.3,1.3c0.7,0.6,1.3,1.3,1.8,2c0.1,0.2,0.2,0.3,0.2,0.4c0.5,0.6,0.8,1.3,1,2.1c0.2,0.7,0.4,1.5,0.4,2.3
		c0,0.4-0.1,0.8-0.1,1.1c-0.1,0.8-0.4,1.5-0.9,2.2c-0.4,0.5-0.8,0.8-1.4,1c-0.4,0.2-1,0.3-1.4,0.4
		C240.3,236.3,239.6,236.3,238.9,236.1z"/>
</g>
<g class="st1">
	<path class="st2" d="M22.5,187.1c-0.6,0-1.5,0-1.9,0c-0.4,0-1.3,0-1.6,0c-0.3,0,0.1-0.5,0.1-0.7c0-0.4,0-0.9,0.3-1.2
		c0.2-0.3,0.4-0.5,0.6-0.8c0.3-0.2,0.5-0.4,0.9-0.4c0.6-0.1,1.2,0,1.8,0.3c0.1,0,0.2,0.1,0.3,0.2c0.2,0.2,0.4,0.4,0.6,0.7
		c0,0.1,0.1,0.1,0.2,0.2c0,0,0.2,0,0.2,0c0.1-0.1,0.1-0.2,0.2-0.4c0.1-0.3,0.3-0.5,0.5-0.7c0.4-0.5,0.9-0.7,1.6-0.8
		c0.3,0,0.6,0,0.9,0.1c0.4,0.2,0.8,0.5,1,0.9c0.1,0.2,0.2,0.3,0.3,0.5c0.1,0.1,0.2,0.1,0.3,0l0.1-0.1c0.3-0.5,0.8-0.9,1.3-1.2
		c0.7-0.4,1.4-0.6,2.2-0.5c0.8,0,1.3,0.4,1.7,1.1c0.1,0.2,0.1,0.4,0.2,0.6c0,0.1,0.2,0.1,0.3,0c0.1-0.1,0.1-0.1,0.2-0.3l0.2-0.3
		c0.6-0.8,1.5-1,2.5-0.9c0.5,0.1,0.8,0.3,1.1,0.7c0.2,0.3,0.3,0.5,0.5,0.8c0.1,0.1,0.1,0.2,0.2,0.3c0,0.1,0.3,0.1,0.3,0.1
		c0.1,0,0.1-0.1,0.2-0.1c0.3-0.2,0.5-0.4,0.7-0.6c0.4-0.3,0.8-0.5,1.3-0.5c0.4,0,0.9-0.1,1.3,0c0.4,0.1,0.8,0.2,1.1,0.5
		c0.2,0.2,0.3,0.4,0.5,0.5c0.1,0.1,0.2,0.2,0.3,0.3s0.2-0.1,0.4-0.2c0.1-0.1,0.2-0.1,0.2-0.3c0.3-0.3,0.6-0.6,0.9-0.8
		c0.5-0.3,1.1-0.6,1.7-0.6c0.1,0,0.3,0,0.4,0c0.5,0,0.9,0.1,1.2,0.5c0.3,0.3,0.5,0.7,0.7,1.1c0.1,0.2,0.1,0.3,0.2,0.4
		c0,0.1,0.2,0.1,0.2,0c0.1,0,0.2-0.1,0.3-0.1c0.3-0.2,0.5-0.3,0.8-0.5c0.6-0.3,1.2-0.5,1.8-0.5c0.5-0.1,0.9,0,1.2,0.3
		c0.2,0.1,0.3,0.2,0.5,0.3c0.2,0.1,0.4,0.3,0.5,0.5c0.1,0.3,0.4,0.5,0.5,0.7c0,0.3,0.1,0.9-0.1,0.9s-1,0-1.2,0c-0.1,0-0.4,0-0.5,0
		h-1.4c-1,0-1.9,0-2.9-0.1c-0.9,0-1.9,0-2.8,0h0c-1-0.1-1.9,0-2.9,0.1c-0.1,0-0.3,0-0.4,0h-0.4c-0.6-0.1-1.2-0.1-2.4,0
		c-2.3,0-6,0.1-9.4,0c-0.3,0-0.5,0-0.7,0h-2.3c-0.6,0-1.3,0-1.9,0C25.7,187.2,24.1,187.1,22.5,187.1z"/>
	<path class="st2" d="M59.5,187.1c-0.6,0-1.5,0-1.9,0c-0.4,0-1.3,0-1.6,0c-0.3,0,0.1-0.5,0.1-0.7c0-0.4,0-0.9,0.3-1.2
		c0.2-0.3,0.4-0.5,0.6-0.8c0.3-0.2,0.5-0.4,0.9-0.4c0.6-0.1,1.2,0,1.8,0.3c0.1,0,0.2,0.1,0.3,0.2c0.2,0.2,0.4,0.4,0.6,0.7
		c0,0.1,0.1,0.1,0.2,0.2c0,0,0.2,0,0.2,0c0.1-0.1,0.1-0.2,0.2-0.4c0.1-0.3,0.3-0.5,0.5-0.7c0.4-0.5,0.9-0.7,1.6-0.8
		c0.3,0,0.6,0,0.9,0.1c0.4,0.2,0.8,0.5,1,0.9c0.1,0.2,0.2,0.3,0.3,0.5c0.1,0.1,0.2,0.1,0.3,0l0.1-0.1c0.3-0.5,0.8-0.9,1.3-1.2
		c0.7-0.4,1.4-0.6,2.2-0.5c0.8,0,1.3,0.4,1.7,1.1c0.1,0.2,0.1,0.4,0.2,0.6c0,0.1,0.2,0.1,0.3,0c0.1-0.1,0.1-0.1,0.2-0.3l0.2-0.3
		c0.6-0.8,1.5-1,2.5-0.9c0.5,0.1,0.8,0.3,1.1,0.7c0.2,0.3,0.3,0.5,0.5,0.8c0.1,0.1,0.1,0.2,0.2,0.3c0,0.1,0.3,0.1,0.3,0.1
		c0.1,0,0.1-0.1,0.2-0.1c0.3-0.2,0.5-0.4,0.7-0.6c0.4-0.3,0.8-0.5,1.3-0.5c0.4,0,0.9-0.1,1.3,0c0.4,0.1,0.8,0.2,1.1,0.5
		c0.2,0.2,0.3,0.4,0.5,0.5c0.1,0.1,0.2,0.2,0.3,0.3s0.2-0.1,0.4-0.2c0.1-0.1,0.2-0.1,0.2-0.3c0.3-0.3,0.6-0.6,0.9-0.8
		c0.5-0.3,1.1-0.6,1.7-0.6c0.1,0,0.3,0,0.4,0c0.5,0,0.9,0.1,1.2,0.5c0.3,0.3,0.5,0.7,0.7,1.1c0.1,0.2,0.1,0.3,0.2,0.4
		c0,0.1,0.2,0.1,0.2,0c0.1,0,0.2-0.1,0.3-0.1c0.3-0.2,0.5-0.3,0.8-0.5c0.6-0.3,1.2-0.5,1.8-0.5c0.5-0.1,0.9,0,1.2,0.3
		c0.2,0.1,0.3,0.2,0.5,0.3c0.2,0.1,0.4,0.3,0.5,0.5c0.1,0.3,0.4,0.5,0.5,0.7c0,0.3,0.1,0.9-0.1,0.9s-1,0-1.2,0c-0.1,0-0.4,0-0.5,0
		h-1.4c-1,0-1.9,0-2.9-0.1c-0.9,0-1.9,0-2.8,0h0c-1-0.1-1.9,0-2.9,0.1c-0.1,0-0.3,0-0.4,0H81c-0.6-0.1-1.2-0.1-2.4,0
		c-2.3,0-6,0.1-9.4,0c-0.3,0-0.5,0-0.7,0h-2.3c-0.6,0-1.3,0-1.9,0C62.7,187.2,61.1,187.1,59.5,187.1z"/>
	<path class="st2" d="M96.6,187.1c-0.6,0-1.5,0-1.9,0c-0.4,0-1.3,0-1.6,0c-0.3,0,0.1-0.5,0.1-0.7c0-0.4,0-0.9,0.3-1.2
		c0.2-0.3,0.4-0.5,0.6-0.8c0.3-0.2,0.5-0.4,0.9-0.4c0.6-0.1,1.2,0,1.8,0.3c0.1,0,0.2,0.1,0.3,0.2c0.2,0.2,0.4,0.4,0.6,0.7
		c0,0.1,0.1,0.1,0.2,0.2c0,0,0.2,0,0.2,0c0.1-0.1,0.1-0.2,0.2-0.4c0.1-0.3,0.3-0.5,0.5-0.7c0.4-0.5,0.9-0.7,1.6-0.8
		c0.3,0,0.6,0,0.9,0.1c0.4,0.2,0.8,0.5,1,0.9c0.1,0.2,0.2,0.3,0.3,0.5c0.1,0.1,0.2,0.1,0.3,0l0.1-0.1c0.3-0.5,0.8-0.9,1.3-1.2
		c0.7-0.4,1.4-0.6,2.2-0.5c0.8,0,1.3,0.4,1.7,1.1c0.1,0.2,0.1,0.4,0.2,0.6c0,0.1,0.2,0.1,0.3,0c0.1-0.1,0.1-0.1,0.2-0.3l0.2-0.3
		c0.6-0.8,1.5-1,2.5-0.9c0.5,0.1,0.8,0.3,1.1,0.7c0.2,0.3,0.3,0.5,0.5,0.8c0.1,0.1,0.1,0.2,0.2,0.3c0,0.1,0.3,0.1,0.3,0.1
		c0.1,0,0.1-0.1,0.2-0.1c0.3-0.2,0.5-0.4,0.7-0.6c0.4-0.3,0.8-0.5,1.3-0.5c0.4,0,0.9-0.1,1.3,0c0.4,0.1,0.8,0.2,1.1,0.5
		c0.2,0.2,0.3,0.4,0.5,0.5c0.1,0.1,0.2,0.2,0.3,0.3s0.2-0.1,0.4-0.2c0.1-0.1,0.2-0.1,0.2-0.3c0.3-0.3,0.6-0.6,0.9-0.8
		c0.5-0.3,1.1-0.6,1.7-0.6c0.1,0,0.3,0,0.4,0c0.5,0,0.9,0.1,1.2,0.5c0.3,0.3,0.5,0.7,0.7,1.1c0.1,0.2,0.1,0.3,0.2,0.4
		c0,0.1,0.2,0.1,0.2,0c0.1,0,0.2-0.1,0.3-0.1c0.3-0.2,0.5-0.3,0.8-0.5c0.6-0.3,1.2-0.5,1.8-0.5c0.5-0.1,0.9,0,1.2,0.3
		c0.2,0.1,0.3,0.2,0.5,0.3c0.2,0.1,0.4,0.3,0.5,0.5c0.1,0.3,0.4,0.5,0.5,0.7c0,0.3,0.1,0.9-0.1,0.9s-1,0-1.2,0c-0.1,0-0.4,0-0.5,0
		h-1.4c-1,0-1.9,0-2.9-0.1c-0.9,0-1.9,0-2.8,0h0c-1-0.1-1.9,0-2.9,0.1c-0.1,0-0.3,0-0.4,0h-0.4c-0.6-0.1-1.2-0.1-2.4,0
		c-2.3,0-6,0.1-9.4,0c-0.3,0-0.5,0-0.7,0h-2.3c-0.6,0-1.3,0-1.9,0C99.8,187.2,98.2,187.1,96.6,187.1z"/>
	<path class="st2" d="M133.7,187.1c-0.6,0-1.5,0-1.9,0c-0.4,0-1.3,0-1.6,0c-0.3,0,0.1-0.5,0.1-0.7c0-0.4,0-0.9,0.3-1.2
		c0.2-0.3,0.4-0.5,0.6-0.8c0.3-0.2,0.5-0.4,0.9-0.4c0.6-0.1,1.2,0,1.8,0.3c0.1,0,0.2,0.1,0.3,0.2c0.2,0.2,0.4,0.4,0.6,0.7
		c0,0.1,0.1,0.1,0.2,0.2c0,0,0.2,0,0.2,0c0.1-0.1,0.1-0.2,0.2-0.4c0.1-0.3,0.3-0.5,0.5-0.7c0.4-0.5,0.9-0.7,1.6-0.8
		c0.3,0,0.6,0,0.9,0.1c0.4,0.2,0.8,0.5,1,0.9c0.1,0.2,0.2,0.3,0.3,0.5c0.1,0.1,0.2,0.1,0.3,0l0.1-0.1c0.3-0.5,0.8-0.9,1.3-1.2
		c0.7-0.4,1.4-0.6,2.2-0.5c0.8,0,1.3,0.4,1.7,1.1c0.1,0.2,0.1,0.4,0.2,0.6c0,0.1,0.2,0.1,0.3,0c0.1-0.1,0.1-0.1,0.2-0.3l0.2-0.3
		c0.6-0.8,1.5-1,2.5-0.9c0.5,0.1,0.8,0.3,1.1,0.7c0.2,0.3,0.3,0.5,0.5,0.8c0.1,0.1,0.1,0.2,0.2,0.3c0,0.1,0.3,0.1,0.3,0.1
		c0.1,0,0.1-0.1,0.2-0.1c0.3-0.2,0.5-0.4,0.7-0.6c0.4-0.3,0.8-0.5,1.3-0.5c0.4,0,0.9-0.1,1.3,0c0.4,0.1,0.8,0.2,1.1,0.5
		c0.2,0.2,0.3,0.4,0.5,0.5c0.1,0.1,0.2,0.2,0.3,0.3s0.2-0.1,0.4-0.2c0.1-0.1,0.2-0.1,0.2-0.3c0.3-0.3,0.6-0.6,0.9-0.8
		c0.5-0.3,1.1-0.6,1.7-0.6c0.1,0,0.3,0,0.4,0c0.5,0,0.9,0.1,1.2,0.5c0.3,0.3,0.5,0.7,0.7,1.1c0.1,0.2,0.1,0.3,0.2,0.4
		c0,0.1,0.2,0.1,0.2,0c0.1,0,0.2-0.1,0.3-0.1c0.3-0.2,0.5-0.3,0.8-0.5c0.6-0.3,1.2-0.5,1.8-0.5c0.5-0.1,0.9,0,1.2,0.3
		c0.2,0.1,0.3,0.2,0.5,0.3c0.2,0.1,0.4,0.3,0.5,0.5c0.1,0.3,0.4,0.5,0.5,0.7c0,0.3,0.1,0.9-0.1,0.9c-0.2,0-1,0-1.2,0
		c-0.1,0-0.4,0-0.5,0h-1.4c-1,0-1.9,0-2.9-0.1c-0.9,0-1.9,0-2.8,0h0c-1-0.1-1.9,0-2.9,0.1c-0.1,0-0.3,0-0.4,0h-0.4
		c-0.6-0.1-1.2-0.1-2.4,0c-2.3,0-6,0.1-9.4,0c-0.3,0-0.5,0-0.7,0h-2.3c-0.6,0-1.3,0-1.9,0C136.9,187.2,135.3,187.1,133.7,187.1z"/>
	<path class="st2" d="M170.8,187.1c-0.6,0-1.5,0-1.9,0s-1.3,0-1.6,0c-0.3,0,0.1-0.5,0.1-0.7c0-0.4,0-0.9,0.3-1.2
		c0.2-0.3,0.4-0.5,0.6-0.8c0.3-0.2,0.5-0.4,0.9-0.4c0.6-0.1,1.2,0,1.8,0.3c0.1,0,0.2,0.1,0.3,0.2c0.2,0.2,0.4,0.4,0.6,0.7
		c0,0.1,0.1,0.1,0.2,0.2c0,0,0.2,0,0.2,0c0.1-0.1,0.1-0.2,0.2-0.4c0.1-0.3,0.3-0.5,0.5-0.7c0.4-0.5,0.9-0.7,1.6-0.8
		c0.3,0,0.6,0,0.9,0.1c0.4,0.2,0.8,0.5,1,0.9c0.1,0.2,0.2,0.3,0.3,0.5c0.1,0.1,0.2,0.1,0.3,0l0.1-0.1c0.3-0.5,0.8-0.9,1.3-1.2
		c0.7-0.4,1.4-0.6,2.2-0.5c0.8,0,1.3,0.4,1.7,1.1c0.1,0.2,0.1,0.4,0.2,0.6c0,0.1,0.2,0.1,0.3,0c0.1-0.1,0.1-0.1,0.2-0.3l0.2-0.3
		c0.6-0.8,1.5-1,2.5-0.9c0.5,0.1,0.8,0.3,1.1,0.7c0.2,0.3,0.3,0.5,0.5,0.8c0.1,0.1,0.1,0.2,0.2,0.3c0,0.1,0.3,0.1,0.3,0.1
		c0.1,0,0.1-0.1,0.2-0.1c0.3-0.2,0.5-0.4,0.7-0.6c0.4-0.3,0.8-0.5,1.3-0.5c0.4,0,0.9-0.1,1.3,0c0.4,0.1,0.8,0.2,1.1,0.5
		c0.2,0.2,0.3,0.4,0.5,0.5c0.1,0.1,0.2,0.2,0.3,0.3s0.2-0.1,0.4-0.2c0.1-0.1,0.2-0.1,0.2-0.3c0.3-0.3,0.6-0.6,0.9-0.8
		c0.5-0.3,1.1-0.6,1.7-0.6c0.1,0,0.3,0,0.4,0c0.5,0,0.9,0.1,1.2,0.5c0.3,0.3,0.5,0.7,0.7,1.1c0.1,0.2,0.1,0.3,0.2,0.4
		c0,0.1,0.2,0.1,0.2,0c0.1,0,0.2-0.1,0.3-0.1c0.3-0.2,0.5-0.3,0.8-0.5c0.6-0.3,1.2-0.5,1.8-0.5c0.5-0.1,0.9,0,1.2,0.3
		c0.2,0.1,0.3,0.2,0.5,0.3c0.2,0.1,0.4,0.3,0.5,0.5c0.1,0.3,0.4,0.5,0.5,0.7c0,0.3,0.1,0.9-0.1,0.9c-0.2,0-1,0-1.2,0
		c-0.1,0-0.4,0-0.5,0h-1.4c-1,0-1.9,0-2.9-0.1c-0.9,0-1.9,0-2.8,0h0c-1-0.1-1.9,0-2.9,0.1c-0.1,0-0.3,0-0.4,0h-0.4
		c-0.6-0.1-1.2-0.1-2.4,0c-2.3,0-6,0.1-9.4,0c-0.3,0-0.5,0-0.7,0h-2.3c-0.6,0-1.3,0-1.9,0C174,187.2,172.4,187.1,170.8,187.1z"/>
	<path class="st2" d="M207.9,187.1c-0.6,0-1.5,0-1.9,0s-1.3,0-1.6,0c-0.3,0,0.1-0.5,0.1-0.7c0-0.4,0-0.9,0.3-1.2
		c0.2-0.3,0.4-0.5,0.6-0.8c0.3-0.2,0.5-0.4,0.9-0.4c0.6-0.1,1.2,0,1.8,0.3c0.1,0,0.2,0.1,0.3,0.2c0.2,0.2,0.4,0.4,0.6,0.7
		c0,0.1,0.1,0.1,0.2,0.2c0,0,0.2,0,0.2,0c0.1-0.1,0.1-0.2,0.2-0.4c0.1-0.3,0.3-0.5,0.5-0.7c0.4-0.5,0.9-0.7,1.6-0.8
		c0.3,0,0.6,0,0.9,0.1c0.4,0.2,0.8,0.5,1,0.9c0.1,0.2,0.2,0.3,0.3,0.5c0.1,0.1,0.2,0.1,0.3,0l0.1-0.1c0.3-0.5,0.8-0.9,1.3-1.2
		c0.7-0.4,1.4-0.6,2.2-0.5c0.8,0,1.3,0.4,1.7,1.1c0.1,0.2,0.1,0.4,0.2,0.6c0,0.1,0.2,0.1,0.3,0c0.1-0.1,0.1-0.1,0.2-0.3l0.2-0.3
		c0.6-0.8,1.5-1,2.5-0.9c0.5,0.1,0.8,0.3,1.1,0.7c0.2,0.3,0.3,0.5,0.5,0.8c0.1,0.1,0.1,0.2,0.2,0.3c0,0.1,0.3,0.1,0.3,0.1
		c0.1,0,0.1-0.1,0.2-0.1c0.3-0.2,0.5-0.4,0.7-0.6c0.4-0.3,0.8-0.5,1.3-0.5c0.4,0,0.9-0.1,1.3,0c0.4,0.1,0.8,0.2,1.1,0.5
		c0.2,0.2,0.3,0.4,0.5,0.5c0.1,0.1,0.2,0.2,0.3,0.3s0.2-0.1,0.4-0.2c0.1-0.1,0.2-0.1,0.2-0.3c0.3-0.3,0.6-0.6,0.9-0.8
		c0.5-0.3,1.1-0.6,1.7-0.6c0.1,0,0.3,0,0.4,0c0.5,0,0.9,0.1,1.2,0.5c0.3,0.3,0.5,0.7,0.7,1.1c0.1,0.2,0.1,0.3,0.2,0.4
		c0,0.1,0.2,0.1,0.2,0c0.1,0,0.2-0.1,0.3-0.1c0.3-0.2,0.5-0.3,0.8-0.5c0.6-0.3,1.2-0.5,1.8-0.5c0.5-0.1,0.9,0,1.2,0.3
		c0.2,0.1,0.3,0.2,0.5,0.3c0.2,0.1,0.4,0.3,0.5,0.5c0.1,0.3,0.4,0.5,0.5,0.7c0,0.3,0.1,0.9-0.1,0.9c-0.2,0-1,0-1.2,0
		c-0.1,0-0.4,0-0.5,0h-1.4c-1,0-1.9,0-2.9-0.1c-0.9,0-1.9,0-2.8,0h0c-1-0.1-1.9,0-2.9,0.1c-0.1,0-0.3,0-0.4,0h-0.4
		c-0.6-0.1-1.2-0.1-2.4,0c-2.3,0-6,0.1-9.4,0c-0.3,0-0.5,0-0.7,0h-2.3c-0.6,0-1.3,0-1.9,0C211.1,187.2,209.5,187.1,207.9,187.1z"/>
	<path class="st2" d="M245,187.1c-0.6,0-1.5,0-1.9,0s-1.3,0-1.6,0c-0.3,0,0.1-0.5,0.1-0.7c0-0.4,0-0.9,0.3-1.2
		c0.2-0.3,0.4-0.5,0.6-0.8c0.3-0.2,0.5-0.4,0.9-0.4c0.6-0.1,1.2,0,1.8,0.3c0.1,0,0.2,0.1,0.3,0.2c0.2,0.2,0.4,0.4,0.6,0.7
		c0,0.1,0.1,0.1,0.2,0.2c0,0,0.2,0,0.2,0c0.1-0.1,0.1-0.2,0.2-0.4c0.1-0.3,0.3-0.5,0.5-0.7c0.4-0.5,0.9-0.7,1.6-0.8
		c0.3,0,0.6,0,0.9,0.1c0.4,0.2,0.8,0.5,1,0.9c0.1,0.2,0.2,0.3,0.3,0.5c0.1,0.1,0.2,0.1,0.3,0l0.1-0.1c0.3-0.5,0.8-0.9,1.3-1.2
		c0.7-0.4,1.4-0.6,2.2-0.5c0.8,0,1.3,0.4,1.7,1.1c0.1,0.2,0.1,0.4,0.2,0.6c0,0.1,0.2,0.1,0.3,0c0.1-0.1,0.1-0.1,0.2-0.3l0.2-0.3
		c0.6-0.8,1.5-1,2.5-0.9c0.5,0.1,0.8,0.3,1.1,0.7c0.2,0.3,0.3,0.5,0.5,0.8c0.1,0.1,0.1,0.2,0.2,0.3c0,0.1,0.3,0.1,0.3,0.1
		c0.1,0,0.1-0.1,0.2-0.1c0.3-0.2,0.5-0.4,0.7-0.6c0.4-0.3,0.8-0.5,1.3-0.5c0.4,0,0.9-0.1,1.3,0c0.4,0.1,0.8,0.2,1.1,0.5
		c0.2,0.2,0.3,0.4,0.5,0.5c0.1,0.1,0.2,0.2,0.3,0.3s0.2-0.1,0.4-0.2c0.1-0.1,0.2-0.1,0.2-0.3c0.3-0.3,0.6-0.6,0.9-0.8
		c0.5-0.3,1.1-0.6,1.7-0.6c0.1,0,0.3,0,0.4,0c0.5,0,0.9,0.1,1.2,0.5c0.3,0.3,0.5,0.7,0.7,1.1c0.1,0.2,0.1,0.3,0.2,0.4
		c0,0.1,0.2,0.1,0.2,0c0.1,0,0.2-0.1,0.3-0.1c0.3-0.2,0.5-0.3,0.8-0.5c0.6-0.3,1.2-0.5,1.8-0.5c0.5-0.1,0.9,0,1.2,0.3
		c0.2,0.1,0.3,0.2,0.5,0.3c0.2,0.1,0.4,0.3,0.5,0.5c0.1,0.3,0.4,0.5,0.5,0.7c0,0.3,0.1,0.9-0.1,0.9c-0.2,0-1,0-1.2,0
		c-0.1,0-0.4,0-0.5,0h-1.4c-1,0-1.9,0-2.9-0.1c-0.9,0-1.9,0-2.8,0h0c-1-0.1-1.9,0-2.9,0.1c-0.1,0-0.3,0-0.4,0h-0.4
		c-0.6-0.1-1.2-0.1-2.4,0c-2.3,0-6,0.1-9.4,0c-0.3,0-0.5,0-0.7,0h-2.3c-0.6,0-1.3,0-1.9,0C248.2,187.2,246.6,187.1,245,187.1z"/>
</g>
<g class="st1">
	<path class="st2" d="M144.4,170.7c-0.1-0.1-0.3-0.4-0.4-0.5c-0.5,0.1-0.9,0.1-1.3,0.3c-0.3,0-0.8-0.4-0.7-0.8c0-0.1,0-0.4,0.1-0.7
		c0.1-0.8-0.1-1.3-1.1-1.5c-0.5-0.1-1.1-0.3-1.7-0.3c-2.8-0.4-4.6-2.1-6.4-4.3l-0.4-0.8c-0.9-1.6-2-3.1-3-4.7
		c-1.3-1.9-2.7-3.7-3.8-5.7c-1.5-2.4-2.1-5.2-2.1-8c0-2,0-3.9,0.5-5.7c0.4-1.9,1.2-3.7,2.5-5.1c2.1-2.3,4.8-3.5,7.8-3.3
		c0.4,0,0.8,0,1.2,0.1c1.3,0,2.5,0.4,3.6,1.2c0.7,0.7,1.6,0.9,2.5,1.3c0.4,0.1,1.1,0,1.2-0.4c0.1-0.3,0.3-0.4,0.4-0.7
		c0.7-1.5,1.3-2.9,2.3-4.3c0.4-0.7,0.4-1.3,0.1-2c-0.1-0.8-0.4-1.6-0.7-2.3s-0.3-1.3-0.1-2c0.1-2.7,1.1-5.1,2.8-7.2
		c1.2-1.6,2.8-2.8,4.6-3.6c1.3-0.5,2.7-0.9,3.7-1.6c2.9-0.7,5.3-2.3,8-3.2c0.7-0.3,1.2-0.5,1.9-0.7c0.4-0.1,0.9,0.1,1.2,0.5
		s0.4,0.9,0.5,1.3v3.3c0,1.1-0.1,2-0.1,2.9c-0.1,2.1-0.8,4.1-1.7,6c-0.3,0.4-0.7,0.9-1.1,1.3c-1.2,1.5-2.9,2.7-4.8,3.5
		c-2.7,1.2-5.3,1.9-8.2,2.4c-0.8,0.1-1.6,0.1-2.4,0.1c-0.5,0-1.1,0.3-1.5,0.7c-1.2,1.3-2,2.9-2.5,4.5c0,0.1,0.1,0.4,0.3,0.4
		c0,0.1,0.3,0.3,0.4,0.3l0.8-0.4c1.5-0.7,2.9-1.2,4.5-1.7c3.8-1.1,7.3-0.3,10.3,2c1.5,0.9,2.3,2.3,2.8,3.9c0.1,0.5,0.4,1.2,0.5,1.9
		c0.1,0.7,0.3,1.3,0.3,2.1c0,1.3,0,2.7-0.3,4c-0.7,3.9-1.6,7.7-2.5,11.4c-0.5,1.7-1.2,3.5-2.1,5.1c-0.3,0.5-0.5,0.9-0.8,1.5
		c-0.7,1.5-1.6,2.8-2.8,3.9c-2,2-4.2,3.2-7,2.8h-1.2c-0.3,0-0.7,0.4-0.5,0.7c0.1,0.3,0.3,0.5,0.3,0.9c0.1,0.1,0.1,0.4,0.1,0.7
		c0,0.1-0.3,0.5-0.5,0.4h-0.7c-0.5-0.1-0.9-0.1-1.3,0.1C145.2,171.4,144.8,171.3,144.4,170.7z M154.2,165.4c0.8-0.7,1.6-1.5,2.1-2.3
		c2.4-3.1,3.8-6.4,4.8-10.1c0.4-1.5,0.8-3.1,1.2-4.7c0.8-2.5,1.1-5.1,1.3-7.7c0-1.3-0.1-2.7-0.5-4c-0.9-2.4-2.5-4.1-4.9-4.9
		c-0.5-0.3-1.1-0.3-1.6-0.5c-0.7-0.4-1.5-0.4-2.3-0.3c-2,0.3-4,0.5-5.7,1.6c-0.8,0.5-1.7,0.9-2.7,1.2c-0.7,0.4-1.5,0.5-2.3,0.8
		c-0.4,0.1-0.9,0-1.3-0.3c-0.5-0.3-1.1-0.7-1.7-0.8c-0.9-0.4-1.7-0.7-2.5-1.3c-0.3-0.3-0.7-0.3-1.1-0.4c-2-0.7-3.8-0.5-5.7,0.1
		c-1.1,0.4-2,0.9-2.8,1.7c-1.1,0.9-1.9,2.1-2.4,3.6c-0.8,2.1-1.2,4.4-1.1,6.8v1.6c0.1,1.2,0.5,2.4,1.1,3.5c0.9,2.1,2.4,4.1,3.7,6.1
		c1.3,2,2.8,3.9,4,6c0.7,1.2,1.6,2.1,2.7,3.1c0.8,0.8,1.7,1.3,2.9,1.5c0.8,0.1,1.6,0.1,2.4,0.3h1.5c1.5-0.1,2.9,0,4.5,0.3
		c0.7,0.1,1.5,0.3,2.3,0.3C151.5,166.6,153,166.2,154.2,165.4z M130.6,146.7c-1.3-1.3-2.1-2.8-2.4-4.5v-0.8c0.1-0.9,0.3-2,0.5-3.1
		c0.5-1.6,1.6-2.7,3.2-3.3c0.1-0.1,0.4-0.1,0.5-0.1c0.1,0,0.3,0,0.4,0.1l0.4,0.4c0.1,0.3,0,0.8-0.1,0.9c-0.4,0.3-0.8,0.4-1.2,0.7
		c-1.3,0.8-2,2-2.1,3.6c0,0.5,0.1,1.1,0.1,1.6c0,1.1,0.3,1.9,1.1,2.5c0.3,0.4,0.5,0.8,0.7,1.2c0.1,0.4-0.3,0.9-0.7,0.9
		C130.8,146.7,130.7,146.7,130.6,146.7z M155.9,123.1c1.3-0.4,2.7-0.9,3.8-1.5c1.1-0.4,2-1.1,2.8-1.7c1.3-1.2,2.3-2.7,2.7-4.5
		c0.3-1.7,0.7-3.6,0.5-4.9v-2.1c0-1.2-0.4-1.6-1.5-1.2l-2,0.8c-1.6,0.5-3,1.2-4.6,1.7c-1.5,0.5-2.9,1.1-4.2,1.7
		c-2.3,0.9-4.2,2.4-5.3,4.8c-0.1,0.1-0.1,0.1-0.1,0.3c-0.7,1.1-1.1,2.3-1.3,3.6c-0.1,0.8-0.1,1.5,0.1,2.3c0,0.3,0.1,0.5,0.3,0.7
		c0.1,0.3,0.7,0.4,0.8,0.3c0.3-0.3,0.4-0.5,0.7-0.7c1.6-1.9,3.3-3.6,5-5.2c1.5-1.2,2.9-2.7,4.4-4c0.1-0.1,0.4-0.3,0.7-0.4
		c0.1-0.1,0.5,0,0.8,0.1c0.3,0.3,0.3,0.7,0.1,0.9c-0.3,0.3-0.5,0.7-0.8,0.9c-0.7,0.5-1.3,0.9-1.9,1.5c-2.3,2-4.1,4.1-6.2,6.3
		c-0.1,0.1-0.1,0.4-0.3,0.7c-0.1,0.1,0.1,0.5,0.3,0.5c0.3,0.1,0.7,0.3,0.9,0.1C153,123.8,154.4,123.4,155.9,123.1z"/>
</g>
<g class="st1">
	<path class="st2" d="M96.3,53.8c-0.6-0.1-0.6-0.3-0.6-0.9c-0.1-0.6-0.1-1.2-0.1-1.8c-0.1-0.8-0.1-2.6-0.9-3.2
		c-0.7-0.5-1.5-0.2-2.1,0.3c-1.4,1.1-2.2,2.9-2.9,4.4c-2.1,4.4-3,9-3.3,13.9c-0.2,2.7-0.1,5.4,0,8c0.2,3,0.5,6.3,1.9,9
		c0.2,0.3,0.4,0.6,0.7,0.9c0.8,0.4,1.9,0.1,2.5-0.5c0.6-0.7,1-1.6,1.4-2.5c0.2-0.5,0.5-1.8,1.2-1.7c1.6,0.4,0.5,1.8,0.2,2.6
		c-0.9,2.2-2.4,4.1-4.9,4.4c-2.8,0.3-5.6-1.7-7.2-3.8c-3.5-4.8-2.4-15.1-1.9-18.9c0.2-1.7,1.6-10.1,5.5-15.3
		c1.4-1.9,3.4-3.9,5.8-4.6c1.3-0.4,2.8,0.1,3.9,1.1c1.9,1.9,2.1,8.1,1.4,8.3C96.8,53.8,96.6,53.8,96.3,53.8z"/>
	<path class="st2" d="M116.9,63.1c-0.2,4.8-1.2,9.5-2.5,14.2c-0.6,2-1.8,3.7-2.9,5.5c-1,1.6-2.8,2.3-4.7,2.6c-3.5,0.6-5.7-1.6-6.7-5
		c-0.4-1.2-0.7-2.5-1-3.7c-0.4-2-0.7-4-0.8-6c-0.1-2.5-0.1-5,0.1-7.5c0.3-4.9,1.2-8.3,3.1-12.8c0.7-1.7,1.4-3.4,2.7-4.7
		c0.8-0.7,1.2-0.7,2.2-0.8c2.5-0.2,3.9,0.2,5.8,1.8c1.7,1.4,2.5,3.6,3.1,5.7c0.6,2.1,1.4,4.2,1.6,6.4C117,60.1,117,61.6,116.9,63.1z
		 M109,47.3l-0.3,0.2c-1.4,0.8-1.9,3-2.3,4.4c-1.3,4.8-1.7,8.2-1.8,13.2c-0.1,3.3-0.1,6.6,0.3,9.9c0.2,1.5,0.5,3,0.9,4.5
		c0.3,1.1,0.9,2.5,2,3c2.9,1.3,5-6.9,5.4-8.5c1.1-3.9,2-7.7,2-11.7c0-4.2-0.7-8.7-2.7-12.5C111.9,48.8,110.5,46.8,109,47.3z"/>
	<path class="st2" d="M138.3,63.1c-0.2,4.8-1.2,9.5-2.5,14.2c-0.6,2-1.8,3.7-2.9,5.5c-1,1.6-2.8,2.3-4.7,2.6c-3.5,0.6-5.7-1.6-6.7-5
		c-0.4-1.2-0.7-2.5-1-3.7c-0.4-2-0.7-4-0.8-6c-0.1-2.5-0.1-5,0.1-7.5c0.3-4.9,1.2-8.3,3.1-12.8c0.7-1.7,1.4-3.4,2.7-4.7
		c0.8-0.7,1.2-0.7,2.2-0.8c2.5-0.2,3.9,0.2,5.8,1.8c1.7,1.4,2.5,3.6,3.1,5.7c0.6,2.1,1.4,4.2,1.6,6.4
		C138.3,60.1,138.3,61.6,138.3,63.1z M130.3,47.3l-0.3,0.2c-1.4,0.8-1.9,3-2.3,4.4c-1.3,4.8-1.7,8.2-1.8,13.2
		c-0.1,3.3-0.1,6.6,0.3,9.9c0.2,1.5,0.5,3,0.9,4.5c0.3,1.1,0.9,2.5,2,3c2.9,1.3,5-6.9,5.4-8.5c1.1-3.9,2-7.7,2-11.7
		c0-4.2-0.7-8.7-2.7-12.5C133.2,48.8,131.8,46.8,130.3,47.3z"/>
	<path class="st2" d="M146.4,66.6c0.2,0.1,0.3,9.8,0.2,13.4c-0.1,1.6-0.1,3.2-0.2,4.7c-0.1,0.6,0.1,1.4-0.5,1.9
		c-0.7,0.5-2,0.3-2.7,0.1c-0.9-0.2-1.4-0.6-1.7-1.5c-0.3-1-0.4-8.7-0.4-9.9c0-2.7,0.1-5.5,0.1-8.2c0-4.3-0.1-8.7-0.1-13.1
		c0-2,0.1-8.4,0.7-9.3c1-1.7,4.6,0.3,4.9,2.5c0.2,1.2,0.2,11.1,0.2,14.9c1.5-0.6,5.7-3.4,8.4-7.8c0.9-1.6,1.2-2,2.5-1.3
		c1.2,0.6,1.1,1.6,0.2,2.5c-4.5,4.8-6.7,7.2-10.7,9.1c6,2,9.3,20.3,14.2,18.8c1.4-0.6,0.5,2-0.9,2C154.8,85.6,150.1,68.1,146.4,66.6
		z"/>
	<path class="st2" d="M183,65.3c-0.9,0-2.1,0.3-2.9-0.2c-1.1-0.7-2-1.3-1.3-2.6c0.4-0.9,1-1.7,1.5-2.6c1.5-2.4,3.7-5,5.1-7.4
		c1.3-2.1,2.9-4.1,4.4-6.5c0.6-1,2.2-1.2,3.5-0.8c1.3,0.5,2.4,0.6,3.2,2c0.6,1,0.1,12.3,0.5,14.1c0.5,0.1,2.2-0.1,2.2,1.2
		c-0.1,0.7-1.5,0.9-2.3,1c0,0-0.3,15.9-0.1,19.8c0.1,1-0.5,1.3-1.3,1.3c-1.5,0.1-2.8-1-2.9-2.5c-0.2-4.3-0.2-8.2-0.2-12.3
		c0-1.5,0.1-4.3,0-5.7c0-0.1-5.4,0.6-5.6,0.6C185.6,64.8,184.3,65.2,183,65.3z M192.6,61.8c0.2-2.6,0.2-9.6,0.5-12.5
		c-1,1.5-9.9,13.4-9.2,13.5C185.4,63.3,191.2,61.9,192.6,61.8z"/>
	<path class="st2" d="M217.2,60.1c0.4-4.5,0.5-9.8,0.8-14.4c0.1-1.2-0.4-1.8,0.9-1.9c1.5-0.2,1.5-0.1,1.3,1.8
		c-0.4,4.9-0.2,10.1-0.7,15.4c-0.4,3.7-1.6,25.2-9.4,25.2c-9.5,0-10.4-25.8-9.1-35.8c0.1-0.9,0.2-1.9,0.2-2.8c0-1.2-0.5-2.8,1-3.2
		c1-0.2,3.7,0.3,4.4,1c0.3,0.3,0.5,0.7,0.6,1c0.1,4.6,0.6,9.2,0.2,13.7c-0.3,2.5-1,23.2,3,23.2C215.3,83.2,216.5,66.5,217.2,60.1z"
		/>
</g>
</svg>
