<svg id="Calque_1" data-name="Calque 1" xmlns="http://www.w3.org/2000/svg" viewBox="0 0 73.16 41.1"><defs><style>.cls-1{fill:#a19d94;}</style></defs><title>en_savoir_plus</title><path class="cls-1" d="M4.93,23.23a.23.23,0,0,1,.07.17.23.23,0,0,1-.07.17.24.24,0,0,1-.17.07H.24a.23.23,0,0,1-.17-.07A.23.23,0,0,1,0,23.39V15.47a.23.23,0,0,1,.07-.17.23.23,0,0,1,.17-.07H4.76a.25.25,0,0,1,.24.24.23.23,0,0,1-.07.17.24.24,0,0,1-.17.07H.5v3.35H4.22a.25.25,0,0,1,.24.24.22.22,0,0,1-.07.17.24.24,0,0,1-.17.07H.5v3.61H4.76A.23.23,0,0,1,4.93,23.23Z"/><path class="cls-1" d="M10.93,18.08a2.43,2.43,0,0,1,.54,1.64v3.67a.23.23,0,0,1-.07.17.23.23,0,0,1-.17.07.22.22,0,0,1-.17-.07.24.24,0,0,1-.07-.17V19.77a2,2,0,0,0-.43-1.34,1.57,1.57,0,0,0-1.29-.52,2.32,2.32,0,0,0-1,.25,2.29,2.29,0,0,0-.83.68,1.51,1.51,0,0,0-.32.92v3.62a.24.24,0,0,1-.24.24.23.23,0,0,1-.17-.07.24.24,0,0,1-.07-.17V17.89a.23.23,0,0,1,.07-.17.23.23,0,0,1,.17-.07.23.23,0,0,1,.17.07.24.24,0,0,1,.07.17v.8a2.67,2.67,0,0,1,1-.89,2.6,2.6,0,0,1,1.27-.35A2,2,0,0,1,10.93,18.08Z"/><path class="cls-1" d="M16.28,22.45a.27.27,0,0,1,.24-.22.23.23,0,0,1,.19.1,2.24,2.24,0,0,0,1.94,1A2,2,0,0,0,19.78,23a1,1,0,0,0,.48-.86.92.92,0,0,0-.42-.83,3.75,3.75,0,0,0-1.15-.46,4.45,4.45,0,0,1-1.53-.64,1.32,1.32,0,0,1-.56-1.13,1.45,1.45,0,0,1,.56-1.17,2.22,2.22,0,0,1,1.45-.46,2.64,2.64,0,0,1,1,.19,2.44,2.44,0,0,1,.88.61.21.21,0,0,1,.08.17.26.26,0,0,1-.08.19.37.37,0,0,1-.16,0,.18.18,0,0,1-.14-.07,2.08,2.08,0,0,0-1.61-.68,1.8,1.8,0,0,0-1.07.31,1,1,0,0,0-.44.86,1,1,0,0,0,.47.8,4.48,4.48,0,0,0,1.29.5,6,6,0,0,1,1,.34,1.6,1.6,0,0,1,.64.52,1.47,1.47,0,0,1,.24.88,1.42,1.42,0,0,1-.58,1.19,2.46,2.46,0,0,1-1.52.44,2.76,2.76,0,0,1-2.24-1.08A.44.44,0,0,1,16.28,22.45Z"/><path class="cls-1" d="M27.46,17.72a.24.24,0,0,1,.07.17v5.51a.24.24,0,0,1-.24.24.22.22,0,0,1-.17-.07.24.24,0,0,1-.07-.17V22.31a2.6,2.6,0,0,1-.92,1,2.44,2.44,0,0,1-1.38.41,2.56,2.56,0,0,1-1.43-.41,2.82,2.82,0,0,1-1-1.14A3.62,3.62,0,0,1,22,20.57a3.46,3.46,0,0,1,.37-1.6,2.79,2.79,0,0,1,1-1.12,2.59,2.59,0,0,1,1.42-.4,2.51,2.51,0,0,1,1.4.41A2.31,2.31,0,0,1,27,19V17.89a.24.24,0,0,1,.07-.17.22.22,0,0,1,.17-.07A.23.23,0,0,1,27.46,17.72ZM26,22.94a2.39,2.39,0,0,0,.83-1,3.17,3.17,0,0,0,.3-1.39,3,3,0,0,0-.3-1.34,2.41,2.41,0,0,0-.83-1,2.12,2.12,0,0,0-1.19-.35,2.17,2.17,0,0,0-1.19.34,2.31,2.31,0,0,0-.83.95,3.06,3.06,0,0,0-.3,1.37,3.17,3.17,0,0,0,.3,1.39,2.39,2.39,0,0,0,.83,1,2.2,2.2,0,0,0,2.39,0Z"/><path class="cls-1" d="M34.06,17.48a.16.16,0,0,1,.08.14.31.31,0,0,1,0,.14l-2.39,5.71a.21.21,0,0,1-.09.11.25.25,0,0,1-.28,0,.21.21,0,0,1-.09-.11l-2.4-5.7a.36.36,0,0,1,0-.11.24.24,0,0,1,.38-.2.21.21,0,0,1,.09.11l2.17,5.22,2.18-5.22a.24.24,0,0,1,.25-.16A.26.26,0,0,1,34.06,17.48Z"/><path class="cls-1" d="M40.64,22.21a2.92,2.92,0,0,1-1.06,1.13,2.95,2.95,0,0,1-3,0,2.94,2.94,0,0,1-1.07-1.13,3.49,3.49,0,0,1,0-3.2,3,3,0,0,1,1.06-1.13,3,3,0,0,1,3,0A2.91,2.91,0,0,1,40.64,19,3.36,3.36,0,0,1,41,20.61,3.33,3.33,0,0,1,40.64,22.21Zm-.41-3a2.45,2.45,0,0,0-.88-1,2.45,2.45,0,0,0-2.54,0,2.47,2.47,0,0,0-.89,1,3.07,3.07,0,0,0,0,2.75,2.47,2.47,0,0,0,.89,1,2.47,2.47,0,0,0,2.54,0,2.4,2.4,0,0,0,.88-1,3.15,3.15,0,0,0,0-2.75Z"/><path class="cls-1" d="M42.53,16.53a.36.36,0,0,1-.11-.28v-.1a.35.35,0,0,1,.12-.28.45.45,0,0,1,.31-.11.39.39,0,0,1,.28.11.37.37,0,0,1,.11.28v.1a.37.37,0,0,1-.11.28.41.41,0,0,1-.29.11A.43.43,0,0,1,42.53,16.53Zm.47,7a.23.23,0,0,1-.17.07.23.23,0,0,1-.17-.07.24.24,0,0,1-.07-.17v-5.7a.23.23,0,0,1,.07-.17.23.23,0,0,1,.17-.07.23.23,0,0,1,.17.07.24.24,0,0,1,.07.17v5.7A.23.23,0,0,1,43,23.56Z"/><path class="cls-1" d="M48.33,17.73a.27.27,0,0,1-.06.18.19.19,0,0,1-.16.07l-.17-.05a.8.8,0,0,0-.29-.05,1.59,1.59,0,0,0-1,.39,3,3,0,0,0-.8,1,2.46,2.46,0,0,0-.31,1.15v3a.24.24,0,0,1-.24.24.23.23,0,0,1-.17-.07.24.24,0,0,1-.07-.17V17.89a.23.23,0,0,1,.07-.17.23.23,0,0,1,.17-.07.23.23,0,0,1,.17.07.24.24,0,0,1,.07.17v1.27a2.85,2.85,0,0,1,.86-1.21,2.15,2.15,0,0,1,1.37-.49Q48.34,17.45,48.33,17.73Z"/><path class="cls-1" d="M56.94,18a2.75,2.75,0,0,1,1,1.09,3.37,3.37,0,0,1,.36,1.57,3.33,3.33,0,0,1-.37,1.57,2.82,2.82,0,0,1-1,1.1,2.6,2.6,0,0,1-1.42.4,2.52,2.52,0,0,1-1.32-.36,2.81,2.81,0,0,1-1-1v3.47a.24.24,0,0,1-.07.17A.23.23,0,0,1,53,26a.25.25,0,0,1-.24-.24v-8a.24.24,0,0,1,.07-.17.25.25,0,0,1,.35,0,.24.24,0,0,1,.07.17v1.1a2.39,2.39,0,0,1,1-1,2.75,2.75,0,0,1,1.34-.33A2.65,2.65,0,0,1,56.94,18Zm-.26,4.94a2.34,2.34,0,0,0,.83-.94,2.92,2.92,0,0,0,.31-1.34,2.88,2.88,0,0,0-.31-1.34,2.36,2.36,0,0,0-.83-.93A2.17,2.17,0,0,0,55.49,18a2.25,2.25,0,0,0-1.21.33,2.22,2.22,0,0,0-.83.92,3.25,3.25,0,0,0,0,2.7,2.26,2.26,0,0,0,.83.93,2.22,2.22,0,0,0,1.21.34A2.17,2.17,0,0,0,56.67,22.91Z"/><path class="cls-1" d="M60.33,23.56a.23.23,0,0,1-.17.07.22.22,0,0,1-.17-.07.24.24,0,0,1-.07-.17V15a.25.25,0,0,1,.24-.24.22.22,0,0,1,.17.07.24.24,0,0,1,.07.17v8.4A.23.23,0,0,1,60.33,23.56Z"/><path class="cls-1" d="M67.1,17.72a.24.24,0,0,1,.07.17v3.49a2.25,2.25,0,0,1-.64,1.73,2.86,2.86,0,0,1-3.49,0,2.26,2.26,0,0,1-.64-1.73V17.89a.23.23,0,0,1,.07-.17.23.23,0,0,1,.17-.07.23.23,0,0,1,.17.07.24.24,0,0,1,.07.17v3.49a1.83,1.83,0,0,0,.5,1.39,2.25,2.25,0,0,0,2.8,0,1.84,1.84,0,0,0,.5-1.39V17.89a.24.24,0,0,1,.07-.17.25.25,0,0,1,.35,0Z"/><path class="cls-1" d="M68.73,22.45a.27.27,0,0,1,.24-.22.23.23,0,0,1,.19.1,2.24,2.24,0,0,0,1.94,1A2,2,0,0,0,72.23,23a1,1,0,0,0,.48-.86.92.92,0,0,0-.42-.83,3.75,3.75,0,0,0-1.15-.46,4.45,4.45,0,0,1-1.53-.64A1.32,1.32,0,0,1,69,19.09a1.45,1.45,0,0,1,.56-1.17,2.22,2.22,0,0,1,1.45-.46,2.64,2.64,0,0,1,1,.19,2.44,2.44,0,0,1,.88.61.21.21,0,0,1,.08.17.26.26,0,0,1-.08.19.37.37,0,0,1-.16,0,.18.18,0,0,1-.14-.07A2.08,2.08,0,0,0,71,17.91a1.8,1.8,0,0,0-1.07.31,1,1,0,0,0-.44.86,1,1,0,0,0,.47.8,4.48,4.48,0,0,0,1.29.5,6,6,0,0,1,1,.34,1.6,1.6,0,0,1,.64.52,1.47,1.47,0,0,1,.24.88,1.42,1.42,0,0,1-.58,1.19,2.46,2.46,0,0,1-1.52.44,2.76,2.76,0,0,1-2.24-1.08A.44.44,0,0,1,68.73,22.45Z"/><path class="cls-1" d="M12.75,6.35c-1,0-2.44.06-3,0s-2-.06-2.5-.06.17-.81.17-1.16a3,3,0,0,1,.46-2A10.22,10.22,0,0,1,8.8,1.87a2.89,2.89,0,0,1,1.4-.7A4.84,4.84,0,0,1,13,1.58a2.7,2.7,0,0,1,.52.35,6.07,6.07,0,0,1,1,1.11,1.52,1.52,0,0,0,.29.35c.06.06.29.06.29,0a5.13,5.13,0,0,0,.35-.58,5.25,5.25,0,0,1,.81-1.16A4.17,4.17,0,0,1,18.81.36a2.38,2.38,0,0,1,1.4.23A3.93,3.93,0,0,1,21.77,2.1a5.8,5.8,0,0,0,.47.81.24.24,0,0,0,.47,0l.17-.17A4.81,4.81,0,0,1,25,.88,6.78,6.78,0,0,1,28.52,0,2.85,2.85,0,0,1,31.2,1.75c.12.29.23.64.35,1,.06.17.35.17.47,0a1.05,1.05,0,0,0,.29-.41l.35-.52a3.82,3.82,0,0,1,4-1.4,2.68,2.68,0,0,1,1.8,1.16c.29.41.52.81.81,1.22a3.3,3.3,0,0,0,.35.47.48.48,0,0,0,.47.12c.12-.06.23-.17.35-.23l1.16-1a3.88,3.88,0,0,1,2.09-.81c.7,0,1.4-.12,2.1-.06A3.45,3.45,0,0,1,47.44,2c.29.35.52.58.76.87a3.55,3.55,0,0,1,.47.47c.12.12.35-.17.58-.29s.29-.23.35-.41A6.35,6.35,0,0,1,51.1,1.4,4.83,4.83,0,0,1,53.84.47c.23,0,.47-.06.7-.06a2.47,2.47,0,0,1,2,.81A6.84,6.84,0,0,1,57.62,3c.12.29.17.47.29.7a.27.27,0,0,0,.35.06c.17,0,.29-.12.47-.23.47-.29.82-.52,1.22-.81a6.44,6.44,0,0,1,2.91-.81,2.58,2.58,0,0,1,2,.41,3.27,3.27,0,0,1,.76.47,2,2,0,0,1,.82.87c.17.41.7.76.81,1.16s.23,1.51-.12,1.51-1.63-.06-1.86,0a4.42,4.42,0,0,1-.87.06H62.1c-1.57,0-3.08-.06-4.6-.12s-3,0-4.42-.06H53a17.88,17.88,0,0,0-4.66.23,1,1,0,0,0-.58,0h-.64a19.5,19.5,0,0,0-3.9-.06c-3.67.06-9.6.23-15.07,0a7.44,7.44,0,0,1-1.11.06H23.46c-1,0-2,.06-3,.06C17.87,6.47,15.31,6.41,12.75,6.35Zm1.4-.87h.23A.47.47,0,0,0,14.67,5a.06.06,0,0,1-.06-.06,7.5,7.5,0,0,0-1.28-2A.58.58,0,0,0,13,2.62,3.92,3.92,0,0,0,11.71,2,2.29,2.29,0,0,0,9,3l-.52.87a3.36,3.36,0,0,0-.23.81c0,.12.06.29.06.41a.7.7,0,0,0,.29.29,1.7,1.7,0,0,0,.93-.06A.44.44,0,0,0,9.84,5a1.13,1.13,0,0,1,.06-.41,1.38,1.38,0,0,1,.93-1.34.82.82,0,0,1,.81,0,2.78,2.78,0,0,1,.58.58l.87,1.4a.65.65,0,0,0,.46.29.63.63,0,0,1,.29.06A.52.52,0,0,1,14.15,5.48Zm-2.56-.06A.27.27,0,0,0,11.76,5c-.12-.23-.17-.41-.29-.64a.38.38,0,0,0-.64,0,2,2,0,0,0-.23.52.4.4,0,0,0,.35.52.44.44,0,0,0,.29.06C11.3,5.48,11.47,5.42,11.59,5.42Zm5.3,0a.26.26,0,0,0,.17-.23.43.43,0,0,0,.06-.29,2,2,0,0,1,.58-1.28A1.68,1.68,0,0,1,19,3a1.32,1.32,0,0,1,1.22.64l.35.87c.12.23.17.47.29.7a.53.53,0,0,0,.64.17c.12,0,.23-.23.23-.41s.06-.12,0-.17l-.35-1.57a2.88,2.88,0,0,0-1.34-1.75A1.53,1.53,0,0,0,19,1.23a3.6,3.6,0,0,0-2.15,1.16,5.14,5.14,0,0,0-1,2.62c0,.29.12.47.41.47A2.39,2.39,0,0,0,16.88,5.42Zm2,.12c.12,0,.41-.06.76-.06.06-.06.23-.23.17-.35a1.83,1.83,0,0,0-.35-.93.66.66,0,0,0-.93-.12,1.89,1.89,0,0,0-.58,1c-.06.17.06.41.23.41Zm6.23-.06c.23,0,.41-.17.46-.47a2.9,2.9,0,0,1,.93-1.69,2,2,0,0,1,1.69-.58.94.94,0,0,1,.76.35,3,3,0,0,1,.7,1.16c.12.23.17.41.29.64a.75.75,0,0,0,1,.41A.33.33,0,0,0,31.26,5V4.43a13.25,13.25,0,0,1-.47-1.63,4.55,4.55,0,0,0-.64-1.16A1.5,1.5,0,0,0,29.34,1,2.22,2.22,0,0,0,28.18.88a7.3,7.3,0,0,0-1.69.29A5.42,5.42,0,0,0,24.1,2.68a7.42,7.42,0,0,0-1,1.57c-.06.17-.17.41-.23.64a.45.45,0,0,0,.29.58A7.92,7.92,0,0,0,25.15,5.48Zm2.39,0h.35c.23,0,.52-.06.76-.06A.4.4,0,0,0,28.93,5a2.35,2.35,0,0,0-.47-1.11.59.59,0,0,0-.58-.23,1.33,1.33,0,0,0-1,.47,5.31,5.31,0,0,0-.64.93c-.06.23.06.47.29.47Zm6.58-.17c.35,0,.52-.17.52-.58a1.6,1.6,0,0,1,0-.52,2.53,2.53,0,0,1,.06-.29,2.34,2.34,0,0,1,.76-.76,1.09,1.09,0,0,1,1.4.35c.06.17.17.41.23.58l.35.87a.51.51,0,0,0,.52.29c.06.06.12.06.23.06a1.72,1.72,0,0,0,.76-.12.44.44,0,0,0,.29-.41.74.74,0,0,0-.06-.35A9.3,9.3,0,0,0,37.84,2.1a2.18,2.18,0,0,0-1.63-.87,2.81,2.81,0,0,0-2.79,1.16,6,6,0,0,0-1.11,2.39.36.36,0,0,0,.29.52A13.14,13.14,0,0,0,34.11,5.3Zm2.15-.06c.12-.06.23-.23.17-.35A1.73,1.73,0,0,0,36.15,4,.28.28,0,0,0,35.74,4c-.06.06-.12.06-.17.12a2.14,2.14,0,0,0-.41.81c-.06.12.06.35.17.35a2,2,0,0,0,.35.06C35.86,5.3,36,5.24,36.26,5.24Zm11.87.12a.3.3,0,0,0,.23-.12c.17-.29.23-.58,0-.81a6.64,6.64,0,0,0-1.63-1.75,1.54,1.54,0,0,0-1.11-.52,8.59,8.59,0,0,0-1.22,0A4.15,4.15,0,0,0,42,2.92a16,16,0,0,0-1.46,1.34.91.91,0,0,0-.17.7.39.39,0,0,0,.23.29,8.62,8.62,0,0,0,2.44.06.06.06,0,0,0,.06-.06c.06-.06.17-.06.23-.17s.06-.35.12-.52a.89.89,0,0,1,.41-.7,6.15,6.15,0,0,1,.64-.47,1,1,0,0,1,1.11.06,4.77,4.77,0,0,1,.58.52c.17.23.35.52.58.87.12.12.12.29.29.35s.29.17.41.35C47.73,5.48,48,5.42,48.14,5.36Zm-2.5.06A.3.3,0,0,0,45.93,5a2.1,2.1,0,0,0-.41-.58.62.62,0,0,0-.76-.12,5.07,5.07,0,0,0-.87.76c-.06.06.06.29.17.29a1.15,1.15,0,0,0,.58.12A2.83,2.83,0,0,0,45.63,5.42Zm11.23-.06a1.36,1.36,0,0,0,.29-.29A4.57,4.57,0,0,0,57,3.79a4.47,4.47,0,0,0-1.11-2,1.51,1.51,0,0,0-1-.52,5.6,5.6,0,0,0-2,.17,6.09,6.09,0,0,0-2.68,1.8c-.06.12-.17.23-.17.35a5.76,5.76,0,0,0-.46,1c0,.06-.06.12-.06.17s.06.23.17.23a.87.87,0,0,0,.41.17c.58-.06,1.22-.06,1.86-.06a.52.52,0,0,0,.29-.06c.17,0,.23-.06.35-.23V4.6a2.4,2.4,0,0,1,.64-1.34,1.05,1.05,0,0,1,1.34.06,3.56,3.56,0,0,1,.41.58c.17.41.35.81.52,1.16.06.06.17.12.23.17s.29.06.41.12A1.2,1.2,0,0,1,56.87,5.36Zm-2.44-.12c.17,0,.23-.17.29-.29a2,2,0,0,0-.52-.81c0-.06-.17-.06-.29,0a1.63,1.63,0,0,0-.58.81s.06.17.12.17a1.69,1.69,0,0,0,.52.12C54.13,5.24,54.31,5.3,54.42,5.24Zm7,.12A.54.54,0,0,0,62,5.07.44.44,0,0,0,62,4.84a1.79,1.79,0,0,1,1.11-1,1.06,1.06,0,0,1,1.28.47c.12.12.12.29.23.41L65,5a.39.39,0,0,0,.41.12c.12-.12.29-.17.41-.29a.39.39,0,0,0,.12-.41c0-.06-.06-.12-.06-.17a3.55,3.55,0,0,0-.76-.87,4.09,4.09,0,0,0-1.57-.64,3.49,3.49,0,0,0-1.34.12,8.29,8.29,0,0,0-3.43,1.86c-.06.06-.17.23-.23.29s0,.35.12.35.47.06.7.12A13.15,13.15,0,0,0,61.46,5.36Zm2.21-.12a.13.13,0,0,0,.12-.12.53.53,0,0,0-.23-.47.35.35,0,0,0-.47,0,2.67,2.67,0,0,0-.41.41c-.06.06,0,.12,0,.17s0,.06.06.06a.44.44,0,0,0,.29.06C63.21,5.3,63.44,5.36,63.68,5.24Z"/><path class="cls-1" d="M62.49,34.75c1,0,2.44-.06,3,0s2,.06,2.5.06-.17.81-.17,1.16a3,3,0,0,1-.46,2,10.22,10.22,0,0,1-.93,1.28,2.89,2.89,0,0,1-1.4.7,4.84,4.84,0,0,1-2.85-.41,2.7,2.7,0,0,1-.52-.35,6.07,6.07,0,0,1-1-1.11,1.52,1.52,0,0,0-.29-.35c-.06-.06-.29-.06-.29,0a5.13,5.13,0,0,0-.35.58,5.25,5.25,0,0,1-.81,1.16,4.17,4.17,0,0,1-2.5,1.28,2.38,2.38,0,0,1-1.4-.23A3.93,3.93,0,0,1,53.47,39a5.8,5.8,0,0,0-.47-.81.24.24,0,0,0-.47,0l-.17.17a4.81,4.81,0,0,1-2.15,1.86,6.78,6.78,0,0,1-3.49.87A2.85,2.85,0,0,1,44,39.35c-.12-.29-.23-.64-.35-1-.06-.17-.35-.17-.47,0a1.05,1.05,0,0,0-.29.41l-.35.52a3.82,3.82,0,0,1-4,1.4,2.68,2.68,0,0,1-1.8-1.16c-.29-.41-.52-.81-.81-1.22a3.3,3.3,0,0,0-.35-.47.48.48,0,0,0-.47-.12c-.12.06-.23.17-.35.23l-1.16,1a3.88,3.88,0,0,1-2.09.81c-.7,0-1.4.12-2.1.06a3.45,3.45,0,0,1-1.69-.76c-.29-.35-.52-.58-.76-.87a3.55,3.55,0,0,1-.47-.47c-.12-.12-.35.17-.58.29s-.29.23-.35.41a6.35,6.35,0,0,1-1.51,1.28,4.83,4.83,0,0,1-2.74.93c-.23,0-.47.06-.7.06a2.47,2.47,0,0,1-2-.81,6.84,6.84,0,0,1-1.11-1.75c-.12-.29-.17-.47-.29-.7a.27.27,0,0,0-.35-.06c-.17,0-.29.12-.47.23-.47.29-.82.52-1.22.81a6.44,6.44,0,0,1-2.91.81,2.58,2.58,0,0,1-2-.41,3.27,3.27,0,0,1-.76-.47,2,2,0,0,1-.82-.87c-.17-.41-.7-.76-.81-1.16s-.23-1.51.12-1.51,1.63.06,1.86,0a4.42,4.42,0,0,1,.87-.06h2.27c1.57,0,3.08.06,4.6.12s3,0,4.42.06h.06a17.88,17.88,0,0,0,4.66-.23,1,1,0,0,0,.58,0h.64a19.5,19.5,0,0,0,3.9.06c3.67-.06,9.6-.23,15.07,0a7.44,7.44,0,0,1,1.11-.06h3.61c1,0,2-.06,3-.06C57.37,34.63,59.93,34.69,62.49,34.75Zm-1.4.87h-.23a.47.47,0,0,0-.29.52.06.06,0,0,1,.06.06,7.5,7.5,0,0,0,1.28,2,.58.58,0,0,0,.29.23,3.92,3.92,0,0,0,1.34.58,2.29,2.29,0,0,0,2.68-1l.52-.87a3.36,3.36,0,0,0,.23-.81c0-.12-.06-.29-.06-.41a.7.7,0,0,0-.29-.29,1.7,1.7,0,0,0-.93.06.44.44,0,0,0-.29.41,1.13,1.13,0,0,1-.06.41,1.38,1.38,0,0,1-.93,1.34.82.82,0,0,1-.81,0,2.78,2.78,0,0,1-.58-.58l-.87-1.4a.65.65,0,0,0-.46-.29.63.63,0,0,1-.29-.06A.52.52,0,0,1,61.1,35.62Zm2.56.06a.27.27,0,0,0-.17.41c.12.23.17.41.29.64a.38.38,0,0,0,.64,0,2,2,0,0,0,.23-.52.4.4,0,0,0-.35-.52.44.44,0,0,0-.29-.06C63.95,35.62,63.77,35.68,63.66,35.68Zm-5.3,0a.26.26,0,0,0-.17.23.43.43,0,0,0-.06.29,2,2,0,0,1-.58,1.28,1.68,1.68,0,0,1-1.34.58A1.32,1.32,0,0,1,55,37.43l-.35-.87c-.12-.23-.17-.47-.29-.7a.53.53,0,0,0-.64-.17c-.12,0-.23.23-.23.41s-.06.12,0,.17l.35,1.57a2.88,2.88,0,0,0,1.34,1.75,1.53,1.53,0,0,0,1.11.29,3.6,3.6,0,0,0,2.15-1.16,5.14,5.14,0,0,0,1-2.62c0-.29-.12-.47-.41-.47A2.39,2.39,0,0,0,58.36,35.68Zm-2-.12c-.12,0-.41.06-.76.06-.06.06-.23.23-.17.35a1.83,1.83,0,0,0,.35.93.66.66,0,0,0,.93.12,1.89,1.89,0,0,0,.58-1c.06-.17-.06-.41-.23-.41Zm-6.23.06c-.23,0-.41.17-.46.47a2.9,2.9,0,0,1-.93,1.69,2,2,0,0,1-1.69.58.94.94,0,0,1-.76-.35,3,3,0,0,1-.7-1.16c-.12-.23-.17-.41-.29-.64a.75.75,0,0,0-1-.41.33.33,0,0,0-.29.35v.52a13.25,13.25,0,0,1,.47,1.63,4.55,4.55,0,0,0,.64,1.16,1.5,1.5,0,0,0,.82.64,2.22,2.22,0,0,0,1.16.12,7.3,7.3,0,0,0,1.69-.29,5.42,5.42,0,0,0,2.39-1.51,7.42,7.42,0,0,0,1-1.57c.06-.17.17-.41.23-.64a.45.45,0,0,0-.29-.58A7.92,7.92,0,0,0,50.1,35.62Zm-2.39,0h-.35c-.23,0-.52.06-.76.06a.4.4,0,0,0-.29.47,2.35,2.35,0,0,0,.47,1.11.59.59,0,0,0,.58.23,1.33,1.33,0,0,0,1-.47,5.31,5.31,0,0,0,.64-.93c.06-.23-.06-.47-.29-.47Zm-6.58.17c-.35,0-.52.17-.52.58a1.6,1.6,0,0,1,0,.52,2.53,2.53,0,0,1-.06.29,2.34,2.34,0,0,1-.76.76,1.09,1.09,0,0,1-1.4-.35c-.06-.17-.17-.41-.23-.58l-.35-.87a.51.51,0,0,0-.52-.29c-.06-.06-.12-.06-.23-.06a1.72,1.72,0,0,0-.76.12.44.44,0,0,0-.29.41.74.74,0,0,0,.06.35A9.3,9.3,0,0,0,37.41,39a2.18,2.18,0,0,0,1.63.87,2.81,2.81,0,0,0,2.79-1.16,6,6,0,0,0,1.11-2.39.36.36,0,0,0-.29-.52A13.14,13.14,0,0,0,41.14,35.8ZM39,35.86c-.12.06-.23.23-.17.35a1.73,1.73,0,0,0,.29.87.28.28,0,0,0,.41.06c.06-.06.12-.06.17-.12a2.14,2.14,0,0,0,.41-.81c.06-.12-.06-.35-.17-.35a2,2,0,0,0-.35-.06C39.39,35.8,39.22,35.86,39,35.86Zm-11.87-.12a.3.3,0,0,0-.23.12c-.17.29-.23.58,0,.81a6.64,6.64,0,0,0,1.63,1.75,1.54,1.54,0,0,0,1.11.52,8.59,8.59,0,0,0,1.22,0,4.15,4.15,0,0,0,2.39-.76,16,16,0,0,0,1.46-1.34.91.91,0,0,0,.17-.7.39.39,0,0,0-.23-.29,8.62,8.62,0,0,0-2.44-.06.06.06,0,0,0-.06.06c-.06.06-.17.06-.23.17s-.06.35-.12.52a.89.89,0,0,1-.41.7,6.15,6.15,0,0,1-.64.47,1,1,0,0,1-1.11-.06,4.77,4.77,0,0,1-.58-.52c-.17-.23-.35-.52-.58-.87-.12-.12-.12-.29-.29-.35s-.29-.17-.41-.35C27.52,35.62,27.29,35.68,27.11,35.74Zm2.5-.06a.3.3,0,0,0-.29.47,2.1,2.1,0,0,0,.41.58.62.62,0,0,0,.76.12,5.07,5.07,0,0,0,.87-.76c.06-.06-.06-.29-.17-.29a1.15,1.15,0,0,0-.58-.12A2.83,2.83,0,0,0,29.61,35.68Zm-11.23.06a1.36,1.36,0,0,0-.29.29,4.57,4.57,0,0,0,.12,1.28,4.47,4.47,0,0,0,1.11,2,1.51,1.51,0,0,0,1,.52,5.6,5.6,0,0,0,2-.17A6.09,6.09,0,0,0,25,37.84c.06-.12.17-.23.17-.35a5.76,5.76,0,0,0,.46-1c0-.06.06-.12.06-.17S25.6,36,25.48,36a.87.87,0,0,0-.41-.17c-.58.06-1.22.06-1.86.06a.52.52,0,0,0-.29.06c-.17,0-.23.06-.35.23v.29a2.4,2.4,0,0,1-.64,1.34,1.05,1.05,0,0,1-1.34-.06,3.56,3.56,0,0,1-.41-.58c-.17-.41-.35-.81-.52-1.16-.06-.06-.17-.12-.23-.17s-.29-.06-.41-.12A1.2,1.2,0,0,1,18.38,35.74Zm2.44.12c-.17,0-.23.17-.29.29a2,2,0,0,0,.52.81c0,.06.17.06.29,0a1.63,1.63,0,0,0,.58-.81s-.06-.17-.12-.17a1.69,1.69,0,0,0-.52-.12C21.12,35.86,20.94,35.8,20.83,35.86Zm-7-.12a.54.54,0,0,0-.52.29.44.44,0,0,0-.06.23,1.79,1.79,0,0,1-1.11,1,1.06,1.06,0,0,1-1.28-.47c-.12-.12-.12-.29-.23-.41l-.29-.29A.39.39,0,0,0,9.88,36c-.12.12-.29.17-.41.29a.39.39,0,0,0-.12.41c0,.06.06.12.06.17a3.55,3.55,0,0,0,.76.87,4.09,4.09,0,0,0,1.57.64,3.49,3.49,0,0,0,1.34-.12,8.29,8.29,0,0,0,3.43-1.86c.06-.06.17-.23.23-.29s0-.35-.12-.35-.47-.06-.7-.12A13.15,13.15,0,0,0,13.78,35.74Zm-2.21.12a.13.13,0,0,0-.12.12.53.53,0,0,0,.23.47.35.35,0,0,0,.47,0,2.67,2.67,0,0,0,.41-.41c.06-.06,0-.12,0-.17s0-.06-.06-.06a.44.44,0,0,0-.29-.06C12,35.8,11.81,35.74,11.57,35.86Z"/></svg>