<svg id="Calque_1" data-name="Calque 1" xmlns="http://www.w3.org/2000/svg" viewBox="0 0 50.77 55.4"><defs><style>.cls-1{fill:#fff;}</style></defs><title>ensavoirplus</title><path class="cls-1" d="M39.46,55.3A2.68,2.68,0,0,1,38,54.8a16.62,16.62,0,0,1-3-2.25,14.78,14.78,0,0,1-1.81-2.17c-.16-.2-.25-.39-.33-.5-.57-.88-.74-1-1.65-.58-.4.1-.9.29-1.39.39a15.62,15.62,0,0,1-2.06.19,5.69,5.69,0,0,0-1.24,0c-.41-.09-.9-.09-1.32-.19h-.57a19.76,19.76,0,0,1-3.46-.29,8.44,8.44,0,0,0-1.57-.2,23.84,23.84,0,0,1-2.63-.1l-2.39-.3A11.58,11.58,0,0,1,11,47.23,21.87,21.87,0,0,1,7.1,44L5,41.72a21.24,21.24,0,0,1-3.3-5.31l-1-2.76A17.53,17.53,0,0,1,0,28.14v-.59a47.12,47.12,0,0,1,.24-4.82l.17-1a28.47,28.47,0,0,1,1.89-6.21A11.66,11.66,0,0,1,4.55,11.8,31.85,31.85,0,0,1,7.59,9a12.58,12.58,0,0,1,3.05-1.77c.58-.39,1.32-.59,1.89-1l4.2-2.06C18.3,3.45,19.86,2.65,21.51,2A18.91,18.91,0,0,1,25,.88,45.49,45.49,0,0,1,30,.1,20.49,20.49,0,0,1,32.46,0h.91a20.86,20.86,0,0,1,4.12.58c1.07.3,2.22.6,3.29,1a10.37,10.37,0,0,1,3.87,2.66,28.55,28.55,0,0,1,2.14,2.36,9.38,9.38,0,0,1,.83,1.09c.65,1.27,1.23,2.65,1.81,3.93a10.66,10.66,0,0,1,.82,3,12,12,0,0,0,.25,1.77v.4a50.09,50.09,0,0,1,.25,6,20.9,20.9,0,0,1-.25,3.15C50.33,27,50.25,28,50,29.12a6.66,6.66,0,0,1-.32,1.38c-.33,1.08-.67,2.17-1.07,3.15C47.78,35.42,47,37.19,46,39a24.3,24.3,0,0,1-3.46,4.53c-.82.79-1.73,1.48-2.55,2.27a7.66,7.66,0,0,0-1.07.88,11.71,11.71,0,0,0-1.49.89,1,1,0,0,0-.16.69c0,.09.08.19.08.29a13.6,13.6,0,0,0,2.56,3.35A4.33,4.33,0,0,0,41.61,53a2.56,2.56,0,0,0,.74.4,2.27,2.27,0,0,1,.82,1.18.85.85,0,0,1-.25.69c-.16,0-.25.1-.41.1C41.52,55.4,40.45,55.3,39.46,55.3Zm.25-1.38a.2.2,0,0,0,.17-.2v-.19l-.75-.79a8.39,8.39,0,0,0-.9-.88c-.58-.89-1.15-2-1.81-2.86a8.46,8.46,0,0,1-.5-1.28,1.28,1.28,0,0,1,.41-1.08c.09-.1.25-.3.42-.3A14.46,14.46,0,0,0,40,44.18a36.34,36.34,0,0,0,3.7-3.84A20.27,20.27,0,0,0,45.72,37a51.84,51.84,0,0,0,2.8-6.39A10.4,10.4,0,0,0,49,28.24l.25-1.48a26.78,26.78,0,0,0,.42-5.61,34.85,34.85,0,0,0-.5-5.9v-.19a12,12,0,0,0-1.4-4.53,11.5,11.5,0,0,1-.66-1.38,9.77,9.77,0,0,0-1.48-2.27c-.49-.58-.91-1.18-1.4-1.66a11.88,11.88,0,0,0-2.63-2,22.33,22.33,0,0,0-7-2.07c-1.4,0-2.79-.1-4.28,0a10.2,10.2,0,0,1-1.81.2h-.74c-1,.29-2.14.49-3.21.69a40.76,40.76,0,0,0-5.44,2.06c-1.15.49-2.3,1.18-3.46,1.78-.66.19-1.23.58-1.89.78-1.24.59-2.47,1.28-3.71,2a17.8,17.8,0,0,0-3,2.07A12.22,12.22,0,0,0,5,12.89a10.45,10.45,0,0,0-1.65,2.65,18,18,0,0,0-1.56,4.83A27.66,27.66,0,0,0,1,29a19.4,19.4,0,0,0,.49,3.84,27.94,27.94,0,0,0,1.73,4.42A27.36,27.36,0,0,0,5,40.05c1,1.08,2,2.06,3,3.14a13.88,13.88,0,0,0,3.05,2.57,10,10,0,0,0,2.56,1.47,13.6,13.6,0,0,0,2.22.49c1.15.1,2.22.2,3.46.2a26.89,26.89,0,0,1,2.8.3,9.08,9.08,0,0,0,1.56.09h.91a12.34,12.34,0,0,0,3.29.2,7,7,0,0,0,1.4-.1,8.87,8.87,0,0,0,2.14-.59,1.67,1.67,0,0,1,2.06,1,10.63,10.63,0,0,0,1.73,2.27,15.84,15.84,0,0,0,2.64,2.26l1.39.59A.45.45,0,0,0,39.71,53.92Z"/><path class="cls-1" d="M21.59,16.19a.35.35,0,0,0-.2-.16.33.33,0,0,1-.12-.05.14.14,0,0,1-.1-.1.86.86,0,0,1-.05-.32c0-.18,0-.36,0-.55,0-.43,0-.86,0-1.29a1.42,1.42,0,0,1,0-.35.81.81,0,0,0,0-.16q0-1,0-2a.47.47,0,0,0,0-.12,2.64,2.64,0,0,1,0-.69c0-.43,0-.86,0-1.3a2,2,0,0,1,0-.24c0-.1.07-.19.07-.3a2.43,2.43,0,0,1,0-.27c0-.07.09-.16.16-.16l.26,0A2.6,2.6,0,0,0,22.29,8h.15c.53,0,1.07,0,1.61,0a.93.93,0,0,1,.23,0,.13.13,0,0,1,.12.08c0,.05.06.1.06.14s.06.32.08.47a.38.38,0,0,1,0,.15.09.09,0,0,1-.05.07.94.94,0,0,1-.72,0,.14.14,0,0,0-.14,0,.47.47,0,0,1-.23,0c-.26,0-.53,0-.79,0a2.5,2.5,0,0,0-.38.06.13.13,0,0,0-.09.12c0,.4,0,.81,0,1.21a5.42,5.42,0,0,0,.06.58s0,0,.05.06l.12,0c.25,0,.49,0,.74,0h.23a.22.22,0,0,1,.16.12.94.94,0,0,1,.09.57,1,1,0,0,1,0,.15.25.25,0,0,1-.17.15l-.19,0-.75,0-.15,0c-.05,0-.1.07-.1.11s0,.18,0,.27c0,.33,0,.65,0,1a4.26,4.26,0,0,1,0,.5,2.8,2.8,0,0,0,0,.5c0,.17,0,.35,0,.52s0,.07,0,.12a.12.12,0,0,0,.13.11h0c.37,0,.73,0,1.1,0l.42,0a.59.59,0,0,1,.39.05s.07,0,.07.08a1.38,1.38,0,0,1,0,.7.24.24,0,0,1-.18.18,1.75,1.75,0,0,1-.24,0c-.32,0-.65,0-1,0a.78.78,0,0,1-.31-.06.85.85,0,0,1-.49.12h-.23A.26.26,0,0,1,21.59,16.19Z"/><path class="cls-1" d="M28.9,16l-.22-.45c-.22-.44-.41-.88-.61-1.33l0-.07c-.35-.8-.78-1.83-1.13-2.64a10.3,10.3,0,0,0-.46-1.08l-.05,0,0,0c0,.35,0,.71,0,1.06a4.57,4.57,0,0,1,0,.74,5.82,5.82,0,0,0,0,.59v1.61c0,.1,0,.21,0,.31a.45.45,0,0,0,0,.23.43.43,0,0,1,0,.12v.66a.17.17,0,0,1-.09.16.46.46,0,0,1-.25.1h-.43a.48.48,0,0,1-.18-.08.24.24,0,0,1-.09-.17,2.53,2.53,0,0,1,0-.28V12.83h0l0-2.87a4.56,4.56,0,0,0,0-.51,4.91,4.91,0,0,1,0-.94.17.17,0,0,1,0-.07.23.23,0,0,1,.12-.19.42.42,0,0,1,.14-.06,2,2,0,0,0,.39-.1h.15a.18.18,0,0,1,.17.06c.12.19.24.38.35.59s.33.66.5,1,.12.43.24.64l.28.61c.25.56.57,1.35.82,1.91.12.27.23.53.35.79,0,0,.05.06.07.09l0,0a2.06,2.06,0,0,0,0-.43,2.38,2.38,0,0,1,0-.46l0-2.94c0-.14,0-.63,0-.76a6.76,6.76,0,0,1,0-.9.22.22,0,0,1,.09-.12,1.7,1.7,0,0,1,.5-.09.59.59,0,0,1,.26.07.17.17,0,0,1,.14.2c0,.17,0,.31,0,.47a2.35,2.35,0,0,1,0,.59l0,2.36v.16a4.51,4.51,0,0,1,0,.82c0,.51,0,1,0,1.53a2.4,2.4,0,0,0,.05.46A1.93,1.93,0,0,1,30,15c0,.29,0,.58,0,.87a.45.45,0,0,1-.07.25.14.14,0,0,1-.13.08,0,0,0,0,1-.07,0,2.48,2.48,0,0,0-.27,0,1.41,1.41,0,0,0-.22.06A.35.35,0,0,1,28.9,16Z"/><path class="cls-1" d="M13.54,30.61a2.19,2.19,0,0,1-.72-.39A1.15,1.15,0,0,1,12.6,30a3.2,3.2,0,0,1-.53-1.26c0-.12,0-.25,0-.37s0-.25,0-.37a.15.15,0,0,1,.11-.13.31.31,0,0,1,.16-.06,3.1,3.1,0,0,0,.54,0s0,0,0,0,.11,0,.11.08a.65.65,0,0,1,0,.31,1.41,1.41,0,0,1,0,.21,1.37,1.37,0,0,0,.32,1,.1.1,0,0,0,.05.06,1,1,0,0,0,.87.23,3.37,3.37,0,0,0,.34-.09A.81.81,0,0,0,15,29.2a1.68,1.68,0,0,0,.07-.39,2.85,2.85,0,0,0-.09-1,1.71,1.71,0,0,0-.27-.6,10,10,0,0,0-.71-.9,2.92,2.92,0,0,0-.32-.28l-.36-.36a3.69,3.69,0,0,1-.57-.79c-.07-.16-.1-.33-.16-.48a.12.12,0,0,1,0-.08,1.65,1.65,0,0,1,1.05-1.71,2,2,0,0,1,.49-.13,1.05,1.05,0,0,0,.24,0h.11a3.89,3.89,0,0,1,.43.11,1.27,1.27,0,0,1,.77.67,2.1,2.1,0,0,1,.2,1.11.19.19,0,0,1-.12.14,1,1,0,0,1-.53.1.8.8,0,0,1-.26-.09.16.16,0,0,1-.1-.15,1.78,1.78,0,0,0-.06-.51.38.38,0,0,0-.05-.12.31.31,0,0,0-.27-.19.9.9,0,0,0-.66.13.38.38,0,0,0-.09.09s0,0,0,.07c-.11.29-.16.3,0,.67a1.67,1.67,0,0,0,.24.35,6.45,6.45,0,0,0,.58.59,4.89,4.89,0,0,1,.84.92,1.26,1.26,0,0,0,.11.17,2.61,2.61,0,0,1,.46.93,3.12,3.12,0,0,1,.17,1.05c0,.16,0,.34,0,.51a2,2,0,0,1-.4,1,1.46,1.46,0,0,1-.62.46,2.18,2.18,0,0,1-.65.18A1.93,1.93,0,0,1,13.54,30.61Z"/><path class="cls-1" d="M20.36,30.42a.29.29,0,0,1,0-.22s0,0,0-.07a.71.71,0,0,1-.16-.42.42.42,0,0,1,0-.12,4,4,0,0,1-.3-.84.53.53,0,0,0,0-.12.15.15,0,0,0-.12-.08h-.51a2.5,2.5,0,0,0-.67.05h-.12c-.31,0-.31,0-.38.31L17.69,30c0,.1-.07.2-.11.29a.17.17,0,0,1-.12.1,1.2,1.2,0,0,1-.72-.12.15.15,0,0,1-.06-.05.18.18,0,0,1-.07-.17l.11-.42c.09-.38.2-.75.29-1.14s.25-1,.38-1.56a1.8,1.8,0,0,1,.06-.22c0-.08.07-.15.08-.22s0-.16,0-.23a1.06,1.06,0,0,1,0-.19l.47-1.87c0-.17.07-.35.11-.53a.84.84,0,0,0,0-.27,2.19,2.19,0,0,1,.17-.88.18.18,0,0,1,.15-.11,1.36,1.36,0,0,1,.69.09.2.2,0,0,1,.14.21,3.58,3.58,0,0,0,.11.73c.06.29.13.57.2.84s.11.54.18.81c.14.49.26,1,.41,1.46l.4,1.24c.06.21.13.42.18.63a9.16,9.16,0,0,0,.3,1c.07.22.11.43.19.64a.61.61,0,0,1,0,.19.17.17,0,0,1-.08.13l-.07,0-.48.17A.25.25,0,0,1,20.36,30.42ZM18.9,27.54l.46,0s.06-.06.06-.09a.53.53,0,0,1,0-.12c-.14-.42-.27-.84-.38-1.26l-.15-.49,0,0s0,0,0,0l-.07.18c-.11.48-.23.95-.34,1.44a1.38,1.38,0,0,1-.06.26.12.12,0,0,0,.1.11Z"/><path class="cls-1" d="M23.77,30.58s-.07,0-.08-.06a.19.19,0,0,1,0-.11c-.12-.39-.24-.75-.36-1.12a17.21,17.21,0,0,1-.48-1.74c-.13-.51-.27-1-.43-1.54a.52.52,0,0,1,0-.3.1.1,0,0,0,0-.08s-.06,0-.07-.08l-.14-.44c-.11-.47-.27-1.2-.41-1.66L21.57,23a.2.2,0,0,1,.08-.24,1.82,1.82,0,0,1,.56-.35.18.18,0,0,1,.23.09,2.06,2.06,0,0,1,.12.26A11.81,11.81,0,0,1,23,24.59c.07.3.17.6.26.9.26.78.46,1.58.65,2.38,0,.1.06.22.1.33s0,.07.06.09.07,0,.08-.06l.17-.57c.13-.54.29-1.08.42-1.63,0-.22.12-.42.18-.64l.38-1.34a1.3,1.3,0,0,1,.1-.25.36.36,0,0,0,0-.23s0-.07,0-.11c.11-.34.22-.69.34-1.05a.06.06,0,0,1,0,0A.16.16,0,0,1,26,22.3s.06,0,.08,0a2.72,2.72,0,0,1,.62.23.18.18,0,0,1,.09.17.71.71,0,0,1,0,.24c0,.09,0,.2-.07.3-.14.39-.24.8-.46,1.55-.11.44-.22.87-.35,1.29s-.24.93-.38,1.4L25.1,28.8c-.1.34-.19.67-.27,1,0,.14-.09.3-.15.44a.44.44,0,0,1-.25.23,1.26,1.26,0,0,1-.55.1Z"/><path class="cls-1" d="M28.16,29.86a5.75,5.75,0,0,1-.58-1.41,7.85,7.85,0,0,1-.22-1,1.64,1.64,0,0,1,0-.22c0-.12,0-.24-.05-.35a1.32,1.32,0,0,1,0-.28,11,11,0,0,1,0-1.52,1.94,1.94,0,0,1,0-.24c0-.09,0-.18,0-.26a3.2,3.2,0,0,1,.47-1.36A1.89,1.89,0,0,1,29,22.4l.2,0a6.76,6.76,0,0,1,.9,0,1,1,0,0,1,.41.11,1.13,1.13,0,0,1,.45.42,1.29,1.29,0,0,1,.19.39,7.15,7.15,0,0,1,.35,1.11,5.59,5.59,0,0,1,.12.85c0,.18,0,.37,0,.55v.35c0,.34,0,.66,0,1a1.46,1.46,0,0,1,0,.22,1.87,1.87,0,0,0,0,.32,1.11,1.11,0,0,1,0,.19.84.84,0,0,0-.05.31,5.51,5.51,0,0,1-.17,1c0,.09,0,.17-.08.27a2.12,2.12,0,0,1-.71.91,1.37,1.37,0,0,1-.56.26,1.47,1.47,0,0,1-.66,0A1.71,1.71,0,0,1,28.16,29.86Zm1.67-.23a.84.84,0,0,0,.42-.45,1.32,1.32,0,0,0,.13-.44,2.84,2.84,0,0,0,.1-.66.36.36,0,0,1,0-.11.84.84,0,0,0,.05-.31,2.56,2.56,0,0,1,0-.47,3,3,0,0,0,0-.43c0-.2,0-.42,0-.72,0-.15,0-.41,0-.65a3.18,3.18,0,0,0-.06-.43,4.06,4.06,0,0,0-.18-.84c-.06-.19-.14-.38-.22-.58A.24.24,0,0,0,30,23.4a3.38,3.38,0,0,0-.71,0,.83.83,0,0,0-.36.16,1.36,1.36,0,0,0-.41.56c0,.1-.07.21-.09.3a5,5,0,0,0-.15,1.08c0,.13,0,.26,0,.4a4.48,4.48,0,0,0,.07,1,1.34,1.34,0,0,1,0,.2,1.25,1.25,0,0,1,0,.19c.06.33.13.64.21.95a5.3,5.3,0,0,0,.4,1,1.18,1.18,0,0,0,.23.32.71.71,0,0,0,.39.16A.36.36,0,0,0,29.83,29.63Z"/><path class="cls-1" d="M33,30.56a.6.6,0,0,1-.21-.08.14.14,0,0,1-.07-.13.86.86,0,0,1,0-.16,3.29,3.29,0,0,0-.05-.54,1.85,1.85,0,0,1,0-.24c0-.43,0-.86,0-1.29s0-.84,0-1.26a2.19,2.19,0,0,0,0-.51,1.55,1.55,0,0,1,0-.31c0-.83,0-2,0-2.83v-.43a.16.16,0,0,1,.08-.13.36.36,0,0,1,.17-.07,1.28,1.28,0,0,1,.55,0,.29.29,0,0,1,.21.26,1.85,1.85,0,0,1,0,.24v1.5h0v1.05a2.73,2.73,0,0,0,.05.5,2.62,2.62,0,0,1,0,.28c0,.83,0,1.64,0,2.47,0,.24,0,.47,0,.71a3.52,3.52,0,0,1,0,.86s0,0,0,0a.29.29,0,0,1-.11.11A2,2,0,0,1,33,30.56Z"/><path class="cls-1" d="M35.42,30.58a4.55,4.55,0,0,1-.51-.21.23.23,0,0,1-.12-.24v-2a5.47,5.47,0,0,0,0-.7c0-.24,0-.46,0-.7s.1-.28,0-.42a2.3,2.3,0,0,0,0-.39c0-.05,0-.08,0-.12,0-.32,0-.64,0-1a.2.2,0,0,0,0-.15.93.93,0,0,1,0-.23V23a.42.42,0,0,1,.1-.17l.1-.06A.44.44,0,0,1,35,22.6l.23,0a2.82,2.82,0,0,1,.57-.09,1.1,1.1,0,0,1,.31,0,4.62,4.62,0,0,1,1.16.25,1.73,1.73,0,0,1,.92.79,2.31,2.31,0,0,1,.21.55.34.34,0,0,1,0,.16,3.59,3.59,0,0,0,.05.46,1.13,1.13,0,0,1,0,.32,3.14,3.14,0,0,1-.23.81,2.28,2.28,0,0,1-.72.88.55.55,0,0,0-.14.13,1.2,1.2,0,0,0,.13.36c.2.44.5,1.08.72,1.52.1.22.19.43.3.65a4.64,4.64,0,0,0,.23.44,1,1,0,0,1,.06.22,1.6,1.6,0,0,0,.08.26.2.2,0,0,1-.13.22l-.11,0h-.59a.15.15,0,0,1-.15-.1l-.3-.59c-.12-.26-.23-.5-.36-.75a.44.44,0,0,1-.06-.25.1.1,0,0,0-.06-.1,1,1,0,0,1-.12-.16c-.07-.15-.14-.31-.32-.67s-.2-.45-.3-.67c0-.06-.06-.08-.12-.1l-.44,0a.16.16,0,0,0-.08.08v.35c0,.75,0,1.76,0,2.52a1,1,0,0,1,0,.34.18.18,0,0,1-.19.16ZM36.72,26a1.12,1.12,0,0,0,.24-.13,1.15,1.15,0,0,0,.5-.89c0-.06,0-.11,0-.18a1.94,1.94,0,0,0,0-.33,1.1,1.1,0,0,0-.27-.59.8.8,0,0,0-.36-.22,3.36,3.36,0,0,0-.63-.13.86.86,0,0,0-.45,0s-.07.05-.07.08c0,.24,0,.46,0,.7a5.4,5.4,0,0,1,0,.56c0,.16,0,.32,0,.47s0,.44.06.66a.18.18,0,0,0,.09.08.31.31,0,0,0,.26,0A3.08,3.08,0,0,0,36.72,26Z"/><path class="cls-1" d="M23.31,38.64V38.3c0-.34-.08-.42-.37-.42h-.68l-.35-.08a.32.32,0,0,1-.1-.13,2.31,2.31,0,0,1,0-.87.34.34,0,0,1,.08-.14,3.2,3.2,0,0,1,.39-.16c.27-.07.56-.13.85-.18a.29.29,0,0,0,.21-.24,9.74,9.74,0,0,1,.21-1.18c0-.16.19-.29.37-.29a2.78,2.78,0,0,1,.5,0,.46.46,0,0,1,.45.44v.85a.3.3,0,0,0,.29.26l.34,0a5.08,5.08,0,0,0,.69,0c.1,0,.18,0,.26,0a.49.49,0,0,1,.24.23,2,2,0,0,1,.08.69c0,.37-.13.47-.53.55a5.57,5.57,0,0,1-.84.08l-.35,0a.62.62,0,0,0-.18.18c0,.06,0,.11,0,.16a3.7,3.7,0,0,1-.18,1.19c0,.16-.16.24-.29.26a1.15,1.15,0,0,1-.77-.08c-.16-.08-.29-.18-.29-.37Z"/></svg>