<?xml version="1.0" encoding="utf-8"?>
<!-- Generator: Adobe Illustrator 21.1.0, SVG Export Plug-In . SVG Version: 6.00 Build 0)  -->
<svg version="1.1" id="LES_PETITS_" xmlns="http://www.w3.org/2000/svg" xmlns:xlink="http://www.w3.org/1999/xlink" x="0px"
	 y="0px" viewBox="0 0 300.1 300.1" style="enable-background:new 0 0 300.1 300.1;" xml:space="preserve">
<style type="text/css">
	.st0{opacity:0.85;fill:#FFFFFF;enable-background:new    ;}
	.st1{enable-background:new    ;}
	.st2{fill:#5A5C69;}
</style>
<rect id="Fond_accroche" y="0" class="st0" width="300.1" height="300.1"/>
<g class="st1">
	<path class="st2" d="M64.3,236.2c-0.1,0-0.2,0-0.2-0.1c-0.5-0.2-1-0.4-1.4-0.7c-0.5-0.5-1-1.1-1.3-1.7c-0.5-0.9-0.9-1.9-1.2-3
		c-0.1-0.6-0.2-1.3-0.2-2c0-1-0.1-1.5-0.1-2.5c0-0.2,0.1-1,0.1-1.2c0-0.9,0.2-1.9,0.4-2.8l0.4-1.2c0.3-0.8,0.7-1.5,1.2-2.1
		c0.1-0.1,0.2-0.2,0.3-0.3c0.3-0.2,0.6-0.5,0.9-0.6c0.4-0.2,0.7-0.3,1.2-0.3c0.3,0,0.6,0,0.8,0c0.6,0,1.1,0.2,1.6,0.6
		c0.5,0.3,0.8,0.8,1,1.3c0.1,0.4,0.2,0.7,0.2,1.1c0,0.5,0,1,0,1.6c0,0.3-0.2,0.4-0.4,0.5c-0.1,0-0.1,0-0.2,0c-0.3,0.1-0.7,0.1-1,0
		c-0.2,0-0.3-0.1-0.4-0.2c-0.1-0.1-0.2-0.2-0.2-0.4c0-0.2,0-0.4,0-0.6c0-0.3,0-0.6-0.1-1c0-0.3-0.3-0.6-0.7-0.7c-0.1,0-0.2,0-0.3,0
		c-0.3-0.1-0.6,0.1-0.9,0.3c-0.3,0.2-0.6,0.5-0.7,0.8c-0.1,0.2-0.2,0.3-0.3,0.5c-0.3,0.7-0.5,1.5-0.7,2.3c-0.2,0.9-0.2,1.8-0.2,2.7
		c0,0.4,0,1.4,0.1,2.7c0.1,0.5,0.1,1,0.2,1.4c0.2,0.8,0.6,1.6,1.1,2.4c0.2,0.3,0.5,0.6,0.8,0.8c0.2,0.1,0.9,0.1,1.1,0.1
		c0.1,0,0.2-0.1,0.3-0.1c0.3-0.2,0.5-0.6,0.5-1c0-0.3,0-0.7,0-1.1c0-0.2,0.1-0.4,0.3-0.5c0.2-0.1,0.4-0.2,0.6-0.2c0.3,0,0.6,0,0.9,0
		c0.2,0,0.4,0.2,0.4,0.4c0.1,0.6,0.1,1.2,0,1.8c0,0.3-0.1,0.6-0.3,0.9c-0.2,0.3-0.4,0.7-0.6,0.9c-0.1,0.1-0.2,0.2-0.4,0.2
		c-0.1,0-0.2,0.1-0.2,0.2c-0.1,0.2-0.2,0.3-0.3,0.4c-0.2,0.1-0.5,0.2-0.7,0.2C65.6,236.3,64.7,236.3,64.3,236.2z"/>
	<path class="st2" d="M72,234.4c-0.6-1-1-2-1.3-3.1c-0.2-0.7-0.4-1.4-0.5-2.1c0-0.2-0.1-0.3-0.1-0.5c0-0.3-0.1-0.5-0.1-0.8
		c-0.1-0.2-0.1-0.4-0.1-0.6c-0.1-1.1-0.1-2.3,0-3.4c0-0.2,0-0.3,0.1-0.5s0.1-0.4,0.1-0.6c0.1-1.1,0.5-2.1,1.1-3
		c0.6-1,1.5-1.6,2.7-1.9l0.4-0.1c0.7-0.1,1.3,0,2,0c0.3,0,0.6,0.1,0.9,0.2c0.4,0.2,0.7,0.5,1,0.9c0.2,0.3,0.3,0.5,0.4,0.8
		c0.3,0.8,0.6,1.6,0.8,2.5c0.1,0.5,0.3,1.5,0.3,1.9c0,0.4,0,0.8,0.1,1.2v0.8c0,0.7,0,1.5-0.1,2.2c0,0.2,0,0.3-0.1,0.5
		c-0.1,0.2-0.1,0.5-0.1,0.7c0,0.2,0,0.3-0.1,0.4c-0.1,0.2-0.1,0.5-0.1,0.7c0,0.5-0.2,1.9-0.4,2.3c-0.1,0.2-0.1,0.4-0.2,0.6
		c-0.3,0.8-0.8,1.5-1.6,2c-0.4,0.3-0.8,0.5-1.2,0.6c-0.5,0.1-1,0.1-1.5,0C73.4,236,72.6,235.4,72,234.4z M75.7,233.9
		c0.4-0.2,0.7-0.5,0.9-1c0.1-0.3,0.3-0.6,0.3-1c0.1-0.5,0.2-1,0.2-1.5c0-0.1,0-0.2,0.1-0.2c0.1-0.2,0.1-0.5,0.1-0.7
		c0-0.3,0-0.7,0.1-1c0.1-0.3,0.1-0.6,0.1-1c0-0.5,0-0.9,0.1-1.6c0-0.3,0-0.9-0.1-1.4c0-0.3-0.1-0.6-0.1-1c-0.1-0.6-0.2-1.2-0.4-1.9
		c-0.1-0.4-0.3-0.8-0.5-1.3c-0.1-0.2-0.2-0.3-0.4-0.3c-0.5-0.1-1.1-0.1-1.6,0c-0.3,0.1-0.6,0.2-0.8,0.3c-0.4,0.3-0.7,0.7-0.9,1.2
		c-0.1,0.2-0.2,0.5-0.2,0.7c-0.2,0.8-0.3,1.6-0.3,2.4c0,0.3,0,0.6,0,0.9c0,0.7,0,1.5,0.2,2.1c0,0.2,0,0.3,0,0.5c0,0.1,0,0.3,0.1,0.4
		c0.1,0.7,0.3,1.4,0.5,2.1c0.2,0.8,0.5,1.5,0.9,2.2c0.1,0.3,0.3,0.5,0.5,0.7c0.3,0.2,0.5,0.3,0.9,0.4C75.3,234,75.5,234,75.7,233.9z
		"/>
	<path class="st2" d="M83.3,236c-0.4-0.1-0.8-0.3-1.1-0.5c-0.2-0.1-0.3-0.3-0.3-0.5v-1c0-1,0-2.4,0-3.4c0-0.5,0-1-0.1-1.5
		c-0.1-0.5,0-1-0.1-1.6c0-0.3,0.2-0.6,0-0.9c0-0.3-0.1-0.6-0.1-0.8c0-0.1,0-0.2,0-0.3c0-0.7-0.1-1.4,0-2.2c0-0.1,0-0.2-0.1-0.3
		c-0.1-0.2-0.1-0.3-0.1-0.5v-3.1c0-0.1,0-0.1,0-0.2c0-0.1,0.1-0.3,0.2-0.4c0.1-0.1,0.1-0.1,0.2-0.1c0.1-0.1,0.3-0.2,0.4-0.3
		c0.2-0.1,0.3-0.1,0.5-0.1c0.4-0.1,0.8-0.2,1.3-0.2c0.2,0,0.5-0.1,0.7,0c0.9,0.1,1.7,0.2,2.5,0.6c0.9,0.3,1.6,0.9,2,1.7
		c0.2,0.4,0.4,0.8,0.5,1.2c0.1,0.1,0.1,0.2,0.1,0.3c0.1,0.3,0,0.7,0.1,1c0.1,0.2,0.1,0.5,0,0.7c-0.1,0.6-0.2,1.2-0.5,1.8
		c-0.4,0.8-0.9,1.4-1.6,1.9c-0.1,0.1-0.2,0.2-0.3,0.3c0,0.3,0.2,0.5,0.3,0.8c0.4,1,1.1,2.4,1.6,3.4c0.2,0.5,0.4,1,0.7,1.4
		c0.2,0.3,0.3,0.7,0.5,1c0.1,0.2,0.1,0.3,0.1,0.5c0,0.2,0.1,0.4,0.2,0.6c0,0.2-0.1,0.4-0.3,0.5l-0.2,0.1c0,0-0.1,0-0.1,0
		c-0.4,0-0.8,0-1.2,0c-0.2,0-0.3-0.1-0.3-0.2l-0.7-1.3c-0.3-0.6-0.5-1.1-0.8-1.7c-0.1-0.2-0.2-0.3-0.1-0.6c0-0.1-0.1-0.2-0.1-0.2
		c-0.1-0.1-0.2-0.2-0.3-0.3c-0.2-0.3-0.3-0.7-0.7-1.5c-0.2-0.5-0.4-1-0.7-1.5c0-0.1-0.1-0.2-0.3-0.2c-0.3,0-0.6,0-1,0
		c-0.1,0-0.2,0.1-0.2,0.2v0.8c0,1.7,0,3.9,0,5.6c0,0.3,0,0.5-0.1,0.8c0,0.2-0.2,0.3-0.4,0.3C83.5,236,83.4,236,83.3,236z
		 M86.1,225.8c0.2-0.1,0.4-0.2,0.5-0.3c0.7-0.5,1.1-1.1,1.1-2c0-0.1,0-0.2,0-0.4c0-0.2,0-0.5,0-0.7c-0.1-0.5-0.3-0.9-0.6-1.3
		c-0.2-0.2-0.5-0.4-0.8-0.5c-0.4-0.1-0.9-0.2-1.4-0.3c-0.3-0.1-0.7,0-1,0.1c-0.1,0-0.2,0.1-0.2,0.2c0,0.5,0,1,0,1.6
		c0.1,0.4,0.1,0.8,0.1,1.2c0,0.4,0,0.7,0,1.1c0.1,0.5,0.1,1,0.1,1.5c0,0.1,0.1,0.1,0.2,0.2c0.2,0.1,0.4,0.1,0.6,0.1
		C85.3,226.1,85.7,226,86.1,225.8z"/>
	<path class="st2" d="M93.4,235.8c-0.2-0.1-0.4-0.2-0.6-0.3c-0.1-0.1-0.1-0.2-0.1-0.2c0-0.1,0-0.3,0.1-0.4c0.1-0.2,0.1-0.4,0.1-0.6
		s0-0.5,0.1-0.7c0.1-0.1,0.1-0.2,0.1-0.3v-1c0-2.5,0-5,0-7.5c0-0.3,0-0.7,0-1c0-0.1,0-0.2,0-0.3c-0.2-0.9-0.1-1.8-0.1-2.6
		c0-0.7,0-1.3,0-2c0-0.1,0-0.2,0-0.3c0-0.2,0.2-0.3,0.3-0.4c0.1,0,0.1,0,0.2,0c0.3-0.1,0.7,0,1-0.2c0.7-0.1,1.3-0.1,2,0
		c0.8,0.2,1.5,0.5,2.1,1c0.5,0.5,0.9,1,1.2,1.6l0.4,0.7c0.3,0.6,0.5,1.3,0.7,2c0,0.5,0.2,1,0.3,1.5l0.1,0.4c0,0.1,0,0.3,0,0.4
		c0.2,0.7,0.1,1.3,0.1,2v0.5c0,0.5,0,0.9-0.1,1.4c-0.1,0.7-0.3,1.4-0.5,2.1c-0.2,0.7-0.6,1.4-1,2.1c-0.3,0.5-0.7,1-1.2,1.4
		c-0.2,0.2-0.5,0.3-0.7,0.5c-0.7,0.4-1.4,0.5-2.1,0.6c-0.3,0-0.7,0-1,0C94.1,236,93.8,235.9,93.4,235.8z M95.9,233.7
		c0.5-0.1,0.8-0.3,1.2-0.6c0.5-0.5,0.9-1.1,1.2-1.8c0.2-0.6,0.4-1.1,0.5-1.7c0.1-0.6,0.3-1.2,0.2-1.7c0-0.5,0-0.8,0-1.1
		c-0.1-0.7-0.2-1.5-0.3-2.2l-0.2-1c-0.2-0.7-0.5-1.4-0.8-2c-0.2-0.3-0.4-0.6-0.7-0.9c-0.2-0.2-0.5-0.3-0.7-0.4
		c-0.3-0.1-0.6-0.1-1-0.1c-0.1,0-0.1,0.1-0.2,0.2v0.1c0,0.7,0,1.5,0.1,2.3c0.1,0.5,0.1,1,0.1,1.6c0,2.6,0,5.1,0,7.7
		c0,0.2,0,0.4,0,0.6c-0.1,0.4,0,0.7,0.1,1.1c0,0.1,0.1,0.2,0.2,0.2C95.6,233.8,95.8,233.7,95.9,233.7z"/>
	<path class="st2" d="M104.9,234.4c-0.6-1-1-2-1.3-3.1c-0.2-0.7-0.4-1.4-0.5-2.1c0-0.2-0.1-0.3-0.1-0.5c0-0.3-0.1-0.5-0.1-0.8
		c-0.1-0.2-0.1-0.4-0.1-0.6c-0.1-1.1-0.1-2.3,0-3.4c0-0.2,0-0.3,0.1-0.5s0.1-0.4,0.1-0.6c0.1-1.1,0.5-2.1,1.1-3
		c0.6-1,1.5-1.6,2.7-1.9l0.4-0.1c0.7-0.1,1.3,0,2,0c0.3,0,0.6,0.1,0.9,0.2c0.4,0.2,0.7,0.5,1,0.9c0.2,0.3,0.3,0.5,0.4,0.8
		c0.3,0.8,0.6,1.6,0.8,2.5c0.1,0.5,0.3,1.5,0.3,1.9c0,0.4,0,0.8,0.1,1.2v0.8c0,0.7,0,1.5-0.1,2.2c0,0.2,0,0.3-0.1,0.5
		c-0.1,0.2-0.1,0.5-0.1,0.7c0,0.2,0,0.3-0.1,0.4c-0.1,0.2-0.1,0.5-0.1,0.7c0,0.5-0.2,1.9-0.4,2.3c-0.1,0.2-0.1,0.4-0.2,0.6
		c-0.3,0.8-0.8,1.5-1.6,2c-0.4,0.3-0.8,0.5-1.2,0.6c-0.5,0.1-1,0.1-1.5,0C106.3,236,105.4,235.4,104.9,234.4z M108.5,233.9
		c0.4-0.2,0.7-0.5,0.9-1c0.1-0.3,0.3-0.6,0.3-1c0.1-0.5,0.2-1,0.2-1.5c0-0.1,0-0.2,0.1-0.2c0.1-0.2,0.1-0.5,0.1-0.7
		c0-0.3,0-0.7,0.1-1c0.1-0.3,0.1-0.6,0.1-1c0-0.5,0-0.9,0.1-1.6c0-0.3,0-0.9-0.1-1.4c0-0.3-0.1-0.6-0.1-1c-0.1-0.6-0.2-1.2-0.4-1.9
		c-0.1-0.4-0.3-0.8-0.5-1.3c-0.1-0.2-0.2-0.3-0.4-0.3c-0.5-0.1-1.1-0.1-1.6,0c-0.3,0.1-0.6,0.2-0.8,0.3c-0.4,0.3-0.7,0.7-0.9,1.2
		c-0.1,0.2-0.2,0.5-0.2,0.7c-0.2,0.8-0.3,1.6-0.3,2.4c0,0.3,0,0.6,0,0.9c0,0.7,0,1.5,0.2,2.1c0,0.2,0,0.3,0,0.5c0,0.1,0,0.3,0.1,0.4
		c0.1,0.7,0.3,1.4,0.5,2.1c0.2,0.8,0.5,1.5,0.9,2.2c0.1,0.3,0.3,0.5,0.5,0.7c0.3,0.2,0.5,0.3,0.9,0.4
		C108.2,234,108.4,234,108.5,233.9z"/>
	<path class="st2" d="M122.4,235.6l-0.5-1c-0.5-1-0.9-2-1.3-2.9l-0.1-0.2c-0.8-1.8-1.7-4.1-2.5-5.8c-0.4-0.8-0.6-1.6-1-2.4
		c0-0.1-0.1-0.1-0.1-0.1c0,0-0.1,0.1-0.1,0.1c0,0.8,0.1,1.6,0.1,2.3c0,0.6,0.1,1.1,0,1.6c-0.1,0.3-0.1,1-0.1,1.3v3.6
		c0,0.2,0,0.5,0,0.7c0,0.2,0,0.3,0.1,0.5c0,0.1,0.1,0.2,0.1,0.3v1.5c0,0.2-0.1,0.3-0.2,0.4c-0.2,0.1-0.3,0.2-0.6,0.2h-1
		c-0.1,0-0.3-0.1-0.4-0.2c-0.1-0.1-0.2-0.2-0.2-0.4c0-0.2,0-0.4,0-0.6v-5.9c0,0,0,0,0,0l-0.1-6.3c0-0.4,0-0.7-0.1-1.1
		c-0.1-0.7-0.1-1.4-0.1-2.1c0-0.1,0-0.1,0-0.2c0-0.2,0.1-0.3,0.3-0.4c0.1-0.1,0.2-0.1,0.3-0.1c0.3,0,0.6-0.1,0.8-0.2
		c0.1,0,0.2,0,0.3,0c0.1,0,0.3,0,0.4,0.1c0.3,0.4,0.5,0.8,0.8,1.3c0.4,0.7,0.7,1.5,1.1,2.2c0.2,0.5,0.3,1,0.5,1.4
		c0.2,0.5,0.4,0.9,0.6,1.4c0.6,1.2,1.3,3,1.8,4.2c0.3,0.6,0.5,1.2,0.8,1.7c0,0.1,0.1,0.1,0.2,0.2l0.1,0c0.1-0.3,0-0.6,0-1
		c-0.1-0.3-0.1-0.7-0.1-1l-0.1-6.5c0-0.3,0-1.4-0.1-1.7c-0.1-0.7-0.1-1.3-0.1-2c0-0.1,0.1-0.2,0.2-0.3c0.3-0.1,0.7-0.2,1.1-0.2
		c0.2,0,0.4,0.1,0.6,0.2c0.2,0.1,0.3,0.2,0.3,0.5c0,0.4,0.1,0.7,0.1,1c0.1,0.4,0.1,0.9,0.1,1.3l0.1,5.2c0,0.1,0,0.2,0,0.3
		c0.1,0.6,0.1,1.2,0.1,1.8c0,1.1,0,2.3,0.1,3.4c0,0.3,0,0.7,0.1,1c0,0.2,0,0.3,0,0.5c0,0.6,0,1.3,0,1.9c0,0.2-0.1,0.4-0.2,0.6
		c-0.1,0.1-0.2,0.2-0.3,0.2c-0.1,0-0.1,0-0.2,0c-0.2,0-0.4-0.1-0.6-0.1c-0.2,0-0.3,0.1-0.5,0.1C122.8,236.1,122.6,236,122.4,235.6z"
		/>
	<path class="st2" d="M135,235.6l-0.5-1c-0.5-1-0.9-2-1.3-2.9l-0.1-0.2c-0.8-1.8-1.7-4.1-2.5-5.8c-0.4-0.8-0.6-1.6-1-2.4
		c0-0.1-0.1-0.1-0.1-0.1c0,0-0.1,0.1-0.1,0.1c0,0.8,0.1,1.6,0.1,2.3c0,0.6,0.1,1.1,0,1.6c-0.1,0.3-0.1,1-0.1,1.3v3.6
		c0,0.2,0,0.5,0,0.7c0,0.2,0,0.3,0.1,0.5c0,0.1,0.1,0.2,0.1,0.3v1.5c0,0.2-0.1,0.3-0.2,0.4c-0.2,0.1-0.3,0.2-0.6,0.2h-1
		c-0.1,0-0.3-0.1-0.4-0.2c-0.1-0.1-0.2-0.2-0.2-0.4c0-0.2,0-0.4,0-0.6v-5.9c0,0,0,0,0,0l-0.1-6.3c0-0.4,0-0.7-0.1-1.1
		c-0.1-0.7-0.1-1.4-0.1-2.1c0-0.1,0-0.1,0-0.2c0-0.2,0.1-0.3,0.3-0.4c0.1-0.1,0.2-0.1,0.3-0.1c0.3,0,0.6-0.1,0.8-0.2
		c0.1,0,0.2,0,0.3,0c0.1,0,0.3,0,0.4,0.1c0.3,0.4,0.5,0.8,0.8,1.3c0.4,0.7,0.7,1.5,1.1,2.2c0.2,0.5,0.3,1,0.5,1.4
		c0.2,0.5,0.4,0.9,0.6,1.4c0.6,1.2,1.3,3,1.8,4.2c0.3,0.6,0.5,1.2,0.8,1.7c0,0.1,0.1,0.1,0.2,0.2l0.1,0c0.1-0.3,0-0.6,0-1
		c-0.1-0.3-0.1-0.7-0.1-1l-0.1-6.5c0-0.3,0-1.4-0.1-1.7c-0.1-0.7-0.1-1.3-0.1-2c0-0.1,0.1-0.2,0.2-0.3c0.3-0.1,0.7-0.2,1.1-0.2
		c0.2,0,0.4,0.1,0.6,0.2c0.2,0.1,0.3,0.2,0.3,0.5c0,0.4,0.1,0.7,0.1,1c0.1,0.4,0.1,0.9,0.1,1.3l0.1,5.2c0,0.1,0,0.2,0,0.3
		c0.1,0.6,0.1,1.2,0.1,1.8c0,1.1,0,2.3,0.1,3.4c0,0.3,0,0.7,0.1,1c0,0.2,0,0.3,0,0.5c0,0.6,0,1.3,0,1.9c0,0.2-0.1,0.4-0.2,0.6
		c-0.1,0.1-0.2,0.2-0.3,0.2c-0.1,0-0.1,0-0.2,0c-0.2,0-0.4-0.1-0.6-0.1c-0.2,0-0.3,0.1-0.5,0.1C135.4,236.1,135.1,236,135,235.6z"/>
	<path class="st2" d="M140.6,236c-0.1-0.2-0.3-0.3-0.4-0.3c-0.1,0-0.2-0.1-0.3-0.1c-0.1,0-0.2-0.1-0.2-0.2c-0.1-0.2-0.1-0.5-0.1-0.7
		c0-0.4,0-0.8,0-1.2c0-1,0-1.9,0-2.9c0-0.2,0-0.5,0.1-0.8c0-0.1,0-0.2,0-0.3c0-1.5,0-3,0-4.5c0-0.1,0-0.2,0-0.3
		c-0.1-0.5-0.1-1-0.1-1.5c0-1,0-1.9,0-2.9c0-0.2,0-0.3,0-0.5c0-0.2,0.2-0.4,0.2-0.7c0-0.2,0-0.4,0-0.6c0-0.2,0.2-0.3,0.3-0.3
		c0.2,0,0.4-0.1,0.6-0.1c0.5,0,1,0,1.5-0.1c0.1,0,0.2,0,0.3,0c1.2,0,2.3-0.1,3.5-0.1c0.2,0,0.3,0,0.5,0c0.1,0,0.2,0.1,0.3,0.2
		c0.1,0.1,0.1,0.2,0.1,0.3c0,0.3,0.1,0.7,0.2,1c0,0.1,0,0.2,0,0.3c0,0.1-0.1,0.1-0.1,0.2c-0.5,0.2-1,0.3-1.6,0.1
		c-0.1-0.1-0.2,0-0.3,0c-0.2,0.1-0.3,0.1-0.5,0.1c-0.6,0-1.2,0-1.7,0c-0.3,0-0.6,0.1-0.8,0.1c-0.1,0-0.2,0.2-0.2,0.3
		c0,0.9,0,1.8,0,2.7c0,0.5,0.1,0.9,0.1,1.3c0,0.1,0.1,0.1,0.1,0.1l0.3,0c0.6,0,1.1-0.1,1.6-0.1h0.5c0.2,0,0.3,0.1,0.3,0.3
		c0.2,0.4,0.3,0.8,0.2,1.2c0,0.1-0.1,0.2-0.1,0.3c-0.1,0.2-0.2,0.3-0.4,0.3c-0.2,0-0.3,0.1-0.4,0.1c-0.6,0-1.1,0.1-1.6,0.1l-0.3,0.1
		c-0.1,0-0.2,0.2-0.2,0.2c0,0.2,0,0.4,0,0.6c0,0.7,0,1.4-0.1,2.2c0,0.4,0.1,0.7,0,1.1s0,0.7,0,1.1c0,0.4,0,0.8,0,1.1
		c0,0.1,0,0.2,0,0.3c0,0.1,0.1,0.2,0.3,0.2h0.1c0.8,0,1.6-0.1,2.4-0.1c0.3,0,0.6,0,0.9-0.1c0.3-0.1,0.6,0,0.8,0.1
		c0.1,0.1,0.2,0.1,0.2,0.2c0.1,0.5,0.1,1-0.1,1.5c-0.1,0.2-0.2,0.4-0.4,0.4c-0.2,0-0.3,0.1-0.5,0.1c-0.7,0-1.4,0-2.1,0.1
		c-0.2,0-0.5,0-0.7-0.1c-0.3,0.2-0.7,0.3-1.1,0.3c-0.2,0-0.3,0-0.5,0C140.9,236.3,140.7,236.2,140.6,236z"/>
	<path class="st2" d="M150.4,236c-0.4-0.1-0.8-0.3-1.1-0.5c-0.2-0.1-0.3-0.3-0.3-0.5v-1c0-1,0-2.4,0-3.4c0-0.5,0-1-0.1-1.5
		c-0.1-0.5,0-1-0.1-1.6c0-0.3,0.2-0.6,0-0.9c0-0.3-0.1-0.6-0.1-0.8c0-0.1,0-0.2,0-0.3c0-0.7-0.1-1.4,0-2.2c0-0.1,0-0.2-0.1-0.3
		c-0.1-0.2-0.1-0.3-0.1-0.5v-3.1c0-0.1,0-0.1,0-0.2c0-0.1,0.1-0.3,0.2-0.4c0.1-0.1,0.1-0.1,0.2-0.1c0.1-0.1,0.3-0.2,0.4-0.3
		c0.2-0.1,0.3-0.1,0.5-0.1c0.4-0.1,0.8-0.2,1.3-0.2c0.2,0,0.5-0.1,0.7,0c0.9,0.1,1.7,0.2,2.5,0.6c0.9,0.3,1.6,0.9,2,1.7
		c0.2,0.4,0.4,0.8,0.5,1.2c0.1,0.1,0.1,0.2,0.1,0.3c0.1,0.3,0,0.7,0.1,1c0.1,0.2,0.1,0.5,0,0.7c-0.1,0.6-0.2,1.2-0.5,1.8
		c-0.4,0.8-0.9,1.4-1.6,1.9c-0.1,0.1-0.2,0.2-0.3,0.3c0,0.3,0.2,0.5,0.3,0.8c0.4,1,1.1,2.4,1.6,3.4c0.2,0.5,0.4,1,0.7,1.4
		c0.2,0.3,0.3,0.7,0.5,1c0.1,0.2,0.1,0.3,0.1,0.5c0,0.2,0.1,0.4,0.2,0.6c0,0.2-0.1,0.4-0.3,0.5l-0.2,0.1c0,0-0.1,0-0.1,0
		c-0.4,0-0.8,0-1.2,0c-0.2,0-0.3-0.1-0.3-0.2l-0.7-1.3c-0.3-0.6-0.5-1.1-0.8-1.7c-0.1-0.2-0.2-0.3-0.1-0.6c0-0.1-0.1-0.2-0.1-0.2
		c-0.1-0.1-0.2-0.2-0.3-0.3c-0.2-0.3-0.3-0.7-0.7-1.5c-0.2-0.5-0.4-1-0.7-1.5c0-0.1-0.1-0.2-0.3-0.2c-0.3,0-0.6,0-1,0
		c-0.1,0-0.2,0.1-0.2,0.2v0.8c0,1.7,0,3.9,0,5.6c0,0.3,0,0.5-0.1,0.8c0,0.2-0.2,0.3-0.4,0.3C150.6,236,150.5,236,150.4,236z
		 M153.3,225.8c0.2-0.1,0.4-0.2,0.5-0.3c0.7-0.5,1.1-1.1,1.1-2c0-0.1,0-0.2,0-0.4c0-0.2,0-0.5,0-0.7c-0.1-0.5-0.3-0.9-0.6-1.3
		c-0.2-0.2-0.5-0.4-0.8-0.5c-0.4-0.1-0.9-0.2-1.4-0.3c-0.3-0.1-0.7,0-1,0.1c-0.1,0-0.2,0.1-0.2,0.2c0,0.5,0,1,0,1.6
		c0.1,0.4,0.1,0.8,0.1,1.2c0,0.4,0,0.7,0,1.1c0.1,0.5,0.1,1,0.1,1.5c0,0.1,0.1,0.1,0.2,0.2c0.2,0.1,0.4,0.1,0.6,0.1
		C152.4,226.1,152.8,226,153.3,225.8z"/>
	<path class="st2" d="M160.8,236c-0.2,0-0.3-0.1-0.5-0.2c-0.1-0.1-0.2-0.2-0.2-0.3c0-0.1,0-0.2,0-0.3c0-0.4,0-0.8-0.1-1.2
		c0-0.2,0-0.3,0-0.5c0-1,0-1.9,0-2.9c0-0.9,0-1.9,0-2.8c0-0.4,0-0.7-0.1-1.1c-0.1-0.2,0-0.5,0-0.7c0-1.8,0-4.4-0.1-6.3v-1
		c0-0.1,0.1-0.2,0.2-0.3c0.1-0.1,0.2-0.1,0.4-0.2c0.4-0.1,0.8-0.1,1.2,0c0.2,0.1,0.4,0.3,0.4,0.6c0,0.2,0,0.3,0,0.5v3.3h0v2.3
		c0,0.4,0,0.7,0.1,1.1c0,0.2,0,0.4,0,0.6c0,1.8,0,3.6,0,5.5c0,0.5,0.1,1,0.1,1.6c0.1,0.6,0.1,1.3,0,1.9c0,0,0,0.1,0,0.1
		c0,0.1-0.2,0.2-0.2,0.2C161.7,236.1,161.2,236.1,160.8,236z"/>
	<path class="st2" d="M165.5,236c-0.1-0.2-0.3-0.3-0.4-0.3c-0.1,0-0.2-0.1-0.3-0.1c-0.1,0-0.2-0.1-0.2-0.2c-0.1-0.2-0.1-0.5-0.1-0.7
		c0-0.4,0-0.8,0-1.2c0-1,0-1.9,0-2.9c0-0.2,0-0.5,0.1-0.8c0-0.1,0-0.2,0-0.3c0-1.5,0-3,0-4.5c0-0.1,0-0.2,0-0.3
		c-0.1-0.5-0.1-1-0.1-1.5c0-1,0-1.9,0-2.9c0-0.2,0-0.3,0-0.5c0-0.2,0.2-0.4,0.2-0.7c0-0.2,0-0.4,0-0.6c0-0.2,0.2-0.3,0.3-0.3
		c0.2,0,0.4-0.1,0.6-0.1c0.5,0,1,0,1.5-0.1c0.1,0,0.2,0,0.3,0c1.2,0,2.3-0.1,3.5-0.1c0.2,0,0.3,0,0.5,0c0.1,0,0.2,0.1,0.3,0.2
		c0.1,0.1,0.1,0.2,0.1,0.3c0,0.3,0.1,0.7,0.2,1c0,0.1,0,0.2,0,0.3c0,0.1-0.1,0.1-0.1,0.2c-0.5,0.2-1,0.3-1.6,0.1
		c-0.1-0.1-0.2,0-0.3,0c-0.2,0.1-0.3,0.1-0.5,0.1c-0.6,0-1.2,0-1.7,0c-0.3,0-0.6,0.1-0.8,0.1c-0.1,0-0.2,0.2-0.2,0.3
		c0,0.9,0,1.8,0,2.7c0,0.5,0.1,0.9,0.1,1.3c0,0.1,0.1,0.1,0.1,0.1l0.3,0c0.6,0,1.1-0.1,1.6-0.1h0.5c0.2,0,0.3,0.1,0.3,0.3
		c0.2,0.4,0.3,0.8,0.2,1.2c0,0.1-0.1,0.2-0.1,0.3c-0.1,0.2-0.2,0.3-0.4,0.3c-0.2,0-0.3,0.1-0.4,0.1c-0.6,0-1.1,0.1-1.6,0.1l-0.3,0.1
		c-0.1,0-0.2,0.2-0.2,0.2c0,0.2,0,0.4,0,0.6c0,0.7,0,1.4-0.1,2.2c0,0.4,0.1,0.7,0,1.1s0,0.7,0,1.1c0,0.4,0,0.8,0,1.1
		c0,0.1,0,0.2,0,0.3c0,0.1,0.1,0.2,0.3,0.2h0.1c0.8,0,1.6-0.1,2.4-0.1c0.3,0,0.6,0,0.9-0.1c0.3-0.1,0.6,0,0.8,0.1
		c0.1,0.1,0.2,0.1,0.2,0.2c0.1,0.5,0.1,1-0.1,1.5c-0.1,0.2-0.2,0.4-0.4,0.4c-0.2,0-0.3,0.1-0.5,0.1c-0.7,0-1.4,0-2.1,0.1
		c-0.2,0-0.5,0-0.7-0.1c-0.3,0.2-0.7,0.3-1.1,0.3c-0.2,0-0.3,0-0.5,0C165.8,236.3,165.6,236.2,165.5,236z"/>
	<path class="st2" d="M174.3,236.9c-0.1-0.1-0.2-0.1-0.3-0.2c-0.2-0.2-0.3-0.4-0.4-0.6c0-0.1,0-0.2,0-0.3c0.1-0.7,0.8-1.2,1.5-1
		c0.1,0,0.2,0.1,0.3,0.2c0.1,0.2,0.2,0.4,0.3,0.6c0.1,0.2,0.1,0.5,0.1,0.8c0,0,0,0.1,0,0.1c0,0.7-0.3,1.2-0.7,1.8
		c-0.1,0.2-0.3,0.2-0.5,0.1c-0.2-0.1-0.4-0.3-0.5-0.5C174,237.5,174.3,237.3,174.3,236.9z"/>
	<path class="st2" d="M187.3,236.2c-0.1,0-0.2,0-0.2-0.1c-0.5-0.2-1-0.4-1.4-0.7c-0.5-0.5-1-1.1-1.3-1.7c-0.5-0.9-0.9-1.9-1.2-3
		c-0.1-0.6-0.2-1.3-0.2-2c0-1-0.1-1.5-0.1-2.5c0-0.2,0.1-1,0.1-1.2c0-0.9,0.2-1.9,0.4-2.8l0.4-1.2c0.3-0.8,0.7-1.5,1.2-2.1
		c0.1-0.1,0.2-0.2,0.3-0.3c0.3-0.2,0.6-0.5,0.9-0.6c0.4-0.2,0.7-0.3,1.2-0.3c0.3,0,0.6,0,0.8,0c0.6,0,1.1,0.2,1.6,0.6
		c0.5,0.3,0.8,0.8,1,1.3c0.1,0.4,0.2,0.7,0.2,1.1c0,0.5,0,1,0,1.6c0,0.3-0.2,0.4-0.4,0.5c-0.1,0-0.1,0-0.2,0c-0.3,0.1-0.7,0.1-1,0
		c-0.2,0-0.3-0.1-0.4-0.2c-0.1-0.1-0.2-0.2-0.2-0.4c0-0.2,0-0.4,0-0.6c0-0.3,0-0.6-0.1-1c0-0.3-0.3-0.6-0.7-0.7c-0.1,0-0.2,0-0.3,0
		c-0.3-0.1-0.6,0.1-0.9,0.3c-0.3,0.2-0.6,0.5-0.7,0.8c-0.1,0.2-0.2,0.3-0.3,0.5c-0.3,0.7-0.5,1.5-0.7,2.3c-0.2,0.9-0.2,1.8-0.2,2.7
		c0,0.4,0,1.4,0.1,2.7c0.1,0.5,0.1,1,0.2,1.4c0.2,0.8,0.6,1.6,1.1,2.4c0.2,0.3,0.5,0.6,0.8,0.8c0.2,0.1,0.9,0.1,1.1,0.1
		c0.1,0,0.2-0.1,0.3-0.1c0.3-0.2,0.5-0.6,0.5-1c0-0.3,0-0.7,0-1.1c0-0.2,0.1-0.4,0.3-0.5c0.2-0.1,0.4-0.2,0.6-0.2c0.3,0,0.6,0,0.9,0
		c0.2,0,0.4,0.2,0.4,0.4c0.1,0.6,0.1,1.2,0,1.8c0,0.3-0.1,0.6-0.3,0.9c-0.2,0.3-0.4,0.7-0.6,0.9c-0.1,0.1-0.2,0.2-0.4,0.2
		c-0.1,0-0.2,0.1-0.2,0.2c-0.1,0.2-0.2,0.3-0.3,0.4c-0.2,0.1-0.5,0.2-0.7,0.2C188.6,236.3,187.7,236.3,187.3,236.2z"/>
	<path class="st2" d="M195,234.4c-0.6-1-1-2-1.3-3.1c-0.2-0.7-0.4-1.4-0.5-2.1c0-0.2-0.1-0.3-0.1-0.5c0-0.3-0.1-0.5-0.1-0.8
		c-0.1-0.2-0.1-0.4-0.1-0.6c-0.1-1.1-0.1-2.3,0-3.4c0-0.2,0-0.3,0.1-0.5c0-0.2,0.1-0.4,0.1-0.6c0.1-1.1,0.5-2.1,1.1-3
		c0.6-1,1.5-1.6,2.7-1.9l0.4-0.1c0.7-0.1,1.3,0,2,0c0.3,0,0.6,0.1,0.9,0.2c0.4,0.2,0.7,0.5,1,0.9c0.2,0.3,0.3,0.5,0.4,0.8
		c0.3,0.8,0.6,1.6,0.8,2.5c0.1,0.5,0.3,1.5,0.3,1.9c0,0.4,0,0.8,0.1,1.2v0.8c0,0.7,0,1.5-0.1,2.2c0,0.2,0,0.3-0.1,0.5
		c-0.1,0.2-0.1,0.5-0.1,0.7c0,0.2,0,0.3-0.1,0.4c-0.1,0.2-0.1,0.5-0.1,0.7c0,0.5-0.2,1.9-0.4,2.3c-0.1,0.2-0.1,0.4-0.2,0.6
		c-0.3,0.8-0.8,1.5-1.6,2c-0.4,0.3-0.8,0.5-1.2,0.6c-0.5,0.1-1,0.1-1.5,0C196.4,236,195.6,235.4,195,234.4z M198.7,233.9
		c0.4-0.2,0.7-0.5,0.9-1c0.1-0.3,0.3-0.6,0.3-1c0.1-0.5,0.2-1,0.2-1.5c0-0.1,0-0.2,0.1-0.2c0.1-0.2,0.1-0.5,0.1-0.7
		c0-0.3,0-0.7,0.1-1c0.1-0.3,0.1-0.6,0.1-1c0-0.5,0-0.9,0.1-1.6c0-0.3,0-0.9-0.1-1.4c0-0.3-0.1-0.6-0.1-1c-0.1-0.6-0.2-1.2-0.4-1.9
		c-0.1-0.4-0.3-0.8-0.5-1.3c-0.1-0.2-0.2-0.3-0.4-0.3c-0.5-0.1-1.1-0.1-1.6,0c-0.3,0.1-0.6,0.2-0.8,0.3c-0.4,0.3-0.7,0.7-0.9,1.2
		c-0.1,0.2-0.2,0.5-0.2,0.7c-0.2,0.8-0.3,1.6-0.3,2.4c0,0.3,0,0.6,0,0.9c0,0.7,0,1.5,0.2,2.1c0,0.2,0,0.3,0,0.5c0,0.1,0,0.3,0.1,0.4
		c0.1,0.7,0.3,1.4,0.5,2.1c0.2,0.8,0.5,1.5,0.9,2.2c0.1,0.3,0.3,0.5,0.5,0.7c0.3,0.2,0.5,0.3,0.9,0.4
		C198.3,234,198.5,234,198.7,233.9z"/>
	<path class="st2" d="M205.3,235.9c-0.1-0.1-0.2-0.2-0.3-0.3l-0.1-0.2c-0.1-0.5-0.2-0.9-0.2-1.4c0-0.7,0-1.4-0.1-2.1
		c0.1-0.3,0-0.6-0.1-0.8c0-0.2,0-0.3,0-0.5c0-1.1,0-2.1,0-3.2v-0.2c0.2-1.2,0.1-2.4,0.1-3.5c0-0.5,0-0.9,0-1.4c0-0.4,0-0.8,0.1-1.1
		c0.1-0.4,0.1-0.8,0.1-1.2c0-0.5,0.1-1,0.2-1.4c0-0.1,0.1-0.1,0.2-0.2c0.3-0.1,0.7-0.2,1-0.1c0.2,0,0.4,0,0.6,0.1
		c0.2,0.1,0.4,0.2,0.4,0.4c0,0.2,0,0.4,0,0.6c-0.1,0.5-0.1,1-0.1,1.5c0,0.4,0,0.7-0.1,1.1c0,0.4,0,0.8,0,1.2c0,1.2,0,2.5,0.1,3.7
		c0,0.3,0,0.6-0.1,0.9c0,0.1,0,0.2,0,0.3c0,0.7,0,1.5,0,2.3c0,0.4,0,0.7,0.1,1.1c0.1,0.5,0.1,1,0.1,1.5c0,0.2,0,0.4,0,0.5
		c0,0.1,0.1,0.1,0.1,0.1c0.1,0,0.2,0.1,0.2,0.1c0.3,0,0.6,0,1,0c0.5,0,1-0.1,1.6-0.1c0.7-0.1,1.3-0.1,2-0.1c0.2,0,0.3,0.1,0.4,0.3
		c0,0,0,0.1,0,0.1c0.2,0.5,0.2,1,0.1,1.5c-0.1,0.2-0.2,0.3-0.4,0.3c-0.1,0-0.2,0.1-0.3,0.1c-0.3,0-0.6,0-1,0.1c-0.2,0-0.3,0-0.5,0
		c-0.6,0.1-1.2,0.1-1.8,0.1c-0.7,0-1.3,0-2,0.1C206.2,236.1,205.7,236.1,205.3,235.9z"/>
	<path class="st2" d="M214.9,236c-0.2,0-0.3-0.1-0.5-0.2c-0.1-0.1-0.2-0.2-0.2-0.3c0-0.1,0-0.2,0-0.3c0-0.4,0-0.8-0.1-1.2
		c0-0.2,0-0.3,0-0.5c0-1,0-1.9,0-2.9c0-0.9,0-1.9,0-2.8c0-0.4,0-0.7-0.1-1.1c-0.1-0.2,0-0.5,0-0.7c0-1.8,0-4.4-0.1-6.3v-1
		c0-0.1,0.1-0.2,0.2-0.3c0.1-0.1,0.2-0.1,0.4-0.2c0.4-0.1,0.8-0.1,1.2,0c0.2,0.1,0.4,0.3,0.4,0.6c0,0.2,0,0.3,0,0.5v3.3h0v2.3
		c0,0.4,0,0.7,0.1,1.1c0,0.2,0,0.4,0,0.6c0,1.8,0,3.6,0,5.5c0,0.5,0.1,1,0.1,1.6c0.1,0.6,0.1,1.3,0,1.9c0,0,0,0.1,0,0.1
		c0,0.1-0.2,0.2-0.2,0.2C215.7,236.1,215.3,236.1,214.9,236z"/>
	<path class="st2" d="M221,236.1c-0.6-0.2-1.1-0.5-1.6-0.9c-0.2-0.1-0.3-0.3-0.5-0.5c-0.6-0.8-1-1.8-1.2-2.8c0-0.3,0-0.6,0-0.8
		c0.1-0.3,0.1-0.6,0.1-0.8c0-0.1,0.1-0.3,0.2-0.3c0.1-0.1,0.2-0.1,0.3-0.1c0.4,0,0.8,0,1.2-0.1c0,0,0.1,0,0.1,0
		c0.1,0,0.2,0.1,0.2,0.2c0.1,0.2,0.1,0.4,0.1,0.7c0,0.2,0,0.3,0,0.5c-0.1,0.8,0.2,1.6,0.7,2.2c0,0.1,0.1,0.1,0.1,0.1
		c0.6,0.4,1.2,0.7,1.9,0.5c0.3-0.1,0.5-0.1,0.7-0.2c0.3-0.2,0.6-0.4,0.8-0.8c0.1-0.3,0.2-0.6,0.2-0.8c0.1-0.7,0-1.4-0.2-2.1
		c-0.1-0.5-0.3-0.9-0.6-1.3c-0.4-0.7-1-1.3-1.6-2c-0.2-0.2-0.4-0.4-0.7-0.6c-0.3-0.3-0.5-0.5-0.8-0.8c-0.5-0.5-0.9-1.1-1.2-1.7
		c-0.2-0.3-0.2-0.7-0.4-1.1c0-0.1,0-0.1,0-0.2c-0.2-1.7,0.8-3.2,2.3-3.8c0.3-0.1,0.7-0.2,1.1-0.3c0.2,0,0.3,0,0.5-0.1h0.2
		c0.3,0.1,0.6,0.1,1,0.2c0.7,0.2,1.3,0.7,1.7,1.5c0.4,0.8,0.5,1.6,0.4,2.4c0,0.1-0.1,0.3-0.3,0.3c-0.4,0.2-0.7,0.3-1.2,0.2
		c-0.2,0-0.4-0.1-0.6-0.2c-0.1-0.1-0.2-0.2-0.2-0.3c0-0.4,0-0.7-0.1-1.1c0-0.1-0.1-0.2-0.1-0.3c-0.1-0.2-0.3-0.4-0.6-0.4
		c-0.5-0.1-1,0-1.5,0.3c-0.1,0.1-0.2,0.1-0.2,0.2c-0.1,0.1-0.1,0.1-0.1,0.2c-0.2,0.6-0.3,0.7,0.1,1.5c0.1,0.3,0.3,0.6,0.5,0.8
		c0.4,0.5,0.8,0.9,1.3,1.3c0.7,0.6,1.3,1.3,1.8,2c0.1,0.2,0.2,0.3,0.2,0.4c0.5,0.6,0.8,1.3,1,2.1c0.2,0.7,0.4,1.5,0.4,2.3
		c0,0.4-0.1,0.8-0.1,1.1c-0.1,0.8-0.4,1.5-0.9,2.2c-0.4,0.5-0.8,0.8-1.4,1c-0.4,0.2-1,0.3-1.4,0.4
		C222.4,236.3,221.7,236.3,221,236.1z"/>
	<path class="st2" d="M230.3,235.6c0,0.4-0.3,0.9-0.7,1c-0.2,0.1-0.4,0.1-0.6,0.1c-0.4-0.1-0.8-0.4-0.8-0.8c0-0.5,0.2-0.8,0.6-1.1
		c0.2-0.2,0.4-0.2,0.5-0.2c0.2,0,0.3,0.1,0.4,0.2c0.1,0.1,0.1,0.1,0.2,0.2C230.2,235,230.3,235.3,230.3,235.6z M232.7,236.7
		c-0.4,0-0.7-0.2-0.9-0.6c-0.2-0.3-0.2-0.6,0-0.9c0.1-0.2,0.2-0.3,0.3-0.5c0.1-0.1,0.2-0.1,0.3-0.2c0.3-0.1,0.5-0.1,0.7,0.1
		c0.1,0,0.2,0.1,0.3,0.2c0.2,0.3,0.4,0.6,0.3,1c0,0,0,0.1,0,0.1C233.6,236.4,233.2,236.7,232.7,236.7z M236.2,236.8
		c-0.5,0-0.9-0.3-1.1-0.9c0-0.1,0-0.2,0-0.3c0.1-0.2,0.1-0.5,0.3-0.7c0.2-0.2,0.4-0.3,0.6-0.4c0.1,0,0.1,0,0.2,0
		c0.3,0.2,0.6,0.3,0.9,0.6c0.2,0.3,0.3,0.8,0.1,1.1C237.1,236.5,236.8,236.8,236.2,236.8L236.2,236.8z"/>
</g>
<g class="st1">
	<path class="st2" d="M22.5,187.1c-0.6,0-1.5,0-1.9,0c-0.4,0-1.3,0-1.6,0c-0.3,0,0.1-0.5,0.1-0.7c0-0.4,0-0.9,0.3-1.2
		c0.2-0.3,0.4-0.5,0.6-0.8c0.3-0.2,0.5-0.4,0.9-0.4c0.6-0.1,1.2,0,1.8,0.3c0.1,0,0.2,0.1,0.3,0.2c0.2,0.2,0.4,0.4,0.6,0.7
		c0,0.1,0.1,0.1,0.2,0.2c0,0,0.2,0,0.2,0c0.1-0.1,0.1-0.2,0.2-0.4c0.1-0.3,0.3-0.5,0.5-0.7c0.4-0.5,0.9-0.7,1.6-0.8
		c0.3,0,0.6,0,0.9,0.1c0.4,0.2,0.8,0.5,1,0.9c0.1,0.2,0.2,0.3,0.3,0.5c0.1,0.1,0.2,0.1,0.3,0l0.1-0.1c0.3-0.5,0.8-0.9,1.3-1.2
		c0.7-0.4,1.4-0.6,2.2-0.5c0.8,0,1.3,0.4,1.7,1.1c0.1,0.2,0.1,0.4,0.2,0.6c0,0.1,0.2,0.1,0.3,0c0.1-0.1,0.1-0.1,0.2-0.3l0.2-0.3
		c0.6-0.8,1.5-1,2.5-0.9c0.5,0.1,0.8,0.3,1.1,0.7c0.2,0.3,0.3,0.5,0.5,0.8c0.1,0.1,0.1,0.2,0.2,0.3c0,0.1,0.3,0.1,0.3,0.1
		c0.1,0,0.1-0.1,0.2-0.1c0.3-0.2,0.5-0.4,0.7-0.6c0.4-0.3,0.8-0.5,1.3-0.5c0.4,0,0.9-0.1,1.3,0c0.4,0.1,0.8,0.2,1.1,0.5
		c0.2,0.2,0.3,0.4,0.5,0.5c0.1,0.1,0.2,0.2,0.3,0.3s0.2-0.1,0.4-0.2c0.1-0.1,0.2-0.1,0.2-0.3c0.3-0.3,0.6-0.6,0.9-0.8
		c0.5-0.3,1.1-0.6,1.7-0.6c0.1,0,0.3,0,0.4,0c0.5,0,0.9,0.1,1.2,0.5c0.3,0.3,0.5,0.7,0.7,1.1c0.1,0.2,0.1,0.3,0.2,0.4
		c0,0.1,0.2,0.1,0.2,0c0.1,0,0.2-0.1,0.3-0.1c0.3-0.2,0.5-0.3,0.8-0.5c0.6-0.3,1.2-0.5,1.8-0.5c0.5-0.1,0.9,0,1.2,0.3
		c0.2,0.1,0.3,0.2,0.5,0.3c0.2,0.1,0.4,0.3,0.5,0.5c0.1,0.3,0.4,0.5,0.5,0.7c0,0.3,0.1,0.9-0.1,0.9s-1,0-1.2,0c-0.1,0-0.4,0-0.5,0
		h-1.4c-1,0-1.9,0-2.9-0.1c-0.9,0-1.9,0-2.8,0h0c-1-0.1-1.9,0-2.9,0.1c-0.1,0-0.3,0-0.4,0H44c-0.6-0.1-1.2-0.1-2.4,0
		c-2.3,0-6,0.1-9.4,0c-0.3,0-0.5,0-0.7,0h-2.3c-0.6,0-1.3,0-1.9,0C25.7,187.2,24.1,187.1,22.5,187.1z"/>
	<path class="st2" d="M59.6,187.1c-0.6,0-1.5,0-1.9,0c-0.4,0-1.3,0-1.6,0c-0.3,0,0.1-0.5,0.1-0.7c0-0.4,0-0.9,0.3-1.2
		c0.2-0.3,0.4-0.5,0.6-0.8c0.3-0.2,0.5-0.4,0.9-0.4c0.6-0.1,1.2,0,1.8,0.3c0.1,0,0.2,0.1,0.3,0.2c0.2,0.2,0.4,0.4,0.6,0.7
		c0,0.1,0.1,0.1,0.2,0.2c0,0,0.2,0,0.2,0c0.1-0.1,0.1-0.2,0.2-0.4c0.1-0.3,0.3-0.5,0.5-0.7c0.4-0.5,0.9-0.7,1.6-0.8
		c0.3,0,0.6,0,0.9,0.1c0.4,0.2,0.8,0.5,1,0.9c0.1,0.2,0.2,0.3,0.3,0.5c0.1,0.1,0.2,0.1,0.3,0l0.1-0.1c0.3-0.5,0.8-0.9,1.3-1.2
		c0.7-0.4,1.4-0.6,2.2-0.5c0.8,0,1.3,0.4,1.7,1.1c0.1,0.2,0.1,0.4,0.2,0.6c0,0.1,0.2,0.1,0.3,0c0.1-0.1,0.1-0.1,0.2-0.3l0.2-0.3
		c0.6-0.8,1.5-1,2.5-0.9c0.5,0.1,0.8,0.3,1.1,0.7c0.2,0.3,0.3,0.5,0.5,0.8c0.1,0.1,0.1,0.2,0.2,0.3c0,0.1,0.3,0.1,0.3,0.1
		c0.1,0,0.1-0.1,0.2-0.1c0.3-0.2,0.5-0.4,0.7-0.6c0.4-0.3,0.8-0.5,1.3-0.5c0.4,0,0.9-0.1,1.3,0c0.4,0.1,0.8,0.2,1.1,0.5
		c0.2,0.2,0.3,0.4,0.5,0.5c0.1,0.1,0.2,0.2,0.3,0.3s0.2-0.1,0.4-0.2c0.1-0.1,0.2-0.1,0.2-0.3c0.3-0.3,0.6-0.6,0.9-0.8
		c0.5-0.3,1.1-0.6,1.7-0.6c0.1,0,0.3,0,0.4,0c0.5,0,0.9,0.1,1.2,0.5c0.3,0.3,0.5,0.7,0.7,1.1c0.1,0.2,0.1,0.3,0.2,0.4
		c0,0.1,0.2,0.1,0.2,0c0.1,0,0.2-0.1,0.3-0.1c0.3-0.2,0.5-0.3,0.8-0.5c0.6-0.3,1.2-0.5,1.8-0.5c0.5-0.1,0.9,0,1.2,0.3
		c0.2,0.1,0.3,0.2,0.5,0.3c0.2,0.1,0.4,0.3,0.5,0.5c0.1,0.3,0.4,0.5,0.5,0.7c0,0.3,0.1,0.9-0.1,0.9s-1,0-1.2,0c-0.1,0-0.4,0-0.5,0
		h-1.4c-1,0-1.9,0-2.9-0.1c-0.9,0-1.9,0-2.8,0h0c-1-0.1-1.9,0-2.9,0.1c-0.1,0-0.3,0-0.4,0H81c-0.6-0.1-1.2-0.1-2.4,0
		c-2.3,0-6,0.1-9.4,0c-0.3,0-0.5,0-0.7,0h-2.3c-0.6,0-1.3,0-1.9,0C62.8,187.2,61.2,187.1,59.6,187.1z"/>
	<path class="st2" d="M96.6,187.1c-0.6,0-1.5,0-1.9,0c-0.4,0-1.3,0-1.6,0c-0.3,0,0.1-0.5,0.1-0.7c0-0.4,0-0.9,0.3-1.2
		c0.2-0.3,0.4-0.5,0.6-0.8c0.3-0.2,0.5-0.4,0.9-0.4c0.6-0.1,1.2,0,1.8,0.3c0.1,0,0.2,0.1,0.3,0.2c0.2,0.2,0.4,0.4,0.6,0.7
		c0,0.1,0.1,0.1,0.2,0.2c0,0,0.2,0,0.2,0c0.1-0.1,0.1-0.2,0.2-0.4c0.1-0.3,0.3-0.5,0.5-0.7c0.4-0.5,0.9-0.7,1.6-0.8
		c0.3,0,0.6,0,0.9,0.1c0.4,0.2,0.8,0.5,1,0.9c0.1,0.2,0.2,0.3,0.3,0.5c0.1,0.1,0.2,0.1,0.3,0l0.1-0.1c0.3-0.5,0.8-0.9,1.3-1.2
		c0.7-0.4,1.4-0.6,2.2-0.5c0.8,0,1.3,0.4,1.7,1.1c0.1,0.2,0.1,0.4,0.2,0.6c0,0.1,0.2,0.1,0.3,0c0.1-0.1,0.1-0.1,0.2-0.3l0.2-0.3
		c0.6-0.8,1.5-1,2.5-0.9c0.5,0.1,0.8,0.3,1.1,0.7c0.2,0.3,0.3,0.5,0.5,0.8c0.1,0.1,0.1,0.2,0.2,0.3c0,0.1,0.3,0.1,0.3,0.1
		c0.1,0,0.1-0.1,0.2-0.1c0.3-0.2,0.5-0.4,0.7-0.6c0.4-0.3,0.8-0.5,1.3-0.5c0.4,0,0.9-0.1,1.3,0c0.4,0.1,0.8,0.2,1.1,0.5
		c0.2,0.2,0.3,0.4,0.5,0.5c0.1,0.1,0.2,0.2,0.3,0.3s0.2-0.1,0.4-0.2c0.1-0.1,0.2-0.1,0.2-0.3c0.3-0.3,0.6-0.6,0.9-0.8
		c0.5-0.3,1.1-0.6,1.7-0.6c0.1,0,0.3,0,0.4,0c0.5,0,0.9,0.1,1.2,0.5c0.3,0.3,0.5,0.7,0.7,1.1c0.1,0.2,0.1,0.3,0.2,0.4
		c0,0.1,0.2,0.1,0.2,0c0.1,0,0.2-0.1,0.3-0.1c0.3-0.2,0.5-0.3,0.8-0.5c0.6-0.3,1.2-0.5,1.8-0.5c0.5-0.1,0.9,0,1.2,0.3
		c0.2,0.1,0.3,0.2,0.5,0.3c0.2,0.1,0.4,0.3,0.5,0.5c0.1,0.3,0.4,0.5,0.5,0.7c0,0.3,0.1,0.9-0.1,0.9s-1,0-1.2,0c-0.1,0-0.4,0-0.5,0
		h-1.4c-1,0-1.9,0-2.9-0.1c-0.9,0-1.9,0-2.8,0h0c-1-0.1-1.9,0-2.9,0.1c-0.1,0-0.3,0-0.4,0h-0.4c-0.6-0.1-1.2-0.1-2.4,0
		c-2.3,0-6,0.1-9.4,0c-0.3,0-0.5,0-0.7,0h-2.3c-0.6,0-1.3,0-1.9,0C99.8,187.2,98.2,187.1,96.6,187.1z"/>
	<path class="st2" d="M133.7,187.1c-0.6,0-1.5,0-1.9,0c-0.4,0-1.3,0-1.6,0c-0.3,0,0.1-0.5,0.1-0.7c0-0.4,0-0.9,0.3-1.2
		c0.2-0.3,0.4-0.5,0.6-0.8c0.3-0.2,0.5-0.4,0.9-0.4c0.6-0.1,1.2,0,1.8,0.3c0.1,0,0.2,0.1,0.3,0.2c0.2,0.2,0.4,0.4,0.6,0.7
		c0,0.1,0.1,0.1,0.2,0.2c0,0,0.2,0,0.2,0c0.1-0.1,0.1-0.2,0.2-0.4c0.1-0.3,0.3-0.5,0.5-0.7c0.4-0.5,0.9-0.7,1.6-0.8
		c0.3,0,0.6,0,0.9,0.1c0.4,0.2,0.8,0.5,1,0.9c0.1,0.2,0.2,0.3,0.3,0.5c0.1,0.1,0.2,0.1,0.3,0l0.1-0.1c0.3-0.5,0.8-0.9,1.3-1.2
		c0.7-0.4,1.4-0.6,2.2-0.5c0.8,0,1.3,0.4,1.7,1.1c0.1,0.2,0.1,0.4,0.2,0.6c0,0.1,0.2,0.1,0.3,0c0.1-0.1,0.1-0.1,0.2-0.3l0.2-0.3
		c0.6-0.8,1.5-1,2.5-0.9c0.5,0.1,0.8,0.3,1.1,0.7c0.2,0.3,0.3,0.5,0.5,0.8c0.1,0.1,0.1,0.2,0.2,0.3c0,0.1,0.3,0.1,0.3,0.1
		c0.1,0,0.1-0.1,0.2-0.1c0.3-0.2,0.5-0.4,0.7-0.6c0.4-0.3,0.8-0.5,1.3-0.5c0.4,0,0.9-0.1,1.3,0c0.4,0.1,0.8,0.2,1.1,0.5
		c0.2,0.2,0.3,0.4,0.5,0.5c0.1,0.1,0.2,0.2,0.3,0.3s0.2-0.1,0.4-0.2c0.1-0.1,0.2-0.1,0.2-0.3c0.3-0.3,0.6-0.6,0.9-0.8
		c0.5-0.3,1.1-0.6,1.7-0.6c0.1,0,0.3,0,0.4,0c0.5,0,0.9,0.1,1.2,0.5c0.3,0.3,0.5,0.7,0.7,1.1c0.1,0.2,0.1,0.3,0.2,0.4
		c0,0.1,0.2,0.1,0.2,0c0.1,0,0.2-0.1,0.3-0.1c0.3-0.2,0.5-0.3,0.8-0.5c0.6-0.3,1.2-0.5,1.8-0.5c0.5-0.1,0.9,0,1.2,0.3
		c0.2,0.1,0.3,0.2,0.5,0.3c0.2,0.1,0.4,0.3,0.5,0.5c0.1,0.3,0.4,0.5,0.5,0.7c0,0.3,0.1,0.9-0.1,0.9c-0.2,0-1,0-1.2,0
		c-0.1,0-0.4,0-0.5,0h-1.4c-1,0-1.9,0-2.9-0.1c-0.9,0-1.9,0-2.8,0h0c-1-0.1-1.9,0-2.9,0.1c-0.1,0-0.3,0-0.4,0h-0.4
		c-0.6-0.1-1.2-0.1-2.4,0c-2.3,0-6,0.1-9.4,0c-0.3,0-0.5,0-0.7,0h-2.3c-0.6,0-1.3,0-1.9,0C136.9,187.2,135.3,187.1,133.7,187.1z"/>
	<path class="st2" d="M170.8,187.1c-0.6,0-1.5,0-1.9,0c-0.4,0-1.3,0-1.6,0s0.1-0.5,0.1-0.7c0-0.4,0-0.9,0.3-1.2
		c0.2-0.3,0.4-0.5,0.6-0.8c0.3-0.2,0.5-0.4,0.9-0.4c0.6-0.1,1.2,0,1.8,0.3c0.1,0,0.2,0.1,0.3,0.2c0.2,0.2,0.4,0.4,0.6,0.7
		c0,0.1,0.1,0.1,0.2,0.2c0,0,0.2,0,0.2,0c0.1-0.1,0.1-0.2,0.2-0.4c0.1-0.3,0.3-0.5,0.5-0.7c0.4-0.5,0.9-0.7,1.6-0.8
		c0.3,0,0.6,0,0.9,0.1c0.4,0.2,0.8,0.5,1,0.9c0.1,0.2,0.2,0.3,0.3,0.5c0.1,0.1,0.2,0.1,0.3,0l0.1-0.1c0.3-0.5,0.8-0.9,1.3-1.2
		c0.7-0.4,1.4-0.6,2.2-0.5c0.8,0,1.3,0.4,1.7,1.1c0.1,0.2,0.1,0.4,0.2,0.6c0,0.1,0.2,0.1,0.3,0c0.1-0.1,0.1-0.1,0.2-0.3l0.2-0.3
		c0.6-0.8,1.5-1,2.5-0.9c0.5,0.1,0.8,0.3,1.1,0.7c0.2,0.3,0.3,0.5,0.5,0.8c0.1,0.1,0.1,0.2,0.2,0.3c0,0.1,0.3,0.1,0.3,0.1
		c0.1,0,0.1-0.1,0.2-0.1c0.3-0.2,0.5-0.4,0.7-0.6c0.4-0.3,0.8-0.5,1.3-0.5c0.4,0,0.9-0.1,1.3,0c0.4,0.1,0.8,0.2,1.1,0.5
		c0.2,0.2,0.3,0.4,0.5,0.5c0.1,0.1,0.2,0.2,0.3,0.3s0.2-0.1,0.4-0.2c0.1-0.1,0.2-0.1,0.2-0.3c0.3-0.3,0.6-0.6,0.9-0.8
		c0.5-0.3,1.1-0.6,1.7-0.6c0.1,0,0.3,0,0.4,0c0.5,0,0.9,0.1,1.2,0.5c0.3,0.3,0.5,0.7,0.7,1.1c0.1,0.2,0.1,0.3,0.2,0.4
		c0,0.1,0.2,0.1,0.2,0c0.1,0,0.2-0.1,0.3-0.1c0.3-0.2,0.5-0.3,0.8-0.5c0.6-0.3,1.2-0.5,1.8-0.5c0.5-0.1,0.9,0,1.2,0.3
		c0.2,0.1,0.3,0.2,0.5,0.3c0.2,0.1,0.4,0.3,0.5,0.5c0.1,0.3,0.4,0.5,0.5,0.7c0,0.3,0.1,0.9-0.1,0.9c-0.2,0-1,0-1.2,0
		c-0.1,0-0.4,0-0.5,0h-1.4c-1,0-1.9,0-2.9-0.1c-0.9,0-1.9,0-2.8,0h0c-1-0.1-1.9,0-2.9,0.1c-0.1,0-0.3,0-0.4,0h-0.4
		c-0.6-0.1-1.2-0.1-2.4,0c-2.3,0-6,0.1-9.4,0c-0.3,0-0.5,0-0.7,0h-2.3c-0.6,0-1.3,0-1.9,0C174,187.2,172.4,187.1,170.8,187.1z"/>
	<path class="st2" d="M207.9,187.1c-0.6,0-1.5,0-1.9,0c-0.4,0-1.3,0-1.6,0s0.1-0.5,0.1-0.7c0-0.4,0-0.9,0.3-1.2
		c0.2-0.3,0.4-0.5,0.6-0.8c0.3-0.2,0.5-0.4,0.9-0.4c0.6-0.1,1.2,0,1.8,0.3c0.1,0,0.2,0.1,0.3,0.2c0.2,0.2,0.4,0.4,0.6,0.7
		c0,0.1,0.1,0.1,0.2,0.2c0,0,0.2,0,0.2,0c0.1-0.1,0.1-0.2,0.2-0.4c0.1-0.3,0.3-0.5,0.5-0.7c0.4-0.5,0.9-0.7,1.6-0.8
		c0.3,0,0.6,0,0.9,0.1c0.4,0.2,0.8,0.5,1,0.9c0.1,0.2,0.2,0.3,0.3,0.5c0.1,0.1,0.2,0.1,0.3,0l0.1-0.1c0.3-0.5,0.8-0.9,1.3-1.2
		c0.7-0.4,1.4-0.6,2.2-0.5c0.8,0,1.3,0.4,1.7,1.1c0.1,0.2,0.1,0.4,0.2,0.6c0,0.1,0.2,0.1,0.3,0c0.1-0.1,0.1-0.1,0.2-0.3l0.2-0.3
		c0.6-0.8,1.5-1,2.5-0.9c0.5,0.1,0.8,0.3,1.1,0.7c0.2,0.3,0.3,0.5,0.5,0.8c0.1,0.1,0.1,0.2,0.2,0.3c0,0.1,0.3,0.1,0.3,0.1
		c0.1,0,0.1-0.1,0.2-0.1c0.3-0.2,0.5-0.4,0.7-0.6c0.4-0.3,0.8-0.5,1.3-0.5c0.4,0,0.9-0.1,1.3,0c0.4,0.1,0.8,0.2,1.1,0.5
		c0.2,0.2,0.3,0.4,0.5,0.5c0.1,0.1,0.2,0.2,0.3,0.3s0.2-0.1,0.4-0.2c0.1-0.1,0.2-0.1,0.2-0.3c0.3-0.3,0.6-0.6,0.9-0.8
		c0.5-0.3,1.1-0.6,1.7-0.6c0.1,0,0.3,0,0.4,0c0.5,0,0.9,0.1,1.2,0.5c0.3,0.3,0.5,0.7,0.7,1.1c0.1,0.2,0.1,0.3,0.2,0.4
		c0,0.1,0.2,0.1,0.2,0c0.1,0,0.2-0.1,0.3-0.1c0.3-0.2,0.5-0.3,0.8-0.5c0.6-0.3,1.2-0.5,1.8-0.5c0.5-0.1,0.9,0,1.2,0.3
		c0.2,0.1,0.3,0.2,0.5,0.3c0.2,0.1,0.4,0.3,0.5,0.5c0.1,0.3,0.4,0.5,0.5,0.7c0,0.3,0.1,0.9-0.1,0.9c-0.2,0-1,0-1.2,0
		c-0.1,0-0.4,0-0.5,0h-1.4c-1,0-1.9,0-2.9-0.1c-0.9,0-1.9,0-2.8,0h0c-1-0.1-1.9,0-2.9,0.1c-0.1,0-0.3,0-0.4,0h-0.4
		c-0.6-0.1-1.2-0.1-2.4,0c-2.3,0-6,0.1-9.4,0c-0.3,0-0.5,0-0.7,0h-2.3c-0.6,0-1.3,0-1.9,0C211.1,187.2,209.5,187.1,207.9,187.1z"/>
	<path class="st2" d="M245,187.1c-0.6,0-1.5,0-1.9,0c-0.4,0-1.3,0-1.6,0s0.1-0.5,0.1-0.7c0-0.4,0-0.9,0.3-1.2
		c0.2-0.3,0.4-0.5,0.6-0.8c0.3-0.2,0.5-0.4,0.9-0.4c0.6-0.1,1.2,0,1.8,0.3c0.1,0,0.2,0.1,0.3,0.2c0.2,0.2,0.4,0.4,0.6,0.7
		c0,0.1,0.1,0.1,0.2,0.2c0,0,0.2,0,0.2,0c0.1-0.1,0.1-0.2,0.2-0.4c0.1-0.3,0.3-0.5,0.5-0.7c0.4-0.5,0.9-0.7,1.6-0.8
		c0.3,0,0.6,0,0.9,0.1c0.4,0.2,0.8,0.5,1,0.9c0.1,0.2,0.2,0.3,0.3,0.5c0.1,0.1,0.2,0.1,0.3,0l0.1-0.1c0.3-0.5,0.8-0.9,1.3-1.2
		c0.7-0.4,1.4-0.6,2.2-0.5c0.8,0,1.3,0.4,1.7,1.1c0.1,0.2,0.1,0.4,0.2,0.6c0,0.1,0.2,0.1,0.3,0c0.1-0.1,0.1-0.1,0.2-0.3l0.2-0.3
		c0.6-0.8,1.5-1,2.5-0.9c0.5,0.1,0.8,0.3,1.1,0.7c0.2,0.3,0.3,0.5,0.5,0.8c0.1,0.1,0.1,0.2,0.2,0.3c0,0.1,0.3,0.1,0.3,0.1
		c0.1,0,0.1-0.1,0.2-0.1c0.3-0.2,0.5-0.4,0.7-0.6c0.4-0.3,0.8-0.5,1.3-0.5c0.4,0,0.9-0.1,1.3,0c0.4,0.1,0.8,0.2,1.1,0.5
		c0.2,0.2,0.3,0.4,0.5,0.5c0.1,0.1,0.2,0.2,0.3,0.3s0.2-0.1,0.4-0.2c0.1-0.1,0.2-0.1,0.2-0.3c0.3-0.3,0.6-0.6,0.9-0.8
		c0.5-0.3,1.1-0.6,1.7-0.6c0.1,0,0.3,0,0.4,0c0.5,0,0.9,0.1,1.2,0.5c0.3,0.3,0.5,0.7,0.7,1.1c0.1,0.2,0.1,0.3,0.2,0.4
		c0,0.1,0.2,0.1,0.2,0c0.1,0,0.2-0.1,0.3-0.1c0.3-0.2,0.5-0.3,0.8-0.5c0.6-0.3,1.2-0.5,1.8-0.5c0.5-0.1,0.9,0,1.2,0.3
		c0.2,0.1,0.3,0.2,0.5,0.3c0.2,0.1,0.4,0.3,0.5,0.5c0.1,0.3,0.4,0.5,0.5,0.7c0,0.3,0.1,0.9-0.1,0.9c-0.2,0-1,0-1.2,0
		c-0.1,0-0.4,0-0.5,0h-1.4c-1,0-1.9,0-2.9-0.1c-0.9,0-1.9,0-2.8,0h0c-1-0.1-1.9,0-2.9,0.1c-0.1,0-0.3,0-0.4,0h-0.4
		c-0.6-0.1-1.2-0.1-2.4,0c-2.3,0-6,0.1-9.4,0c-0.3,0-0.5,0-0.7,0h-2.3c-0.6,0-1.3,0-1.9,0C248.2,187.2,246.6,187.1,245,187.1z"/>
</g>
<g class="st1">
	<path class="st2" d="M181.3,155.4c0,1,0,1.9-0.3,2.9c-0.5,1.8-1.5,3.3-3.1,4.2c-0.8,0.5-1.7,1-2.5,1.6c-1.3,0.8-2.6,1.7-3.7,2.8
		c-1.2,0.9-2.2,1.8-3.4,2.6c-2.6,2.1-5.6,3.2-8.8,3.7c-2.3,0.3-4.6,0.4-6.7,0c-0.3-0.1-0.5,0-0.7-0.1c-2.3-0.4-4.7-0.7-7-1.6
		c-0.9-0.4-1.9-0.7-2.8-1c-1.4-0.3-2.6-1-3.9-1.8c-0.3-0.3-0.6-0.6-0.6-1.1v-0.3c-0.2-0.3-0.4-0.5-0.7-0.5c-2.2,0.3-4.2,0.1-6.5,0
		c-1.6-0.2-2.9-0.5-4.2-1c-1-0.4-2-0.8-2.8-1.2c-1.4-0.6-2.3-1.8-2.7-3.1c-0.4-0.9-0.3-1.9,0-2.9c0-0.2,0.1-0.4,0.3-0.5
		c0.6-0.4,0.9-0.8,0.9-1.6c0-0.7,0.3-1.3,0.4-1.8c0.3-2,1.3-3.5,2.9-4.6c1.8-1.1,3.9-2.3,6.1-2.7c1.6-0.3,2.9-1,4.4-1.6
		c0.9-0.4,1.8-1,2.6-1.7c0.8-0.6,1.1-1.4,1.6-2.3c0.6-1.8,0.9-3.6,0.3-5.5c-0.3-1.2-0.5-2.2-0.9-3.3c-1-3.7-2.2-7.5-3.3-11.2
		c-0.3-1.2-0.5-2.3-0.9-3.5c-0.3-0.9-0.4-2.1-0.9-2.9c-0.1-0.3-0.1-0.5,0-0.8c0.2-1,0.7-1.6,1.3-2.2c1.5-1.3,3.1-2.2,4.9-2.7
		c1.2-0.3,2.3-0.5,3.6-0.7c2.2-0.3,4.4-0.6,6.7-0.6c1.2,0,2.5,0.1,3.8,0.3c2.1,0.5,3.7,1.6,4.9,3.4l0.3,0.5c0.2,0.3,0.4,0.4,0.7,0.4
		h0.3c1.7-0.3,3.3-0.5,4.9-0.7c1.2-0.1,2.5-0.1,3.8,0.2c1,0.1,2.2,0.1,3.4,0.5c1.1,0.3,2.1,0.9,2.7,1.8c0.3,0.3,0.5,0.6,0.7,1
		c0.1,0.8,0.3,1.4,0.3,2.1c0.2,3.9,0.3,7.6,0.4,11c-0.2,3-0.2,5.4-0.2,8c0,1.6,0.2,3.2,0.3,4.8c0,1.6,0.5,3,1,4.4
		c0.4,0.8,0.7,1.7,1,2.5C180.6,150.5,181.1,153.1,181.3,155.4z M137.3,164c0-0.3,0-0.5-0.2-0.8c0-0.1-0.1-0.3-0.3-0.3
		c-0.3-0.1-0.5-0.1-0.9-0.3c-1.5-0.1-3-0.3-4.6-0.6c-2.9-0.5-5.8-1.3-8.5-2.1c-0.3,0-0.5-0.2-0.6,0c-0.2,0-0.3,0.1-0.4,0.1v0.7
		c0.4,1.3,1,2.2,2.2,2.7c0.8,0.4,1.6,0.8,2.3,1c0.9,0.4,1.9,0.7,2.9,1c1.5,0.3,3,0.5,4.1,0.3h2.2C137.3,165.8,137.4,165.5,137.3,164
		z M142.2,155.7c0.5-0.3,1-0.5,1.6-0.6c0.8-0.4,1.6-0.8,2.4-1.2c0.9-0.3,1.8-0.8,2.6-1.4v-1.2c0-0.3,0-0.6,0.2-0.9
		c0.5-1,1.4-1.7,2.6-2c0.6-0.1,1.1-0.1,1.6,0.3c0.3,0.2,0.5,0.3,0.7,0.4c0.3,0.1,0.6,0.1,0.9,0c0.8-0.5,1.6-1.2,2.1-2.1
		c0.4-0.5,0.8-1.2,0.9-2c0-0.3,0-0.5-0.3-0.8c-0.5,0.2-0.9,0.4-1.5,0.5h-0.8c-1.1-0.3-2.1-1-2.4-2.2c-0.2-0.4-0.2-0.7,0-1
		c0.5-1.6,1.8-2.3,3.4-1.8c0.4,0.1,0.7,0.3,1.2,0.3c0.3-0.5,0.3-1,0.1-1.6c-0.3-1.9-0.6-3.9-1-5.8l-1.6-6.7
		c-0.1-0.5-0.3-0.9-0.5-1.4c-0.3-0.2-0.5-0.3-0.8-0.3c-1.1-0.5-1.8-1.3-2.2-2.5c-0.4-0.9-0.2-1.8,0.5-2.4c0.3-0.4,0.8-0.7,1.1-1
		v-0.5c-0.3-0.8-0.1-1.6,0.4-2.2c0.3-0.5,0.9-0.9,1.3-1.4c-0.3-0.1-0.8-0.2-1-0.1c-2.1,0.8-4.4,1.2-6.6,1.5
		c-2.1,0.3-4.1,0.3-6.3,0.1c-0.7,0-1.3-0.3-2-0.5c-0.3-0.1-0.5-0.3-0.8-0.5c-0.3-0.3-0.5-0.9-0.3-1.4c0.3-0.5,0.7-1,1.3-0.8h0.2
		c0.3,0,0.3,0.3,0.3,0.5c0,0.1-0.2,0.3-0.3,0.3c-0.4,0.5-0.3,0.8,0.3,1c0.3,0,0.3,0.1,0.6,0.3c1.2,0.1,2.5,0.3,3.8,0.3
		c2.4-0.2,5-0.5,7.5-1c1.6-0.4,3.4-1,4.9-2c0-0.1,0.3-0.1,0.3-0.1h0.2c0.1,0,0.3,0.1,0.3,0.3v0.3c-0.3,0.5-0.9,0.5-1,1.2
		c0.8,0,1.6-0.4,2.3-0.7c0.3-0.1,0.3-0.5,0.2-0.8c-0.8-1.4-2.1-2.2-3.6-2.7c-1.6-0.4-3.3-0.5-4.8-0.5c-2.2,0.1-4.4,0.3-6.5,0.8
		c-1,0.1-1.9,0.3-2.9,0.6c-1.6,0.4-2.8,1.2-4.1,2.2c-0.3,0.1-0.5,0.3-0.6,0.5c-0.4,0.3-0.5,0.8-0.4,1.4c0.2,0.4,0.2,1,0.3,1.5
		c0.4,1.8,0.9,3.6,1.5,5.5l3.1,10.9c0.3,1.2,0.6,2.3,0.9,3.5c0.5,1.9,0.2,3.7-0.3,5.7c-0.4,1.3-1,2.3-2.1,3.2
		c-0.8,0.7-1.6,1.2-2.3,1.6c-1.6,0.8-3.3,1.5-4.9,1.7c-2.2,0.5-4.1,1.6-5.9,2.7c-1,0.7-1.7,1.6-2.1,2.8c-0.5,1.3-0.7,2.7-0.5,4.2
		c0,0.8,0.5,1.3,1.3,1.4c0,0,0.1,0,0.1,0.2c3.3,0.8,6.5,1.6,9.7,2.1c0.8,0,1.6,0.1,2.3,0.1c0.3,0,0.6-0.1,0.9-0.5
		c0.2-0.3,0.3-0.8,0.5-1.1C139.1,158.2,140.4,156.8,142.2,155.7z M129.6,155.7c0.3,1.3-0.4,2.6-1.6,3.1c-0.5,0.2-0.9,0.2-1.3,0
		c-0.9-0.3-1.6-1-1.7-2.1V156c-0.1-1.3,1-1.9,2-1.9h0.9C128.6,154.2,129.4,155,129.6,155.7z M128.3,155.6c0-0.2-0.2-0.3-0.3-0.3
		c-0.4-0.3-0.8-0.3-1.2-0.2c-0.1,0.2-0.3,0.2-0.3,0.3c-0.5,0.7-0.4,1.7,0.3,2.2c0.2,0,0.3,0,0.4,0.1c0.1,0,0.3,0,0.3-0.1
		C128.4,157.5,128.8,156.4,128.3,155.6z M136.3,158.6c0,0.2-0.2,0.3-0.3,0.3c-0.4,0.2-0.8,0.2-1.2,0.2c-1,0-2.1-0.2-3.1-0.5
		c-0.1,0-0.3-0.2-0.3-0.2c-0.1-0.1-0.3-0.3-0.3-0.3c0-0.2,0.3-0.4,0.4-0.4l0.3-0.1c1,0.3,2.2,0.3,3.4,0.5c0.3,0,0.5,0,0.8,0.1
		C136.3,158.1,136.4,158.3,136.3,158.6z M139,150.5c-0.3-0.3-0.6-0.6-0.8-1.1v-0.7c-0.1-1.6,1.3-2.4,2.5-2.4c0.8,0,1.6,0.3,1.9,1
		c0.7,1,0.7,2.1,0,2.9c-0.3,0.3-0.5,0.5-0.8,0.7C140.8,151.3,139.9,151.2,139,150.5z M180.1,156.9c0-0.3-0.1-0.7-0.3-0.5
		c-0.1,0-0.3,0-0.3,0.1c-1.5,1.2-2.8,2.2-4.7,2.9c-1.5,0.4-2.8,1.3-4.1,2.1c-1.8,1.2-3.4,2.3-5.2,3.4c-1.9,1.3-4.1,2.2-6.3,2.9
		c-2.2,0.7-4.6,0.8-6.7,0.5c-3.1-0.3-6.2-1.1-9.2-2.3c-0.8-0.3-1.6-0.6-2.3-0.9c-0.8-0.2-1.4-0.7-2.3-0.3c-0.3,0.9,0.2,1.6,0.3,2.4
		c0.3,0.5,0.5,1,1.2,1.2c0.5,0.3,1.1,0.6,1.8,0.9c0.8,0.3,1.6,0.5,2.2,0.8c2.8,1,5.4,1.6,8.3,2c1,0.1,2.2,0.3,3.4,0.3
		c1.3,0,2.6-0.1,4.1-0.3c2.9-0.5,5.5-1.6,8-3.5c0.9-0.6,1.8-1.3,2.6-2.1c1.8-1.6,3.7-2.9,5.7-4.2c0.5-0.3,0.9-0.5,1.4-0.8
		C179.2,160.4,180,158.8,180.1,156.9z M156.2,115.3c-0.5,0.3-1.2,0.7-1.6,1c-0.3,0.4-0.5,0.8-0.4,1.2c0.2,1,0.3,1.9,0.5,2.9
		c0.5,2.1,0.8,4.2,1.5,6.1c0.3,1.1,0.6,2.3,0.9,3.5c0.7,3,1.2,5.9,1.7,8.8c0.3,1.8,0.3,3.8,0.1,5.7c-0.1,1.6-0.8,3-1.9,4.2
		c-0.5,0.5-1.2,1-1.8,1.5c-1.2,0.6-2.2,1.3-3.3,1.9c-2.2,1.5-4.4,2.6-6.8,3.5c-0.7,0.3-1.3,0.5-1.8,0.9c-2.2,1-3.8,2.8-4.6,5.1
		c-0.1,0.3-0.1,0.5-0.1,0.9c0,0.2,0.1,0.4,0.3,0.5c0.3,0.3,0.9,0.4,1.3,0.5c0.9,0.4,1.9,0.7,2.8,1c2.7,1.2,5.5,2,8.5,2.3
		c2.6,0.5,5.3,0.4,7.8-0.3c2.1-0.7,4.1-1.5,5.9-2.6l7-4.7c0.1-0.2,0.3-0.3,0.3-0.4c0-0.1,0.1-0.3,0-0.3c-0.8-1.3-0.5-2.6,0.1-3.8
		c0.2-0.3,0.4-0.5,0.7-0.6c1-0.4,2.1-0.2,2.7,0.8c0.3,0.3,0.4,0.8,0.5,1.1c0.2,0.3,0.3,0.5,0.3,0.8h0.3c0.9-0.3,1.7-0.8,2-1.8
		c0-0.3,0.1-0.6,0.3-0.8c0.6-0.5,0.6-1.3,0.5-1.9l-0.8-2.5c-0.3-0.9-0.7-1.8-1-2.7c-1-2.5-1.7-4.9-1.7-7.7v-7.1c0-1-0.3-1.2-1-1.3
		c-0.3,0-0.6-0.2-0.9-0.3c-1.2-0.5-2-2-1.7-3.3c0.4-1.6,1.2-2.6,2.8-2.7c0.2,0,0.3-0.2,0.4-0.2c0.1-0.1,0.3-0.3,0.3-0.3
		c0-0.2,0.1-0.3,0-0.4c0-2.1-0.2-4-0.3-6.1c0-0.2,0-0.2-0.2-0.3c0-0.2-0.3-0.4-0.3-0.4c-0.4,0.2-0.9,0.2-1.3,0.3l-4.3,1.2
		c-2.4,0.6-4.9,1-7.5,1.3c-1,0.1-2.2,0.1-3.4,0.1c-0.8,0-1.6-0.1-2.2-0.5c-1-0.6-1.2-1.4-0.7-2.3c0.2-0.3,0.4-0.3,0.5-0.6
		c0.2,0,0.2,0,0.3-0.2c0.3,0,0.5,0,0.8,0.3c0,0.3,0,0.4-0.1,0.7c-0.2,0.1-0.4,0.3-0.5,0.6c0,0,0,0.3,0.1,0.4c0.3,0.3,0.7,0.3,1,0.5
		c0.9,0.1,1.8,0.1,2.8,0.1c2.5-0.3,4.8-0.6,7.2-1.1c2-0.4,3.9-0.8,5.7-1.5c0.4-0.1,0.7-0.3,1-0.5c0.2-0.1,0.2-0.5,0-0.8
		c-0.6-0.6-1.4-1.1-2.3-1.3c-2.1-0.3-4.1-0.8-6.3-0.5c-1.6,0.2-3.1,0.4-4.6,0.5c-0.5,0.2-1,0.3-1.6,0.3
		C158.9,114.2,157.5,114.7,156.2,115.3z M142,148.9c0-0.7-0.4-1.3-1.2-1.6h-0.3c-0.7,0.1-1,0.6-1.2,1.3c0,0.6,0.4,1.1,1,1.4
		C141,150.3,142,149.8,142,148.9z M141.5,124.1c-1.5-0.6-2.2-1.8-2.1-3.2c0.1-0.5,0.3-1,0.8-1c0.6-0.3,1.4-0.7,2.2-0.7
		c0.4,0,0.8,0.2,1.2,0.5c0.3,0.3,0.8,0.8,1,1.3c0.3,0.8,0.1,1.8-0.5,2.5C143.3,124.3,142.5,124.5,141.5,124.1z M142.2,123
		c0.6,0.2,1.4-0.6,1.4-1.4c-0.1-0.2-0.3-0.4-0.3-0.7c-0.7-1-2.1-0.6-2.5,0.3c-0.1,0.3-0.3,0.5,0,0.8C141,122.7,141.6,123,142.2,123z
		 M147.4,159.9v0.3c0,1.3-0.9,2.3-2.2,2.3c-0.8,0-1.4-0.1-2.2-0.5c-1-0.8-1.5-2.2-0.8-3.4c0.3-0.5,0.6-0.9,1.3-1
		c0.3-0.1,0.8-0.3,1.1-0.3C146.2,157.3,147.4,158.3,147.4,159.9z M143.8,136.3c0.8-0.5,1.6-0.6,2.4-0.3c0.3,0,0.5,0.1,0.8,0.3
		c0.8,0.7,0.9,1.5,0.9,2.6c0,0.2,0,0.4-0.2,0.7c-0.1,0.8-1.1,1.6-1.9,1.6c-1-0.2-2-0.5-2.5-1.5c-0.6-1-0.5-1.9,0-2.9L143.8,136.3z
		 M146.2,159.4c-0.3-0.6-0.8-0.9-1.3-0.9c-0.6,0-1.1,0.1-1.6,0.5c-0.6,0.6-0.5,1.3,0,1.8c0.5,0.3,1,0.6,1.6,0.6
		c0.5,0,0.9-0.1,1.2-0.5C146.5,160.4,146.5,159.9,146.2,159.4z M145.7,139.9c0.3,0,0.7-0.1,0.8-0.3c0.3-0.3,0.4-0.8,0.5-1
		c-0.3-1.3-0.9-1.9-2.1-1.6c-0.3,0.1-0.6,0.3-0.8,0.9C143.8,138.9,144.7,139.9,145.7,139.9z M147,130c-0.3-0.5-0.3-0.9-0.3-1.6V128
		c0.3-1.4,1.6-2.2,2.9-1.6c1.2,0.3,2,1.1,2.2,2.3c0.3,1.1-0.3,2.2-1.3,2.6C149.2,131.8,147.8,131.3,147,130z M148.5,130
		c0.4,0.2,0.7,0.2,0.8,0.3c1.3,0,1.8-0.9,1.3-1.8c-0.3-0.5-0.6-0.9-1.1-1.1c-0.7-0.3-1.3,0-1.6,0.6
		C147.5,128.8,147.8,129.7,148.5,130z M150.1,151.5c0,0.1,0,0.1,0.2,0.1h0.1c0.9-0.3,1.6-0.8,2.3-1.3c0-0.1,0.2-0.1,0.2-0.3
		c0-0.1,0-0.3-0.2-0.3c-0.3-0.3-0.6-0.3-0.9-0.3c-0.8,0.2-1.3,0.5-1.7,1.2C150,151,150,151.2,150.1,151.5z M162.5,162.4
		c0,0.1,0,0.3-0.1,0.3c-0.2,0.2-0.4,0.4-0.7,0.5c-1.6,0.8-3.6,1.2-5.5,1.2c-1.2,0-2.3,0-3.5-0.2c-0.3,0-0.5-0.1-0.8-0.3v-0.3
		c0-0.2,0-0.2,0.2-0.2c0.1-0.1,0.3-0.1,0.5-0.3h2.2v0.2h0.7c2.1,0.1,4-0.3,5.9-1.2c0.1-0.1,0.5-0.1,0.8-0.1
		C162.3,162,162.5,162.2,162.5,162.4z M154.1,122.7c-0.2-0.8-0.3-1.5-0.4-2.1c0-0.2-0.1-0.3-0.3-0.4c-0.1,0-0.3,0-0.3-0.1
		c-0.4,0.3-0.7,0.8-0.7,1.3c0.2,0.6,0.4,1.3,1,1.6c0.2,0,0.3,0.2,0.4,0.2C154,123,154.2,122.8,154.1,122.7z M154.9,140.9
		c-1.3,0.8-1.3,1.6-0.2,2.5c0.2,0.1,0.3,0.1,0.5,0.3c0.5,0.3,1.3-0.2,1.5-0.8c0.1-0.3,0.1-0.4,0.1-0.5v-0.5
		C156.7,140.9,155.7,140.4,154.9,140.9z M155.5,159c-0.1-0.4-0.1-0.8,0-1.2c0-0.5,0.3-1,0.7-1.3c0.3-0.3,0.5-0.5,0.8-0.6
		c1.9-1.3,3.9,0.3,4,2.1v0.8c0,0.6-0.5,1.4-1.4,1.8c-1.2,0.6-2.3,0.5-3.4-0.3C155.8,159.9,155.5,159.5,155.5,159z M157.1,159.5
		c0.2,0.1,0.4,0.1,0.5,0.3c0.9,0.3,2.3-0.4,2.2-1.8c0,0,0-0.3-0.2-0.5c-0.3-1-1.4-1.2-2.1-0.7c-0.3,0.3-0.6,0.5-0.9,1
		C156.3,158.2,156.5,159.1,157.1,159.5z M158.3,125.8c0.3-1.6,1.8-2.1,3.1-2c1.6,0.3,2.7,1.5,2.7,3.3c0,1.6-1.6,2.9-2.9,2.4
		c-0.4,0-0.8-0.1-1-0.3C158.6,128.8,158,127.4,158.3,125.8z M159.7,127.7c0.5,0.5,1.2,0.8,2,0.8c1.1-0.1,1.6-1.1,1.3-1.9
		c-0.4-1.2-1-1.7-2.2-1.7c-0.3,0.2-0.5,0.2-0.8,0.3C159.1,125.6,159.1,127.1,159.7,127.7z M166.7,148.4c0.9,1.4,0.3,3.5-1.4,4.2
		c-1.6,0.5-3.4,0-4.1-1.8c-0.1-0.4-0.1-0.8,0-1.2c0.2-0.3,0.3-0.8,0.5-1.1c0.5-1,1-1.3,2.3-1.3c0.4,0,0.8,0.1,1.3,0.3
		C165.9,147.4,166.4,147.9,166.7,148.4z M165.9,149.2c-0.3-0.9-1.6-1.4-2.3-0.9c-0.1,0.1-0.3,0.1-0.5,0.3c-0.5,0.3-0.9,1-0.8,1.6
		c0.2,0.5,0.5,1,1.2,1.2c0.1,0,0.3,0.1,0.6,0.1c0.3,0,0.5,0,0.8-0.1C165.6,151.2,166.3,150.2,165.9,149.2z M166,134.5h1
		c0.3,0,0.8,0.2,1.4,0.4c0.4,0.3,0.7,0.5,0.8,0.9c0.5,1.6,0.2,3.1-1.6,4.1l-0.3,0.1c-1.6,0.4-3.6-0.8-3.6-2.7
		C163.5,135.8,164.6,134.6,166,134.5z M164.8,136.8c0,1,0.5,1.7,1.6,2.1c0.5,0.2,1,0,1.6-0.5c0.3-0.3,0.5-0.9,0.5-1.3
		c0-0.6-0.2-1-0.5-1.1c-0.8-0.4-1.6-0.5-2.2-0.2C165.1,135.9,164.8,136.3,164.8,136.8z M173.1,138c-0.1-1.2-0.1-2.5-0.1-3.6
		c0-0.2,0.1-0.4,0.3-0.4c0.2,0,0.4,0.2,0.5,0.3c0,0.3,0.2,0.5,0.2,0.7v3.4c0,0.1-0.2,0.3-0.3,0.3c-0.2,0.1-0.5,0-0.5-0.2
		C173.1,138.3,173.1,138.1,173.1,138z M175.4,155.9c-0.2-0.4-0.4-0.7-0.8-0.8c-0.2-0.2-0.3-0.2-0.5-0.2c-0.2,0.2-0.3,0.2-0.4,0.3
		c-0.6,0.8-0.6,1.6-0.3,2.5c0.2,0.5,0.7,0.6,1.2,0.5c0.3-0.2,0.6-0.3,0.9-0.4c0.2-0.1,0.3-0.3,0.3-0.3
		C175.6,156.9,175.4,156.4,175.4,155.9z M174.1,141.6c0.1,0,0.3,0.1,0.3,0.3c0.3,1.6,1,2.9,1.6,4.2c1,2,1.6,4.1,1.8,6.1
		c0,0.3,0,0.3,0.2,0.6c-0.2,0.2-0.2,0.4-0.2,0.7c0,0-0.3,0.1-0.3,0.3c-0.3,0-0.5-0.2-0.5-0.3c-0.1-0.3-0.3-0.4-0.3-0.7
		c0-0.5-0.1-1-0.1-1.6c-0.4-1.7-0.9-3.4-1.8-4.9c-0.5-1-1-2.2-1.3-3.3c-0.2-0.5-0.3-0.9-0.2-1.3c0-0.1,0.2-0.3,0.3-0.3
		C173.8,141.5,173.9,141.5,174.1,141.6z M176.1,126.4c0-0.3-0.4-0.5-0.7-0.5c-0.3,0-0.8,0.2-1,0.4c-0.5,0.5-0.8,1.1-0.8,1.9
		c0.2,1,0.9,1.7,2,1.6c0.3,0,0.5-0.3,0.6-0.3v-1.6C176.2,127.5,176.2,126.9,176.1,126.4z"/>
</g>
<g class="st1">
	<path class="st2" d="M49.1,84.6c0.6-0.2,2.3-0.8,2.8-0.1c0.6,0.9-1.4,1.7-2,2c-0.9,0.4-1.8,0.7-2.8,1.1c-1.4,0.5-2.8,1.1-4.3,1.4
		c-2.6,0.5-3.8,0.3-5-3.9c-1-3.5-1-10.1-1.2-13.7c-0.3-5.1-0.5-10.2-0.5-15.3c0-3.3,0.4-5.1,0.6-8.3c0.1-0.9-0.2-2.3,0.4-3.1
		c1-1.3,3.6,0.2,4.4,1.1c1.2,1.4,1,3.3,0.8,5c-0.1,1.7,0.3,11.8,0.4,15.9c0.1,2.6-0.1,5.1-0.1,7.6c0.1,2.6-0.1,9.2,0.1,12.2
		C46.9,85.3,46,85.7,49.1,84.6z"/>
	<path class="st2" d="M69.5,45.9c-1.7,0.2-3.4,0.2-5.1,0.3c-1.1,0.1-2.5,0.2-3.6,0.1c0,1-0.1,2-0.2,3c-0.1,1.3-0.3,2.6-0.3,3.9
		c-0.1,1.1-0.2,3.6-0.2,3.8c0.1,0.4,4,0.1,4.5,0.1c0.5,0,1.4,0.1,1.5,0.7c0.1,0.6-0.7,1-1.1,1.1c-1.9,0.4-3,0.4-4.9,0.4
		c-0.1,1.2-0.2,1.9-0.3,3.1c-0.4,3.7-1.2,14.6-1.2,16.2c0,1.1-0.2,2.2-0.2,3.3c0.3-0.1,0.6-0.1,0.6-0.1c2.1-0.4,4.1-1,6.1-1.5
		c0.9-0.2,2.2,0,1.3,1.1c-0.4,0.5-1.2,0.7-1.8,1c-1.4,0.5-2.8,0.7-4.2,1.1c-1.6,0.5-3.2,0.9-4.7,1.4c-1.1,0.4-2.6,0.9-3-0.5
		c-0.1-0.2-0.2-0.5-0.2-0.8c-0.2-1.3-0.1-2.6-0.1-3.9c0.2-5.9,0.3-12,1.1-17.9c0.4-3.4,1.5-12.8,1.7-14.1c0.1-0.9,0.5-2,1.1-2.7
		c0.6-0.7,1.6-0.5,2.5-0.5c1.1,0,2.3,0,3.4-0.1c1.8-0.1,4.5-0.1,6.3-0.2c0.6-0.1,1.7-0.3,2,0.4C71.2,45.6,70.3,45.8,69.5,45.9z"/>
	<path class="st2" d="M81.6,56.6c0.4-0.7,0.7-1.5,1.1-2.3c0.7-1.8,0.6-3.4-0.3-5c-1.1-1.9-3.4-2.1-5.1-0.9c-1.7,1.2-2.6,3.5-2.7,5.4
		c-0.2,4.2,1.2,7.8,3,11.5c1.2,2.5,2.1,4.6,3.2,7.9c1.2,0,10-4.3,10-3.4c0.1,1.4-3.4,2.8-5.2,3.6l-4.2,1.6c0.6,2.5,0.4,3.6,0.4,5.1
		c0,1.9-0.5,3.9-1.5,5.5c-1.2,1.9-3.5,2.6-5.5,2.9c-2.1,0.4-4.9-0.1-5.5-2.3c-1.4-4.4,3.4-9,7-11c0,0-4.2-9.3-5.1-12.6
		c-1.3-4.8-1.7-10.2,1.1-14.7c0.5-0.9,1.2-1.4,2-1.9c1.3-0.8,2.4-1.3,3.9-1.3c1.8,0,2.2,0.3,3.8,1.1c2.3,1.2,2.9,4.5,2.8,7
		c-0.1,1.2-0.5,2.5-1,3.5c-0.2,0.5-0.5,1.1-0.9,1.5c-0.4,0.4-1.2,1.1-1.7,0.5C81,58,80.9,57.8,81,57.6
		C81.2,57.2,81.4,56.9,81.6,56.6z M73.4,86.4c1.7,0.1,3-1.2,3.6-2.7c0.6-1.9,0.1-4.6-0.2-6.5c-1,0.4-4.8,2.9-5.4,5.9
		c-0.1,0.5-0.2,1-0.1,1.4C71.4,85.4,72.1,86.3,73.4,86.4z"/>
	<path class="st2" d="M121.8,54.7c-0.7,2.4-2,4.6-3.6,6.5c-1.7,1.9-4.2,3.9-6.8,4.8c0.1,2,0.1,3.9,0.2,6c0.3,4.4,1.1,9.1,0.9,13.5
		c0,0.5-0.1,1-0.6,1.2c-0.9,0.4-2.5,0.6-3.2-0.3c-0.5-0.6-0.6-2.2-0.7-2.9c-0.8-4.4-0.9-8.8-1.3-13.2c-0.3-3.5-0.9-15.9-0.9-18.7
		c0-1.5-0.3-3.3,0.3-4.7c0.7-2.2,3.9-1.7,5.7-1.8c2.5-0.3,5.5-1,7.8,0.4C123,47.4,122.8,51.4,121.8,54.7z M120.2,51.3
		c0-1.4-0.5-6.8-8.9-4.6c0.1,0.9,0.1,12.9,0.1,17C112.1,63.3,120.2,59.8,120.2,51.3z"/>
	<path class="st2" d="M139.1,45.9c-1.7,0.2-3.4,0.2-5.1,0.3c-1.1,0.1-2.5,0.2-3.6,0.1c0,1-0.1,2-0.2,3c-0.1,1.3-0.3,2.6-0.3,3.9
		c-0.1,1.1-0.2,3.6-0.2,3.8c0.1,0.4,4,0.1,4.5,0.1c0.5,0,1.4,0.1,1.5,0.7c0.1,0.6-0.7,1-1.1,1.1c-1.9,0.4-3,0.4-4.9,0.4
		c-0.1,1.2-0.2,1.9-0.3,3.1c-0.4,3.7-1.2,14.6-1.2,16.2c0,1.1-0.2,2.2-0.2,3.3c0.3-0.1,0.6-0.1,0.6-0.1c2.1-0.4,4.1-1,6.1-1.5
		c0.9-0.2,2.2,0,1.3,1.1c-0.4,0.5-1.2,0.7-1.8,1c-1.4,0.5-2.8,0.7-4.2,1.1c-1.6,0.5-3.2,0.9-4.7,1.4c-1.1,0.4-2.6,0.9-3-0.5
		c-0.1-0.2-0.2-0.5-0.2-0.8c-0.2-1.3-0.1-2.6-0.1-3.9c0.2-5.9,0.3-12,1.1-17.9c0.4-3.4,1.5-12.8,1.7-14.1c0.1-0.9,0.5-2,1.1-2.7
		c0.6-0.7,1.6-0.5,2.5-0.5c1.1,0,2.3,0,3.4-0.1c1.8-0.1,4.5-0.1,6.3-0.2c0.6-0.1,1.7-0.3,2,0.4C140.8,45.6,139.9,45.8,139.1,45.9z"
		/>
	<path class="st2" d="M150.4,46.5c0,0.1-7-0.3-7-0.3c-0.7-0.1-1.7,0.1-2.3-0.4c-0.6-0.6-0.1-1.1,0.6-1.2c2-0.5,5.7-0.1,9-0.1
		c3.3,0,6.3-0.1,9.5,0.2c0.9,0.1,4.6-0.1,4.7,1.1s-3,1.1-3.7,1.1c-0.3,0-5.4-0.5-5.4-0.4c-0.2,1.2,0.1,2.6-0.1,3.8
		c-0.1,1.5,0,3.1-0.1,4.7c-0.1,3.2-0.3,6.4-0.4,9.6c-0.1,3-0.4,6-0.4,8.9c0.1,2.4,0.3,4.7,0.5,7.1c0.1,1.8,0.2,3.5,0.3,5.2
		c0.1,0.8,0.3,1.5,0.3,2.3c0,0.6-0.3,1.2-1.1,1.2c-0.6,0-1.3-0.6-1.7-1.1c-0.4-0.5-0.7-1-1.1-1.6c-1.2-2.6-2.1-5.1-2.3-8
		c-0.5-8.8-0.5-21.3,0.7-30c0.1-0.3,0.2-1.3,0.1-1.9C150.5,46.6,150.5,46.5,150.4,46.5z"/>
	<path class="st2" d="M181.2,86.5c-0.2,0.9-2.9,0.5-3.3,0.5c-3.6,0-6.8,0.3-10.3,0.1c-0.6-0.1-2.7-0.1-3.3-0.7
		c-1.4-1.5,3.2-1.4,3.7-1.3c0.4,0,1,0.1,1.4,0.1c0,0-0.1-1.9,0-3.1c0.2-3.8,0.2-7.6,0.3-11.4l0.3-7.9c0.1-1.4,0-2.8,0.1-4.2
		c0.2-3,0.4-11,0.5-12.2c-0.7,0-1.8-0.1-2.4-0.1c-0.6,0-1.5,0.3-2-0.2c-0.4-0.3-0.3-1.1-0.1-1.4c0.4-0.5,2-0.3,2.6-0.3
		c0.9,0.1,1.7,0.1,2.5,0.1h0.6c0.2,0,0.4,0,0.5,0.1h0.3c1.9,0,3.7-0.1,5.6,0c0.7,0.1,1.6,0.5,0.9,1.4c-0.4,0.5-1.2,0.2-1.8,0.2
		c-0.8,0-1.1,0.1-1.8,0.2c0.1,0.2-0.2,3.9-0.1,5.4c0.1,1.2,0.2,2.4,0.1,3.6c-0.1,3.9-0.3,7.8-0.3,11.8c-0.1,2.5,0,15.1-0.2,16.9
		c-0.1,0.4-0.1,0.8-0.1,1.3c1.3-0.1,2.8-0.2,4.2-0.1C179.5,85.2,181.5,85.4,181.2,86.5z"/>
	<path class="st2" d="M190.4,46.5c0,0.1-7-0.3-7-0.3c-0.7-0.1-1.7,0.1-2.3-0.4c-0.6-0.6-0.1-1.1,0.6-1.2c2-0.5,5.7-0.1,9-0.1
		c3.3,0,6.3-0.1,9.5,0.2c0.9,0.1,4.6-0.1,4.7,1.1c0.1,1.2-3,1.1-3.7,1.1c-0.3,0-5.4-0.5-5.4-0.4c-0.2,1.2,0.1,2.6-0.1,3.8
		c-0.1,1.5,0,3.1-0.1,4.7c-0.1,3.2-0.3,6.4-0.4,9.6c-0.1,3-0.4,6-0.4,8.9c0.1,2.4,0.3,4.7,0.5,7.1c0.1,1.8,0.2,3.5,0.3,5.2
		c0.1,0.8,0.3,1.5,0.3,2.3c0,0.6-0.3,1.2-1.1,1.2c-0.6,0-1.3-0.6-1.7-1.1c-0.4-0.5-0.7-1-1.1-1.6c-1.2-2.6-2.1-5.1-2.3-8
		c-0.5-8.8-0.5-21.3,0.7-30c0.1-0.3,0.2-1.3,0.1-1.9C190.5,46.6,190.5,46.5,190.4,46.5z"/>
	<path class="st2" d="M215.8,56.6c0.4-0.7,0.7-1.5,1.1-2.3c0.7-1.8,0.6-3.4-0.3-5c-1.1-1.9-3.4-2.1-5.1-0.9
		c-1.7,1.2-2.6,3.5-2.7,5.4c-0.2,4.2,1.2,7.8,3,11.5c1.2,2.5,2.1,4.6,3.2,7.9c1.2,0,10-4.3,10-3.4c0.1,1.4-3.4,2.8-5.2,3.6l-4.2,1.6
		c0.6,2.5,0.4,3.6,0.4,5.1c0,1.9-0.5,3.9-1.5,5.5c-1.2,1.9-3.5,2.6-5.5,2.9c-2.1,0.4-4.9-0.1-5.5-2.3c-1.4-4.4,3.4-9,7-11
		c0,0-4.2-9.3-5.1-12.6c-1.3-4.8-1.7-10.2,1.1-14.7c0.5-0.9,1.2-1.4,2-1.9c1.3-0.8,2.4-1.3,3.9-1.3c1.8,0,2.2,0.3,3.8,1.1
		c2.3,1.2,2.9,4.5,2.8,7c-0.1,1.2-0.5,2.5-1,3.5c-0.2,0.5-0.5,1.1-0.9,1.5c-0.4,0.4-1.2,1.1-1.7,0.5c-0.2-0.2-0.2-0.4-0.1-0.7
		C215.4,57.2,215.7,56.9,215.8,56.6z M207.6,86.4c1.7,0.1,3-1.2,3.6-2.7c0.6-1.9,0.1-4.6-0.2-6.5c-1,0.4-4.8,2.9-5.4,5.9
		c-0.1,0.5-0.2,1-0.1,1.4C205.7,85.4,206.4,86.3,207.6,86.4z"/>
	<path class="st2" d="M251.4,56.5l0.2-0.2c0.3-0.1,0.7,0.1,1,0.1c0.3,0.1,0.6,0.1,1,0.2c1.7,0.5,1.4,0.9,1.3,2.6
		c-0.1,1.8-0.4,2.8-0.3,4.6l3.5-0.1c0.8,0,1.9,0,2.6,0.4c0.8,0.5-0.5,0.8-0.9,0.9c-0.9,0.2-5.1,0.5-5.1,0.6v0.9v4.4
		c0,0.6-0.1,1.2,0,1.8c0.1,0.5,0.1,1.1-0.1,1.5c-0.2,0.3-0.4,0.3-0.7,0.3c-0.3,0.1-0.7,0.2-1,0.1c-0.7-0.1-1.3-0.4-1.8-0.9
		c-0.6-0.5-0.8-2.2-0.8-2.2c-0.1-2.1-0.1-2.7-0.1-5.4c-1.6,0.2-4.1,0.4-4.9,0.2c-0.3-0.1-0.9-0.2-1.1-0.5c-0.4-0.7,0.5-0.8,1-0.9
		c0.7-0.2,3.6-0.5,5-0.8c0.2-1.9,0.4-3,0.7-4.9c0.1-0.5,0.1-1.1,0.2-1.7C251,57.3,251,56.8,251.4,56.5z"/>
</g>
</svg>
