<svg xmlns="http://www.w3.org/2000/svg" xmlns:xlink="http://www.w3.org/1999/xlink" width="9.812" height="3.727" viewBox="0 0 9.812 3.727">
  <defs>
    <clipPath id="clip-Plan_de_travail_1">
      <rect width="50" height="19"/>
    </clipPath>
  </defs>
  <g id="Plan_de_travail_1" data-name="Plan de travail 1" clip-path="url(#clip-Plan_de_travail_1)">
    <rect width="50" height="19" fill="none"/>
    <g id="Groupe_1" data-name="Groupe 1">
      <path id="Tracé_1" data-name="Tracé 1" d="M1.316.12a.263.263,0,0,1,.132.216V.4a.409.409,0,0,0,.06.288,1.211,1.211,0,0,1,.084.18.621.621,0,0,1,.072.156c.036.179.132.347.192.588a.082.082,0,0,0,.072.047c.1,0,.2-.012.3-.012a8.12,8.12,0,0,1,.948-.035h.792C3.979,1.608,4,1.6,4,1.583s0-.036-.012-.036a.47.47,0,0,0-.12-.1,2.043,2.043,0,0,1-.24-.2c-.1-.1-.192-.18-.276-.276A.7.7,0,0,1,3.163.336.247.247,0,0,1,3.415.12a.714.714,0,0,1,.612.3,1.782,1.782,0,0,1,.119.216,2.438,2.438,0,0,1,.133.312,2.146,2.146,0,0,0,.2.455.9.9,0,0,1,.084.144.136.136,0,0,0,.108.072c.024,0,.06.012.084.012h.048c.468.024.948.048,1.416.036a.257.257,0,0,0,.131-.024.021.021,0,0,0,0-.035c-.012-.013-.024-.037-.048-.049-.047-.024-.107-.035-.156-.06a2.248,2.248,0,0,1-.611-.443A.792.792,0,0,1,5.346.624.386.386,0,0,1,5.61.2a.37.37,0,0,1,.228,0,.826.826,0,0,1,.431.348,2.522,2.522,0,0,1,.156.312,2.074,2.074,0,0,0,.42.695.206.206,0,0,0,.084.06.154.154,0,0,0,.12.048c.216-.024.432.012.648-.024.047,0,.1.012.144.012.215,0,.419.012.635.012a.52.52,0,0,1,.06-.012l.012-.012A.073.073,0,0,0,8.536,1.6a.486.486,0,0,1-.108-.06,1.961,1.961,0,0,1-.492-.263A1.935,1.935,0,0,1,7.553.888.725.725,0,0,1,7.433.5.341.341,0,0,1,7.481.36.365.365,0,0,1,7.744.132a.368.368,0,0,1,.228.036A.756.756,0,0,1,8.14.276a2.624,2.624,0,0,1,.552.708,2.443,2.443,0,0,0,.348.491.411.411,0,0,0,.371.18h.265c.06,0,.131.024.119.048.012.012.025.036.012.036a.1.1,0,0,1-.023.06.234.234,0,0,1-.1.036h-.4a.266.266,0,0,0-.132.06,3.58,3.58,0,0,0-.408.444c-.168.24-.336.468-.492.708a1.657,1.657,0,0,1-.467.443.268.268,0,0,1-.193.036.178.178,0,0,1-.155-.156.265.265,0,0,1,0-.192.621.621,0,0,1,.131-.263,2.486,2.486,0,0,1,.576-.54q.234-.162.432-.324a1.2,1.2,0,0,0,.12-.132c.024-.012,0-.06-.024-.06A.234.234,0,0,0,8.6,1.847H7.96a6.244,6.244,0,0,0-.815-.012.538.538,0,0,0-.132.012.121.121,0,0,0-.084.048,5.351,5.351,0,0,0-.66.8c-.06.1-.131.2-.192.3a2.934,2.934,0,0,1-.371.479,1.347,1.347,0,0,1-.264.192.688.688,0,0,1-.168.048.176.176,0,0,1-.156-.072.335.335,0,0,1-.072-.216.751.751,0,0,1,.18-.515,2.228,2.228,0,0,1,.324-.348,6.78,6.78,0,0,1,.672-.492,2.029,2.029,0,0,0,.167-.132A.072.072,0,0,0,6.4,1.895c-.012-.012-.024-.024-.035-.024A.094.094,0,0,0,6.3,1.859c-.156-.012-.3-.024-.456-.024-.191.012-.383,0-.575,0s-.348-.012-.516-.024a.21.21,0,0,0-.228.1c-.24.36-.527.66-.791,1a1.2,1.2,0,0,1-.252.241.583.583,0,0,1-.312.108.286.286,0,0,1-.3-.276.546.546,0,0,1,.12-.384,1.688,1.688,0,0,1,.528-.48c.108-.06.2-.132.312-.192.012-.012.024-.036.036-.048s0-.048-.012-.06c-.036,0-.06-.012-.084-.012a9.691,9.691,0,0,0-1.32,0,2.2,2.2,0,0,1-.275.012c-.192.024-.18.024-.276.18s-.192.336-.288.492c-.132.216-.24.443-.372.671-.06.121-.132.228-.2.348a.47.47,0,0,1-.1.12.384.384,0,0,1-.36.1.248.248,0,0,1-.179-.275.092.092,0,0,1,.012-.061,1.988,1.988,0,0,1,.216-.467,4.932,4.932,0,0,1,.575-.648c.132-.12.288-.3.432-.408.012-.012.024-.024.012-.036S1.628,1.8,1.616,1.8c-.036,0-.072.012-.108.012-.12.012-.24.012-.36.012H1.076c-.251.012-.708.012-.959.012-.192,0-.108-.18-.024-.18.24.012.971.024,1.211.012.036-.012.072-.012.108-.024a.026.026,0,0,0,.024-.024.045.045,0,0,0-.012-.036c0-.012-.012-.024-.024-.036s-.06-.048-.084-.072a.251.251,0,0,1-.072-.048A4.026,4.026,0,0,1,.836.936,1.6,1.6,0,0,1,.609.288.193.193,0,0,1,.62.2.18.18,0,0,1,.764.036C.788.024.825.036.848.024,1.16-.036,1.112.024,1.316.12Z" fill="#cfa438"/>
    </g>
  </g>
</svg>
