<?xml version="1.0" encoding="UTF-8"?>
<svg width="165px" height="8px" viewBox="0 0 165 8" version="1.1" xmlns="http://www.w3.org/2000/svg" xmlns:xlink="http://www.w3.org/1999/xlink">
    <title>liseret-link-home</title>
    <g id="Page-1" stroke="none" stroke-width="1" fill="none" fill-rule="evenodd">
        <g id="liseret-link-home">
            <path d="M4.27522937,5 C5.81651378,3.97260275 7.87155963,2.60273974 10,2.60273974 L10,0 C6.55045872,0 3.76146789,1.71232877 2,3.15068494 C3.10091744,3.21917809 4.05504588,4.10958906 4.27522937,5 Z M1.96226415,8 C3.09433962,8 4,7.09433962 4,5.96226414 C4,4.90566038 3.09433962,4 1.96226415,4 C0.905660377,4 0,4.90566038 0,5.96226414 C0,7.09433962 0.905660377,8 1.96226415,8 Z M15.7247707,5 C15.9449541,4.10958906 16.8990826,3.21917809 18,3.15068494 C16.2385321,1.71232877 13.4495413,0 10,0 L10,2.60273974 C12.1284404,2.60273974 14.1834862,3.97260275 15.7247707,5 Z M18.0377358,8 C19.0943396,8 20,7.09433962 20,5.96226414 C20,4.90566038 19.0943396,4 18.0377358,4 C16.9056604,4 16,4.90566038 16,5.96226414 C16,7.09433962 16.9056604,8 18.0377358,8 Z M28.2752294,5 C29.8165138,3.97260275 31.8715596,2.60273974 34,2.60273974 L34,0 C30.5504587,0 27.7614679,1.71232877 26,3.15068494 C27.1009174,3.21917809 28.0550459,4.10958906 28.2752294,5 Z M25.9622641,8 C27.0943396,8 28,7.09433962 28,5.96226414 C28,4.90566038 27.0943396,4 25.9622641,4 C24.9056604,4 24,4.90566038 24,5.96226414 C24,7.09433962 24.9056604,8 25.9622641,8 Z M39.7247707,5 C39.9449541,4.10958906 40.8990826,3.21917809 42,3.15068494 C40.2385321,1.71232877 37.4495413,0 34,0 L34,2.60273974 C36.1284404,2.60273974 38.1834862,3.97260275 39.7247707,5 Z M42.0377358,8 C43.0943396,8 44,7.09433962 44,5.96226414 C44,4.90566038 43.0943396,4 42.0377358,4 C40.9056604,4 40,4.90566038 40,5.96226414 C40,7.09433962 40.9056604,8 42.0377358,8 Z M52.2752294,5 C53.8165139,3.97260275 55.8715596,2.60273974 58,2.60273974 L58,0 C54.5504586,0 51.7614679,1.71232877 50,3.15068494 C51.1009175,3.21917809 52.0550459,4.10958906 52.2752294,5 Z M49.9622641,8 C51.0943396,8 52,7.09433962 52,5.96226414 C52,4.90566038 51.0943396,4 49.9622641,4 C48.9056604,4 48,4.90566038 48,5.96226414 C48,7.09433962 48.9056604,8 49.9622641,8 Z M62.7247703,5 C62.9449539,4.10958906 63.8990822,3.21917809 65,3.15068494 C63.2385318,1.71232877 60.4495411,0 57,0 L57,2.60273974 C59.1284402,2.60273974 61.1834863,3.97260275 62.7247703,5 Z M66.0377357,8 C67.0943395,8 68,7.09433962 68,5.96226414 C68,4.90566038 67.0943395,4 66.0377357,4 C64.9056605,4 64,4.90566038 64,5.96226414 C64,7.09433962 64.9056605,8 66.0377357,8 Z M76.2752293,5 C77.816514,3.97260275 79.8715596,2.60273974 82,2.60273974 L82,0 C78.5504586,0 75.7614678,1.71232877 74,3.15068494 C75.1009173,3.21917809 76.0550456,4.10958906 76.2752293,5 Z M73.962264,8 C75.0943394,8 76,7.09433962 76,5.96226414 C76,4.90566038 75.0943394,4 73.962264,4 C72.9056601,4 72,4.90566038 72,5.96226414 C72,7.09433962 72.9056601,8 73.962264,8 Z M86.7247707,5 C86.9449544,4.10958906 87.8990827,3.21917809 89,3.15068494 C87.2385322,1.71232877 84.4495414,0 81,0 L81,2.60273974 C83.1284404,2.60273974 85.183486,3.97260275 86.7247707,5 Z M89.037736,8 C90.0943399,8 91,7.09433962 91,5.96226414 C91,4.90566038 90.0943399,4 89.037736,4 C87.9056606,4 87,4.90566038 87,5.96226414 C87,7.09433962 87.9056606,8 89.037736,8 Z M100.27523,5 C101.816514,3.97260275 103.87156,2.60273974 106,2.60273974 L106,0 C102.550459,0 99.7614682,1.71232877 98,3.15068494 C99.1009178,3.21917809 100.055046,4.10958906 100.27523,5 Z M96.9622643,8 C98.0943395,8 99,7.09433962 99,5.96226414 C99,4.90566038 98.0943395,4 96.9622643,4 C95.9056605,4 95,4.90566038 95,5.96226414 C95,7.09433962 95.9056605,8 96.9622643,8 Z M110.724771,5 C110.944954,4.10958906 111.899082,3.21917809 113,3.15068494 C111.238532,1.71232877 108.449541,0 105,0 L105,2.60273974 C107.12844,2.60273974 109.183486,3.97260275 110.724771,5 Z M113.037735,8 C114.094339,8 115,7.09433962 115,5.96226414 C115,4.90566038 114.094339,4 113.037735,4 C111.90566,4 111,4.90566038 111,5.96226414 C111,7.09433962 111.90566,8 113.037735,8 Z M123.275229,5 C124.816514,3.97260275 126.87156,2.60273974 129,2.60273974 L129,0 C125.550459,0 122.761468,1.71232877 121,3.15068494 C122.100917,3.21917809 123.055046,4.10958906 123.275229,5 Z M120.962264,8 C122.09434,8 123,7.09433962 123,5.96226414 C123,4.90566038 122.09434,4 120.962264,4 C119.905661,4 119,4.90566038 119,5.96226414 C119,7.09433962 119.905661,8 120.962264,8 Z M134.724771,5 C134.944954,4.10958906 135.899083,3.21917809 137,3.15068494 C135.238532,1.71232877 132.449541,0 129,0 L129,2.60273974 C131.12844,2.60273974 133.183487,3.97260275 134.724771,5 Z M137.037736,8 C138.09434,8 139,7.09433962 139,5.96226414 C139,4.90566038 138.09434,4 137.037736,4 C135.905661,4 135,4.90566038 135,5.96226414 C135,7.09433962 135.905661,8 137.037736,8 Z M147.275229,5 C148.816513,3.97260275 150.87156,2.60273974 153,2.60273974 L153,0 C149.550459,0 146.761468,1.71232877 145,3.15068494 C146.100917,3.21917809 147.055046,4.10958906 147.275229,5 Z M144.962264,8 C146.094339,8 147,7.09433962 147,5.96226414 C147,4.90566038 146.094339,4 144.962264,4 C143.90566,4 143,4.90566038 143,5.96226414 C143,7.09433962 143.90566,8 144.962264,8 Z M158.724771,5 C158.944954,4.10958906 159.899083,3.21917809 161,3.15068494 C159.238532,1.71232877 156.449541,0 153,0 L153,2.60273974 C155.12844,2.60273974 157.183486,3.97260275 158.724771,5 Z M161.037736,8 C162.094339,8 163,7.09433962 163,5.96226414 C163,4.90566038 162.094339,4 161.037736,4 C159.90566,4 159,4.90566038 159,5.96226414 C159,7.09433962 159.90566,8 161.037736,8 Z" id="RTRTRTRTRTRTRT" fill="#5A5C6A" fill-rule="nonzero"></path>
            <line x1="2.26644737" y1="5.5" x2="163.733553" y2="5.5" id="Line" stroke="#5A5C6A" stroke-linecap="square"></line>
        </g>
    </g>
</svg>