<?xml version="1.0" encoding="utf-8"?>
<!-- Generator: Adobe Illustrator 21.0.2, SVG Export Plug-In . SVG Version: 6.00 Build 0)  -->
<svg version="1.1" id="couleurs_corps" xmlns="http://www.w3.org/2000/svg" xmlns:xlink="http://www.w3.org/1999/xlink" x="0px"
	 y="0px" viewBox="0 0 399.3 322.5" style="enable-background:new 0 0 399.3 322.5;" xml:space="preserve">
<style type="text/css">
	.st0{fill:#EEC877;}
	.st1{fill:#AED3DB;}
	.st2{fill:#5A5C6A;}
</style>
<g>
	<path class="st0" d="M269.7,217.4H262l-0.1-7.6c-0.9-84.7-0.6-92.5-0.2-93.2l0.9,0.4l1,0.3c-0.6,2.8,0.1,70.3,0.4,92.5l0.1,5.6h5.8
		V217.4z"/>
	<polygon class="st0" points="286.6,171.9 283.8,165.7 222.3,160.1 253.5,114.1 255.2,115.2 225.9,158.4 285.2,163.8 288.4,171.1 	
		"/>
	<polygon class="st1" points="235.1,64.7 252.2,68.2 269.3,82.4 269.7,88 251.3,82.2 	"/>
	<path class="st1" d="M279.7,11.2c0.5,0.2,12.1,15.1,12.1,15.1l-2.9,8.3l-4.5-4.7L279.7,11.2z"/>
	<polygon class="st2" points="261.7,11.2 278.3,10.4 283,29.9 278.8,35.5 268,26.3 	"/>
	<polygon class="st0" points="252.1,25.1 260.8,11.5 267.4,27.2 264,34.4 	"/>
	<polygon class="st1" points="255,44.2 279.4,79.7 287.7,101.6 290.7,72.9 263.5,35 251.9,25.9 	"/>
	<polygon class="st2" points="258.6,120.8 286.1,101 277.5,78.4 270.3,83.6 270.6,89.2 265,94.8 	"/>
	<polygon class="st0" points="254.9,103.2 269,88.6 251.1,83 199.1,102.9 	"/>
	<polygon class="st1" points="212.3,105.1 256.6,122.7 263.2,96.1 254.2,105 	"/>
	<polygon class="st0" points="280.3,36.5 284.4,30.9 288.9,35.6 287.3,46.6 277,53.5 280.6,43.5 	"/>
	<polygon class="st2" points="194.8,102.6 208.6,83.2 232.4,63.3 250.4,82.4 197.4,101.9 	"/>
</g>
<path class="st2" d="M83,156.1c-0.6,0.4-1.2,0.9-1.7,1.2c-0.9,0.6-1.9,1.3-2.9,1.9c-0.9,0.6-1.7,1.1-2.6,1.6
	c-0.8,0.4-1.7,0.9-2.5,1.4c-0.4,0.3-0.9,0.4-1.4,0.6c-0.4,0.1-0.9,0.4-1.4,0.6c-0.3,0.1-0.5,0.2-0.6,0.4c-0.2,0.1-0.4,0.2-0.6,0.3
	c-0.1,0.5,0,0.9,0.2,1.3c0.1,0.3,0.4,0.6,0.6,1c0.4,0.7,0.7,1.6,0.9,2.4c0.1,0.5,0.2,1,0.3,1.5c0.1,0.4,0.2,0.9,0.4,1.4
	c0.1,0.6,0.1,1.2,0.1,1.7c0.1,0.6,0.1,1.2,0.1,1.7v0.4c0.1,0.6,0.1,1.2-0.1,1.7c-0.2,0.5-0.4,1.1-0.6,1.7c-0.1,0.9-0.5,1.7-0.9,2.4
	c-0.4,0.7-0.9,1.4-1.4,2.2c-0.1,0.2-0.4,0.5-0.5,0.7c-0.2,0.2-0.4,0.4-0.7,0.7c-1.6,1.8-3.5,3.1-5.5,3.9c-1.4,0.5-2.7,0.9-4,1.2
	c-1.4,0.2-2.7,0.4-4.2,0.5c-2.2,0.1-4.3-0.1-6.3-0.9c-0.7-0.3-1.4-0.6-2.2-0.9c-0.6-0.4-1.4-0.7-2-1.2c-2-1.1-3.2-2.8-3.7-5.3
	c-0.1-0.8-0.1-1.5,0.1-2.2c0.1-0.6,0.4-1.4,0.7-2.1c0.6-1.5,1.5-3,2.5-4.1c1-1.2,2.2-2.4,3.5-3.5c1-0.8,2.1-1.6,3.2-2.2
	c1.2-0.6,2.3-1.2,3.5-1.7c0.9-0.4,1.8-0.8,2.7-1.2c0.9-0.4,1.8-0.8,2.7-1.2c0.1,0,0.2,0,0.2-0.1c0,0,0.1-0.1,0.2-0.1
	c0-0.1-0.1-0.4-0.1-0.4c-0.6-1-1.1-2-1.6-3c-1.5-3.2-4-5.7-6.3-8.2c-1.9-2.1-3.7-4.2-5.5-6.3c-2.7-3-5.8-6-6.3-10.2
	c-0.2-1.9-0.1-3.8,0.4-5.6c0.5-1.9,1-4.3,1.9-6c0.8-1.4,1.6-3.1,3.2-3.7c0.6-0.1,1.1-0.5,1.6-0.8c1.8-1.3,3.7-2.4,5.8-3.3
	c2.9-1.3,6-1.8,9.1-2c2.1-0.1,4,0.4,6,0.8c1.6,0.3,2.9,1.1,4.2,1.9c0.9,0.6,1.7,1.3,2.2,2.4c0.3,0.6,0.6,1.2,0.7,1.9
	c0.1,1.2,0.3,2.3,0.4,3.4c0,1.2,0,2.2-0.1,3.4c-0.1,1.4-0.4,2.8-0.6,4.2c-0.1,1.2-0.7,2.2-1.4,3.1c-0.6,0.9-1.2,1.8-2,2.5
	c-0.4,0.3-0.7,0.4-1.2,0.3c-0.2,0-0.5-0.2-0.6-0.4c0-0.2,0.1-0.6,0.3-0.6c0.6-0.4,0.9-1.2,1.2-1.8c0.6-1.7,1.1-3.3,1.4-5
	c0.4-1.7,0.3-3.3,0.3-5c0-0.3-0.1-0.6-0.1-0.9c-0.4-1.1-0.7-2.1-1-3.1c-0.2-0.9-0.6-1.5-1.4-1.9c-1.2-0.6-2.2-1.3-3.5-1.3
	c-0.5,0-0.9,0-1.4,0.1c-1.6,0.2-3.2,0.5-4.8,0.9c-0.7,0.1-1.4,0.4-2.2,0.6c-1.7,0.4-3.4,1.2-4.9,2.1c-0.8,0.4-1.4,1.1-2,1.7
	c-0.6,0.6-1.3,1.2-1.8,1.9c-0.4,0.5-0.7,1.1-0.9,1.7c-0.2,0.9-0.4,1.9-0.4,3c0,1.3-0.1,2.7,0.1,4c0,0.7,0.2,1.5,0.5,2.2
	c0.5,1.2,1.4,2.3,2.2,3.3c3,4.1,6.6,7.8,9.9,11.8c1.4,1.7,3,3.5,4.5,5c0.9,0.9,1.7,1.9,2.4,3.1c0.1,0.1,0.2,0.3,0.3,0.4
	c0.1,0.1,0.2,0.4,0.4,0.6c0.4-0.1,0.8-0.3,1.2-0.4c0.4-0.1,0.7-0.2,1.2-0.3c1.4-0.6,2.7-1.2,4-1.7c1.4-0.6,2.6-1.4,3.9-2.2
	c0.2-0.1,0.4-0.1,0.6-0.3c0.2-0.1,0.4-0.2,0.6-0.3c0.2-0.1,0.5-0.3,0.7-0.4c0.3-0.1,0.5-0.3,0.8-0.4c0.1-0.1,0.3-0.2,0.5-0.3
	C83,153.7,83.7,154.8,83,156.1z M63,173.8c-0.2-1.2-0.6-2.2-1.2-3.2c-0.5-1-1-2.2-1.4-3.3c0,0-0.1,0-0.1-0.1
	c-0.1,0.1-0.1,0.1-0.3,0.1c-0.1,0-0.2,0.1-0.3,0.1c-1,0.4-2,0.9-3,1.2c-0.9,0.4-1.9,0.8-2.9,1.2c-0.5,0.2-1.1,0.5-1.6,0.8
	s-1,0.5-1.6,0.8c-0.2,0.1-0.4,0.2-0.6,0.4c-0.1,0.1-0.4,0.3-0.6,0.5l-3.2,2.7c-0.2,0.3-0.4,0.5-0.7,0.7c-0.2,0.2-0.4,0.5-0.6,0.7
	c-0.2,0.1-0.4,0.3-0.6,0.4c-0.2,0.2-0.4,0.4-0.4,0.6c-0.3,0.4-0.5,0.8-0.7,1.2c-0.2,0.4-0.4,0.9-0.6,1.2c-0.1,0.4-0.1,0.8-0.1,1.3
	c0.1,0.5,0.2,0.9,0.4,1.4c0.1,0.4,0.3,0.9,0.4,1.4c0.2,1,0.9,1.7,2,2.2c1,0.5,2.1,0.9,3.2,1.1c0.4,0.1,0.8,0.3,1.3,0.3
	c0.4,0.1,0.9,0.1,1.4,0.1c1.2,0.1,2.2,0,3.4-0.4c1.1-0.4,2.2-0.8,3.2-1.4c1.3-0.7,2.4-1.7,3.3-2.7c0.9-1.1,1.5-2.4,1.8-3.9
	c0.3-0.9,0.4-1.9,0.5-2.8C63.3,175.8,63.2,174.8,63,173.8z"/>
<path class="st2" d="M126.8,157.6c-0.1,0.1-0.1,0.4-0.2,0.5c-0.1,0.1-0.1,0.4-0.1,0.5c-0.3,0.9-0.5,1.7-1.2,2.4
	c-0.6,0.7-1.4,1.3-2.2,1.9c-1,0.9-2,1.5-3.3,1.9c-0.1,0-0.4,0.1-0.5,0.1c-0.4,0.1-0.9,0.1-1.3,0.4c-0.6,0.3-1.1,0.3-1.7,0.1
	c-1.2-0.2-2.4-0.6-3.5-1.2c0,0-0.1,0-0.1,0c-0.3,0.2-0.4,0.5-0.5,0.9c-0.1,0.5-0.4,1-0.7,1.5c-0.2,0.4-0.5,0.9-0.6,1.3
	c-0.5,1.2-1.1,2.4-1.7,3.5c-0.7,1.3-1,2.7-2.1,3.7c-0.4,0.4-0.7,0.7-1,1.1c-0.6,0.8-1.8,1.3-2.7,1.2c-0.4-0.1-0.9,0-1.4,0.1
	c-0.4,0.1-0.9,0-1.4,0c-0.3-0.1-0.6-0.1-1-0.3c-1.1-0.5-2.3-0.9-3.4-1.5c-1.1-0.6-1.8-1.6-2.3-2.7c-0.4-1.2-0.6-2.6-0.7-3.9
	c-0.1-0.2-0.1-0.4-0.1-0.6c-0.2-0.1-0.3,0-0.4,0.1c-0.2,0.3-0.4,0.6-0.6,1c-0.5,1.4-1.6,2.4-3,2.9c-1.2,0.4-3.5,0.8-4.5-0.1
	c-0.2-0.2-0.4-0.4-0.7-0.6c-2.7-1.9-3-4.7-3.2-7.8c0-0.1,0-0.3,0-0.4c0-0.3,0.1-0.6,0.1-1c0-0.7,0-1.4,0.1-2.1
	c0.1-0.4,0.1-0.6,0.1-1c-0.1-0.7-0.1-1.5,0.1-2.2c0-0.1,0.1-0.2,0.1-0.4c-0.1-0.9,0.1-1.9,0.4-2.9c0.5-2.6,1-5.3,1.6-7.8
	c0.1-0.6,0.4-1.2,0.5-1.7c0.1-0.4,0.4-0.5,0.8-0.5c0.5,0.1,1,0.1,1.5,0.3c0.1,0,0.3,0.1,0.4,0.2c0.6,0.6,1.2,1.2,1.3,2
	c0.1,0.6,0.3,1.1,0.5,1.7c0.1,0.3,0.2,0.5,0.3,0.8c0.1,0.4,0.2,0.7,0.1,1c-0.1,0.6,0,1.2,0.1,1.8c0.1,0.1,0.1,0.4,0.1,0.5
	c-0.1,0.5-0.1,1-0.1,1.6c0,0.4-0.1,0.9-0.1,1.3c0,0.3-0.1,0.6,0,0.9c0,0.8-0.1,1.6-0.3,2.3c-0.3,1.4-0.1,2.9-0.3,4.2
	c-0.3,1.7-0.7,3.7-0.6,5.5c0.1,0.4,0.1,0.7,0.1,1.2c0,0.1,0,0.4,0.1,0.5c0.1,0.3,0.4,0.4,0.6,0.1c0.4-0.4,0.9-0.8,1.2-1.4
	c0.6-1,1.2-2,1.8-3.1c0.1-0.3,0.4-0.6,0.5-0.9c0.2-0.4,0.4-0.7,0.6-1.2c0.2-0.3,0.3-0.6,0.4-0.9c0.6-0.9,0.8-1.9,1-3
	c0.1-1.3,0.4-2.6,0.6-3.9c0-0.1,0.1-0.2,0.1-0.4c0.4-1,0.6-1.9,1-3c0.2-0.6,0.5-1.2,0.7-1.9c0.1-0.4,0.4-0.6,0.7-0.7
	c0.5-0.2,1-0.4,1.5-0.4c0.5-0.1,0.9,0.1,1,0.6c0.1,0.4,0.1,0.6,0.1,1c0,0.5,0,0.9,0.1,1.4c0.1,0.6,0.2,1.4,0.4,2.1
	c0.4,2.7,0.6,5.3,0.6,8.1c0,2.7,0.1,5.5-0.1,8.2c-0.1,0.3-0.1,0.6,0.1,1c0.1,0.4,0.3,0.6,0.4,1c0.2,0.7,0.7,1.2,1.3,1.5
	c0.4,0.2,0.7,0.3,1.1,0.4c0.1,0,0.2,0,0.3-0.1c0.1-0.1,0.2-0.1,0.4-0.3c0.6-0.8,1.4-1.6,2.1-2.4c0.9-1.1,1.7-2.2,2.4-3.5
	c0.7-1.1,1.3-2.2,1.9-3.5c0.3-0.5,0.6-1.2,0.9-1.7c-0.1-0.1-0.1-0.3-0.3-0.4c-0.6-0.6-1.1-1.3-1.4-2c-0.6-1.2-1-2.4-1.2-3.6
	c-0.2-0.9-0.3-1.9-0.4-2.9c0-0.1,0-0.1,0-0.3c0.1-0.5,0.1-1.1,0.1-1.7c0-1.3,0.2-2.4,0.6-3.7c0.2-0.9,0.6-1.7,0.9-2.5
	c0.8-0.4,1.6-0.4,2.4-0.4c0.5,0,0.9,0,1.4,0c0.4-0.1,0.6,0,0.8,0.3c0.3,0.2,0.4,0.6,0.8,0.6c0.5,0.6,0.9,1.3,0.7,2.2
	c-0.1,0.6-0.1,1.3,0.1,2c0.1,0.4,0.1,0.8,0.1,1.2c-0.1,0.7-0.1,1.4-0.3,2.2c-0.1,0.5-0.1,1-0.4,1.4c-0.2,0.6-0.3,1.3-0.4,1.9
	c-0.1,0.8-0.2,1.6-0.5,2.3c-0.2,0.4-0.2,0.9,0.1,1.3c0.1,0.2,0.1,0.4,0.3,0.6c0.4,0.6,0.9,1.1,1.5,1.3c3.8,1.4,7.1-2.3,9-5
	c0.4-0.7,0.9-1.4,1.2-2.2c0.4-0.6,0.6-0.7,1.4-0.6C127.6,156.3,127.3,157,126.8,157.6z M113.4,149.1c-0.1,0.4-0.1,0.9-0.1,1.3
	c0,0.4,0,0.6,0,1c0,0.2,0,0.5,0,0.7c-0.1,0.6-0.1,1.2-0.1,1.7c0,0.6,0.1,1.2,0.1,1.7c0.1,0.4,0,0.7,0.1,1.1c0.1-0.2,0.2-0.4,0.2-0.6
	c0.1-0.7,0.3-1.4,0.4-2.1c0-0.1,0.1-0.1,0.1-0.3c0.1-1.2,0.2-2.4,0.1-3.7c0-0.5-0.1-0.9-0.6-1.4C113.4,148.8,113.4,149,113.4,149.1z
	"/>
<path class="st2" d="M148.1,155.7c-0.1,0.2-0.1,0.4-0.3,0.6c-0.6,0.7-1,1.5-1.4,2.4c-0.1,0.1-0.1,0.2-0.1,0.3c0,0.9-0.6,1.4-0.9,2.2
	c-0.4,0.5-0.6,1.2-1.1,1.8c-2.2,2.7-3.2,6-6.2,8.1c-2.2,1.7-4.5,3.9-7.6,3.7c-1.1-0.1-2.1-0.5-3.2-0.8c-0.1,0-0.1-0.1-0.3-0.1
	c-0.9-0.6-1.7-1.2-2.3-2c-0.9-1.4-1.4-2.9-1.4-4.5c-0.1-1.9-0.1-3.7,0.1-5.5c0.1-1.2,0.3-2.4,0.4-3.5c0-0.3,0.1-0.5,0.1-0.8
	c0.3-1.2,0.5-2.3,0.7-3.5c0.4-1.5,0.9-2.9,1.5-4.3c0.1-0.2,0.2-0.4,0.3-0.6c0.4-0.4,0.6-0.9,0.9-1.4c0-0.1,0.1-0.1,0.1-0.2
	c0.3-1,1-1.9,1.8-2.6c0.1-0.1,0.4-0.3,0.5-0.4c1.2-0.6,2.4-1.2,3.8-1.4c0.8-0.1,1.5-0.4,2.3-0.2c0.4,0,0.9,0.1,1.2,0.1
	c0.1,0,0.3,0.1,0.4,0.1c4.7,0.1,2.6,8.6,0.1,10.5c-0.4,0.2-0.8,0.4-1.1,0.8c-0.1,0.1-0.2,0.2-0.4,0.2c-0.4,0.2-0.7,0.4-1.2,0.6
	c-0.9,0.3-1.7,0.6-2.4,0.8c-1.3,0.2-1.2,0.1-1.5,1.2c-0.1,0.4-0.1,0.6-0.1,0.9c0.1,3.7-2,9.5,0.2,12.7c0.4,0.5,0.9,0.9,1.4,1.1
	c0.3,0.2,0.6,0.1,0.9,0.1c0.6-0.2,1.3-0.5,1.9-0.9c0.9-0.6,1.7-1.2,2.4-1.7c0.4-0.3,0.6-0.6,0.9-0.9c0.9-1.2,1.7-2.2,2.4-3.5
	c0.1-0.3,0.4-0.5,0.5-0.7c1.2-1.4,1.9-3,2.9-4.4c0.1-0.2,0.3-0.4,0.4-0.6c0.5-1.2,1.2-2.2,1.9-3.2c0.1-0.3,0.4-0.6,0.8-0.6
	C147.8,155.3,147.9,155.5,148.1,155.7z M138.2,145.6c0-0.1-0.1-0.3-0.2-0.4c-0.7-0.7-1.5-1.2-2.6-1c-0.8,0.1-1.4,0.5-1.7,1.3
	s-0.7,1.6-0.8,2.5c0,0.2-0.1,0.5-0.2,0.7c-0.4,0.8-0.4,1.7-0.6,2.4c-0.1,0.6-0.1,1.2-0.4,1.8c-0.1,0.4-0.3,0.8-0.1,1.2
	c1.2-0.1,2.3-0.4,3.4-0.9c0.7-0.4,1.3-0.8,1.7-1.4c0.6-0.9,1.2-1.7,1.7-2.7c0.1-0.1,0.2-0.4,0.1-0.6c-0.1-0.4,0-0.6,0.1-1
	c0.1-0.2,0.1-0.5,0.2-0.7C138.6,146.5,138.3,146,138.2,145.6z"/>
<path class="st2" d="M168.9,155.7c-0.1,0.2-0.1,0.4-0.3,0.6c-0.6,0.7-1,1.5-1.4,2.4c-0.1,0.1-0.1,0.2-0.1,0.3c0,0.9-0.6,1.4-0.9,2.2
	c-0.4,0.5-0.6,1.2-1.1,1.8c-2.2,2.7-3.2,6-6.2,8.1c-2.2,1.7-4.5,3.9-7.6,3.7c-1.1-0.1-2.1-0.5-3.2-0.8c-0.1,0-0.1-0.1-0.3-0.1
	c-0.9-0.6-1.7-1.2-2.3-2c-0.9-1.4-1.4-2.9-1.4-4.5c-0.1-1.9-0.1-3.7,0.1-5.5c0.1-1.2,0.3-2.4,0.4-3.5c0-0.3,0.1-0.5,0.1-0.8
	c0.3-1.2,0.5-2.3,0.7-3.5c0.4-1.5,0.9-2.9,1.5-4.3c0.1-0.2,0.2-0.4,0.3-0.6c0.4-0.4,0.6-0.9,0.9-1.4c0-0.1,0.1-0.1,0.1-0.2
	c0.3-1,1-1.9,1.8-2.6c0.1-0.1,0.4-0.3,0.5-0.4c1.2-0.6,2.4-1.2,3.8-1.4c0.8-0.1,1.5-0.4,2.3-0.2c0.4,0,0.9,0.1,1.2,0.1
	c0.1,0,0.3,0.1,0.4,0.1c4.7,0.1,2.6,8.6,0.1,10.5c-0.4,0.2-0.8,0.4-1.1,0.8c-0.1,0.1-0.2,0.2-0.4,0.2c-0.4,0.2-0.7,0.4-1.2,0.6
	c-0.9,0.3-1.7,0.6-2.4,0.8c-1.3,0.2-1.2,0.1-1.5,1.2c-0.1,0.4-0.1,0.6-0.1,0.9c0.1,3.7-2,9.5,0.2,12.7c0.4,0.5,0.9,0.9,1.4,1.1
	c0.3,0.2,0.6,0.1,0.9,0.1c0.6-0.2,1.3-0.5,1.9-0.9c0.9-0.6,1.7-1.2,2.4-1.7c0.4-0.3,0.6-0.6,0.9-0.9c0.9-1.2,1.7-2.2,2.4-3.5
	c0.1-0.3,0.4-0.5,0.5-0.7c1.2-1.4,1.9-3,2.9-4.4c0.1-0.2,0.3-0.4,0.4-0.6c0.5-1.2,1.2-2.2,1.9-3.2c0.1-0.3,0.4-0.6,0.8-0.6
	C168.5,155.3,168.6,155.5,168.9,155.7z M158.9,145.6c0-0.1-0.1-0.3-0.2-0.4c-0.7-0.7-1.5-1.2-2.6-1c-0.8,0.1-1.4,0.5-1.7,1.3
	s-0.7,1.6-0.8,2.5c0,0.2-0.1,0.5-0.2,0.7c-0.4,0.8-0.4,1.7-0.6,2.4c-0.1,0.6-0.1,1.2-0.4,1.8c-0.1,0.4-0.3,0.8-0.1,1.2
	c1.2-0.1,2.3-0.4,3.4-0.9c0.7-0.4,1.3-0.8,1.7-1.4c0.6-0.9,1.2-1.7,1.7-2.7c0.1-0.1,0.2-0.4,0.1-0.6c-0.1-0.4,0-0.6,0.1-1
	c0.1-0.2,0.1-0.5,0.2-0.7C159.3,146.5,159.1,146,158.9,145.6z"/>
<path class="st2" d="M167.1,140.1c-0.8-0.2-1.5-0.5-2.2-0.6c-0.5-0.1-1.1-0.3-1.6-0.4c-0.2-0.1-0.5-0.3-0.7-0.4
	c-1-0.4-1.9-0.6-3-0.6c-0.4-0.1-0.9-0.3-1.2-0.4c-0.7-0.1-1.3-0.4-2-0.1c-0.4,0-0.9,0.1-1.3,0.1c-0.3,0-0.6-0.1-0.9-0.1
	c-0.1-0.1-0.2-0.2-0.1-0.3c0.1-0.1,0.1-0.1,0.1-0.2c0.5-0.2,1-0.5,1.4-0.7c0.9-0.4,1.7-0.5,2.5-0.6c0.9,0,1.8,0.1,2.7,0.1
	c0.6,0,1.3,0.1,1.9,0.1c0.4,0.1,0.7,0.1,1,0.1c0.6,0.1,1.1,0.1,1.5,0.1c0.8-0.1,1.5-0.1,2.4,0c0.2,0.1,0.6,0.1,0.8,0.1
	c0.2-0.2,0.2-0.5,0.2-0.6c0.2-1.2,0.4-2.3,0.6-3.5c0.1-0.7,0.3-1.4,0.6-2c0-0.1,0.1-0.1,0.1-0.1c0.5,0,0.9,0.1,1.2,0.5
	c0.1,0.3,0.3,0.5,0.4,0.7c0.2,0.4,0.3,0.9,0.1,1.3c-0.1,0.2-0.1,0.6-0.1,0.8c0.1,0.6,0.1,1.4,0.3,2c0,0.1,0,0.3,0,0.4
	c0,0.2,0.1,0.4,0,0.6c0,0.5,0.2,0.8,0.7,1c0.8,0.4,1.7,0.6,2.5,0.9c0.1,0.1,0.4,0.1,0.5,0.1c1.1,0.1,2.1,0,3.1-0.4
	c1.4-0.5,2.7-1,4-1.5c0.3-0.1,0.7-0.2,1-0.4c0.4-0.2,0.9-0.1,1.3,0.1c0.1,0.4-0.3,0.7-0.1,1.1c-0.4,0.4-0.8,0.7-1.2,1
	c-0.1,0.1-0.2,0.1-0.4,0.2c-0.5,0.2-1.1,0.4-1.6,0.7c-0.1,0-0.1,0-0.2,0c-0.4,0.1-0.8,0.2-1.2,0.5c-0.1,0.1-0.3,0.1-0.4,0.1
	c-0.2,0.1-0.4,0.2-0.6,0.4c-0.2,0.1-0.3,0.2-0.5,0.2c-0.3,0-0.4,0.1-0.6,0.4c0,0.1,0,0.1-0.1,0.1c-0.2,0.4-0.3,0.4-0.7,0.1
	c-0.2,0.1-0.4,0.2-0.7,0.4c-0.1,0.1-0.4,0.2-0.6,0.2c-0.1,0.1-0.1,0-0.1,0.1c-0.5,0.2-1.1,0.2-1.5,0.1c-0.5,0-1,0-1.4-0.1
	c-0.1,0-0.4,0-0.4,0c-0.1,0-0.4,0-0.6,0c-0.1,0.5,0,1.1,0,1.6c-0.1,0.9,0,1.9-0.1,3c0,0.3,0,0.6,0,0.9c0,0.1,0,0.3,0,0.4
	c-0.1,0.4-0.1,0.6-0.1,1c0.6,8.5-0.5,17.1-0.5,25.6c0,0.2,0,0.5,0,0.7c0.1,0.3,0,0.6,0,0.9c0,0,0,0.1,0,0.3c0.1,0.3,0,0.6,0,1
	c-0.1,0.6,0.1,1.2,0.7,1.4c0.3,0.1,0.5,0,0.7-0.1c0.3-0.3,0.5-0.4,0.9-0.8c0.4-0.6,0.9-1.2,1.4-1.8c1.5-2.1,2.9-4.2,4.2-6.2
	c0.1-0.2,0.1-0.4,0.3-0.5c0.5-0.7,0.9-1.5,1.4-2.2c0.5-0.8,1-1.6,1.5-2.3c0.4-0.6,0.7-1.2,1.2-1.7c0.7-1.2,1.6-2.4,2.4-3.5
	c0.1-0.1,0.1-0.3,0.1-0.4c0.3-0.4,0.6-0.9,0.9-1.4c0.4-0.4,0.6-1,0.9-1.6c0.2-0.4,0.4-0.8,0.6-1.2c0.2-0.2,0.4-0.2,0.7-0.1
	c0.6,0.2,0.9,0.5,0.5,1.2c-0.1,0.1-0.1,0.1-0.1,0.1c-0.1,0.1-0.2,0.3-0.2,0.4c-0.1,0.3-0.1,0.5-0.3,0.7c-0.2,0.4-0.4,0.7-0.6,1.2
	c-0.9,1.6-1.7,3.5-2.8,5c-1.9,2.7-3.7,5.3-5,8.2c-0.7,1.4-1.4,2.7-2.2,4c-0.9,1.3-2.2,2-3.2,3.1c-0.4,0.5-0.8,0.9-1.3,1
	c-0.1,0-0.2,0.1-0.3,0.1c-0.4,0.2-0.6,0.3-0.9,0.3c-0.9,0-1.9,0-3-0.3c-1.7-0.3-2.7-1.3-3.3-3c-0.4-1-0.6-2.1-0.6-3.1
	c-0.1-0.5-0.1-0.9-0.2-1.4c0-0.3,0-0.4-0.1-0.7c-0.1-0.6-0.1-1.3-0.1-1.9c0-0.3,0-0.6,0-1.1c0-0.6,0-1.4,0-2.1
	c0-0.7,0.1-1.6,0.1-2.3c0.1-0.4,0.1-0.7,0.1-1.2c0-0.6,0.1-1.2,0.1-1.7c0.1-1.3,0.1-2.6,0.2-3.9c0.1-0.3,0.1-0.6,0.1-0.9
	c0.1-1.5,0.3-3,0.6-4.5c0.1-0.9,0.1-2,0.2-3c0.3-1.7,0.4-3.4,0.7-5c0.1-0.8,0.2-1.7,0.3-2.4c0.1-0.4,0.1-0.6,0.1-1.1
	C167.7,140.5,167.4,140.3,167.1,140.1z"/>
<path class="st0" d="M315.7,172.4c1.7-2.1,3.3-4.3,4.9-6.6c1.7-2.4,3.3-4.9,4.9-7.3c0.3-0.4,0.5-0.9,0.6-1.4c0.4-2,0.9-4,1.3-6
	c0.1-0.8,0.2-1.6,0.3-2.4c0.1-0.9,0.1-1.7,0.4-2.6c0.5-1.6,0.7-3.2,1-4.8c0.4-1.5,0.7-3,1.1-4.5c0.2-0.9,0.5-1.8,0.7-2.7
	c0.1-0.3,0.1-0.6,0.3-0.9c0.9-1.4,1.3-3,1.8-4.6c0.3-0.9,0.4-0.9,1.4-0.9c0.1,0,0.2,0.1,0.4,0.1c1.2,0.1,1.4,0.4,1.4,1.6
	c0.1,0.6,0.1,1.3,0.2,2c0,0.3-0.1,0.6-0.1,0.9c-0.1,0.8-0.1,1.5,0.4,2.2c0.3,0.3,0.2,0.6,0.1,1c-1.4,5.3-1.4,10.9-2,16.3
	c-0.6,5.3-1.1,10.6-1.7,15.8c-0.4,3.1-0.7,6.2-1.4,9.2c-0.4,2.4-1.1,4.7-1.7,7.1c-0.4,1.6-0.7,3.2-0.4,4.8c0.1,0.3,0.1,0.6,0.2,0.9
	c0.3,0.9,1.1,1.3,1.9,0.8c4.4-2.6,7.6-9.1,9.6-13.5c2.6-5.3,4.5-10.8,6.6-16.2c0.7-1.9,1.3-6.5,4.2-5.5c-4.3,12-8.3,25-17,34.6
	c-2.4,2.7-5.5,4.6-9.1,4.2c0,0,0,0-0.1,0c-4.5-4-3.7-10.5-2.7-15.8c0.3-1.6,0.5-3.2,0.6-4.9c0.1-1.7,0.5-3.4,0.8-5
	c0.1-1.4,0.3-2.7,0.4-4c0.1-0.4-0.1-0.7-0.2-1.2c-0.2,0.3-0.4,0.4-0.5,0.6c-0.7,1-1.4,2.1-2.1,3.2c-0.4,0.7-0.9,1.4-1.4,2.1
	c-3.6,5.3-6.8,11.7-13.2,14.2c-1.3,0.5-2.6,0.8-4,0.5c-1-0.1-1.9-0.6-2.7-1.3c-1.6-1.6-2.2-3.5-2.2-5.5c-0.1-0.8-0.1-1.7-0.1-2.4
	c-0.1-0.6,0-1.2,0-1.7c0.1-1.1,0.3-2.1,0.4-3.1c0.1-0.4,0.2-0.9,0.1-1.3c-0.1-2,0.4-4,0.6-5.9c0.2-1.6,0.4-3.2,0.7-4.8
	c0.2-1.2,0.6-2.4,0.6-3.7c0.1-3.7,1.3-7.3,2-10.9c0.6-2.7,1-5.3,1.4-7.8c0.2-2,0.9-4,0.5-6c-0.4-2.2-2.2-1-3.4,0.1
	c-1.6,1.6-2.9,3.3-4,5.2c-0.4,0.6-0.9,1-1.7,1.3c-0.4,0.2-0.9,0.1-1.4-0.4c0.6-1.2,1.2-2.5,1.9-3.7c0.7-1.2,1.6-2.4,2.7-3.5
	c2.2-2.2,4.8-3.5,8-3.6c1.1-0.1,2.1,0.1,2.8,1.2c0.1,0.1,0.1,0.2,0.3,0.3c0.9,0.5,1.2,1.3,1.4,2.2c0.1,0.4,0.2,0.6,0.3,0.9
	c0.4,0.9,0.2,1.9,0.3,2.9c0.1,3.6,0.3,7.1-0.1,10.7c-0.6,7.1-3,14-4.5,21c-0.5,2.3-1,4.5-1.4,6.8c-0.2,1.5-1.5,7.4,0.6,8
	C309.2,179.2,314.7,173.7,315.7,172.4z"/>
<g>
	<path class="st2" d="M58.1,249.1c-0.6-0.1-0.6-0.3-0.7-0.9c-0.1-0.6-0.1-1.2-0.1-1.8c-0.1-0.8-0.1-2.7-0.9-3.3
		c-0.7-0.5-1.5-0.2-2.2,0.3c-1.4,1.1-2.3,3-3,4.6c-2.2,4.6-3.1,9.3-3.4,14.4c-0.2,2.8-0.1,5.5,0,8.3c0.2,3.1,0.6,6.5,2,9.3
		c0.2,0.3,0.4,0.7,0.8,0.9c0.8,0.4,2,0.1,2.6-0.6c0.7-0.7,1-1.7,1.5-2.5c0.2-0.5,0.5-1.9,1.2-1.7c1.6,0.4,0.5,1.9,0.2,2.7
		c-0.9,2.3-2.4,4.3-5.1,4.6c-2.9,0.3-5.7-1.7-7.4-3.9c-3.6-4.9-2.4-15.6-2-19.6c0.2-1.8,1.7-10.4,5.7-15.8c1.5-2,3.5-4,6-4.8
		c1.4-0.4,2.9,0.1,4,1.1c2,2,2.2,8.4,1.5,8.6C58.5,249.1,58.4,249.1,58.1,249.1z"/>
	<path class="st2" d="M77.9,265.1c-0.2,0.4-0.4,0.7-0.6,1.1l-3.1,5.4c-0.5,0.9-2.8,5.2-3.1,5.9c-0.7,1.2-1.6,3-3.2,3.3
		c-0.8,0.1-3-0.3-3.5-0.9c-0.7-0.8-0.9-1.8-1.1-2.8c-0.2-1.2,0.3-8.5,1-10.5c-0.6-0.3-1.5-1-1.9-1.3c-0.4-0.3-2.6-2.1-3.4-2.9
		c-1.7-1.5-1.5-4.6-0.4-6.2c1.6-2.4,4.1-1.2,4.7-0.9c1,0.6,1.5,1.9,1.8,2.9c0.3,1.3,0.1,2.9-0.3,4.1c-0.2,0.5-0.4,1.1-0.7,1.7
		c0,0.1,2,1,2.2,1.1c0.9,0.4,2.2,0.9,2.6,1.9c0.3,0.7,0.1,1.4-0.1,2c-0.2,0.7-1.1,6.6-1,7.8c0,0.4,0.1,1,0.3,1.4
		c0.2,0.3,0.3,0.4,0.6,0.3c0.6-0.2,7.9-13.7,8.5-14.5C77.1,263.6,78.3,264.6,77.9,265.1z M60.7,256.7c-2.5,1.2-0.6,4.6,2,6.5
		C64.8,260.2,63.1,255.5,60.7,256.7z"/>
	<path class="st2" d="M93.2,265.1l-0.7,1.1c-1.2,2-2.3,4-3.4,6c-0.7,1-1.3,2.1-1.9,3.1c-0.3,0.6-2.4,4.6-3.9,6
		c-5,4.3-11.2-4.8-9.5-11.9c1.9-7.8,5.9-8.1,7.8-7.6c1.8,0.5,2.9,3.1,1.5,4.9c-1.1,1.5-4,4.3-4.3,4.7c-0.3,0.5,0.6,9.6,2.3,9.6
		c0.5,0,2.8-3.6,3.8-5.1l1.2-1.8c1.1-1.8,5.7-9.5,6-10C92.3,263.6,93.5,264.6,93.2,265.1z M74.6,255.1c0.7,1,1.4,2,2.1,3
		c0.6,0.8,1.4,1.5,2.3,2c0.6,0.3,1.1,0,0.9-0.7c0-0.3-0.2-0.6-0.4-0.8l-3-3.6c-0.2-0.2-0.5-0.3-0.7-0.5c-0.4-0.1-0.8-0.2-1-0.2
		c-0.2-0.1-0.4,0.1-0.4,0.2C74.3,254.6,74.4,254.9,74.6,255.1z M78.5,269.8c0.9-0.7,3.4-3.6,3.5-3.7c1.4-1.7,0.1-2.5-0.6-2.2
		C80.2,264.4,78.9,265.7,78.5,269.8z"/>
	<path class="st2" d="M103.4,267.8c-0.1,0.2-0.2,0.3-0.3,0.6c-0.6,1-1.2,2-1.8,3.1l-2.6,4.5c-0.3,0.4-0.8,1.3-1.2,1.7l-0.1,0.1
		c-0.6,0.6-1.2,1-2.1,1.1c-3.9,0.6-6.4-1.5-6.9-5c-0.2-1.2-0.2-2.5-0.1-3.8c0.1-1.2,1.5-7.1,4.8-8.6c1.8-0.8,4.6-0.3,5.5,1.5
		c0.2,0.4,0.3,0.8,0.3,1.2c0.1,1.5-0.9,0-1.3-0.3c-0.5-0.4-1-0.4-1.6,0.1c-2.6,2.2-3,9.4-2.8,10.8c0.1,1.3,1,3.1,2.5,1.7
		c1-1.1,2-2.2,2.9-3.6c1.3-2.1,3.2-5.5,5.1-8.5l1.2,1C104.9,265.3,104.3,266.3,103.4,267.8z"/>
	<path class="st2" d="M129.7,265.1l-0.7,1.1c-1,1.9-6.8,13.5-8.5,14c-1.8,0.6-3.5-0.1-4.4-1.7c-0.9-1.8-1.5-3.8-1.7-5.9
		c-0.3-3.3,0.1-6.5,0.8-9.7c0.2-0.8,0.9-3.1,1-3.7c0-0.6-0.2-0.4-0.7-0.1c-0.4,0.3-0.8,0.7-1.1,1.1c-0.6,0.8-1.3,1.5-1.8,2.4
		c-0.6,1-1.9,3.6-2.8,7.5c-0.1,0.6-0.1,0.8,0,1.3c0.2,0.7,0.4,1.3,0.7,1.8c0.3,0.9,0.7,1.8,1.1,2.7c0.3,0.7,0.7,1.2-0.2,1.5
		s-2.4,0.2-3.2-0.2c-1-0.6-1.8-1.7-2.3-2.7c-0.8-1.4-5.4-11.8-1.9-24.6c3.4-12,9.6-17.2,11.2-18.6c1.2-1,2.5-1.9,4-2.4
		c6.2-2.5,8,1.3,8.1,2.4c0,0.8-0.2,1.6-0.4,2.4c-0.9,2.9-2.3,5.7-4.1,8.2c-1.5,2.3-3,4.6-4.6,6.7c-2.4,3.3-5,6.5-7.4,9.8
		c-0.8,1-1.6,2.2-2.3,3.4c-0.3,0.4-0.4,1.1-0.3,1.6c0.2,1.4,0.3,2.7,0.8,4.1c0.4-2.1,3.8-11.8,9.3-10.5c1,0.2,1.8,1.6,1.7,3
		c-0.3,3.5-0.6,7-0.7,10.5c-0.1,1.6,0.2,3.3,0.4,4.9c0.1,0.4,0.2,1.7,0.8,1.8c0.3,0,7.7-12.8,8-13.2
		C128.8,263.6,130,264.6,129.7,265.1z M116.5,248.7c1-1.5,5.6-8.2,6.1-8.9c1-1.7,1.8-3.4,2.4-5.2c0.3-0.8,0.5-1.7,0.6-2.6
		c0.2-0.9-0.1-1.5-1-1.9c-2-0.9-4.9-0.1-6.7,1.7c-1.4,1.4-5,5.9-8.1,16.3c-0.7,2.4-1,4.9-1.4,7.3c-0.2,1-0.2,2.1-0.3,3.1
		C108,258.8,115.4,250.3,116.5,248.7z"/>
	<path class="st2" d="M144.4,265.1l-0.7,1.1c-1.2,2-2.3,4-3.4,6c-0.7,1-1.3,2.1-1.9,3.1c-0.3,0.6-2.4,4.6-3.9,6
		c-5,4.3-11.2-4.8-9.5-11.9c1.9-7.8,5.9-8.1,7.8-7.6c1.8,0.5,2.9,3.1,1.5,4.9c-1.1,1.5-4,4.3-4.3,4.7c-0.3,0.5,0.6,9.6,2.3,9.6
		c0.5,0,2.8-3.6,3.8-5.1l1.2-1.8c1.1-1.8,5.7-9.5,6-10C143.6,263.6,144.7,264.6,144.4,265.1z M129.7,269.8c0.9-0.7,3.4-3.6,3.5-3.7
		c1.4-1.7,0.1-2.5-0.6-2.2C131.5,264.4,130.1,265.7,129.7,269.8z"/>
	<path class="st2" d="M158.1,265.1c-0.2,0.4-0.4,0.7-0.6,1.1c-1.2,2-3.6,6.2-3.9,6.7c-0.6,0.8-2.4,4-2.4,4c0.3,0.6,0.6,0.8,0.9,1.4
		c0.7,1.3,1.4,2.6,1.7,4c0.5,2.7,0.1,5.5-2.5,7c-1.6,0.9-4.6,2.2-6.5,1c-1.2-0.7-1.7-2.8-1.4-4.1c0.3-1.9,3.6-6.8,3.6-6.8
		c-1.3-2.3-3.2-5.4-4.4-7.7c-1.2-2.4-1.4-2.5-2.5-5c-2.6-6.2,1.5-15,8.1-13c2.5,0.7,3.7,2.4,4,4.9c0.3,1.8,0.2,3.5-0.6,5.2
		c-0.4,0.8-1.4,2.3-2.2,1.9c-0.3-0.4,0.9-1.8,1.1-2.4c0.3-0.9,0.5-1.8,0.5-2.7c0.1-1.8-0.7-3.5-2.3-4.5c-0.8-0.5-1.5-0.7-2.4-0.6
		c-3.4,0.4-4.8,4.1-0.6,12.3c1.3,2.5,2.7,4.6,4.2,7.1c2-2.6,5.4-8.6,6.9-10.9C157.3,263.6,158.4,264.6,158.1,265.1z M148,280.9
		c-0.5,0.4-0.8,1-1.2,1.5c-1.2,1.6-3.3,5.6-0.2,6.4c0.2,0.1,0.4,0.1,0.7,0.1c1.4,0,2.7-1.1,2.9-2.5C150.5,284.5,149,282.4,148,280.9
		z"/>
	<path class="st2" d="M158.2,277.1c0.3-0.2,0.9-0.2,1.3-0.2c0.6,0.1,0.8,0.4,1,0.8c0.3,0.8,0.6,1.8,0,2.6c-0.3,0.4-1.3,0.7-1.8,0.5
		c-1-0.3-1.3-1.2-1.3-2.2C157.4,278.1,157.7,277.5,158.2,277.1z"/>
	<path class="st2" d="M164.4,277.1c0.3-0.2,0.9-0.2,1.3-0.2c0.6,0.1,0.8,0.4,1,0.8c0.3,0.8,0.6,1.8,0,2.6c-0.3,0.4-1.3,0.7-1.8,0.5
		c-1-0.3-1.3-1.2-1.3-2.2C163.6,278.1,163.9,277.5,164.4,277.1z"/>
	<path class="st2" d="M170.6,277.1c0.3-0.2,0.9-0.2,1.3-0.2c0.6,0.1,0.8,0.4,1,0.8c0.3,0.8,0.6,1.8,0,2.6c-0.3,0.4-1.3,0.7-1.8,0.5
		c-1-0.3-1.3-1.2-1.3-2.2C169.7,278.1,170.1,277.5,170.6,277.1z"/>
	<path class="st2" d="M213.3,265.1l-0.7,1.1c-1.2,2-2.3,4-3.4,6c-0.7,1-1.3,2.1-1.9,3.1c-0.3,0.6-2.4,4.6-3.9,6
		c-5,4.3-11.2-4.8-9.5-11.9c1.9-7.8,5.9-8.1,7.8-7.6c1.8,0.5,2.9,3.1,1.5,4.9c-1.1,1.5-4,4.3-4.3,4.7c-0.3,0.5,0.6,9.6,2.3,9.6
		c0.5,0,2.8-3.6,3.8-5.1l1.2-1.8c1.1-1.8,5.7-9.5,6-10C212.4,263.6,213.5,264.6,213.3,265.1z M198.6,269.8c0.9-0.7,3.4-3.6,3.5-3.7
		c1.4-1.7,0.1-2.5-0.6-2.2C200.3,264.4,199,265.7,198.6,269.8z"/>
	<path class="st2" d="M231.6,247c-1,3.8-12.2,3.4-12.2,3.4c-0.9,2.7-1.8,12.9-1.9,16.5c0,1.6-0.1,3.2,0,4.8c0,1.5,0.1,3.1,0.2,4.6
		c0.1,0.9,0.2,1.8,0.4,2.7c0.2,0.8,0.3,1.2,1,0.7c0.5-0.4,2-1.6,3.8-4.4c0.2-0.3,0.4-0.7,0.7-1l6-9.9c0.3-0.5,1.4,0.5,1.2,1
		c-0.2,0.4-0.4,0.7-0.6,1.1l-3.5,6c-0.2,0.3-0.6,1-1,1.8c0.1-0.2-4.7,9.4-7.7,9.5c-3.7,0.2-4.6-3.6-5.3-6.4c-1-3.8-0.7-8.4-0.7-12.3
		c0-3.2,1.9-13.5,2.2-14.5c-3.5-0.3-5.2-0.8-6.6,0.9c-0.3,0.3-0.4,0.9-0.9,0.7c-0.4-0.2-0.6-0.8-0.7-1.2c-1.3-4,8.6-2.6,8.6-2.6
		c1-3.4,1.3-7.1,2-8.6c1.1-2.3,2.7-0.3,4.3,0.6c1.2,0.7,1,1.2,0.6,2.5c-0.5,1.3-0.8,2.8-1.2,5.5c1.4,0.2,7.4-0.3,9.4-2.1
		C232.2,243.8,231.7,246.5,231.6,247z"/>
	<path class="st2" d="M270.8,265.1c-0.2,0.4-0.4,0.8-0.7,1.1l-0.6,1c-2.2,3.6-4.8,5.1-7.2,5.7c-2,3.2-5.9,6.1-9.7,5
		c-0.1,0.5,0.1,1.2,0.1,1.7c0.1,0.7,0.2,1.3,0.2,2c0.1,1.3,0.2,2.6,0.4,3.9c0.4,2.5,0.9,5.1,1.5,7.6c0.2,1-1.9,1-2.5,0.8
		c-1.5-0.3-2.2-1.8-2.7-3.2c-1.5-4.8-2.1-9.8-2-14.8c0.1-2.6,0.9-12.9,1-13.3c0.3-1.2,0.2-2.7,1.3-3.5c0.9-0.7,1.3-0.2,2.3,0.1
		c0.4,0.1,0.7,0.3,1,0.5c0.8,0.4,1.2,1,0.8,2c-0.3,0.6-0.4,1.3-0.7,2.3l3-2.2c1.5-1.1,3.3-1.4,5.1-1.2c1.3,0.1,2.3,1.5,2.7,2.8
		c0.2,0.5,0.3,1.1,0.3,1.8c0,0.8-0.1,1.5-0.2,2.2c-0.2,1-0.5,2.1-0.8,3.1c1.5-0.7,3.1-1.9,4.5-3.8c0.8-1.3,1.4-2.3,1.5-2.5
		C269.9,263.6,271.1,264.6,270.8,265.1z M252.7,273.9c1.4-1.4,3.5-1.7,6-2.1c2.7-4,3-9.7,1.2-10.1c-1.7-0.4-5.9,3.9-6.3,5
		C253.3,267.4,252.8,271.5,252.7,273.9z M255,275c0.7-0.3,1.3-0.7,1.9-1.3c-1.6,0.3-2.9,0.8-3.9,2C253.7,275.7,254.3,275.4,255,275z
		"/>
	<path class="st2" d="M290.6,265.4c-0.2,0.3-0.4,0.7-0.6,1.1c-1,1.7-2,3.4-3,5.1l-0.2,0.3c-6.1,11.4-8.7,11.5-10.1,12
		c-3.8,1.1-7.4-5.1-8-16.1c-0.2-3.1,0.3-6.2,0.9-9.2c0.9-4.6,2.3-9.1,4.4-13.2c1-1.8,2.1-3.6,3.5-5.2c2.1-2.4,4.4-4.9,7.8-4.2
		c3.1,0.7,3.5,3.8,2.9,6.4c-0.2,1-0.6,1.9-0.9,2.9c-0.5,1.5-1.3,2.8-2,4.1c-1,1.9-2,3.8-3.2,5.6c-2.3,3.7-4.7,7.3-7.1,10.9
		c-0.6,0.8-0.8,1.6-0.8,2.5c-0.1,3.4-0.1,7,0.7,10.3c0.2,0.7,0.3,1.5,0.7,2.2c1,1.4,4.2-0.8,9.2-8.9l4.6-7.8
		C289.7,263.9,290.8,264.8,290.6,265.4z M274.6,263.5c0.7-0.4,4.9-6.8,5.7-8.2c1.4-2.5,2.7-5.1,4.1-7.6c0.9-1.8,1.8-3.6,2.3-5.6
		c0.4-1.3,1-3,0-4.2c-0.9-1.2-2.9-0.5-3.8,0.3c-1.3,1.2-2.3,3.4-2.9,5c-0.6,1.5-1.4,3-1.8,4.6c-1,3.4-2,6.8-2.8,10.3
		C275.1,259.1,274.6,263.1,274.6,263.5z"/>
	<path class="st2" d="M310.6,265.1c-0.2,0.4-0.4,0.8-0.7,1.1c-1.1,2-2.3,4-3.4,6c-0.5,0.9-1.5,2.5-1.2,2.1l-0.8,1.3
		c0,0,0,0.1-0.1,0.1c-2,3.3-2.9,3.8-4.4,3.8c-3.8,0-3.5-11.7-3.5-13c-0.4,0.5-3.9,8.7-8.4,5.2c-1.3-1-1.9-3-1.9-4.5
		c-0.1-1.8-0.1-3.7,0.2-5.5c0.2-1.4,0.1-2.7,0.3-4.1c0.3-1.3,1.2-1.4,2.5-1.5c1.3-0.1,1.7,0.3,1.9,1.6c0.1,0.2,0.1,0.4,0.1,0.7
		c-0.1,3.1-0.2,6.4-0.3,9.5c-0.1,1.4,0.6,3.4,1.9,1.5c1.9-2.8,3.3-5.8,4.4-8.9c0.2-0.6,0.4-1.8,0.4-2.4c-0.1-1,0.5-1.4,1.4-1.5
		c1.2-0.2,1.8-0.1,2.9,0.3c1.3,0.5,0.2,10.4,0.1,14.9c0,0.9-0.4,4.9,0.3,4.2c0.4-0.4,0.8-1,1.2-1.6c0-0.1,0.1-0.1,0.1-0.2
		c1-1.8,5.7-9.5,6-10C309.8,263.6,310.9,264.6,310.6,265.1z"/>
	<path class="st2" d="M326.1,265.1c-0.2,0.4-0.4,0.7-0.6,1.1c-1.2,2-3.6,6.2-3.9,6.7c-0.6,0.8-2.4,4-2.4,4c0.3,0.6,0.6,0.8,0.9,1.4
		c0.7,1.3,1.4,2.6,1.7,4c0.5,2.7,0.1,5.5-2.5,7c-1.6,0.9-4.6,2.2-6.5,1c-1.2-0.7-1.7-2.8-1.4-4.1c0.3-1.9,3.6-6.8,3.6-6.8
		c-1.3-2.3-3.2-5.4-4.4-7.7c-1.2-2.4-1.4-2.5-2.5-5c-2.6-6.2,1.5-15,8.1-13c2.5,0.7,3.7,2.4,4,4.9c0.3,1.8,0.2,3.5-0.6,5.2
		c-0.4,0.8-1.4,2.3-2.2,1.9c-0.3-0.4,0.9-1.8,1.1-2.4c0.3-0.9,0.5-1.8,0.5-2.7c0.1-1.8-0.7-3.5-2.3-4.5c-0.8-0.5-1.5-0.7-2.4-0.6
		c-3.4,0.4-4.8,4.1-0.6,12.3c1.3,2.5,2.7,4.6,4.2,7.1c2-2.6,5.4-8.6,6.9-10.9C325.2,263.6,326.4,264.6,326.1,265.1z M316,280.9
		c-0.5,0.4-0.8,1-1.2,1.5c-1.2,1.6-3.3,5.6-0.2,6.4c0.2,0.1,0.4,0.1,0.7,0.1c1.4,0,2.7-1.1,2.9-2.5C318.5,284.5,317,282.4,316,280.9
		z"/>
	<path class="st2" d="M347.6,276.1c0.6-0.2,1.3-0.2,1.8-0.1c0.8,0.1,1,0.4,0.9,1.2c-0.1,0.6,0.1,1.8-0.3,2.3
		c-0.3,0.4-1.4,0.6-1.8,0.5c-0.9-0.3-0.9-1.3-1.1-2c-0.1-0.4-0.3-0.9-0.1-1.3C347.1,276.4,347.3,276.2,347.6,276.1z M350.1,270.1
		l-0.2,0.4c-0.5,0.7-1.3,0.2-1.7-0.3c-1.3-1.5-1.3-3.6-1.3-6c-0.1-2.5,0.2-17.9,0.7-23c0.1-0.4,0.3-0.9,0.5-1.1
		c0.9-0.7,3.4,0.3,3.9,1.6c0.3,0.7,0.4,1.4,0.2,2.2C352,244.8,350.2,269.7,350.1,270.1z"/>
</g>
</svg>
