<?xml version="1.0" encoding="UTF-8"?>
<svg width="313px" height="207px" viewBox="0 0 313 207" version="1.1" xmlns="http://www.w3.org/2000/svg" xmlns:xlink="http://www.w3.org/1999/xlink">
    <title>logo-site-Sweet4U</title>
    <g id="Page-1" stroke="none" stroke-width="1" fill="none" fill-rule="evenodd">
        <g id="logo-site-Sweet4U" fill-rule="nonzero">
            <g id="Group" transform="translate(155.000000, 0.000000)">
                <path d="M75.5,207 L67.7,207 L67.6,199.4 C66.7,114.7 67,106.9 67.4,106.2 L68.3,106.6 L69.3,106.9 C68.7,109.7 69.4,177.2 69.7,199.4 L69.8,205 L75.6,205 L75.6,207 L75.5,207 Z" id="Path" fill="#EEC877"></path>
                <polygon id="Path" fill="#EEC877" points="92.4 161.6 89.7 155.3 28.2 149.7 59.3 103.7 61 104.8 31.7 148 91 153.4 94.2 160.7"></polygon>
                <polygon id="Path" fill="#AED3DB" points="40.9 54.3 58.1 57.8 75.2 72 75.5 77.6 57.2 71.8"></polygon>
                <path d="M85.5,0.8 C86,1 97.6,15.9 97.6,15.9 L94.7,24.2 L90.2,19.5 L85.5,0.8 Z" id="Path" fill="#AED3DB"></path>
                <polygon id="Path" fill="#5A5C6A" points="67.5 0.8 84.1 0 88.8 19.5 84.7 25.1 73.8 15.9"></polygon>
                <polygon id="Path" fill="#EEC877" points="57.9 14.7 66.7 1.1 73.2 16.8 69.8 24"></polygon>
                <polygon id="Path" fill="#AED3DB" points="60.9 33.8 85.2 69.4 93.5 91.2 96.6 62.5 69.4 24.6 57.7 15.5"></polygon>
                <polygon id="Path" fill="#5A5C6A" points="64.4 110.4 91.9 90.6 83.3 68 76.1 73.2 76.5 78.8 70.9 84.4"></polygon>
                <polygon id="Path" fill="#EEC877" points="60.7 92.8 74.9 78.2 56.9 72.6 4.9 92.6"></polygon>
                <polygon id="Path" fill="#AED3DB" points="18.1 94.7 62.4 112.3 69 85.8 60 94.6"></polygon>
                <polygon id="Path" fill="#EEC877" points="86.1 26.1 90.2 20.5 94.7 25.2 93.1 36.2 82.8 43.1 86.5 33.2"></polygon>
                <polygon id="Path" fill="#5A5C6A" points="0.6 92.2 14.4 72.8 38.3 52.9 56.2 72 3.2 91.5"></polygon>
            </g>
            <path d="M43.9,145.7 C43.3,146.1 42.7,146.6 42.2,146.9 C41.3,147.5 40.3,148.2 39.3,148.8 C38.4,149.4 37.6,149.9 36.7,150.4 C35.9,150.8 35,151.3 34.2,151.8 C33.8,152.1 33.3,152.2 32.8,152.4 C32.4,152.5 31.9,152.8 31.4,153 C31.1,153.1 30.9,153.2 30.8,153.4 C30.6,153.5 30.4,153.6 30.2,153.7 C30.1,154.2 30.2,154.6 30.4,155 C30.5,155.3 30.8,155.6 31,156 C31.4,156.7 31.7,157.6 31.9,158.4 C32,158.9 32.1,159.4 32.2,159.9 C32.3,160.3 32.4,160.8 32.6,161.3 C32.7,161.9 32.7,162.5 32.7,163 C32.8,163.6 32.8,164.2 32.8,164.7 L32.8,165.1 C32.9,165.7 32.9,166.3 32.7,166.8 C32.5,167.3 32.3,167.9 32.1,168.5 C32,169.4 31.6,170.2 31.2,170.9 C30.8,171.6 30.3,172.3 29.8,173.1 C29.7,173.3 29.4,173.6 29.3,173.8 C29.1,174 28.9,174.2 28.6,174.5 C27,176.3 25.1,177.6 23.1,178.4 C21.7,178.9 20.4,179.3 19.1,179.6 C17.7,179.8 16.4,180 14.9,180.1 C12.7,180.2 10.6,180 8.6,179.2 C7.9,178.9 7.2,178.6 6.4,178.3 C5.8,177.9 5,177.6 4.4,177.1 C2.4,176 1.2,174.3 0.7,171.8 C0.6,171 0.6,170.3 0.8,169.6 C0.9,169 1.2,168.2 1.5,167.5 C2.1,166 3,164.5 4,163.4 C5,162.2 6.2,161 7.5,159.9 C8.5,159.1 9.6,158.3 10.7,157.7 C11.9,157.1 13,156.5 14.2,156 C15.1,155.6 16,155.2 16.9,154.8 C17.8,154.4 18.7,154 19.6,153.6 C19.7,153.6 19.8,153.6 19.8,153.5 C19.8,153.5 19.9,153.4 20,153.4 C20,153.3 19.9,153 19.9,153 C19.3,152 18.8,151 18.3,150 C16.8,146.8 14.3,144.3 12,141.8 C10.1,139.7 8.3,137.6 6.5,135.5 C3.8,132.5 0.7,129.5 0.2,125.3 C-8.0768725e-15,123.4 0.1,121.5 0.6,119.7 C1.1,117.8 1.6,115.4 2.5,113.7 C3.3,112.3 4.1,110.6 5.7,110 C6.3,109.9 6.8,109.5 7.3,109.2 C9.1,107.9 11,106.8 13.1,105.9 C16,104.6 19.1,104.1 22.2,103.9 C24.3,103.8 26.2,104.3 28.2,104.7 C29.8,105 31.1,105.8 32.4,106.6 C33.3,107.2 34.1,107.9 34.6,109 C34.9,109.6 35.2,110.2 35.3,110.9 C35.4,112.1 35.6,113.2 35.7,114.3 C35.7,115.5 35.7,116.5 35.6,117.7 C35.5,119.1 35.2,120.5 35,121.9 C34.9,123.1 34.3,124.1 33.6,125 C33,125.9 32.4,126.8 31.6,127.5 C31.2,127.8 30.9,127.9 30.4,127.8 C30.2,127.8 29.9,127.6 29.8,127.4 C29.8,127.2 29.9,126.8 30.1,126.8 C30.7,126.4 31,125.6 31.3,125 C31.9,123.3 32.4,121.7 32.7,120 C33.1,118.3 33,116.7 33,115 C33,114.7 32.9,114.4 32.9,114.1 C32.5,113 32.2,112 31.9,111 C31.7,110.1 31.3,109.5 30.5,109.1 C29.3,108.5 28.3,107.8 27,107.8 C26.5,107.8 26.1,107.8 25.6,107.9 C24,108.1 22.4,108.4 20.8,108.8 C20.1,108.9 19.4,109.2 18.6,109.4 C16.9,109.8 15.2,110.6 13.7,111.5 C12.9,111.9 12.3,112.6 11.7,113.2 C11.1,113.8 10.4,114.4 9.9,115.1 C9.5,115.6 9.2,116.2 9,116.8 C8.8,117.7 8.6,118.7 8.6,119.8 C8.6,121.1 8.5,122.5 8.7,123.8 C8.7,124.5 8.9,125.3 9.2,126 C9.7,127.2 10.6,128.3 11.4,129.3 C14.4,133.4 18,137.1 21.3,141.1 C22.7,142.8 24.3,144.6 25.8,146.1 C26.7,147 27.5,148 28.2,149.2 C28.3,149.3 28.4,149.5 28.5,149.6 C28.6,149.7 28.7,150 28.9,150.2 C29.3,150.1 29.7,149.9 30.1,149.8 C30.5,149.7 30.8,149.6 31.3,149.5 C32.7,148.9 34,148.3 35.3,147.8 C36.7,147.2 37.9,146.4 39.2,145.6 C39.4,145.5 39.6,145.5 39.8,145.3 C40,145.2 40.2,145.1 40.4,145 C40.6,144.9 40.9,144.7 41.1,144.6 C41.4,144.5 41.6,144.3 41.9,144.2 C42,144.1 42.2,144 42.4,143.9 C43.9,143.4 44.5,144.4 43.9,145.7 Z M23.8,163.4 C23.6,162.2 23.2,161.2 22.6,160.2 C22.1,159.2 21.6,158 21.2,156.9 C21.2,156.9 21.1,156.9 21.1,156.8 C21,156.9 21,156.9 20.8,156.9 C20.7,156.9 20.6,157 20.5,157 C19.5,157.4 18.5,157.9 17.5,158.2 C16.6,158.6 15.6,159 14.6,159.4 C14.1,159.6 13.5,159.9 13,160.2 C12.5,160.5 12,160.7 11.4,161 C11.2,161.1 11,161.2 10.8,161.4 C10.7,161.5 10.4,161.7 10.2,161.9 L7,164.7 C6.8,165 6.6,165.2 6.3,165.4 C6.1,165.6 5.9,165.9 5.7,166.1 C5.5,166.2 5.3,166.4 5.1,166.5 C4.9,166.7 4.7,166.9 4.7,167.1 C4.4,167.5 4.2,167.9 4,168.3 C3.8,168.7 3.6,169.2 3.4,169.5 C3.3,169.9 3.3,170.3 3.3,170.8 C3.4,171.3 3.5,171.7 3.7,172.2 C3.8,172.6 4,173.1 4.1,173.6 C4.3,174.6 5,175.3 6.1,175.8 C7.1,176.3 8.2,176.7 9.3,176.9 C9.7,177 10.1,177.2 10.6,177.2 C11,177.3 11.5,177.3 12,177.3 C13.2,177.4 14.2,177.3 15.4,176.9 C16.5,176.5 17.6,176.1 18.6,175.5 C19.9,174.8 21,173.8 21.9,172.8 C22.8,171.7 23.4,170.4 23.7,168.9 C24,168 24.1,167 24.2,166.1 C24.1,165.4 24.1,164.5 23.8,163.4 Z" id="Shape" fill="#5A5C6A"></path>
            <path d="M87.7,147.2 C87.6,147.3 87.6,147.6 87.5,147.7 C87.4,147.8 87.4,148.1 87.4,148.2 C87.1,149.1 86.9,149.9 86.2,150.6 C85.6,151.3 84.8,151.9 84,152.5 C83,153.4 82,154 80.7,154.4 C80.6,154.4 80.3,154.5 80.2,154.5 C79.8,154.6 79.3,154.6 78.9,154.9 C78.3,155.2 77.8,155.2 77.2,155 C76,154.8 74.8,154.4 73.7,153.8 C73.7,153.8 73.6,153.8 73.6,153.8 C73.3,154 73.2,154.3 73.1,154.7 C73,155.2 72.7,155.7 72.4,156.2 C72.2,156.6 71.9,157.1 71.8,157.5 C71.3,158.7 70.7,159.9 70.1,161 C69.4,162.3 69.1,163.7 68,164.7 C67.6,165.1 67.3,165.4 67,165.8 C66.4,166.6 65.2,167.1 64.3,167 C63.9,166.9 63.4,167 62.9,167.1 C62.5,167.2 62,167.1 61.5,167.1 C61.2,167 60.9,167 60.5,166.8 C59.4,166.3 58.2,165.9 57.1,165.3 C56,164.7 55.3,163.7 54.8,162.6 C54.4,161.4 54.2,160 54.1,158.7 C54,158.5 54,158.3 54,158.1 C53.8,158 53.7,158.1 53.6,158.2 C53.4,158.5 53.2,158.8 53,159.2 C52.5,160.6 51.4,161.6 50,162.1 C48.8,162.5 46.5,162.9 45.5,162 C45.3,161.8 45.1,161.6 44.8,161.4 C42.1,159.5 41.8,156.7 41.6,153.6 C41.6,153.5 41.6,153.3 41.6,153.2 C41.6,152.9 41.7,152.6 41.7,152.2 C41.7,151.5 41.7,150.8 41.8,150.1 C41.9,149.7 41.9,149.5 41.9,149.1 C41.8,148.4 41.8,147.6 42,146.9 C42,146.8 42.1,146.7 42.1,146.5 C42,145.6 42.2,144.6 42.5,143.6 C43,141 43.5,138.3 44.1,135.8 C44.2,135.2 44.5,134.6 44.6,134.1 C44.7,133.7 45,133.6 45.4,133.6 C45.9,133.7 46.4,133.7 46.9,133.9 C47,133.9 47.2,134 47.3,134.1 C47.9,134.7 48.5,135.3 48.6,136.1 C48.7,136.7 48.9,137.2 49.1,137.8 C49.2,138.1 49.3,138.3 49.4,138.6 C49.5,139 49.6,139.3 49.5,139.6 C49.4,140.2 49.5,140.8 49.6,141.4 C49.7,141.5 49.7,141.8 49.7,141.9 C49.6,142.4 49.6,142.9 49.6,143.5 C49.6,143.9 49.5,144.4 49.5,144.8 C49.5,145.1 49.4,145.4 49.5,145.7 C49.5,146.5 49.4,147.3 49.2,148 C48.9,149.4 49.1,150.9 48.9,152.2 C48.6,153.9 48.2,155.9 48.3,157.7 C48.4,158.1 48.4,158.4 48.4,158.9 C48.4,159 48.4,159.3 48.5,159.4 C48.6,159.7 48.9,159.8 49.1,159.5 C49.5,159.1 50,158.7 50.3,158.1 C50.9,157.1 51.5,156.1 52.1,155 C52.2,154.7 52.5,154.4 52.6,154.1 C52.8,153.7 53,153.4 53.2,152.9 C53.4,152.6 53.5,152.3 53.6,152 C54.2,151.1 54.4,150.1 54.6,149 C54.7,147.7 55,146.4 55.2,145.1 C55.2,145 55.3,144.9 55.3,144.7 C55.7,143.7 55.9,142.8 56.3,141.7 C56.5,141.1 56.8,140.5 57,139.8 C57.1,139.4 57.4,139.2 57.7,139.1 C58.2,138.9 58.7,138.7 59.2,138.7 C59.7,138.6 60.1,138.8 60.2,139.3 C60.3,139.7 60.3,139.9 60.3,140.3 C60.3,140.8 60.3,141.2 60.4,141.7 C60.5,142.3 60.6,143.1 60.8,143.8 C61.2,146.5 61.4,149.1 61.4,151.9 C61.4,154.6 61.5,157.4 61.3,160.1 C61.2,160.4 61.2,160.7 61.4,161.1 C61.5,161.5 61.7,161.7 61.8,162.1 C62,162.8 62.5,163.3 63.1,163.6 C63.5,163.8 63.8,163.9 64.2,164 C64.3,164 64.4,164 64.5,163.9 C64.6,163.8 64.7,163.8 64.9,163.6 C65.5,162.8 66.3,162 67,161.2 C67.9,160.1 68.7,159 69.4,157.7 C70.1,156.6 70.7,155.5 71.3,154.2 C71.6,153.7 71.9,153 72.2,152.5 C72.1,152.4 72.1,152.2 71.9,152.1 C71.3,151.5 70.8,150.8 70.5,150.1 C69.9,148.9 69.5,147.7 69.3,146.5 C69.1,145.6 69,144.6 68.9,143.6 C68.9,143.5 68.9,143.5 68.9,143.3 C69,142.8 69,142.2 69,141.6 C69,140.3 69.2,139.2 69.6,137.9 C69.8,137 70.2,136.2 70.5,135.4 C71.3,135 72.1,135 72.9,135 C73.4,135 73.8,135 74.3,135 C74.7,134.9 74.9,135 75.1,135.3 C75.4,135.5 75.5,135.9 75.9,135.9 C76.4,136.5 76.8,137.2 76.6,138.1 C76.5,138.7 76.5,139.4 76.7,140.1 C76.8,140.5 76.8,140.9 76.8,141.3 C76.7,142 76.7,142.7 76.5,143.5 C76.4,144 76.4,144.5 76.1,144.9 C75.9,145.5 75.8,146.2 75.7,146.8 C75.6,147.6 75.5,148.4 75.2,149.1 C75,149.5 75,150 75.3,150.4 C75.4,150.6 75.4,150.8 75.6,151 C76,151.6 76.5,152.1 77.1,152.3 C80.9,153.7 84.2,150 86.1,147.3 C86.5,146.6 87,145.9 87.3,145.1 C87.7,144.5 87.9,144.4 88.7,144.5 C88.4,145.9 88.2,146.6 87.7,147.2 Z M74.2,138.7 C74.1,139.1 74.1,139.6 74.1,140 C74.1,140.4 74.1,140.6 74.1,141 C74.1,141.2 74.1,141.5 74.1,141.7 C74,142.3 74,142.9 74,143.4 C74,144 74.1,144.6 74.1,145.1 C74.2,145.5 74.1,145.8 74.2,146.2 C74.3,146 74.4,145.8 74.4,145.6 C74.5,144.9 74.7,144.2 74.8,143.5 C74.8,143.4 74.9,143.4 74.9,143.2 C75,142 75.1,140.8 75,139.5 C75,139 74.9,138.6 74.4,138.1 C74.3,138.5 74.2,138.6 74.2,138.7 Z" id="Shape" fill="#5A5C6A"></path>
            <path d="M109,145.3 C108.9,145.5 108.9,145.7 108.7,145.9 C108.1,146.6 107.7,147.4 107.3,148.3 C107.2,148.4 107.2,148.5 107.2,148.6 C107.2,149.5 106.6,150 106.3,150.8 C105.9,151.3 105.7,152 105.2,152.6 C103,155.3 102,158.6 99,160.7 C96.8,162.4 94.5,164.6 91.4,164.4 C90.3,164.3 89.3,163.9 88.2,163.6 C88.1,163.6 88.1,163.5 87.9,163.5 C87,162.9 86.2,162.3 85.6,161.5 C84.7,160.1 84.2,158.6 84.2,157 C84.1,155.1 84.1,153.3 84.3,151.5 C84.4,150.3 84.6,149.1 84.7,148 C84.7,147.7 84.8,147.5 84.8,147.2 C85.1,146 85.3,144.9 85.5,143.7 C85.9,142.2 86.4,140.8 87,139.4 C87.1,139.2 87.2,139 87.3,138.8 C87.7,138.4 87.9,137.9 88.2,137.4 C88.2,137.3 88.3,137.3 88.3,137.2 C88.6,136.2 89.3,135.3 90.1,134.6 C90.2,134.5 90.5,134.3 90.6,134.2 C91.8,133.6 93,133 94.4,132.8 C95.2,132.7 95.9,132.4 96.7,132.6 C97.1,132.6 97.6,132.7 97.9,132.7 C98,132.7 98.2,132.8 98.3,132.8 C103,132.9 100.9,141.4 98.4,143.3 C98,143.5 97.6,143.7 97.3,144.1 C97.2,144.2 97.1,144.3 96.9,144.3 C96.5,144.5 96.2,144.7 95.7,144.9 C94.8,145.2 94,145.5 93.3,145.7 C92,145.9 92.1,145.8 91.8,146.9 C91.7,147.3 91.7,147.5 91.7,147.8 C91.8,151.5 89.7,157.3 91.9,160.5 C92.3,161 92.8,161.4 93.3,161.6 C93.6,161.8 93.9,161.7 94.2,161.7 C94.8,161.5 95.5,161.2 96.1,160.8 C97,160.2 97.8,159.6 98.5,159.1 C98.9,158.8 99.1,158.5 99.4,158.2 C100.3,157 101.1,156 101.8,154.7 C101.9,154.4 102.2,154.2 102.3,154 C103.5,152.6 104.2,151 105.2,149.6 C105.3,149.4 105.5,149.2 105.6,149 C106.1,147.8 106.8,146.8 107.5,145.8 C107.6,145.5 107.9,145.2 108.3,145.2 C108.6,144.9 108.7,145.1 109,145.3 Z M99,135.2 C99,135.1 98.9,134.9 98.8,134.8 C98.1,134.1 97.3,133.6 96.2,133.8 C95.4,133.9 94.8,134.3 94.5,135.1 C94.2,135.9 93.8,136.7 93.7,137.6 C93.7,137.8 93.6,138.1 93.5,138.3 C93.1,139.1 93.1,140 92.9,140.7 C92.8,141.3 92.8,141.9 92.5,142.5 C92.4,142.9 92.2,143.3 92.4,143.7 C93.6,143.6 94.7,143.3 95.8,142.8 C96.5,142.4 97.1,142 97.5,141.4 C98.1,140.5 98.7,139.7 99.2,138.7 C99.3,138.6 99.4,138.3 99.3,138.1 C99.2,137.7 99.3,137.5 99.4,137.1 C99.5,136.9 99.5,136.6 99.6,136.4 C99.4,136.1 99.2,135.7 99,135.2 Z" id="Shape" fill="#5A5C6A"></path>
            <path d="M129.7,145.3 C129.6,145.5 129.6,145.7 129.4,145.9 C128.8,146.6 128.4,147.4 128,148.3 C127.9,148.4 127.9,148.5 127.9,148.6 C127.9,149.5 127.3,150 127,150.8 C126.6,151.3 126.4,152 125.9,152.6 C123.7,155.3 122.7,158.6 119.7,160.7 C117.5,162.4 115.2,164.6 112.1,164.4 C111,164.3 110,163.9 108.9,163.6 C108.8,163.6 108.8,163.5 108.6,163.5 C107.7,162.9 106.9,162.3 106.3,161.5 C105.4,160.1 104.9,158.6 104.9,157 C104.8,155.1 104.8,153.3 105,151.5 C105.1,150.3 105.3,149.1 105.4,148 C105.4,147.7 105.5,147.5 105.5,147.2 C105.8,146 106,144.9 106.2,143.7 C106.6,142.2 107.1,140.8 107.7,139.4 C107.8,139.2 107.9,139 108,138.8 C108.4,138.4 108.6,137.9 108.9,137.4 C108.9,137.3 109,137.3 109,137.2 C109.3,136.2 110,135.3 110.8,134.6 C110.9,134.5 111.2,134.3 111.3,134.2 C112.5,133.6 113.7,133 115.1,132.8 C115.9,132.7 116.6,132.4 117.4,132.6 C117.8,132.6 118.3,132.7 118.6,132.7 C118.7,132.7 118.9,132.8 119,132.8 C123.7,132.9 121.6,141.4 119.1,143.3 C118.7,143.5 118.3,143.7 118,144.1 C117.9,144.2 117.8,144.3 117.6,144.3 C117.2,144.5 116.9,144.7 116.4,144.9 C115.5,145.2 114.7,145.5 114,145.7 C112.7,145.9 112.8,145.8 112.5,146.9 C112.4,147.3 112.4,147.5 112.4,147.8 C112.5,151.5 110.4,157.3 112.6,160.5 C113,161 113.5,161.4 114,161.6 C114.3,161.8 114.6,161.7 114.9,161.7 C115.5,161.5 116.2,161.2 116.8,160.8 C117.7,160.2 118.5,159.6 119.2,159.1 C119.6,158.8 119.8,158.5 120.1,158.2 C121,157 121.8,156 122.5,154.7 C122.6,154.4 122.9,154.2 123,154 C124.2,152.6 124.9,151 125.9,149.6 C126,149.4 126.2,149.2 126.3,149 C126.8,147.8 127.5,146.8 128.2,145.8 C128.3,145.5 128.6,145.2 129,145.2 C129.3,144.9 129.5,145.1 129.7,145.3 Z M119.8,135.2 C119.8,135.1 119.7,134.9 119.6,134.8 C118.9,134.1 118.1,133.6 117,133.8 C116.2,133.9 115.6,134.3 115.3,135.1 C115,135.9 114.6,136.7 114.5,137.6 C114.5,137.8 114.4,138.1 114.3,138.3 C113.9,139.1 113.9,140 113.7,140.7 C113.6,141.3 113.6,141.9 113.3,142.5 C113.2,142.9 113,143.3 113.2,143.7 C114.4,143.6 115.5,143.3 116.6,142.8 C117.3,142.4 117.9,142 118.3,141.4 C118.9,140.5 119.5,139.7 120,138.7 C120.1,138.6 120.2,138.3 120.1,138.1 C120,137.7 120.1,137.5 120.2,137.1 C120.3,136.9 120.3,136.6 120.4,136.4 C120.1,136.1 119.9,135.7 119.8,135.2 Z" id="Shape" fill="#5A5C6A"></path>
            <path d="M128,129.7 C127.2,129.5 126.5,129.2 125.8,129.1 C125.3,129 124.7,128.8 124.2,128.7 C124,128.6 123.7,128.4 123.5,128.3 C122.5,127.9 121.6,127.7 120.5,127.7 C120.1,127.6 119.6,127.4 119.3,127.3 C118.6,127.2 118,126.9 117.3,127.2 C116.9,127.2 116.4,127.3 116,127.3 C115.7,127.3 115.4,127.2 115.1,127.2 C115,127.1 114.9,127 115,126.9 C115.1,126.8 115.1,126.8 115.1,126.7 C115.6,126.5 116.1,126.2 116.5,126 C117.4,125.6 118.2,125.5 119,125.4 C119.9,125.4 120.8,125.5 121.7,125.5 C122.3,125.5 123,125.6 123.6,125.6 C124,125.7 124.3,125.7 124.6,125.7 C125.2,125.8 125.7,125.8 126.1,125.8 C126.9,125.7 127.6,125.7 128.5,125.8 C128.7,125.9 129.1,125.9 129.3,125.9 C129.5,125.7 129.5,125.4 129.5,125.3 C129.7,124.1 129.9,123 130.1,121.8 C130.2,121.1 130.4,120.4 130.7,119.8 C130.7,119.7 130.8,119.7 130.8,119.7 C131.3,119.7 131.7,119.8 132,120.2 C132.1,120.5 132.3,120.7 132.4,120.9 C132.6,121.3 132.7,121.8 132.5,122.2 C132.4,122.4 132.4,122.8 132.4,123 C132.5,123.6 132.5,124.4 132.7,125 C132.7,125.1 132.7,125.3 132.7,125.4 C132.7,125.6 132.8,125.8 132.7,126 C132.7,126.5 132.9,126.8 133.4,127 C134.2,127.4 135.1,127.6 135.9,127.9 C136,128 136.3,128 136.4,128 C137.5,128.1 138.5,128 139.5,127.6 C140.9,127.1 142.2,126.6 143.5,126.1 C143.8,126 144.2,125.9 144.5,125.7 C144.9,125.5 145.4,125.6 145.8,125.8 C145.9,126.2 145.5,126.5 145.7,126.9 C145.3,127.3 144.9,127.6 144.5,127.9 C144.4,128 144.3,128 144.1,128.1 C143.6,128.3 143,128.5 142.5,128.8 C142.4,128.8 142.4,128.8 142.3,128.8 C141.9,128.9 141.5,129 141.1,129.3 C141,129.4 140.8,129.4 140.7,129.4 C140.5,129.5 140.3,129.6 140.1,129.8 C139.9,129.9 139.8,130 139.6,130 C139.3,130 139.2,130.1 139,130.4 C139,130.5 139,130.5 138.9,130.5 C138.7,130.9 138.6,130.9 138.2,130.6 C138,130.7 137.8,130.8 137.5,131 C137.4,131.1 137.1,131.2 136.9,131.2 C136.8,131.3 136.8,131.2 136.8,131.3 C136.3,131.5 135.7,131.5 135.3,131.4 C134.8,131.4 134.3,131.4 133.9,131.3 C133.8,131.3 133.5,131.3 133.5,131.3 C133.4,131.3 133.1,131.3 132.9,131.3 C132.8,131.8 132.9,132.4 132.9,132.9 C132.8,133.8 132.9,134.8 132.8,135.9 C132.8,136.2 132.8,136.5 132.8,136.8 C132.8,136.9 132.8,137.1 132.8,137.2 C132.7,137.6 132.7,137.8 132.7,138.2 C133.3,146.7 132.2,155.3 132.2,163.8 C132.2,164 132.2,164.3 132.2,164.5 C132.3,164.8 132.2,165.1 132.2,165.4 C132.2,165.4 132.2,165.5 132.2,165.7 C132.3,166 132.2,166.3 132.2,166.7 C132.1,167.3 132.3,167.9 132.9,168.1 C133.2,168.2 133.4,168.1 133.6,168 C133.9,167.7 134.1,167.6 134.5,167.2 C134.9,166.6 135.4,166 135.9,165.4 C137.4,163.3 138.8,161.2 140.1,159.2 C140.2,159 140.2,158.8 140.4,158.7 C140.9,158 141.3,157.2 141.8,156.5 C142.3,155.7 142.8,154.9 143.3,154.2 C143.7,153.6 144,153 144.5,152.5 C145.2,151.3 146.1,150.1 146.9,149 C147,148.9 147,148.7 147,148.6 C147.3,148.2 147.6,147.7 147.9,147.2 C148.3,146.8 148.5,146.2 148.8,145.6 C149,145.2 149.2,144.8 149.4,144.4 C149.6,144.2 149.8,144.2 150.1,144.3 C150.7,144.5 151,144.8 150.6,145.5 C150.5,145.6 150.5,145.6 150.5,145.6 C150.4,145.7 150.3,145.9 150.3,146 C150.2,146.3 150.2,146.5 150,146.7 C149.8,147.1 149.6,147.4 149.4,147.9 C148.5,149.5 147.7,151.4 146.6,152.9 C144.7,155.6 142.9,158.2 141.6,161.1 C140.9,162.5 140.2,163.8 139.4,165.1 C138.5,166.4 137.2,167.1 136.2,168.2 C135.8,168.7 135.4,169.1 134.9,169.2 C134.8,169.2 134.7,169.3 134.6,169.3 C134.2,169.5 134,169.6 133.7,169.6 C132.8,169.6 131.8,169.6 130.7,169.3 C129,169 128,168 127.4,166.3 C127,165.3 126.8,164.2 126.8,163.2 C126.7,162.7 126.7,162.3 126.6,161.8 C126.6,161.5 126.6,161.4 126.5,161.1 C126.4,160.5 126.4,159.8 126.4,159.2 C126.4,158.9 126.4,158.6 126.4,158.1 C126.4,157.5 126.4,156.7 126.4,156 C126.4,155.3 126.5,154.4 126.5,153.7 C126.6,153.3 126.6,153 126.6,152.5 C126.6,151.9 126.7,151.3 126.7,150.8 C126.8,149.5 126.8,148.2 126.9,146.9 C127,146.6 127,146.3 127,146 C127.1,144.5 127.3,143 127.6,141.5 C127.7,140.6 127.7,139.5 127.8,138.5 C128.1,136.8 128.2,135.1 128.5,133.5 C128.6,132.7 128.7,131.8 128.8,131.1 C128.9,130.7 128.9,130.5 128.9,130 C128.5,130.1 128.3,129.9 128,129.7 Z" id="Path" fill="#5A5C6A"></path>
            <path d="M276.5,162 C278.2,159.9 279.8,157.7 281.4,155.4 C283.1,153 284.7,150.5 286.3,148.1 C286.6,147.7 286.8,147.2 286.9,146.7 C287.3,144.7 287.8,142.7 288.2,140.7 C288.3,139.9 288.4,139.1 288.5,138.3 C288.6,137.4 288.6,136.6 288.9,135.7 C289.4,134.1 289.6,132.5 289.9,130.9 C290.3,129.4 290.6,127.9 291,126.4 C291.2,125.5 291.5,124.6 291.7,123.7 C291.8,123.4 291.8,123.1 292,122.8 C292.9,121.4 293.3,119.8 293.8,118.2 C294.1,117.3 294.2,117.3 295.2,117.3 C295.3,117.3 295.4,117.4 295.6,117.4 C296.8,117.5 297,117.8 297,119 C297.1,119.6 297.1,120.3 297.2,121 C297.2,121.3 297.1,121.6 297.1,121.9 C297,122.7 297,123.4 297.5,124.1 C297.8,124.4 297.7,124.7 297.6,125.1 C296.2,130.4 296.2,136 295.6,141.4 C295,146.7 294.5,152 293.9,157.2 C293.5,160.3 293.2,163.4 292.5,166.4 C292.1,168.8 291.4,171.1 290.8,173.5 C290.4,175.1 290.1,176.7 290.4,178.3 C290.5,178.6 290.5,178.9 290.6,179.2 C290.9,180.1 291.7,180.5 292.5,180 C296.9,177.4 300.1,170.9 302.1,166.5 C304.7,161.2 306.6,155.7 308.7,150.3 C309.4,148.4 310,143.8 312.9,144.8 C308.6,156.8 304.6,169.8 295.9,179.4 C293.5,182.1 290.4,184 286.8,183.6 C286.8,183.6 286.8,183.6 286.7,183.6 C282.2,179.6 283,173.1 284,167.8 C284.3,166.2 284.5,164.6 284.6,162.9 C284.7,161.2 285.1,159.5 285.4,157.9 C285.5,156.5 285.7,155.2 285.8,153.9 C285.9,153.5 285.7,153.2 285.6,152.7 C285.4,153 285.2,153.1 285.1,153.3 C284.4,154.3 283.7,155.4 283,156.5 C282.6,157.2 282.1,157.9 281.6,158.6 C278,163.9 274.8,170.3 268.4,172.8 C267.1,173.3 265.8,173.6 264.4,173.3 C263.4,173.2 262.5,172.7 261.7,172 C260.1,170.4 259.5,168.5 259.5,166.5 C259.4,165.7 259.4,164.8 259.4,164.1 C259.3,163.5 259.4,162.9 259.4,162.4 C259.5,161.3 259.7,160.3 259.8,159.3 C259.9,158.9 260,158.4 259.9,158 C259.8,156 260.3,154 260.5,152.1 C260.7,150.5 260.9,148.9 261.2,147.3 C261.4,146.1 261.8,144.9 261.8,143.6 C261.9,139.9 263.1,136.3 263.8,132.7 C264.4,130 264.8,127.4 265.2,124.9 C265.4,122.9 266.1,120.9 265.7,118.9 C265.3,116.7 263.5,117.9 262.3,119 C260.7,120.6 259.4,122.3 258.3,124.2 C257.9,124.8 257.4,125.2 256.6,125.5 C256.2,125.7 255.7,125.6 255.2,125.1 C255.8,123.9 256.4,122.6 257.1,121.4 C257.8,120.2 258.7,119 259.8,117.9 C262,115.7 264.6,114.4 267.8,114.3 C268.9,114.2 269.9,114.4 270.6,115.5 C270.7,115.6 270.7,115.7 270.9,115.8 C271.8,116.3 272.1,117.1 272.3,118 C272.4,118.4 272.5,118.6 272.6,118.9 C273,119.8 272.8,120.8 272.9,121.8 C273,125.4 273.2,128.9 272.8,132.5 C272.2,139.6 269.8,146.5 268.3,153.5 C267.8,155.8 267.3,158 266.9,160.3 C266.7,161.8 265.4,167.7 267.5,168.3 C270,168.8 275.5,163.3 276.5,162 Z" id="Path" fill="#5A5C6A"></path>
        </g>
    </g>
</svg>