<?xml version="1.0" encoding="utf-8"?>
<!-- Generator: Adobe Illustrator 21.0.2, SVG Export Plug-In . SVG Version: 6.00 Build 0)  -->
<svg version="1.1" id="couleurs_corps" xmlns="http://www.w3.org/2000/svg" xmlns:xlink="http://www.w3.org/1999/xlink" x="0px"
	 y="0px" viewBox="0 0 313.1 207" style="enable-background:new 0 0 313.1 207;" xml:space="preserve">
<style type="text/css">
	.st0{fill:#EEC877;}
	.st1{fill:#AED3DB;}
	.st2{fill:#5A5C6A;}
</style>
<g>
	<path class="st0" d="M230.5,207h-7.8l-0.1-7.6c-0.9-84.7-0.6-92.5-0.2-93.2l0.9,0.4l1,0.3c-0.6,2.8,0.1,70.3,0.4,92.5l0.1,5.6h5.8
		V207z"/>
	<polygon class="st0" points="247.4,161.6 244.7,155.3 183.2,149.7 214.3,103.7 216,104.8 186.7,148 246,153.4 249.2,160.7 	"/>
	<polygon class="st1" points="195.9,54.3 213.1,57.8 230.2,72 230.5,77.6 212.2,71.8 	"/>
	<path class="st1" d="M240.5,0.8c0.5,0.2,12.1,15.1,12.1,15.1l-2.9,8.3l-4.5-4.7L240.5,0.8z"/>
	<polygon class="st2" points="222.5,0.8 239.1,0 243.8,19.5 239.7,25.1 228.8,15.9 	"/>
	<polygon class="st0" points="212.9,14.7 221.7,1.1 228.2,16.8 224.8,24 	"/>
	<polygon class="st1" points="215.9,33.8 240.2,69.4 248.5,91.2 251.6,62.5 224.4,24.6 212.7,15.5 	"/>
	<polygon class="st2" points="219.4,110.4 246.9,90.6 238.3,68 231.1,73.2 231.5,78.8 225.9,84.4 	"/>
	<polygon class="st0" points="215.7,92.8 229.9,78.2 211.9,72.6 159.9,92.6 	"/>
	<polygon class="st1" points="173.1,94.7 217.4,112.3 224,85.8 215,94.6 	"/>
	<polygon class="st0" points="241.1,26.1 245.2,20.5 249.7,25.2 248.1,36.2 237.8,43.1 241.5,33.2 	"/>
	<polygon class="st2" points="155.6,92.2 169.4,72.8 193.3,52.9 211.2,72 158.2,91.5 	"/>
</g>
<path class="st2" d="M43.9,145.7c-0.6,0.4-1.2,0.9-1.7,1.2c-0.9,0.6-1.9,1.3-2.9,1.9c-0.9,0.6-1.7,1.1-2.6,1.6
	c-0.8,0.4-1.7,0.9-2.5,1.4c-0.4,0.3-0.9,0.4-1.4,0.6c-0.4,0.1-0.9,0.4-1.4,0.6c-0.3,0.1-0.5,0.2-0.6,0.4c-0.2,0.1-0.4,0.2-0.6,0.3
	c-0.1,0.5,0,0.9,0.2,1.3c0.1,0.3,0.4,0.6,0.6,1c0.4,0.7,0.7,1.6,0.9,2.4c0.1,0.5,0.2,1,0.3,1.5c0.1,0.4,0.2,0.9,0.4,1.4
	c0.1,0.6,0.1,1.2,0.1,1.7c0.1,0.6,0.1,1.2,0.1,1.7v0.4c0.1,0.6,0.1,1.2-0.1,1.7c-0.2,0.5-0.4,1.1-0.6,1.7c-0.1,0.9-0.5,1.7-0.9,2.4
	c-0.4,0.7-0.9,1.4-1.4,2.2c-0.1,0.2-0.4,0.5-0.5,0.7c-0.2,0.2-0.4,0.4-0.7,0.7c-1.6,1.8-3.5,3.1-5.5,3.9c-1.4,0.5-2.7,0.9-4,1.2
	c-1.4,0.2-2.7,0.4-4.2,0.5c-2.2,0.1-4.3-0.1-6.3-0.9c-0.7-0.3-1.4-0.6-2.2-0.9c-0.6-0.4-1.4-0.7-2-1.2c-2-1.1-3.2-2.8-3.7-5.3
	c-0.1-0.8-0.1-1.5,0.1-2.2c0.1-0.6,0.4-1.4,0.7-2.1c0.6-1.5,1.5-3,2.5-4.1c1-1.2,2.2-2.4,3.5-3.5c1-0.8,2.1-1.6,3.2-2.2
	c1.2-0.6,2.3-1.2,3.5-1.7c0.9-0.4,1.8-0.8,2.7-1.2c0.9-0.4,1.8-0.8,2.7-1.2c0.1,0,0.2,0,0.2-0.1c0,0,0.1-0.1,0.2-0.1
	c0-0.1-0.1-0.4-0.1-0.4c-0.6-1-1.1-2-1.6-3c-1.5-3.2-4-5.7-6.3-8.2c-1.9-2.1-3.7-4.2-5.5-6.3c-2.7-3-5.8-6-6.3-10.2
	c-0.2-1.9-0.1-3.8,0.4-5.6c0.5-1.9,1-4.3,1.9-6c0.8-1.4,1.6-3.1,3.2-3.7c0.6-0.1,1.1-0.5,1.6-0.8c1.8-1.3,3.7-2.4,5.8-3.3
	c2.9-1.3,6-1.8,9.1-2c2.1-0.1,4,0.4,6,0.8c1.6,0.3,2.9,1.1,4.2,1.9c0.9,0.6,1.7,1.3,2.2,2.4c0.3,0.6,0.6,1.2,0.7,1.9
	c0.1,1.2,0.3,2.3,0.4,3.4c0,1.2,0,2.2-0.1,3.4c-0.1,1.4-0.4,2.8-0.6,4.2c-0.1,1.2-0.7,2.2-1.4,3.1c-0.6,0.9-1.2,1.8-2,2.5
	c-0.4,0.3-0.7,0.4-1.2,0.3c-0.2,0-0.5-0.2-0.6-0.4c0-0.2,0.1-0.6,0.3-0.6c0.6-0.4,0.9-1.2,1.2-1.8c0.6-1.7,1.1-3.3,1.4-5
	c0.4-1.7,0.3-3.3,0.3-5c0-0.3-0.1-0.6-0.1-0.9c-0.4-1.1-0.7-2.1-1-3.1c-0.2-0.9-0.6-1.5-1.4-1.9c-1.2-0.6-2.2-1.3-3.5-1.3
	c-0.5,0-0.9,0-1.4,0.1c-1.6,0.2-3.2,0.5-4.8,0.9c-0.7,0.1-1.4,0.4-2.2,0.6c-1.7,0.4-3.4,1.2-4.9,2.1c-0.8,0.4-1.4,1.1-2,1.7
	c-0.6,0.6-1.3,1.2-1.8,1.9c-0.4,0.5-0.7,1.1-0.9,1.7c-0.2,0.9-0.4,1.9-0.4,3c0,1.3-0.1,2.7,0.1,4c0,0.7,0.2,1.5,0.5,2.2
	c0.5,1.2,1.4,2.3,2.2,3.3c3,4.1,6.6,7.8,9.9,11.8c1.4,1.7,3,3.5,4.5,5c0.9,0.9,1.7,1.9,2.4,3.1c0.1,0.1,0.2,0.3,0.3,0.4
	c0.1,0.1,0.2,0.4,0.4,0.6c0.4-0.1,0.8-0.3,1.2-0.4c0.4-0.1,0.7-0.2,1.2-0.3c1.4-0.6,2.7-1.2,4-1.7c1.4-0.6,2.6-1.4,3.9-2.2
	c0.2-0.1,0.4-0.1,0.6-0.3c0.2-0.1,0.4-0.2,0.6-0.3c0.2-0.1,0.5-0.3,0.7-0.4c0.3-0.1,0.5-0.3,0.8-0.4c0.1-0.1,0.3-0.2,0.5-0.3
	C43.9,143.4,44.5,144.4,43.9,145.7z M23.8,163.4c-0.2-1.2-0.6-2.2-1.2-3.2c-0.5-1-1-2.2-1.4-3.3c0,0-0.1,0-0.1-0.1
	c-0.1,0.1-0.1,0.1-0.3,0.1c-0.1,0-0.2,0.1-0.3,0.1c-1,0.4-2,0.9-3,1.2c-0.9,0.4-1.9,0.8-2.9,1.2c-0.5,0.2-1.1,0.5-1.6,0.8
	s-1,0.5-1.6,0.8c-0.2,0.1-0.4,0.2-0.6,0.4c-0.1,0.1-0.4,0.3-0.6,0.5L7,164.7c-0.2,0.3-0.4,0.5-0.7,0.7c-0.2,0.2-0.4,0.5-0.6,0.7
	c-0.2,0.1-0.4,0.3-0.6,0.4c-0.2,0.2-0.4,0.4-0.4,0.6c-0.3,0.4-0.5,0.8-0.7,1.2c-0.2,0.4-0.4,0.9-0.6,1.2c-0.1,0.4-0.1,0.8-0.1,1.3
	c0.1,0.5,0.2,0.9,0.4,1.4c0.1,0.4,0.3,0.9,0.4,1.4c0.2,1,0.9,1.7,2,2.2c1,0.5,2.1,0.9,3.2,1.1c0.4,0.1,0.8,0.3,1.3,0.3
	c0.4,0.1,0.9,0.1,1.4,0.1c1.2,0.1,2.2,0,3.4-0.4c1.1-0.4,2.2-0.8,3.2-1.4c1.3-0.7,2.4-1.7,3.3-2.7c0.9-1.1,1.5-2.4,1.8-3.9
	c0.3-0.9,0.4-1.9,0.5-2.8C24.1,165.4,24.1,164.5,23.8,163.4z"/>
<path class="st2" d="M87.7,147.2c-0.1,0.1-0.1,0.4-0.2,0.5c-0.1,0.1-0.1,0.4-0.1,0.5c-0.3,0.9-0.5,1.7-1.2,2.4
	c-0.6,0.7-1.4,1.3-2.2,1.9c-1,0.9-2,1.5-3.3,1.9c-0.1,0-0.4,0.1-0.5,0.1c-0.4,0.1-0.9,0.1-1.3,0.4c-0.6,0.3-1.1,0.3-1.7,0.1
	c-1.2-0.2-2.4-0.6-3.5-1.2c0,0-0.1,0-0.1,0c-0.3,0.2-0.4,0.5-0.5,0.9c-0.1,0.5-0.4,1-0.7,1.5c-0.2,0.4-0.5,0.9-0.6,1.3
	c-0.5,1.2-1.1,2.4-1.7,3.5c-0.7,1.3-1,2.7-2.1,3.7c-0.4,0.4-0.7,0.7-1,1.1c-0.6,0.8-1.8,1.3-2.7,1.2c-0.4-0.1-0.9,0-1.4,0.1
	c-0.4,0.1-0.9,0-1.4,0c-0.3-0.1-0.6-0.1-1-0.3c-1.1-0.5-2.3-0.9-3.4-1.5c-1.1-0.6-1.8-1.6-2.3-2.7c-0.4-1.2-0.6-2.6-0.7-3.9
	c-0.1-0.2-0.1-0.4-0.1-0.6c-0.2-0.1-0.3,0-0.4,0.1c-0.2,0.3-0.4,0.6-0.6,1c-0.5,1.4-1.6,2.4-3,2.9c-1.2,0.4-3.5,0.8-4.5-0.1
	c-0.2-0.2-0.4-0.4-0.7-0.6c-2.7-1.9-3-4.7-3.2-7.8c0-0.1,0-0.3,0-0.4c0-0.3,0.1-0.6,0.1-1c0-0.7,0-1.4,0.1-2.1
	c0.1-0.4,0.1-0.6,0.1-1c-0.1-0.7-0.1-1.5,0.1-2.2c0-0.1,0.1-0.2,0.1-0.4c-0.1-0.9,0.1-1.9,0.4-2.9c0.5-2.6,1-5.3,1.6-7.8
	c0.1-0.6,0.4-1.2,0.5-1.7c0.1-0.4,0.4-0.5,0.8-0.5c0.5,0.1,1,0.1,1.5,0.3c0.1,0,0.3,0.1,0.4,0.2c0.6,0.6,1.2,1.2,1.3,2
	c0.1,0.6,0.3,1.1,0.5,1.7c0.1,0.3,0.2,0.5,0.3,0.8c0.1,0.4,0.2,0.7,0.1,1c-0.1,0.6,0,1.2,0.1,1.8c0.1,0.1,0.1,0.4,0.1,0.5
	c-0.1,0.5-0.1,1-0.1,1.6c0,0.4-0.1,0.9-0.1,1.3c0,0.3-0.1,0.6,0,0.9c0,0.8-0.1,1.6-0.3,2.3c-0.3,1.4-0.1,2.9-0.3,4.2
	c-0.3,1.7-0.7,3.7-0.6,5.5c0.1,0.4,0.1,0.7,0.1,1.2c0,0.1,0,0.4,0.1,0.5c0.1,0.3,0.4,0.4,0.6,0.1c0.4-0.4,0.9-0.8,1.2-1.4
	c0.6-1,1.2-2,1.8-3.1c0.1-0.3,0.4-0.6,0.5-0.9c0.2-0.4,0.4-0.7,0.6-1.2c0.2-0.3,0.3-0.6,0.4-0.9c0.6-0.9,0.8-1.9,1-3
	c0.1-1.3,0.4-2.6,0.6-3.9c0-0.1,0.1-0.2,0.1-0.4c0.4-1,0.6-1.9,1-3c0.2-0.6,0.5-1.2,0.7-1.9c0.1-0.4,0.4-0.6,0.7-0.7
	c0.5-0.2,1-0.4,1.5-0.4c0.5-0.1,0.9,0.1,1,0.6c0.1,0.4,0.1,0.6,0.1,1c0,0.5,0,0.9,0.1,1.4c0.1,0.6,0.2,1.4,0.4,2.1
	c0.4,2.7,0.6,5.3,0.6,8.1c0,2.7,0.1,5.5-0.1,8.2c-0.1,0.3-0.1,0.6,0.1,1c0.1,0.4,0.3,0.6,0.4,1c0.2,0.7,0.7,1.2,1.3,1.5
	c0.4,0.2,0.7,0.3,1.1,0.4c0.1,0,0.2,0,0.3-0.1c0.1-0.1,0.2-0.1,0.4-0.3c0.6-0.8,1.4-1.6,2.1-2.4c0.9-1.1,1.7-2.2,2.4-3.5
	c0.7-1.1,1.3-2.2,1.9-3.5c0.3-0.5,0.6-1.2,0.9-1.7c-0.1-0.1-0.1-0.3-0.3-0.4c-0.6-0.6-1.1-1.3-1.4-2c-0.6-1.2-1-2.4-1.2-3.6
	c-0.2-0.9-0.3-1.9-0.4-2.9c0-0.1,0-0.1,0-0.3c0.1-0.5,0.1-1.1,0.1-1.7c0-1.3,0.2-2.4,0.6-3.7c0.2-0.9,0.6-1.7,0.9-2.5
	c0.8-0.4,1.6-0.4,2.4-0.4c0.5,0,0.9,0,1.4,0c0.4-0.1,0.6,0,0.8,0.3c0.3,0.2,0.4,0.6,0.8,0.6c0.5,0.6,0.9,1.3,0.7,2.2
	c-0.1,0.6-0.1,1.3,0.1,2c0.1,0.4,0.1,0.8,0.1,1.2c-0.1,0.7-0.1,1.4-0.3,2.2c-0.1,0.5-0.1,1-0.4,1.4c-0.2,0.6-0.3,1.3-0.4,1.9
	c-0.1,0.8-0.2,1.6-0.5,2.3c-0.2,0.4-0.2,0.9,0.1,1.3c0.1,0.2,0.1,0.4,0.3,0.6c0.4,0.6,0.9,1.1,1.5,1.3c3.8,1.4,7.1-2.3,9-5
	c0.4-0.7,0.9-1.4,1.2-2.2c0.4-0.6,0.6-0.7,1.4-0.6C88.4,145.9,88.2,146.6,87.7,147.2z M74.2,138.7c-0.1,0.4-0.1,0.9-0.1,1.3
	c0,0.4,0,0.6,0,1c0,0.2,0,0.5,0,0.7c-0.1,0.6-0.1,1.2-0.1,1.7c0,0.6,0.1,1.2,0.1,1.7c0.1,0.4,0,0.7,0.1,1.1c0.1-0.2,0.2-0.4,0.2-0.6
	c0.1-0.7,0.3-1.4,0.4-2.1c0-0.1,0.1-0.1,0.1-0.3c0.1-1.2,0.2-2.4,0.1-3.7c0-0.5-0.1-0.9-0.6-1.4C74.3,138.5,74.2,138.6,74.2,138.7z"
	/>
<path class="st2" d="M109,145.3c-0.1,0.2-0.1,0.4-0.3,0.6c-0.6,0.7-1,1.5-1.4,2.4c-0.1,0.1-0.1,0.2-0.1,0.3c0,0.9-0.6,1.4-0.9,2.2
	c-0.4,0.5-0.6,1.2-1.1,1.8c-2.2,2.7-3.2,6-6.2,8.1c-2.2,1.7-4.5,3.9-7.6,3.7c-1.1-0.1-2.1-0.5-3.2-0.8c-0.1,0-0.1-0.1-0.3-0.1
	c-0.9-0.6-1.7-1.2-2.3-2c-0.9-1.4-1.4-2.9-1.4-4.5c-0.1-1.9-0.1-3.7,0.1-5.5c0.1-1.2,0.3-2.4,0.4-3.5c0-0.3,0.1-0.5,0.1-0.8
	c0.3-1.2,0.5-2.3,0.7-3.5c0.4-1.5,0.9-2.9,1.5-4.3c0.1-0.2,0.2-0.4,0.3-0.6c0.4-0.4,0.6-0.9,0.9-1.4c0-0.1,0.1-0.1,0.1-0.2
	c0.3-1,1-1.9,1.8-2.6c0.1-0.1,0.4-0.3,0.5-0.4c1.2-0.6,2.4-1.2,3.8-1.4c0.8-0.1,1.5-0.4,2.3-0.2c0.4,0,0.9,0.1,1.2,0.1
	c0.1,0,0.3,0.1,0.4,0.1c4.7,0.1,2.6,8.6,0.1,10.5c-0.4,0.2-0.8,0.4-1.1,0.8c-0.1,0.1-0.2,0.2-0.4,0.2c-0.4,0.2-0.7,0.4-1.2,0.6
	c-0.9,0.3-1.7,0.6-2.4,0.8c-1.3,0.2-1.2,0.1-1.5,1.2c-0.1,0.4-0.1,0.6-0.1,0.9c0.1,3.7-2,9.5,0.2,12.7c0.4,0.5,0.9,0.9,1.4,1.1
	c0.3,0.2,0.6,0.1,0.9,0.1c0.6-0.2,1.3-0.5,1.9-0.9c0.9-0.6,1.7-1.2,2.4-1.7c0.4-0.3,0.6-0.6,0.9-0.9c0.9-1.2,1.7-2.2,2.4-3.5
	c0.1-0.3,0.4-0.5,0.5-0.7c1.2-1.4,1.9-3,2.9-4.4c0.1-0.2,0.3-0.4,0.4-0.6c0.5-1.2,1.2-2.2,1.9-3.2c0.1-0.3,0.4-0.6,0.8-0.6
	C108.6,144.9,108.7,145.1,109,145.3z M99,135.2c0-0.1-0.1-0.3-0.2-0.4c-0.7-0.7-1.5-1.2-2.6-1c-0.8,0.1-1.4,0.5-1.7,1.3
	s-0.7,1.6-0.8,2.5c0,0.2-0.1,0.5-0.2,0.7c-0.4,0.8-0.4,1.7-0.6,2.4c-0.1,0.6-0.1,1.2-0.4,1.8c-0.1,0.4-0.3,0.8-0.1,1.2
	c1.2-0.1,2.3-0.4,3.4-0.9c0.7-0.4,1.3-0.8,1.7-1.4c0.6-0.9,1.2-1.7,1.7-2.7c0.1-0.1,0.2-0.4,0.1-0.6c-0.1-0.4,0-0.6,0.1-1
	c0.1-0.2,0.1-0.5,0.2-0.7C99.4,136.1,99.2,135.7,99,135.2z"/>
<path class="st2" d="M129.7,145.3c-0.1,0.2-0.1,0.4-0.3,0.6c-0.6,0.7-1,1.5-1.4,2.4c-0.1,0.1-0.1,0.2-0.1,0.3c0,0.9-0.6,1.4-0.9,2.2
	c-0.4,0.5-0.6,1.2-1.1,1.8c-2.2,2.7-3.2,6-6.2,8.1c-2.2,1.7-4.5,3.9-7.6,3.7c-1.1-0.1-2.1-0.5-3.2-0.8c-0.1,0-0.1-0.1-0.3-0.1
	c-0.9-0.6-1.7-1.2-2.3-2c-0.9-1.4-1.4-2.9-1.4-4.5c-0.1-1.9-0.1-3.7,0.1-5.5c0.1-1.2,0.3-2.4,0.4-3.5c0-0.3,0.1-0.5,0.1-0.8
	c0.3-1.2,0.5-2.3,0.7-3.5c0.4-1.5,0.9-2.9,1.5-4.3c0.1-0.2,0.2-0.4,0.3-0.6c0.4-0.4,0.6-0.9,0.9-1.4c0-0.1,0.1-0.1,0.1-0.2
	c0.3-1,1-1.9,1.8-2.6c0.1-0.1,0.4-0.3,0.5-0.4c1.2-0.6,2.4-1.2,3.8-1.4c0.8-0.1,1.5-0.4,2.3-0.2c0.4,0,0.9,0.1,1.2,0.1
	c0.1,0,0.3,0.1,0.4,0.1c4.7,0.1,2.6,8.6,0.1,10.5c-0.4,0.2-0.8,0.4-1.1,0.8c-0.1,0.1-0.2,0.2-0.4,0.2c-0.4,0.2-0.7,0.4-1.2,0.6
	c-0.9,0.3-1.7,0.6-2.4,0.8c-1.3,0.2-1.2,0.1-1.5,1.2c-0.1,0.4-0.1,0.6-0.1,0.9c0.1,3.7-2,9.5,0.2,12.7c0.4,0.5,0.9,0.9,1.4,1.1
	c0.3,0.2,0.6,0.1,0.9,0.1c0.6-0.2,1.3-0.5,1.9-0.9c0.9-0.6,1.7-1.2,2.4-1.7c0.4-0.3,0.6-0.6,0.9-0.9c0.9-1.2,1.7-2.2,2.4-3.5
	c0.1-0.3,0.4-0.5,0.5-0.7c1.2-1.4,1.9-3,2.9-4.4c0.1-0.2,0.3-0.4,0.4-0.6c0.5-1.2,1.2-2.2,1.9-3.2c0.1-0.3,0.4-0.6,0.8-0.6
	C129.3,144.9,129.5,145.1,129.7,145.3z M119.8,135.2c0-0.1-0.1-0.3-0.2-0.4c-0.7-0.7-1.5-1.2-2.6-1c-0.8,0.1-1.4,0.5-1.7,1.3
	s-0.7,1.6-0.8,2.5c0,0.2-0.1,0.5-0.2,0.7c-0.4,0.8-0.4,1.7-0.6,2.4c-0.1,0.6-0.1,1.2-0.4,1.8c-0.1,0.4-0.3,0.8-0.1,1.2
	c1.2-0.1,2.3-0.4,3.4-0.9c0.7-0.4,1.3-0.8,1.7-1.4c0.6-0.9,1.2-1.7,1.7-2.7c0.1-0.1,0.2-0.4,0.1-0.6c-0.1-0.4,0-0.6,0.1-1
	c0.1-0.2,0.1-0.5,0.2-0.7C120.1,136.1,119.9,135.7,119.8,135.2z"/>
<path class="st2" d="M128,129.7c-0.8-0.2-1.5-0.5-2.2-0.6c-0.5-0.1-1.1-0.3-1.6-0.4c-0.2-0.1-0.5-0.3-0.7-0.4c-1-0.4-1.9-0.6-3-0.6
	c-0.4-0.1-0.9-0.3-1.2-0.4c-0.7-0.1-1.3-0.4-2-0.1c-0.4,0-0.9,0.1-1.3,0.1c-0.3,0-0.6-0.1-0.9-0.1c-0.1-0.1-0.2-0.2-0.1-0.3
	c0.1-0.1,0.1-0.1,0.1-0.2c0.5-0.2,1-0.5,1.4-0.7c0.9-0.4,1.7-0.5,2.5-0.6c0.9,0,1.8,0.1,2.7,0.1c0.6,0,1.3,0.1,1.9,0.1
	c0.4,0.1,0.7,0.1,1,0.1c0.6,0.1,1.1,0.1,1.5,0.1c0.8-0.1,1.5-0.1,2.4,0c0.2,0.1,0.6,0.1,0.8,0.1c0.2-0.2,0.2-0.5,0.2-0.6
	c0.2-1.2,0.4-2.3,0.6-3.5c0.1-0.7,0.3-1.4,0.6-2c0-0.1,0.1-0.1,0.1-0.1c0.5,0,0.9,0.1,1.2,0.5c0.1,0.3,0.3,0.5,0.4,0.7
	c0.2,0.4,0.3,0.9,0.1,1.3c-0.1,0.2-0.1,0.6-0.1,0.8c0.1,0.6,0.1,1.4,0.3,2c0,0.1,0,0.3,0,0.4c0,0.2,0.1,0.4,0,0.6
	c0,0.5,0.2,0.8,0.7,1c0.8,0.4,1.7,0.6,2.5,0.9c0.1,0.1,0.4,0.1,0.5,0.1c1.1,0.1,2.1,0,3.1-0.4c1.4-0.5,2.7-1,4-1.5
	c0.3-0.1,0.7-0.2,1-0.4c0.4-0.2,0.9-0.1,1.3,0.1c0.1,0.4-0.3,0.7-0.1,1.1c-0.4,0.4-0.8,0.7-1.2,1c-0.1,0.1-0.2,0.1-0.4,0.2
	c-0.5,0.2-1.1,0.4-1.6,0.7c-0.1,0-0.1,0-0.2,0c-0.4,0.1-0.8,0.2-1.2,0.5c-0.1,0.1-0.3,0.1-0.4,0.1c-0.2,0.1-0.4,0.2-0.6,0.4
	c-0.2,0.1-0.3,0.2-0.5,0.2c-0.3,0-0.4,0.1-0.6,0.4c0,0.1,0,0.1-0.1,0.1c-0.2,0.4-0.3,0.4-0.7,0.1c-0.2,0.1-0.4,0.2-0.7,0.4
	c-0.1,0.1-0.4,0.2-0.6,0.2c-0.1,0.1-0.1,0-0.1,0.1c-0.5,0.2-1.1,0.2-1.5,0.1c-0.5,0-1,0-1.4-0.1c-0.1,0-0.4,0-0.4,0
	c-0.1,0-0.4,0-0.6,0c-0.1,0.5,0,1.1,0,1.6c-0.1,0.9,0,1.9-0.1,3c0,0.3,0,0.6,0,0.9c0,0.1,0,0.3,0,0.4c-0.1,0.4-0.1,0.6-0.1,1
	c0.6,8.5-0.5,17.1-0.5,25.6c0,0.2,0,0.5,0,0.7c0.1,0.3,0,0.6,0,0.9c0,0,0,0.1,0,0.3c0.1,0.3,0,0.6,0,1c-0.1,0.6,0.1,1.2,0.7,1.4
	c0.3,0.1,0.5,0,0.7-0.1c0.3-0.3,0.5-0.4,0.9-0.8c0.4-0.6,0.9-1.2,1.4-1.8c1.5-2.1,2.9-4.2,4.2-6.2c0.1-0.2,0.1-0.4,0.3-0.5
	c0.5-0.7,0.9-1.5,1.4-2.2c0.5-0.8,1-1.6,1.5-2.3c0.4-0.6,0.7-1.2,1.2-1.7c0.7-1.2,1.6-2.4,2.4-3.5c0.1-0.1,0.1-0.3,0.1-0.4
	c0.3-0.4,0.6-0.9,0.9-1.4c0.4-0.4,0.6-1,0.9-1.6c0.2-0.4,0.4-0.8,0.6-1.2c0.2-0.2,0.4-0.2,0.7-0.1c0.6,0.2,0.9,0.5,0.5,1.2
	c-0.1,0.1-0.1,0.1-0.1,0.1c-0.1,0.1-0.2,0.3-0.2,0.4c-0.1,0.3-0.1,0.5-0.3,0.7c-0.2,0.4-0.4,0.7-0.6,1.2c-0.9,1.6-1.7,3.5-2.8,5
	c-1.9,2.7-3.7,5.3-5,8.2c-0.7,1.4-1.4,2.7-2.2,4c-0.9,1.3-2.2,2-3.2,3.1c-0.4,0.5-0.8,0.9-1.3,1c-0.1,0-0.2,0.1-0.3,0.1
	c-0.4,0.2-0.6,0.3-0.9,0.3c-0.9,0-1.9,0-3-0.3c-1.7-0.3-2.7-1.3-3.3-3c-0.4-1-0.6-2.1-0.6-3.1c-0.1-0.5-0.1-0.9-0.2-1.4
	c0-0.3,0-0.4-0.1-0.7c-0.1-0.6-0.1-1.3-0.1-1.9c0-0.3,0-0.6,0-1.1c0-0.6,0-1.4,0-2.1c0-0.7,0.1-1.6,0.1-2.3c0.1-0.4,0.1-0.7,0.1-1.2
	c0-0.6,0.1-1.2,0.1-1.7c0.1-1.3,0.1-2.6,0.2-3.9c0.1-0.3,0.1-0.6,0.1-0.9c0.1-1.5,0.3-3,0.6-4.5c0.1-0.9,0.1-2,0.2-3
	c0.3-1.7,0.4-3.4,0.7-5c0.1-0.8,0.2-1.7,0.3-2.4c0.1-0.4,0.1-0.6,0.1-1.1C128.5,130.1,128.3,129.9,128,129.7z"/>
<path class="st0" d="M276.5,162c1.7-2.1,3.3-4.3,4.9-6.6c1.7-2.4,3.3-4.9,4.9-7.3c0.3-0.4,0.5-0.9,0.6-1.4c0.4-2,0.9-4,1.3-6
	c0.1-0.8,0.2-1.6,0.3-2.4c0.1-0.9,0.1-1.7,0.4-2.6c0.5-1.6,0.7-3.2,1-4.8c0.4-1.5,0.7-3,1.1-4.5c0.2-0.9,0.5-1.8,0.7-2.7
	c0.1-0.3,0.1-0.6,0.3-0.9c0.9-1.4,1.3-3,1.8-4.6c0.3-0.9,0.4-0.9,1.4-0.9c0.1,0,0.2,0.1,0.4,0.1c1.2,0.1,1.4,0.4,1.4,1.6
	c0.1,0.6,0.1,1.3,0.2,2c0,0.3-0.1,0.6-0.1,0.9c-0.1,0.8-0.1,1.5,0.4,2.2c0.3,0.3,0.2,0.6,0.1,1c-1.4,5.3-1.4,10.9-2,16.3
	c-0.6,5.3-1.1,10.6-1.7,15.8c-0.4,3.1-0.7,6.2-1.4,9.2c-0.4,2.4-1.1,4.7-1.7,7.1c-0.4,1.6-0.7,3.2-0.4,4.8c0.1,0.3,0.1,0.6,0.2,0.9
	c0.3,0.9,1.1,1.3,1.9,0.8c4.4-2.6,7.6-9.1,9.6-13.5c2.6-5.3,4.5-10.8,6.6-16.2c0.7-1.9,1.3-6.5,4.2-5.5c-4.3,12-8.3,25-17,34.6
	c-2.4,2.7-5.5,4.6-9.1,4.2c0,0,0,0-0.1,0c-4.5-4-3.7-10.5-2.7-15.8c0.3-1.6,0.5-3.2,0.6-4.9c0.1-1.7,0.5-3.4,0.8-5
	c0.1-1.4,0.3-2.7,0.4-4c0.1-0.4-0.1-0.7-0.2-1.2c-0.2,0.3-0.4,0.4-0.5,0.6c-0.7,1-1.4,2.1-2.1,3.2c-0.4,0.7-0.9,1.4-1.4,2.1
	c-3.6,5.3-6.8,11.7-13.2,14.2c-1.3,0.5-2.6,0.8-4,0.5c-1-0.1-1.9-0.6-2.7-1.3c-1.6-1.6-2.2-3.5-2.2-5.5c-0.1-0.8-0.1-1.7-0.1-2.4
	c-0.1-0.6,0-1.2,0-1.7c0.1-1.1,0.3-2.1,0.4-3.1c0.1-0.4,0.2-0.9,0.1-1.3c-0.1-2,0.4-4,0.6-5.9c0.2-1.6,0.4-3.2,0.7-4.8
	c0.2-1.2,0.6-2.4,0.6-3.7c0.1-3.7,1.3-7.3,2-10.9c0.6-2.7,1-5.3,1.4-7.8c0.2-2,0.9-4,0.5-6c-0.4-2.2-2.2-1-3.4,0.1
	c-1.6,1.6-2.9,3.3-4,5.2c-0.4,0.6-0.9,1-1.7,1.3c-0.4,0.2-0.9,0.1-1.4-0.4c0.6-1.2,1.2-2.5,1.9-3.7c0.7-1.2,1.6-2.4,2.7-3.5
	c2.2-2.2,4.8-3.5,8-3.6c1.1-0.1,2.1,0.1,2.8,1.2c0.1,0.1,0.1,0.2,0.3,0.3c0.9,0.5,1.2,1.3,1.4,2.2c0.1,0.4,0.2,0.6,0.3,0.9
	c0.4,0.9,0.2,1.9,0.3,2.9c0.1,3.6,0.3,7.1-0.1,10.7c-0.6,7.1-3,14-4.5,21c-0.5,2.3-1,4.5-1.4,6.8c-0.2,1.5-1.5,7.4,0.6,8
	C270,168.8,275.5,163.3,276.5,162z"/>
</svg>
