<svg id="Calque_1" data-name="Calque 1" xmlns="http://www.w3.org/2000/svg" viewBox="0 0 15.44 5.93"><defs><style>.cls-1{fill:#fff;}</style></defs><title>parents</title><path class="cls-1" d="M1.7,5.7a1,1,0,0,1-.32-.16A1.89,1.89,0,0,1,1,5.3a1.35,1.35,0,0,1-.28-.37,4.25,4.25,0,0,1-.2-.55A2.32,2.32,0,0,1,.5,4a1.6,1.6,0,0,0,0-.24.05.05,0,0,0,0-.06s-.06,0-.08,0a.37.37,0,0,1-.25-.28,1,1,0,0,1,0-.13.94.94,0,0,1,0-.41.4.4,0,0,1,.29-.32.26.26,0,0,1,.1,0l.08,0a.05.05,0,0,0,0,0,.07.07,0,0,0,0,0l0,0A1.36,1.36,0,0,1,.2,2.2.68.68,0,0,1,0,1.65a.4.4,0,0,1,.37-.34H.55s.06,0,.06,0V1.09A.61.61,0,0,1,.75.74.45.45,0,0,1,1.19.56a.34.34,0,0,1,.16,0s.07,0,.07,0l0,0a.55.55,0,0,0,0-.06A.64.64,0,0,1,1.7.15.6.6,0,0,1,2,0a.28.28,0,0,1,.29.11.89.89,0,0,1,.14.2.22.22,0,0,1,0,.06.06.06,0,0,0,.07,0A.84.84,0,0,1,2.72.27.82.82,0,0,1,3,.13H3.1a.37.37,0,0,1,.16.07.44.44,0,0,1,.16.29v.1c0,.11,0,.11.12.08l.14,0h.13a.28.28,0,0,1,.28.29.76.76,0,0,1,0,.16.79.79,0,0,0,0,.12,0,0,0,0,0,0,0h0l.13,0a.36.36,0,0,1,.24.18.54.54,0,0,1,0,.38A1.61,1.61,0,0,1,4.44,2a.13.13,0,0,0,0,.07s0,0,0,0l.07,0,.07,0a.32.32,0,0,1,.11.36.22.22,0,0,1-.06.08s0,.06,0,.1a.51.51,0,0,1,.1.35.22.22,0,0,1,0,.12.84.84,0,0,1-.18.28.36.36,0,0,1-.2.14s-.07,0-.11,0a.12.12,0,0,0-.1.12c0,.12,0,.24-.08.36a3.88,3.88,0,0,1-.19.64,2.19,2.19,0,0,1-.18.32,1.3,1.3,0,0,1-.73.6,1.4,1.4,0,0,1-.61.12A2.06,2.06,0,0,1,1.7,5.7ZM.46,3.45a1,1,0,0,0,0-.17c0-.16,0-.31,0-.47a.24.24,0,0,0-.16-.18.14.14,0,0,0-.13,0,.21.21,0,0,0-.07.13.81.81,0,0,0,0,.13V3a1.07,1.07,0,0,0,.13.43.2.2,0,0,0,.14.1S.46,3.47.46,3.45ZM.62,2.2l.11-.3a.6.6,0,0,0,0-.11.17.17,0,0,0,0-.13.42.42,0,0,0-.16-.17.27.27,0,0,0-.25,0,.24.24,0,0,0-.16.19.18.18,0,0,0,0,.07A1.23,1.23,0,0,0,.2,2a.75.75,0,0,0,.31.3A.07.07,0,0,0,.62,2.2ZM3.11,5.42A1.14,1.14,0,0,0,3.54,5a2.15,2.15,0,0,0,.26-.59c.06-.22.12-.46.16-.67a.29.29,0,0,1,0-.11,4.25,4.25,0,0,0,.1-.54.76.76,0,0,0,0-.32.05.05,0,0,0-.07,0,.25.25,0,0,0-.12,0s-.07,0-.08.1a.71.71,0,0,1-.19.36.39.39,0,0,1-.11.08A.47.47,0,0,1,2.9,3.2L2.78,3s0-.1-.08-.12a.68.68,0,0,0-.16-.1h0a.49.49,0,0,0-.29-.07.08.08,0,0,0-.07.06.17.17,0,0,0,0,.11.43.43,0,0,1-.34.3.57.57,0,0,1-.2,0l-.13,0a.46.46,0,0,1-.32-.41c0-.14,0-.14-.17-.2l-.07,0-.13,0s0,0,0,0a.37.37,0,0,0-.06.14c0,.24,0,.48,0,.72v.44a3.72,3.72,0,0,0,.07.5c0,.14.11.29.17.43a.87.87,0,0,0,.31.46,1.27,1.27,0,0,0,.25.19,1,1,0,0,0,.35.16,1.81,1.81,0,0,0,.72.06A1.59,1.59,0,0,0,3.11,5.42ZM1,1.4a1.29,1.29,0,0,1,.3-.32L1.37,1a.08.08,0,0,0,0-.12A.32.32,0,0,0,1.15.69H1.09A.4.4,0,0,0,.79,1s0,.11,0,.13a.75.75,0,0,0,0,.25l0,.08a.06.06,0,0,0,.08,0S1,1.43,1,1.4Zm1.7,1.21a.32.32,0,0,0,0-.1s0-.08.08-.11A.64.64,0,0,1,3,2.21a.39.39,0,0,1,.2,0,.16.16,0,0,1,.1,0,.46.46,0,0,0,.12.1.38.38,0,0,1,.14.13.37.37,0,0,1,.11.17s0,0,.08,0A.72.72,0,0,1,4,2.56a.13.13,0,0,0,0-.11,3.34,3.34,0,0,0,0-.35A.56.56,0,0,0,4,2a3.53,3.53,0,0,1-.16-.41.7.7,0,0,0-.41-.46A2.09,2.09,0,0,0,3.1,1a.78.78,0,0,0-.41,0,.64.64,0,0,1-.26,0A1.34,1.34,0,0,0,2,.93H1.91a.85.85,0,0,0-.25,0,1.37,1.37,0,0,0-.49.37A2.66,2.66,0,0,0,1,1.66C.91,1.82.86,2,.8,2.15a.18.18,0,0,0,0,.08c0,.08,0,.12.08.14l.2.07a.08.08,0,0,0,.11,0s0,0,0-.06a.52.52,0,0,1,.35-.26.31.31,0,0,1,.18,0A1.1,1.1,0,0,1,2,2.27a.61.61,0,0,1,.16.2c0,.08.08.11.17.12a1.33,1.33,0,0,1,.3.06S2.66,2.66,2.67,2.61ZM1.95,5.09a1,1,0,0,1-.32-.16l-.16-.12a1.66,1.66,0,0,1-.35-.42c0-.11-.11-.19-.14-.29a.46.46,0,0,1,0-.18s0,0,0,0,0,0,0,0a.26.26,0,0,1,0,.07,1.82,1.82,0,0,0,.13.26,1.37,1.37,0,0,0,.26.38,1.17,1.17,0,0,0,.6.35.74.74,0,0,0,.46,0,1.13,1.13,0,0,0,.61-.49c.06-.11.12-.2.17-.31l.11-.23,0,0s0,0,.06,0a.07.07,0,0,1,0,.06V4a.74.74,0,0,0-.06.14c0,.1-.08.2-.14.3A1.33,1.33,0,0,1,2.83,5a1.62,1.62,0,0,1-.52.17H2.24A1,1,0,0,1,1.95,5.09Zm-.22-2A.27.27,0,0,0,2,2.86a.09.09,0,0,0,0,0,.38.38,0,0,0,0-.3.47.47,0,0,0-.35-.25.12.12,0,0,0-.11,0,.36.36,0,0,0-.23.26c0,.06,0,.12,0,.18a.26.26,0,0,0,.06.19.46.46,0,0,0,.2.16l.17,0Zm-.25-.37a.1.1,0,0,1,0-.1s0-.07,0-.1a.11.11,0,0,1,.12,0,.13.13,0,0,1,.1.12.12.12,0,0,1-.11.13A.18.18,0,0,1,1.48,2.71ZM3.2.86A1.84,1.84,0,0,0,3.28.58a.32.32,0,0,0,0-.18A.21.21,0,0,0,3,.28l-.11,0a.72.72,0,0,0-.25.25.49.49,0,0,1-.07.1.07.07,0,0,1-.12,0l0-.1,0-.14A.61.61,0,0,0,2.25.24.23.23,0,0,0,2,.16a.56.56,0,0,0-.41.56v0a.09.09,0,0,0,.07.06.78.78,0,0,1,.29,0H2a2.42,2.42,0,0,1,.52,0,.57.57,0,0,0,.14,0A.59.59,0,0,1,3,.86l.16,0A.07.07,0,0,0,3.2.86Zm-.95,3s-.06,0-.06,0a.09.09,0,0,1,.06-.08h.14a.28.28,0,0,0,.13-.07.16.16,0,0,0,0-.2l-.06,0-.1,0s0,0,0-.06l0,0a.22.22,0,0,1,.26.13l0,.11a.26.26,0,0,1-.07.23.31.31,0,0,1-.29.11Zm1.22-.76a.51.51,0,0,0,.13-.25V2.79a.36.36,0,0,0-.06-.19.28.28,0,0,0-.19-.16l-.06,0a.4.4,0,0,0-.43.12l0,.07a.17.17,0,0,1,0,.08.7.7,0,0,0,0,.22.63.63,0,0,0,.19.24A.29.29,0,0,0,3.47,3.13Zm-.42-.35a.23.23,0,0,1,0-.16s.06,0,.08,0a.32.32,0,0,1,.1,0,.12.12,0,0,1,.06.16.12.12,0,0,1-.11.07A.18.18,0,0,1,3.05,2.78Zm.79-1.62A.38.38,0,0,0,3.94,1,.26.26,0,0,0,4,.92.17.17,0,0,0,3.81.74h0a1,1,0,0,0-.35.14l0,0s0,0,0,0,0,0,.07,0a1.24,1.24,0,0,1,.26.17A.09.09,0,0,0,3.84,1.16Zm.55.59a.34.34,0,0,0,0-.22.12.12,0,0,0,0-.08.29.29,0,0,0-.22-.11.23.23,0,0,0-.16,0,.06.06,0,0,0,0,.07.47.47,0,0,0,0,.12,3.71,3.71,0,0,0,.2.5,0,0,0,0,0,.07,0A.68.68,0,0,0,4.4,1.75Zm.08.79a.17.17,0,0,0,.08-.17.14.14,0,0,0-.13-.12l-.2,0a.06.06,0,0,0-.06.06v.2a.07.07,0,0,0,0,0,.1.1,0,0,0,.11,0C4.35,2.61,4.42,2.59,4.48,2.54Zm0,.76a.48.48,0,0,0,.1-.17.3.3,0,0,0,0-.3.11.11,0,0,0-.12,0,.24.24,0,0,1-.1,0,.28.28,0,0,0-.12.2,1.51,1.51,0,0,1,0,.23.52.52,0,0,1,0,.12.07.07,0,0,0,0,0,.05.05,0,0,0,0,0A.49.49,0,0,0,4.48,3.29Z"/><path class="cls-1" d="M8.49,5.91a3.71,3.71,0,0,1-.38-.14,1.5,1.5,0,0,1-.52-.42l-.1-.13s0,0-.07,0l0,0a.49.49,0,0,1-.29.07.74.74,0,0,1-.32,0A4.48,4.48,0,0,1,6.28,5L6.2,4.92a.13.13,0,0,1,0-.13,1.05,1.05,0,0,1,.1-.14.59.59,0,0,0,.13-.37.72.72,0,0,1,0-.16c0-.35,0-.7,0-1a6.84,6.84,0,0,1,0-.71,1.82,1.82,0,0,1,.12-.56A1.36,1.36,0,0,1,7,1.13.84.84,0,0,1,7.47,1h.18a.54.54,0,0,1,.41.16.13.13,0,0,0,.1,0,.09.09,0,0,1,0,0A.51.51,0,0,0,8.32,1l0,0a1.46,1.46,0,0,1,.35-.2A1.09,1.09,0,0,1,9.19.67h.4l.22,0a1.14,1.14,0,0,1,.54.3,1.74,1.74,0,0,1,.36.47.42.42,0,0,0,0,.11,2.52,2.52,0,0,1,.25.8c0,.11,0,.22,0,.32s0,.32,0,.49-.07.43-.11.64a1.12,1.12,0,0,0-.06.35,1.79,1.79,0,0,0,0,.56.69.69,0,0,1,0,.17.18.18,0,0,1-.08.18l-.26.16a.8.8,0,0,1-.24.07H10a.36.36,0,0,1-.19-.06.08.08,0,0,0-.1,0l-.1.11a1.77,1.77,0,0,1-.36.31,1.15,1.15,0,0,1-.41.18A1.3,1.3,0,0,1,8.49,5.91ZM7.34,5.06s0,0,0-.08-.08-.31-.13-.46a.19.19,0,0,0-.08-.08s-.08,0-.13-.06A.14.14,0,0,1,7,4.3c0-.11-.13-.2-.17-.32a.53.53,0,0,1,0-.19A.33.33,0,0,1,7,3.56s0,0,.07,0,.06,0,.06-.11V3a.2.2,0,0,1,0-.08.06.06,0,0,1,.06-.06.32.32,0,0,0,.25-.06,2.13,2.13,0,0,0,.29-.2.58.58,0,0,0,.14-.16A2.58,2.58,0,0,0,8.17,2a.13.13,0,0,0,0-.1A.83.83,0,0,1,8,1.42H8A.2.2,0,0,0,8,1.27a.35.35,0,0,0-.17-.1,1.09,1.09,0,0,0-.28,0A.72.72,0,0,0,7,1.36l-.14.17A.94.94,0,0,0,6.61,2l-.06.28a1.79,1.79,0,0,0,0,.25c0,.19,0,.38,0,.59s0,.18,0,.26a1.56,1.56,0,0,1,0,.23,4.08,4.08,0,0,0,0,.54v.14a.77.77,0,0,1-.14.5.12.12,0,0,0,0,.06s0,.06,0,.07.06.06.1.06a1.44,1.44,0,0,0,.26.14.58.58,0,0,0,.47,0A.28.28,0,0,0,7.34,5.06Zm-.17-.84v-.1l0-.34v0s-.06-.07-.12,0H7a.19.19,0,0,0-.11.18v0a.79.79,0,0,0,.16.28s0,0,0,0S7.16,4.24,7.17,4.22ZM9.1,5.69a1.48,1.48,0,0,0,.28-.2,2.54,2.54,0,0,0,.29-.32A3.86,3.86,0,0,0,10,4.48a4.73,4.73,0,0,0,.22-1l0-.24a.09.09,0,0,0-.06-.08,1.57,1.57,0,0,0-.25-.07L9.61,3a1.86,1.86,0,0,1-.68-.31l-.24-.2-.24-.24a.94.94,0,0,0-.11-.11,0,0,0,0,0-.08,0l-.06.08A2.12,2.12,0,0,1,8,2.51l-.06.1A1.73,1.73,0,0,1,7.36,3c-.11,0-.11,0-.11.13s0,.13,0,.2,0,.16,0,.25v.1a4.4,4.4,0,0,0,.08.7,2.57,2.57,0,0,0,.31.83,1,1,0,0,0,.4.38,1.81,1.81,0,0,0,.48.18h.13A.87.87,0,0,0,9.1,5.69ZM7.67,3.35a.15.15,0,0,1,0-.12A.42.42,0,0,1,7.89,3l.19,0a.18.18,0,0,1,.14,0,.69.69,0,0,1,.19.18.11.11,0,0,1,0,.11s0,0-.06,0-.06,0-.1-.06a.71.71,0,0,0-.1-.1.28.28,0,0,0-.14,0c-.06,0-.11,0-.17.08l-.11.12-.06,0Zm.79,2a.77.77,0,0,1-.36-.23,1.86,1.86,0,0,1-.18-.24,1,1,0,0,1-.17-.35,1.64,1.64,0,0,1,0-.18.22.22,0,0,1,0-.13,0,0,0,0,1,.07,0s0,0,0,.07a.23.23,0,0,1,0,.12,1.15,1.15,0,0,0,.24.5L8.26,5a.28.28,0,0,0,.13.08,1,1,0,0,0,.37.1.36.36,0,0,0,.14,0,1,1,0,0,0,.42-.42,3,3,0,0,0,.19-.38.49.49,0,0,1,.08-.13h.06s0,0,0,.06a.12.12,0,0,1,0,0,2.76,2.76,0,0,1-.28.58A1.24,1.24,0,0,1,9,5.27a.5.5,0,0,1-.4.07Zm2.07-.22.1-.06a.14.14,0,0,0,.06-.14,2,2,0,0,1,0-.28,2,2,0,0,1,.07-.79,5.86,5.86,0,0,0,.14-.9V2.78l0-.32a1.71,1.71,0,0,0-.25-.8c0-.06-.06-.12-.08-.17A1.53,1.53,0,0,0,10.11,1,1,1,0,0,0,9.66.83a2.36,2.36,0,0,0-.29,0L9,.85a.5.5,0,0,0-.18,0,1.93,1.93,0,0,0-.56.35.22.22,0,0,0-.1.19v.08A.58.58,0,0,0,8.37,2l.13.14a2.1,2.1,0,0,0,.56.52,1.54,1.54,0,0,0,.6.28l.55.13h0s.06,0,.07.08a.38.38,0,0,1,0,.17c0,.06,0,.14,0,.22v.13s0,0,0,0,0,0,.07,0a.17.17,0,0,1,.1.14.91.91,0,0,1-.06.44.33.33,0,0,1-.17.14l-.12,0a.09.09,0,0,0-.07.07.78.78,0,0,0-.07.14,2.71,2.71,0,0,1-.14.35s0,0,0,.06,0,0,0,.06l.06,0a.77.77,0,0,0,.24,0A.75.75,0,0,0,10.54,5.09Zm-1.91-1s0,0,0-.07,0,0,0,0h.11a.09.09,0,0,0,.1-.08.11.11,0,0,0-.06-.13.25.25,0,0,0-.08,0s0,0,0,0,0,0,0,0a0,0,0,0,1,0,0h0A.28.28,0,0,1,9,3.89a.27.27,0,0,1-.1.18l0,0a.55.55,0,0,1-.13,0A.19.19,0,0,1,8.63,4.1Zm1-.55a.34.34,0,0,1-.07-.11l-.11-.08a.2.2,0,0,0-.25,0l-.11.1a0,0,0,0,1-.07,0,.16.16,0,0,1,0-.14.37.37,0,0,1,.19-.12h.07l.22.08.07.06a.54.54,0,0,1,.11.18.06.06,0,0,1-.06.07Zm.66.72A.39.39,0,0,0,10.4,4a.1.1,0,0,0,0-.07.05.05,0,0,0-.06,0,.06.06,0,0,0,0,0,2.49,2.49,0,0,0-.07.29s0,0,0,0l0,0Z"/><path class="cls-1" d="M12.85,4.52l-.11,0a.17.17,0,0,1-.13-.06.3.3,0,0,1-.14-.23.42.42,0,0,1,.16-.38.33.33,0,0,1,.18-.1l.1,0a0,0,0,0,0,0,0l0-.06a1.54,1.54,0,0,1-.14-.28.55.55,0,0,1,0-.24.39.39,0,0,1,0-.17.62.62,0,0,1,.23-.2,1,1,0,0,1,.37-.11,1.16,1.16,0,0,1,.29,0,.55.55,0,0,1,.38.29,1.1,1.1,0,0,1,.13.47l0,.3s0,0,0,0h.07l.06,0a1.16,1.16,0,0,0,.43-.36,2.18,2.18,0,0,0,.12-.23.75.75,0,0,0,0-.17.17.17,0,0,0-.07-.11.27.27,0,0,0-.19,0,.2.2,0,0,0-.18.19.17.17,0,0,0,0,.07l.08.07s0,0,0,0a.06.06,0,0,1-.08.06l-.12-.1a.09.09,0,0,1,0-.08.21.21,0,0,1,0-.2.31.31,0,0,1,.42-.16A.3.3,0,0,1,15,3a.28.28,0,0,1,0,.14.72.72,0,0,1-.16.3l-.07.11H15a.56.56,0,0,1,.38.2.34.34,0,0,1,0,.18.22.22,0,0,1,0,.11.28.28,0,0,1-.24.13A.25.25,0,0,1,14.9,4a.13.13,0,0,1,0-.1s0,0,0,0,0,0,0,0V4a.13.13,0,0,0,.14.11A.23.23,0,0,0,15.28,4a.18.18,0,0,0,0-.11s0,0,0-.06A.39.39,0,0,0,15,3.7h-.14a1.19,1.19,0,0,0-.49.22h0s.06,0,.08,0a1.5,1.5,0,0,1,.41.23,1.32,1.32,0,0,1,.31.41.6.6,0,0,1,0,.32.53.53,0,0,1-.14.25.66.66,0,0,1-.34.14h0a.76.76,0,0,1-.68-.2A1.27,1.27,0,0,1,13.95,5a.06.06,0,0,0,0,0l0,0s0,0,0,0l0,.1a.31.31,0,0,1-.35.16.38.38,0,0,1-.37-.35s0-.11,0-.17,0,0,0,0l-.07,0a.18.18,0,0,1-.11,0,.11.11,0,0,1-.11-.1s0-.07,0-.11Zm-.25-.38a.19.19,0,0,0,.11.19.42.42,0,0,0,.4,0l.12-.06c.13-.06.24-.13.37-.2s0,0,0,0,0,0,0,0l-.28-.11h-.06a.14.14,0,0,1-.12,0l-.2,0s0,0-.08,0A.31.31,0,0,0,12.59,4.13ZM13,4H13l0,0,.11.1s0,0,0,0,0,0,0,.06a.1.1,0,0,1-.07,0l-.24,0-.06,0a.08.08,0,0,1,0-.11.11.11,0,0,1,.1-.07Zm.46-1.2a.59.59,0,0,0-.36.07.45.45,0,0,0-.18.16.34.34,0,0,0,0,.2.81.81,0,0,0,.24.46,1.05,1.05,0,0,0,.3.18l.34.12a.2.2,0,0,0,.17,0,.19.19,0,0,0,.08,0c.1-.06.11-.06.1-.17s0-.25,0-.37A1.46,1.46,0,0,0,13.93,3a.41.41,0,0,0-.29-.22A.46.46,0,0,0,13.42,2.75Zm-.28.53v0a.06.06,0,0,1-.08,0A.1.1,0,0,1,13,3.23.35.35,0,0,1,13.16,3a.42.42,0,0,1,.46,0h0a.06.06,0,0,1,0,.11l-.11,0a.34.34,0,0,0-.3.07A.21.21,0,0,0,13.15,3.28Zm.64,1.36a3.45,3.45,0,0,0,0-.35s0,0,0,0h0l0,0-.25.19a.26.26,0,0,0-.11.08.25.25,0,0,0,0,.13s0,0,0,.06a.42.42,0,0,0,0,.22.28.28,0,0,0,.13.18l.13,0a.13.13,0,0,0,.1,0A.18.18,0,0,0,13.72,5a.23.23,0,0,0,0-.1A2.38,2.38,0,0,0,13.78,4.64Zm-.35-1.38a.07.07,0,0,0,0,0l-.11,0-.06,0a.06.06,0,0,1,0-.08.16.16,0,0,1,.14,0S13.43,3.23,13.43,3.26Zm.18,1.39a.28.28,0,0,1,0,.17.14.14,0,0,1-.12.08s-.07,0-.08-.08a.13.13,0,0,1,0-.1.92.92,0,0,1,.07-.19l0,0s0,0,0,0a.1.1,0,0,1,.08.08Zm1,.58h.08a.57.57,0,0,0,.3-.13.34.34,0,0,0,.11-.2.37.37,0,0,0,0-.25.69.69,0,0,0-.18-.26,1.12,1.12,0,0,0-.38-.25l-.18-.06a.36.36,0,0,0-.28,0,.25.25,0,0,0-.1,0,.08.08,0,0,0-.06.08v.1a3,3,0,0,1,.07.43h0a.53.53,0,0,0,.17.28.79.79,0,0,0,.34.2A.27.27,0,0,0,14.62,5.22Zm0-.2a.47.47,0,0,1-.25-.07.09.09,0,0,1,0,0s0,0,0-.06a0,0,0,0,1,.06,0l.06,0a.51.51,0,0,0,.19,0,.27.27,0,0,0,.19-.1l.07-.07a.08.08,0,0,1,.07,0,0,0,0,0,1,0,.06.42.42,0,0,1-.2.2Zm0-.29-.07,0s0,0,0-.06a.06.06,0,0,1,0,0l.16,0s.06.06,0,.08a.08.08,0,0,1-.07.06Z"/></svg>