<?xml version="1.0" encoding="utf-8"?>
<!-- Generator: Adobe Illustrator 21.1.0, SVG Export Plug-In . SVG Version: 6.00 Build 0)  -->
<svg version="1.1" id="SWEET_HOME" xmlns="http://www.w3.org/2000/svg" xmlns:xlink="http://www.w3.org/1999/xlink" x="0px" y="0px"
	 viewBox="0 0 300 300.1" style="enable-background:new 0 0 300 300.1;" xml:space="preserve">
<style type="text/css">
	.st0{opacity:0.85;fill:#FFFFFF;enable-background:new    ;}
	.st1{enable-background:new    ;}
	.st2{fill:#5A5C69;}
</style>
<rect id="Fond_accroche" y="0" class="st0" width="300" height="300.1"/>
<g>
	<g class="st1">
		<path class="st2" d="M44.6,235.2c-0.2,0-0.3-0.1-0.5-0.2c-0.1-0.1-0.2-0.2-0.2-0.3c0-0.1,0-0.2,0-0.3c0-0.4,0-0.8-0.1-1.2
			c0-0.2,0-0.3,0-0.5c0-1,0-1.9,0-2.9c0-0.9,0-1.9,0-2.8c0-0.4,0-0.7-0.1-1.1c-0.1-0.2,0-0.5,0-0.7c0-1.8,0-4.4-0.1-6.3v-1
			c0-0.1,0.1-0.2,0.2-0.3s0.2-0.1,0.4-0.2c0.4-0.1,0.8-0.1,1.2,0c0.2,0.1,0.4,0.3,0.4,0.6c0,0.2,0,0.3,0,0.5v3.3h0v2.3
			c0,0.4,0,0.7,0.1,1.1c0,0.2,0,0.4,0,0.6c0,1.8,0,3.6,0,5.5c0,0.5,0.1,1,0.1,1.6c0.1,0.6,0.1,1.3,0,1.9c0,0,0,0.1,0,0.1
			c0,0.1-0.2,0.2-0.2,0.2C45.4,235.3,45,235.3,44.6,235.2z"/>
		<path class="st2" d="M56.2,234.9l-0.5-1c-0.5-1-0.9-2-1.3-2.9l-0.1-0.2c-0.8-1.8-1.7-4.1-2.5-5.8c-0.4-0.8-0.6-1.6-1-2.4
			c0-0.1-0.1-0.1-0.1-0.1c0,0-0.1,0.1-0.1,0.1c0,0.8,0.1,1.6,0.1,2.3c0,0.6,0.1,1.1,0,1.6c-0.1,0.3-0.1,1-0.1,1.3v3.6
			c0,0.2,0,0.5,0,0.7c0,0.2,0,0.3,0.1,0.5c0,0.1,0.1,0.2,0.1,0.3v1.5c0,0.2-0.1,0.3-0.2,0.4c-0.2,0.1-0.3,0.2-0.6,0.2h-1
			c-0.1,0-0.3-0.1-0.4-0.2c-0.1-0.1-0.2-0.2-0.2-0.4c0-0.2,0-0.4,0-0.6v-5.9c0,0,0,0,0,0l-0.1-6.3c0-0.4,0-0.7-0.1-1.1
			c-0.1-0.7-0.1-1.4-0.1-2.1c0-0.1,0-0.1,0-0.2c0-0.2,0.1-0.3,0.3-0.4c0.1-0.1,0.2-0.1,0.3-0.1c0.3,0,0.6-0.1,0.8-0.2
			c0.1,0,0.2,0,0.3,0c0.1,0,0.3,0,0.4,0.1c0.3,0.4,0.5,0.8,0.8,1.3c0.4,0.7,0.7,1.5,1.1,2.2c0.2,0.5,0.3,1,0.5,1.4
			c0.2,0.5,0.4,0.9,0.6,1.4c0.6,1.2,1.3,3,1.8,4.2c0.3,0.6,0.5,1.2,0.8,1.7c0,0.1,0.1,0.1,0.2,0.2l0.1,0c0.1-0.3,0-0.6,0-1
			c-0.1-0.3-0.1-0.7-0.1-1l-0.1-6.5c0-0.3,0-1.4-0.1-1.7c-0.1-0.7-0.1-1.3-0.1-2c0-0.1,0.1-0.2,0.2-0.3c0.3-0.1,0.7-0.2,1.1-0.2
			c0.2,0,0.4,0.1,0.6,0.2c0.2,0.1,0.3,0.2,0.3,0.5c0,0.4,0.1,0.7,0.1,1c0.1,0.4,0.1,0.9,0.1,1.3l0.1,5.2c0,0.1,0,0.2,0,0.3
			c0.1,0.6,0.1,1.2,0.1,1.8c0,1.1,0,2.3,0.1,3.4c0,0.3,0,0.7,0.1,1c0,0.2,0,0.3,0,0.5c0,0.6,0,1.3,0,1.9c0,0.2-0.1,0.4-0.2,0.6
			c-0.1,0.1-0.2,0.2-0.3,0.2c-0.1,0-0.1,0-0.2,0c-0.2,0-0.4-0.1-0.6-0.1c-0.2,0-0.3,0.1-0.5,0.1C56.7,235.3,56.4,235.2,56.2,234.9z"
			/>
		<path class="st2" d="M63.3,235c-0.1,0-0.1-0.1-0.1-0.1c-0.1-0.4-0.2-0.8-0.2-1.3v-1.8c0-3.4,0-7.6,0-10.9v-0.3
			c0-0.8,0-0.8-0.8-0.8c-0.2,0-0.4,0.1-0.6,0.1c-0.2,0-0.4,0-0.6,0.1c-0.3,0.1-0.6-0.1-0.9-0.2c0,0-0.1-0.1-0.1-0.2
			c0-0.2,0-0.3,0-0.5c0-0.4,0.2-0.7,0.3-1.1c0.1-0.2,0.2-0.3,0.4-0.3c0.6-0.1,1.1-0.2,1.7-0.2c0.6-0.1,1.1-0.1,1.7-0.2
			c0.9-0.1,1.8-0.1,2.7-0.2c0.4,0,0.9,0,1.3-0.1c0.1,0,0.2,0,0.3,0c0.2,0,0.3,0.1,0.3,0.2c0.1,0.2,0.2,0.3,0.2,0.6s0,0.4,0.1,0.6
			l-0.1,0.6c0,0.1-0.1,0.2-0.2,0.2c-0.2,0.1-0.5,0.1-0.8,0.1c-0.4,0-0.9,0-1.4,0c-0.3,0-0.7,0-1,0.1c-0.1,0-0.2,0.1-0.2,0.2
			c0,0.4-0.1,0.8-0.1,1.3c0,3.6,0,8,0,11.5c0,0.3,0,0.7,0.1,1c0.1,0.3,0,0.6,0,1c0,0.2-0.1,0.3-0.3,0.4c-0.4,0.2-0.9,0.3-1.4,0.2
			C63.6,235.2,63.4,235.1,63.3,235z"/>
		<path class="st2" d="M71.5,235.3c-0.1-0.2-0.3-0.3-0.4-0.3c-0.1,0-0.2-0.1-0.3-0.1c-0.1,0-0.2-0.1-0.2-0.2
			c-0.1-0.2-0.1-0.5-0.1-0.7c0-0.4,0-0.8,0-1.2c0-1,0-1.9,0-2.9c0-0.2,0-0.5,0.1-0.8c0-0.1,0-0.2,0-0.3c0-1.5,0-3,0-4.5
			c0-0.1,0-0.2,0-0.3c-0.1-0.5-0.1-1-0.1-1.5c0-1,0-1.9,0-2.9c0-0.2,0-0.3,0-0.5c0-0.2,0.2-0.4,0.2-0.7c0-0.2,0-0.4,0-0.6
			c0-0.2,0.2-0.3,0.3-0.3c0.2,0,0.4-0.1,0.6-0.1c0.5,0,1,0,1.5-0.1c0.1,0,0.2,0,0.3,0c1.2,0,2.3-0.1,3.5-0.1c0.2,0,0.3,0,0.5,0
			c0.1,0,0.2,0.1,0.3,0.2c0.1,0.1,0.1,0.2,0.1,0.3c0,0.3,0.1,0.7,0.2,1c0,0.1,0,0.2,0,0.3c0,0.1-0.1,0.1-0.1,0.2
			c-0.5,0.2-1,0.3-1.6,0.1c-0.1-0.1-0.2,0-0.3,0c-0.2,0.1-0.3,0.1-0.5,0.1c-0.6,0-1.2,0-1.7,0c-0.3,0-0.6,0.1-0.8,0.1
			c-0.1,0-0.2,0.2-0.2,0.3c0,0.9,0,1.8,0,2.7c0,0.5,0.1,0.9,0.1,1.3c0,0.1,0.1,0.1,0.1,0.1l0.3,0c0.6,0,1.1-0.1,1.6-0.1h0.5
			c0.2,0,0.3,0.1,0.3,0.3c0.2,0.4,0.3,0.8,0.2,1.2c0,0.1-0.1,0.2-0.1,0.3c-0.1,0.2-0.2,0.3-0.4,0.3c-0.2,0-0.3,0.1-0.4,0.1
			c-0.6,0-1.1,0.1-1.6,0.1l-0.3,0.1c-0.1,0-0.2,0.2-0.2,0.2c0,0.2,0,0.4,0,0.6c0,0.7,0,1.4-0.1,2.2c0,0.4,0.1,0.7,0,1.1s0,0.7,0,1.1
			c0,0.4,0,0.8,0,1.1c0,0.1,0,0.2,0,0.3c0,0.1,0.1,0.2,0.3,0.2h0.1c0.8,0,1.6-0.1,2.4-0.1c0.3,0,0.6,0,0.9-0.1
			c0.3-0.1,0.6,0,0.8,0.1c0.1,0.1,0.2,0.1,0.2,0.2c0.1,0.5,0.1,1-0.1,1.5c-0.1,0.2-0.2,0.4-0.4,0.4c-0.2,0-0.3,0.1-0.5,0.1
			c-0.7,0-1.4,0-2.1,0.1c-0.2,0-0.5,0-0.7-0.1c-0.3,0.2-0.7,0.3-1.1,0.3c-0.2,0-0.3,0-0.5,0C71.8,235.5,71.6,235.4,71.5,235.3z"/>
		<path class="st2" d="M87.5,234.9l-0.5-1c-0.5-1-0.9-2-1.3-2.9l-0.1-0.2c-0.8-1.8-1.7-4.1-2.5-5.8c-0.4-0.8-0.6-1.6-1-2.4
			c0-0.1-0.1-0.1-0.1-0.1c0,0-0.1,0.1-0.1,0.1c0,0.8,0.1,1.6,0.1,2.3c0,0.6,0.1,1.1,0,1.6c-0.1,0.3-0.1,1-0.1,1.3v3.6
			c0,0.2,0,0.5,0,0.7c0,0.2,0,0.3,0.1,0.5c0,0.1,0.1,0.2,0.1,0.3v1.5c0,0.2-0.1,0.3-0.2,0.4c-0.2,0.1-0.3,0.2-0.6,0.2h-1
			c-0.1,0-0.3-0.1-0.4-0.2c-0.1-0.1-0.2-0.2-0.2-0.4c0-0.2,0-0.4,0-0.6v-5.9c0,0,0,0,0,0l-0.1-6.3c0-0.4,0-0.7-0.1-1.1
			c-0.1-0.7-0.1-1.4-0.1-2.1c0-0.1,0-0.1,0-0.2c0-0.2,0.1-0.3,0.3-0.4c0.1-0.1,0.2-0.1,0.3-0.1c0.3,0,0.6-0.1,0.8-0.2
			c0.1,0,0.2,0,0.3,0c0.1,0,0.3,0,0.4,0.1c0.3,0.4,0.5,0.8,0.8,1.3c0.4,0.7,0.7,1.5,1.1,2.2c0.2,0.5,0.3,1,0.5,1.4
			c0.2,0.5,0.4,0.9,0.6,1.4c0.6,1.2,1.3,3,1.8,4.2c0.3,0.6,0.5,1.2,0.8,1.7c0,0.1,0.1,0.1,0.2,0.2l0.1,0c0.1-0.3,0-0.6,0-1
			c-0.1-0.3-0.1-0.7-0.1-1l-0.1-6.5c0-0.3,0-1.4-0.1-1.7c-0.1-0.7-0.1-1.3-0.1-2c0-0.1,0.1-0.2,0.2-0.3c0.3-0.1,0.7-0.2,1.1-0.2
			c0.2,0,0.4,0.1,0.6,0.2c0.2,0.1,0.3,0.2,0.3,0.5c0,0.4,0.1,0.7,0.1,1c0.1,0.4,0.1,0.9,0.1,1.3l0.1,5.2c0,0.1,0,0.2,0,0.3
			c0.1,0.6,0.1,1.2,0.1,1.8c0,1.1,0,2.3,0.1,3.4c0,0.3,0,0.7,0.1,1c0,0.2,0,0.3,0,0.5c0,0.6,0,1.3,0,1.9c0,0.2-0.1,0.4-0.2,0.6
			c-0.1,0.1-0.2,0.2-0.3,0.2c-0.1,0-0.1,0-0.2,0c-0.2,0-0.4-0.1-0.6-0.1c-0.2,0-0.3,0.1-0.5,0.1C88,235.3,87.7,235.2,87.5,234.9z"/>
		<path class="st2" d="M92.9,235c-0.2-0.1-0.4-0.2-0.6-0.3c-0.1-0.1-0.1-0.2-0.1-0.2c0-0.1,0-0.3,0.1-0.4c0.1-0.2,0.1-0.4,0.1-0.6
			c0-0.2,0-0.5,0.1-0.7c0.1-0.1,0.1-0.2,0.1-0.3v-1c0-2.5,0-5,0-7.5c0-0.3,0-0.7,0-1c0-0.1,0-0.2,0-0.3c-0.2-0.9-0.1-1.7-0.1-2.6
			c0-0.7,0-1.3,0-2c0-0.1,0-0.2,0-0.3c0-0.2,0.2-0.3,0.3-0.4c0.1,0,0.1,0,0.2,0c0.3-0.1,0.7,0,1-0.2c0.7-0.1,1.3-0.1,2,0
			c0.8,0.2,1.5,0.5,2.1,1c0.5,0.5,0.9,1,1.2,1.6l0.4,0.7c0.3,0.6,0.5,1.3,0.7,2c0,0.5,0.2,1,0.3,1.5l0.1,0.4c0,0.1,0,0.3,0,0.4
			c0.2,0.7,0.1,1.3,0.1,2v0.5c0,0.5,0,0.9-0.1,1.4c-0.1,0.7-0.3,1.4-0.5,2.1c-0.2,0.7-0.6,1.4-1,2.1c-0.3,0.5-0.7,1-1.2,1.4
			c-0.2,0.2-0.5,0.3-0.7,0.5c-0.7,0.4-1.4,0.5-2.1,0.6c-0.3,0-0.7,0-1,0C93.6,235.3,93.2,235.1,92.9,235z M95.4,232.9
			c0.5-0.1,0.8-0.3,1.2-0.6c0.5-0.5,0.9-1.1,1.2-1.8c0.2-0.6,0.4-1.1,0.5-1.7c0.1-0.6,0.3-1.2,0.2-1.7c0-0.5,0-0.8,0-1.1
			c-0.1-0.7-0.2-1.5-0.3-2.2l-0.2-1c-0.2-0.7-0.5-1.4-0.8-2c-0.2-0.3-0.4-0.6-0.7-0.9c-0.2-0.2-0.5-0.3-0.7-0.4
			c-0.3-0.1-0.6-0.1-1-0.1c-0.1,0-0.1,0.1-0.2,0.2v0.1c0,0.7,0,1.5,0.1,2.3c0.1,0.5,0.1,1,0.1,1.6c0,2.6,0,5.1,0,7.7
			c0,0.2,0,0.4,0,0.6c-0.1,0.4,0,0.7,0.1,1.1c0,0.1,0.1,0.2,0.2,0.2C95.1,233,95.3,232.9,95.4,232.9z"/>
		<path class="st2" d="M110.1,234.9c-0.1-0.2-0.2-0.3-0.1-0.5c0-0.1,0-0.1,0-0.2c-0.3-0.4-0.3-0.5-0.4-0.9c0-0.1,0-0.2-0.1-0.3
			c-0.3-0.6-0.5-1.2-0.7-1.9c0-0.1,0-0.2-0.1-0.3c-0.1-0.1-0.1-0.2-0.3-0.2h-0.3c-0.3,0-0.6,0-0.8,0c-0.5,0-1,0-1.5,0.1
			c-0.1,0-0.2,0-0.3,0c-0.7,0-0.7,0.1-0.8,0.7l-0.6,2.4c-0.1,0.2-0.2,0.4-0.2,0.6c-0.1,0.1-0.2,0.2-0.3,0.2c-0.6,0.1-1.1,0-1.6-0.3
			c-0.1,0-0.1-0.1-0.1-0.1c-0.1-0.1-0.2-0.2-0.2-0.4l0.2-0.9c0.2-0.8,0.4-1.7,0.6-2.5c0.3-1.2,0.6-2.3,0.8-3.4
			c0-0.2,0.1-0.3,0.1-0.5c0.1-0.2,0.2-0.3,0.2-0.5c0-0.2,0-0.3,0-0.5c0-0.2,0.1-0.3,0.1-0.4l1-4.1c0.1-0.4,0.2-0.8,0.2-1.2
			c0.1-0.2,0.1-0.4,0.1-0.6c-0.1-0.7,0.2-1.3,0.4-1.9c0.1-0.1,0.2-0.2,0.3-0.2c0.5-0.1,1,0,1.5,0.2c0.2,0.1,0.3,0.2,0.3,0.5
			c0,0.6,0.2,1.1,0.2,1.6c0.1,0.6,0.3,1.2,0.4,1.9c0.1,0.6,0.2,1.2,0.4,1.8c0.3,1.1,0.6,2.2,0.9,3.2l0.9,2.7
			c0.1,0.5,0.3,0.9,0.4,1.4c0.2,0.7,0.4,1.5,0.7,2.1c0.2,0.5,0.2,1,0.4,1.4c0.1,0.1,0,0.3,0,0.4c0,0.1-0.1,0.2-0.2,0.3l-0.2,0.1
			c-0.3,0.1-0.7,0.2-1.1,0.4C110.5,235.3,110.2,235.2,110.1,234.9z M106.8,228.5c0.2,0,0.6,0,1-0.1c0.1,0,0.1-0.1,0.1-0.2
			c0-0.1,0-0.2-0.1-0.3c-0.3-0.9-0.6-1.9-0.8-2.8l-0.3-1.1c0,0-0.1-0.1-0.1-0.1c0,0-0.1,0-0.1,0.1l-0.2,0.4
			c-0.2,1.1-0.5,2.1-0.7,3.2c0,0.2-0.1,0.4-0.1,0.6c0,0.1,0.1,0.2,0.2,0.2H106.8z"/>
		<path class="st2" d="M121.4,234.9l-0.5-1c-0.5-1-0.9-2-1.3-2.9l-0.1-0.2c-0.8-1.8-1.7-4.1-2.5-5.8c-0.4-0.8-0.6-1.6-1-2.4
			c0-0.1-0.1-0.1-0.1-0.1c0,0-0.1,0.1-0.1,0.1c0,0.8,0.1,1.6,0.1,2.3c0,0.6,0.1,1.1,0,1.6c-0.1,0.3-0.1,1-0.1,1.3v3.6
			c0,0.2,0,0.5,0,0.7c0,0.2,0,0.3,0.1,0.5c0,0.1,0.1,0.2,0.1,0.3v1.5c0,0.2-0.1,0.3-0.2,0.4c-0.2,0.1-0.3,0.2-0.6,0.2h-1
			c-0.1,0-0.3-0.1-0.4-0.2c-0.1-0.1-0.2-0.2-0.2-0.4c0-0.2,0-0.4,0-0.6v-5.9c0,0,0,0,0,0l-0.1-6.3c0-0.4,0-0.7-0.1-1.1
			c-0.1-0.7-0.1-1.4-0.1-2.1c0-0.1,0-0.1,0-0.2c0-0.2,0.1-0.3,0.3-0.4c0.1-0.1,0.2-0.1,0.3-0.1c0.3,0,0.6-0.1,0.8-0.2
			c0.1,0,0.2,0,0.3,0c0.1,0,0.3,0,0.4,0.1c0.3,0.4,0.5,0.8,0.8,1.3c0.4,0.7,0.7,1.5,1.1,2.2c0.2,0.5,0.3,1,0.5,1.4
			c0.2,0.5,0.4,0.9,0.6,1.4c0.6,1.2,1.3,3,1.8,4.2c0.3,0.6,0.5,1.2,0.8,1.7c0,0.1,0.1,0.1,0.2,0.2l0.1,0c0.1-0.3,0-0.6,0-1
			c-0.1-0.3-0.1-0.7-0.1-1l-0.1-6.5c0-0.3,0-1.4-0.1-1.7c-0.1-0.7-0.1-1.3-0.1-2c0-0.1,0.1-0.2,0.2-0.3c0.3-0.1,0.7-0.2,1.1-0.2
			c0.2,0,0.4,0.1,0.6,0.2c0.2,0.1,0.3,0.2,0.3,0.5c0,0.4,0.1,0.7,0.1,1c0.1,0.4,0.1,0.9,0.1,1.3l0.1,5.2c0,0.1,0,0.2,0,0.3
			c0.1,0.6,0.1,1.2,0.1,1.8c0,1.1,0,2.3,0.1,3.4c0,0.3,0,0.7,0.1,1c0,0.2,0,0.3,0,0.5c0,0.6,0,1.3,0,1.9c0,0.2-0.1,0.4-0.2,0.6
			c-0.1,0.1-0.2,0.2-0.3,0.2c-0.1,0-0.1,0-0.2,0c-0.2,0-0.4-0.1-0.6-0.1c-0.2,0-0.3,0.1-0.5,0.1
			C121.9,235.3,121.6,235.2,121.4,234.9z"/>
		<path class="st2" d="M129.9,235.4c-0.1,0-0.2,0-0.2-0.1c-0.5-0.2-1-0.4-1.4-0.7c-0.5-0.5-1-1.1-1.3-1.7c-0.5-0.9-0.9-1.9-1.2-3
			c-0.1-0.6-0.2-1.3-0.2-2c0-1-0.1-1.5-0.1-2.5c0-0.2,0.1-1,0.1-1.2c0-0.9,0.2-1.9,0.4-2.8l0.4-1.2c0.3-0.8,0.7-1.5,1.2-2.1
			c0.1-0.1,0.2-0.2,0.3-0.3c0.3-0.2,0.6-0.5,0.9-0.6c0.4-0.2,0.7-0.3,1.2-0.3c0.3,0,0.6,0,0.8,0c0.6,0,1.1,0.2,1.6,0.6
			c0.5,0.3,0.8,0.8,1,1.3c0.1,0.4,0.2,0.7,0.2,1.1c0,0.5,0,1,0,1.6c0,0.3-0.2,0.4-0.4,0.5c-0.1,0-0.1,0-0.2,0c-0.3,0.1-0.7,0.1-1,0
			c-0.2,0-0.3-0.1-0.4-0.2c-0.1-0.1-0.2-0.2-0.2-0.4c0-0.2,0-0.4,0-0.6c0-0.3,0-0.6-0.1-1c0-0.3-0.3-0.6-0.7-0.7c-0.1,0-0.2,0-0.3,0
			c-0.3-0.1-0.6,0.1-0.9,0.3c-0.3,0.2-0.6,0.5-0.7,0.8c-0.1,0.2-0.2,0.3-0.3,0.5c-0.3,0.7-0.5,1.5-0.7,2.3c-0.2,0.9-0.2,1.8-0.2,2.7
			c0,0.4,0,1.4,0.1,2.7c0.1,0.5,0.1,1,0.2,1.4c0.2,0.8,0.6,1.6,1.1,2.4c0.2,0.3,0.5,0.6,0.8,0.8c0.2,0.1,0.9,0.1,1.1,0.1
			c0.1,0,0.2-0.1,0.3-0.1c0.3-0.2,0.5-0.6,0.5-1c0-0.3,0-0.7,0-1.1c0-0.2,0.1-0.4,0.3-0.5c0.2-0.1,0.4-0.2,0.6-0.2
			c0.3,0,0.6,0,0.9,0c0.2,0,0.4,0.2,0.4,0.4c0.1,0.6,0.1,1.2,0,1.8c0,0.3-0.1,0.6-0.3,0.9c-0.2,0.3-0.4,0.7-0.6,0.9
			c-0.1,0.1-0.2,0.2-0.4,0.2c-0.1,0-0.2,0.1-0.2,0.2c-0.1,0.2-0.2,0.3-0.3,0.4c-0.2,0.1-0.5,0.2-0.7,0.2
			C131.3,235.5,130.3,235.5,129.9,235.4z"/>
		<path class="st2" d="M136.9,235.3c-0.1-0.2-0.3-0.3-0.4-0.3c-0.1,0-0.2-0.1-0.3-0.1c-0.1,0-0.2-0.1-0.2-0.2
			c-0.1-0.2-0.1-0.5-0.1-0.7c0-0.4,0-0.8,0-1.2c0-1,0-1.9,0-2.9c0-0.2,0-0.5,0.1-0.8c0-0.1,0-0.2,0-0.3c0-1.5,0-3,0-4.5
			c0-0.1,0-0.2,0-0.3c-0.1-0.5-0.1-1-0.1-1.5c0-1,0-1.9,0-2.9c0-0.2,0-0.3,0-0.5c0-0.2,0.2-0.4,0.2-0.7c0-0.2,0-0.4,0-0.6
			c0-0.2,0.2-0.3,0.3-0.3c0.2,0,0.4-0.1,0.6-0.1c0.5,0,1,0,1.5-0.1c0.1,0,0.2,0,0.3,0c1.2,0,2.3-0.1,3.5-0.1c0.2,0,0.3,0,0.5,0
			c0.1,0,0.2,0.1,0.3,0.2c0.1,0.1,0.1,0.2,0.1,0.3c0,0.3,0.1,0.7,0.2,1c0,0.1,0,0.2,0,0.3c0,0.1-0.1,0.1-0.1,0.2
			c-0.5,0.2-1,0.3-1.6,0.1c-0.1-0.1-0.2,0-0.3,0c-0.2,0.1-0.3,0.1-0.5,0.1c-0.6,0-1.2,0-1.7,0c-0.3,0-0.6,0.1-0.8,0.1
			c-0.1,0-0.2,0.2-0.2,0.3c0,0.9,0,1.8,0,2.7c0,0.5,0.1,0.9,0.1,1.3c0,0.1,0.1,0.1,0.1,0.1l0.3,0c0.6,0,1.1-0.1,1.6-0.1h0.5
			c0.2,0,0.3,0.1,0.3,0.3c0.2,0.4,0.3,0.8,0.2,1.2c0,0.1-0.1,0.2-0.1,0.3c-0.1,0.2-0.2,0.3-0.4,0.3c-0.2,0-0.3,0.1-0.4,0.1
			c-0.6,0-1.1,0.1-1.6,0.1l-0.3,0.1c-0.1,0-0.2,0.2-0.2,0.2c0,0.2,0,0.4,0,0.6c0,0.7,0,1.4-0.1,2.2c0,0.4,0.1,0.7,0,1.1s0,0.7,0,1.1
			c0,0.4,0,0.8,0,1.1c0,0.1,0,0.2,0,0.3c0,0.1,0.1,0.2,0.3,0.2h0.1c0.8,0,1.6-0.1,2.4-0.1c0.3,0,0.6,0,0.9-0.1
			c0.3-0.1,0.6,0,0.8,0.1c0.1,0.1,0.2,0.1,0.2,0.2c0.1,0.5,0.1,1-0.1,1.5c-0.1,0.2-0.2,0.4-0.4,0.4c-0.2,0-0.3,0.1-0.5,0.1
			c-0.7,0-1.4,0-2.1,0.1c-0.2,0-0.5,0-0.7-0.1c-0.3,0.2-0.7,0.3-1.1,0.3c-0.2,0-0.3,0-0.5,0C137.2,235.5,137,235.4,136.9,235.3z"/>
		<path class="st2" d="M145.7,236.1c-0.1-0.1-0.2-0.1-0.3-0.2c-0.2-0.2-0.3-0.4-0.4-0.6c0-0.1,0-0.2,0-0.3c0.1-0.7,0.8-1.2,1.5-1
			c0.1,0,0.2,0.1,0.3,0.2c0.1,0.2,0.2,0.4,0.3,0.6c0.1,0.2,0.1,0.5,0.1,0.8c0,0,0,0.1,0,0.1c0,0.7-0.3,1.2-0.7,1.8
			c-0.1,0.2-0.3,0.2-0.5,0.1c-0.2-0.1-0.4-0.3-0.5-0.5C145.4,236.7,145.7,236.5,145.7,236.1z"/>
		<path class="st2" d="M156.5,235.2c-0.4-0.1-0.8-0.3-1.1-0.5c-0.2-0.1-0.3-0.3-0.3-0.5v-1c0-1,0-2.4,0-3.4c0-0.5,0-1-0.1-1.5
			c-0.1-0.5,0-1-0.1-1.6c0-0.3,0.2-0.6,0-0.9c0-0.3-0.1-0.6-0.1-0.8c0-0.1,0-0.2,0-0.3c0-0.7-0.1-1.4,0-2.2c0-0.1,0-0.2-0.1-0.3
			c-0.1-0.2-0.1-0.3-0.1-0.5v-3.1c0-0.1,0-0.1,0-0.2c0-0.1,0.1-0.3,0.2-0.4c0.1-0.1,0.1-0.1,0.2-0.1c0.1-0.1,0.3-0.2,0.4-0.3
			c0.2-0.1,0.3-0.1,0.5-0.1c0.4-0.1,0.8-0.2,1.3-0.2c0.2,0,0.5-0.1,0.7,0c0.9,0.1,1.7,0.2,2.5,0.6c0.9,0.3,1.6,0.9,2,1.8
			c0.2,0.4,0.4,0.8,0.5,1.2c0.1,0.1,0.1,0.2,0.1,0.3c0.1,0.3,0,0.7,0.1,1c0.1,0.2,0.1,0.5,0,0.7c-0.1,0.6-0.2,1.2-0.5,1.8
			c-0.4,0.8-0.9,1.4-1.6,1.9c-0.1,0.1-0.2,0.2-0.3,0.3c0,0.3,0.2,0.5,0.3,0.8c0.4,1,1.1,2.4,1.6,3.4c0.2,0.5,0.4,1,0.7,1.4
			c0.2,0.3,0.3,0.7,0.5,1c0.1,0.2,0.1,0.3,0.1,0.5c0,0.2,0.1,0.4,0.2,0.6c0,0.2-0.1,0.4-0.3,0.5l-0.2,0.1c0,0-0.1,0-0.1,0
			c-0.4,0-0.8,0-1.2,0c-0.2,0-0.3-0.1-0.3-0.2l-0.7-1.3c-0.3-0.6-0.5-1.1-0.8-1.7c-0.1-0.2-0.2-0.3-0.1-0.6c0-0.1-0.1-0.2-0.1-0.2
			c-0.1-0.1-0.2-0.2-0.3-0.3c-0.2-0.3-0.3-0.7-0.7-1.5c-0.2-0.5-0.4-1-0.7-1.5c0-0.1-0.1-0.2-0.3-0.2c-0.3,0-0.6,0-0.9,0
			c-0.1,0-0.2,0.1-0.2,0.2v0.8c0,1.7,0,3.9,0,5.6c0,0.3,0,0.5-0.1,0.8c0,0.2-0.2,0.3-0.4,0.3C156.7,235.3,156.6,235.3,156.5,235.2z
			 M159.4,225.1c0.2-0.1,0.4-0.2,0.5-0.3c0.7-0.5,1.1-1.1,1.1-2c0-0.1,0-0.2,0-0.4c0-0.2,0-0.5,0-0.7c-0.1-0.5-0.3-0.9-0.6-1.3
			c-0.2-0.2-0.5-0.4-0.8-0.5c-0.4-0.1-0.9-0.2-1.4-0.3c-0.3-0.1-0.7,0-1,0.1c-0.1,0-0.2,0.1-0.2,0.2c0,0.5,0,1,0,1.6
			c0.1,0.4,0.1,0.8,0.1,1.2c0,0.4,0,0.7,0,1.1c0.1,0.5,0.1,1,0.1,1.5c0,0.1,0.1,0.1,0.2,0.2c0.2,0.1,0.4,0.1,0.6,0.1
			C158.5,225.3,158.9,225.2,159.4,225.1z"/>
		<path class="st2" d="M166.9,235.3c-0.1-0.2-0.3-0.3-0.4-0.3c-0.1,0-0.2-0.1-0.3-0.1c-0.1,0-0.2-0.1-0.2-0.2
			c-0.1-0.2-0.1-0.5-0.1-0.7c0-0.4,0-0.8,0-1.2c0-1,0-1.9,0-2.9c0-0.2,0-0.5,0.1-0.8c0-0.1,0-0.2,0-0.3c0-1.5,0-3,0-4.5
			c0-0.1,0-0.2,0-0.3c-0.1-0.5-0.1-1-0.1-1.5c0-1,0-1.9,0-2.9c0-0.2,0-0.3,0-0.5c0-0.2,0.2-0.4,0.2-0.7c0-0.2,0-0.4,0-0.6
			c0-0.2,0.2-0.3,0.3-0.3c0.2,0,0.4-0.1,0.6-0.1c0.5,0,1,0,1.5-0.1c0.1,0,0.2,0,0.3,0c1.2,0,2.3-0.1,3.5-0.1c0.2,0,0.3,0,0.5,0
			c0.1,0,0.2,0.1,0.3,0.2s0.1,0.2,0.1,0.3c0,0.3,0.1,0.7,0.2,1c0,0.1,0,0.2,0,0.3c0,0.1-0.1,0.1-0.1,0.2c-0.5,0.2-1,0.3-1.6,0.1
			c-0.1-0.1-0.2,0-0.3,0c-0.2,0.1-0.3,0.1-0.5,0.1c-0.6,0-1.2,0-1.7,0c-0.3,0-0.6,0.1-0.8,0.1c-0.1,0-0.2,0.2-0.2,0.3
			c0,0.9,0,1.8,0,2.7c0,0.5,0.1,0.9,0.1,1.3c0,0.1,0.1,0.1,0.1,0.1l0.3,0c0.6,0,1.1-0.1,1.6-0.1h0.5c0.2,0,0.3,0.1,0.3,0.3
			c0.2,0.4,0.3,0.8,0.2,1.2c0,0.1-0.1,0.2-0.1,0.3c-0.1,0.2-0.2,0.3-0.4,0.3c-0.2,0-0.3,0.1-0.4,0.1c-0.6,0-1.1,0.1-1.6,0.1
			l-0.3,0.1c-0.1,0-0.2,0.2-0.2,0.2c0,0.2,0,0.4,0,0.6c0,0.7,0,1.4-0.1,2.2c0,0.4,0.1,0.7,0,1.1s0,0.7,0,1.1c0,0.4,0,0.8,0,1.1
			c0,0.1,0,0.2,0,0.3c0,0.1,0.1,0.2,0.3,0.2h0.1c0.8,0,1.6-0.1,2.4-0.1c0.3,0,0.6,0,0.9-0.1c0.3-0.1,0.6,0,0.8,0.1
			c0.1,0.1,0.2,0.1,0.2,0.2c0.1,0.5,0.1,1-0.1,1.5c-0.1,0.2-0.2,0.4-0.4,0.4c-0.2,0-0.3,0.1-0.5,0.1c-0.7,0-1.4,0-2.1,0.1
			c-0.2,0-0.5,0-0.7-0.1c-0.3,0.2-0.7,0.3-1.1,0.3c-0.2,0-0.3,0-0.5,0C167.2,235.5,167.1,235.4,166.9,235.3z"/>
		<path class="st2" d="M175.6,235c-0.1-0.2-0.2-0.3-0.2-0.5v-1.8c0-0.2,0-0.3,0-0.5c-0.1-0.6-0.1-1.2-0.1-1.7c0-0.3,0-0.6-0.1-0.9
			c0-0.2,0-0.3,0-0.5v-1.3c0-0.2,0-0.4,0-0.6c-0.1-0.6-0.1-1.2-0.1-1.7c0-0.5,0-0.9-0.1-1.3c-0.1-0.2,0-0.4,0-0.6v-1.8
			c0-0.3,0-0.6,0-0.8c0-0.2,0-0.3,0-0.5c0-0.6,0-1.2,0.1-1.8c0-0.1,0-0.2,0-0.3c0-0.1,0.1-0.3,0.2-0.3c0.1-0.1,0.1-0.1,0.2-0.1
			c0.3-0.3,0.7-0.4,1.2-0.4c0.3,0,0.6,0,0.9-0.1c0.1-0.1,0.3,0,0.4,0h1c0.3,0,0.6,0,0.8,0c0.6,0,1.1,0.2,1.6,0.5
			c0.1,0.1,0.2,0.2,0.3,0.3c0,0.1,0.1,0.1,0.2,0.1c0.1,0,0.2,0.1,0.3,0.2c0.2,0.2,0.3,0.3,0.4,0.5c0.4,0.7,0.7,1.4,0.8,2.1
			c0.2,1.1,0.2,2.3,0.1,3.4c-0.2,1-0.6,1.9-1.3,2.6c-0.3,0.3-0.6,0.5-0.9,0.8c-0.1,0.1-0.2,0.1-0.3,0.2c-0.5,0.3-1.1,0.6-1.7,0.7
			c-0.2,0.1-0.5,0.1-0.7,0.1c-0.3,0-0.7,0.1-1,0.1c-0.1,0-0.2,0.1-0.2,0.2c-0.1,0.6-0.1,1.3,0,1.9c0,0.4,0.1,0.9,0.1,1.3v2.1
			c0,0.2-0.1,0.3-0.3,0.4c-0.1,0-0.2,0.1-0.2,0.1c-0.3,0-0.7,0.1-1,0.2h-0.3C175.8,235.2,175.7,235.1,175.6,235z M178.8,226.6
			c1-0.2,1.6-0.8,2.2-1.5c0.1-0.1,0.1-0.2,0.2-0.3c0.2-0.4,0.3-0.8,0.3-1.2c0-0.2,0-0.5,0-0.7c0-0.7-0.1-1.3-0.3-1.9
			c0-0.2-0.1-0.3-0.2-0.5c-0.2-0.3-0.4-0.6-0.8-0.7c-0.2-0.1-0.4-0.2-0.7-0.2c-0.4,0-0.7,0-1.1,0c-0.3,0-0.5,0.1-0.8,0.1
			c-0.1,0-0.2,0.1-0.2,0.2c0,0.6,0,1.1-0.1,1.8c0,0.3,0,0.8,0,1.3c0,0.2,0,0.4,0,0.6c0.1,0.5,0.1,1,0.1,1.5v0.9
			c0,0.2,0.1,0.3,0.1,0.5c0,0.1,0.1,0.2,0.3,0.2C178.1,226.7,178.5,226.7,178.8,226.6z"/>
		<path class="st2" d="M192.8,234.9c-0.1-0.2-0.2-0.3-0.1-0.5c0-0.1,0-0.1,0-0.2c-0.3-0.4-0.3-0.5-0.4-0.9c0-0.1,0-0.2-0.1-0.3
			c-0.3-0.6-0.5-1.2-0.7-1.9c0-0.1,0-0.2-0.1-0.3c-0.1-0.1-0.1-0.2-0.3-0.2H191c-0.3,0-0.6,0-0.8,0c-0.5,0-1,0-1.5,0.1
			c-0.1,0-0.2,0-0.3,0c-0.7,0-0.7,0.1-0.8,0.7L187,234c-0.1,0.2-0.2,0.4-0.2,0.6c-0.1,0.1-0.2,0.2-0.3,0.2c-0.6,0.1-1.1,0-1.6-0.3
			c-0.1,0-0.1-0.1-0.1-0.1c-0.1-0.1-0.2-0.2-0.2-0.4l0.2-0.9c0.2-0.8,0.4-1.7,0.6-2.5c0.3-1.2,0.6-2.3,0.8-3.4
			c0-0.2,0.1-0.3,0.1-0.5c0.1-0.2,0.2-0.3,0.2-0.5c0-0.2,0-0.3,0-0.5c0-0.2,0.1-0.3,0.1-0.4l1-4.1c0.1-0.4,0.2-0.8,0.2-1.2
			c0.1-0.2,0.1-0.4,0.1-0.6c-0.1-0.7,0.2-1.3,0.4-1.9c0.1-0.1,0.2-0.2,0.3-0.2c0.5-0.1,1,0,1.5,0.2c0.2,0.1,0.3,0.2,0.3,0.5
			c0,0.6,0.2,1.1,0.2,1.6c0.1,0.6,0.3,1.2,0.4,1.9c0.1,0.6,0.2,1.2,0.4,1.8c0.3,1.1,0.6,2.2,0.9,3.2l0.9,2.7
			c0.1,0.5,0.3,0.9,0.4,1.4c0.2,0.7,0.4,1.5,0.7,2.1c0.2,0.5,0.2,1,0.4,1.4c0.1,0.1,0,0.3,0,0.4c0,0.1-0.1,0.2-0.2,0.3l-0.2,0.1
			c-0.3,0.1-0.7,0.2-1.1,0.4C193.2,235.3,193,235.2,192.8,234.9z M189.6,228.5c0.2,0,0.6,0,1-0.1c0.1,0,0.1-0.1,0.1-0.2
			c0-0.1,0-0.2-0.1-0.3c-0.3-0.9-0.6-1.9-0.8-2.8l-0.3-1.1c0,0-0.1-0.1-0.1-0.1c0,0-0.1,0-0.1,0.1l-0.2,0.4
			c-0.2,1.1-0.5,2.1-0.7,3.2c0,0.2-0.1,0.4-0.1,0.6c0,0.1,0.1,0.2,0.2,0.2H189.6z"/>
		<path class="st2" d="M198.7,235.3c-0.6-0.2-1.1-0.5-1.6-0.9c-0.2-0.1-0.3-0.3-0.5-0.5c-0.6-0.8-1-1.8-1.2-2.8c0-0.3,0-0.6,0-0.8
			c0.1-0.3,0.1-0.6,0.1-0.8c0-0.1,0.1-0.3,0.2-0.3c0.1-0.1,0.2-0.1,0.3-0.1c0.4,0,0.8,0,1.2-0.1c0,0,0.1,0,0.1,0
			c0.1,0,0.2,0.1,0.2,0.2c0.1,0.2,0.1,0.5,0.1,0.7c0,0.2,0,0.3,0,0.5c-0.1,0.8,0.2,1.6,0.7,2.2c0,0.1,0.1,0.1,0.1,0.1
			c0.6,0.4,1.2,0.7,1.9,0.5c0.3-0.1,0.5-0.1,0.7-0.2c0.3-0.2,0.6-0.4,0.8-0.8c0.1-0.3,0.2-0.6,0.2-0.8c0.1-0.7,0-1.4-0.2-2.1
			c-0.1-0.5-0.3-0.9-0.6-1.3c-0.4-0.7-1-1.3-1.6-2c-0.2-0.2-0.4-0.4-0.7-0.6c-0.3-0.3-0.5-0.5-0.8-0.8c-0.5-0.5-0.9-1.1-1.2-1.8
			c-0.2-0.3-0.2-0.7-0.4-1.1c0-0.1,0-0.1,0-0.2c-0.2-1.8,0.8-3.2,2.3-3.8c0.3-0.1,0.7-0.2,1.1-0.3c0.2,0,0.3,0,0.5-0.1h0.2
			c0.3,0.1,0.6,0.1,1,0.2c0.7,0.2,1.3,0.7,1.7,1.5c0.4,0.8,0.5,1.6,0.4,2.4c0,0.1-0.1,0.3-0.3,0.3c-0.4,0.2-0.7,0.3-1.2,0.2
			c-0.2,0-0.4-0.1-0.6-0.2c-0.1-0.1-0.2-0.2-0.2-0.3c0-0.4,0-0.7-0.1-1.1c0-0.1-0.1-0.2-0.1-0.3c-0.1-0.2-0.3-0.4-0.6-0.4
			c-0.5-0.1-1,0-1.5,0.3c-0.1,0.1-0.2,0.1-0.2,0.2c-0.1,0.1-0.1,0.1-0.1,0.2c-0.2,0.6-0.3,0.7,0.1,1.5c0.1,0.3,0.3,0.6,0.5,0.8
			c0.4,0.5,0.8,0.9,1.3,1.3c0.7,0.6,1.3,1.3,1.8,2c0.1,0.2,0.2,0.3,0.2,0.4c0.5,0.6,0.8,1.3,1,2.1c0.2,0.7,0.4,1.5,0.4,2.3
			c0,0.4-0.1,0.8-0.1,1.1c-0.1,0.8-0.4,1.5-0.9,2.2c-0.4,0.5-0.8,0.8-1.4,1c-0.4,0.2-1,0.3-1.4,0.4
			C200.1,235.6,199.4,235.6,198.7,235.3z"/>
		<path class="st2" d="M208.8,235.3c-0.6-0.2-1.1-0.5-1.6-0.9c-0.2-0.1-0.3-0.3-0.5-0.5c-0.6-0.8-1-1.8-1.2-2.8c0-0.3,0-0.6,0-0.8
			c0.1-0.3,0.1-0.6,0.1-0.8c0-0.1,0.1-0.3,0.2-0.3c0.1-0.1,0.2-0.1,0.3-0.1c0.4,0,0.8,0,1.2-0.1c0,0,0.1,0,0.1,0
			c0.1,0,0.2,0.1,0.2,0.2c0.1,0.2,0.1,0.5,0.1,0.7c0,0.2,0,0.3,0,0.5c-0.1,0.8,0.2,1.6,0.7,2.2c0,0.1,0.1,0.1,0.1,0.1
			c0.6,0.4,1.2,0.7,1.9,0.5c0.3-0.1,0.5-0.1,0.7-0.2c0.3-0.2,0.6-0.4,0.8-0.8c0.1-0.3,0.2-0.6,0.2-0.8c0.1-0.7,0-1.4-0.2-2.1
			c-0.1-0.5-0.3-0.9-0.6-1.3c-0.4-0.7-1-1.3-1.6-2c-0.2-0.2-0.4-0.4-0.7-0.6c-0.3-0.3-0.5-0.5-0.8-0.8c-0.5-0.5-0.9-1.1-1.2-1.8
			c-0.2-0.3-0.2-0.7-0.4-1.1c0-0.1,0-0.1,0-0.2c-0.2-1.8,0.8-3.2,2.3-3.8c0.3-0.1,0.7-0.2,1.1-0.3c0.2,0,0.3,0,0.5-0.1h0.2
			c0.3,0.1,0.6,0.1,1,0.2c0.7,0.2,1.3,0.7,1.7,1.5c0.4,0.8,0.5,1.6,0.4,2.4c0,0.1-0.1,0.3-0.3,0.3c-0.4,0.2-0.7,0.3-1.2,0.2
			c-0.2,0-0.4-0.1-0.6-0.2c-0.1-0.1-0.2-0.2-0.2-0.3c0-0.4,0-0.7-0.1-1.1c0-0.1-0.1-0.2-0.1-0.3c-0.1-0.2-0.3-0.4-0.6-0.4
			c-0.5-0.1-1,0-1.5,0.3c-0.1,0.1-0.2,0.1-0.2,0.2c-0.1,0.1-0.1,0.1-0.1,0.2c-0.2,0.6-0.3,0.7,0.1,1.5c0.1,0.3,0.3,0.6,0.5,0.8
			c0.4,0.5,0.8,0.9,1.3,1.3c0.7,0.6,1.3,1.3,1.8,2c0.1,0.2,0.2,0.3,0.2,0.4c0.5,0.6,0.8,1.3,1,2.1c0.2,0.7,0.4,1.5,0.4,2.3
			c0,0.4-0.1,0.8-0.1,1.1c-0.1,0.8-0.4,1.5-0.9,2.2c-0.4,0.5-0.8,0.8-1.4,1c-0.4,0.2-1,0.3-1.4,0.4
			C210.1,235.6,209.4,235.6,208.8,235.3z"/>
		<path class="st2" d="M223.8,234.9c-0.1-0.2-0.2-0.3-0.1-0.5c0-0.1,0-0.1,0-0.2c-0.3-0.4-0.3-0.5-0.4-0.9c0-0.1,0-0.2-0.1-0.3
			c-0.3-0.6-0.5-1.2-0.7-1.9c0-0.1,0-0.2-0.1-0.3c-0.1-0.1-0.1-0.2-0.3-0.2H222c-0.3,0-0.6,0-0.8,0c-0.5,0-1,0-1.5,0.1
			c-0.1,0-0.2,0-0.3,0c-0.7,0-0.7,0.1-0.8,0.7l-0.6,2.4c-0.1,0.2-0.2,0.4-0.2,0.6c-0.1,0.1-0.2,0.2-0.3,0.2c-0.6,0.1-1.1,0-1.6-0.3
			c-0.1,0-0.1-0.1-0.1-0.1c-0.1-0.1-0.2-0.2-0.2-0.4l0.2-0.9c0.2-0.8,0.4-1.7,0.6-2.5c0.3-1.2,0.6-2.3,0.8-3.4
			c0-0.2,0.1-0.3,0.1-0.5c0.1-0.2,0.2-0.3,0.2-0.5c0-0.2,0-0.3,0-0.5c0-0.2,0.1-0.3,0.1-0.4l1-4.1c0.1-0.4,0.2-0.8,0.2-1.2
			c0.1-0.2,0.1-0.4,0.1-0.6c-0.1-0.7,0.2-1.3,0.4-1.9c0.1-0.1,0.2-0.2,0.3-0.2c0.5-0.1,1,0,1.5,0.2c0.2,0.1,0.3,0.2,0.3,0.5
			c0,0.6,0.2,1.1,0.2,1.6c0.1,0.6,0.3,1.2,0.4,1.9c0.1,0.6,0.2,1.2,0.4,1.8c0.3,1.1,0.6,2.2,0.9,3.2l0.9,2.7
			c0.1,0.5,0.3,0.9,0.4,1.4c0.2,0.7,0.4,1.5,0.7,2.1c0.2,0.5,0.2,1,0.4,1.4c0.1,0.1,0,0.3,0,0.4c0,0.1-0.1,0.2-0.2,0.3l-0.2,0.1
			c-0.3,0.1-0.7,0.2-1.1,0.4C224.2,235.3,223.9,235.2,223.8,234.9z M220.6,228.5c0.2,0,0.6,0,1-0.1c0.1,0,0.1-0.1,0.1-0.2
			c0-0.1,0-0.2-0.1-0.3c-0.3-0.9-0.6-1.9-0.8-2.8l-0.3-1.1c0,0-0.1-0.1-0.1-0.1c0,0-0.1,0-0.1,0.1l-0.2,0.4
			c-0.2,1.1-0.5,2.1-0.7,3.2c0,0.2-0.1,0.4-0.1,0.6c0,0.1,0.1,0.2,0.2,0.2H220.6z"/>
		<path class="st2" d="M231.4,235c-0.8-0.3-1.6-0.8-2.2-1.4c-0.7-0.6-1.1-1.4-1.4-2.3c-0.2-0.7-0.4-1.4-0.5-2.1
			c-0.2-0.7-0.1-1.5-0.3-2.2c0-0.1,0-0.1,0-0.2c0.1-0.3,0.1-0.6,0.1-1c0-1.2,0.3-2.3,0.6-3.5c0.2-0.6,0.4-1.1,0.6-1.7
			c0.3-0.9,0.8-1.7,1.6-2.4c0.5-0.5,1-0.8,1.6-1c0.2-0.1,0.4-0.1,0.6-0.1c0.4,0,0.7,0,1.1,0c0.8,0.1,1.5,0.4,2.1,1
			c0.4,0.4,0.6,0.9,0.6,1.5c0,0.2,0,0.4,0,0.6c0,0.4-0.1,0.8-0.2,1.3c-0.1,0.3-0.3,0.5-0.7,0.5h-0.2c-0.2-0.1-0.5-0.1-0.8-0.1
			c-0.2,0-0.3-0.1-0.5-0.2c-0.1-0.1-0.2-0.2-0.2-0.3c0-0.2,0-0.4,0.1-0.6c0.1-0.3,0.1-0.6,0.1-0.9c0-0.2-0.1-0.3-0.2-0.3
			c-0.2-0.1-0.3-0.1-0.5-0.1c-0.1,0-0.2,0-0.3,0c-0.4,0-0.7,0.1-1,0.3c-0.5,0.4-0.9,0.9-1.1,1.5c-0.4,1.1-0.8,2.1-1,3.3
			c-0.2,0.7-0.2,1.4-0.2,2.4c0,0.3,0,0.7,0.1,1.2c0.1,0.7,0.2,1.4,0.4,2c0.1,0.5,0.3,0.8,0.6,1.2c0.1,0.1,0.2,0.2,0.3,0.3
			c0.5,0.5,1.1,0.9,1.8,1.1c0.3,0.1,0.5,0.1,0.8,0c0.3-0.1,0.5-0.3,0.6-0.6c0.2-0.6,0.4-1.1,0.4-1.8c0-0.4,0-0.8,0.1-1.2
			c0-0.1-0.1-0.2-0.2-0.2h-0.6c-0.3,0-0.6,0-0.9,0c-0.3,0.1-0.5-0.1-0.7-0.4c-0.1-0.2-0.2-0.4-0.3-0.6c-0.1-0.2-0.1-0.5-0.1-0.7
			c0-0.2,0.1-0.3,0.2-0.3c0.2-0.1,0.4-0.2,0.7-0.2c0.1,0,0.3,0,0.4,0c0.7,0,1.5-0.1,2.2-0.2c0.1,0,0.2,0,0.3-0.1
			c0.2-0.1,0.3,0,0.4,0.1c0.1,0.1,0.2,0.1,0.2,0.2c0.1,0.1,0.1,0.2,0.2,0.3c0.2,0.3,0.3,0.6,0.3,1c0,0.4,0,0.8,0,1.3
			c0,0.1,0,0.2,0,0.2c-0.1,0.3-0.1,0.6-0.1,1c0,0.9-0.3,2.2-0.8,3c-0.1,0.2-0.2,0.3-0.3,0.5c-0.3,0.4-0.7,0.6-1.1,0.8
			c-0.6,0.2-1.1,0.3-1.7,0.2C232,235.2,231.7,235.1,231.4,235z"/>
		<path class="st2" d="M239.1,235.3c-0.1-0.2-0.3-0.3-0.4-0.3c-0.1,0-0.2-0.1-0.3-0.1c-0.1,0-0.2-0.1-0.2-0.2
			c-0.1-0.2-0.1-0.5-0.1-0.7c0-0.4,0-0.8,0-1.2c0-1,0-1.9,0-2.9c0-0.2,0-0.5,0.1-0.8c0-0.1,0-0.2,0-0.3c0-1.5,0-3,0-4.5
			c0-0.1,0-0.2,0-0.3c-0.1-0.5-0.1-1-0.1-1.5c0-1,0-1.9,0-2.9c0-0.2,0-0.3,0-0.5c0-0.2,0.2-0.4,0.2-0.7c0-0.2,0-0.4,0-0.6
			c0-0.2,0.2-0.3,0.3-0.3c0.2,0,0.4-0.1,0.6-0.1c0.5,0,1,0,1.5-0.1c0.1,0,0.2,0,0.3,0c1.2,0,2.3-0.1,3.5-0.1c0.2,0,0.3,0,0.5,0
			c0.1,0,0.2,0.1,0.3,0.2s0.1,0.2,0.1,0.3c0,0.3,0.1,0.7,0.2,1c0,0.1,0,0.2,0,0.3c0,0.1-0.1,0.1-0.1,0.2c-0.5,0.2-1,0.3-1.6,0.1
			c-0.1-0.1-0.2,0-0.3,0c-0.2,0.1-0.3,0.1-0.5,0.1c-0.6,0-1.2,0-1.7,0c-0.3,0-0.6,0.1-0.8,0.1c-0.1,0-0.2,0.2-0.2,0.3
			c0,0.9,0,1.8,0,2.7c0,0.5,0.1,0.9,0.1,1.3c0,0.1,0.1,0.1,0.1,0.1l0.3,0c0.6,0,1.1-0.1,1.6-0.1h0.5c0.2,0,0.3,0.1,0.3,0.3
			c0.2,0.4,0.3,0.8,0.2,1.2c0,0.1-0.1,0.2-0.1,0.3c-0.1,0.2-0.2,0.3-0.4,0.3c-0.2,0-0.3,0.1-0.4,0.1c-0.6,0-1.1,0.1-1.6,0.1
			l-0.3,0.1c-0.1,0-0.2,0.2-0.2,0.2c0,0.2,0,0.4,0,0.6c0,0.7,0,1.4-0.1,2.2c0,0.4,0.1,0.7,0,1.1c-0.1,0.4,0,0.7,0,1.1
			c0,0.4,0,0.8,0,1.1c0,0.1,0,0.2,0,0.3c0,0.1,0.1,0.2,0.3,0.2h0.1c0.8,0,1.6-0.1,2.4-0.1c0.3,0,0.6,0,0.9-0.1
			c0.3-0.1,0.6,0,0.8,0.1c0.1,0.1,0.2,0.1,0.2,0.2c0.1,0.5,0.1,1-0.1,1.5c-0.1,0.2-0.2,0.4-0.4,0.4c-0.2,0-0.3,0.1-0.5,0.1
			c-0.7,0-1.4,0-2.1,0.1c-0.2,0-0.5,0-0.7-0.1c-0.3,0.2-0.7,0.3-1.1,0.3c-0.2,0-0.3,0-0.5,0C239.4,235.5,239.2,235.4,239.1,235.3z"
			/>
		<path class="st2" d="M247.9,236.1c-0.1-0.1-0.2-0.1-0.3-0.2c-0.2-0.2-0.3-0.4-0.4-0.6c0-0.1,0-0.2,0-0.3c0.1-0.7,0.8-1.2,1.5-1
			c0.1,0,0.2,0.1,0.3,0.2c0.1,0.2,0.2,0.4,0.3,0.6c0.1,0.2,0.1,0.5,0.1,0.8c0,0,0,0.1,0,0.1c0,0.7-0.3,1.2-0.7,1.8
			c-0.1,0.2-0.3,0.2-0.5,0.1c-0.2-0.1-0.4-0.3-0.5-0.5C247.6,236.7,247.9,236.5,247.9,236.1z"/>
	</g>
	<g class="st1">
		<path class="st2" d="M106.2,266.9c-0.1-0.2-0.2-0.3-0.2-0.5v-1.8c0-0.2,0-0.3,0-0.5c-0.1-0.6-0.1-1.2-0.1-1.7c0-0.3,0-0.6-0.1-0.9
			c0-0.2,0-0.3,0-0.5v-1.3c0-0.2,0-0.4,0-0.6c-0.1-0.6-0.1-1.2-0.1-1.7c0-0.5,0-0.9-0.1-1.3c-0.1-0.2,0-0.4,0-0.6v-1.8
			c0-0.3,0-0.6,0-0.8c0-0.2,0-0.3,0-0.5c0-0.6,0-1.2,0.1-1.8c0-0.1,0-0.2,0-0.3c0-0.1,0.1-0.3,0.2-0.3c0.1-0.1,0.1-0.1,0.2-0.1
			c0.3-0.3,0.7-0.4,1.2-0.4c0.3,0,0.6,0,0.9-0.1c0.1-0.1,0.3,0,0.4,0h1c0.3,0,0.6,0,0.8,0c0.6,0,1.1,0.2,1.6,0.5
			c0.1,0.1,0.2,0.2,0.3,0.3c0,0.1,0.1,0.1,0.2,0.1c0.1,0,0.2,0.1,0.3,0.2c0.2,0.2,0.3,0.3,0.4,0.5c0.4,0.7,0.7,1.4,0.8,2.1
			c0.2,1.1,0.2,2.3,0.1,3.4c-0.2,1-0.6,1.9-1.3,2.6c-0.3,0.3-0.6,0.5-0.9,0.8c-0.1,0.1-0.2,0.1-0.3,0.2c-0.5,0.3-1.1,0.6-1.7,0.7
			c-0.2,0.1-0.5,0.1-0.7,0.1c-0.3,0-0.7,0.1-1,0.1c-0.1,0-0.2,0.1-0.2,0.2c-0.1,0.6-0.1,1.3,0,1.9c0,0.4,0.1,0.9,0.1,1.3v2.1
			c0,0.2-0.1,0.3-0.3,0.4c-0.1,0-0.2,0.1-0.2,0.1c-0.3,0-0.7,0.1-1,0.2h-0.3C106.3,267,106.3,266.9,106.2,266.9z M109.4,258.4
			c1-0.2,1.6-0.8,2.2-1.5c0.1-0.1,0.1-0.2,0.2-0.3c0.2-0.4,0.3-0.8,0.3-1.2c0-0.2,0-0.5,0-0.7c0-0.7-0.1-1.3-0.3-1.9
			c0-0.2-0.1-0.3-0.2-0.5c-0.2-0.3-0.4-0.6-0.8-0.7c-0.2-0.1-0.4-0.2-0.7-0.2c-0.4,0-0.7,0-1.1,0c-0.3,0-0.5,0.1-0.8,0.1
			c-0.1,0-0.2,0.1-0.2,0.2c0,0.6,0,1.1-0.1,1.8c0,0.3,0,0.8,0,1.3c0,0.2,0,0.4,0,0.6c0.1,0.5,0.1,1,0.1,1.5v0.9
			c0,0.2,0.1,0.3,0.1,0.5c0,0.1,0.1,0.2,0.3,0.2C108.7,258.5,109.1,258.5,109.4,258.4z"/>
		<path class="st2" d="M117.7,267c-0.4-0.1-0.8-0.3-1.1-0.5c-0.2-0.1-0.3-0.3-0.3-0.5v-1c0-1,0-2.4,0-3.4c0-0.5,0-1-0.1-1.5
			c-0.1-0.5,0-1-0.1-1.6c0-0.3,0.2-0.6,0-0.9c0-0.3-0.1-0.6-0.1-0.8c0-0.1,0-0.2,0-0.3c0-0.7-0.1-1.4,0-2.2c0-0.1,0-0.2-0.1-0.3
			c-0.1-0.2-0.1-0.3-0.1-0.5v-3.1c0-0.1,0-0.1,0-0.2c0-0.1,0.1-0.3,0.2-0.4c0.1-0.1,0.1-0.1,0.2-0.1c0.1-0.1,0.3-0.2,0.4-0.3
			c0.2-0.1,0.3-0.1,0.5-0.1c0.4-0.1,0.8-0.2,1.3-0.2c0.2,0,0.5-0.1,0.7,0c0.9,0.1,1.7,0.2,2.5,0.6c0.9,0.3,1.6,0.9,2,1.8
			c0.2,0.4,0.4,0.8,0.5,1.2c0.1,0.1,0.1,0.2,0.1,0.3c0.1,0.3,0,0.7,0.1,1c0.1,0.2,0.1,0.5,0,0.7c-0.1,0.6-0.2,1.2-0.5,1.8
			c-0.4,0.8-0.9,1.4-1.6,1.9c-0.1,0.1-0.2,0.2-0.3,0.3c0,0.3,0.2,0.5,0.3,0.8c0.4,1,1.1,2.4,1.6,3.4c0.2,0.5,0.4,1,0.7,1.4
			c0.2,0.3,0.3,0.7,0.5,1c0.1,0.2,0.1,0.3,0.1,0.5c0,0.2,0.1,0.4,0.2,0.6c0,0.2-0.1,0.4-0.3,0.5l-0.2,0.1c0,0-0.1,0-0.1,0
			c-0.4,0-0.8,0-1.2,0c-0.2,0-0.3-0.1-0.3-0.2l-0.7-1.3c-0.3-0.6-0.5-1.1-0.8-1.7c-0.1-0.2-0.2-0.3-0.1-0.6c0-0.1-0.1-0.2-0.1-0.2
			c-0.1-0.1-0.2-0.2-0.3-0.3c-0.2-0.3-0.3-0.7-0.7-1.5c-0.2-0.5-0.4-1-0.7-1.5c0-0.1-0.1-0.2-0.3-0.2c-0.3,0-0.6,0-1,0
			c-0.1,0-0.2,0.1-0.2,0.2v0.8c0,1.7,0,3.9,0,5.6c0,0.3,0,0.5-0.1,0.8c0,0.2-0.2,0.3-0.4,0.3C117.9,267.1,117.8,267.1,117.7,267z
			 M120.5,256.9c0.2-0.1,0.4-0.2,0.5-0.3c0.7-0.5,1.1-1.1,1.1-2c0-0.1,0-0.2,0-0.4c0-0.2,0-0.5,0-0.7c-0.1-0.5-0.3-0.9-0.6-1.3
			c-0.2-0.2-0.5-0.4-0.8-0.5c-0.4-0.1-0.9-0.2-1.4-0.3c-0.3-0.1-0.7,0-1,0.1c-0.1,0-0.2,0.1-0.2,0.2c0,0.5,0,1,0,1.6
			c0.1,0.4,0.1,0.8,0.1,1.2c0,0.4,0,0.7,0,1.1c0.1,0.5,0.1,1,0.1,1.5c0,0.1,0.1,0.1,0.2,0.2c0.2,0.1,0.4,0.1,0.6,0.1
			C119.6,257.1,120.1,257,120.5,256.9z"/>
		<path class="st2" d="M128.1,267.1c-0.1-0.2-0.3-0.3-0.4-0.3c-0.1,0-0.2-0.1-0.3-0.1c-0.1,0-0.2-0.1-0.2-0.2
			c-0.1-0.2-0.1-0.5-0.1-0.7c0-0.4,0-0.8,0-1.2c0-1,0-1.9,0-2.9c0-0.2,0-0.5,0.1-0.8c0-0.1,0-0.2,0-0.3c0-1.5,0-3,0-4.5
			c0-0.1,0-0.2,0-0.3c-0.1-0.5-0.1-1-0.1-1.5c0-1,0-1.9,0-2.9c0-0.2,0-0.3,0-0.5c0-0.2,0.2-0.4,0.2-0.7c0-0.2,0-0.4,0-0.6
			c0-0.2,0.2-0.3,0.3-0.3c0.2,0,0.4-0.1,0.6-0.1c0.5,0,1,0,1.5-0.1c0.1,0,0.2,0,0.3,0c1.2,0,2.3-0.1,3.5-0.1c0.2,0,0.3,0,0.5,0
			c0.1,0,0.2,0.1,0.3,0.2c0.1,0.1,0.1,0.2,0.1,0.3c0,0.3,0.1,0.7,0.2,1c0,0.1,0,0.2,0,0.3c0,0.1-0.1,0.1-0.1,0.2
			c-0.5,0.2-1,0.3-1.6,0.1c-0.1-0.1-0.2,0-0.3,0c-0.2,0.1-0.3,0.1-0.5,0.1c-0.6,0-1.2,0-1.7,0c-0.3,0-0.6,0.1-0.8,0.1
			c-0.1,0-0.2,0.2-0.2,0.3c0,0.9,0,1.8,0,2.7c0,0.5,0.1,0.9,0.1,1.3c0,0.1,0.1,0.1,0.1,0.1l0.3,0c0.6,0,1.1-0.1,1.6-0.1h0.5
			c0.2,0,0.3,0.1,0.3,0.3c0.2,0.4,0.3,0.8,0.2,1.2c0,0.1-0.1,0.2-0.1,0.3c-0.1,0.2-0.2,0.3-0.4,0.3c-0.2,0-0.3,0.1-0.4,0.1
			c-0.6,0-1.1,0.1-1.6,0.1l-0.3,0.1c-0.1,0-0.2,0.2-0.2,0.2c0,0.2,0,0.4,0,0.6c0,0.7,0,1.4-0.1,2.2c0,0.4,0.1,0.7,0,1.1s0,0.7,0,1.1
			c0,0.4,0,0.8,0,1.1c0,0.1,0,0.2,0,0.3c0,0.1,0.1,0.2,0.3,0.2h0.1c0.8,0,1.6-0.1,2.4-0.1c0.3,0,0.6,0,0.9-0.1
			c0.3-0.1,0.6,0,0.8,0.1c0.1,0.1,0.2,0.1,0.2,0.2c0.1,0.5,0.1,1-0.1,1.5c-0.1,0.2-0.2,0.4-0.4,0.4c-0.2,0-0.3,0.1-0.5,0.1
			c-0.7,0-1.4,0-2.1,0.1c-0.2,0-0.5,0-0.7-0.1c-0.3,0.2-0.7,0.3-1.1,0.3c-0.2,0-0.3,0-0.5,0C128.4,267.3,128.2,267.2,128.1,267.1z"
			/>
		<path class="st2" d="M138.7,267.1c-0.6-0.2-1.1-0.5-1.6-0.9c-0.2-0.1-0.3-0.3-0.5-0.5c-0.6-0.8-1-1.8-1.2-2.8c0-0.3,0-0.6,0-0.8
			c0.1-0.3,0.1-0.6,0.1-0.8c0-0.1,0.1-0.3,0.2-0.3c0.1-0.1,0.2-0.1,0.3-0.1c0.4,0,0.8,0,1.2-0.1c0,0,0.1,0,0.1,0
			c0.1,0,0.2,0.1,0.2,0.2c0.1,0.2,0.1,0.5,0.1,0.7c0,0.2,0,0.3,0,0.5c-0.1,0.8,0.2,1.6,0.7,2.2c0,0.1,0.1,0.1,0.1,0.1
			c0.6,0.4,1.2,0.7,1.9,0.5c0.3-0.1,0.5-0.1,0.7-0.2c0.3-0.2,0.6-0.4,0.8-0.8c0.1-0.3,0.2-0.6,0.2-0.8c0.1-0.7,0-1.4-0.2-2.1
			c-0.1-0.5-0.3-0.9-0.6-1.3c-0.4-0.7-1-1.3-1.6-2c-0.2-0.2-0.4-0.4-0.7-0.6c-0.3-0.3-0.5-0.5-0.8-0.8c-0.5-0.5-0.9-1.1-1.2-1.8
			c-0.2-0.3-0.2-0.7-0.4-1.1c0-0.1,0-0.1,0-0.2c-0.2-1.8,0.8-3.2,2.3-3.8c0.3-0.1,0.7-0.2,1.1-0.3c0.2,0,0.3,0,0.5-0.1h0.2
			c0.3,0.1,0.6,0.1,1,0.2c0.7,0.2,1.3,0.7,1.7,1.5c0.4,0.8,0.5,1.6,0.4,2.4c0,0.1-0.1,0.3-0.3,0.3c-0.4,0.2-0.7,0.3-1.2,0.2
			c-0.2,0-0.4-0.1-0.6-0.2c-0.1-0.1-0.2-0.2-0.2-0.3c0-0.4,0-0.7-0.1-1.1c0-0.1-0.1-0.2-0.1-0.3c-0.1-0.2-0.3-0.4-0.6-0.4
			c-0.5-0.1-1,0-1.5,0.3c-0.1,0.1-0.2,0.1-0.2,0.2c-0.1,0.1-0.1,0.1-0.1,0.2c-0.2,0.6-0.3,0.7,0.1,1.5c0.1,0.3,0.3,0.6,0.5,0.8
			c0.4,0.5,0.8,0.9,1.3,1.3c0.7,0.6,1.3,1.3,1.8,2c0.1,0.2,0.2,0.3,0.2,0.4c0.5,0.6,0.8,1.3,1,2.1c0.2,0.7,0.4,1.5,0.4,2.3
			c0,0.4-0.1,0.8-0.1,1.1c-0.1,0.8-0.4,1.5-0.9,2.2c-0.4,0.5-0.8,0.8-1.4,1c-0.4,0.2-1,0.3-1.4,0.4
			C140,267.4,139.4,267.4,138.7,267.1z"/>
		<path class="st2" d="M148.7,267.1c-0.6-0.2-1.1-0.5-1.6-0.9c-0.2-0.1-0.3-0.3-0.5-0.5c-0.6-0.8-1-1.8-1.2-2.8c0-0.3,0-0.6,0-0.8
			c0.1-0.3,0.1-0.6,0.1-0.8c0-0.1,0.1-0.3,0.2-0.3c0.1-0.1,0.2-0.1,0.3-0.1c0.4,0,0.8,0,1.2-0.1c0,0,0.1,0,0.1,0
			c0.1,0,0.2,0.1,0.2,0.2c0.1,0.2,0.1,0.5,0.1,0.7c0,0.2,0,0.3,0,0.5c-0.1,0.8,0.2,1.6,0.7,2.2c0,0.1,0.1,0.1,0.1,0.1
			c0.6,0.4,1.2,0.7,1.9,0.5c0.3-0.1,0.5-0.1,0.7-0.2c0.3-0.2,0.6-0.4,0.8-0.8c0.1-0.3,0.2-0.6,0.2-0.8c0.1-0.7,0-1.4-0.2-2.1
			c-0.1-0.5-0.3-0.9-0.6-1.3c-0.4-0.7-1-1.3-1.6-2c-0.2-0.2-0.4-0.4-0.7-0.6c-0.3-0.3-0.5-0.5-0.8-0.8c-0.5-0.5-0.9-1.1-1.2-1.8
			c-0.2-0.3-0.2-0.7-0.4-1.1c0-0.1,0-0.1,0-0.2c-0.2-1.8,0.8-3.2,2.3-3.8c0.3-0.1,0.7-0.2,1.1-0.3c0.2,0,0.3,0,0.5-0.1h0.2
			c0.3,0.1,0.6,0.1,1,0.2c0.7,0.2,1.3,0.7,1.7,1.5c0.4,0.8,0.5,1.6,0.4,2.4c0,0.1-0.1,0.3-0.3,0.3c-0.4,0.2-0.7,0.3-1.2,0.2
			c-0.2,0-0.4-0.1-0.6-0.2c-0.1-0.1-0.2-0.2-0.2-0.3c0-0.4,0-0.7-0.1-1.1c0-0.1-0.1-0.2-0.1-0.3c-0.1-0.2-0.3-0.4-0.6-0.4
			c-0.5-0.1-1,0-1.5,0.3c-0.1,0.1-0.2,0.1-0.2,0.2c-0.1,0.1-0.1,0.1-0.1,0.2c-0.2,0.6-0.3,0.7,0.1,1.5c0.1,0.3,0.3,0.6,0.5,0.8
			c0.4,0.5,0.8,0.9,1.3,1.3c0.7,0.6,1.3,1.3,1.8,2c0.1,0.2,0.2,0.3,0.2,0.4c0.5,0.6,0.8,1.3,1,2.1c0.2,0.7,0.4,1.5,0.4,2.3
			c0,0.4-0.1,0.8-0.1,1.1c-0.1,0.8-0.4,1.5-0.9,2.2c-0.4,0.5-0.8,0.8-1.4,1c-0.4,0.2-1,0.3-1.4,0.4
			C150.1,267.4,149.4,267.4,148.7,267.1z"/>
		<path class="st2" d="M157.3,267c-0.2,0-0.3-0.1-0.5-0.2c-0.1-0.1-0.2-0.2-0.2-0.3c0-0.1,0-0.2,0-0.3c0-0.4,0-0.8-0.1-1.2
			c0-0.2,0-0.3,0-0.5c0-1,0-1.9,0-2.9c0-0.9,0-1.9,0-2.8c0-0.4,0-0.7-0.1-1.1c-0.1-0.2,0-0.5,0-0.7c0-1.8,0-4.4-0.1-6.3v-1
			c0-0.1,0.1-0.2,0.2-0.3s0.2-0.1,0.4-0.2c0.4-0.1,0.8-0.1,1.2,0c0.2,0.1,0.4,0.3,0.4,0.6c0,0.2,0,0.3,0,0.5v3.3h0v2.3
			c0,0.4,0,0.7,0.1,1.1c0,0.2,0,0.4,0,0.6c0,1.8,0,3.6,0,5.5c0,0.5,0.1,1,0.1,1.6c0.1,0.6,0.1,1.3,0,1.9c0,0,0,0.1,0,0.1
			c0,0.1-0.2,0.2-0.2,0.2C158.1,267.1,157.7,267.1,157.3,267z"/>
		<path class="st2" d="M168.9,266.7l-0.5-1c-0.5-1-0.9-2-1.3-2.9l-0.1-0.2c-0.8-1.8-1.7-4.1-2.5-5.8c-0.4-0.8-0.6-1.6-1-2.4
			c0-0.1-0.1-0.1-0.1-0.1c0,0-0.1,0.1-0.1,0.1c0,0.8,0.1,1.6,0.1,2.3c0,0.6,0.1,1.1,0,1.6c-0.1,0.3-0.1,1-0.1,1.3v3.6
			c0,0.2,0,0.5,0,0.7c0,0.2,0,0.3,0.1,0.5c0,0.1,0.1,0.2,0.1,0.3v1.5c0,0.2-0.1,0.3-0.2,0.4c-0.2,0.1-0.3,0.2-0.6,0.2h-1
			c-0.1,0-0.3-0.1-0.4-0.2c-0.1-0.1-0.2-0.2-0.2-0.4c0-0.2,0-0.4,0-0.6v-5.9c0,0,0,0,0,0l-0.1-6.3c0-0.4,0-0.7-0.1-1.1
			c-0.1-0.7-0.1-1.4-0.1-2.1c0-0.1,0-0.1,0-0.2c0-0.2,0.1-0.3,0.3-0.4c0.1-0.1,0.2-0.1,0.3-0.1c0.3,0,0.6-0.1,0.8-0.2
			c0.1,0,0.2,0,0.3,0c0.1,0,0.3,0,0.4,0.1c0.3,0.4,0.5,0.8,0.8,1.3c0.4,0.7,0.7,1.5,1.1,2.2c0.2,0.5,0.3,1,0.5,1.4
			c0.2,0.5,0.4,0.9,0.6,1.4c0.6,1.2,1.3,3,1.8,4.2c0.3,0.6,0.5,1.2,0.8,1.7c0,0.1,0.1,0.1,0.2,0.2l0.1,0c0.1-0.3,0-0.6,0-1
			c-0.1-0.3-0.1-0.7-0.1-1l-0.1-6.5c0-0.3,0-1.4-0.1-1.7c-0.1-0.7-0.1-1.3-0.1-2c0-0.1,0.1-0.2,0.2-0.3c0.3-0.1,0.7-0.2,1.1-0.2
			c0.2,0,0.4,0.1,0.6,0.2c0.2,0.1,0.3,0.2,0.3,0.5c0,0.4,0.1,0.7,0.1,1c0.1,0.4,0.1,0.9,0.1,1.3l0.1,5.2c0,0.1,0,0.2,0,0.3
			c0.1,0.6,0.1,1.2,0.1,1.8c0,1.1,0,2.3,0.1,3.4c0,0.3,0,0.7,0.1,1c0,0.2,0,0.3,0,0.5c0,0.6,0,1.3,0,1.9c0,0.2-0.1,0.4-0.2,0.6
			c-0.1,0.1-0.2,0.2-0.3,0.2c-0.1,0-0.1,0-0.2,0c-0.2,0-0.4-0.1-0.6-0.1c-0.2,0-0.3,0.1-0.5,0.1C169.4,267.1,169.1,267,168.9,266.7z
			"/>
		<path class="st2" d="M177.7,266.8c-0.8-0.3-1.6-0.8-2.2-1.4c-0.7-0.6-1.1-1.4-1.4-2.3c-0.2-0.7-0.4-1.4-0.5-2.1
			c-0.2-0.7-0.1-1.5-0.3-2.2c0-0.1,0-0.1,0-0.2c0.1-0.3,0.1-0.6,0.1-1c0-1.2,0.3-2.3,0.6-3.5c0.2-0.6,0.4-1.1,0.6-1.7
			c0.3-0.9,0.8-1.7,1.6-2.4c0.5-0.5,1-0.8,1.6-1c0.2-0.1,0.4-0.1,0.6-0.1c0.4,0,0.7,0,1.1,0c0.8,0.1,1.5,0.4,2.1,1
			c0.4,0.4,0.6,0.9,0.6,1.5c0,0.2,0,0.4,0,0.6c0,0.4-0.1,0.8-0.2,1.3c-0.1,0.3-0.3,0.5-0.7,0.5h-0.2c-0.2-0.1-0.5-0.1-0.8-0.1
			c-0.2,0-0.3-0.1-0.5-0.2c-0.1-0.1-0.2-0.2-0.2-0.3c0-0.2,0-0.4,0.1-0.6c0.1-0.3,0.1-0.6,0.1-0.9c0-0.2-0.1-0.3-0.2-0.3
			c-0.2-0.1-0.3-0.1-0.5-0.1c-0.1,0-0.2,0-0.3,0c-0.4,0-0.7,0.1-1,0.3c-0.5,0.4-0.9,0.9-1.1,1.5c-0.4,1.1-0.8,2.1-1,3.3
			c-0.2,0.7-0.2,1.4-0.2,2.4c0,0.3,0,0.7,0.1,1.2c0.1,0.7,0.2,1.4,0.4,2c0.1,0.5,0.3,0.8,0.6,1.2c0.1,0.1,0.2,0.2,0.3,0.3
			c0.5,0.5,1.1,0.9,1.8,1.1c0.3,0.1,0.5,0.1,0.8,0c0.3-0.1,0.5-0.3,0.6-0.6c0.2-0.6,0.4-1.1,0.4-1.8c0-0.4,0-0.8,0.1-1.2
			c0-0.1-0.1-0.2-0.2-0.2h-0.6c-0.3,0-0.6,0-0.9,0c-0.3,0.1-0.5-0.1-0.7-0.4c-0.1-0.2-0.2-0.4-0.3-0.6c-0.1-0.2-0.1-0.5-0.1-0.7
			c0-0.2,0.1-0.3,0.2-0.3c0.2-0.1,0.4-0.2,0.7-0.2c0.1,0,0.3,0,0.4,0c0.7,0,1.5-0.1,2.2-0.2c0.1,0,0.2,0,0.3-0.1
			c0.2-0.1,0.3,0,0.4,0.1c0.1,0.1,0.2,0.1,0.2,0.2c0.1,0.1,0.1,0.2,0.2,0.3c0.2,0.3,0.3,0.6,0.3,1c0,0.4,0,0.8,0,1.3
			c0,0.1,0,0.2,0,0.2c-0.1,0.3-0.1,0.6-0.1,1c0,0.9-0.3,2.2-0.8,3c-0.1,0.2-0.2,0.3-0.3,0.5c-0.3,0.4-0.7,0.6-1.1,0.8
			c-0.6,0.2-1.1,0.3-1.7,0.2C178.4,267,178,266.9,177.7,266.8z"/>
		<path class="st2" d="M186.1,266.6c0,0.4-0.3,0.9-0.7,1c-0.2,0.1-0.4,0.1-0.6,0.1c-0.4-0.1-0.8-0.5-0.8-0.8c0-0.5,0.2-0.8,0.6-1.1
			c0.2-0.2,0.4-0.2,0.5-0.2c0.2,0,0.3,0.1,0.4,0.2c0.1,0.1,0.1,0.1,0.2,0.2C185.9,266.1,186.1,266.3,186.1,266.6z M188.5,267.7
			c-0.4,0-0.7-0.2-0.9-0.6c-0.2-0.3-0.2-0.6,0-0.9c0.1-0.2,0.2-0.3,0.3-0.5c0.1-0.1,0.2-0.1,0.3-0.2c0.3-0.1,0.5-0.1,0.7,0.1
			c0.1,0,0.2,0.1,0.3,0.2c0.2,0.3,0.4,0.6,0.3,1c0,0,0,0.1,0,0.1C189.4,267.4,189,267.7,188.5,267.7z M192,267.8
			c-0.5,0-0.9-0.3-1.1-0.9c0-0.1,0-0.2,0-0.3c0.1-0.2,0.1-0.5,0.3-0.7c0.2-0.2,0.4-0.3,0.6-0.4c0.1,0,0.1,0,0.2,0
			c0.3,0.2,0.6,0.3,0.9,0.6c0.2,0.3,0.3,0.8,0.1,1.1C192.9,267.5,192.6,267.8,192,267.8L192,267.8z"/>
	</g>
</g>
<g class="st1">
	<path class="st2" d="M21.9,186.5c-0.6,0-1.5,0-1.9,0c-0.4,0-1.3,0-1.6,0c-0.3,0,0.1-0.5,0.1-0.7c0-0.4,0-0.9,0.3-1.2
		c0.2-0.3,0.4-0.5,0.6-0.8c0.3-0.2,0.5-0.4,0.9-0.4c0.6-0.1,1.2,0,1.8,0.3c0.1,0,0.2,0.1,0.3,0.2c0.2,0.2,0.4,0.4,0.6,0.7
		c0,0.1,0.1,0.1,0.2,0.2c0,0,0.2,0,0.2,0c0.1-0.1,0.1-0.2,0.2-0.4c0.1-0.3,0.3-0.5,0.5-0.7c0.4-0.5,0.9-0.7,1.6-0.8
		c0.3,0,0.6,0,0.9,0.1c0.4,0.2,0.8,0.5,1,0.9c0.1,0.2,0.2,0.3,0.3,0.5c0.1,0.1,0.2,0.1,0.3,0l0.1-0.1c0.3-0.5,0.8-0.9,1.3-1.2
		c0.7-0.4,1.4-0.6,2.2-0.5c0.8,0,1.3,0.4,1.7,1.1c0.1,0.2,0.1,0.4,0.2,0.6c0,0.1,0.2,0.1,0.3,0c0.1-0.1,0.1-0.1,0.2-0.3l0.2-0.3
		c0.6-0.8,1.5-1,2.5-0.9c0.5,0.1,0.8,0.3,1.1,0.7c0.2,0.3,0.3,0.5,0.5,0.8c0.1,0.1,0.1,0.2,0.2,0.3c0,0.1,0.3,0.1,0.3,0.1
		c0.1,0,0.1-0.1,0.2-0.1c0.3-0.2,0.5-0.4,0.7-0.6c0.4-0.3,0.8-0.5,1.3-0.5c0.4,0,0.9-0.1,1.3,0c0.4,0.1,0.8,0.2,1.1,0.5
		c0.2,0.2,0.3,0.4,0.5,0.5c0.1,0.1,0.2,0.2,0.3,0.3s0.2-0.1,0.4-0.2c0.1-0.1,0.2-0.1,0.2-0.3c0.3-0.3,0.6-0.6,0.9-0.8
		c0.5-0.3,1.1-0.6,1.7-0.6c0.1,0,0.3,0,0.4,0c0.5,0,0.9,0.1,1.2,0.5c0.3,0.3,0.5,0.7,0.7,1.1c0.1,0.2,0.1,0.3,0.2,0.4
		c0,0.1,0.2,0.1,0.2,0c0.1,0,0.2-0.1,0.3-0.1c0.3-0.2,0.5-0.3,0.8-0.5c0.6-0.3,1.2-0.5,1.8-0.5c0.5-0.1,0.9,0,1.2,0.3
		c0.2,0.1,0.3,0.2,0.5,0.3c0.2,0.1,0.4,0.3,0.5,0.5c0.1,0.3,0.4,0.5,0.5,0.7c0,0.3,0.1,0.9-0.1,0.9s-1,0-1.2,0c-0.1,0-0.4,0-0.5,0
		h-1.4c-1,0-1.9,0-2.9-0.1c-0.9,0-1.9,0-2.8,0h0c-1-0.1-1.9,0-2.9,0.1c-0.1,0-0.3,0-0.4,0h-0.4c-0.6-0.1-1.2-0.1-2.4,0
		c-2.3,0-6,0.1-9.4,0c-0.3,0-0.5,0-0.7,0h-2.3c-0.6,0-1.3,0-1.9,0C25.1,186.6,23.5,186.5,21.9,186.5z"/>
	<path class="st2" d="M59,186.5c-0.6,0-1.5,0-1.9,0c-0.4,0-1.3,0-1.6,0c-0.3,0,0.1-0.5,0.1-0.7c0-0.4,0-0.9,0.3-1.2
		c0.2-0.3,0.4-0.5,0.6-0.8c0.3-0.2,0.5-0.4,0.9-0.4c0.6-0.1,1.2,0,1.8,0.3c0.1,0,0.2,0.1,0.3,0.2c0.2,0.2,0.4,0.4,0.6,0.7
		c0,0.1,0.1,0.1,0.2,0.2c0,0,0.2,0,0.2,0c0.1-0.1,0.1-0.2,0.2-0.4c0.1-0.3,0.3-0.5,0.5-0.7c0.4-0.5,0.9-0.7,1.6-0.8
		c0.3,0,0.6,0,0.9,0.1c0.4,0.2,0.8,0.5,1,0.9c0.1,0.2,0.2,0.3,0.3,0.5c0.1,0.1,0.2,0.1,0.3,0l0.1-0.1c0.3-0.5,0.8-0.9,1.3-1.2
		c0.7-0.4,1.4-0.6,2.2-0.5c0.8,0,1.3,0.4,1.7,1.1c0.1,0.2,0.1,0.4,0.2,0.6c0,0.1,0.2,0.1,0.3,0c0.1-0.1,0.1-0.1,0.2-0.3l0.2-0.3
		c0.6-0.8,1.5-1,2.5-0.9c0.5,0.1,0.8,0.3,1.1,0.7c0.2,0.3,0.3,0.5,0.5,0.8c0.1,0.1,0.1,0.2,0.2,0.3c0,0.1,0.3,0.1,0.3,0.1
		c0.1,0,0.1-0.1,0.2-0.1c0.3-0.2,0.5-0.4,0.7-0.6c0.4-0.3,0.8-0.5,1.3-0.5c0.4,0,0.9-0.1,1.3,0c0.4,0.1,0.8,0.2,1.1,0.5
		c0.2,0.2,0.3,0.4,0.5,0.5c0.1,0.1,0.2,0.2,0.3,0.3s0.2-0.1,0.4-0.2c0.1-0.1,0.2-0.1,0.2-0.3c0.3-0.3,0.6-0.6,0.9-0.8
		c0.5-0.3,1.1-0.6,1.7-0.6c0.1,0,0.3,0,0.4,0c0.5,0,0.9,0.1,1.2,0.5c0.3,0.3,0.5,0.7,0.7,1.1c0.1,0.2,0.1,0.3,0.2,0.4
		c0,0.1,0.2,0.1,0.2,0c0.1,0,0.2-0.1,0.3-0.1c0.3-0.2,0.5-0.3,0.8-0.5c0.6-0.3,1.2-0.5,1.8-0.5c0.5-0.1,0.9,0,1.2,0.3
		c0.2,0.1,0.3,0.2,0.5,0.3c0.2,0.1,0.4,0.3,0.5,0.5c0.1,0.3,0.4,0.5,0.5,0.7c0,0.3,0.1,0.9-0.1,0.9s-1,0-1.2,0c-0.1,0-0.4,0-0.5,0
		h-1.4c-1,0-1.9,0-2.9-0.1c-0.9,0-1.9,0-2.8,0h0c-1-0.1-1.9,0-2.9,0.1c-0.1,0-0.3,0-0.4,0h-0.4c-0.6-0.1-1.2-0.1-2.4,0
		c-2.3,0-6,0.1-9.4,0c-0.3,0-0.5,0-0.7,0h-2.3c-0.6,0-1.3,0-1.9,0C62.2,186.6,60.6,186.5,59,186.5z"/>
	<path class="st2" d="M96.1,186.5c-0.6,0-1.5,0-1.9,0c-0.4,0-1.3,0-1.6,0c-0.3,0,0.1-0.5,0.1-0.7c0-0.4,0-0.9,0.3-1.2
		c0.2-0.3,0.4-0.5,0.6-0.8c0.3-0.2,0.5-0.4,0.9-0.4c0.6-0.1,1.2,0,1.8,0.3c0.1,0,0.2,0.1,0.3,0.2c0.2,0.2,0.4,0.4,0.6,0.7
		c0,0.1,0.1,0.1,0.2,0.2c0,0,0.2,0,0.2,0c0.1-0.1,0.1-0.2,0.2-0.4c0.1-0.3,0.3-0.5,0.5-0.7c0.4-0.5,0.9-0.7,1.6-0.8
		c0.3,0,0.6,0,0.9,0.1c0.4,0.2,0.8,0.5,1,0.9c0.1,0.2,0.2,0.3,0.3,0.5c0.1,0.1,0.2,0.1,0.3,0l0.1-0.1c0.3-0.5,0.8-0.9,1.3-1.2
		c0.7-0.4,1.4-0.6,2.2-0.5c0.8,0,1.3,0.4,1.7,1.1c0.1,0.2,0.1,0.4,0.2,0.6c0,0.1,0.2,0.1,0.3,0c0.1-0.1,0.1-0.1,0.2-0.3l0.2-0.3
		c0.6-0.8,1.5-1,2.5-0.9c0.5,0.1,0.8,0.3,1.1,0.7c0.2,0.3,0.3,0.5,0.5,0.8c0.1,0.1,0.1,0.2,0.2,0.3c0,0.1,0.3,0.1,0.3,0.1
		c0.1,0,0.1-0.1,0.2-0.1c0.3-0.2,0.5-0.4,0.7-0.6c0.4-0.3,0.8-0.5,1.3-0.5c0.4,0,0.9-0.1,1.3,0c0.4,0.1,0.8,0.2,1.1,0.5
		c0.2,0.2,0.3,0.4,0.5,0.5c0.1,0.1,0.2,0.2,0.3,0.3s0.2-0.1,0.4-0.2c0.1-0.1,0.2-0.1,0.2-0.3c0.3-0.3,0.6-0.6,0.9-0.8
		c0.5-0.3,1.1-0.6,1.7-0.6c0.1,0,0.3,0,0.4,0c0.5,0,0.9,0.1,1.2,0.5c0.3,0.3,0.5,0.7,0.7,1.1c0.1,0.2,0.1,0.3,0.2,0.4
		c0,0.1,0.2,0.1,0.2,0c0.1,0,0.2-0.1,0.3-0.1c0.3-0.2,0.5-0.3,0.8-0.5c0.6-0.3,1.2-0.5,1.8-0.5c0.5-0.1,0.9,0,1.2,0.3
		c0.2,0.1,0.3,0.2,0.5,0.3c0.2,0.1,0.4,0.3,0.5,0.5c0.1,0.3,0.4,0.5,0.5,0.7c0,0.3,0.1,0.9-0.1,0.9s-1,0-1.2,0c-0.1,0-0.4,0-0.5,0
		H127c-1,0-1.9,0-2.9-0.1c-0.9,0-1.9,0-2.8,0h0c-1-0.1-1.9,0-2.9,0.1c-0.1,0-0.3,0-0.4,0h-0.4c-0.6-0.1-1.2-0.1-2.4,0
		c-2.3,0-6,0.1-9.4,0c-0.3,0-0.5,0-0.7,0h-2.3c-0.6,0-1.3,0-1.9,0C99.3,186.6,97.7,186.5,96.1,186.5z"/>
	<path class="st2" d="M133.2,186.5c-0.6,0-1.5,0-1.9,0c-0.4,0-1.3,0-1.6,0c-0.3,0,0.1-0.5,0.1-0.7c0-0.4,0-0.9,0.3-1.2
		c0.2-0.3,0.4-0.5,0.6-0.8c0.3-0.2,0.5-0.4,0.9-0.4c0.6-0.1,1.2,0,1.8,0.3c0.1,0,0.2,0.1,0.3,0.2c0.2,0.2,0.4,0.4,0.6,0.7
		c0,0.1,0.1,0.1,0.2,0.2c0,0,0.2,0,0.2,0c0.1-0.1,0.1-0.2,0.2-0.4c0.1-0.3,0.3-0.5,0.5-0.7c0.4-0.5,0.9-0.7,1.6-0.8
		c0.3,0,0.6,0,0.9,0.1c0.4,0.2,0.8,0.5,1,0.9c0.1,0.2,0.2,0.3,0.3,0.5c0.1,0.1,0.2,0.1,0.3,0l0.1-0.1c0.3-0.5,0.8-0.9,1.3-1.2
		c0.7-0.4,1.4-0.6,2.2-0.5c0.8,0,1.3,0.4,1.7,1.1c0.1,0.2,0.1,0.4,0.2,0.6c0,0.1,0.2,0.1,0.3,0c0.1-0.1,0.1-0.1,0.2-0.3l0.2-0.3
		c0.6-0.8,1.5-1,2.5-0.9c0.5,0.1,0.8,0.3,1.1,0.7c0.2,0.3,0.3,0.5,0.5,0.8c0.1,0.1,0.1,0.2,0.2,0.3c0,0.1,0.3,0.1,0.3,0.1
		c0.1,0,0.1-0.1,0.2-0.1c0.3-0.2,0.5-0.4,0.7-0.6c0.4-0.3,0.8-0.5,1.3-0.5c0.4,0,0.9-0.1,1.3,0c0.4,0.1,0.8,0.2,1.1,0.5
		c0.2,0.2,0.3,0.4,0.5,0.5c0.1,0.1,0.2,0.2,0.3,0.3c0.1,0.1,0.2-0.1,0.4-0.2c0.1-0.1,0.2-0.1,0.2-0.3c0.3-0.3,0.6-0.6,0.9-0.8
		c0.5-0.3,1.1-0.6,1.7-0.6c0.1,0,0.3,0,0.4,0c0.5,0,0.9,0.1,1.2,0.5c0.3,0.3,0.5,0.7,0.7,1.1c0.1,0.2,0.1,0.3,0.2,0.4
		c0,0.1,0.2,0.1,0.2,0c0.1,0,0.2-0.1,0.3-0.1c0.3-0.2,0.5-0.3,0.8-0.5c0.6-0.3,1.2-0.5,1.8-0.5c0.5-0.1,0.9,0,1.2,0.3
		c0.2,0.1,0.3,0.2,0.5,0.3c0.2,0.1,0.4,0.3,0.5,0.5c0.1,0.3,0.4,0.5,0.5,0.7c0,0.3,0.1,0.9-0.1,0.9s-1,0-1.2,0c-0.1,0-0.4,0-0.5,0
		h-1.4c-1,0-1.9,0-2.9-0.1c-0.9,0-1.9,0-2.8,0h0c-1-0.1-1.9,0-2.9,0.1c-0.1,0-0.3,0-0.4,0h-0.4c-0.6-0.1-1.2-0.1-2.4,0
		c-2.3,0-6,0.1-9.4,0c-0.3,0-0.5,0-0.7,0h-2.3c-0.6,0-1.3,0-1.9,0C136.4,186.6,134.8,186.5,133.2,186.5z"/>
	<path class="st2" d="M170.3,186.5c-0.6,0-1.5,0-1.9,0s-1.3,0-1.6,0c-0.3,0,0.1-0.5,0.1-0.7c0-0.4,0-0.9,0.3-1.2
		c0.2-0.3,0.4-0.5,0.6-0.8c0.3-0.2,0.5-0.4,0.9-0.4c0.6-0.1,1.2,0,1.8,0.3c0.1,0,0.2,0.1,0.3,0.2c0.2,0.2,0.4,0.4,0.6,0.7
		c0,0.1,0.1,0.1,0.2,0.2c0,0,0.2,0,0.2,0c0.1-0.1,0.1-0.2,0.2-0.4c0.1-0.3,0.3-0.5,0.5-0.7c0.4-0.5,0.9-0.7,1.6-0.8
		c0.3,0,0.6,0,0.9,0.1c0.4,0.2,0.8,0.5,1,0.9c0.1,0.2,0.2,0.3,0.3,0.5c0.1,0.1,0.2,0.1,0.3,0l0.1-0.1c0.3-0.5,0.8-0.9,1.3-1.2
		c0.7-0.4,1.4-0.6,2.2-0.5c0.8,0,1.3,0.4,1.7,1.1c0.1,0.2,0.1,0.4,0.2,0.6c0,0.1,0.2,0.1,0.3,0c0.1-0.1,0.1-0.1,0.2-0.3l0.2-0.3
		c0.6-0.8,1.5-1,2.5-0.9c0.5,0.1,0.8,0.3,1.1,0.7c0.2,0.3,0.3,0.5,0.5,0.8c0.1,0.1,0.1,0.2,0.2,0.3c0,0.1,0.3,0.1,0.3,0.1
		c0.1,0,0.1-0.1,0.2-0.1c0.3-0.2,0.5-0.4,0.7-0.6c0.4-0.3,0.8-0.5,1.3-0.5c0.4,0,0.9-0.1,1.3,0c0.4,0.1,0.8,0.2,1.1,0.5
		c0.2,0.2,0.3,0.4,0.5,0.5c0.1,0.1,0.2,0.2,0.3,0.3c0.1,0.1,0.2-0.1,0.4-0.2c0.1-0.1,0.2-0.1,0.2-0.3c0.3-0.3,0.6-0.6,0.9-0.8
		c0.5-0.3,1.1-0.6,1.7-0.6c0.1,0,0.3,0,0.4,0c0.5,0,0.9,0.1,1.2,0.5c0.3,0.3,0.5,0.7,0.7,1.1c0.1,0.2,0.1,0.3,0.2,0.4
		c0,0.1,0.2,0.1,0.2,0c0.1,0,0.2-0.1,0.3-0.1c0.3-0.2,0.5-0.3,0.8-0.5c0.6-0.3,1.2-0.5,1.8-0.5c0.5-0.1,0.9,0,1.2,0.3
		c0.2,0.1,0.3,0.2,0.5,0.3c0.2,0.1,0.4,0.3,0.5,0.5c0.1,0.3,0.4,0.5,0.5,0.7c0,0.3,0.1,0.9-0.1,0.9s-1,0-1.2,0c-0.1,0-0.4,0-0.5,0
		h-1.4c-1,0-1.9,0-2.9-0.1c-0.9,0-1.9,0-2.8,0h0c-1-0.1-1.9,0-2.9,0.1c-0.1,0-0.3,0-0.4,0h-0.4c-0.6-0.1-1.2-0.1-2.4,0
		c-2.3,0-6,0.1-9.4,0c-0.3,0-0.5,0-0.7,0H177c-0.6,0-1.3,0-1.9,0C173.5,186.6,171.9,186.5,170.3,186.5z"/>
	<path class="st2" d="M207.4,186.5c-0.6,0-1.5,0-1.9,0c-0.4,0-1.3,0-1.6,0s0.1-0.5,0.1-0.7c0-0.4,0-0.9,0.3-1.2
		c0.2-0.3,0.4-0.5,0.6-0.8c0.3-0.2,0.5-0.4,0.9-0.4c0.6-0.1,1.2,0,1.8,0.3c0.1,0,0.2,0.1,0.3,0.2c0.2,0.2,0.4,0.4,0.6,0.7
		c0,0.1,0.1,0.1,0.2,0.2c0,0,0.2,0,0.2,0c0.1-0.1,0.1-0.2,0.2-0.4c0.1-0.3,0.3-0.5,0.5-0.7c0.4-0.5,0.9-0.7,1.6-0.8
		c0.3,0,0.6,0,0.9,0.1c0.4,0.2,0.8,0.5,1,0.9c0.1,0.2,0.2,0.3,0.3,0.5c0.1,0.1,0.2,0.1,0.3,0l0.1-0.1c0.3-0.5,0.8-0.9,1.3-1.2
		c0.7-0.4,1.4-0.6,2.2-0.5c0.8,0,1.3,0.4,1.7,1.1c0.1,0.2,0.1,0.4,0.2,0.6c0,0.1,0.2,0.1,0.3,0c0.1-0.1,0.1-0.1,0.2-0.3l0.2-0.3
		c0.6-0.8,1.5-1,2.5-0.9c0.5,0.1,0.8,0.3,1.1,0.7c0.2,0.3,0.3,0.5,0.5,0.8c0.1,0.1,0.1,0.2,0.2,0.3c0,0.1,0.3,0.1,0.3,0.1
		c0.1,0,0.1-0.1,0.2-0.1c0.3-0.2,0.5-0.4,0.7-0.6c0.4-0.3,0.8-0.5,1.3-0.5c0.4,0,0.9-0.1,1.3,0c0.4,0.1,0.8,0.2,1.1,0.5
		c0.2,0.2,0.3,0.4,0.5,0.5c0.1,0.1,0.2,0.2,0.3,0.3s0.2-0.1,0.4-0.2c0.1-0.1,0.2-0.1,0.2-0.3c0.3-0.3,0.6-0.6,0.9-0.8
		c0.5-0.3,1.1-0.6,1.7-0.6c0.1,0,0.3,0,0.4,0c0.5,0,0.9,0.1,1.2,0.5c0.3,0.3,0.5,0.7,0.7,1.1c0.1,0.2,0.1,0.3,0.2,0.4
		c0,0.1,0.2,0.1,0.2,0c0.1,0,0.2-0.1,0.3-0.1c0.3-0.2,0.5-0.3,0.8-0.5c0.6-0.3,1.2-0.5,1.8-0.5c0.5-0.1,0.9,0,1.2,0.3
		c0.2,0.1,0.3,0.2,0.5,0.3c0.2,0.1,0.4,0.3,0.5,0.5c0.1,0.3,0.4,0.5,0.5,0.7c0,0.3,0.1,0.9-0.1,0.9c-0.2,0-1,0-1.2,0
		c-0.1,0-0.4,0-0.5,0h-1.4c-1,0-1.9,0-2.9-0.1c-0.9,0-1.9,0-2.8,0h0c-1-0.1-1.9,0-2.9,0.1c-0.1,0-0.3,0-0.4,0h-0.4
		c-0.6-0.1-1.2-0.1-2.4,0c-2.3,0-6,0.1-9.4,0c-0.3,0-0.5,0-0.7,0h-2.3c-0.6,0-1.3,0-1.9,0C210.6,186.6,209,186.5,207.4,186.5z"/>
	<path class="st2" d="M244.5,186.5c-0.6,0-1.5,0-1.9,0c-0.4,0-1.3,0-1.6,0s0.1-0.5,0.1-0.7c0-0.4,0-0.9,0.3-1.2
		c0.2-0.3,0.4-0.5,0.6-0.8c0.3-0.2,0.5-0.4,0.9-0.4c0.6-0.1,1.2,0,1.8,0.3c0.1,0,0.2,0.1,0.3,0.2c0.2,0.2,0.4,0.4,0.6,0.7
		c0,0.1,0.1,0.1,0.2,0.2c0,0,0.2,0,0.2,0c0.1-0.1,0.1-0.2,0.2-0.4c0.1-0.3,0.3-0.5,0.5-0.7c0.4-0.5,0.9-0.7,1.6-0.8
		c0.3,0,0.6,0,0.9,0.1c0.4,0.2,0.8,0.5,1,0.9c0.1,0.2,0.2,0.3,0.3,0.5c0.1,0.1,0.2,0.1,0.3,0l0.1-0.1c0.3-0.5,0.8-0.9,1.3-1.2
		c0.7-0.4,1.4-0.6,2.2-0.5c0.8,0,1.3,0.4,1.7,1.1c0.1,0.2,0.1,0.4,0.2,0.6c0,0.1,0.2,0.1,0.3,0c0.1-0.1,0.1-0.1,0.2-0.3l0.2-0.3
		c0.6-0.8,1.5-1,2.5-0.9c0.5,0.1,0.8,0.3,1.1,0.7c0.2,0.3,0.3,0.5,0.5,0.8c0.1,0.1,0.1,0.2,0.2,0.3c0,0.1,0.3,0.1,0.3,0.1
		c0.1,0,0.1-0.1,0.2-0.1c0.3-0.2,0.5-0.4,0.7-0.6c0.4-0.3,0.8-0.5,1.3-0.5c0.4,0,0.9-0.1,1.3,0c0.4,0.1,0.8,0.2,1.1,0.5
		c0.2,0.2,0.3,0.4,0.5,0.5c0.1,0.1,0.2,0.2,0.3,0.3c0.1,0.1,0.2-0.1,0.4-0.2c0.1-0.1,0.2-0.1,0.2-0.3c0.3-0.3,0.6-0.6,0.9-0.8
		c0.5-0.3,1.1-0.6,1.7-0.6c0.1,0,0.3,0,0.4,0c0.5,0,0.9,0.1,1.2,0.5c0.3,0.3,0.5,0.7,0.7,1.1c0.1,0.2,0.1,0.3,0.2,0.4
		c0,0.1,0.2,0.1,0.2,0c0.1,0,0.2-0.1,0.3-0.1c0.3-0.2,0.5-0.3,0.8-0.5c0.6-0.3,1.2-0.5,1.8-0.5c0.5-0.1,0.9,0,1.2,0.3
		c0.2,0.1,0.3,0.2,0.5,0.3c0.2,0.1,0.4,0.3,0.5,0.5c0.1,0.3,0.4,0.5,0.5,0.7c0,0.3,0.1,0.9-0.1,0.9s-1,0-1.2,0c-0.1,0-0.4,0-0.5,0
		h-1.4c-1,0-1.9,0-2.9-0.1c-0.9,0-1.9,0-2.8,0h0c-1-0.1-1.9,0-2.9,0.1c-0.1,0-0.3,0-0.4,0H266c-0.6-0.1-1.2-0.1-2.4,0
		c-2.3,0-6,0.1-9.4,0c-0.3,0-0.5,0-0.7,0h-2.3c-0.6,0-1.3,0-1.9,0C247.7,186.6,246.1,186.5,244.5,186.5z"/>
</g>
<g class="st1">
	<path class="st2" d="M130.9,122.7c1.1-0.5,2.2-0.8,3.5-0.8c0.4,0.1,0.8,0.1,1.2,0c0.2-0.1,0.5-0.3,0.5-0.5c0.2-0.8,0.1-1.5-0.1-2.3
		c-0.1-0.3-0.3-0.6-0.6-0.6l-1.2-0.1c-0.3,0-0.7-0.3-0.7-0.5l-0.5-4.3c0-0.3,0.5-0.8,0.8-0.8c0.4-0.1,0.9-0.1,1.3-0.1
		c1.9-0.1,4-0.1,5.9-0.2c2.3-0.2,4.7-0.1,7,0c0.8,0,1.2,0.3,1.4,1.1c0.4,1.1,0.4,2.4,0.5,3.5c0.1,0.4-0.3,1-0.7,1.2
		c-0.7,0.2-1.5,0.5-2.3,0.6c-0.6,0.1-0.8,0.3-0.7,0.8c0.1,0.7,0.3,1.2,0.4,1.8c0,0.3,0.3,0.5,0.6,0.5c0.5,0.1,1,0.1,1.5,0.1
		c8,0.1,15.8,0.5,23.8,0.9c0.7,0,1.2,0.3,1.6,0.9c0.1,0.2,0.3,0.4,0.4,0.7c0.7,2,1.7,4.1,2.8,6.1c0.3,0.6,0.5,1.3,0.8,2
		c0.8,2.2,1.6,4.2,2.7,6.3c0.7,1.9,1.6,3.8,2.1,5.6c0.3,0.8,0.6,1.5,1.1,2.4c0.3,0.4,0.1,0.9-0.3,1.1c-0.2,0.1-0.3,0.1-0.5,0.2
		l-0.3,0.3c-0.2,0.2-0.2,0.4-0.2,0.5c-0.3,3.4-0.6,6.8-0.8,10c-0.2,2.7-0.5,5.2-0.9,7.8c0,0.2,0,0.5-0.1,0.7
		c-0.3,0.5-0.6,0.8-1.1,0.9c-0.6,0-1.1,0-1.7,0.1c-5.3-0.1-10.7-0.1-16-0.1c-2.9,0.3-5.7,0.2-8.6,0.4c-0.7,0.1-1.5,0.2-2.2,0.2
		l-6.7-0.3c-4.4-0.1-8.7-0.2-13.1-0.3l-3-0.1c-0.5-0.1-0.7-0.4-0.8-0.9l-0.6-1.8c-0.9-5.3-1.9-10.8-3-16.1l-0.3-0.9
		c-0.1-0.2-0.3-0.5-0.5-0.4c-0.8,0.2-1.1-0.3-1.3-0.8c-0.1-0.3-0.2-0.7,0.1-1c0.6-0.4,0.9-1.1,1.3-1.9c1.5-4.7,3.3-9.2,4.8-13.8
		l2.5-7.4C130.7,123.3,130.7,123.1,130.9,122.7z M127.3,138.2c-0.1,0.1-0.2,0.1-0.2,0.2c-1,2.5-1.9,4.9-2.8,7.5
		c0,0.2,0.2,0.5,0.4,0.5l0.7,0.1c3.8-0.3,7.5-0.5,11.2-0.4c0.8,0.1,1.6,0,2.6-0.1c2.6,0,5.1,0,7.7,0.4c0.4,0.1,0.8,0.1,1.3,0.1
		c0.4,0,0.8,0,1-0.4c1.1-1.8,2.2-3.8,3.3-5.6c0.1,0,0.1-0.1,0.1-0.2c0.1-0.2-0.1-0.5-0.4-0.5c-0.1,0-0.1-0.1-0.2,0
		c-1.9-0.1-3.6-0.6-5.2-1.6c-0.3,0.2-0.7,0.4-1,0.6c-1.5,0.9-3,1-4.6,0.7c-0.9-0.3-1.8-0.7-2.8-1.2l-1-0.6c-0.7,0.3-1.3,0.7-2,1
		c-1.5,0.7-3.1,1-4.7,0.7c-0.9-0.1-1.6-0.4-2.5-0.9C127.9,138.2,127.6,138.1,127.3,138.2z M125.4,148.2c0,1.2,0.2,2.4,0.4,3.5
		c0.4,1.5,0.5,3.2,0.9,4.7c0.5,3.3,1.1,6.5,1.8,9.8c0.2,0.8,0.5,1.1,1.4,1.1c1,0.1,2,0,3,0c4.4,0.2,8.7,0.3,13.1,0.4h2.5
		c0.1,0,0.3-0.2,0.3-0.4v-0.7c-0.1-2.3-0.3-4.5-0.3-6.9c-0.2-3.3-0.2-6.7-0.3-10c0-0.3,0-0.6-0.1-0.9c0-0.4-0.1-0.7-0.5-0.7
		c-0.8-0.2-1.6-0.3-2.5-0.5l-3.3-0.1c-3,0-6,0.1-9,0.1c-2.2-0.1-4.5,0.2-6.7,0.3L125.4,148.2z M170.4,131.5
		c-1.3,0.5-2.3,1.1-3.6,1.4c-1.7,0.3-3.2-0.1-4.6-1c-0.5-0.2-0.8-0.8-1.4-0.9c-0.5-0.2-1,0.4-1.5,0.6l-0.7,0.3
		c-2.5,0.7-4.9,0.3-7-1.2c-0.3-0.2-0.6-0.6-1.2-0.6c-0.2,0.2-0.5,0.4-0.9,0.6c-0.5,0.2-1,0.6-1.5,0.8c-2.6,0.8-5,0.4-7-1.1
		c-0.4-0.2-0.6-0.6-1-0.8c-0.2-0.2-0.5-0.2-0.7-0.1c-0.3,0.1-0.5,0.3-0.8,0.5c-1.7,1-3.5,1.3-5.3,0.7c-0.8-0.2-1.5-0.6-2.2-0.9
		c-0.2-0.1-0.6,0.1-0.7,0.3c-0.2,0.3-0.3,0.7-0.5,1.1c-0.4,1.3-1,2.7-1.4,4c-0.2,0.8,0.1,1.6,0.8,2.2c0.6,0.3,1.2,0.5,1.9,0.6
		c1.5,0.3,3,0,4.3-0.7l2.2-1.2c0.2-0.1,0.5-0.1,0.7,0c0.1,0,0.3,0.2,0.4,0.3c0.9,1.2,2.3,1.6,3.9,1.9l0.7,0.1
		c0.7-0.2,1.3-0.4,1.8-0.8l1.4-0.8c0.4-0.2,0.8-0.2,1,0c0.1,0,0.3,0.1,0.4,0.2c1.4,1.3,3.2,1.4,5,1.3c0.7-0.1,1.2-0.4,1.5-1.1
		c0.5-0.5,0.8-1.2,1.2-1.8c0.2-0.3,0.5-0.6,0.8-0.9c0.4-0.3,1-0.3,1.4,0c0.5,0.3,0.8,0.6,1.1,1c0.6,0.8,1.1,1.6,1.7,2.5
		c0.4,0.5,0.9,0.7,1.5,0.8c0.6,0,1.2-0.1,1.7-0.3l2-1.4c1.1-0.6,1.3-0.6,2.1,0.2l1.1,0.9c1.4,1.1,3,1.3,4.5,0.7
		c0.6-0.3,1.1-0.6,1.7-0.9c0.3-0.1,0.5-0.4,0.8-0.5c0.2-0.1,0.5-0.1,0.7,0c0.4,0.1,0.7,0.3,1.1,0.5c0.1,0.1,0.2,0.2,0.2,0.1
		c0.1-0.1,0.2-0.3,0.2-0.4c-0.6-1.5-1.2-3-1.8-4.4c-0.1-0.3-0.4-0.5-0.8-0.5h-1.2C173.2,132.6,171.8,132.3,170.4,131.5z
		 M132.3,123.5c-0.8,1.2-1,2.5-1.3,3.7c-0.2,0.3-0.1,0.6,0.2,0.9c0.3,0.2,0.6,0.7,1,0.8c0.7,0.2,1.4,0.4,2.1,0.5
		c1.1,0.3,2.1,0,3.1-0.5l1.2-0.9c0.7-0.5,1.3-0.5,1.8,0.1c0.2,0.2,0.4,0.5,0.7,0.7c1.5,1.7,5.2,2.5,7.6,0.6l0.8-0.5
		c1.1-0.9,1.3-0.9,2.3,0c0.2,0.3,0.4,0.6,0.7,0.8c0.2,0.2,0.5,0.4,0.8,0.5c1.1,0.4,2.1,0.7,3.4,0.6c0.9-0.1,1.8-0.3,2.6-0.9
		c0.3-0.2,0.5-0.5,0.8-0.7l0.6-0.3c0.2-0.1,0.7-0.1,0.9,0.1l0.6,0.8c1,1.4,2.6,1.9,4.3,1.6c1.1-0.2,2.1-0.7,3.1-1.3
		c0.5-0.4,1-0.4,1.6,0c0.9,0.8,1.9,1,3.2,1.1c0.1,0,0.3-0.1,0.5-0.1c0.4,0.1,0.8-0.4,0.6-0.7c-0.8-1.8-1.6-3.6-2.5-5.2
		c0-0.1-0.1-0.2-0.1-0.2c-0.2-0.2-0.4-0.4-0.6-0.5c-0.8-0.1-1.5-0.1-2.2-0.1c-1.7-0.2-3.6-0.3-5.3-0.3c-9-0.5-18-0.5-27-0.7
		C136,123.3,134.2,123.2,132.3,123.5z M136.6,151.1l2.1,0.1c0.7,0.1,1.2,0.6,1.5,1.2c0.2,0.5,0.4,1.1,0.4,1.6
		c0.3,1.7,0.6,3.5,0.6,5.2l-0.2,0.7c0,0.3-0.5,0.8-0.8,0.9c-1.7,0.1-3.5,0.3-5.2,0.2c-0.4,0-0.8-0.1-1.2-0.2c-1-0.3-1.7-1-1.8-2
		c-0.4-1.9-0.6-4-0.4-5.9c0-0.7,0.4-1.2,1.1-1.4c0.7-0.3,1.5-0.2,2.2-0.3C135.5,151.2,136,151.2,136.6,151.1z M135.4,154.8
		c0.9,0,1.9,0,3-0.1l0.7-0.3c0.1-0.1,0.2-0.3,0.2-0.4c0-0.8-0.5-1.5-1.3-1.4l-4.2,0.1c-0.4,0.1-0.7,0.4-0.7,0.8
		c-0.3,1,0.1,1.4,1.1,1.4C134.6,154.9,135,154.9,135.4,154.8z M134.8,156.3c-0.2,0.1-0.5,0.1-0.9,0.1c-0.3,0-0.7,0.5-0.7,0.7
		c0.1,0.5,0.1,1,0.2,1.4c0.1,0.6,0.5,0.9,1,1.1c0.4,0.1,0.8,0.1,1.2,0.1c0.3,0,0.6-0.4,0.6-0.7c-0.1-0.6-0.1-1.2-0.3-1.8
		C135.9,156.5,135.6,156.3,134.8,156.3z M141.1,117.1l6.6-0.1c0.1,0,0.3,0,0.4-0.1c0.2-0.1,0.3-0.3,0.3-0.4l-0.2-2.2
		c-0.1-0.2-0.5-0.5-0.8-0.6H147c-3.9-0.2-7.8,0.1-11.6,0.3c-0.1,0-0.2,0.1-0.2,0.1c-0.3,0-0.6,0.3-0.6,0.6c0,0.5-0.1,1.1,0.2,1.7
		c0.1,0.1,0.2,0.3,0.4,0.3c0.3,0.1,0.6,0.1,0.9,0.1C137.9,117.1,139.7,117,141.1,117.1z M139.9,158.3c-0.1-0.4-0.1-0.9-0.1-1.5
		c-0.1-0.4-0.5-0.7-0.9-0.7c-1.1,0-1.5,0.4-1.4,1.4l0.3,1.7c0.1,0.2,0.4,0.4,0.6,0.4c0.3,0,0.6,0,0.9-0.1c0.2-0.1,0.4-0.3,0.5-0.4
		C139.9,158.9,139.9,158.6,139.9,158.3z M141.2,122l2.2,0.1c0.3,0,0.6,0,0.9-0.1c0.3,0,0.7-0.4,0.7-0.7c-0.1-0.7-0.2-1.4-0.4-2.2
		c0-0.3-0.3-0.6-0.5-0.6l-5.7-0.2c-0.1,0-0.2,0.1-0.3,0.1c-0.2,0.1-0.6,0.4-0.6,0.7c0,0.7,0.1,1.3,0.2,1.9c0,0.4,0.3,0.8,0.7,0.8
		L141.2,122z M149.5,152.3c0.1,1.6,0.3,3.7,0.2,5.6c0,2.7,0.2,5.2,0.4,7.8l0.2,1.4c0.1,0.3,0.5,0.6,0.8,0.6c0.9,0.2,1.8,0.1,2.8-0.1
		c0.1,0,0.3-0.1,0.4-0.1c0.1-0.1,0.3-0.2,0.3-0.3c0-0.8,0.1-1.5,0-2.3c-0.5-3.2-0.4-6.4-1.2-9.3c-0.1-0.1,0.2-0.4,0.3-0.5
		c0.3-0.2,0.6-0.2,1-0.1c0.9-0.1,1.9-0.2,3-0.1l3.8-0.2c0.8-0.1,1.6,0.1,2.5,0.4c0.2,0.1,0.4,0.3,0.5,0.5c0.1,0.3,0,0.6,0,1
		c0,2.4-0.1,4.8-0.2,7.3c0,0.6,0,1.3,0.1,2c0,0.1-0.1,0.3,0,0.4c0.1,0.2,0.2,0.3,0.3,0.4c0.6,0.3,1.2,0.4,1.9,0.5
		c0.8-0.1,1.1-0.5,1.1-1.1v-1.7c-0.4-3.3-0.7-6.5-0.7-9.7c0-1.6-0.2-3.2-0.2-4.8c-0.1-0.4-0.1-0.8-0.5-1.1c-0.2-0.2-0.3-0.4-0.4-0.6
		c-1.4-1.9-2.7-4.1-4-6l-4.1-5.9c-0.3-0.4-0.9-0.4-1.1,0c-0.2,0.2-0.5,0.5-0.6,0.8c-1.7,3.1-3.5,6.4-5.3,9.3
		c-0.7,1.3-1.3,2.8-1.1,4.3C149.7,151,149.5,151.4,149.5,152.3z M157.9,151.6c-0.7-0.1-1.3-0.2-1.8-0.5c-1.5-0.8-2.1-2.2-1.9-3.8
		c0-0.8,0.2-1.6,0.5-2.4c0-0.4,0.3-0.7,0.5-1c0.7-1.1,1.8-1.7,3.3-1.5c1.3,0.1,2.2,0.8,3.1,1.7c0.3,0.5,0.6,1,0.7,1.5
		c0.4,1.5,0,3-0.8,4.3C160.5,151.1,159.3,151.7,157.9,151.6z M162.8,165.9l0.2-6c0.1-4.4,0.5-3.6-3.8-3.8c-0.2,0-0.4,0-0.5,0.1
		l-3,0.2c-0.3,0.1-0.6,0.4-0.5,0.8l0.6,6.7c0.1,0.9,0.3,1.9,0.3,3c0,0.2,0.4,0.6,0.7,0.6l5.1-0.7
		C162.4,166.7,162.7,166.3,162.8,165.9z M158.2,149.6c-0.2-0.5-0.3-1.1-0.4-1.6c0-0.1-0.2-0.3-0.3-0.4c-0.5-0.2-1.1-0.2-1.6,0.1
		c-0.1,0.1-0.2,0.2-0.2,0.4c-0.2,1,0.8,1.9,1.9,1.9C157.8,150,157.9,149.8,158.2,149.6z M157.6,145.3v-0.4c0-0.1-0.1-0.3-0.1-0.3
		c-0.1-0.4-0.4-0.5-0.7-0.3c-0.3,0.3-0.5,0.6-0.7,0.9c-0.3,0.3-0.1,0.7,0.2,0.7c0.2,0,0.4,0.1,0.5,0.1
		C157.3,146,157.6,145.8,157.6,145.3z M160.5,145.7l0.1-0.2c-0.2-0.7-0.6-1.1-1.2-1.2c-0.2,0-0.3,0-0.3,0.2
		c-0.1,0.2-0.1,0.5-0.1,0.7c0.1,0.6,0.5,0.9,1.2,0.7C160.3,145.9,160.4,145.8,160.5,145.7z M160.1,147.5c-0.4,0-0.8,0.3-0.7,0.7
		c-0.1,0.3,0.1,0.6,0.2,0.9c0,0,0.3,0.1,0.4,0c0.3-0.2,0.5-0.5,0.7-0.9C160.8,148,160.5,147.7,160.1,147.5z M161.8,161.5
		c0,0.2,0,0.3-0.1,0.5c-0.1,0.1-0.3,0.3-0.5,0.4c-0.3,0.2-0.7-0.1-0.7-0.5c0-0.3-0.1-0.6,0-0.9c0.1-0.2,0.3-0.4,0.5-0.5
		s0.6,0.2,0.7,0.5C161.7,161.2,161.7,161.3,161.8,161.5z M162.6,140.3c0.1,0.5,0.3,0.9,0.6,1.2l3.2,5.1c0.7,0.9,1.5,1.3,2.7,1.1
		c0.3,0.1,0.6,0.1,0.9,0c3-0.2,5.8-0.4,8.8-0.5c0.9-0.1,1.8-0.2,2.7-0.3c0.3,0,0.5-0.2,0.7-0.3c-0.2-1.2-0.7-2.3-1.1-3.3
		c-0.3-1-0.8-1.9-1.2-2.9l-2.3-1.3c-0.1,0-0.1-0.1-0.2-0.1c-0.3-0.1-0.7-0.1-1,0c-0.7,0.4-1.4,0.7-2.3,1c-1.6,0.6-3.4,0.5-4.9-0.6
		c-0.4-0.2-0.8-0.5-1.2-0.8c-0.3-0.2-0.5-0.4-1-0.3c-0.5,0.2-1.1,0.7-1.7,1C164.1,139.8,163.3,140,162.6,140.3z M181,156.9v-0.4
		c0.2-2.2,0.2-4.3,0.4-6.5v-0.7c0-0.1-0.1-0.2-0.1-0.3c0.1-0.2-0.2-0.4-0.4-0.5c-3.4,0.2-6.7,0.3-10.1,0.5c-0.6,0.1-1.2,0.2-1.9,0.3
		c-0.4,0-0.7,0.3-0.6,0.8c0,1.3,0,2.6,0.1,3.8c-0.1,0.8,0,1.6,0.1,2.5c0.2,2.5,0.3,4.8,0.5,7.4l0.2,3c0.1,0.3,0.4,0.6,0.7,0.6
		c0.2,0,0.3,0.1,0.5,0.1c2.9,0,5.6-0.1,8.5-0.1h0.2c0.3-0.1,0.6-0.4,0.7-0.7c0.2-1.3,0.4-2.8,0.6-4.2L181,156.9z M171,156.5
		c0.1-0.8,0.1-1.9,0.3-3c0-0.4,0.1-0.8,0.3-1.2c0.1-0.3,0.4-0.5,0.7-0.5c1.6-0.1,3.4-0.1,4.9,0.3c1.1,0.5,1.7,1.1,1.9,2.3
		c0.2,1.7,0.2,3.5,0.2,5.2c-0.2,1-1.2,2.2-2.3,2.2c-1.1,0.2-2.2,0.2-3.5,0.2c-0.4,0.1-0.9,0-1.4-0.2c-0.7-0.2-1.1-0.7-1.1-1.4
		c0-0.3-0.1-0.5-0.1-0.8L171,156.5z M174.2,158.6v-1c0-0.1,0-0.3-0.1-0.4c-0.4-0.3-0.8-0.3-1.1-0.1c-0.2,0.1-0.5,0.3-0.6,0.5
		c-0.2,0.7-0.2,1.4-0.1,2.2c0.1,0.4,0.4,0.7,0.8,0.7s0.9-0.2,1-0.6C174.1,159.4,174.2,159,174.2,158.6z M175.8,155.4h0.5
		c0.3,0,0.6,0.1,0.9,0c0.2-0.1,0.4-0.4,0.4-0.6c0.2-0.6-0.1-1.1-0.7-1.3c-1.2-0.4-2.5-0.5-3.7-0.3c-0.2,0.1-0.6,0.5-0.6,0.8
		l-0.1,0.7c0,0.4,0.3,0.8,0.8,0.8L175.8,155.4z M177.9,159c0.1-0.7-0.1-1.2-0.6-1.8c-0.2-0.2-0.6-0.4-0.9-0.3
		c-0.4,0.1-0.6,0.5-0.7,1c0,0.6-0.1,1.2-0.1,1.9c0,0.2,0.4,0.6,0.7,0.5c0.4,0,0.8-0.1,1.2-0.2c0.2,0,0.4-0.2,0.4-0.4V159z"/>
</g>
<g class="st1">
	<path class="st2" d="M55.8,56.2c0.4-0.7,0.7-1.5,1.1-2.4c0.7-1.8,0.6-3.4-0.3-5c-1.1-1.9-3.4-2.1-5.1-0.9c-1.7,1.2-2.6,3.5-2.7,5.5
		c-0.2,4.2,1.2,7.9,3.1,11.5c1.2,2.5,2.1,4.7,3.2,7.9c1.2,0,10-4.3,10.1-3.4c0.1,1.4-3.4,2.8-5.2,3.6l-4.2,1.6
		c0.6,2.5,0.4,3.6,0.4,5.1c0,1.9-0.5,3.9-1.5,5.5c-1.2,1.9-3.5,2.6-5.6,2.9c-2.1,0.4-4.9-0.1-5.6-2.4c-1.4-4.4,3.4-9,7-11
		c0,0-4.2-9.4-5.1-12.7c-1.3-4.8-1.7-10.3,1.1-14.7c0.5-0.9,1.2-1.4,2-1.9c1.3-0.8,2.4-1.3,3.9-1.3c1.8,0,2.2,0.3,3.8,1.1
		c2.3,1.2,2.9,4.5,2.8,7c-0.1,1.2-0.5,2.5-1,3.5c-0.2,0.5-0.5,1.1-0.9,1.6c-0.4,0.4-1.2,1.1-1.7,0.5c-0.2-0.2-0.2-0.4-0.1-0.7
		C55.3,56.9,55.6,56.6,55.8,56.2z M47.5,86.1c1.7,0.1,3.1-1.2,3.6-2.7c0.6-1.9,0.1-4.6-0.2-6.5c-1,0.4-4.8,2.9-5.5,5.9
		c-0.1,0.5-0.2,1-0.1,1.4C45.5,85.2,46.3,86,47.5,86.1z"/>
	<path class="st2" d="M93.8,47.1c-0.3,1.3-0.7,2.6-1.1,4c-0.5,2.1-1,4.3-1.6,6.4c-1.1,4.3-2.2,8.6-3.2,13c-0.8,3.3-1.7,6.6-2.2,10
		c-0.2,1.7-0.6,5-3.1,4c-1.9-0.7-2-3.3-2.4-5c-0.5-2.1-0.9-4.2-1.3-6.4c-0.4-2.3-0.8-4.7-1.2-7l-0.5-3c-0.1-0.5-0.5-1.6-0.4-2.1
		c-0.8,3.2-1.6,6.4-2.4,9.6c-0.7,3.3-2.6,11.8-2.9,12.7c-0.3,1.2-1.1,3.1-2.6,2.9c-1.2-0.2-1.5-1.8-1.9-2.7c-1.5-3.8-2.1-8-2.9-12
		c-1.3-7-2-14.2-2.9-21.2c-0.2-1.6-0.9-3.4-0.6-5.1c0.2-2.1,3-0.9,3.9-0.1c1.2,1.1,1.4,2.8,1.6,4.3c0.2,2.1,3.4,22.1,3.9,24.3
		c0.2,0.9,0.5,1.8,0.7,2.7c0.7-0.7,2.2-8.6,2.9-11.3c0.6-2.6,1.1-5.2,1.7-7.8c0.8-3.5,1.3-7.2,2.6-10.4c0.3-0.6,0.9-1.8,1.7-1.9
		c1.4-0.2,1.2,1.3,1.3,2.1c0.1,0.9,0.3,1.7,0.4,2.6l0.5,3.9c0.3,2.5,0.6,4.9,1,7.4c0.4,3.1,1.4,15.6,1.7,14.7
		c0.6-2.7,1.9-8,2.5-10.6c0.7-3.3,1.6-6.5,2.4-9.7c0.5-1.9,0.6-3.7,1.3-5.6c0.4-1.1,0.6-3,1.7-3.7c0.3-0.2,0.6-0.3,0.8-0.3
		C93.9,45.6,94,46.4,93.8,47.1z"/>
	<path class="st2" d="M110.4,45.5c-1.7,0.2-3.4,0.2-5.1,0.3c-1.1,0.1-2.5,0.2-3.6,0.1c0,1-0.1,2-0.2,3.1c-0.1,1.3-0.3,2.6-0.3,4
		c-0.1,1.1-0.2,3.6-0.2,3.9c0.1,0.4,4,0.1,4.5,0.1s1.4,0.1,1.5,0.7c0.1,0.6-0.7,1-1.1,1.1c-1.9,0.4-3,0.4-4.9,0.4
		c-0.1,1.2-0.2,1.9-0.3,3.1c-0.4,3.7-1.2,14.6-1.2,16.3c0,1.1-0.2,2.2-0.2,3.3c0.3-0.1,0.6-0.1,0.6-0.1c2.1-0.4,4.1-1,6.2-1.5
		c0.9-0.2,2.2,0,1.3,1.1c-0.4,0.5-1.2,0.7-1.8,1c-1.4,0.5-2.8,0.7-4.2,1.1c-1.6,0.5-3.2,0.9-4.8,1.4c-1.1,0.4-2.6,0.9-3.1-0.5
		c-0.1-0.2-0.2-0.5-0.2-0.8c-0.2-1.3-0.1-2.6-0.1-4c0.2-5.9,0.3-12,1.1-17.9c0.4-3.4,1.5-12.8,1.7-14.2c0.1-0.9,0.5-2,1.1-2.7
		c0.6-0.7,1.6-0.5,2.5-0.5c1.1,0,2.3,0,3.4-0.1c1.8-0.1,4.5-0.1,6.3-0.2c0.6-0.1,1.7-0.3,2,0.4C112.1,45.2,111.2,45.4,110.4,45.5z"
		/>
	<path class="st2" d="M127.6,45.5c-1.7,0.2-3.4,0.2-5.1,0.3c-1.1,0.1-2.5,0.2-3.6,0.1c0,1-0.1,2-0.2,3.1c-0.1,1.3-0.3,2.6-0.3,4
		c-0.1,1.1-0.2,3.6-0.2,3.9c0.1,0.4,4,0.1,4.5,0.1s1.4,0.1,1.5,0.7c0.1,0.6-0.7,1-1.1,1.1c-1.9,0.4-3,0.4-4.9,0.4
		c-0.1,1.2-0.2,1.9-0.3,3.1c-0.4,3.7-1.2,14.6-1.2,16.3c0,1.1-0.2,2.2-0.2,3.3c0.3-0.1,0.6-0.1,0.6-0.1c2.1-0.4,4.1-1,6.2-1.5
		c0.9-0.2,2.2,0,1.3,1.1c-0.4,0.5-1.2,0.7-1.8,1c-1.4,0.5-2.8,0.7-4.2,1.1c-1.6,0.5-3.2,0.9-4.8,1.4c-1.1,0.4-2.6,0.9-3.1-0.5
		c-0.1-0.2-0.2-0.5-0.2-0.8c-0.2-1.3-0.1-2.6-0.1-4c0.2-5.9,0.3-12,1.1-17.9c0.4-3.4,1.5-12.8,1.7-14.2c0.1-0.9,0.5-2,1.1-2.7
		c0.6-0.7,1.6-0.5,2.5-0.5c1.1,0,2.3,0,3.4-0.1c1.8-0.1,4.5-0.1,6.3-0.2c0.6-0.1,1.7-0.3,2,0.4C129.4,45.2,128.5,45.4,127.6,45.5z"
		/>
	<path class="st2" d="M139,46.1c0,0.1-7-0.3-7-0.3c-0.7-0.1-1.7,0.1-2.3-0.4c-0.6-0.6-0.1-1.1,0.6-1.2c2-0.5,5.7-0.1,9-0.1
		c3.3,0,6.4-0.1,9.5,0.2c0.9,0.1,4.6-0.1,4.7,1.1c0.1,1.2-3,1.1-3.7,1.1c-0.3,0-5.4-0.5-5.4-0.4c-0.2,1.2,0.1,2.6-0.1,3.9
		c-0.1,1.6,0,3.2-0.1,4.7c-0.1,3.2-0.3,6.4-0.4,9.6c-0.1,3-0.4,6-0.4,8.9c0.1,2.4,0.3,4.8,0.5,7.1c0.1,1.8,0.2,3.5,0.3,5.2
		c0.1,0.8,0.3,1.6,0.3,2.4c0,0.6-0.3,1.2-1.1,1.2c-0.6,0-1.3-0.6-1.7-1.1c-0.4-0.5-0.7-1-1.1-1.6c-1.2-2.6-2.1-5.1-2.3-8
		c-0.5-8.8-0.5-21.4,0.7-30.1c0.1-0.3,0.2-1.3,0.1-1.9C139.1,46.2,139.1,46.1,139,46.1z"/>
	<path class="st2" d="M185.1,84.8c-1.1,0.7-1.7,0.2-2.7-0.2c-3.6-1.7-2.6-7.9-2.8-11.1c-0.3-3.4-0.2-10.8-0.2-11.4
		c-2.1,0.9-4.7,1-6.8,1.8c-0.1,3.3-0.2,6.8-0.3,10.1c-0.1,1.9-0.3,3.8-0.5,5.7c-0.1,1.9-0.2,3.7-0.3,5.6c-0.1,1-0.3,1.4-1.3,1.4
		c-1.2,0.1-1.4,0.7-2.6-0.2c-0.6-0.5-0.9-1.3-0.9-2.1c-0.1-1.2-0.3-2.4-0.3-3.6c0-5.2,1.1-28.3,1.3-30.1c0.2-1.1,0.4-2.3,0.5-3.5
		c0.1-0.5,0.1-1.6,0.3-2c0.5-0.7,0.9-0.7,1.6-0.6c1.1,0.2,0.8,0.5,1.8,0.8c0.9,0.3,1.2,0.9,1.1,1.8c-0.1,2.9-0.3,5.8-0.4,8.7
		c-0.1,1.7-0.2,3.9-0.2,5.8c2-0.6,5-1.2,6.8-1.8c0,0,0.2-3.2,0.3-4.2c0.2-3.2,0.5-6.4,0.7-9.5c0.1-1,0.2-2,1.2-2.2
		c1.2-0.2,2.2-0.1,3.2,0.5c1.9,1.2,1,3.7,0.8,5.5c-0.3,2.5-0.5,6.2-0.7,8.7c0.7,0,1.5-0.5,1.7,0.6c0.1,0.9-1,1.3-1.8,1.6
		c0,0-0.2,6.4-0.2,7.2c0,2.8,0.2,5.6,0.3,8.3c0.1,1.4,0.2,2.8,0.3,4.2c0.1,0.8,0.6,3.2,0.2,3.8C185.3,84.6,185.2,84.7,185.1,84.8z"
		/>
	<path class="st2" d="M207.6,62.9c-0.2,4.8-1.2,9.5-2.5,14.2c-0.6,2-1.8,3.7-2.9,5.5c-1,1.6-2.8,2.3-4.7,2.6c-3.5,0.6-5.7-1.6-6.7-5
		c-0.4-1.2-0.7-2.5-1-3.7c-0.4-2-0.7-4-0.8-6c-0.1-2.5-0.1-5,0.1-7.5c0.3-4.9,1.2-8.3,3-12.8c0.7-1.7,1.4-3.4,2.7-4.7
		c0.8-0.7,1.2-0.7,2.2-0.8c2.5-0.2,3.9,0.2,5.8,1.8c1.7,1.4,2.5,3.6,3.1,5.7c0.6,2.1,1.4,4.2,1.6,6.4
		C207.7,59.8,207.7,61.3,207.6,62.9z M199.7,47l-0.3,0.2c-1.4,0.8-1.9,3-2.3,4.4c-1.3,4.8-1.7,8.2-1.8,13.2
		c-0.1,3.3-0.1,6.6,0.3,9.9c0.2,1.5,0.5,3,0.9,4.5c0.3,1.1,0.9,2.5,2,3c2.9,1.3,5-6.9,5.4-8.5c1.1-3.9,2-7.7,2-11.7
		c0-4.2-0.7-8.7-2.7-12.5C202.6,48.5,201.2,46.5,199.7,47z"/>
	<path class="st2" d="M211.2,47.3l0.2-0.3c0.9-1,1.1-0.9,2.3-1.1c1.1-0.2,1.8,0.7,2,2.2c0.6,3.6,5.2,21.7,7.1,29.6
		c0.8-4.5,4.5-22.8,7.6-32.2c0.6-1.9,1.9-1.7,3.4-1.3c2.4,0.5-1.1,24,1.9,37c1.2,5.4,3.1,6.9,4.1,7.1c0.9,0.1,1.9-0.1,1.8,1.1
		c-0.1,1.3-1.8,1.5-2.8,1.3c-4.3-1.1-5.4-3.5-6.7-7c-2.3-5.8-3.2-23.6-3.2-25.6l-0.5,2c-0.4,3.1-3.6,18-4.1,20.1
		c-0.2,0.6-0.3,1.8-1,2.1c-0.9,0.3-2.1,0.1-2.8-0.3c-1.5-0.8-3-6.6-3.5-8.3c-1-3.6-2.9-9.7-4.1-13.3c-0.2,3.3,0.1,16.4,0.1,19.5
		c0,1.7,0.4,6.6-1.3,6.6c-1.1,0-0.9-2-1-4.4c-0.2-4.4-0.1-11.9,0.1-16.3C210.9,61.5,210.6,48.3,211.2,47.3z"/>
	<path class="st2" d="M256.6,45.5c-1.7,0.2-3.4,0.2-5.1,0.3c-1.1,0.1-2.5,0.2-3.6,0.1c0,1-0.1,2-0.2,3.1c-0.1,1.3-0.3,2.6-0.3,4
		c-0.1,1.1-0.2,3.6-0.2,3.9c0.1,0.4,4,0.1,4.5,0.1s1.4,0.1,1.5,0.7c0.1,0.6-0.7,1-1.1,1.1c-1.9,0.4-3,0.4-4.9,0.4
		c-0.1,1.2-0.2,1.9-0.3,3.1c-0.4,3.7-1.2,14.6-1.2,16.3c0,1.1-0.2,2.2-0.2,3.3c0.3-0.1,0.6-0.1,0.6-0.1c2.1-0.4,4.1-1,6.2-1.5
		c0.9-0.2,2.2,0,1.3,1.1c-0.4,0.5-1.2,0.7-1.8,1c-1.4,0.5-2.8,0.7-4.2,1.1c-1.6,0.5-3.2,0.9-4.8,1.4c-1.1,0.4-2.6,0.9-3.1-0.5
		c-0.1-0.2-0.2-0.5-0.2-0.8c-0.2-1.3-0.1-2.6-0.1-4c0.2-5.9,0.3-12,1.1-17.9c0.4-3.4,1.5-12.8,1.7-14.2c0.1-0.9,0.5-2,1.1-2.7
		c0.6-0.7,1.6-0.5,2.5-0.5c1.1,0,2.3,0,3.4-0.1c1.8-0.1,4.5-0.1,6.3-0.2c0.6-0.1,1.7-0.3,2,0.4C258.3,45.2,257.5,45.4,256.6,45.5z"
		/>
</g>
</svg>
