<?xml version="1.0" encoding="utf-8"?>
<!-- Generator: Adobe Illustrator 21.1.0, SVG Export Plug-In . SVG Version: 6.00 Build 0)  -->
<svg version="1.1" id="SWEETY_DAYS" xmlns="http://www.w3.org/2000/svg" xmlns:xlink="http://www.w3.org/1999/xlink" x="0px"
	 y="0px" viewBox="0 0 300.1 300.1" style="enable-background:new 0 0 300.1 300.1;" xml:space="preserve">
<style type="text/css">
	.st0{opacity:0.8;fill:#56596D;enable-background:new    ;}
	.st1{enable-background:new    ;}
	.st2{fill:#FFFFFF;}
</style>
<rect id="Fond_accroche" y="0" class="st0" width="300.1" height="300.1"/>
<g class="st1">
	<path class="st2" d="M64.9,235.6c-0.2-0.1-0.3-0.1-0.5-0.1c-0.3,0-0.6-0.1-0.7-0.4c-0.1-0.1-0.2-0.2-0.2-0.2
		c-0.1-0.1-0.1-0.1-0.1-0.2c-0.1-0.5-0.1-1-0.1-1.4c0-0.4,0-0.8-0.1-1.3c0-0.2,0-0.3,0-0.5c0-0.6,0-1.1,0.1-1.6c0-0.3,0-0.6,0-0.9
		c0-0.2,0-0.4,0-0.6c0-0.7,0.1-1.5,0.1-2.2c0-0.4,0.1-0.8,0-1.2c-0.1-0.2,0-0.4,0-0.6c0-0.5,0.1-0.9,0-1.4c0-0.2,0-0.4,0-0.6
		c0-0.3,0-0.6-0.1-0.9c0-0.1,0-0.2,0-0.2c0-0.5,0-0.9-0.1-1.3c0-0.1,0-0.2,0-0.3c0-0.2,0-0.3,0.1-0.5c0,0,0.1-0.1,0.1-0.1
		c0.2-0.5,0.5-0.7,1-0.9c0.7-0.3,1.3-0.3,2-0.3c0.3,0,0.5,0,0.7,0c0.2,0,0.4,0,0.5,0c0.5,0,0.9,0.2,1.4,0.4c1,0.5,1.7,1.2,2,2.2
		c0.1,0.4,0.2,0.8,0.2,1.2c0,0.5,0,1-0.2,1.5c-0.2,0.7-0.5,1.3-1,1.9c-0.1,0.2-0.3,0.4-0.5,0.6c-0.1,0.1-0.1,0.2,0,0.3
		c0.1,0.1,0.3,0.3,0.5,0.4c0.7,0.6,1.2,1.2,1.7,2c0.4,0.7,0.6,1.6,0.5,2.4c0,0.2,0,0.4,0,0.6c-0.1,0.9-0.4,1.7-1,2.4
		c-0.5,0.7-1.2,1.3-2,1.7c-0.3,0.2-0.6,0.3-1,0.3c-0.4,0.1-0.9,0.1-1.4,0.1C66.1,235.7,65.5,235.8,64.9,235.6z M68.7,232.9
		c0.2-0.2,0.3-0.3,0.4-0.4c0.4-0.4,0.6-0.9,0.7-1.5c0-0.2,0-0.3,0-0.5c0-0.2,0-0.5-0.1-0.7c-0.2-0.6-0.6-1.2-1.2-1.7
		c-0.3-0.2-0.6-0.4-0.8-0.6c-0.2-0.2-0.5-0.3-0.8-0.5c-0.2-0.1-0.5-0.2-0.8-0.3c-0.1,0-0.2,0-0.3,0c-0.1,0-0.2,0.1-0.2,0.2
		c-0.1,0.2-0.1,0.4-0.1,0.6c0,0.3-0.1,0.6,0,1c0.1,0.3,0.1,0.6,0,0.8c0,0.5,0,1-0.1,1.5c0,0.2,0,0.4,0,0.6c0,0.3,0,0.6,0,1
		c0,0.3,0,0.5,0,0.8c0,0.1,0.1,0.2,0.2,0.2l0.2,0.1c0.3,0,0.6,0.1,1,0.1C67.5,233.6,68.2,233.4,68.7,232.9z M66.2,224.5L66.2,224.5
		c0.3-0.1,0.6-0.1,0.8-0.2c0.2-0.1,0.3-0.1,0.4-0.2c0.5-0.3,0.8-0.7,1-1.2c0.2-0.5,0.3-0.9,0.3-1.4c0-0.3-0.1-0.7-0.3-1
		c-0.1-0.1-0.1-0.1-0.2-0.2c-0.4-0.3-0.8-0.3-1.3-0.5h-0.1c-0.3,0.2-0.7,0.1-1,0.1c-0.2,0.1-0.3,0.1-0.3,0.4c0,0.2,0,0.4,0,0.6
		c0.1,0.3,0.1,0.7,0.1,1c0,0.2,0,0.3,0,0.5c0.1,0.5,0.1,1,0.1,1.5c0,0.1,0,0.3,0,0.4c0,0.1,0.2,0.3,0.3,0.2
		C66,224.6,66.1,224.5,66.2,224.5z"/>
	<path class="st2" d="M81.4,235.7c-0.1-0.2-0.2-0.3-0.1-0.5c0-0.1,0-0.1,0-0.2c-0.3-0.5-0.3-0.5-0.4-0.9c0-0.1,0-0.2-0.1-0.3
		c-0.3-0.6-0.5-1.2-0.7-1.9c0-0.1,0-0.2-0.1-0.3c-0.1-0.1-0.1-0.2-0.3-0.2h-0.3c-0.3,0-0.6,0-0.8,0c-0.5,0-1,0-1.5,0.1
		c-0.1,0-0.2,0-0.3,0c-0.7,0-0.7,0.1-0.8,0.7l-0.6,2.4c-0.1,0.2-0.2,0.4-0.2,0.6c-0.1,0.1-0.2,0.2-0.3,0.2c-0.6,0.1-1.1,0-1.6-0.3
		c-0.1,0-0.1-0.1-0.1-0.1c-0.1-0.1-0.2-0.2-0.2-0.4l0.2-0.9c0.2-0.8,0.4-1.7,0.6-2.5c0.3-1.2,0.6-2.3,0.8-3.4c0-0.2,0.1-0.3,0.1-0.5
		s0.2-0.3,0.2-0.5c0-0.2,0-0.3,0-0.5c0-0.2,0.1-0.3,0.1-0.4l1-4.1c0.1-0.4,0.2-0.8,0.2-1.2c0.1-0.2,0.1-0.4,0.1-0.6
		c-0.1-0.7,0.2-1.3,0.4-1.9c0.1-0.1,0.2-0.2,0.3-0.2c0.5-0.1,1,0,1.5,0.2c0.2,0.1,0.3,0.2,0.3,0.5c0,0.6,0.2,1.1,0.2,1.6
		c0.1,0.6,0.3,1.2,0.4,1.9c0.1,0.6,0.2,1.2,0.4,1.8c0.3,1.1,0.6,2.2,0.9,3.2l0.9,2.7c0.1,0.5,0.3,0.9,0.4,1.4
		c0.2,0.7,0.4,1.5,0.7,2.1c0.2,0.5,0.2,1,0.4,1.4c0.1,0.1,0,0.3,0,0.4c0,0.1-0.1,0.2-0.2,0.3l-0.2,0.1c-0.3,0.1-0.7,0.2-1.1,0.4
		C81.8,236.1,81.5,236,81.4,235.7z M78.2,229.3c0.2,0,0.6,0,1-0.1c0.1,0,0.1-0.1,0.1-0.2c0-0.1,0-0.2-0.1-0.3
		c-0.3-0.9-0.6-1.9-0.8-2.8l-0.3-1.1c0,0-0.1-0.1-0.1-0.1s-0.1,0-0.1,0.1l-0.2,0.4c-0.2,1.1-0.5,2.1-0.7,3.2c0,0.2-0.1,0.4-0.1,0.6
		c0,0.1,0.1,0.2,0.2,0.2H78.2z"/>
	<path class="st2" d="M86.6,235.6c-0.2-0.1-0.3-0.1-0.5-0.1c-0.3,0-0.6-0.1-0.7-0.4c-0.1-0.1-0.2-0.2-0.2-0.2
		c-0.1-0.1-0.1-0.1-0.1-0.2c-0.1-0.5-0.1-1-0.1-1.4c0-0.4,0-0.8-0.1-1.3c0-0.2,0-0.3,0-0.5c0-0.6,0-1.1,0.1-1.6c0-0.3,0-0.6,0-0.9
		c0-0.2,0-0.4,0-0.6c0-0.7,0.1-1.5,0.1-2.2c0-0.4,0.1-0.8,0-1.2c-0.1-0.2,0-0.4,0-0.6c0-0.5,0.1-0.9,0-1.4c0-0.2,0-0.4,0-0.6
		c0-0.3,0-0.6-0.1-0.9c0-0.1,0-0.2,0-0.2c0-0.5,0-0.9-0.1-1.3c0-0.1,0-0.2,0-0.3c0-0.2,0-0.3,0.1-0.5c0,0,0.1-0.1,0.1-0.1
		c0.2-0.5,0.5-0.7,1-0.9c0.7-0.3,1.3-0.3,2-0.3c0.3,0,0.5,0,0.7,0c0.2,0,0.4,0,0.5,0c0.5,0,0.9,0.2,1.4,0.4c1,0.5,1.7,1.2,2,2.2
		c0.1,0.4,0.2,0.8,0.2,1.2c0,0.5,0,1-0.2,1.5c-0.2,0.7-0.5,1.3-1,1.9c-0.1,0.2-0.3,0.4-0.5,0.6c-0.1,0.1-0.1,0.2,0,0.3
		c0.1,0.1,0.3,0.3,0.5,0.4c0.7,0.6,1.2,1.2,1.7,2c0.4,0.7,0.6,1.6,0.5,2.4c0,0.2,0,0.4,0,0.6c-0.1,0.9-0.4,1.7-1,2.4
		c-0.5,0.7-1.2,1.3-2,1.7c-0.3,0.2-0.6,0.3-1,0.3c-0.4,0.1-0.9,0.1-1.4,0.1C87.8,235.7,87.1,235.8,86.6,235.6z M90.4,232.9
		c0.2-0.2,0.3-0.3,0.4-0.4c0.4-0.4,0.6-0.9,0.7-1.5c0-0.2,0-0.3,0-0.5c0-0.2,0-0.5-0.1-0.7c-0.2-0.6-0.6-1.2-1.2-1.7
		c-0.3-0.2-0.6-0.4-0.8-0.6c-0.2-0.2-0.5-0.3-0.8-0.5c-0.2-0.1-0.5-0.2-0.8-0.3c-0.1,0-0.2,0-0.3,0c-0.1,0-0.2,0.1-0.2,0.2
		c-0.1,0.2-0.1,0.4-0.1,0.6c0,0.3-0.1,0.6,0,1c0.1,0.3,0.1,0.6,0,0.8c0,0.5,0,1-0.1,1.5c0,0.2,0,0.4,0,0.6c0,0.3,0,0.6,0,1
		c0,0.3,0,0.5,0,0.8c0,0.1,0.1,0.2,0.2,0.2l0.2,0.1c0.3,0,0.6,0.1,1,0.1C89.2,233.6,89.9,233.4,90.4,232.9z M87.8,224.5L87.8,224.5
		c0.3-0.1,0.6-0.1,0.8-0.2c0.2-0.1,0.3-0.1,0.4-0.2c0.5-0.3,0.8-0.7,1-1.2c0.2-0.5,0.3-0.9,0.3-1.4c0-0.3-0.1-0.7-0.3-1
		c-0.1-0.1-0.1-0.1-0.2-0.2c-0.4-0.3-0.8-0.3-1.3-0.5h-0.1c-0.3,0.2-0.7,0.1-1,0.1c-0.2,0.1-0.3,0.1-0.3,0.4c0,0.2,0,0.4,0,0.6
		c0.1,0.3,0.1,0.7,0.1,1c0,0.2,0,0.3,0,0.5c0.1,0.5,0.1,1,0.1,1.5c0,0.1,0,0.3,0,0.4c0,0.1,0.2,0.3,0.3,0.2
		C87.7,224.6,87.8,224.5,87.8,224.5z"/>
	<path class="st2" d="M100.1,235.9c-0.3-0.1-0.4-0.2-0.5-0.6c-0.1-0.9-0.1-1.9-0.1-2.8c0-1.3,0-2.6,0-3.9c0-0.5-0.1-0.9-0.3-1.3
		c-0.5-0.9-0.9-1.9-1.4-2.8c-0.3-0.7-0.7-1.3-1.1-2c-0.2-0.3-0.4-0.6-0.5-0.9c0-0.1-0.1-0.2-0.1-0.2c-0.1-0.1-0.2-0.2-0.3-0.3
		l-0.9-1.4c-0.2-0.3-0.2-0.6,0.1-1c0.2-0.3,0.4-0.5,0.7-0.7c0.1-0.1,0.2-0.1,0.3-0.2c0.1,0,0.2,0,0.2,0c0.2,0.1,0.4,0.3,0.5,0.6
		c0,0.1,0.1,0.2,0.2,0.3c0.2,0.1,0.3,0.3,0.5,0.5c0.5,0.8,1,1.6,1.5,2.4c0.6,0.9,1.1,1.8,1.5,2.8c0.1,0.1,0.1,0.3,0.1,0.4
		c0,0.1,0.1,0.2,0.1,0.2c0.1,0.1,0.3,0.1,0.3,0l0.1-0.2c0.3-0.8,0.7-1.6,1-2.4c0.4-1,0.8-2,1.2-3c0.1-0.3,0.3-0.6,0.4-0.9
		c0.1-0.1,0.2-0.2,0.3-0.2c0.3-0.1,0.7,0,1,0c0.1,0,0.1,0,0.2,0.1c0.6,0.2,0.8,0.5,0.5,1.1c-0.1,0.2-0.1,0.4-0.3,0.5
		c-0.1,0.1-0.1,0.2-0.1,0.3c0,0.2,0,0.3-0.1,0.4c-0.6,1.6-1.2,3.1-1.9,4.6c-0.3,0.8-0.7,1.7-1,2.5c-0.1,0.2-0.1,0.3-0.1,0.5
		c0,0.3,0,0.6,0,0.8c0,0.2,0,0.3,0,0.4c-0.1,0.7-0.1,1.3-0.1,2v3c0,0.2,0,0.4,0,0.6c0,0.2-0.1,0.3-0.3,0.4c-0.3,0.2-0.6,0.2-0.9,0.3
		C100.5,236,100.3,236,100.1,235.9z"/>
	<path class="st2" d="M114.8,236.1c-0.6-0.2-1.1-0.5-1.6-0.9c-0.2-0.1-0.3-0.3-0.5-0.5c-0.6-0.8-1-1.8-1.2-2.8c0-0.3,0-0.6,0-0.8
		c0.1-0.3,0.1-0.6,0.1-0.8c0-0.1,0.1-0.3,0.2-0.3c0.1-0.1,0.2-0.1,0.3-0.1c0.4,0,0.8,0,1.2-0.1c0,0,0.1,0,0.1,0
		c0.1,0,0.2,0.1,0.2,0.2c0.1,0.2,0.1,0.4,0.1,0.7c0,0.2,0,0.3,0,0.5c-0.1,0.8,0.2,1.6,0.7,2.2c0,0.1,0.1,0.1,0.1,0.1
		c0.6,0.4,1.2,0.7,1.9,0.5c0.3-0.1,0.5-0.1,0.7-0.2c0.3-0.2,0.6-0.4,0.8-0.8c0.1-0.3,0.2-0.6,0.2-0.8c0.1-0.7,0-1.4-0.2-2.1
		c-0.1-0.5-0.3-0.9-0.6-1.3c-0.4-0.7-1-1.3-1.6-2c-0.2-0.2-0.4-0.4-0.7-0.6c-0.3-0.3-0.5-0.5-0.8-0.8c-0.5-0.5-0.9-1.1-1.2-1.7
		c-0.2-0.3-0.2-0.7-0.4-1.1c0-0.1,0-0.1,0-0.2c-0.2-1.7,0.8-3.2,2.3-3.8c0.3-0.1,0.7-0.2,1.1-0.3c0.2,0,0.3,0,0.5-0.1h0.2
		c0.3,0.1,0.6,0.1,1,0.2c0.7,0.2,1.3,0.7,1.7,1.5c0.4,0.8,0.5,1.6,0.4,2.4c0,0.1-0.1,0.3-0.3,0.3c-0.4,0.2-0.7,0.3-1.2,0.2
		c-0.2,0-0.4-0.1-0.6-0.2c-0.1-0.1-0.2-0.2-0.2-0.3c0-0.4,0-0.7-0.1-1.1c0-0.1-0.1-0.2-0.1-0.3c-0.1-0.2-0.3-0.4-0.6-0.4
		c-0.5-0.1-1,0-1.5,0.3c-0.1,0.1-0.2,0.1-0.2,0.2c-0.1,0.1-0.1,0.1-0.1,0.2c-0.2,0.6-0.3,0.7,0.1,1.5c0.1,0.3,0.3,0.6,0.5,0.8
		c0.4,0.5,0.8,0.9,1.3,1.3c0.7,0.6,1.3,1.3,1.8,2c0.1,0.2,0.2,0.3,0.2,0.4c0.5,0.6,0.8,1.3,1,2.1c0.2,0.7,0.4,1.5,0.4,2.3
		c0,0.4-0.1,0.8-0.1,1.1c-0.1,0.8-0.4,1.5-0.9,2.2c-0.4,0.5-0.8,0.8-1.4,1c-0.4,0.2-1,0.3-1.4,0.4
		C116.1,236.3,115.5,236.3,114.8,236.1z"/>
	<path class="st2" d="M130,236c-0.2-0.1-0.3-0.1-0.5-0.2c-0.1-0.1-0.2-0.2-0.2-0.3c0-0.1,0-0.2,0-0.3V233c0-0.6,0-1.1,0-1.7
		c0-0.5,0-1.1,0-1.6c0-0.3,0-0.6,0.1-1c0-0.1,0-0.2,0-0.3c0-0.1-0.1-0.3-0.3-0.3h-0.4c-1.2,0-2.4,0-3.6,0h-0.2
		c-0.2,0-0.3,0.1-0.3,0.3v0.1c0,1.6-0.1,3.3,0,5c0,0.1,0,0.3,0.1,0.4c0.1,0.5,0.1,0.9,0,1.4c0,0.2-0.2,0.5-0.4,0.5
		c-0.5,0.1-1,0.1-1.5,0c-0.2-0.1-0.3-0.2-0.3-0.4c-0.1-0.4-0.1-0.7-0.1-1.1c0-2,0-4,0-6h0c0-1.8,0-3.5,0-5.3c0-0.5,0-1.8,0.1-2.3
		c0.1-0.5,0-0.9,0-1.4c0-0.3,0-0.5,0-0.8c0-0.2,0.1-0.3,0.2-0.3c0.2-0.1,0.4-0.1,0.7-0.2c0.1,0,0.2,0,0.3,0c0.2,0.1,0.5,0.1,0.7,0.2
		c0.2,0.1,0.3,0.2,0.3,0.4s0,0.4,0,0.6l0,5.8c0,0.2,0,0.3,0,0.5c0,0.2,0.1,0.3,0.4,0.4h0.3c0.7,0,1.5,0,2.2,0
		c0.5-0.1,1.1-0.1,1.6-0.1c0.1,0,0.2-0.1,0.2-0.2v-0.3c0-0.9,0-1.9,0-2.8c0-0.6-0.1-2,0.1-2.5c0-0.1,0-0.1,0-0.2
		c-0.1-0.4-0.1-0.8,0-1.2c0-0.2,0.2-0.3,0.4-0.3c0.4-0.1,0.8,0,1.3,0.1c0.6,0.2,0.6,0.3,0.6,0.8c0,1.7,0,4.2,0.1,5.9
		c0,0.4-0.1,0.8-0.1,1.2c0.1,0.4,0,0.8,0,1.2c0,0.4,0,0.8,0,1.2c0,0.2,0,0.4,0,0.5c-0.1,0.6-0.1,1.1-0.1,1.7v1.8c0,0.7,0,1.4,0,2.1
		c0,0.3,0,0.5-0.1,0.8c0,0.1-0.2,0.3-0.3,0.3C130.8,236.1,130.4,236.1,130,236z"/>
	<path class="st2" d="M135.6,234.4c-0.6-1-1-2-1.3-3.1c-0.2-0.7-0.4-1.4-0.5-2.1c0-0.2-0.1-0.3-0.1-0.5c0-0.3-0.1-0.5-0.1-0.8
		c-0.1-0.2-0.1-0.4-0.1-0.6c-0.1-1.1-0.1-2.3,0-3.4c0-0.2,0-0.3,0.1-0.5s0.1-0.4,0.1-0.6c0.1-1.1,0.5-2.1,1.1-3
		c0.6-1,1.5-1.6,2.7-1.9l0.4-0.1c0.7-0.1,1.3,0,2,0c0.3,0,0.6,0.1,0.9,0.2c0.4,0.2,0.7,0.5,1,0.9c0.2,0.3,0.3,0.5,0.4,0.8
		c0.3,0.8,0.6,1.6,0.8,2.5c0.1,0.5,0.3,1.5,0.3,1.9c0,0.4,0,0.8,0.1,1.2v0.8c0,0.7,0,1.5-0.1,2.2c0,0.2,0,0.3-0.1,0.5
		c-0.1,0.2-0.1,0.5-0.1,0.7c0,0.2,0,0.3-0.1,0.4c-0.1,0.2-0.1,0.5-0.1,0.7c0,0.5-0.2,1.9-0.4,2.3c-0.1,0.2-0.1,0.4-0.2,0.6
		c-0.3,0.8-0.8,1.5-1.6,2c-0.4,0.3-0.8,0.5-1.2,0.6c-0.5,0.1-1,0.1-1.5,0C137,236,136.2,235.4,135.6,234.4z M139.3,233.9
		c0.4-0.2,0.7-0.5,0.9-1c0.1-0.3,0.3-0.6,0.3-1c0.1-0.5,0.2-1,0.2-1.5c0-0.1,0-0.2,0.1-0.2c0.1-0.2,0.1-0.5,0.1-0.7
		c0-0.3,0-0.7,0.1-1c0.1-0.3,0.1-0.6,0.1-1c0-0.5,0-0.9,0.1-1.6c0-0.3,0-0.9-0.1-1.4c0-0.3-0.1-0.6-0.1-1c-0.1-0.6-0.2-1.2-0.4-1.9
		c-0.1-0.4-0.3-0.8-0.5-1.3c-0.1-0.2-0.2-0.3-0.4-0.3c-0.5-0.1-1.1-0.1-1.6,0c-0.3,0.1-0.6,0.2-0.8,0.3c-0.4,0.3-0.7,0.7-0.9,1.2
		c-0.1,0.2-0.2,0.5-0.2,0.7c-0.2,0.8-0.3,1.6-0.3,2.4c0,0.3,0,0.6,0,0.9c0,0.7,0,1.5,0.2,2.1c0,0.2,0,0.3,0,0.5c0,0.1,0,0.3,0.1,0.4
		c0.1,0.7,0.3,1.4,0.5,2.1c0.2,0.8,0.5,1.5,0.9,2.2c0.1,0.3,0.3,0.5,0.5,0.7c0.3,0.2,0.5,0.3,0.9,0.4
		C138.9,234,139.1,234,139.3,233.9z"/>
	<path class="st2" d="M145.7,235.8c-0.1-0.2-0.2-0.3-0.2-0.5v-1.8c0-0.2,0-0.3,0-0.5c-0.1-0.6-0.1-1.2-0.1-1.7c0-0.3,0-0.6-0.1-0.9
		c0-0.2,0-0.3,0-0.5v-1.3c0-0.2,0-0.4,0-0.6c-0.1-0.6-0.1-1.2-0.1-1.7c0-0.5,0-0.9-0.1-1.3c-0.1-0.2,0-0.4,0-0.6v-1.8
		c0-0.3,0-0.6,0-0.8c0-0.2,0-0.3,0-0.5c0-0.6,0-1.2,0.1-1.8c0-0.1,0-0.2,0-0.3c0-0.1,0.1-0.3,0.2-0.3c0.1-0.1,0.1-0.1,0.2-0.1
		c0.3-0.3,0.7-0.4,1.2-0.4c0.3,0,0.6,0,0.9-0.1c0.1-0.1,0.3,0,0.4,0h1c0.3,0,0.6,0,0.8,0c0.6,0,1.1,0.2,1.6,0.5
		c0.1,0.1,0.2,0.2,0.3,0.3c0,0.1,0.1,0.1,0.2,0.1c0.1,0,0.2,0.1,0.3,0.2c0.2,0.2,0.3,0.3,0.4,0.5c0.4,0.7,0.7,1.4,0.8,2.1
		c0.2,1.1,0.2,2.3,0.1,3.4c-0.2,1-0.6,1.9-1.3,2.6c-0.3,0.3-0.6,0.5-0.9,0.8c-0.1,0.1-0.2,0.1-0.3,0.2c-0.5,0.3-1.1,0.6-1.7,0.7
		c-0.2,0.1-0.5,0.1-0.7,0.1c-0.3,0-0.7,0.1-1,0.1c-0.1,0-0.2,0.1-0.2,0.2c-0.1,0.6-0.1,1.3,0,1.9c0,0.4,0.1,0.9,0.1,1.3v2.1
		c0,0.2-0.1,0.3-0.3,0.4c-0.1,0-0.2,0.1-0.2,0.1c-0.3,0-0.7,0.1-1,0.2H146C145.9,236,145.8,235.9,145.7,235.8z M148.9,227.4
		c1-0.2,1.6-0.8,2.2-1.5c0.1-0.1,0.1-0.2,0.2-0.3c0.2-0.4,0.3-0.8,0.3-1.2c0-0.2,0-0.5,0-0.7c0-0.7-0.1-1.3-0.3-1.9
		c0-0.2-0.1-0.3-0.2-0.5c-0.2-0.3-0.4-0.6-0.8-0.7c-0.2-0.1-0.4-0.2-0.7-0.2c-0.4,0-0.7,0-1.1,0c-0.3,0-0.5,0.1-0.8,0.1
		c-0.1,0-0.2,0.1-0.2,0.2c0,0.6,0,1.1-0.1,1.8c0,0.3,0,0.8,0,1.3c0,0.2,0,0.4,0,0.6c0.1,0.5,0.1,1,0.1,1.5v0.9
		c0,0.2,0.1,0.3,0.1,0.5c0,0.1,0.1,0.2,0.3,0.2C148.2,227.5,148.6,227.5,148.9,227.4z"/>
	<path class="st2" d="M156,235.8c-0.1-0.2-0.2-0.3-0.2-0.5v-1.8c0-0.2,0-0.3,0-0.5c-0.1-0.6-0.1-1.2-0.1-1.7c0-0.3,0-0.6-0.1-0.9
		c0-0.2,0-0.3,0-0.5v-1.3c0-0.2,0-0.4,0-0.6c-0.1-0.6-0.1-1.2-0.1-1.7c0-0.5,0-0.9-0.1-1.3c-0.1-0.2,0-0.4,0-0.6v-1.8
		c0-0.3,0-0.6,0-0.8c0-0.2,0-0.3,0-0.5c0-0.6,0-1.2,0.1-1.8c0-0.1,0-0.2,0-0.3c0-0.1,0.1-0.3,0.2-0.3c0.1-0.1,0.1-0.1,0.2-0.1
		c0.3-0.3,0.7-0.4,1.2-0.4c0.3,0,0.6,0,0.9-0.1c0.1-0.1,0.3,0,0.4,0h1c0.3,0,0.6,0,0.8,0c0.6,0,1.1,0.2,1.6,0.5
		c0.1,0.1,0.2,0.2,0.3,0.3c0,0.1,0.1,0.1,0.2,0.1c0.1,0,0.2,0.1,0.3,0.2c0.2,0.2,0.3,0.3,0.4,0.5c0.4,0.7,0.7,1.4,0.8,2.1
		c0.2,1.1,0.2,2.3,0.1,3.4c-0.2,1-0.6,1.9-1.3,2.6c-0.3,0.3-0.6,0.5-0.9,0.8c-0.1,0.1-0.2,0.1-0.3,0.2c-0.5,0.3-1.1,0.6-1.7,0.7
		c-0.2,0.1-0.5,0.1-0.7,0.1c-0.3,0-0.7,0.1-1,0.1c-0.1,0-0.2,0.1-0.2,0.2c-0.1,0.6-0.1,1.3,0,1.9c0,0.4,0.1,0.9,0.1,1.3v2.1
		c0,0.2-0.1,0.3-0.3,0.4c-0.1,0-0.2,0.1-0.2,0.1c-0.3,0-0.7,0.1-1,0.2h-0.3C156.2,236,156.1,235.9,156,235.8z M159.2,227.4
		c1-0.2,1.6-0.8,2.2-1.5c0.1-0.1,0.1-0.2,0.2-0.3c0.2-0.4,0.3-0.8,0.3-1.2c0-0.2,0-0.5,0-0.7c0-0.7-0.1-1.3-0.3-1.9
		c0-0.2-0.1-0.3-0.2-0.5c-0.2-0.3-0.4-0.6-0.8-0.7c-0.2-0.1-0.4-0.2-0.7-0.2c-0.4,0-0.7,0-1.1,0c-0.3,0-0.5,0.1-0.8,0.1
		c-0.1,0-0.2,0.1-0.2,0.2c0,0.6,0,1.1-0.1,1.8c0,0.3,0,0.8,0,1.3c0,0.2,0,0.4,0,0.6c0.1,0.5,0.1,1,0.1,1.5v0.9
		c0,0.2,0.1,0.3,0.1,0.5c0,0.1,0.1,0.2,0.3,0.2C158.5,227.5,158.9,227.5,159.2,227.4z"/>
	<path class="st2" d="M166.8,236c-0.2,0-0.3-0.1-0.5-0.2c-0.1-0.1-0.2-0.2-0.2-0.3c0-0.1,0-0.2,0-0.3c0-0.4,0-0.8-0.1-1.2
		c0-0.2,0-0.3,0-0.5c0-1,0-1.9,0-2.9c0-0.9,0-1.9,0-2.8c0-0.4,0-0.7-0.1-1.1c-0.1-0.2,0-0.5,0-0.7c0-1.8,0-4.4-0.1-6.3v-1
		c0-0.1,0.1-0.2,0.2-0.3c0.1-0.1,0.2-0.1,0.4-0.2c0.4-0.1,0.8-0.1,1.2,0c0.2,0.1,0.4,0.3,0.4,0.6c0,0.2,0,0.3,0,0.5v3.3h0v2.3
		c0,0.4,0,0.7,0.1,1.1c0,0.2,0,0.4,0,0.6c0,1.8,0,3.6,0,5.5c0,0.5,0.1,1,0.1,1.6c0.1,0.6,0.1,1.3,0,1.9c0,0,0,0.1,0,0.1
		c0,0.1-0.2,0.2-0.2,0.2C167.7,236.1,167.2,236.1,166.8,236z"/>
	<path class="st2" d="M178.5,235.6l-0.5-1c-0.5-1-0.9-2-1.3-2.9l-0.1-0.2c-0.8-1.8-1.7-4.1-2.5-5.8c-0.4-0.8-0.6-1.6-1-2.4
		c0-0.1-0.1-0.1-0.1-0.1c0,0-0.1,0.1-0.1,0.1c0,0.8,0.1,1.6,0.1,2.3c0,0.6,0.1,1.1,0,1.6c-0.1,0.3-0.1,1-0.1,1.3v3.6
		c0,0.2,0,0.5,0,0.7c0,0.2,0,0.3,0.1,0.5c0,0.1,0.1,0.2,0.1,0.3v1.5c0,0.2-0.1,0.3-0.2,0.4c-0.2,0.1-0.3,0.2-0.6,0.2h-1
		c-0.1,0-0.3-0.1-0.4-0.2c-0.1-0.1-0.2-0.2-0.2-0.4c0-0.2,0-0.4,0-0.6v-5.9c0,0,0,0,0,0l-0.1-6.3c0-0.4,0-0.7-0.1-1.1
		c-0.1-0.7-0.1-1.4-0.1-2.1c0-0.1,0-0.1,0-0.2c0-0.2,0.1-0.3,0.3-0.4c0.1-0.1,0.2-0.1,0.3-0.1c0.3,0,0.6-0.1,0.8-0.2
		c0.1,0,0.2,0,0.3,0c0.1,0,0.3,0,0.4,0.1c0.3,0.4,0.5,0.8,0.8,1.3c0.4,0.7,0.7,1.5,1.1,2.2c0.2,0.5,0.3,1,0.5,1.4
		c0.2,0.5,0.4,0.9,0.6,1.4c0.6,1.2,1.3,3,1.8,4.2c0.3,0.6,0.5,1.2,0.8,1.7c0,0.1,0.1,0.1,0.2,0.2l0.1,0c0.1-0.3,0-0.6,0-1
		c-0.1-0.3-0.1-0.7-0.1-1l-0.1-6.5c0-0.3,0-1.4-0.1-1.7c-0.1-0.7-0.1-1.3-0.1-2c0-0.1,0.1-0.2,0.2-0.3c0.3-0.1,0.7-0.2,1.1-0.2
		c0.2,0,0.4,0.1,0.6,0.2c0.2,0.1,0.3,0.2,0.3,0.5c0,0.4,0.1,0.7,0.1,1c0.1,0.4,0.1,0.9,0.1,1.3l0.1,5.2c0,0.1,0,0.2,0,0.3
		c0.1,0.6,0.1,1.2,0.1,1.8c0,1.1,0,2.3,0.1,3.4c0,0.3,0,0.7,0.1,1c0,0.2,0,0.3,0,0.5c0,0.6,0,1.3,0,1.9c0,0.2-0.1,0.4-0.2,0.6
		c-0.1,0.1-0.2,0.2-0.3,0.2c-0.1,0-0.1,0-0.2,0c-0.2,0-0.4-0.1-0.6-0.1c-0.2,0-0.3,0.1-0.5,0.1C178.9,236.1,178.6,236,178.5,235.6z"
		/>
	<path class="st2" d="M187.2,235.8c-0.8-0.3-1.6-0.8-2.2-1.4c-0.7-0.6-1.1-1.4-1.4-2.3c-0.2-0.7-0.4-1.4-0.5-2.1
		c-0.2-0.7-0.1-1.5-0.3-2.2c0-0.1,0-0.1,0-0.2c0.1-0.3,0.1-0.6,0.1-1c0-1.2,0.3-2.3,0.6-3.5c0.2-0.6,0.4-1.1,0.6-1.7
		c0.3-0.9,0.8-1.7,1.6-2.4c0.5-0.5,1-0.8,1.6-1c0.2-0.1,0.4-0.1,0.6-0.1c0.4,0,0.7,0,1.1,0c0.8,0.1,1.5,0.4,2.1,1
		c0.4,0.4,0.6,0.9,0.6,1.5c0,0.2,0,0.4,0,0.6c0,0.4-0.1,0.8-0.2,1.3c-0.1,0.3-0.3,0.5-0.7,0.5h-0.2c-0.2-0.1-0.5-0.1-0.8-0.1
		c-0.2,0-0.3-0.1-0.5-0.2c-0.1-0.1-0.2-0.2-0.2-0.3c0-0.2,0-0.4,0.1-0.6c0.1-0.3,0.1-0.6,0.1-0.9c0-0.2-0.1-0.3-0.2-0.3
		c-0.2-0.1-0.3-0.1-0.5-0.1c-0.1,0-0.2,0-0.3,0c-0.4,0-0.7,0.1-0.9,0.3c-0.5,0.4-0.9,0.9-1.1,1.5c-0.4,1.1-0.8,2.1-1,3.3
		c-0.2,0.7-0.2,1.4-0.2,2.4c0,0.3,0,0.7,0.1,1.2c0.1,0.7,0.2,1.4,0.4,2c0.1,0.5,0.3,0.8,0.6,1.2c0.1,0.1,0.2,0.2,0.3,0.3
		c0.5,0.5,1.1,0.9,1.8,1.1c0.3,0.1,0.5,0.1,0.8,0c0.3-0.1,0.5-0.3,0.6-0.6c0.2-0.6,0.4-1.1,0.4-1.7c0-0.4,0-0.8,0.1-1.2
		c0-0.1-0.1-0.2-0.2-0.2h-0.6c-0.3,0-0.6,0-0.9,0c-0.3,0.1-0.5-0.1-0.7-0.4c-0.1-0.2-0.2-0.4-0.3-0.6c-0.1-0.2-0.1-0.5-0.1-0.7
		c0-0.2,0.1-0.3,0.2-0.3c0.2-0.1,0.4-0.2,0.7-0.2c0.1,0,0.3,0,0.4,0c0.7,0,1.5-0.1,2.2-0.2c0.1,0,0.2,0,0.3-0.1
		c0.2-0.1,0.3,0,0.4,0.1c0.1,0.1,0.2,0.1,0.2,0.2c0.1,0.1,0.1,0.2,0.2,0.3c0.2,0.3,0.3,0.6,0.3,1c0,0.4,0,0.8,0,1.3
		c0,0.1,0,0.2,0,0.2c-0.1,0.3-0.1,0.6-0.1,1c0,0.9-0.3,2.2-0.8,3c-0.1,0.2-0.2,0.3-0.3,0.5c-0.3,0.4-0.7,0.6-1.1,0.8
		c-0.6,0.2-1.1,0.3-1.7,0.2C187.9,236,187.6,235.9,187.2,235.8z"/>
	<path class="st2" d="M194.6,236.9c-0.1-0.1-0.2-0.1-0.3-0.2c-0.2-0.2-0.3-0.4-0.4-0.6c0-0.1,0-0.2,0-0.3c0.1-0.7,0.8-1.2,1.5-1
		c0.1,0,0.2,0.1,0.3,0.2c0.1,0.2,0.2,0.4,0.3,0.6c0.1,0.2,0.1,0.5,0.1,0.8c0,0,0,0.1,0,0.1c0,0.7-0.3,1.2-0.7,1.8
		c-0.1,0.2-0.3,0.2-0.5,0.1c-0.2-0.1-0.4-0.3-0.5-0.5C194.3,237.5,194.6,237.3,194.6,236.9z"/>
	<path class="st2" d="M204.7,236c-0.1-0.2-0.3-0.3-0.4-0.3c-0.1,0-0.2-0.1-0.3-0.1c-0.1,0-0.2-0.1-0.2-0.2c-0.1-0.2-0.1-0.5-0.1-0.7
		c0-0.4,0-0.8,0-1.2c0-1,0-1.9,0-2.9c0-0.2,0-0.5,0.1-0.8c0-0.1,0-0.2,0-0.3c0-1.5,0-3,0-4.5c0-0.1,0-0.2,0-0.3
		c-0.1-0.5-0.1-1-0.1-1.5c0-1,0-1.9,0-2.9c0-0.2,0-0.3,0-0.5c0-0.2,0.2-0.4,0.2-0.7c0-0.2,0-0.4,0-0.6c0-0.2,0.2-0.3,0.3-0.3
		c0.2,0,0.4-0.1,0.6-0.1c0.5,0,1,0,1.5-0.1c0.1,0,0.2,0,0.3,0c1.2,0,2.3-0.1,3.5-0.1c0.2,0,0.3,0,0.5,0c0.1,0,0.2,0.1,0.3,0.2
		c0.1,0.1,0.1,0.2,0.1,0.3c0,0.3,0.1,0.7,0.2,1c0,0.1,0,0.2,0,0.3c0,0.1-0.1,0.1-0.1,0.2c-0.5,0.2-1,0.3-1.6,0.1
		c-0.1-0.1-0.2,0-0.3,0c-0.2,0.1-0.3,0.1-0.5,0.1c-0.6,0-1.2,0-1.7,0c-0.3,0-0.6,0.1-0.8,0.1c-0.1,0-0.2,0.2-0.2,0.3
		c0,0.9,0,1.8,0,2.7c0,0.5,0.1,0.9,0.1,1.3c0,0.1,0.1,0.1,0.1,0.1l0.3,0c0.6,0,1.1-0.1,1.6-0.1h0.5c0.2,0,0.3,0.1,0.3,0.3
		c0.2,0.4,0.3,0.8,0.2,1.2c0,0.1-0.1,0.2-0.1,0.3c-0.1,0.2-0.2,0.3-0.4,0.3c-0.2,0-0.3,0.1-0.4,0.1c-0.6,0-1.1,0.1-1.6,0.1l-0.3,0.1
		c-0.1,0-0.2,0.2-0.2,0.2c0,0.2,0,0.4,0,0.6c0,0.7,0,1.4-0.1,2.2c0,0.4,0.1,0.7,0,1.1s0,0.7,0,1.1c0,0.4,0,0.8,0,1.1
		c0,0.1,0,0.2,0,0.3c0,0.1,0.1,0.2,0.3,0.2h0.1c0.8,0,1.6-0.1,2.4-0.1c0.3,0,0.6,0,0.9-0.1c0.3-0.1,0.6,0,0.8,0.1
		c0.1,0.1,0.2,0.1,0.2,0.2c0.1,0.5,0.1,1-0.1,1.5c-0.1,0.2-0.2,0.4-0.4,0.4c-0.2,0-0.3,0.1-0.5,0.1c-0.7,0-1.4,0-2.1,0.1
		c-0.2,0-0.5,0-0.7-0.1c-0.3,0.2-0.7,0.3-1.1,0.3c-0.2,0-0.3,0-0.5,0C205,236.3,204.8,236.2,204.7,236z"/>
	<path class="st2" d="M215.3,235.8c-0.1,0-0.1-0.1-0.1-0.1c-0.1-0.4-0.2-0.8-0.2-1.3v-1.8c0-3.4,0-7.6,0-10.9v-0.3
		c0-0.8,0-0.8-0.8-0.8c-0.2,0-0.4,0.1-0.6,0.1c-0.2,0-0.4,0-0.6,0.1c-0.3,0.1-0.6-0.1-0.9-0.2c0,0-0.1-0.1-0.1-0.2
		c0-0.2,0-0.3,0-0.5c0-0.4,0.2-0.7,0.3-1.1c0.1-0.2,0.2-0.3,0.4-0.3c0.6-0.1,1.1-0.2,1.7-0.2c0.6-0.1,1.1-0.1,1.7-0.2
		c0.9-0.1,1.8-0.1,2.7-0.2c0.4,0,0.9,0,1.3-0.1c0.1,0,0.2,0,0.3,0c0.2,0,0.3,0.1,0.3,0.2c0.1,0.2,0.2,0.3,0.2,0.6
		c0,0.2,0,0.4,0.1,0.6l-0.1,0.6c0,0.1-0.1,0.2-0.2,0.2c-0.2,0.1-0.5,0.1-0.8,0.1c-0.4,0-0.9,0-1.4,0c-0.3,0-0.7,0-1,0.1
		c-0.1,0-0.2,0.1-0.2,0.2c0,0.4-0.1,0.8-0.1,1.3c0,3.6,0,8,0,11.5c0,0.3,0,0.7,0.1,1c0.1,0.3,0,0.6,0,1c0,0.2-0.1,0.3-0.3,0.4
		c-0.4,0.2-0.9,0.3-1.4,0.2C215.6,236,215.4,235.9,215.3,235.8z"/>
	<path class="st2" d="M226.3,236.2c-0.1,0-0.2,0-0.2-0.1c-0.5-0.2-1-0.4-1.4-0.7c-0.5-0.5-1-1.1-1.3-1.7c-0.5-0.9-0.9-1.9-1.2-3
		c-0.1-0.6-0.2-1.3-0.2-2c0-1-0.1-1.5-0.1-2.5c0-0.2,0.1-1,0.1-1.2c0-0.9,0.2-1.9,0.4-2.8l0.4-1.2c0.3-0.8,0.7-1.5,1.2-2.1
		c0.1-0.1,0.2-0.2,0.3-0.3c0.3-0.2,0.6-0.5,0.9-0.6c0.4-0.2,0.7-0.3,1.2-0.3c0.3,0,0.6,0,0.8,0c0.6,0,1.1,0.2,1.6,0.6
		c0.5,0.3,0.8,0.8,0.9,1.3c0.1,0.4,0.2,0.7,0.2,1.1c0,0.5,0,1,0,1.6c0,0.3-0.2,0.4-0.4,0.5c-0.1,0-0.1,0-0.2,0c-0.3,0.1-0.7,0.1-1,0
		c-0.2,0-0.3-0.1-0.4-0.2c-0.1-0.1-0.2-0.2-0.2-0.4c0-0.2,0-0.4,0-0.6c0-0.3,0-0.6-0.1-1c0-0.3-0.3-0.6-0.7-0.7c-0.1,0-0.2,0-0.3,0
		c-0.3-0.1-0.6,0.1-0.9,0.3c-0.3,0.2-0.6,0.5-0.7,0.8c-0.1,0.2-0.2,0.3-0.3,0.5c-0.3,0.7-0.5,1.5-0.7,2.3c-0.2,0.9-0.2,1.8-0.2,2.7
		c0,0.4,0,1.4,0.1,2.7c0.1,0.5,0.1,1,0.2,1.4c0.2,0.8,0.6,1.6,1.1,2.4c0.2,0.3,0.5,0.6,0.8,0.8c0.2,0.1,0.9,0.1,1.1,0.1
		c0.1,0,0.2-0.1,0.3-0.1c0.3-0.2,0.5-0.6,0.5-1c0-0.3,0-0.7,0-1.1c0-0.2,0.1-0.4,0.3-0.5c0.2-0.1,0.4-0.2,0.6-0.2c0.3,0,0.6,0,0.9,0
		c0.2,0,0.4,0.2,0.4,0.4c0.1,0.6,0.1,1.2,0,1.8c0,0.3-0.1,0.6-0.3,0.9c-0.2,0.3-0.4,0.7-0.6,0.9c-0.1,0.1-0.2,0.2-0.4,0.2
		c-0.1,0-0.2,0.1-0.2,0.2c-0.1,0.2-0.2,0.3-0.3,0.4c-0.2,0.1-0.5,0.2-0.7,0.2C227.6,236.3,226.7,236.3,226.3,236.2z"/>
	<path class="st2" d="M233.1,236.4c-0.5,0-0.8-0.3-1-0.8c0-0.1,0-0.2,0-0.3c0.1-0.2,0.1-0.4,0.3-0.6c0.1-0.2,0.3-0.3,0.6-0.3
		c0.1,0,0.1,0,0.2,0c0.3,0.1,0.6,0.3,0.8,0.5c0.2,0.2,0.3,0.7,0.1,1C233.8,236.2,233.6,236.4,233.1,236.4L233.1,236.4z"/>
</g>
<g class="st1">
	<path class="st2" d="M22.5,187.1c-0.6,0-1.5,0-1.9,0c-0.4,0-1.3,0-1.6,0c-0.3,0,0.1-0.5,0.1-0.7c0-0.4,0-0.9,0.3-1.2
		c0.2-0.3,0.4-0.5,0.6-0.8c0.3-0.2,0.5-0.4,0.9-0.4c0.6-0.1,1.2,0,1.8,0.3c0.1,0,0.2,0.1,0.3,0.2c0.2,0.2,0.4,0.4,0.6,0.7
		c0,0.1,0.1,0.1,0.2,0.2c0,0,0.2,0,0.2,0c0.1-0.1,0.1-0.2,0.2-0.4c0.1-0.3,0.3-0.5,0.5-0.7c0.4-0.5,0.9-0.7,1.6-0.8
		c0.3,0,0.6,0,0.9,0.1c0.4,0.2,0.8,0.5,1,0.9c0.1,0.2,0.2,0.3,0.3,0.5c0.1,0.1,0.2,0.1,0.3,0l0.1-0.1c0.3-0.5,0.8-0.9,1.3-1.2
		c0.7-0.4,1.4-0.6,2.2-0.5c0.8,0,1.3,0.4,1.7,1.1c0.1,0.2,0.1,0.4,0.2,0.6c0,0.1,0.2,0.1,0.3,0c0.1-0.1,0.1-0.1,0.2-0.3l0.2-0.3
		c0.6-0.8,1.5-1,2.5-0.9c0.5,0.1,0.8,0.3,1.1,0.7c0.2,0.3,0.3,0.5,0.5,0.8c0.1,0.1,0.1,0.2,0.2,0.3c0,0.1,0.3,0.1,0.3,0.1
		c0.1,0,0.1-0.1,0.2-0.1c0.3-0.2,0.5-0.4,0.7-0.6c0.4-0.3,0.8-0.5,1.3-0.5c0.4,0,0.9-0.1,1.3,0c0.4,0.1,0.8,0.2,1.1,0.5
		c0.2,0.2,0.3,0.4,0.5,0.5c0.1,0.1,0.2,0.2,0.3,0.3s0.2-0.1,0.4-0.2c0.1-0.1,0.2-0.1,0.2-0.3c0.3-0.3,0.6-0.6,0.9-0.8
		c0.5-0.3,1.1-0.6,1.7-0.6c0.1,0,0.3,0,0.4,0c0.5,0,0.9,0.1,1.2,0.5c0.3,0.3,0.5,0.7,0.7,1.1c0.1,0.2,0.1,0.3,0.2,0.4
		c0,0.1,0.2,0.1,0.2,0c0.1,0,0.2-0.1,0.3-0.1c0.3-0.2,0.5-0.3,0.8-0.5c0.6-0.3,1.2-0.5,1.8-0.5c0.5-0.1,0.9,0,1.2,0.3
		c0.2,0.1,0.3,0.2,0.5,0.3c0.2,0.1,0.4,0.3,0.5,0.5c0.1,0.3,0.4,0.5,0.5,0.7c0,0.3,0.1,0.9-0.1,0.9s-1,0-1.2,0c-0.1,0-0.4,0-0.5,0
		h-1.4c-1,0-1.9,0-2.9-0.1c-0.9,0-1.9,0-2.8,0h0c-1-0.1-1.9,0-2.9,0.1c-0.1,0-0.3,0-0.4,0H44c-0.6-0.1-1.2-0.1-2.4,0
		c-2.3,0-6,0.1-9.4,0c-0.3,0-0.5,0-0.7,0h-2.3c-0.6,0-1.3,0-1.9,0C25.7,187.2,24.1,187.1,22.5,187.1z"/>
	<path class="st2" d="M59.6,187.1c-0.6,0-1.5,0-1.9,0c-0.4,0-1.3,0-1.6,0c-0.3,0,0.1-0.5,0.1-0.7c0-0.4,0-0.9,0.3-1.2
		c0.2-0.3,0.4-0.5,0.6-0.8c0.3-0.2,0.5-0.4,0.9-0.4c0.6-0.1,1.2,0,1.8,0.3c0.1,0,0.2,0.1,0.3,0.2c0.2,0.2,0.4,0.4,0.6,0.7
		c0,0.1,0.1,0.1,0.2,0.2c0,0,0.2,0,0.2,0c0.1-0.1,0.1-0.2,0.2-0.4c0.1-0.3,0.3-0.5,0.5-0.7c0.4-0.5,0.9-0.7,1.6-0.8
		c0.3,0,0.6,0,0.9,0.1c0.4,0.2,0.8,0.5,1,0.9c0.1,0.2,0.2,0.3,0.3,0.5c0.1,0.1,0.2,0.1,0.3,0l0.1-0.1c0.3-0.5,0.8-0.9,1.3-1.2
		c0.7-0.4,1.4-0.6,2.2-0.5c0.8,0,1.3,0.4,1.7,1.1c0.1,0.2,0.1,0.4,0.2,0.6c0,0.1,0.2,0.1,0.3,0c0.1-0.1,0.1-0.1,0.2-0.3l0.2-0.3
		c0.6-0.8,1.5-1,2.5-0.9c0.5,0.1,0.8,0.3,1.1,0.7c0.2,0.3,0.3,0.5,0.5,0.8c0.1,0.1,0.1,0.2,0.2,0.3c0,0.1,0.3,0.1,0.3,0.1
		c0.1,0,0.1-0.1,0.2-0.1c0.3-0.2,0.5-0.4,0.7-0.6c0.4-0.3,0.8-0.5,1.3-0.5c0.4,0,0.9-0.1,1.3,0c0.4,0.1,0.8,0.2,1.1,0.5
		c0.2,0.2,0.3,0.4,0.5,0.5c0.1,0.1,0.2,0.2,0.3,0.3s0.2-0.1,0.4-0.2c0.1-0.1,0.2-0.1,0.2-0.3c0.3-0.3,0.6-0.6,0.9-0.8
		c0.5-0.3,1.1-0.6,1.7-0.6c0.1,0,0.3,0,0.4,0c0.5,0,0.9,0.1,1.2,0.5c0.3,0.3,0.5,0.7,0.7,1.1c0.1,0.2,0.1,0.3,0.2,0.4
		c0,0.1,0.2,0.1,0.2,0c0.1,0,0.2-0.1,0.3-0.1c0.3-0.2,0.5-0.3,0.8-0.5c0.6-0.3,1.2-0.5,1.8-0.5c0.5-0.1,0.9,0,1.2,0.3
		c0.2,0.1,0.3,0.2,0.5,0.3c0.2,0.1,0.4,0.3,0.5,0.5c0.1,0.3,0.4,0.5,0.5,0.7c0,0.3,0.1,0.9-0.1,0.9s-1,0-1.2,0c-0.1,0-0.4,0-0.5,0
		h-1.4c-1,0-1.9,0-2.9-0.1c-0.9,0-1.9,0-2.8,0h0c-1-0.1-1.9,0-2.9,0.1c-0.1,0-0.3,0-0.4,0H81c-0.6-0.1-1.2-0.1-2.4,0
		c-2.3,0-6,0.1-9.4,0c-0.3,0-0.5,0-0.7,0h-2.3c-0.6,0-1.3,0-1.9,0C62.8,187.2,61.2,187.1,59.6,187.1z"/>
	<path class="st2" d="M96.6,187.1c-0.6,0-1.5,0-1.9,0c-0.4,0-1.3,0-1.6,0c-0.3,0,0.1-0.5,0.1-0.7c0-0.4,0-0.9,0.3-1.2
		c0.2-0.3,0.4-0.5,0.6-0.8c0.3-0.2,0.5-0.4,0.9-0.4c0.6-0.1,1.2,0,1.8,0.3c0.1,0,0.2,0.1,0.3,0.2c0.2,0.2,0.4,0.4,0.6,0.7
		c0,0.1,0.1,0.1,0.2,0.2c0,0,0.2,0,0.2,0c0.1-0.1,0.1-0.2,0.2-0.4c0.1-0.3,0.3-0.5,0.5-0.7c0.4-0.5,0.9-0.7,1.6-0.8
		c0.3,0,0.6,0,0.9,0.1c0.4,0.2,0.8,0.5,1,0.9c0.1,0.2,0.2,0.3,0.3,0.5c0.1,0.1,0.2,0.1,0.3,0l0.1-0.1c0.3-0.5,0.8-0.9,1.3-1.2
		c0.7-0.4,1.4-0.6,2.2-0.5c0.8,0,1.3,0.4,1.7,1.1c0.1,0.2,0.1,0.4,0.2,0.6c0,0.1,0.2,0.1,0.3,0c0.1-0.1,0.1-0.1,0.2-0.3l0.2-0.3
		c0.6-0.8,1.5-1,2.5-0.9c0.5,0.1,0.8,0.3,1.1,0.7c0.2,0.3,0.3,0.5,0.5,0.8c0.1,0.1,0.1,0.2,0.2,0.3c0,0.1,0.3,0.1,0.3,0.1
		c0.1,0,0.1-0.1,0.2-0.1c0.3-0.2,0.5-0.4,0.7-0.6c0.4-0.3,0.8-0.5,1.3-0.5c0.4,0,0.9-0.1,1.3,0c0.4,0.1,0.8,0.2,1.1,0.5
		c0.2,0.2,0.3,0.4,0.5,0.5c0.1,0.1,0.2,0.2,0.3,0.3s0.2-0.1,0.4-0.2c0.1-0.1,0.2-0.1,0.2-0.3c0.3-0.3,0.6-0.6,0.9-0.8
		c0.5-0.3,1.1-0.6,1.7-0.6c0.1,0,0.3,0,0.4,0c0.5,0,0.9,0.1,1.2,0.5c0.3,0.3,0.5,0.7,0.7,1.1c0.1,0.2,0.1,0.3,0.2,0.4
		c0,0.1,0.2,0.1,0.2,0c0.1,0,0.2-0.1,0.3-0.1c0.3-0.2,0.5-0.3,0.8-0.5c0.6-0.3,1.2-0.5,1.8-0.5c0.5-0.1,0.9,0,1.2,0.3
		c0.2,0.1,0.3,0.2,0.5,0.3c0.2,0.1,0.4,0.3,0.5,0.5c0.1,0.3,0.4,0.5,0.5,0.7c0,0.3,0.1,0.9-0.1,0.9s-1,0-1.2,0c-0.1,0-0.4,0-0.5,0
		h-1.4c-1,0-1.9,0-2.9-0.1c-0.9,0-1.9,0-2.8,0h0c-1-0.1-1.9,0-2.9,0.1c-0.1,0-0.3,0-0.4,0h-0.4c-0.6-0.1-1.2-0.1-2.4,0
		c-2.3,0-6,0.1-9.4,0c-0.3,0-0.5,0-0.7,0h-2.3c-0.6,0-1.3,0-1.9,0C99.8,187.2,98.2,187.1,96.6,187.1z"/>
	<path class="st2" d="M133.7,187.1c-0.6,0-1.5,0-1.9,0c-0.4,0-1.3,0-1.6,0c-0.3,0,0.1-0.5,0.1-0.7c0-0.4,0-0.9,0.3-1.2
		c0.2-0.3,0.4-0.5,0.6-0.8c0.3-0.2,0.5-0.4,0.9-0.4c0.6-0.1,1.2,0,1.8,0.3c0.1,0,0.2,0.1,0.3,0.2c0.2,0.2,0.4,0.4,0.6,0.7
		c0,0.1,0.1,0.1,0.2,0.2c0,0,0.2,0,0.2,0c0.1-0.1,0.1-0.2,0.2-0.4c0.1-0.3,0.3-0.5,0.5-0.7c0.4-0.5,0.9-0.7,1.6-0.8
		c0.3,0,0.6,0,0.9,0.1c0.4,0.2,0.8,0.5,1,0.9c0.1,0.2,0.2,0.3,0.3,0.5c0.1,0.1,0.2,0.1,0.3,0l0.1-0.1c0.3-0.5,0.8-0.9,1.3-1.2
		c0.7-0.4,1.4-0.6,2.2-0.5c0.8,0,1.3,0.4,1.7,1.1c0.1,0.2,0.1,0.4,0.2,0.6c0,0.1,0.2,0.1,0.3,0c0.1-0.1,0.1-0.1,0.2-0.3l0.2-0.3
		c0.6-0.8,1.5-1,2.5-0.9c0.5,0.1,0.8,0.3,1.1,0.7c0.2,0.3,0.3,0.5,0.5,0.8c0.1,0.1,0.1,0.2,0.2,0.3c0,0.1,0.3,0.1,0.3,0.1
		c0.1,0,0.1-0.1,0.2-0.1c0.3-0.2,0.5-0.4,0.7-0.6c0.4-0.3,0.8-0.5,1.3-0.5c0.4,0,0.9-0.1,1.3,0c0.4,0.1,0.8,0.2,1.1,0.5
		c0.2,0.2,0.3,0.4,0.5,0.5c0.1,0.1,0.2,0.2,0.3,0.3s0.2-0.1,0.4-0.2c0.1-0.1,0.2-0.1,0.2-0.3c0.3-0.3,0.6-0.6,0.9-0.8
		c0.5-0.3,1.1-0.6,1.7-0.6c0.1,0,0.3,0,0.4,0c0.5,0,0.9,0.1,1.2,0.5c0.3,0.3,0.5,0.7,0.7,1.1c0.1,0.2,0.1,0.3,0.2,0.4
		c0,0.1,0.2,0.1,0.2,0c0.1,0,0.2-0.1,0.3-0.1c0.3-0.2,0.5-0.3,0.8-0.5c0.6-0.3,1.2-0.5,1.8-0.5c0.5-0.1,0.9,0,1.2,0.3
		c0.2,0.1,0.3,0.2,0.5,0.3c0.2,0.1,0.4,0.3,0.5,0.5c0.1,0.3,0.4,0.5,0.5,0.7c0,0.3,0.1,0.9-0.1,0.9c-0.2,0-1,0-1.2,0
		c-0.1,0-0.4,0-0.5,0h-1.4c-1,0-1.9,0-2.9-0.1c-0.9,0-1.9,0-2.8,0h0c-1-0.1-1.9,0-2.9,0.1c-0.1,0-0.3,0-0.4,0h-0.4
		c-0.6-0.1-1.2-0.1-2.4,0c-2.3,0-6,0.1-9.4,0c-0.3,0-0.5,0-0.7,0h-2.3c-0.6,0-1.3,0-1.9,0C136.9,187.2,135.3,187.1,133.7,187.1z"/>
	<path class="st2" d="M170.8,187.1c-0.6,0-1.5,0-1.9,0c-0.4,0-1.3,0-1.6,0s0.1-0.5,0.1-0.7c0-0.4,0-0.9,0.3-1.2
		c0.2-0.3,0.4-0.5,0.6-0.8c0.3-0.2,0.5-0.4,0.9-0.4c0.6-0.1,1.2,0,1.8,0.3c0.1,0,0.2,0.1,0.3,0.2c0.2,0.2,0.4,0.4,0.6,0.7
		c0,0.1,0.1,0.1,0.2,0.2c0,0,0.2,0,0.2,0c0.1-0.1,0.1-0.2,0.2-0.4c0.1-0.3,0.3-0.5,0.5-0.7c0.4-0.5,0.9-0.7,1.6-0.8
		c0.3,0,0.6,0,0.9,0.1c0.4,0.2,0.8,0.5,1,0.9c0.1,0.2,0.2,0.3,0.3,0.5c0.1,0.1,0.2,0.1,0.3,0l0.1-0.1c0.3-0.5,0.8-0.9,1.3-1.2
		c0.7-0.4,1.4-0.6,2.2-0.5c0.8,0,1.3,0.4,1.7,1.1c0.1,0.2,0.1,0.4,0.2,0.6c0,0.1,0.2,0.1,0.3,0c0.1-0.1,0.1-0.1,0.2-0.3l0.2-0.3
		c0.6-0.8,1.5-1,2.5-0.9c0.5,0.1,0.8,0.3,1.1,0.7c0.2,0.3,0.3,0.5,0.5,0.8c0.1,0.1,0.1,0.2,0.2,0.3c0,0.1,0.3,0.1,0.3,0.1
		c0.1,0,0.1-0.1,0.2-0.1c0.3-0.2,0.5-0.4,0.7-0.6c0.4-0.3,0.8-0.5,1.3-0.5c0.4,0,0.9-0.1,1.3,0c0.4,0.1,0.8,0.2,1.1,0.5
		c0.2,0.2,0.3,0.4,0.5,0.5c0.1,0.1,0.2,0.2,0.3,0.3s0.2-0.1,0.4-0.2c0.1-0.1,0.2-0.1,0.2-0.3c0.3-0.3,0.6-0.6,0.9-0.8
		c0.5-0.3,1.1-0.6,1.7-0.6c0.1,0,0.3,0,0.4,0c0.5,0,0.9,0.1,1.2,0.5c0.3,0.3,0.5,0.7,0.7,1.1c0.1,0.2,0.1,0.3,0.2,0.4
		c0,0.1,0.2,0.1,0.2,0c0.1,0,0.2-0.1,0.3-0.1c0.3-0.2,0.5-0.3,0.8-0.5c0.6-0.3,1.2-0.5,1.8-0.5c0.5-0.1,0.9,0,1.2,0.3
		c0.2,0.1,0.3,0.2,0.5,0.3c0.2,0.1,0.4,0.3,0.5,0.5c0.1,0.3,0.4,0.5,0.5,0.7c0,0.3,0.1,0.9-0.1,0.9c-0.2,0-1,0-1.2,0
		c-0.1,0-0.4,0-0.5,0h-1.4c-1,0-1.9,0-2.9-0.1c-0.9,0-1.9,0-2.8,0h0c-1-0.1-1.9,0-2.9,0.1c-0.1,0-0.3,0-0.4,0h-0.4
		c-0.6-0.1-1.2-0.1-2.4,0c-2.3,0-6,0.1-9.4,0c-0.3,0-0.5,0-0.7,0h-2.3c-0.6,0-1.3,0-1.9,0C174,187.2,172.4,187.1,170.8,187.1z"/>
	<path class="st2" d="M207.9,187.1c-0.6,0-1.5,0-1.9,0c-0.4,0-1.3,0-1.6,0s0.1-0.5,0.1-0.7c0-0.4,0-0.9,0.3-1.2
		c0.2-0.3,0.4-0.5,0.6-0.8c0.3-0.2,0.5-0.4,0.9-0.4c0.6-0.1,1.2,0,1.8,0.3c0.1,0,0.2,0.1,0.3,0.2c0.2,0.2,0.4,0.4,0.6,0.7
		c0,0.1,0.1,0.1,0.2,0.2c0,0,0.2,0,0.2,0c0.1-0.1,0.1-0.2,0.2-0.4c0.1-0.3,0.3-0.5,0.5-0.7c0.4-0.5,0.9-0.7,1.6-0.8
		c0.3,0,0.6,0,0.9,0.1c0.4,0.2,0.8,0.5,1,0.9c0.1,0.2,0.2,0.3,0.3,0.5c0.1,0.1,0.2,0.1,0.3,0l0.1-0.1c0.3-0.5,0.8-0.9,1.3-1.2
		c0.7-0.4,1.4-0.6,2.2-0.5c0.8,0,1.3,0.4,1.7,1.1c0.1,0.2,0.1,0.4,0.2,0.6c0,0.1,0.2,0.1,0.3,0c0.1-0.1,0.1-0.1,0.2-0.3l0.2-0.3
		c0.6-0.8,1.5-1,2.5-0.9c0.5,0.1,0.8,0.3,1.1,0.7c0.2,0.3,0.3,0.5,0.5,0.8c0.1,0.1,0.1,0.2,0.2,0.3c0,0.1,0.3,0.1,0.3,0.1
		c0.1,0,0.1-0.1,0.2-0.1c0.3-0.2,0.5-0.4,0.7-0.6c0.4-0.3,0.8-0.5,1.3-0.5c0.4,0,0.9-0.1,1.3,0c0.4,0.1,0.8,0.2,1.1,0.5
		c0.2,0.2,0.3,0.4,0.5,0.5c0.1,0.1,0.2,0.2,0.3,0.3s0.2-0.1,0.4-0.2c0.1-0.1,0.2-0.1,0.2-0.3c0.3-0.3,0.6-0.6,0.9-0.8
		c0.5-0.3,1.1-0.6,1.7-0.6c0.1,0,0.3,0,0.4,0c0.5,0,0.9,0.1,1.2,0.5c0.3,0.3,0.5,0.7,0.7,1.1c0.1,0.2,0.1,0.3,0.2,0.4
		c0,0.1,0.2,0.1,0.2,0c0.1,0,0.2-0.1,0.3-0.1c0.3-0.2,0.5-0.3,0.8-0.5c0.6-0.3,1.2-0.5,1.8-0.5c0.5-0.1,0.9,0,1.2,0.3
		c0.2,0.1,0.3,0.2,0.5,0.3c0.2,0.1,0.4,0.3,0.5,0.5c0.1,0.3,0.4,0.5,0.5,0.7c0,0.3,0.1,0.9-0.1,0.9c-0.2,0-1,0-1.2,0
		c-0.1,0-0.4,0-0.5,0h-1.4c-1,0-1.9,0-2.9-0.1c-0.9,0-1.9,0-2.8,0h0c-1-0.1-1.9,0-2.9,0.1c-0.1,0-0.3,0-0.4,0h-0.4
		c-0.6-0.1-1.2-0.1-2.4,0c-2.3,0-6,0.1-9.4,0c-0.3,0-0.5,0-0.7,0h-2.3c-0.6,0-1.3,0-1.9,0C211.1,187.2,209.5,187.1,207.9,187.1z"/>
	<path class="st2" d="M245,187.1c-0.6,0-1.5,0-1.9,0c-0.4,0-1.3,0-1.6,0s0.1-0.5,0.1-0.7c0-0.4,0-0.9,0.3-1.2
		c0.2-0.3,0.4-0.5,0.6-0.8c0.3-0.2,0.5-0.4,0.9-0.4c0.6-0.1,1.2,0,1.8,0.3c0.1,0,0.2,0.1,0.3,0.2c0.2,0.2,0.4,0.4,0.6,0.7
		c0,0.1,0.1,0.1,0.2,0.2c0,0,0.2,0,0.2,0c0.1-0.1,0.1-0.2,0.2-0.4c0.1-0.3,0.3-0.5,0.5-0.7c0.4-0.5,0.9-0.7,1.6-0.8
		c0.3,0,0.6,0,0.9,0.1c0.4,0.2,0.8,0.5,1,0.9c0.1,0.2,0.2,0.3,0.3,0.5c0.1,0.1,0.2,0.1,0.3,0l0.1-0.1c0.3-0.5,0.8-0.9,1.3-1.2
		c0.7-0.4,1.4-0.6,2.2-0.5c0.8,0,1.3,0.4,1.7,1.1c0.1,0.2,0.1,0.4,0.2,0.6c0,0.1,0.2,0.1,0.3,0c0.1-0.1,0.1-0.1,0.2-0.3l0.2-0.3
		c0.6-0.8,1.5-1,2.5-0.9c0.5,0.1,0.8,0.3,1.1,0.7c0.2,0.3,0.3,0.5,0.5,0.8c0.1,0.1,0.1,0.2,0.2,0.3c0,0.1,0.3,0.1,0.3,0.1
		c0.1,0,0.1-0.1,0.2-0.1c0.3-0.2,0.5-0.4,0.7-0.6c0.4-0.3,0.8-0.5,1.3-0.5c0.4,0,0.9-0.1,1.3,0c0.4,0.1,0.8,0.2,1.1,0.5
		c0.2,0.2,0.3,0.4,0.5,0.5c0.1,0.1,0.2,0.2,0.3,0.3s0.2-0.1,0.4-0.2c0.1-0.1,0.2-0.1,0.2-0.3c0.3-0.3,0.6-0.6,0.9-0.8
		c0.5-0.3,1.1-0.6,1.7-0.6c0.1,0,0.3,0,0.4,0c0.5,0,0.9,0.1,1.2,0.5c0.3,0.3,0.5,0.7,0.7,1.1c0.1,0.2,0.1,0.3,0.2,0.4
		c0,0.1,0.2,0.1,0.2,0c0.1,0,0.2-0.1,0.3-0.1c0.3-0.2,0.5-0.3,0.8-0.5c0.6-0.3,1.2-0.5,1.8-0.5c0.5-0.1,0.9,0,1.2,0.3
		c0.2,0.1,0.3,0.2,0.5,0.3c0.2,0.1,0.4,0.3,0.5,0.5c0.1,0.3,0.4,0.5,0.5,0.7c0,0.3,0.1,0.9-0.1,0.9c-0.2,0-1,0-1.2,0
		c-0.1,0-0.4,0-0.5,0h-1.4c-1,0-1.9,0-2.9-0.1c-0.9,0-1.9,0-2.8,0h0c-1-0.1-1.9,0-2.9,0.1c-0.1,0-0.3,0-0.4,0h-0.4
		c-0.6-0.1-1.2-0.1-2.4,0c-2.3,0-6,0.1-9.4,0c-0.3,0-0.5,0-0.7,0h-2.3c-0.6,0-1.3,0-1.9,0C248.2,187.2,246.6,187.1,245,187.1z"/>
</g>
<g class="st1">
	<path class="st2" d="M109.6,157.8c-0.1-0.5,0-0.9,0.2-1.3c0.3-0.7,0.8-1.4,1.4-1.9c1.6-1.8,3.6-2.8,6-3c1.5-0.2,3.2-0.2,4.7,0
		c0.5,0,0.8,0.1,1.1,0.3l0.1,0.5c0,0.1-0.1,0.2-0.1,0.3c-0.6,0.2-1.1,0.2-1.7,0.2H120c-1.3-0.1-2.6,0-4,0.3
		c-1.8,0.6-3.5,1.6-4.6,3.3c-0.3,0.3-0.5,0.7-0.8,1l-0.5,0.3C110.1,158.1,109.7,158,109.6,157.8z M142.8,168.4
		c-1.5-0.9-2.9-1.8-4.2-3c-1.5-1.5-3.3-2.6-5.1-3.7c-1.1-0.6-2.3-0.9-3.5-1.1c-2.9-0.3-5.7,0.1-8.2,1.5c-0.7,0.5-1.3,0.8-1.8,1.4
		c-0.2,0.3-0.7,0.7-1.1,0.9c0,0.1-0.2,0.1-0.2,0c-0.1,0-0.2-0.2-0.2-0.3v-0.2c0.1-0.7,0.3-1.1,0.7-1.5c0.8-0.7,1.5-1.4,2.5-1.8
		c0.3,0,0.6-0.2,1-0.3c2.9-1.3,5.8-1.6,8.9-0.8c1.3,0.2,2.4,0.8,3.4,1.4c1.8,0.9,3.4,2.2,5,3.6c1,0.9,2.2,1.7,3.4,2.5
		c1.6,1,3.4,1.4,5.4,1.4c2.5-0.1,4.9-0.7,7.3-1.7l3.8-1.4c1.8-0.7,3.6-1.1,5.7-1.3c2.2,0,4.2,0,6.3,0.1l3.2,0.3
		c0.2,0,0.6,0.2,0.8,0.3c0.2,0.1,0.2,0.5,0.1,0.6c-0.1,0.1-0.3,0.3-0.5,0.3c-0.2,0.1-0.6,0.1-0.9,0.1l-4.8-0.3h-4.7
		c-1,0.1-2.2,0.3-3.2,0.7c-1.3,0.5-2.5,0.9-3.8,1.3c-0.8,0.3-1.5,0.7-2.4,1c-1.4,0.7-3,0.9-4.3,1.1c-1.7,0.3-3.4,0.3-5.1,0.1
		C145,169.3,143.8,169,142.8,168.4z M140.1,159.8h-0.5c-1,0.3-1.8-0.3-2.6-0.9c-0.3-0.3-0.7-0.7-0.9-1c-0.3-0.3-0.6-0.6-0.8-0.9
		c-1.9-2.5-4.2-4.7-6.6-6.9c-0.9-0.8-1.7-1.6-2.4-2.6c-0.2-0.3-0.5-0.7-0.5-1c-0.1-0.5-0.1-0.9,0.2-1.3c0.3-0.6,0.8-0.9,1.4-1.1
		c1.7-0.9,3.5-1.6,5.4-2.1c1.9-0.7,4-1.1,5.9-1.6l2.5-0.7c0.7-0.2,0.9-0.6,0.8-1.3c-0.1-0.5-0.1-0.8-0.2-1.4
		c-0.1-0.8-0.2-1.6-0.2-2.5c-0.2-2.3-0.7-4.7-0.9-7c-0.3-3-0.9-6.1-1.4-9c-0.5-2.3-0.8-4.6-1.1-6.9c-0.1-0.2-0.2-0.7-0.2-1.1
		c-0.2-2.5-0.7-5.3-1-7.8v-0.8c0-0.2,0.2-0.7,0.5-0.7c0.2,0,0.5,0,0.8,0.1c0.1,0,0.2,0.2,0.3,0.3c0.2,0.2,0.6,0.5,0.8,0.8
		c1.1,1.5,2.3,3,3.6,4.5c2.6,3,5.2,5.8,8,8.8c1.5,1.7,3.4,3.3,5,4.9c1.1,1.1,2.5,2.2,3.7,3.4c0.5,0.6,1.3,1.1,1.8,1.6
		c0.8,0.6,1.6,1.1,2.4,1.8c0.5,0.3,1,0.8,1.5,1.4c0.3,0.5,0.9,0.9,1.3,1.3c0.2,0.2,0.5,0.5,0.6,0.8c0.2,0.3,0,0.9-0.5,1.1
		c-0.2,0.1-0.5,0.1-0.7,0.1c-0.8,0-1.6,0.3-2.3,0.8c-0.7,0.3-1.6,0.7-2.4,1l-0.5,0.2c-2.2,0.8-4.2,1.7-6.4,2.5l-1.1,0.7
		c-0.3,0.1-0.5,0.3-0.3,0.5c0.1,0.2,0.5,0.3,0.6,0.2c1.7,0,3.2,0,4.9-0.1h4.7c1.1,0,2.4,0.3,3.5,0.7c0.5,0.1,0.9,0.3,1.1,0.6
		c0.6,0.3,0.8,0.6,1,1.1c0.5,1,0.6,1.9,0.2,3.1c-0.3,1.1-0.6,2.3-0.9,3.4c-0.6,1.6-0.9,3.2-1.4,4.8c-0.2,0.9-0.5,1.7-0.8,2.4
		c-0.2,0.5-0.5,0.7-0.7,0.9c-0.8,0.6-1.5,1.1-2.4,1.5c-1.3,0.6-2.6,1-4,1.6c-0.6,0.1-1.3,0.3-1.9,0.5c-2.7,0.8-5.6,1.3-8.4,1.4
		c-0.3,0-0.7,0.1-1,0.1c-1.5,0.2-2.9,0.2-4.3,0L140.1,159.8z M141.1,147.6l1.9-0.1c0.2-0.1,0.5-0.3,0.5-0.7
		c-0.1-0.3-0.1-0.8-0.3-1.3c-0.3-0.8-0.6-1.6-0.6-2.4v-0.7c-0.2-1-0.6-1.3-1.8-1l-6.8,1.7c-1.8,0.6-3.6,1.3-5.5,2.2
		c-0.1,0-0.3,0.1-0.5,0.2c0,0.1-0.1,0.2-0.1,0.3c0,0.1,0.1,0.3,0.2,0.3c1.5,0.3,2.9,1,4.4,1.3h0.7c1.5,0.1,2.9,0.1,4.1,0.2
		C138.7,147.7,139.8,147.7,141.1,147.6z M145.9,158.9c2.4-0.1,4.7-0.5,7.1-0.7c1.5-0.2,2.9-0.6,4.3-0.9c1.9-0.7,3.9-1.5,5.9-2.3
		c0,0,0.1-0.1,0.2-0.1c0.6-0.3,0.8-0.7,1-1c0.3-0.8,0.6-1.5,0.8-2.2l1.1-4.2l0.7-2.1v-0.5c0-0.2-0.3-0.5-0.5-0.5
		c-0.6,0.3-1.3,0.6-1.8,0.8c-1.3,0.5-2.4,1-3.8,1.3c-2.1,0.7-4.3,0.9-6.5,1.4c-1.1,0.3-2.3,0.5-3.5,0.6c-1.1,0-2.3,0.1-3.4,0.1
		c-1.6,0-3.2,0.1-4.8,0.2c-1,0-2.2,0.1-3.2,0.2h-2.7c-0.9,0-1.9-0.1-3-0.2c-0.3,0-0.7,0-1.1-0.1c-0.7-0.1-1.3-0.1-1.9-0.2h-0.6
		c-0.1,0-0.2,0-0.3,0.1c-0.1,0-0.1,0.2,0,0.3l3.8,3.8c0.7,0.6,1.3,1.3,1.9,2.2c0.5,0.7,1,1.3,1.6,2.1c1,0.9,2.1,1.8,3.5,1.6
		c0.2,0,0.3,0,0.6,0.1c1.3,0.2,2.4,0.1,3.4,0.2H145.9z M145.2,140.6c1.6-1.3,3.3-2.3,5-3.3c2.2-1.3,4.3-2.3,6.6-3.1
		c2.2-0.9,4.3-1.9,6.5-2.7c0.3-0.1,0.7-0.3,0.9-0.5c0.2-0.2,0.2-0.8,0-1c0-0.1,0-0.2-0.1-0.2c-0.9-0.8-1.8-1.5-2.6-2.2
		c-0.8-0.7-1.7-1.1-2.5-1.9c-1-1-2.1-2.1-3.1-3l-3.4-3.2c-0.7-0.8-1.5-1.5-2.3-2.4c-0.9-0.9-1.8-1.8-2.6-2.9
		c-1.3-1.4-2.5-2.6-3.8-4.1c-1.3-1.4-2.5-2.9-3.9-4.2c-0.1-0.1-0.2-0.2-0.5-0.3c-0.1-0.1-0.3,0-0.3,0.1c-0.1,0.2-0.1,0.5-0.1,0.6
		c0,0.1-0.1,0.2,0,0.3c0.2,2.5,0.6,5,1,7.3l1,6.2c0.2,0.7,0.3,1.4,0.5,2.2c0,1.1,0.2,2.2,0.3,3.3c0.5,3.2,0.8,6.4,1.3,9.6
		c0.2,1.8,0.6,3.7,1,5.5c0,0.2,0.5,0.3,0.6,0.2C144.9,140.7,145.1,140.7,145.2,140.6z M147.4,147.3c0.7,0,1.7-0.1,2.6-0.2
		c0.2-0.1,0.6-0.3,0.7-0.7c0.1,0,0.1-0.1,0.2-0.2c0.3-1,0.7-2.1,1.4-3.1c0.2-0.5,0.5-1,0.8-1.6l0.3-0.9c0-0.2-0.2-0.6-0.5-0.6
		c-0.5,0-0.8-0.1-1.3-0.1l-2.6,0.3c-0.3,0-0.7,0.1-1,0.3c-0.8,0.3-1.4,0.6-2.2,1.1c-0.2,0.3-0.7,0.6-1.1,0.8
		c-0.7,0.6-0.8,0.9-0.6,1.6c0.2,0.9,0.6,1.7,0.7,2.6c0,0.3,0.5,0.6,0.7,0.6H147.4z M156.9,146.1c2.7-0.6,5.1-1.1,7.6-2.2
		c0.9-0.5,1.7-0.9,2.3-1.6c0.7-0.7,0.6-1.5-0.5-1.9c-0.5-0.2-1-0.3-1.7-0.5c-1.5-0.2-2.7-0.1-4.1-0.1c-1.1,0-2.2,0-3.2,0.1
		c-0.3,0-0.6,0-0.7,0.3c-0.5,1.3-1.1,2.6-1.6,4c-0.2,0.5-0.5,1-0.6,1.5c-0.1,0.2,0.1,0.7,0.5,0.7
		C155.6,146.3,156.4,146.3,156.9,146.1z M184.4,150.3c-0.9-0.3-1.8-0.7-2.9-0.9c-1.3-0.5-2.7-0.7-4.2-0.7c-2.1,0-4.1,0.6-5.8,1.9
		c-0.7,0.3-1.3,0.8-1.8,1.1h-0.3c-0.1,0-0.1-0.2-0.1-0.3c0.1-0.3,0.3-0.7,0.5-0.9c0.3-0.5,0.9-0.9,1.3-1.1c1-0.8,2.3-1.3,3.5-1.7
		c0.7-0.1,1.6-0.2,2.4-0.2c1.8,0,3.6,0.1,5.5,0.7c1.6,0.5,3.2,1,4.7,1.5c1.7,0.7,3.3,1.1,5.1,1c1.8-0.1,3.5-1.3,4.3-1.9
		c0.8-0.7,1.5,0.6,0.9,1.1s-3.3,2.2-5.4,2.2C189.3,151.9,186.9,151.2,184.4,150.3z M186.5,157.8c-1.7-0.3-3.5-0.6-5.2-0.9
		c-1.1-0.2-2.2-0.2-3.3-0.1c-0.9,0-1.8,0.2-2.7,0.7c-0.2,0.1-0.6,0.3-1,0.5c-0.1,0.1-0.2,0.1-0.5,0c-0.1-0.1-0.1-0.5,0.1-0.7
		c0.2-0.2,0.3-0.6,0.6-0.7c1-0.6,2.3-1,3.5-1.1c0.9-0.1,1.9-0.1,2.9,0.1l8,1.3c1.3,0.2,3,0.5,4,0.3c1.8-0.1,3.4-1.4,4.1-1.7
		c0.6-0.3,1.4,1,0.6,1.5c-0.8,0.5-2.3,1.5-4.7,1.6C190.8,158.6,188.5,158.2,186.5,157.8z"/>
</g>
<g class="st1">
	<path class="st2" d="M58.2,56.5c0.4-0.7,0.7-1.5,1.1-2.4c0.7-1.8,0.6-3.4-0.3-5c-1.1-1.9-3.4-2.1-5.1-0.9c-1.7,1.2-2.6,3.5-2.7,5.5
		c-0.2,4.2,1.2,7.9,3.1,11.5c1.2,2.5,2.1,4.7,3.2,7.9c1.2,0,10-4.3,10.1-3.4c0.1,1.4-3.4,2.8-5.2,3.6l-4.2,1.6
		c0.6,2.5,0.4,3.6,0.4,5.1c0,1.9-0.5,3.9-1.5,5.5c-1.2,1.9-3.5,2.6-5.6,2.9c-2.1,0.4-4.9-0.1-5.6-2.4c-1.4-4.4,3.4-9,7-11
		c0,0-4.2-9.4-5.1-12.7c-1.3-4.8-1.7-10.3,1.1-14.7c0.5-0.9,1.2-1.4,2-1.9c1.3-0.8,2.4-1.3,3.9-1.3c1.8,0,2.2,0.3,3.8,1.1
		c2.3,1.2,2.9,4.5,2.8,7c-0.1,1.2-0.5,2.5-1,3.5c-0.2,0.5-0.5,1.1-0.9,1.6c-0.4,0.4-1.2,1.1-1.7,0.5c-0.2-0.2-0.2-0.4-0.1-0.7
		C57.8,57.2,58.1,56.8,58.2,56.5z M50,86.4c1.7,0.1,3.1-1.2,3.6-2.7c0.6-1.9,0.1-4.6-0.2-6.5c-1,0.4-4.8,2.9-5.5,5.9
		c-0.1,0.5-0.2,1-0.1,1.4C48,85.5,48.8,86.3,50,86.4z"/>
	<path class="st2" d="M96.3,47.4c-0.3,1.3-0.7,2.6-1.1,4c-0.5,2.1-1,4.3-1.6,6.4c-1.1,4.3-2.2,8.6-3.2,13c-0.8,3.3-1.7,6.6-2.2,10
		c-0.2,1.7-0.6,5-3.1,4c-1.9-0.7-2-3.3-2.4-5c-0.5-2.1-0.9-4.2-1.3-6.4c-0.4-2.3-0.8-4.7-1.2-7l-0.5-3c-0.1-0.5-0.5-1.6-0.4-2.1
		c-0.8,3.2-1.6,6.4-2.4,9.6c-0.7,3.3-2.6,11.8-2.9,12.7c-0.3,1.2-1.1,3.1-2.6,2.9c-1.2-0.2-1.5-1.8-1.9-2.7c-1.5-3.8-2.1-8-2.9-12
		c-1.3-7-2-14.2-2.9-21.2c-0.2-1.6-0.9-3.4-0.6-5.1c0.2-2.1,3-0.9,3.9-0.1c1.2,1.1,1.4,2.8,1.6,4.3c0.2,2.1,3.4,22.1,3.9,24.3
		c0.2,0.9,0.5,1.8,0.7,2.7c0.7-0.7,2.2-8.6,2.9-11.3c0.6-2.6,1.1-5.2,1.7-7.8c0.8-3.5,1.3-7.2,2.6-10.4c0.3-0.6,0.9-1.8,1.7-1.9
		c1.4-0.2,1.2,1.3,1.3,2.1c0.1,0.9,0.3,1.7,0.4,2.6l0.5,3.9c0.3,2.5,0.6,4.9,1,7.4c0.4,3.1,1.4,15.6,1.7,14.7
		c0.6-2.7,1.9-8,2.5-10.6c0.7-3.3,1.6-6.5,2.4-9.7c0.5-1.9,0.6-3.7,1.3-5.6c0.4-1.1,0.6-3,1.7-3.7c0.3-0.2,0.6-0.3,0.8-0.3
		C96.3,45.9,96.5,46.7,96.3,47.4z"/>
	<path class="st2" d="M112.8,45.8c-1.7,0.2-3.4,0.2-5.1,0.3c-1.1,0.1-2.5,0.2-3.6,0.1c0,1-0.1,2-0.2,3.1c-0.1,1.3-0.3,2.6-0.3,4
		c-0.1,1.1-0.2,3.6-0.2,3.9c0.1,0.4,4,0.1,4.5,0.1s1.4,0.1,1.5,0.7c0.1,0.6-0.7,1-1.1,1.1c-1.9,0.4-3,0.4-4.9,0.4
		c-0.1,1.2-0.2,1.9-0.3,3.1c-0.4,3.7-1.2,14.6-1.2,16.3c0,1.1-0.2,2.2-0.2,3.3c0.3-0.1,0.6-0.1,0.6-0.1c2.1-0.4,4.1-1,6.2-1.5
		c0.9-0.2,2.2,0,1.3,1.1c-0.4,0.5-1.2,0.7-1.8,1c-1.4,0.5-2.8,0.7-4.2,1.1c-1.6,0.5-3.2,0.9-4.8,1.4c-1.1,0.4-2.6,0.9-3.1-0.5
		c-0.1-0.2-0.2-0.5-0.2-0.8c-0.2-1.3-0.1-2.6-0.1-4c0.2-5.9,0.3-12,1.1-17.9c0.4-3.4,1.5-12.8,1.7-14.2c0.1-0.9,0.5-2,1.1-2.7
		c0.6-0.7,1.6-0.5,2.5-0.5c1.1,0,2.3,0,3.4-0.1c1.8-0.1,4.5-0.1,6.3-0.2c0.6-0.1,1.7-0.3,2,0.4C114.5,45.4,113.7,45.7,112.8,45.8z"
		/>
	<path class="st2" d="M130.1,45.8c-1.7,0.2-3.4,0.2-5.1,0.3c-1.1,0.1-2.5,0.2-3.6,0.1c0,1-0.1,2-0.2,3.1c-0.1,1.3-0.3,2.6-0.3,4
		c-0.1,1.1-0.2,3.6-0.2,3.9c0.1,0.4,4,0.1,4.5,0.1s1.4,0.1,1.5,0.7c0.1,0.6-0.7,1-1.1,1.1c-1.9,0.4-3,0.4-4.9,0.4
		c-0.1,1.2-0.2,1.9-0.3,3.1c-0.4,3.7-1.2,14.6-1.2,16.3c0,1.1-0.2,2.2-0.2,3.3c0.3-0.1,0.6-0.1,0.6-0.1c2.1-0.4,4.1-1,6.2-1.5
		c0.9-0.2,2.2,0,1.3,1.1c-0.4,0.5-1.2,0.7-1.8,1c-1.4,0.5-2.8,0.7-4.2,1.1c-1.6,0.5-3.2,0.9-4.8,1.4c-1.1,0.4-2.6,0.9-3.1-0.5
		c-0.1-0.2-0.2-0.5-0.2-0.8c-0.2-1.3-0.1-2.6-0.1-4c0.2-5.9,0.3-12,1.1-17.9c0.4-3.4,1.5-12.8,1.7-14.2c0.1-0.9,0.5-2,1.1-2.7
		c0.6-0.7,1.6-0.5,2.5-0.5c1.1,0,2.3,0,3.4-0.1c1.8-0.1,4.5-0.1,6.3-0.2c0.6-0.1,1.7-0.3,2,0.4C131.8,45.4,131,45.7,130.1,45.8z"/>
	<path class="st2" d="M141.5,46.3c0,0.1-7-0.3-7-0.3c-0.7-0.1-1.7,0.1-2.3-0.4c-0.6-0.6-0.1-1.1,0.6-1.2c2-0.5,5.7-0.1,9-0.1
		c3.3,0,6.4-0.1,9.5,0.2c0.9,0.1,4.6-0.1,4.7,1.1c0.1,1.2-3,1.1-3.7,1.1c-0.3,0-5.4-0.5-5.4-0.4c-0.2,1.2,0.1,2.6-0.1,3.9
		c-0.1,1.6,0,3.2-0.1,4.7c-0.1,3.2-0.3,6.4-0.4,9.6c-0.1,3-0.4,6-0.4,8.9c0.1,2.4,0.3,4.8,0.5,7.1c0.1,1.8,0.2,3.5,0.3,5.2
		c0.1,0.8,0.3,1.6,0.3,2.4c0,0.6-0.3,1.2-1.1,1.2c-0.6,0-1.3-0.6-1.7-1.1c-0.4-0.5-0.7-1-1.1-1.6c-1.2-2.6-2.1-5.1-2.3-8
		c-0.5-8.8-0.5-21.4,0.7-30.1c0.1-0.3,0.2-1.3,0.1-1.9C141.6,46.5,141.6,46.4,141.5,46.3z"/>
	<path class="st2" d="M153.9,85c-1.2-0.6-0.6-1.7,0.3-2.2c0.7-0.5,1.7-3,1.8-3.6c0.4-2.2,0.8-4.4,1.1-6.6c0.2-1.2,1.3-9.7,1.3-9.7
		c-0.6-0.7-4.3-7.5-5.2-9.2c-0.9-1.4-2-2.9-2.6-4.5c-0.4-1,0.6-2.1,1.4-2.1c0.4,0,0.7,0.7,0.9,1c0.7,1.1,1.4,2.2,2,3.4
		c1.3,2.4,2.6,4.9,3.9,7.3c0.1,0.1,0.1,0.3,0.2,0.4c0.1-0.9,1.1-4.3,1.2-4.9c0.4-1.3,2.4-10.3,4.4-10c0.8,0.1,2.5,0.1,2.9,0.9
		c0.4,0.9-0.3,2.7-0.5,3.6c-0.4,1.7-5.5,21.2-6.3,26.6c-0.3,2.2-1,4.2-1.8,6.3c-0.6,1.7-1.4,3.2-3.3,3.7
		C155.3,85.4,154.5,85.3,153.9,85z"/>
	<path class="st2" d="M183.5,85.1c-0.6-1.6-0.5-3.7-0.5-5.4v-8.1c0.1-4.3,0.2-8.7,0.4-13c0.1-2.1,0.2-4.3,0.4-6.4
		c0.1-1.9,0.4-3.7,0.5-5.6c0-0.7,0.3-1.3,0.4-2c0.2-0.8,14.1-1.7,17.2,9.3c1.6,5.6,0.4,11.3-1.8,16.4c-1.1,2.4-5.6,13.8-11,16
		C187.5,86.8,184.3,87.3,183.5,85.1z M188.8,83.8c7.3-6.2,11.7-17,11.7-25.2c0-5.1-2.4-8.1-4.2-9.7c-1.9-1.7-3.7-1.8-6-2
		c-1.8-0.2-1.4,1.4-1.4,2.9c0,3.5-0.3,7-0.3,10.4c0,4.5,0.1,9,0.3,13.5c0.1,1.7-0.1,3.3-0.1,5C188.7,79.7,188.7,82.9,188.8,83.8z"/>
	<path class="st2" d="M215.7,44.6c1.2,0.4,1.7,1.2,1.7,2.5c0.1,2.5,0.2,5,0.2,7.5c0.1,1.4,1.2,25.7,1.3,28.2c0,0.6,0.5,3.4-0.2,3.9
		c-0.8,0.5-2.5,0.5-3.3,0.2c-1.1-0.5-1.2-2.3-1.3-3.4c-0.3-5.6-0.5-10.8-0.7-17.4c-1.8,0.5-3.6,1.2-5.4,1.8c0,0-4.4,17.6-5.1,18
		c-0.6,0.4-3.3,0.7-3.4-0.1c-0.1-0.7,4.1-13,4.7-17c-0.8,0.3-1.6,0.6-1.7-0.2c-0.1-0.5,0.3-1,0.9-1.2c0.7-0.3,0.8-0.3,1-0.4
		c0.3-0.2,7.7-20.5,8.4-21.9c0.2-0.3,0.5-0.5,0.8-0.7C214.6,44,214.7,44.3,215.7,44.6z M213.7,50.2c-0.2,0.4-4.9,15.4-4.9,15.4
		l4.7-1.3C213.8,60.2,213.4,57.9,213.7,50.2z"/>
	<path class="st2" d="M223.5,85c-1.2-0.6-0.6-1.7,0.3-2.2c0.7-0.5,1.7-3,1.8-3.6c0.4-2.2,0.8-4.4,1.1-6.6c0.2-1.2,1.3-9.7,1.3-9.7
		c-0.6-0.7-4.3-7.5-5.2-9.2c-0.9-1.4-2-2.9-2.6-4.5c-0.4-1,0.6-2.1,1.4-2.1c0.4,0,0.7,0.7,0.9,1c0.7,1.1,1.4,2.2,2,3.4
		c1.3,2.4,2.6,4.9,3.9,7.3c0.1,0.1,0.1,0.3,0.2,0.4c0.1-0.9,1.1-4.3,1.2-4.9c0.4-1.3,2.4-10.3,4.4-10c0.8,0.1,2.5,0.1,2.9,0.9
		c0.4,0.9-0.3,2.7-0.5,3.6c-0.4,1.7-5.5,21.2-6.3,26.6c-0.3,2.2-1,4.2-1.8,6.3c-0.6,1.7-1.4,3.2-3.3,3.7
		C224.8,85.4,224.1,85.3,223.5,85z"/>
	<path class="st2" d="M249.7,56.5c0.4-0.7,0.7-1.5,1.1-2.4c0.7-1.8,0.6-3.4-0.3-5c-1.1-1.9-3.4-2.1-5.1-0.9
		c-1.7,1.2-2.6,3.5-2.7,5.5c-0.2,4.2,1.2,7.9,3,11.5c1.2,2.5,2.1,4.7,3.2,7.9c1.2,0,10-4.3,10.1-3.4c0.1,1.4-3.4,2.8-5.2,3.6
		l-4.2,1.6c0.6,2.5,0.4,3.6,0.4,5.1c0,1.9-0.5,3.9-1.5,5.5c-1.2,1.9-3.5,2.6-5.6,2.9c-2.1,0.4-4.9-0.1-5.6-2.4c-1.4-4.4,3.4-9,7-11
		c0,0-4.2-9.4-5.1-12.7c-1.3-4.8-1.7-10.3,1.1-14.7c0.5-0.9,1.2-1.4,2-1.9c1.3-0.8,2.4-1.3,3.9-1.3c1.8,0,2.2,0.3,3.8,1.1
		c2.3,1.2,2.9,4.5,2.8,7c-0.1,1.2-0.5,2.5-1,3.5c-0.2,0.5-0.5,1.1-0.9,1.6c-0.4,0.4-1.2,1.1-1.7,0.5c-0.2-0.2-0.2-0.4-0.1-0.7
		C249.2,57.2,249.5,56.8,249.7,56.5z M241.4,86.4c1.7,0.1,3-1.2,3.6-2.7c0.6-1.9,0.1-4.6-0.2-6.5c-1,0.4-4.8,2.9-5.5,5.9
		c-0.1,0.5-0.2,1-0.1,1.4C239.4,85.5,240.2,86.3,241.4,86.4z"/>
</g>
</svg>
