<svg id="Calque_1" data-name="Calque 1" xmlns="http://www.w3.org/2000/svg" viewBox="0 0 156.23 41.1"><defs><style>.cls-1{fill:#56596d;}.cls-2{fill:#fff;}</style></defs><title>telecharger-projet-pedago</title><path class="cls-1" d="M24.07,6.35c-1,0-2.44.06-3,0s-2-.06-2.5-.06.17-.81.17-1.16a3,3,0,0,1,.46-2,10.22,10.22,0,0,1,.93-1.28,2.89,2.89,0,0,1,1.4-.7,4.84,4.84,0,0,1,2.85.41,2.7,2.7,0,0,1,.52.35,6.07,6.07,0,0,1,1,1.11,1.52,1.52,0,0,0,.29.35c.06.06.29.06.29,0a5.13,5.13,0,0,0,.35-.58,5.25,5.25,0,0,1,.81-1.16A4.17,4.17,0,0,1,30.12.36a2.38,2.38,0,0,1,1.4.23A3.93,3.93,0,0,1,33.09,2.1a5.8,5.8,0,0,0,.47.81.24.24,0,0,0,.47,0l.17-.17A4.81,4.81,0,0,1,36.35.88,6.78,6.78,0,0,1,39.84,0a2.85,2.85,0,0,1,2.68,1.75c.12.29.23.64.35,1,.06.17.35.17.47,0a1.05,1.05,0,0,0,.29-.41L44,1.81a3.82,3.82,0,0,1,4-1.4,2.68,2.68,0,0,1,1.8,1.16c.29.41.52.81.81,1.22a3.3,3.3,0,0,0,.35.47.48.48,0,0,0,.47.12c.12-.06.23-.17.35-.23l1.16-1A3.88,3.88,0,0,1,55,1.34c.7,0,1.4-.12,2.1-.06A3.45,3.45,0,0,1,58.75,2c.29.35.52.58.76.87a3.55,3.55,0,0,1,.47.47c.12.12.35-.17.58-.29s.29-.23.35-.41A6.35,6.35,0,0,1,62.42,1.4,4.83,4.83,0,0,1,65.15.47c.23,0,.47-.06.7-.06a2.47,2.47,0,0,1,2,.81A6.84,6.84,0,0,1,68.94,3c.12.29.17.47.29.7a.27.27,0,0,0,.35.06c.17,0,.29-.12.47-.23.47-.29.82-.52,1.22-.81a6.44,6.44,0,0,1,2.91-.81,2.58,2.58,0,0,1,2,.41,3.27,3.27,0,0,1,.76.47,2,2,0,0,1,.82.87c.17.41.7.76.81,1.16s.23,1.51-.12,1.51-1.63-.06-1.86,0a4.42,4.42,0,0,1-.87.06H73.42c-1.57,0-3.08-.06-4.6-.12s-3,0-4.42-.06h-.06a17.88,17.88,0,0,0-4.66.23,1,1,0,0,0-.58,0h-.64a19.5,19.5,0,0,0-3.9-.06c-3.67.06-9.6.23-15.07,0a7.44,7.44,0,0,1-1.11.06H34.77c-1,0-2,.06-3,.06C29.19,6.47,26.63,6.41,24.07,6.35Zm1.4-.87h.23A.47.47,0,0,0,26,5a.06.06,0,0,1-.06-.06,7.5,7.5,0,0,0-1.28-2,.58.58,0,0,0-.29-.23A3.92,3.92,0,0,0,23,2a2.29,2.29,0,0,0-2.68,1l-.52.87a3.36,3.36,0,0,0-.23.81c0,.12.06.29.06.41a.7.7,0,0,0,.29.29,1.7,1.7,0,0,0,.93-.06A.44.44,0,0,0,21.16,5a1.13,1.13,0,0,1,.06-.41,1.38,1.38,0,0,1,.93-1.34.82.82,0,0,1,.81,0,2.78,2.78,0,0,1,.58.58l.87,1.4a.65.65,0,0,0,.46.29.63.63,0,0,1,.29.06A.52.52,0,0,1,25.46,5.48ZM22.9,5.42A.27.27,0,0,0,23.08,5c-.12-.23-.17-.41-.29-.64a.38.38,0,0,0-.64,0,2,2,0,0,0-.23.52.4.4,0,0,0,.35.52.44.44,0,0,0,.29.06C22.61,5.48,22.79,5.42,22.9,5.42Zm5.3,0a.26.26,0,0,0,.17-.23.43.43,0,0,0,.06-.29A2,2,0,0,1,29,3.61,1.68,1.68,0,0,1,30.35,3a1.32,1.32,0,0,1,1.22.64l.35.87c.12.23.17.47.29.7a.53.53,0,0,0,.64.17c.12,0,.23-.23.23-.41s.06-.12,0-.17l-.35-1.57A2.88,2.88,0,0,0,31.4,1.52a1.53,1.53,0,0,0-1.11-.29,3.6,3.6,0,0,0-2.15,1.16,5.14,5.14,0,0,0-1,2.62c0,.29.12.47.41.47A2.39,2.39,0,0,0,28.2,5.42Zm2,.12c.12,0,.41-.06.76-.06.06-.06.23-.23.17-.35a1.83,1.83,0,0,0-.35-.93.66.66,0,0,0-.93-.12,1.89,1.89,0,0,0-.58,1c-.06.17.06.41.23.41Zm6.23-.06c.23,0,.41-.17.46-.47a2.9,2.9,0,0,1,.93-1.69,2,2,0,0,1,1.69-.58.94.94,0,0,1,.76.35A3,3,0,0,1,41,4.25c.12.23.17.41.29.64a.75.75,0,0,0,1,.41A.33.33,0,0,0,42.57,5V4.43a13.25,13.25,0,0,1-.47-1.63,4.55,4.55,0,0,0-.64-1.16A1.5,1.5,0,0,0,40.65,1,2.22,2.22,0,0,0,39.49.88a7.3,7.3,0,0,0-1.69.29,5.42,5.42,0,0,0-2.39,1.51,7.42,7.42,0,0,0-1,1.57c-.06.17-.17.41-.23.64a.45.45,0,0,0,.29.58A7.92,7.92,0,0,0,36.46,5.48Zm2.39,0h.35c.23,0,.52-.06.76-.06A.4.4,0,0,0,40.25,5a2.35,2.35,0,0,0-.47-1.11.59.59,0,0,0-.58-.23,1.33,1.33,0,0,0-1,.47,5.31,5.31,0,0,0-.64.93c-.06.23.06.47.29.47Zm6.58-.17c.35,0,.52-.17.52-.58a1.6,1.6,0,0,1,0-.52A2.53,2.53,0,0,1,46,3.91a2.34,2.34,0,0,1,.76-.76,1.09,1.09,0,0,1,1.4.35c.06.17.17.41.23.58l.35.87a.51.51,0,0,0,.52.29c.06.06.12.06.23.06a1.72,1.72,0,0,0,.76-.12.44.44,0,0,0,.29-.41.74.74,0,0,0-.06-.35A9.3,9.3,0,0,0,49.15,2.1a2.18,2.18,0,0,0-1.63-.87,2.81,2.81,0,0,0-2.79,1.16,6,6,0,0,0-1.11,2.39.36.36,0,0,0,.29.52A13.14,13.14,0,0,0,45.43,5.3Zm2.15-.06c.12-.06.23-.23.17-.35A1.73,1.73,0,0,0,47.46,4,.28.28,0,0,0,47.05,4c-.06.06-.12.06-.17.12a2.14,2.14,0,0,0-.41.81c-.06.12.06.35.17.35A2,2,0,0,0,47,5.3C47.17,5.3,47.35,5.24,47.58,5.24Zm11.87.12a.3.3,0,0,0,.23-.12c.17-.29.23-.58,0-.81a6.64,6.64,0,0,0-1.63-1.75,1.54,1.54,0,0,0-1.11-.52,8.59,8.59,0,0,0-1.22,0,4.15,4.15,0,0,0-2.39.76,16,16,0,0,0-1.46,1.34.91.91,0,0,0-.17.7.39.39,0,0,0,.23.29,8.62,8.62,0,0,0,2.44.06.06.06,0,0,0,.06-.06c.06-.06.17-.06.23-.17s.06-.35.12-.52a.89.89,0,0,1,.41-.7,6.15,6.15,0,0,1,.64-.47,1,1,0,0,1,1.11.06,4.77,4.77,0,0,1,.58.52c.17.23.35.52.58.87.12.12.12.29.29.35s.29.17.41.35C59,5.48,59.28,5.42,59.45,5.36Zm-2.5.06A.3.3,0,0,0,57.24,5a2.1,2.1,0,0,0-.41-.58.62.62,0,0,0-.76-.12A5.07,5.07,0,0,0,55.2,5c-.06.06.06.29.17.29a1.15,1.15,0,0,0,.58.12A2.83,2.83,0,0,0,56.95,5.42Zm11.23-.06a1.36,1.36,0,0,0,.29-.29,4.57,4.57,0,0,0-.12-1.28,4.47,4.47,0,0,0-1.11-2,1.51,1.51,0,0,0-1-.52,5.6,5.6,0,0,0-2,.17,6.09,6.09,0,0,0-2.68,1.8c-.06.12-.17.23-.17.35a5.76,5.76,0,0,0-.46,1c0,.06-.06.12-.06.17s.06.23.17.23a.87.87,0,0,0,.41.17c.58-.06,1.22-.06,1.86-.06a.52.52,0,0,0,.29-.06c.17,0,.23-.06.35-.23V4.6a2.4,2.4,0,0,1,.64-1.34A1.05,1.05,0,0,1,66,3.32a3.56,3.56,0,0,1,.41.58c.17.41.35.81.52,1.16.06.06.17.12.23.17s.29.06.41.12A1.2,1.2,0,0,1,68.18,5.36Zm-2.44-.12c.17,0,.23-.17.29-.29a2,2,0,0,0-.52-.81c0-.06-.17-.06-.29,0a1.63,1.63,0,0,0-.58.81s.06.17.12.17a1.69,1.69,0,0,0,.52.12C65.44,5.24,65.62,5.3,65.74,5.24Zm7,.12a.54.54,0,0,0,.52-.29.44.44,0,0,0,.06-.23,1.79,1.79,0,0,1,1.11-1,1.06,1.06,0,0,1,1.28.47c.12.12.12.29.23.41l.29.29a.39.39,0,0,0,.41.12c.12-.12.29-.17.41-.29a.39.39,0,0,0,.12-.41c0-.06-.06-.12-.06-.17a3.55,3.55,0,0,0-.76-.87,4.09,4.09,0,0,0-1.57-.64,3.49,3.49,0,0,0-1.34.12A8.29,8.29,0,0,0,70,4.66c-.06.06-.17.23-.23.29s0,.35.12.35.47.06.7.12A13.15,13.15,0,0,0,72.78,5.36ZM75,5.24a.13.13,0,0,0,.12-.12.53.53,0,0,0-.23-.47.35.35,0,0,0-.47,0,2.67,2.67,0,0,0-.41.41c-.06.06,0,.12,0,.17s0,.06.06.06a.44.44,0,0,0,.29.06C74.52,5.3,74.76,5.36,75,5.24Z"/><path class="cls-1" d="M83.31,6.35c-1,0-2.44.06-3,0s-2-.06-2.5-.06S78,5.48,78,5.13a3,3,0,0,1,.46-2,10.22,10.22,0,0,1,.93-1.28,2.89,2.89,0,0,1,1.4-.7,4.84,4.84,0,0,1,2.85.41,2.7,2.7,0,0,1,.52.35,6.07,6.07,0,0,1,1,1.11,1.52,1.52,0,0,0,.29.35c.06.06.29.06.29,0A5.13,5.13,0,0,0,86,2.8a5.25,5.25,0,0,1,.81-1.16A4.17,4.17,0,0,1,89.37.36a2.38,2.38,0,0,1,1.4.23A3.93,3.93,0,0,1,92.33,2.1a5.8,5.8,0,0,0,.47.81.24.24,0,0,0,.47,0l.17-.17A4.81,4.81,0,0,1,95.59.88,6.78,6.78,0,0,1,99.08,0a2.85,2.85,0,0,1,2.68,1.75c.12.29.23.64.35,1,.06.17.35.17.47,0a1.05,1.05,0,0,0,.29-.41l.35-.52a3.82,3.82,0,0,1,4-1.4A2.68,2.68,0,0,1,109,1.58c.29.41.52.81.81,1.22a3.3,3.3,0,0,0,.35.47.48.48,0,0,0,.47.12c.12-.06.23-.17.35-.23l1.16-1a3.88,3.88,0,0,1,2.09-.81c.7,0,1.4-.12,2.1-.06A3.45,3.45,0,0,1,118,2c.29.35.52.58.76.87a3.55,3.55,0,0,1,.47.47c.12.12.35-.17.58-.29s.29-.23.35-.41a6.35,6.35,0,0,1,1.51-1.28A4.83,4.83,0,0,1,124.4.47c.23,0,.47-.06.7-.06a2.47,2.47,0,0,1,2,.81A6.84,6.84,0,0,1,128.18,3c.12.29.17.47.29.7a.27.27,0,0,0,.35.06c.17,0,.29-.12.47-.23.47-.29.82-.52,1.22-.81a6.44,6.44,0,0,1,2.91-.81,2.58,2.58,0,0,1,2,.41,3.27,3.27,0,0,1,.76.47,2,2,0,0,1,.82.87c.17.41.7.76.81,1.16s.23,1.51-.12,1.51-1.63-.06-1.86,0a4.42,4.42,0,0,1-.87.06h-2.27c-1.57,0-3.08-.06-4.6-.12s-3,0-4.42-.06h-.06a17.88,17.88,0,0,0-4.66.23,1,1,0,0,0-.58,0h-.64a19.5,19.5,0,0,0-3.9-.06c-3.67.06-9.6.23-15.07,0a7.44,7.44,0,0,1-1.11.06H94c-1,0-2,.06-3,.06C88.43,6.47,85.87,6.41,83.31,6.35Zm1.4-.87h.23A.47.47,0,0,0,85.23,5a.06.06,0,0,1-.06-.06,7.5,7.5,0,0,0-1.28-2,.58.58,0,0,0-.29-.23A3.92,3.92,0,0,0,82.27,2a2.29,2.29,0,0,0-2.68,1l-.52.87a3.36,3.36,0,0,0-.23.81c0,.12.06.29.06.41a.7.7,0,0,0,.29.29,1.7,1.7,0,0,0,.93-.06A.44.44,0,0,0,80.4,5a1.13,1.13,0,0,1,.06-.41,1.38,1.38,0,0,1,.93-1.34.82.82,0,0,1,.81,0,2.78,2.78,0,0,1,.58.58l.87,1.4a.65.65,0,0,0,.46.29.63.63,0,0,1,.29.06A.52.52,0,0,1,84.71,5.48Zm-2.56-.06A.27.27,0,0,0,82.32,5c-.12-.23-.17-.41-.29-.64a.38.38,0,0,0-.64,0,2,2,0,0,0-.23.52.4.4,0,0,0,.35.52.44.44,0,0,0,.29.06C81.86,5.48,82,5.42,82.15,5.42Zm5.3,0a.26.26,0,0,0,.17-.23.43.43,0,0,0,.06-.29,2,2,0,0,1,.58-1.28A1.68,1.68,0,0,1,89.6,3a1.32,1.32,0,0,1,1.22.64l.35.87c.12.23.17.47.29.7a.53.53,0,0,0,.64.17c.12,0,.23-.23.23-.41s.06-.12,0-.17L92,3.27a2.88,2.88,0,0,0-1.34-1.75,1.53,1.53,0,0,0-1.11-.29,3.6,3.6,0,0,0-2.15,1.16A5.14,5.14,0,0,0,86.4,5c0,.29.12.47.41.47A2.39,2.39,0,0,0,87.45,5.42Zm2,.12c.12,0,.41-.06.76-.06.06-.06.23-.23.17-.35a1.83,1.83,0,0,0-.35-.93.66.66,0,0,0-.93-.12,1.89,1.89,0,0,0-.58,1c-.06.17.06.41.23.41Zm6.23-.06c.23,0,.41-.17.46-.47a2.9,2.9,0,0,1,.93-1.69,2,2,0,0,1,1.69-.58.94.94,0,0,1,.76.35,3,3,0,0,1,.7,1.16c.12.23.17.41.29.64a.75.75,0,0,0,1,.41.33.33,0,0,0,.29-.35V4.43a13.25,13.25,0,0,1-.47-1.63,4.55,4.55,0,0,0-.64-1.16A1.5,1.5,0,0,0,99.9,1,2.22,2.22,0,0,0,98.74.88,7.3,7.3,0,0,0,97,1.17a5.42,5.42,0,0,0-2.39,1.51,7.42,7.42,0,0,0-1,1.57c-.06.17-.17.41-.23.64a.45.45,0,0,0,.29.58A7.92,7.92,0,0,0,95.71,5.48Zm2.39,0h.35c.23,0,.52-.06.76-.06A.4.4,0,0,0,99.49,5,2.35,2.35,0,0,0,99,3.85a.59.59,0,0,0-.58-.23,1.33,1.33,0,0,0-1,.47,5.31,5.31,0,0,0-.64.93c-.06.23.06.47.29.47Zm6.58-.17c.35,0,.52-.17.52-.58a1.6,1.6,0,0,1,0-.52,2.53,2.53,0,0,1,.06-.29,2.34,2.34,0,0,1,.76-.76,1.09,1.09,0,0,1,1.4.35c.06.17.17.41.23.58L108,5a.51.51,0,0,0,.52.29c.06.06.12.06.23.06a1.72,1.72,0,0,0,.76-.12.44.44,0,0,0,.29-.41.74.74,0,0,0-.06-.35A9.3,9.3,0,0,0,108.4,2.1a2.18,2.18,0,0,0-1.63-.87A2.81,2.81,0,0,0,104,2.39a6,6,0,0,0-1.11,2.39.36.36,0,0,0,.29.52A13.14,13.14,0,0,0,104.67,5.3Zm2.15-.06c.12-.06.23-.23.17-.35a1.73,1.73,0,0,0-.29-.87A.28.28,0,0,0,106.3,4c-.06.06-.12.06-.17.12a2.14,2.14,0,0,0-.41.81c-.06.12.06.35.17.35a2,2,0,0,0,.35.06C106.42,5.3,106.59,5.24,106.83,5.24Zm11.87.12a.3.3,0,0,0,.23-.12c.17-.29.23-.58,0-.81a6.64,6.64,0,0,0-1.63-1.75,1.54,1.54,0,0,0-1.11-.52,8.59,8.59,0,0,0-1.22,0,4.15,4.15,0,0,0-2.39.76,16,16,0,0,0-1.46,1.34A.91.91,0,0,0,111,5a.39.39,0,0,0,.23.29,8.62,8.62,0,0,0,2.44.06.06.06,0,0,0,.06-.06c.06-.06.17-.06.23-.17s.06-.35.12-.52a.89.89,0,0,1,.41-.7,6.15,6.15,0,0,1,.64-.47,1,1,0,0,1,1.11.06,4.77,4.77,0,0,1,.58.52c.17.23.35.52.58.87.12.12.12.29.29.35s.29.17.41.35C118.29,5.48,118.52,5.42,118.7,5.36Zm-2.5.06a.3.3,0,0,0,.29-.47,2.1,2.1,0,0,0-.41-.58.62.62,0,0,0-.76-.12,5.07,5.07,0,0,0-.87.76c-.06.06.06.29.17.29a1.15,1.15,0,0,0,.58.12A2.83,2.83,0,0,0,116.2,5.42Zm11.23-.06a1.36,1.36,0,0,0,.29-.29,4.57,4.57,0,0,0-.12-1.28,4.47,4.47,0,0,0-1.11-2,1.51,1.51,0,0,0-1-.52,5.6,5.6,0,0,0-2,.17,6.09,6.09,0,0,0-2.68,1.8c-.06.12-.17.23-.17.35a5.76,5.76,0,0,0-.46,1c0,.06-.06.12-.06.17s.06.23.17.23a.87.87,0,0,0,.41.17c.58-.06,1.22-.06,1.86-.06a.52.52,0,0,0,.29-.06c.17,0,.23-.06.35-.23V4.6a2.4,2.4,0,0,1,.64-1.34,1.05,1.05,0,0,1,1.34.06,3.56,3.56,0,0,1,.41.58c.17.41.35.81.52,1.16.06.06.17.12.23.17s.29.06.41.12A1.2,1.2,0,0,1,127.43,5.36ZM125,5.24c.17,0,.23-.17.29-.29a2,2,0,0,0-.52-.81c0-.06-.17-.06-.29,0a1.63,1.63,0,0,0-.58.81s.06.17.12.17a1.69,1.69,0,0,0,.52.12C124.69,5.24,124.87,5.3,125,5.24Zm7,.12a.54.54,0,0,0,.52-.29.44.44,0,0,0,.06-.23,1.79,1.79,0,0,1,1.11-1,1.06,1.06,0,0,1,1.28.47c.12.12.12.29.23.41l.29.29a.39.39,0,0,0,.41.12c.12-.12.29-.17.41-.29a.39.39,0,0,0,.12-.41c0-.06-.06-.12-.06-.17a3.55,3.55,0,0,0-.76-.87,4.09,4.09,0,0,0-1.57-.64,3.49,3.49,0,0,0-1.34.12,8.29,8.29,0,0,0-3.43,1.86c-.06.06-.17.23-.23.29s0,.35.12.35.47.06.7.12A13.15,13.15,0,0,0,132,5.36Zm2.21-.12a.13.13,0,0,0,.12-.12.53.53,0,0,0-.23-.47.35.35,0,0,0-.47,0,2.67,2.67,0,0,0-.41.41c-.06.06,0,.12,0,.17s0,.06.06.06a.44.44,0,0,0,.29.06C133.77,5.3,134,5.36,134.24,5.24Z"/><path class="cls-1" d="M72.92,34.75c1,0,2.44-.06,3,0s2,.06,2.5.06-.17.81-.17,1.16a3,3,0,0,1-.46,2,10.22,10.22,0,0,1-.93,1.28,2.89,2.89,0,0,1-1.4.7,4.84,4.84,0,0,1-2.85-.41,2.7,2.7,0,0,1-.52-.35,6.07,6.07,0,0,1-1-1.11,1.52,1.52,0,0,0-.29-.35c-.06-.06-.29-.06-.29,0a5.13,5.13,0,0,0-.35.58,5.25,5.25,0,0,1-.81,1.16,4.17,4.17,0,0,1-2.5,1.28,2.38,2.38,0,0,1-1.4-.23A3.93,3.93,0,0,1,63.9,39a5.8,5.8,0,0,0-.47-.81.24.24,0,0,0-.47,0l-.17.17a4.81,4.81,0,0,1-2.15,1.86,6.78,6.78,0,0,1-3.49.87,2.85,2.85,0,0,1-2.68-1.75c-.12-.29-.23-.64-.35-1-.06-.17-.35-.17-.47,0a1.05,1.05,0,0,0-.29.41l-.35.52a3.82,3.82,0,0,1-4,1.4,2.68,2.68,0,0,1-1.8-1.16c-.29-.41-.52-.81-.81-1.22a3.3,3.3,0,0,0-.35-.47.48.48,0,0,0-.47-.12c-.12.06-.23.17-.35.23l-1.16,1a3.88,3.88,0,0,1-2.09.81c-.7,0-1.4.12-2.1.06a3.45,3.45,0,0,1-1.69-.76c-.29-.35-.52-.58-.76-.87a3.55,3.55,0,0,1-.47-.47c-.12-.12-.35.17-.58.29s-.29.23-.35.41a6.35,6.35,0,0,1-1.51,1.28,4.83,4.83,0,0,1-2.74.93c-.23,0-.47.06-.7.06a2.47,2.47,0,0,1-2-.81A6.84,6.84,0,0,1,28,38.13c-.12-.29-.17-.47-.29-.7a.27.27,0,0,0-.35-.06c-.17,0-.29.12-.47.23-.47.29-.82.52-1.22.81a6.44,6.44,0,0,1-2.91.81,2.58,2.58,0,0,1-2-.41,3.27,3.27,0,0,1-.76-.47,2,2,0,0,1-.82-.87c-.17-.41-.7-.76-.81-1.16s-.23-1.51.12-1.51,1.63.06,1.86,0a4.42,4.42,0,0,1,.87-.06h2.27c1.57,0,3.08.06,4.6.12s3,0,4.42.06h.06a17.88,17.88,0,0,0,4.66-.23,1,1,0,0,0,.58,0h.64a19.5,19.5,0,0,0,3.9.06c3.67-.06,9.6-.23,15.07,0a7.44,7.44,0,0,1,1.11-.06h3.61c1,0,2-.06,3-.06C67.8,34.63,70.36,34.69,72.92,34.75Zm-1.4.87h-.23a.47.47,0,0,0-.29.52.06.06,0,0,1,.06.06,7.5,7.5,0,0,0,1.28,2,.58.58,0,0,0,.29.23,3.92,3.92,0,0,0,1.34.58,2.29,2.29,0,0,0,2.68-1l.52-.87a3.36,3.36,0,0,0,.23-.81c0-.12-.06-.29-.06-.41a.7.7,0,0,0-.29-.29,1.7,1.7,0,0,0-.93.06.44.44,0,0,0-.29.41,1.13,1.13,0,0,1-.06.41,1.38,1.38,0,0,1-.93,1.34.82.82,0,0,1-.81,0,2.78,2.78,0,0,1-.58-.58l-.87-1.4a.65.65,0,0,0-.46-.29.63.63,0,0,1-.29-.06A.52.52,0,0,1,71.52,35.62Zm2.56.06a.27.27,0,0,0-.17.41c.12.23.17.41.29.64a.38.38,0,0,0,.64,0,2,2,0,0,0,.23-.52.4.4,0,0,0-.35-.52.44.44,0,0,0-.29-.06C74.37,35.62,74.2,35.68,74.08,35.68Zm-5.3,0a.26.26,0,0,0-.17.23.43.43,0,0,0-.06.29A2,2,0,0,1,68,37.49a1.68,1.68,0,0,1-1.34.58,1.32,1.32,0,0,1-1.22-.64l-.35-.87c-.12-.23-.17-.47-.29-.7a.53.53,0,0,0-.64-.17c-.12,0-.23.23-.23.41s-.06.12,0,.17l.35,1.57a2.88,2.88,0,0,0,1.34,1.75,1.53,1.53,0,0,0,1.11.29,3.6,3.6,0,0,0,2.15-1.16,5.14,5.14,0,0,0,1-2.62c0-.29-.12-.47-.41-.47A2.39,2.39,0,0,0,68.79,35.68Zm-2-.12c-.12,0-.41.06-.76.06-.06.06-.23.23-.17.35a1.83,1.83,0,0,0,.35.93.66.66,0,0,0,.93.12,1.89,1.89,0,0,0,.58-1c.06-.17-.06-.41-.23-.41Zm-6.23.06c-.23,0-.41.17-.46.47a2.9,2.9,0,0,1-.93,1.69,2,2,0,0,1-1.69.58.94.94,0,0,1-.76-.35,3,3,0,0,1-.7-1.16c-.12-.23-.17-.41-.29-.64a.75.75,0,0,0-1-.41.33.33,0,0,0-.29.35v.52a13.25,13.25,0,0,1,.47,1.63,4.55,4.55,0,0,0,.64,1.16,1.5,1.5,0,0,0,.82.64,2.22,2.22,0,0,0,1.16.12,7.3,7.3,0,0,0,1.69-.29,5.42,5.42,0,0,0,2.39-1.51,7.42,7.42,0,0,0,1-1.57c.06-.17.17-.41.23-.64a.45.45,0,0,0-.29-.58A7.92,7.92,0,0,0,60.52,35.62Zm-2.39,0h-.35c-.23,0-.52.06-.76.06a.4.4,0,0,0-.29.47,2.35,2.35,0,0,0,.47,1.11.59.59,0,0,0,.58.23,1.33,1.33,0,0,0,1-.47,5.31,5.31,0,0,0,.64-.93c.06-.23-.06-.47-.29-.47Zm-6.58.17c-.35,0-.52.17-.52.58a1.6,1.6,0,0,1,0,.52,2.53,2.53,0,0,1-.06.29,2.34,2.34,0,0,1-.76.76,1.09,1.09,0,0,1-1.4-.35c-.06-.17-.17-.41-.23-.58l-.35-.87a.51.51,0,0,0-.52-.29c-.06-.06-.12-.06-.23-.06a1.72,1.72,0,0,0-.76.12.44.44,0,0,0-.29.41.74.74,0,0,0,.06.35A9.3,9.3,0,0,0,47.83,39a2.18,2.18,0,0,0,1.63.87,2.81,2.81,0,0,0,2.79-1.16,6,6,0,0,0,1.11-2.39.36.36,0,0,0-.29-.52A13.14,13.14,0,0,0,51.56,35.8Zm-2.15.06c-.12.06-.23.23-.17.35a1.73,1.73,0,0,0,.29.87.28.28,0,0,0,.41.06c.06-.06.12-.06.17-.12a2.14,2.14,0,0,0,.41-.81c.06-.12-.06-.35-.17-.35A2,2,0,0,0,50,35.8C49.81,35.8,49.64,35.86,49.41,35.86Zm-11.87-.12a.3.3,0,0,0-.23.12c-.17.29-.23.58,0,.81a6.64,6.64,0,0,0,1.63,1.75,1.54,1.54,0,0,0,1.11.52,8.59,8.59,0,0,0,1.22,0,4.15,4.15,0,0,0,2.39-.76,16,16,0,0,0,1.46-1.34.91.91,0,0,0,.17-.7.39.39,0,0,0-.23-.29,8.62,8.62,0,0,0-2.44-.06.06.06,0,0,0-.06.06c-.06.06-.17.06-.23.17s-.06.35-.12.52a.89.89,0,0,1-.41.7,6.15,6.15,0,0,1-.64.47A1,1,0,0,1,40,37.66a4.77,4.77,0,0,1-.58-.52c-.17-.23-.35-.52-.58-.87-.12-.12-.12-.29-.29-.35s-.29-.17-.41-.35C37.94,35.62,37.71,35.68,37.53,35.74Zm2.5-.06a.3.3,0,0,0-.29.47,2.1,2.1,0,0,0,.41.58.62.62,0,0,0,.76.12,5.07,5.07,0,0,0,.87-.76c.06-.06-.06-.29-.17-.29a1.15,1.15,0,0,0-.58-.12A2.83,2.83,0,0,0,40,35.68Zm-11.23.06a1.36,1.36,0,0,0-.29.29,4.57,4.57,0,0,0,.12,1.28,4.47,4.47,0,0,0,1.11,2,1.51,1.51,0,0,0,1,.52,5.6,5.6,0,0,0,2-.17,6.09,6.09,0,0,0,2.68-1.8c.06-.12.17-.23.17-.35a5.76,5.76,0,0,0,.46-1c0-.06.06-.12.06-.17S36,36,35.9,36a.87.87,0,0,0-.41-.17c-.58.06-1.22.06-1.86.06a.52.52,0,0,0-.29.06c-.17,0-.23.06-.35.23v.29a2.4,2.4,0,0,1-.64,1.34A1.05,1.05,0,0,1,31,37.78a3.56,3.56,0,0,1-.41-.58c-.17-.41-.35-.81-.52-1.16-.06-.06-.17-.12-.23-.17s-.29-.06-.41-.12A1.2,1.2,0,0,1,28.8,35.74Zm2.44.12c-.17,0-.23.17-.29.29a2,2,0,0,0,.52.81c0,.06.17.06.29,0a1.63,1.63,0,0,0,.58-.81S32.3,36,32.24,36a1.69,1.69,0,0,0-.52-.12C31.54,35.86,31.36,35.8,31.25,35.86Zm-7-.12a.54.54,0,0,0-.52.29.44.44,0,0,0-.06.23,1.79,1.79,0,0,1-1.11,1,1.06,1.06,0,0,1-1.28-.47c-.12-.12-.12-.29-.23-.41l-.29-.29a.39.39,0,0,0-.41-.12c-.12.12-.29.17-.41.29a.39.39,0,0,0-.12.41c0,.06.06.12.06.17a3.55,3.55,0,0,0,.76.87,4.09,4.09,0,0,0,1.57.64,3.49,3.49,0,0,0,1.34-.12,8.29,8.29,0,0,0,3.43-1.86c.06-.06.17-.23.23-.29s0-.35-.12-.35-.47-.06-.7-.12A13.15,13.15,0,0,0,24.21,35.74ZM22,35.86a.13.13,0,0,0-.12.12.53.53,0,0,0,.23.47.35.35,0,0,0,.47,0A2.67,2.67,0,0,0,23,36c.06-.06,0-.12,0-.17s0-.06-.06-.06a.44.44,0,0,0-.29-.06C22.46,35.8,22.23,35.74,22,35.86Z"/><path class="cls-1" d="M132.16,34.75c1,0,2.44-.06,3,0s2,.06,2.5.06-.17.81-.17,1.16a3,3,0,0,1-.46,2,10.22,10.22,0,0,1-.93,1.28,2.89,2.89,0,0,1-1.4.7,4.84,4.84,0,0,1-2.85-.41,2.7,2.7,0,0,1-.52-.35,6.07,6.07,0,0,1-1-1.11,1.52,1.52,0,0,0-.29-.35c-.06-.06-.29-.06-.29,0a5.13,5.13,0,0,0-.35.58,5.25,5.25,0,0,1-.81,1.16,4.17,4.17,0,0,1-2.5,1.28,2.38,2.38,0,0,1-1.4-.23A3.93,3.93,0,0,1,123.14,39a5.8,5.8,0,0,0-.47-.81.24.24,0,0,0-.47,0l-.17.17a4.81,4.81,0,0,1-2.15,1.86,6.78,6.78,0,0,1-3.49.87,2.85,2.85,0,0,1-2.68-1.75c-.12-.29-.23-.64-.35-1-.06-.17-.35-.17-.47,0a1.05,1.05,0,0,0-.29.41l-.35.52a3.82,3.82,0,0,1-4,1.4,2.68,2.68,0,0,1-1.8-1.16c-.29-.41-.52-.81-.81-1.22a3.3,3.3,0,0,0-.35-.47.48.48,0,0,0-.47-.12c-.12.06-.23.17-.35.23l-1.16,1a3.88,3.88,0,0,1-2.09.81c-.7,0-1.4.12-2.1.06a3.45,3.45,0,0,1-1.69-.76c-.29-.35-.52-.58-.76-.87a3.55,3.55,0,0,1-.47-.47c-.12-.12-.35.17-.58.29s-.29.23-.35.41a6.35,6.35,0,0,1-1.51,1.28,4.83,4.83,0,0,1-2.74.93c-.23,0-.47.06-.7.06a2.47,2.47,0,0,1-2-.81,6.84,6.84,0,0,1-1.11-1.75c-.12-.29-.17-.47-.29-.7a.27.27,0,0,0-.35-.06c-.17,0-.29.12-.47.23-.47.29-.82.52-1.22.81a6.44,6.44,0,0,1-2.91.81,2.58,2.58,0,0,1-2-.41,3.27,3.27,0,0,1-.76-.47,2,2,0,0,1-.82-.87c-.17-.41-.7-.76-.81-1.16s-.23-1.51.12-1.51,1.63.06,1.86,0a4.42,4.42,0,0,1,.87-.06h2.27c1.57,0,3.08.06,4.6.12s3,0,4.42.06h.06a17.88,17.88,0,0,0,4.66-.23,1,1,0,0,0,.58,0h.64a19.5,19.5,0,0,0,3.9.06c3.67-.06,9.6-.23,15.07,0a7.44,7.44,0,0,1,1.11-.06h3.61c1,0,2-.06,3-.06C127,34.63,129.6,34.69,132.16,34.75Zm-1.4.87h-.23a.47.47,0,0,0-.29.52.06.06,0,0,1,.06.06,7.5,7.5,0,0,0,1.28,2,.58.58,0,0,0,.29.23,3.92,3.92,0,0,0,1.34.58,2.29,2.29,0,0,0,2.68-1l.52-.87a3.36,3.36,0,0,0,.23-.81c0-.12-.06-.29-.06-.41a.7.7,0,0,0-.29-.29,1.7,1.7,0,0,0-.93.06.44.44,0,0,0-.29.41,1.13,1.13,0,0,1-.06.41,1.38,1.38,0,0,1-.93,1.34.82.82,0,0,1-.81,0,2.78,2.78,0,0,1-.58-.58l-.87-1.4a.65.65,0,0,0-.46-.29.63.63,0,0,1-.29-.06A.52.52,0,0,1,130.77,35.62Zm2.56.06a.27.27,0,0,0-.17.41c.12.23.17.41.29.64a.38.38,0,0,0,.64,0,2,2,0,0,0,.23-.52.4.4,0,0,0-.35-.52.44.44,0,0,0-.29-.06C133.62,35.62,133.44,35.68,133.33,35.68Zm-5.3,0a.26.26,0,0,0-.17.23.43.43,0,0,0-.06.29,2,2,0,0,1-.58,1.28,1.68,1.68,0,0,1-1.34.58,1.32,1.32,0,0,1-1.22-.64l-.35-.87c-.12-.23-.17-.47-.29-.7a.53.53,0,0,0-.64-.17c-.12,0-.23.23-.23.41s-.06.12,0,.17l.35,1.57a2.88,2.88,0,0,0,1.34,1.75,1.53,1.53,0,0,0,1.11.29,3.6,3.6,0,0,0,2.15-1.16,5.14,5.14,0,0,0,1-2.62c0-.29-.12-.47-.41-.47A2.39,2.39,0,0,0,128,35.68Zm-2-.12c-.12,0-.41.06-.76.06-.06.06-.23.23-.17.35a1.83,1.83,0,0,0,.35.93.66.66,0,0,0,.93.12,1.89,1.89,0,0,0,.58-1c.06-.17-.06-.41-.23-.41Zm-6.23.06c-.23,0-.41.17-.46.47a2.9,2.9,0,0,1-.93,1.69,2,2,0,0,1-1.69.58.94.94,0,0,1-.76-.35,3,3,0,0,1-.7-1.16c-.12-.23-.17-.41-.29-.64a.75.75,0,0,0-1-.41.33.33,0,0,0-.29.35v.52a13.25,13.25,0,0,1,.47,1.63,4.55,4.55,0,0,0,.64,1.16,1.5,1.5,0,0,0,.82.64,2.22,2.22,0,0,0,1.16.12,7.3,7.3,0,0,0,1.69-.29,5.42,5.42,0,0,0,2.39-1.51,7.42,7.42,0,0,0,1-1.57c.06-.17.17-.41.23-.64a.45.45,0,0,0-.29-.58A7.92,7.92,0,0,0,119.77,35.62Zm-2.39,0H117c-.23,0-.52.06-.76.06a.4.4,0,0,0-.29.47,2.35,2.35,0,0,0,.47,1.11.59.59,0,0,0,.58.23,1.33,1.33,0,0,0,1-.47,5.31,5.31,0,0,0,.64-.93c.06-.23-.06-.47-.29-.47Zm-6.58.17c-.35,0-.52.17-.52.58a1.6,1.6,0,0,1,0,.52,2.53,2.53,0,0,1-.06.29,2.34,2.34,0,0,1-.76.76,1.09,1.09,0,0,1-1.4-.35c-.06-.17-.17-.41-.23-.58l-.35-.87a.51.51,0,0,0-.52-.29c-.06-.06-.12-.06-.23-.06a1.72,1.72,0,0,0-.76.12.44.44,0,0,0-.29.41.74.74,0,0,0,.06.35A9.3,9.3,0,0,0,107.08,39a2.18,2.18,0,0,0,1.63.87,2.81,2.81,0,0,0,2.79-1.16,6,6,0,0,0,1.11-2.39.36.36,0,0,0-.29-.52A13.14,13.14,0,0,0,110.81,35.8Zm-2.15.06c-.12.06-.23.23-.17.35a1.73,1.73,0,0,0,.29.87.28.28,0,0,0,.41.06c.06-.06.12-.06.17-.12a2.14,2.14,0,0,0,.41-.81c.06-.12-.06-.35-.17-.35a2,2,0,0,0-.35-.06C109.06,35.8,108.88,35.86,108.65,35.86Zm-11.87-.12a.3.3,0,0,0-.23.12c-.17.29-.23.58,0,.81a6.64,6.64,0,0,0,1.63,1.75,1.54,1.54,0,0,0,1.11.52,8.59,8.59,0,0,0,1.22,0,4.15,4.15,0,0,0,2.39-.76,16,16,0,0,0,1.46-1.34.91.91,0,0,0,.17-.7.39.39,0,0,0-.23-.29,8.62,8.62,0,0,0-2.44-.06.06.06,0,0,0-.06.06c-.06.06-.17.06-.23.17s-.06.35-.12.52a.89.89,0,0,1-.41.7,6.15,6.15,0,0,1-.64.47,1,1,0,0,1-1.11-.06,4.77,4.77,0,0,1-.58-.52c-.17-.23-.35-.52-.58-.87-.12-.12-.12-.29-.29-.35s-.29-.17-.41-.35C97.19,35.62,97,35.68,96.78,35.74Zm2.5-.06a.3.3,0,0,0-.29.47,2.1,2.1,0,0,0,.41.58.62.62,0,0,0,.76.12,5.07,5.07,0,0,0,.87-.76c.06-.06-.06-.29-.17-.29a1.15,1.15,0,0,0-.58-.12A2.83,2.83,0,0,0,99.28,35.68Zm-11.23.06a1.36,1.36,0,0,0-.29.29,4.57,4.57,0,0,0,.12,1.28,4.47,4.47,0,0,0,1.11,2,1.51,1.51,0,0,0,1,.52,5.6,5.6,0,0,0,2-.17,6.09,6.09,0,0,0,2.68-1.8c.06-.12.17-.23.17-.35a5.76,5.76,0,0,0,.46-1c0-.06.06-.12.06-.17s-.06-.23-.17-.23a.87.87,0,0,0-.41-.17c-.58.06-1.22.06-1.86.06a.52.52,0,0,0-.29.06c-.17,0-.23.06-.35.23v.29a2.4,2.4,0,0,1-.64,1.34,1.05,1.05,0,0,1-1.34-.06,3.56,3.56,0,0,1-.41-.58c-.17-.41-.35-.81-.52-1.16-.06-.06-.17-.12-.23-.17s-.29-.06-.41-.12A1.2,1.2,0,0,1,88.05,35.74Zm2.44.12c-.17,0-.23.17-.29.29a2,2,0,0,0,.52.81c0,.06.17.06.29,0a1.63,1.63,0,0,0,.58-.81s-.06-.17-.12-.17a1.69,1.69,0,0,0-.52-.12C90.79,35.86,90.61,35.8,90.49,35.86Zm-7-.12a.54.54,0,0,0-.52.29.44.44,0,0,0-.06.23,1.79,1.79,0,0,1-1.11,1,1.06,1.06,0,0,1-1.28-.47c-.12-.12-.12-.29-.23-.41L80,36.15a.39.39,0,0,0-.41-.12c-.12.12-.29.17-.41.29a.39.39,0,0,0-.12.41c0,.06.06.12.06.17a3.55,3.55,0,0,0,.76.87,4.09,4.09,0,0,0,1.57.64,3.49,3.49,0,0,0,1.34-.12,8.29,8.29,0,0,0,3.43-1.86c.06-.06.17-.23.23-.29s0-.35-.12-.35-.47-.06-.7-.12A13.15,13.15,0,0,0,83.45,35.74Zm-2.21.12a.13.13,0,0,0-.12.12.53.53,0,0,0,.23.47.35.35,0,0,0,.47,0,2.67,2.67,0,0,0,.41-.41c.06-.06,0-.12,0-.17s0-.06-.06-.06a.44.44,0,0,0-.29-.06C81.71,35.8,81.47,35.74,81.24,35.86Z"/><path class="cls-2" d="M.24,15.18a.27.27,0,0,1-.19-.1A.27.27,0,0,1,0,14.92a.22.22,0,0,1,.07-.15.25.25,0,0,1,.2-.07q1,0,2,0t2,0a.29.29,0,0,1,.16.11.23.23,0,0,1,0,.15.25.25,0,0,1-.06.14.23.23,0,0,1-.16.08q-1,0-2,0T.24,15.18ZM2,14.81a.11.11,0,0,1,.09-.08l.17,0,.17,0c.05,0,.08,0,.09.07q0,1.09,0,2.12V21q0,1,0,2.1a.11.11,0,0,1-.07.1.36.36,0,0,1-.16,0,.42.42,0,0,1-.16,0,.12.12,0,0,1-.08-.09Q2,22,2,21t0-2V14.81Z"/><path class="cls-2" d="M8,21.86a.18.18,0,0,1,.13-.11.26.26,0,0,1,.16,0,.23.23,0,0,1,.11.11.2.2,0,0,1,0,.16,2.56,2.56,0,0,1-.38.41,2.75,2.75,0,0,1-.53.37,3.33,3.33,0,0,1-.65.26,2.29,2.29,0,0,1-.72.09A2.52,2.52,0,0,1,5,22.93a2.2,2.2,0,0,1-.76-.63,2.31,2.31,0,0,1-.4-.88,3.27,3.27,0,0,1-.07-1,3.93,3.93,0,0,1,.22-1,3.25,3.25,0,0,1,.49-.9,2.61,2.61,0,0,1,.73-.65,2.06,2.06,0,0,1,.94-.29,2.45,2.45,0,0,1,1.28.32,2.67,2.67,0,0,1,.88.84.22.22,0,0,1-.11.25.23.23,0,0,1-.27,0,2.23,2.23,0,0,0-.73-.67,1.82,1.82,0,0,0-1-.24,1.43,1.43,0,0,0-.92.37,2.64,2.64,0,0,0-.65.88,3.42,3.42,0,0,0-.31,1.13,2.75,2.75,0,0,0,.11,1.13A1.72,1.72,0,0,0,6.1,22.77a2.12,2.12,0,0,0,.57-.08,2.55,2.55,0,0,0,.53-.21,3,3,0,0,0,.45-.29A2,2,0,0,0,8,21.86ZM4.56,18.71q.9,0,1.78,0t1.78,0a.29.29,0,0,1,.16.11.23.23,0,0,1,0,.15.25.25,0,0,1-.06.14.23.23,0,0,1-.16.08q-.94,0-1.87,0t-1.87,0ZM6.9,16.2A.33.33,0,0,0,7,16a.23.23,0,0,0-.07-.16.22.22,0,0,0-.15-.07.26.26,0,0,0-.19.08L6,16.33l-.55.52a.31.31,0,0,0,0,.18.24.24,0,0,0,.07.14.24.24,0,0,0,.14.07.24.24,0,0,0,.17,0l.55-.52Z"/><path class="cls-2" d="M9.18,14.81a.11.11,0,0,1,.09-.08l.17,0,.17,0c.05,0,.08,0,.09.07q0,1.09,0,2.12t0,2v2q0,1,0,2.1a.11.11,0,0,1-.07.1.36.36,0,0,1-.16,0,.43.43,0,0,1-.16,0,.13.13,0,0,1-.08-.09q0-1.07,0-2.1t0-2V14.81Z"/><path class="cls-2" d="M14.54,21.86a.18.18,0,0,1,.13-.11.26.26,0,0,1,.16,0,.23.23,0,0,1,.11.11.2.2,0,0,1,0,.16,2.56,2.56,0,0,1-.38.41,2.75,2.75,0,0,1-.53.37,3.33,3.33,0,0,1-.65.26,2.29,2.29,0,0,1-.72.09,2.52,2.52,0,0,1-1.14-.26,2.2,2.2,0,0,1-.76-.63,2.31,2.31,0,0,1-.4-.88,3.27,3.27,0,0,1-.07-1,3.93,3.93,0,0,1,.22-1,3.25,3.25,0,0,1,.49-.9,2.61,2.61,0,0,1,.73-.65,2.06,2.06,0,0,1,.94-.29,2.45,2.45,0,0,1,1.28.32,2.67,2.67,0,0,1,.88.84.22.22,0,0,1-.11.25.23.23,0,0,1-.27,0,2.23,2.23,0,0,0-.73-.67,1.82,1.82,0,0,0-1-.24,1.43,1.43,0,0,0-.92.37,2.64,2.64,0,0,0-.65.88,3.42,3.42,0,0,0-.31,1.13,2.75,2.75,0,0,0,.11,1.13,1.72,1.72,0,0,0,1.75,1.23,2.12,2.12,0,0,0,.57-.08,2.55,2.55,0,0,0,.53-.21,3,3,0,0,0,.45-.29A2,2,0,0,0,14.54,21.86Zm-3.42-3.16q.9,0,1.78,0t1.78,0a.29.29,0,0,1,.16.11.23.23,0,0,1,0,.15.25.25,0,0,1-.06.14.23.23,0,0,1-.16.08q-.94,0-1.87,0t-1.87,0Zm2.34-2.51a.33.33,0,0,0,.07-.2.23.23,0,0,0-.07-.16.22.22,0,0,0-.15-.07.26.26,0,0,0-.19.08l-.52.48-.55.52A.31.31,0,0,0,12,17a.24.24,0,0,0,.07.14.24.24,0,0,0,.14.07.24.24,0,0,0,.17,0l.55-.52Z"/><path class="cls-2" d="M19.64,21.86a.18.18,0,0,1,.13-.11.26.26,0,0,1,.16,0,.23.23,0,0,1,.11.11.2.2,0,0,1,0,.16,2.56,2.56,0,0,1-.38.41,2.75,2.75,0,0,1-.53.37,3.33,3.33,0,0,1-.65.26,2.29,2.29,0,0,1-.72.09,2.52,2.52,0,0,1-1.14-.26,2.2,2.2,0,0,1-.76-.63,2.31,2.31,0,0,1-.4-.88,3.27,3.27,0,0,1-.07-1,3.93,3.93,0,0,1,.22-1,3.25,3.25,0,0,1,.49-.9,2.61,2.61,0,0,1,.73-.65,2.06,2.06,0,0,1,.94-.29,2.45,2.45,0,0,1,1.28.32,2.67,2.67,0,0,1,.88.84.22.22,0,0,1-.11.25.23.23,0,0,1-.27,0,2.23,2.23,0,0,0-.73-.67,1.82,1.82,0,0,0-1-.24,1.43,1.43,0,0,0-.92.37,2.64,2.64,0,0,0-.65.88,3.42,3.42,0,0,0-.31,1.13A2.75,2.75,0,0,0,16,21.54a1.72,1.72,0,0,0,1.75,1.23,2.12,2.12,0,0,0,.57-.08,2.55,2.55,0,0,0,.53-.21,3,3,0,0,0,.45-.29A2,2,0,0,0,19.64,21.86Z"/><path class="cls-2" d="M20.53,14.81a.11.11,0,0,1,.09-.08l.17,0,.17,0c.05,0,.08,0,.09.07q0,1.09,0,2.12V21q0,1,0,2.1a.11.11,0,0,1-.07.1.36.36,0,0,1-.16,0,.42.42,0,0,1-.16,0,.12.12,0,0,1-.08-.09q0-1.07,0-2.1t0-2V14.81Zm.2,3.49a1.86,1.86,0,0,1,.42-.31,3.71,3.71,0,0,1,.54-.24,3,3,0,0,1,.58-.14,2.93,2.93,0,0,1,.55,0,1.89,1.89,0,0,1,1,.37,2.42,2.42,0,0,1,.66.8,3.88,3.88,0,0,1,.37,1.07A9.88,9.88,0,0,1,25,21q0,.6,0,1.15t0,.95s0,.06-.07.08l-.19,0a.43.43,0,0,1-.19,0,.11.11,0,0,1-.08-.1,12.6,12.6,0,0,0-.08-2.92,3.2,3.2,0,0,0-.67-1.63,1.36,1.36,0,0,0-1.19-.44,4,4,0,0,0-1.66.66c-.12.07-.19.09-.22.05a.22.22,0,0,1,0-.17c0-.08,0-.15,0-.23S20.74,18.3,20.74,18.3Z"/><path class="cls-2" d="M29.64,21.86a.18.18,0,0,1,.13-.11.26.26,0,0,1,.16,0,.23.23,0,0,1,.11.11.2.2,0,0,1,0,.16,2.56,2.56,0,0,1-.38.41,2.75,2.75,0,0,1-.53.37,3.33,3.33,0,0,1-.65.26,2.29,2.29,0,0,1-.72.09,2.52,2.52,0,0,1-1.14-.26,2.2,2.2,0,0,1-.76-.63,2.31,2.31,0,0,1-.4-.88,3.27,3.27,0,0,1-.07-1,3.93,3.93,0,0,1,.22-1,3.25,3.25,0,0,1,.49-.9,2.61,2.61,0,0,1,.73-.65,2.06,2.06,0,0,1,.94-.29,2.45,2.45,0,0,1,1.28.32,2.67,2.67,0,0,1,.88.84.22.22,0,0,1-.11.25.23.23,0,0,1-.27,0,2.23,2.23,0,0,0-.73-.67,1.82,1.82,0,0,0-1-.24,1.43,1.43,0,0,0-.92.37,2.64,2.64,0,0,0-.65.88,3.42,3.42,0,0,0-.31,1.13A2.75,2.75,0,0,0,26,21.54a1.72,1.72,0,0,0,1.75,1.23,2.12,2.12,0,0,0,.57-.08,2.55,2.55,0,0,0,.53-.21,3,3,0,0,0,.45-.29A2,2,0,0,0,29.64,21.86Zm0-4.22a.11.11,0,0,1,.09-.08l.17,0,.17,0c.05,0,.08,0,.09.07q0,.73,0,1.22t0,.85q0,.37,0,.67t0,.67q0,.37,0,.85t0,1.2a.11.11,0,0,1-.07.1.36.36,0,0,1-.16,0,.42.42,0,0,1-.16,0,.12.12,0,0,1-.08-.09q0-.71,0-1.19t0-.86q0-.37,0-.68V17.64Z"/><path class="cls-2" d="M34.88,20a.14.14,0,0,1,0,.13.32.32,0,0,1-.13.08.36.36,0,0,1-.14,0,.19.19,0,0,1-.12-.05q-.28-1.67-1.16-2a2.63,2.63,0,0,0-2.23.5q0,.46,0,.79c0,.22,0,.42,0,.61v.55q0,.27,0,.61T31,22q0,.44,0,1.05a.11.11,0,0,1-.07.1.36.36,0,0,1-.16,0,.43.43,0,0,1-.16,0,.13.13,0,0,1-.08-.09q0-.71,0-1.19t0-.86q0-.37,0-.68V17.64a.11.11,0,0,1,.09-.08l.17,0,.17,0c.05,0,.08,0,.09.07s0,.16,0,.23,0,.14,0,.2a3.23,3.23,0,0,1,.88-.37,2.91,2.91,0,0,1,.91-.11,2.1,2.1,0,0,1,.89.23,1.81,1.81,0,0,1,.59.52,2.37,2.37,0,0,1,.36.75A6.74,6.74,0,0,1,34.88,20Z"/><path class="cls-2" d="M35.22,24a.23.23,0,0,1,.07-.14.26.26,0,0,1,.14-.07.31.31,0,0,1,.16,0,.2.2,0,0,1,.11.1,2,2,0,0,0,.52,1.19,1.82,1.82,0,0,0,1.35.51,1.8,1.8,0,0,0,.95-.2,1.44,1.44,0,0,0,.56-.59,2.55,2.55,0,0,0,.26-.9,8.52,8.52,0,0,0,0-1.13,1.63,1.63,0,0,1-.7.34,4.27,4.27,0,0,1-1.11.08,2.53,2.53,0,0,1-1.11-.27,2.19,2.19,0,0,1-.75-.64,2.45,2.45,0,0,1-.41-.88,3.57,3.57,0,0,1,.1-2,3.25,3.25,0,0,1,.47-.9,2.55,2.55,0,0,1,.71-.65,2,2,0,0,1,.93-.29,2.55,2.55,0,0,1,1,.2,2.51,2.51,0,0,1,.8.55v-.65a.12.12,0,0,1,.08-.09.4.4,0,0,1,.16,0,.34.34,0,0,1,.16,0,.11.11,0,0,1,.07.1q0,1.43,0,2.61t0,2.11A15.15,15.15,0,0,1,39.76,24a3.27,3.27,0,0,1-.34,1.14,1.58,1.58,0,0,1-.7.68,2.73,2.73,0,0,1-1.16.23,2.42,2.42,0,0,1-1-.16,2.09,2.09,0,0,1-.7-.46,2.19,2.19,0,0,1-.46-.67A3,3,0,0,1,35.22,24Zm4.18-1.76q0-.8,0-1.61t0-1.63a3.26,3.26,0,0,0-.35-.37,2.72,2.72,0,0,0-.42-.31,1.93,1.93,0,0,0-.49-.21,1.85,1.85,0,0,0-.56-.06,1.46,1.46,0,0,0-.91.37,2.45,2.45,0,0,0-.63.85,3.36,3.36,0,0,0-.29,1.11,2.69,2.69,0,0,0,.12,1.12,2,2,0,0,0,.59.88,1.79,1.79,0,0,0,1.12.4,2.94,2.94,0,0,0,1-.11A2.07,2.07,0,0,0,39.4,22.23Z"/><path class="cls-2" d="M44.55,21.86a.18.18,0,0,1,.13-.11.26.26,0,0,1,.16,0,.23.23,0,0,1,.11.11.2.2,0,0,1,0,.16,2.56,2.56,0,0,1-.38.41,2.75,2.75,0,0,1-.53.37,3.33,3.33,0,0,1-.65.26,2.29,2.29,0,0,1-.72.09,2.52,2.52,0,0,1-1.14-.26,2.2,2.2,0,0,1-.76-.63,2.31,2.31,0,0,1-.4-.88,3.27,3.27,0,0,1-.07-1,3.93,3.93,0,0,1,.22-1,3.25,3.25,0,0,1,.49-.9,2.61,2.61,0,0,1,.73-.65,2.06,2.06,0,0,1,.94-.29,2.45,2.45,0,0,1,1.28.32,2.67,2.67,0,0,1,.88.84.22.22,0,0,1-.11.25.23.23,0,0,1-.27,0,2.23,2.23,0,0,0-.73-.67,1.82,1.82,0,0,0-1-.24,1.43,1.43,0,0,0-.92.37,2.64,2.64,0,0,0-.65.88,3.42,3.42,0,0,0-.31,1.13,2.75,2.75,0,0,0,.11,1.13,1.72,1.72,0,0,0,1.75,1.23,2.12,2.12,0,0,0,.57-.08,2.55,2.55,0,0,0,.53-.21,3,3,0,0,0,.45-.29A2,2,0,0,0,44.55,21.86Zm-3.42-3.16q.9,0,1.78,0t1.78,0a.29.29,0,0,1,.16.11.23.23,0,0,1,0,.15.25.25,0,0,1-.06.14.23.23,0,0,1-.16.08q-.94,0-1.87,0t-1.87,0Z"/><path class="cls-2" d="M49.8,20a.14.14,0,0,1,0,.13.32.32,0,0,1-.13.08.36.36,0,0,1-.14,0,.19.19,0,0,1-.12-.05q-.28-1.67-1.16-2a2.63,2.63,0,0,0-2.23.5q0,.46,0,.79c0,.22,0,.42,0,.61v.55q0,.27,0,.61t0,.78q0,.44,0,1.05a.11.11,0,0,1-.07.1.36.36,0,0,1-.16,0,.43.43,0,0,1-.16,0,.13.13,0,0,1-.08-.09q0-.71,0-1.19t0-.86q0-.37,0-.68V17.64a.11.11,0,0,1,.09-.08l.17,0,.17,0c.05,0,.08,0,.09.07s0,.16,0,.23,0,.14,0,.2a3.23,3.23,0,0,1,.88-.37,2.91,2.91,0,0,1,.91-.11,2.1,2.1,0,0,1,.89.23,1.81,1.81,0,0,1,.59.52,2.37,2.37,0,0,1,.36.75A6.74,6.74,0,0,1,49.8,20Z"/><path class="cls-2" d="M53.78,16.63a.35.35,0,0,1,.09.24.3.3,0,0,1-.08.2.34.34,0,0,1-.19.1.34.34,0,0,1-.23-.05.29.29,0,0,1-.06-.45.38.38,0,0,1,.22-.11A.32.32,0,0,1,53.78,16.63Zm-.5,1a.11.11,0,0,1,.09-.08l.17,0,.17,0c.05,0,.08,0,.09.07q0,.73,0,1.22t0,.85q0,.37,0,.67t0,.67q0,.37,0,.85t0,1.2a.11.11,0,0,1-.07.1.36.36,0,0,1-.16,0,.42.42,0,0,1-.16,0,.13.13,0,0,1-.08-.09q0-.71,0-1.19t0-.86q0-.37,0-.68V17.64Z"/><path class="cls-2" d="M58.65,21.86a.18.18,0,0,1,.13-.11.26.26,0,0,1,.16,0,.23.23,0,0,1,.11.11.2.2,0,0,1,0,.16,2.56,2.56,0,0,1-.38.41,2.75,2.75,0,0,1-.53.37,3.33,3.33,0,0,1-.65.26,2.29,2.29,0,0,1-.72.09,2.52,2.52,0,0,1-1.14-.26,2.2,2.2,0,0,1-.76-.63,2.31,2.31,0,0,1-.4-.88,3.27,3.27,0,0,1-.07-1,3.93,3.93,0,0,1,.22-1,3.25,3.25,0,0,1,.49-.9,2.61,2.61,0,0,1,.73-.65,2.06,2.06,0,0,1,.94-.29,2.45,2.45,0,0,1,1.28.32,2.67,2.67,0,0,1,.88.84.22.22,0,0,1-.11.25.23.23,0,0,1-.27,0,2.23,2.23,0,0,0-.73-.67,1.82,1.82,0,0,0-1-.24,1.43,1.43,0,0,0-.92.37,2.64,2.64,0,0,0-.65.88,3.42,3.42,0,0,0-.31,1.13A2.75,2.75,0,0,0,55,21.54a1.72,1.72,0,0,0,1.75,1.23,2.12,2.12,0,0,0,.57-.08,2.55,2.55,0,0,0,.53-.21,3,3,0,0,0,.45-.29A2,2,0,0,0,58.65,21.86Z"/><path class="cls-2" d="M60.43,16.63a.35.35,0,0,1,.09.24.3.3,0,0,1-.08.2.34.34,0,0,1-.19.1.34.34,0,0,1-.23-.05.29.29,0,0,1-.06-.45.38.38,0,0,1,.22-.11A.32.32,0,0,1,60.43,16.63Zm-.5,1a.11.11,0,0,1,.09-.08l.17,0,.17,0c.05,0,.08,0,.09.07q0,.73,0,1.22t0,.85q0,.37,0,.67t0,.67q0,.37,0,.85t0,1.2a.11.11,0,0,1-.07.1.36.36,0,0,1-.16,0,.42.42,0,0,1-.16,0,.13.13,0,0,1-.08-.09q0-.71,0-1.19t0-.86q0-.37,0-.68V17.64Z"/><path class="cls-2" d="M63.84,14.81a.11.11,0,0,1,.09-.08l.17,0,.17,0c.05,0,.08,0,.09.07q0,1.09,0,2.12t0,2v2q0,1,0,2.1a.11.11,0,0,1-.07.1.36.36,0,0,1-.16,0,.43.43,0,0,1-.16,0,.13.13,0,0,1-.08-.09q0-1.07,0-2.1t0-2V14.81Z"/><path class="cls-2" d="M69.2,21.86a.18.18,0,0,1,.13-.11.26.26,0,0,1,.16,0,.23.23,0,0,1,.11.11.2.2,0,0,1,0,.16,2.56,2.56,0,0,1-.38.41,2.75,2.75,0,0,1-.53.37,3.33,3.33,0,0,1-.65.26,2.29,2.29,0,0,1-.72.09,2.52,2.52,0,0,1-1.14-.26,2.2,2.2,0,0,1-.76-.63,2.31,2.31,0,0,1-.4-.88,3.27,3.27,0,0,1-.07-1,3.93,3.93,0,0,1,.22-1,3.25,3.25,0,0,1,.49-.9,2.61,2.61,0,0,1,.73-.65,2.06,2.06,0,0,1,.94-.29,2.45,2.45,0,0,1,1.28.32,2.67,2.67,0,0,1,.88.84.22.22,0,0,1-.11.25.23.23,0,0,1-.27,0,2.23,2.23,0,0,0-.73-.67,1.82,1.82,0,0,0-1-.24,1.43,1.43,0,0,0-.92.37,2.64,2.64,0,0,0-.65.88,3.42,3.42,0,0,0-.31,1.13,2.75,2.75,0,0,0,.11,1.13,1.72,1.72,0,0,0,1.75,1.23,2.12,2.12,0,0,0,.57-.08,2.55,2.55,0,0,0,.53-.21,3,3,0,0,0,.45-.29A2,2,0,0,0,69.2,21.86Zm-3.42-3.16q.9,0,1.78,0t1.78,0a.29.29,0,0,1,.16.11.23.23,0,0,1,0,.15.25.25,0,0,1-.06.14.23.23,0,0,1-.16.08q-.94,0-1.87,0t-1.87,0Z"/><path class="cls-2" d="M73,26a.13.13,0,0,1-.09.09.49.49,0,0,1-.34,0c-.05,0-.08,0-.09-.08q0-1.09,0-2.12V19.8q0-1,0-2.1a.11.11,0,0,1,.07-.1.36.36,0,0,1,.16,0,.42.42,0,0,1,.16,0,.13.13,0,0,1,.08.09q0,1.07,0,2.1t0,2V26Zm-.12-3.88a1.21,1.21,0,0,0,.35.29,2.71,2.71,0,0,0,.47.22,2.9,2.9,0,0,0,.55.13,2.56,2.56,0,0,0,.58,0,1.81,1.81,0,0,0,1.12-.4,2,2,0,0,0,.59-.88,2.71,2.71,0,0,0,.12-1.12,3.36,3.36,0,0,0-.29-1.11,2.48,2.48,0,0,0-.63-.85,1.47,1.47,0,0,0-.91-.37,1.83,1.83,0,0,0-1,.24,2.21,2.21,0,0,0-.73.67.23.23,0,0,1-.27,0,.22.22,0,0,1-.11-.25,2.66,2.66,0,0,1,.88-.84,2.45,2.45,0,0,1,1.28-.32,2,2,0,0,1,.93.29,2.57,2.57,0,0,1,.71.65,3.27,3.27,0,0,1,.47.9,3.58,3.58,0,0,1,.1,2,2.46,2.46,0,0,1-.41.88,2.21,2.21,0,0,1-.75.64,2.53,2.53,0,0,1-1.11.27,5.16,5.16,0,0,1-.77,0,2.55,2.55,0,0,1-.58-.14A1.51,1.51,0,0,1,73,22.8a1.81,1.81,0,0,1-.32-.35.4.4,0,0,1,0-.19.46.46,0,0,1,0-.17.12.12,0,0,1,.08-.08S72.85,22,72.89,22.1Z"/><path class="cls-2" d="M81.87,21.86a.18.18,0,0,1,.13-.11.26.26,0,0,1,.16,0,.23.23,0,0,1,.11.11.2.2,0,0,1,0,.16,2.56,2.56,0,0,1-.38.41,2.75,2.75,0,0,1-.53.37,3.33,3.33,0,0,1-.65.26,2.29,2.29,0,0,1-.72.09,2.52,2.52,0,0,1-1.14-.26,2.2,2.2,0,0,1-.76-.63,2.31,2.31,0,0,1-.4-.88,3.27,3.27,0,0,1-.07-1,3.93,3.93,0,0,1,.22-1,3.25,3.25,0,0,1,.49-.9,2.61,2.61,0,0,1,.73-.65,2.06,2.06,0,0,1,.94-.29,2.45,2.45,0,0,1,1.28.32,2.67,2.67,0,0,1,.88.84A.22.22,0,0,1,82,19a.23.23,0,0,1-.27,0,2.23,2.23,0,0,0-.73-.67A1.82,1.82,0,0,0,80,18a1.43,1.43,0,0,0-.92.37,2.64,2.64,0,0,0-.65.88,3.42,3.42,0,0,0-.31,1.13,2.75,2.75,0,0,0,.11,1.13A1.72,1.72,0,0,0,80,22.77a2.12,2.12,0,0,0,.57-.08,2.55,2.55,0,0,0,.53-.21,3,3,0,0,0,.45-.29A2,2,0,0,0,81.87,21.86Zm-3.42-3.16q.9,0,1.78,0t1.78,0a.29.29,0,0,1,.16.11.23.23,0,0,1,0,.15.25.25,0,0,1-.06.14.23.23,0,0,1-.16.08q-.94,0-1.87,0t-1.87,0Zm2.34-2.51a.33.33,0,0,0,.07-.2.23.23,0,0,0-.07-.16.22.22,0,0,0-.15-.07.26.26,0,0,0-.19.08l-.52.48-.55.52a.31.31,0,0,0,0,.18.24.24,0,0,0,.07.14.24.24,0,0,0,.14.07.24.24,0,0,0,.17,0l.55-.52Z"/><path class="cls-2" d="M87,21.86a.18.18,0,0,1,.13-.11.26.26,0,0,1,.16,0,.23.23,0,0,1,.11.11.2.2,0,0,1,0,.16,2.56,2.56,0,0,1-.38.41,2.75,2.75,0,0,1-.53.37,3.33,3.33,0,0,1-.65.26,2.29,2.29,0,0,1-.72.09A2.52,2.52,0,0,1,84,22.93a2.2,2.2,0,0,1-.76-.63,2.31,2.31,0,0,1-.4-.88,3.27,3.27,0,0,1-.07-1,3.93,3.93,0,0,1,.22-1,3.25,3.25,0,0,1,.49-.9,2.61,2.61,0,0,1,.73-.65,2.06,2.06,0,0,1,.94-.29,2.45,2.45,0,0,1,1.28.32,2.67,2.67,0,0,1,.88.84.22.22,0,0,1-.11.25.23.23,0,0,1-.27,0,2.23,2.23,0,0,0-.73-.67,1.82,1.82,0,0,0-1-.24,1.43,1.43,0,0,0-.92.37,2.64,2.64,0,0,0-.65.88,3.42,3.42,0,0,0-.31,1.13,2.75,2.75,0,0,0,.11,1.13,1.72,1.72,0,0,0,1.75,1.23,2.12,2.12,0,0,0,.57-.08,2.55,2.55,0,0,0,.53-.21,3,3,0,0,0,.45-.29A2,2,0,0,0,87,21.86Zm0-7.06a.11.11,0,0,1,.09-.08l.17,0,.17,0c.05,0,.08,0,.09.07q0,1.09,0,2.12V21q0,1,0,2.1a.11.11,0,0,1-.07.1.36.36,0,0,1-.16,0,.42.42,0,0,1-.16,0A.13.13,0,0,1,87,23.1Q87,22,87,21t0-2V14.81Z"/><path class="cls-2" d="M92.15,21.86a.18.18,0,0,1,.13-.11.26.26,0,0,1,.16,0,.23.23,0,0,1,.11.11.2.2,0,0,1,0,.16,2.56,2.56,0,0,1-.38.41,2.75,2.75,0,0,1-.53.37,3.33,3.33,0,0,1-.65.26,2.29,2.29,0,0,1-.72.09,2.52,2.52,0,0,1-1.14-.26,2.2,2.2,0,0,1-.76-.63,2.31,2.31,0,0,1-.4-.88,3.27,3.27,0,0,1-.07-1,3.93,3.93,0,0,1,.22-1,3.25,3.25,0,0,1,.49-.9,2.61,2.61,0,0,1,.73-.65,2.06,2.06,0,0,1,.94-.29,2.45,2.45,0,0,1,1.28.32,2.67,2.67,0,0,1,.88.84.22.22,0,0,1-.11.25A.23.23,0,0,1,92,19a2.23,2.23,0,0,0-.73-.67,1.82,1.82,0,0,0-1-.24,1.43,1.43,0,0,0-.92.37,2.64,2.64,0,0,0-.65.88,3.42,3.42,0,0,0-.31,1.13,2.75,2.75,0,0,0,.11,1.13,1.72,1.72,0,0,0,1.75,1.23,2.12,2.12,0,0,0,.57-.08,2.55,2.55,0,0,0,.53-.21,3,3,0,0,0,.45-.29A2,2,0,0,0,92.15,21.86Zm0-4.22a.11.11,0,0,1,.09-.08l.17,0,.17,0c.05,0,.08,0,.09.07q0,.73,0,1.22t0,.85q0,.37,0,.67t0,.67q0,.37,0,.85t0,1.2a.11.11,0,0,1-.07.1.36.36,0,0,1-.16,0,.42.42,0,0,1-.16,0,.12.12,0,0,1-.08-.09q0-.71,0-1.19t0-.86q0-.37,0-.68V17.64Z"/><path class="cls-2" d="M93,24a.23.23,0,0,1,.07-.14.26.26,0,0,1,.14-.07.31.31,0,0,1,.16,0,.2.2,0,0,1,.11.1,2,2,0,0,0,.52,1.19,1.82,1.82,0,0,0,1.35.51,1.8,1.8,0,0,0,.95-.2,1.44,1.44,0,0,0,.56-.59,2.55,2.55,0,0,0,.26-.9,8.52,8.52,0,0,0,0-1.13,1.63,1.63,0,0,1-.7.34,4.27,4.27,0,0,1-1.11.08,2.53,2.53,0,0,1-1.11-.27,2.19,2.19,0,0,1-.75-.64,2.45,2.45,0,0,1-.41-.88,3.57,3.57,0,0,1,.1-2,3.25,3.25,0,0,1,.47-.9,2.55,2.55,0,0,1,.71-.65,2,2,0,0,1,.93-.29,2.55,2.55,0,0,1,1,.2,2.51,2.51,0,0,1,.8.55v-.65a.12.12,0,0,1,.08-.09.4.4,0,0,1,.16,0,.34.34,0,0,1,.16,0,.11.11,0,0,1,.07.1q0,1.43,0,2.61t0,2.11A15.15,15.15,0,0,1,97.59,24a3.27,3.27,0,0,1-.34,1.14,1.58,1.58,0,0,1-.7.68,2.73,2.73,0,0,1-1.16.23,2.42,2.42,0,0,1-1-.16,2.09,2.09,0,0,1-.7-.46,2.19,2.19,0,0,1-.46-.67A3,3,0,0,1,93,24Zm4.18-1.76q0-.8,0-1.61t0-1.63a3.26,3.26,0,0,0-.35-.37,2.72,2.72,0,0,0-.42-.31,1.93,1.93,0,0,0-.49-.21,1.85,1.85,0,0,0-.56-.06,1.46,1.46,0,0,0-.91.37,2.45,2.45,0,0,0-.63.85,3.36,3.36,0,0,0-.29,1.11,2.69,2.69,0,0,0,.12,1.12,2,2,0,0,0,.59.88,1.79,1.79,0,0,0,1.12.4,2.94,2.94,0,0,0,1-.11A2.07,2.07,0,0,0,97.22,22.23Z"/><path class="cls-2" d="M100.53,23.19a2.52,2.52,0,0,1-1.14-.26,2.21,2.21,0,0,1-.76-.63,2.33,2.33,0,0,1-.4-.88,3.27,3.27,0,0,1-.07-1,3.92,3.92,0,0,1,.22-1,3.27,3.27,0,0,1,.49-.9,2.62,2.62,0,0,1,.73-.65,2.07,2.07,0,0,1,.94-.29,2.54,2.54,0,0,1,1.13.24,2.49,2.49,0,0,1,.83.64,3,3,0,0,1,.52.91,3.35,3.35,0,0,1,.2,1,3.26,3.26,0,0,1-.13,1,2.45,2.45,0,0,1-.48.9,2.38,2.38,0,0,1-.85.63A2.82,2.82,0,0,1,100.53,23.19Zm0-5.15a1.43,1.43,0,0,0-.92.37,2.62,2.62,0,0,0-.65.88,3.42,3.42,0,0,0-.31,1.13,2.75,2.75,0,0,0,.11,1.13,1.72,1.72,0,0,0,1.75,1.23,2,2,0,0,0,2-1.24,2.63,2.63,0,0,0,.2-1.16,2.83,2.83,0,0,0-.29-1.15,2.36,2.36,0,0,0-.74-.87A1.72,1.72,0,0,0,100.56,18Z"/><path class="cls-2" d="M103.62,24a.23.23,0,0,1,.07-.14.26.26,0,0,1,.14-.07.31.31,0,0,1,.16,0,.2.2,0,0,1,.11.1,2,2,0,0,0,.52,1.19,1.82,1.82,0,0,0,1.35.51,1.8,1.8,0,0,0,.95-.2,1.44,1.44,0,0,0,.56-.59,2.55,2.55,0,0,0,.26-.9,8.52,8.52,0,0,0,0-1.13,1.63,1.63,0,0,1-.7.34,4.27,4.27,0,0,1-1.11.08,2.53,2.53,0,0,1-1.11-.27,2.19,2.19,0,0,1-.75-.64,2.45,2.45,0,0,1-.41-.88,3.57,3.57,0,0,1,.1-2,3.25,3.25,0,0,1,.47-.9,2.55,2.55,0,0,1,.71-.65,2,2,0,0,1,.93-.29,2.55,2.55,0,0,1,1,.2,2.51,2.51,0,0,1,.8.55v-.65a.12.12,0,0,1,.08-.09.4.4,0,0,1,.16,0,.34.34,0,0,1,.16,0,.11.11,0,0,1,.07.1q0,1.43,0,2.61t0,2.11a15.15,15.15,0,0,1-.11,1.62,3.27,3.27,0,0,1-.34,1.14,1.58,1.58,0,0,1-.7.68,2.73,2.73,0,0,1-1.16.23,2.42,2.42,0,0,1-1-.16,2.09,2.09,0,0,1-.7-.46,2.19,2.19,0,0,1-.46-.67A3,3,0,0,1,103.62,24Zm4.18-1.76q0-.8,0-1.61t0-1.63a3.26,3.26,0,0,0-.35-.37,2.72,2.72,0,0,0-.42-.31,1.93,1.93,0,0,0-.49-.21A1.85,1.85,0,0,0,106,18a1.46,1.46,0,0,0-.91.37,2.45,2.45,0,0,0-.63.85,3.36,3.36,0,0,0-.29,1.11,2.69,2.69,0,0,0,.12,1.12,2,2,0,0,0,.59.88,1.79,1.79,0,0,0,1.12.4,2.94,2.94,0,0,0,1-.11A2.07,2.07,0,0,0,107.79,22.23Z"/><path class="cls-2" d="M109.63,16.63a.35.35,0,0,1,.09.24.3.3,0,0,1-.08.2.34.34,0,0,1-.19.1.34.34,0,0,1-.23-.05.29.29,0,0,1-.06-.45.38.38,0,0,1,.22-.11A.32.32,0,0,1,109.63,16.63Zm-.5,1a.11.11,0,0,1,.09-.08l.17,0,.17,0c.05,0,.08,0,.09.07q0,.73,0,1.22t0,.85q0,.37,0,.67t0,.67q0,.37,0,.85t0,1.2a.11.11,0,0,1-.07.1.36.36,0,0,1-.16,0,.42.42,0,0,1-.16,0,.13.13,0,0,1-.08-.09q0-.71,0-1.19t0-.86q0-.37,0-.68V17.64Z"/><path class="cls-2" d="M114.48,22.8a1.63,1.63,0,0,1-.7.34,4.27,4.27,0,0,1-1.11.08,2.53,2.53,0,0,1-1.11-.27,2.19,2.19,0,0,1-.75-.64,2.45,2.45,0,0,1-.41-.88,3.57,3.57,0,0,1,.1-2,3.25,3.25,0,0,1,.47-.9,2.55,2.55,0,0,1,.71-.65,2,2,0,0,1,.93-.29,2.54,2.54,0,0,1,1,.2,2.5,2.5,0,0,1,.8.55v-.65a.13.13,0,0,1,.08-.09.42.42,0,0,1,.16,0,.36.36,0,0,1,.16,0,.11.11,0,0,1,.07.1q0,1.08,0,2.1v2q0,1,0,2T115,26s0,.06-.09.08a.49.49,0,0,1-.34,0,.13.13,0,0,1-.09-.09Zm0-.56q0-.8,0-1.61t0-1.63a.1.1,0,0,1-.07,0,2.23,2.23,0,0,0-.73-.67,1.83,1.83,0,0,0-1-.24,1.46,1.46,0,0,0-.91.37,2.45,2.45,0,0,0-.63.85,3.36,3.36,0,0,0-.29,1.11,2.69,2.69,0,0,0,.12,1.12,2,2,0,0,0,.59.88,1.79,1.79,0,0,0,1.12.4,2.94,2.94,0,0,0,1-.11A2.07,2.07,0,0,0,114.48,22.23Z"/><path class="cls-2" d="M119.73,22.43a1.81,1.81,0,0,1-.42.31,3.7,3.7,0,0,1-.54.24,3.33,3.33,0,0,1-.58.15,2.15,2.15,0,0,1-.55,0,1.9,1.9,0,0,1-1-.37,2.39,2.39,0,0,1-.67-.8,3.87,3.87,0,0,1-.37-1.07,9.86,9.86,0,0,1-.16-1.19,11.24,11.24,0,0,1,0-1.15q0-.55,0-.95s0-.06.06-.08l.19,0a.43.43,0,0,1,.19,0,.11.11,0,0,1,.08.1,12.6,12.6,0,0,0,.08,2.92,3.19,3.19,0,0,0,.67,1.63,1.37,1.37,0,0,0,1.19.44,3.85,3.85,0,0,0,1.66-.67q.18-.11.22-.05a.22.22,0,0,1,0,.17,1.8,1.8,0,0,1-.05.23Q119.71,22.43,119.73,22.43Zm.2.66a.13.13,0,0,1-.09.09.49.49,0,0,1-.34,0c-.05,0-.08,0-.09-.08q0-.73,0-1.22t0-.85q0-.37,0-.67t0-.67q0-.37,0-.85t0-1.2a.11.11,0,0,1,.07-.1.35.35,0,0,1,.16,0,.42.42,0,0,1,.16,0,.13.13,0,0,1,.08.09q0,.72,0,1.2t0,.85q0,.37,0,.68v2.73Z"/><path class="cls-2" d="M124.65,21.86a.18.18,0,0,1,.13-.11.26.26,0,0,1,.16,0,.23.23,0,0,1,.11.11.2.2,0,0,1,0,.16,2.56,2.56,0,0,1-.38.41,2.75,2.75,0,0,1-.53.37,3.33,3.33,0,0,1-.65.26,2.29,2.29,0,0,1-.72.09,2.52,2.52,0,0,1-1.14-.26,2.2,2.2,0,0,1-.76-.63,2.31,2.31,0,0,1-.4-.88,3.27,3.27,0,0,1-.07-1,3.93,3.93,0,0,1,.22-1,3.25,3.25,0,0,1,.49-.9,2.61,2.61,0,0,1,.73-.65,2.06,2.06,0,0,1,.94-.29,2.45,2.45,0,0,1,1.28.32,2.67,2.67,0,0,1,.88.84.22.22,0,0,1-.11.25.23.23,0,0,1-.27,0,2.23,2.23,0,0,0-.73-.67,1.82,1.82,0,0,0-1-.24,1.43,1.43,0,0,0-.92.37,2.64,2.64,0,0,0-.65.88,3.42,3.42,0,0,0-.31,1.13,2.75,2.75,0,0,0,.11,1.13,1.72,1.72,0,0,0,1.75,1.23,2.12,2.12,0,0,0,.57-.08,2.55,2.55,0,0,0,.53-.21,3,3,0,0,0,.45-.29A2,2,0,0,0,124.65,21.86Zm-3.42-3.16q.9,0,1.78,0t1.78,0a.29.29,0,0,1,.16.11.23.23,0,0,1,0,.15.25.25,0,0,1-.06.14.23.23,0,0,1-.16.08q-.94,0-1.87,0t-1.87,0Z"/><path class="cls-2" d="M132.19,21.86a.18.18,0,0,1,.13-.11.26.26,0,0,1,.16,0,.23.23,0,0,1,.11.11.2.2,0,0,1,0,.16,2.56,2.56,0,0,1-.38.41,2.75,2.75,0,0,1-.53.37,3.33,3.33,0,0,1-.65.26,2.29,2.29,0,0,1-.72.09,2.52,2.52,0,0,1-1.14-.26,2.2,2.2,0,0,1-.76-.63,2.31,2.31,0,0,1-.4-.88,3.27,3.27,0,0,1-.07-1,3.93,3.93,0,0,1,.22-1,3.25,3.25,0,0,1,.49-.9,2.61,2.61,0,0,1,.73-.65,2.06,2.06,0,0,1,.94-.29,2.45,2.45,0,0,1,1.28.32,2.67,2.67,0,0,1,.88.84.22.22,0,0,1-.11.25.23.23,0,0,1-.27,0,2.23,2.23,0,0,0-.73-.67,1.82,1.82,0,0,0-1-.24,1.43,1.43,0,0,0-.92.37,2.64,2.64,0,0,0-.65.88,3.42,3.42,0,0,0-.31,1.13,2.75,2.75,0,0,0,.11,1.13,1.72,1.72,0,0,0,1.75,1.23,2.12,2.12,0,0,0,.57-.08,2.55,2.55,0,0,0,.53-.21,3,3,0,0,0,.45-.29A2,2,0,0,0,132.19,21.86Zm0-7.06a.11.11,0,0,1,.09-.08l.17,0,.17,0c.05,0,.08,0,.09.07q0,1.09,0,2.12V21q0,1,0,2.1a.11.11,0,0,1-.07.1.36.36,0,0,1-.16,0,.42.42,0,0,1-.16,0,.13.13,0,0,1-.08-.09q0-1.07,0-2.1t0-2V14.81Z"/><path class="cls-2" d="M137.36,21.86a.18.18,0,0,1,.13-.11.26.26,0,0,1,.16,0,.23.23,0,0,1,.11.11.2.2,0,0,1,0,.16,2.56,2.56,0,0,1-.38.41,2.75,2.75,0,0,1-.53.37,3.33,3.33,0,0,1-.65.26,2.29,2.29,0,0,1-.72.09,2.52,2.52,0,0,1-1.14-.26,2.2,2.2,0,0,1-.76-.63,2.31,2.31,0,0,1-.4-.88,3.27,3.27,0,0,1-.07-1,3.93,3.93,0,0,1,.22-1,3.25,3.25,0,0,1,.49-.9,2.61,2.61,0,0,1,.73-.65,2.06,2.06,0,0,1,.94-.29,2.45,2.45,0,0,1,1.28.32,2.67,2.67,0,0,1,.88.84.22.22,0,0,1-.11.25.23.23,0,0,1-.27,0,2.23,2.23,0,0,0-.73-.67,1.82,1.82,0,0,0-1-.24,1.43,1.43,0,0,0-.92.37,2.64,2.64,0,0,0-.65.88,3.42,3.42,0,0,0-.31,1.13,2.75,2.75,0,0,0,.11,1.13,1.72,1.72,0,0,0,1.75,1.23,2.12,2.12,0,0,0,.57-.08,2.55,2.55,0,0,0,.53-.21,3,3,0,0,0,.45-.29A2,2,0,0,0,137.36,21.86Zm-3.42-3.16q.9,0,1.78,0t1.78,0a.29.29,0,0,1,.16.11.23.23,0,0,1,0,.15.25.25,0,0,1-.06.14.23.23,0,0,1-.16.08q-.94,0-1.87,0t-1.87,0Zm2.34-2.51a.33.33,0,0,0,.07-.2.23.23,0,0,0-.07-.16.22.22,0,0,0-.15-.07.26.26,0,0,0-.19.08l-.52.48-.55.52a.31.31,0,0,0,0,.18.24.24,0,0,0,.07.14.24.24,0,0,0,.14.07.24.24,0,0,0,.17,0l.55-.52Z"/><path class="cls-2" d="M138.37,18.11a.27.27,0,0,1-.19-.1.26.26,0,0,1-.05-.15.21.21,0,0,1,.07-.15.26.26,0,0,1,.2-.07H140V14.82a.11.11,0,0,1,.09-.08l.17,0,.17,0c.05,0,.08,0,.09.07l0,2.83h1.91a.29.29,0,0,1,.16.11.22.22,0,0,1,0,.15.24.24,0,0,1-.06.14.23.23,0,0,1-.16.08h-1.88l0,5a.11.11,0,0,1-.07.1.36.36,0,0,1-.16,0,.42.42,0,0,1-.16,0,.13.13,0,0,1-.08-.09q0-1.3,0-2.52t0-2.46h-1.63Z"/><path class="cls-2" d="M146.24,21.86a.18.18,0,0,1,.13-.11.26.26,0,0,1,.16,0,.23.23,0,0,1,.11.11.2.2,0,0,1,0,.16,2.56,2.56,0,0,1-.38.41,2.75,2.75,0,0,1-.53.37,3.33,3.33,0,0,1-.65.26,2.29,2.29,0,0,1-.72.09,2.52,2.52,0,0,1-1.14-.26,2.2,2.2,0,0,1-.76-.63,2.31,2.31,0,0,1-.4-.88,3.27,3.27,0,0,1-.07-1,3.93,3.93,0,0,1,.22-1,3.25,3.25,0,0,1,.49-.9,2.61,2.61,0,0,1,.73-.65,2.06,2.06,0,0,1,.94-.29,2.45,2.45,0,0,1,1.28.32,2.67,2.67,0,0,1,.88.84.22.22,0,0,1-.11.25.23.23,0,0,1-.27,0,2.23,2.23,0,0,0-.73-.67,1.82,1.82,0,0,0-1-.24,1.43,1.43,0,0,0-.92.37,2.64,2.64,0,0,0-.65.88,3.42,3.42,0,0,0-.31,1.13,2.75,2.75,0,0,0,.11,1.13,1.72,1.72,0,0,0,1.75,1.23,2.12,2.12,0,0,0,.57-.08,2.55,2.55,0,0,0,.53-.21,3,3,0,0,0,.45-.29A2,2,0,0,0,146.24,21.86Zm0-4.22a.11.11,0,0,1,.09-.08l.17,0,.17,0c.05,0,.08,0,.09.07q0,.73,0,1.22t0,.85q0,.37,0,.67t0,.67q0,.37,0,.85t0,1.2a.11.11,0,0,1-.07.1.36.36,0,0,1-.16,0,.42.42,0,0,1-.16,0,.12.12,0,0,1-.08-.09q0-.71,0-1.19t0-.86q0-.37,0-.68V17.64Z"/><path class="cls-2" d="M148,16.63a.35.35,0,0,1,.09.24.3.3,0,0,1-.08.2.34.34,0,0,1-.19.1.34.34,0,0,1-.23-.05.29.29,0,0,1-.06-.45.38.38,0,0,1,.22-.11A.32.32,0,0,1,148,16.63Zm-.5,1a.11.11,0,0,1,.09-.08l.17,0,.17,0c.05,0,.08,0,.09.07q0,.73,0,1.22t0,.85q0,.37,0,.67t0,.67q0,.37,0,.85t0,1.2a.11.11,0,0,1-.07.1.36.36,0,0,1-.16,0,.42.42,0,0,1-.16,0,.13.13,0,0,1-.08-.09q0-.71,0-1.19t0-.86q0-.37,0-.68V17.64Z"/><path class="cls-2" d="M149,14.81a.11.11,0,0,1,.09-.08l.17,0,.17,0c.05,0,.08,0,.09.07q0,1.09,0,2.12t0,2v2q0,1,0,2.1a.11.11,0,0,1-.07.1.36.36,0,0,1-.16,0,.43.43,0,0,1-.16,0,.13.13,0,0,1-.08-.09q0-1.07,0-2.1t0-2V14.81Z"/><path class="cls-2" d="M150.45,14.81a.11.11,0,0,1,.09-.08l.17,0,.17,0c.05,0,.08,0,.09.07q0,1.09,0,2.12t0,2v2q0,1,0,2.1a.11.11,0,0,1-.07.1.36.36,0,0,1-.16,0,.43.43,0,0,1-.16,0,.13.13,0,0,1-.08-.09q0-1.07,0-2.1t0-2V14.81Z"/><path class="cls-2" d="M155.82,21.86a.18.18,0,0,1,.13-.11.26.26,0,0,1,.16,0,.23.23,0,0,1,.11.11.2.2,0,0,1,0,.16,2.56,2.56,0,0,1-.38.41,2.75,2.75,0,0,1-.53.37,3.33,3.33,0,0,1-.65.26,2.29,2.29,0,0,1-.72.09,2.52,2.52,0,0,1-1.14-.26,2.2,2.2,0,0,1-.76-.63,2.31,2.31,0,0,1-.4-.88,3.27,3.27,0,0,1-.07-1,3.93,3.93,0,0,1,.22-1,3.25,3.25,0,0,1,.49-.9,2.61,2.61,0,0,1,.73-.65,2.06,2.06,0,0,1,.94-.29,2.45,2.45,0,0,1,1.28.32,2.67,2.67,0,0,1,.88.84A.22.22,0,0,1,156,19a.23.23,0,0,1-.27,0,2.23,2.23,0,0,0-.73-.67,1.82,1.82,0,0,0-1-.24,1.43,1.43,0,0,0-.92.37,2.64,2.64,0,0,0-.65.88,3.42,3.42,0,0,0-.31,1.13,2.75,2.75,0,0,0,.11,1.13,1.72,1.72,0,0,0,1.75,1.23,2.12,2.12,0,0,0,.57-.08,2.55,2.55,0,0,0,.53-.21,3,3,0,0,0,.45-.29A2,2,0,0,0,155.82,21.86Zm-3.42-3.16q.9,0,1.78,0t1.78,0a.29.29,0,0,1,.16.11.23.23,0,0,1,0,.15.25.25,0,0,1-.06.14.23.23,0,0,1-.16.08q-.94,0-1.87,0t-1.87,0Zm2.34-2.51a.33.33,0,0,0,.07-.2.23.23,0,0,0-.07-.16.22.22,0,0,0-.15-.07.26.26,0,0,0-.19.08l-.52.48-.55.52a.31.31,0,0,0,0,.18.24.24,0,0,0,.07.14.24.24,0,0,0,.14.07.24.24,0,0,0,.17,0l.55-.52Z"/></svg>