<?xml version="1.0" encoding="utf-8"?>
<!-- Generator: Adobe Illustrator 21.0.2, SVG Export Plug-In . SVG Version: 6.00 Build 0)  -->
<svg version="1.1" id="Calque_1" xmlns="http://www.w3.org/2000/svg" xmlns:xlink="http://www.w3.org/1999/xlink" x="0px" y="0px"
	 viewBox="0 0 75 50" style="enable-background:new 0 0 75 50;" xml:space="preserve">
<style type="text/css">
	.st0{fill:#231F20;}
</style>
<g>
	<path class="st0" d="M13.3,41.1c0,0.4,0.1,0.8,0,1.1c0,0.3-0.2,0.5-0.3,0.6s-0.3,0.3-0.5,0.3c-0.3,0.2-0.6,0-0.7-0.3
		c-0.2-0.3-0.2-0.6-0.2-1v-3.4c-0.1-0.3-0.1-0.5-0.1-0.8c0-0.1-0.2-0.3-0.3-0.3H11c-1.3-0.1-2.6-0.2-3.8-0.4c-1.1-0.2-1.7-0.4-1.7-1
		c0.1-0.9,0.1-1.8,0.2-2.8c0-0.5,0.2-0.9,0-1.4c-0.1-0.1-0.1-0.2,0-0.3C6,30.9,6,30,6.1,29.2c0.2-1.6,0.4-3.1,0.6-4.8
		c0.1-0.6,0.2-1.2,0.3-1.8c0.1-0.5,0.2-1.1,0.3-1.7c0.1-0.6,0.4-1.2,0.3-1.8c-0.1-0.7,0.5-1.1,0.5-1.8v-0.1c0.5-2.1,1.1-4.1,1.6-6.2
		c0.2-0.8,0.5-1.6,0.7-2.4c0.1-0.3,0.2-0.5,0.5-0.6c0.3-0.2,0.6-0.1,0.8,0.2C11.8,8.6,12,9,12.1,9.5c0.7,2.3,1.4,4.5,2,6.8
		c0.8,2.8,1.5,5.5,2.3,8.2c0.6,2.1,1.2,4.2,1.8,6.3c0.4,1.5,0.7,2.9,1,4.3c0.2,0.6-0.2,1.2-0.7,1.5c-0.2,0.2-0.4,0.2-0.7,0.3
		c-0.5,0.2-1.1,0.2-1.7,0.2c-0.8,0-1.7,0-2.5,0.1c-0.3,0-0.5,0.2-0.5,0.5c0,0.7,0,1.4,0.1,2C13.2,40.2,13.3,40.7,13.3,41.1z
		 M17.6,31.6c-0.5-0.3-0.9-0.6-1.2-0.8c-0.3-0.3-0.7-0.2-1,0.1c-0.3,0.3-0.6,0.6-0.9,0.9c-0.5,0.5-1.1,0.5-1.7,0.4
		c-0.3-0.1-0.6-0.2-0.9-0.4c-0.3-0.1-0.6-0.3-0.9-0.3c-0.7-0.2-1.3-0.2-2,0.2c-0.6,0.3-1.3,0.6-2,0.6c-0.2,0-0.3,0.2-0.4,0.3
		c-0.2,1.1-0.3,2.1-0.3,3.3c0,0.2,0.3,0.4,0.5,0.4c1.6,0.3,3.3,0.5,5,0.3h0.1c1.4,0.2,2.8-0.2,4.1-0.1c0.6,0,1-0.1,1.5-0.2
		c0.2,0,0.4-0.2,0.6-0.2c0.2-0.1,0.4-0.3,0.4-0.6c0-0.3,0-0.6-0.1-0.9C18.1,33.6,17.8,32.6,17.6,31.6z M6.6,31.1
		c0,0.2,0.3,0.3,0.4,0.3c0.2,0,0.5,0,0.7-0.1C8,31.3,8.3,31.1,8.6,31c0.3-0.1,0.6-0.3,0.9-0.3c0.3-0.2,0.6-0.2,1-0.1
		c0.5,0.2,1,0.3,1.5,0.4c0.3,0.2,0.6,0.2,0.9,0.4c0.5,0.3,0.8,0.1,1.1-0.2c0.3-0.3,0.6-0.5,0.9-0.8c0.4-0.4,0.9-0.6,1.4-0.4
		c0.3,0,0.4,0.1,0.6,0.2c0.1,0,0.3-0.2,0.3-0.2c-0.1-0.2-0.1-0.3-0.1-0.4c-0.4-1.3-0.8-2.5-1.1-3.8c-0.2-0.4-0.3-0.7-0.6-0.9
		c-0.9-0.8-1.2-0.7-2.1-0.1c-0.2,0.1-0.3,0.2-0.5,0.2c-0.5,0.3-0.9,0.3-1.4,0.2c-0.2-0.2-0.4-0.2-0.6-0.3c-0.4-0.2-0.6-0.2-0.8,0.2
		c-0.2,0.2-0.3,0.3-0.4,0.4c-0.3,0.4-0.7,0.5-1.1,0.6H8c-0.7,0-0.8,0.1-0.9,0.9c-0.2,1.3-0.3,2.7-0.5,4V31.1z M10.3,19.2
		c-0.5,0.2-0.8,0.3-1.2,0.4c-0.7,0-0.8,0.5-0.9,0.9c-0.3,1.4-0.5,2.8-0.8,4.2c0,0.2,0.2,0.4,0.3,0.4c0.6,0.1,1,0,1.4-0.4
		c0.2-0.2,0.3-0.4,0.5-0.6c0.3-0.2,0.6-0.3,0.9-0.2c0.2,0,0.5,0.1,0.7,0.2c0.3,0.1,0.5,0.2,0.7,0.3c0.2,0.1,0.3,0,0.5-0.1
		c0.2-0.1,0.5-0.2,0.7-0.4c0.6-0.5,1.2-0.6,2-0.4c0.2,0,0.3-0.2,0.3-0.2c0-0.3,0-0.4-0.1-0.6c-0.2-0.6-0.4-1.3-0.5-1.9
		c-0.2-0.5-0.3-1-0.4-1.5C14.1,19.2,14,19,14,18.9c-0.2-0.3-0.5-0.4-0.8-0.2l-0.5,0.5c-0.5,0.5-1,0.6-1.7,0.3
		C10.9,19.4,10.6,19.3,10.3,19.2z M13.5,17.2c-0.2-0.6-0.4-1.4-0.6-2.1c-0.5-1.5-0.8-3-1.3-4.6c-0.2-0.6-0.3-1.1-0.6-1.1
		c-0.3,0-0.3,0.4-0.3,0.5c-0.2,0.9-0.5,1.8-0.8,2.8c-0.5,1.8-0.8,3.6-1.3,5.5c-0.1,0.2-0.1,0.3-0.1,0.5c-0.1,0.2,0.2,0.4,0.3,0.3
		c0.3-0.1,0.6-0.2,0.8-0.3c0.4-0.2,0.7-0.2,1,0c0.1,0,0.2,0.1,0.2,0.1c0.9,0.3,0.9,0.5,1.6-0.4c0.2-0.3,0.5-0.3,0.8-0.5
		C13.5,17.7,13.6,17.5,13.5,17.2z"/>
	<path class="st0" d="M45.5,20.2l-0.2,4.2c-0.1,0.4,0,0.8,0.3,1.1c0.2,0.2,0,0.5-0.2,0.5c-1.2,0.3-2.5,0.6-3.7,0.9
		c-0.6,0.2-1.2,0.2-1.8,0.3c-0.8,0.1-1.7,0.2-2.5,0.4c-0.3,0.1-0.7,0.1-1,0.2c-0.2,0.1-0.3,0.2-0.3,0.4c0,0.2,0,0.4,0.1,0.6l0.2,7.4
		c0.1,1,0.1,2,0.2,3v1.7c0,0.5,0,1,0.3,1.5c0.1,0.2-0.1,0.5-0.3,0.5c-0.6,0.2-1,0.1-1.4-0.3l-0.2-0.4c0-0.5,0-1,0.1-1.5
		c0.2-1.8,0.2-3.6,0.2-5.4v-6.9c0-0.2-0.2-0.4-0.4-0.4c-0.1,0.1-0.3,0.1-0.4,0.1c-1,0.2-2,0.2-3,0.2c-0.6-0.1-1.2-0.1-1.7-0.3
		c-0.7-0.2-1.3-0.4-2-0.7c-0.8-0.3-1.3-0.8-1.5-1.6c-0.1-0.3-0.2-0.6-0.3-0.9c-0.1-0.9-0.3-1.7-0.3-2.5c-0.1-1.3-0.2-2.7-0.2-4
		c0.1-1.5,0.2-2.9,0.5-4.4c0.1-0.7,0.4-1.3,0.7-2c0.5-0.9,1.1-1.5,2.1-1.8c1.7-0.6,3.5-1,5.4-1.2c1.1-0.1,2.2-0.3,3.3-0.4
		c1.1-0.1,2.3-0.2,3.4-0.1c0.7,0.1,1.4,0.3,2,0.5c0.7,0.2,1.2,0.7,1.5,1.3c0.2,0.4,0.4,0.7,0.5,1.1c0.2,0.7,0.5,1.4,0.5,2.2
		c0.2,1.1,0.3,2.2,0.3,3.4S45.5,19,45.5,20.2z M37.4,21.2c-0.4,0.2-0.8,0.3-1.2,0.5c-0.3,0.2-0.5,0.4-0.4,0.7c0,0.3,0.1,0.7,0.1,1
		c0.1,1.1,0.2,2.1,0.3,3.1v0.2c0.1,0.2,0.2,0.4,0.5,0.3c1.1-0.2,2.3-0.4,3.5-0.5c1.2-0.2,2.5-0.4,3.7-0.7c0.8-0.2,0.9-0.3,0.9-1.1
		c0.1-1.7,0.3-3.4,0.2-5.1c0-0.5,0-1,0.1-1.5c0-1.2,0-2.5-0.2-3.7c-0.1-0.9-0.3-1.8-0.6-2.7c-0.1-0.3-0.3-0.6-0.4-0.9
		c-0.3-0.6-0.7-1-1.3-1.1c-0.7-0.2-1.4-0.4-2.1-0.4c-1,0-2,0-3,0.1c-1.1,0.1-2.3,0.3-3.5,0.4c-1.4,0.1-2.7,0.5-4,0.9
		c-0.6,0.2-1.2,0.5-1.7,0.7c-0.4,0.2-0.7,0.5-0.9,0.9c-0.3,0.6-0.6,1.3-0.7,2c-0.3,1.3-0.4,2.6-0.4,3.9c-0.1,1.8-0.1,3.6,0.2,5.4
		c0.1,0.7,0.3,1.5,0.5,2.2c0.3,0.6,0.6,1,1.2,1.2c0.4,0.1,0.7,0.2,1.1,0.4c1.7,0.7,3.5,0.7,5.3,0.4l0.6-0.2c0.2-0.1,0.3-0.2,0.3-0.4
		s0.1-0.3,0.1-0.4L35.1,24c0-0.8-0.2-1.5-0.4-2.3C34.6,21,34.4,20.5,34,20c-0.2-0.4-0.4-0.4-0.7-0.3c-0.3,0.1-0.5,0.2-0.7,0.2
		c-0.7,0.2-1.4,0.1-2.1-0.3c-0.1-0.1-0.2-0.1-0.2-0.2c-0.1-0.1-0.2-0.4-0.2-0.4c0.1-0.1,0.3-0.2,0.4-0.2c0.3,0.1,0.5,0.2,0.7,0.3
		c0.6,0.2,1.1,0.2,1.7-0.1c0.2-0.1,0.3-0.2,0.4-0.4c-0.1-0.2-0.2-0.4-0.2-0.5C33,18,33,17.8,32.9,17.6c0-0.1,0.1-0.2,0.2-0.3
		c0.1-0.1,0.3,0,0.4,0.1l0.2,0.4c0.3,0.7,0.7,1.3,1,2c0.1,0.3,0.3,0.5,0.4,0.8c0.1,0.2,0.3,0.2,0.4-0.1c0.5-1,1-1.9,1.3-3
		c0.4-0.8,0.7-1.6,0.8-2.5l0.2-0.4c0.1-0.1,0.3-0.2,0.4-0.2c0.2,0.1,0.3,0.3,0.3,0.4c-0.1,0.1-0.1,0.2-0.1,0.3
		c-0.4,1.3-0.8,2.7-1.4,3.9c-0.2,0.4-0.4,0.7-0.5,1c-0.1,0.1-0.1,0.3-0.1,0.4c-0.1,0.2-0.1,0.3,0.1,0.3c0.1,0.1,0.2,0.1,0.2,0.1
		c1.1-0.3,2.1-0.6,3.2-0.9c0.2-0.1,0.4-0.1,0.6-0.1c0.1,0,0.2,0.1,0.2,0.2c0.1,0.1,0,0.3-0.1,0.3c-0.1,0.1-0.2,0.2-0.3,0.2
		c-0.4,0.2-0.7,0.3-1.1,0.4c0,0.1-0.1,0.1-0.1,0.1c0,0.1,0,0.2,0.1,0.3c0.1,0.1,0.3,0.2,0.4,0.3c0.4,0.3,0.9,0.5,1.3,0.7
		c0.2,0.1,0.3,0.2,0.3,0.4c0,0.1,0,0.3-0.1,0.3c-0.1,0.1-0.2,0.1-0.3,0.1c-0.6-0.3-1.3-0.6-1.9-1C38.4,21.6,38,21.3,37.4,21.2z
		 M28.8,19.7c-0.1,0.1-0.1,0.2-0.1,0.3l-1.1,1.4c-0.1,0.1-0.3,0.1-0.4,0.1c-0.2-0.1-0.2-0.3-0.2-0.4c0.3-0.6,0.7-1.1,1.2-1.4
		c0.1-0.1,0.2-0.1,0.2-0.1C28.7,19.5,28.8,19.6,28.8,19.7z M28.9,15.2c0,0.1,0,0.2-0.1,0.2l-1.1,1.4c-0.1,0-0.1,0.1-0.1,0.1
		c-0.1,0-0.2,0-0.3-0.1s-0.1-0.1-0.1-0.2v-0.2c0.3-0.5,0.7-1,1.1-1.4c0,0,0.1-0.1,0.1-0.1c0.1,0,0.2,0,0.2,0.1
		C28.9,15.1,28.9,15.1,28.9,15.2z M27.6,25.1c-0.1-0.1-0.2-0.2-0.2-0.3c0-0.1,0.1-0.3,0.1-0.4c0.7-1.1,1.4-2.1,2.2-3.1
		c0.2-0.2,0.4-0.4,0.5-0.5c0.1-0.1,0.3-0.1,0.4,0.1c0.1,0.1,0.2,0.2,0.1,0.3c-0.1,0.1-0.1,0.2-0.2,0.3c-0.8,1-1.5,1.9-2.1,3L27.9,25
		C27.8,25.1,27.7,25.1,27.6,25.1z M31,25.6c-0.1,0-0.2-0.1-0.3-0.1c-0.1-0.1-0.1-0.2-0.1-0.2c0.1-0.4,0.4-0.8,0.7-1.1
		c0-0.1,0.1-0.1,0.1-0.1c0.1-0.1,0.3,0,0.3,0.1c0.1,0.1,0.1,0.2,0.1,0.2c-0.2,0.4-0.4,0.8-0.8,1.1C31.1,25.6,31,25.6,31,25.6z
		 M34.3,24.9v0.2c-0.2,0.4-0.5,0.8-0.8,1.1c-0.1,0-0.1,0-0.1,0.1c-0.1,0-0.3,0-0.3-0.1c-0.1-0.1-0.1-0.2-0.1-0.3
		c0.2-0.4,0.5-0.8,0.8-1.1c0.1-0.1,0.3,0,0.4,0C34.1,24.8,34.2,24.9,34.3,24.9z"/>
	<path class="st0" d="M56.3,25.1c-0.8,0.3-0.9,0.3-1.4,0.4c-0.5,0-1.1-0.2-1.5-0.5c-1-0.9-1.5-1.9-1.6-3.1c0-0.8,0-1.5,0.3-2.2
		c0.6-1,0.5-1.2,0.5-2.2c-0.1-1.2,0-2.5,0.4-3.7c0.2-0.7,0.7-1.4,1.2-1.8c0.6-0.5,1-1,1.5-1.5c1.2-1.3,2.7-2,4.5-2
		c1.1,0,2,0.3,2.8,1.2c0.2,0.2,0.5,0.5,0.6,0.7c0.2,0.2,0.5,0.3,0.9,0.3c0.4,0.1,0.9,0.1,1.3,0.1c1.3,0.1,2.4,0.7,3.3,1.5
		c0.7,0.6,1,1.4,1.1,2.2v1.3c0,0.8,0.3,1.4,0.6,1.9c0.3,0.6,0.7,1.1,0.8,1.7c0.2,1.2,0,2.2-1,3.1c-0.3,0.2-0.5,0.3-0.8,0.6
		c-0.2,0.3-0.6,0.5-0.9,0.9c-0.8,0.8-1.7,1.2-2.8,1.3c-0.9,0.1-1.7,0.1-2.5-0.1c-0.6-0.1-1.1,0.1-1.6,0.2c-0.1,0-0.1,0.1-0.1,0.2
		v0.4c0.1,1.4,0.2,2.6,0.4,7.5c0.1,2.2,0.5,4.6,0.5,8c0,0.2-0.1,0.4-0.1,0.7c0,0.2-0.4,0.4-0.6,0.4c-0.3,0-0.6-0.2-0.9-0.1
		c-0.1,0-0.2-0.2-0.3-0.2v-0.4c0.2-1,0.2-2,0.1-3.1c0-1.2-0.1-2.4-0.1-3.5c0-1,0-7.2-0.1-8.3v-0.6c0-0.1-0.1-0.1-0.2-0.2
		c-0.1,0-0.2,0-0.4,0.1c-0.7,0.2-1.5,0-2.1-0.4C57.5,25.4,57,25.2,56.3,25.1z M63.3,21.3c-0.6,0.2-1,0.3-1.4,0.6
		c-0.3,0.1-0.4,0.4-0.4,0.7c0.1,0.5,0.1,1,0.1,1.4c0.1,0.4,0.2,0.5,0.6,0.5c0.6-0.1,1.2-0.1,1.8,0h2c0.9-0.1,1.6-0.4,2.3-1.1
		c0.3-0.4,0.6-0.8,1.1-1.1c0.3-0.2,0.5-0.4,0.7-0.7c0.4-0.3,0.6-0.6,0.6-1.1c0.1-0.3,0.1-0.7,0-1.1c-0.1-0.6-0.4-1.3-0.8-1.7
		c-0.2-0.6-0.4-1-0.4-1.5c0-0.2,0-0.6-0.1-0.8v-1.3c-0.1-0.6-0.2-1-0.6-1.3c-0.5-0.7-1.1-1.1-1.8-1.4c-0.4-0.1-1-0.3-1.4-0.3
		c-0.6,0-1,0-1.4-0.1c-0.6,0-0.9-0.2-1.2-0.6c-0.1-0.2-0.3-0.4-0.5-0.6c-0.7-0.8-1.4-1-2.4-1c-1.6,0-3,0.6-4.1,1.8
		c-0.4,0.6-1,1.1-1.5,1.6c-0.5,0.3-0.8,0.8-1,1.3c-0.5,1.1-0.6,2.2-0.6,3.4c0,0.3,0.1,0.6,0.1,1c0,0.4,0,0.9-0.2,1.4
		c-0.1,0.2-0.2,0.5-0.3,0.8c-0.6,1.5-0.1,2.8,1,4c0.1,0.1,0.3,0.3,0.5,0.4c0.6,0.3,1.1,0.4,1.5-0.2c0.1-0.1,0.3-0.1,0.5-0.1
		c0.8,0.2,1.5,0.4,2.2,0.9c0.6,0.3,1.3,0.4,2,0.1c0.2-0.1,0.3-0.3,0.3-0.6v-0.3c0.1-0.3,0-0.5-0.3-0.8c-0.4-0.3-0.6-0.5-0.9-0.7
		c-1-0.7-1.9-1.4-2.9-1.9c-0.1-0.1-0.1-0.1-0.2-0.3c-0.1-0.1-0.1-0.3-0.1-0.4c0.1-0.1,0.3-0.1,0.4-0.1c0.1,0.1,0.3,0.2,0.4,0.2
		c1,0.7,1.9,1.4,2.9,2c0.1,0.1,0.3,0.1,0.5,0.2c0,0.1,0.2,0,0.2-0.1V20c0-0.7-0.3-1.1-0.9-1.4c-0.1,0-0.3-0.1-0.4-0.2
		c-0.4-0.1-0.6-0.3-0.9-0.6c-0.4-0.2-0.7-0.5-1-0.8c0,0,0-0.2-0.1-0.2c-0.1-0.1,0-0.3,0.1-0.4c0.1-0.2,0.2-0.2,0.4-0.1
		c0.1,0.2,0.4,0.3,0.5,0.5c0.5,0.6,1.1,1,1.7,1.2c0.3,0.1,0.5,0.2,0.7,0.3c0,0,0.1,0,0.2-0.1c0.7-1,1.2-2,1.6-3.2
		c0-0.4,0.1-0.7,0.2-0.9c0.1-0.2,0.1-0.4,0.2-0.5c0.1-0.1,0.3-0.1,0.4-0.1c0.1,0,0.2,0.1,0.2,0.2c0,0.2,0,0.3-0.1,0.4
		c-0.1,0.5-0.4,1-0.5,1.5C63,15.7,63,16,63,16.1c0,0.1,0.1,0.2,0.2,0.2c0.4-0.1,0.7-0.2,1.1-0.2c0.1,0,0.2,0.2,0.2,0.4
		c-0.1,0.1-0.2,0.2-0.4,0.2c-0.6,0.1-1.2,0.3-1.7,0.5c-0.3,0.3-0.5,0.6-0.7,1c-0.2,0.4-0.3,0.7-0.3,1.2c-0.1,0.5,0,1.1,0,1.7
		c0,0.1,0.1,0.2,0.2,0.2c0.1-0.1,0.3-0.1,0.4-0.2c1-0.4,1.8-0.8,2.8-1.2c0.2,0,0.5-0.1,0.6-0.1c0.1-0.1,0.2,0,0.3,0.1
		c0.1,0,0,0.3-0.1,0.4c-0.1,0-0.2,0.1-0.2,0.2c-0.4,0.1-0.6,0.2-0.8,0.3c-0.1,0.1-0.1,0.1-0.1,0.3c-0.1,0,0,0.1,0.1,0.2
		c0.4,0.1,0.8,0.1,1.1,0.2H67c0.1,0.1,0.4,0.2,0.5,0.2c0,0.1,0.1,0.4,0,0.4c-0.1,0.1-0.3,0.2-0.4,0.2c-0.3,0-0.7-0.1-1.1-0.1
		c-0.6,0-1.3-0.1-1.8-0.5C63.9,21.6,63.7,21.5,63.3,21.3z M55.5,18.4c-0.1,0.1-0.1,0.2-0.1,0.2c-0.2,0.2-0.4,0.2-0.5,0.4
		c-0.1,0.1-0.1,0.3,0,0.4l0.2,0.2c0.1,0,0.1,0.1,0.1,0.2c-0.1,0.2-0.1,0.3-0.3,0.3c-0.3,0-0.7-0.1-0.9-0.5c0-0.1-0.1-0.2,0-0.3
		c0.1-0.6,0.4-0.9,0.8-1.2C55,18,55.4,18.1,55.5,18.4z M54.8,23c-0.1,0-0.2,0-0.3-0.2c-0.1,0-0.3-0.2-0.1-0.3c0-0.1,0.1-0.1,0.2-0.2
		h0.2c0.2,0,0.4-0.1,0.6-0.3c0-0.1,0.1-0.3,0.2-0.4s0.3,0,0.3,0.1C56,21.9,56,22,56,22.1C55.9,22.6,55.5,23,54.8,23z M54.9,14.9
		c0-0.4,0.1-0.6,0.3-0.8c0.2-0.1,0.3-0.3,0.5-0.3c0.1,0,0.2,0,0.2,0.2c0.1,0.1,0.1,0.2,0,0.3c0,0.1-0.2,0.2-0.3,0.3
		c-0.1,0.2,0,0.6,0.2,0.6c0.2,0,0.3,0,0.4,0.1h0.2c0.1,0.1,0.1,0.2,0.1,0.2c-0.1,0.1-0.3,0.3-0.4,0.3c-0.6,0.3-1.1-0.2-1.2-0.5V14.9
		z M58.2,19c0.3,0.1,0.5,0,0.7,0c0.1-0.2,0.2,0,0.3,0.1v0.3c-0.1,0.2-0.4,0.3-0.6,0.3c-0.2,0-0.6-0.1-0.7-0.2
		c-0.1-0.1-0.1-0.2-0.1-0.3S57.9,19,58,19H58.2z M59.9,11.2l-0.2,0.2c-0.1,0.1-0.3,0.2-0.5,0.4c-0.1,0.3-0.1,0.4-0.1,0.6
		c0.1,0.1,0.1,0.2,0.3,0.3c0,0.3-0.3,0.4-0.4,0.4c-0.1,0-0.2-0.1-0.3-0.1c-0.2-0.4-0.3-0.8-0.2-1.1c0.2-0.4,0.4-0.6,0.6-0.8
		c0.3-0.2,0.5-0.3,0.8,0C59.9,11,60,11.1,59.9,11.2z M64.2,22.7c0.5,0.1,0.7-0.1,1,0c0.2,0,0.3,0.3,0.3,0.3
		c-0.1,0.1-0.3,0.2-0.3,0.3c-0.3,0.1-0.6,0.2-1.1,0.1c-0.1,0-0.2-0.1-0.3-0.2c-0.1-0.1-0.1-0.2-0.1-0.4c0.1-0.1,0.2-0.2,0.3-0.1
		H64.2z M66.8,13.9c0,0.4-0.1,0.8-0.3,1.2c-0.3,0.2-0.6,0.2-0.8,0c-0.2-0.4-0.2-0.6,0.1-0.9c0.1,0,0.2-0.1,0.2-0.2
		c0.1,0,0-0.1,0-0.3c-0.1-0.1-0.2-0.1-0.4-0.2c-0.1,0-0.1-0.1-0.1-0.3c0.1-0.1,0.2-0.1,0.3-0.2c0.4-0.1,0.9,0.1,1,0.5V13.9z
		 M69.5,18.2c-0.1,0-0.1,0.1-0.1,0.2c-0.3,0.6-0.6,1-1,1.3c-0.3,0.1-0.5,0.1-0.8,0.1l-0.3-0.3c0-0.1,0-0.3,0.1-0.3h0.1
		c0.5,0,0.9-0.4,1.1-0.8c0.1-0.1,0.1-0.3,0.2-0.4c0-0.3,0.2-0.3,0.3-0.3C69.3,17.8,69.5,18,69.5,18.2z"/>
</g>
</svg>
