<svg id="Calque_1" data-name="Calque 1" xmlns="http://www.w3.org/2000/svg" viewBox="0 0 52.7 20.58"><title>velo_maison</title><path d="M12.89,20.56a1.83,1.83,0,0,1-.79-.26L11.7,20a1.1,1.1,0,0,1-.2-.2,1.9,1.9,0,0,1-.46-1l0-.22a3.45,3.45,0,0,1,0-.35c0-.13,0-.26,0-.38a1.76,1.76,0,0,1,.16-.61,1.41,1.41,0,0,1,.5-.65c.14-.11.3-.2.46-.3a1.84,1.84,0,0,1,.94-.26h.22l.48,0,.14,0a.12.12,0,0,0,.14-.07.24.24,0,0,0,0-.1c.1-.23.2-.46.31-.68s.12-.25.17-.37l.14-.3a.18.18,0,0,0,0-.07s0,0,0,0h0l-.25.07a.59.59,0,0,1-.47-.08.26.26,0,0,1-.12-.19A.14.14,0,0,1,14,14h.17l.65,0a7.38,7.38,0,0,0,.89,0H16a.08.08,0,0,1,.07.07s0,.08,0,.1l-.12,0-.32.07s0,0,0,.07,0,0,0,0l.07.11.3.5.42.67.32.54.14.24a.11.11,0,0,0,.11,0l.37-.12c.42-.18.83-.38,1.22-.59l.49-.24,1.07-.5a6.4,6.4,0,0,0,.62-.35s0,0,.06-.06a.09.09,0,0,0,0-.07.18.18,0,0,0,0-.08c-.08-.28-.18-.55-.26-.83,0,0,0,0,0,0s-.06,0-.08,0l-.12,0a1.65,1.65,0,0,1-.43.13h-.49a.84.84,0,0,1-.42-.14.38.38,0,0,1-.11-.13.78.78,0,0,1-.06-.32.26.26,0,0,1,.16-.25.14.14,0,0,1,.2.08s0,.07,0,.11v.22a.34.34,0,0,0,0,.14s0,0,.06.06a.57.57,0,0,0,.24.08,1.39,1.39,0,0,0,.82-.18l.16-.07a.12.12,0,0,1,.16.08.41.41,0,0,1,0,.13c.08.34.22.66.31,1s.23.6.33.91c0,.08.06.17.1.26s.07.06.11.06l.14,0a1.44,1.44,0,0,1,.46,0h.08a1.35,1.35,0,0,1,.56.18c.2.11.38.23.58.35a1.17,1.17,0,0,1,.26.23l.26.28a1.33,1.33,0,0,1,.31.52c0,.14.1.3.13.46a2.33,2.33,0,0,1,0,.3,3.82,3.82,0,0,1-.07.74,1.66,1.66,0,0,1-.32.74,2.31,2.31,0,0,1-.6.59,2.09,2.09,0,0,1-.62.29l-.36.08a2.05,2.05,0,0,1-.47,0,2.43,2.43,0,0,1-.75-.25,3.73,3.73,0,0,1-.62-.42,2.4,2.4,0,0,1-.26-.23,1.88,1.88,0,0,1-.5-1,3.52,3.52,0,0,1,0-.52V18a2,2,0,0,1,.12-.72,2.32,2.32,0,0,1,.31-.62,1.76,1.76,0,0,1,.62-.6.73.73,0,0,1,.35-.13h.08s0,0,0,0v0a3.17,3.17,0,0,0-.17-.47.07.07,0,0,0-.1,0,.32.32,0,0,0-.1.08l-.22.22c-.17.16-.35.31-.52.48l-.46.43a6.63,6.63,0,0,1-.61.55c-.2.17-.4.35-.6.53a.7.7,0,0,0-.12.14.07.07,0,0,0,0,.08v0a.83.83,0,0,1-.07.82h0c-.12.14-.1.17,0,.32a2.36,2.36,0,0,0,.11.25.26.26,0,0,0,0,.07.06.06,0,0,0,.07,0l.08,0,.37-.17.08,0H19a.1.1,0,0,1,0,.07s0,0,0,0l-.12.07-.43.19a.14.14,0,0,1-.1,0,.15.15,0,0,1-.16,0l-.14-.3c0-.08-.07-.18-.12-.28a.12.12,0,0,0-.1-.07h-.08a.79.79,0,0,1-.65-.6.1.1,0,0,0-.1-.07h0c-.25,0-.5,0-.76,0h-.6a.15.15,0,0,0-.08.06l0,.08c0,.11-.06.23-.1.34l-.11.28-.22.44a2.09,2.09,0,0,1-.18.26c-.06.08-.13.14-.19.22s0,0,0,0a2.08,2.08,0,0,1-.68.41,3.88,3.88,0,0,1-.76.18A1.67,1.67,0,0,1,12.89,20.56Zm.79-.22a2.17,2.17,0,0,0,.85-.41s0,0,.06-.06a2.36,2.36,0,0,0,.4-.52,4.49,4.49,0,0,0,.37-.89s0-.06,0-.08a.08.08,0,0,0-.07-.1H13.58a.79.79,0,0,0-.34,0h-.07l-.06,0c-.08-.06-.13-.23,0-.3a.41.41,0,0,0,.16-.19l.29-.67s0-.1.06-.14.18-.37.28-.56l0-.1s0-.08,0-.08a.23.23,0,0,0-.12,0,2.13,2.13,0,0,0-.48,0H13a1.71,1.71,0,0,0-.5.11l-.11,0a.07.07,0,0,0,0,.07.13.13,0,0,1,0,.06s0,0,0,0h0c-.26,0-.24,0-.44.19a.3.3,0,0,1-.17.1.28.28,0,0,0-.12.08,1.67,1.67,0,0,0-.35.73,2.66,2.66,0,0,0-.06.68,2.21,2.21,0,0,0,.17.92,1.39,1.39,0,0,0,.44.64,2.62,2.62,0,0,0,.89.47,1.82,1.82,0,0,0,.62,0Zm0-2.21h.7c.12,0,.24,0,.36,0h.48l.17,0s.07,0,.08-.08a1.71,1.71,0,0,0,0-.26,1.13,1.13,0,0,0-.18-.59,1.61,1.61,0,0,0-.4-.46,1.31,1.31,0,0,0-.25-.17l-.36-.17-.11,0a.07.07,0,0,0-.07,0,.78.78,0,0,0-.1.17c-.07.13-.13.28-.19.41s-.22.49-.34.73l-.11.25c0,.12,0,.19.14.2Zm2.64,0h0c.12,0,.24,0,.37,0l.36,0a.23.23,0,0,0,.24-.18l0-.1a.13.13,0,0,0,0-.16c-.12-.19-.24-.4-.37-.59s-.41-.64-.6-1l-.4-.67c-.13-.2-.26-.41-.38-.62a3.14,3.14,0,0,1-.26-.42.08.08,0,0,0-.07,0,.28.28,0,0,0-.23.11l-.07.13-.18.38-.32.68c-.06.13-.12.26-.17.4a.11.11,0,0,0,.06.14l.36.16a1.51,1.51,0,0,1,.48.34,2.46,2.46,0,0,1,.28.34,1.27,1.27,0,0,1,.24.68s0,.1,0,.16a.6.6,0,0,0,0,.14.09.09,0,0,0,.08.1h.56Zm1.83-.42,0,0a.22.22,0,0,0,.08-.07c.23-.22.46-.42.71-.62s.46-.4.67-.61.2-.22.32-.31c.31-.28.6-.58.9-.86l0,0a.23.23,0,0,0,0-.1.38.38,0,0,0-.06-.14.08.08,0,0,0-.11,0L20.5,15a6.09,6.09,0,0,1-.62.32l-.32.14-.32.16c-.3.13-.59.29-.88.43s-.64.31-1,.46l-.3.13s0,0-.07,0a.07.07,0,0,0,0,.08.17.17,0,0,0,0,.07l.28.42a1.17,1.17,0,0,0,.23.26.23.23,0,0,0,.11.06l.47.08Zm-.31,1.06a.09.09,0,0,0,.07-.07.51.51,0,0,0-.12-.25.26.26,0,0,0,0-.07.1.1,0,0,1,0-.11.11.11,0,0,1,.11,0,.12.12,0,0,1,0,.06s0,.11.08.16l0,.07s0,0,0,0l0,0a.72.72,0,0,0,.08-.44.2.2,0,0,0,0-.06.14.14,0,0,0-.06-.08l-.08,0a.48.48,0,0,0-.28-.1h-.07a.29.29,0,0,0-.29.19c0,.07,0,.14-.06.22a.31.31,0,0,0,0,.23.62.62,0,0,0,.36.29Zm4.91,1.52a2,2,0,0,0,.85-.53,2.07,2.07,0,0,0,.28-.36,1.75,1.75,0,0,0,.19-.43,3.14,3.14,0,0,0,.08-.59A2.27,2.27,0,0,0,24,17.3a.68.68,0,0,0-.16-.25l-.19-.22a2.08,2.08,0,0,0-.66-.55l-.24-.13A1.2,1.2,0,0,0,22,16a.9.9,0,0,0-.36,0l-.11,0s0,0,0,.06a.25.25,0,0,0,0,.1c.13.46.26.91.42,1.36a2.8,2.8,0,0,1,.1.34.26.26,0,0,1-.12.25l-.06,0a.12.12,0,0,1-.16-.1.13.13,0,0,1,0-.1.38.38,0,0,1,0-.16.17.17,0,0,0,0-.17.94.94,0,0,0,0-.18.92.92,0,0,1-.06-.19c-.11-.32-.2-.65-.3-1a.16.16,0,0,0,0-.07.13.13,0,0,0-.1-.08.35.35,0,0,0-.19,0,1.36,1.36,0,0,0-.42.2.21.21,0,0,0-.08.06A2.31,2.31,0,0,0,19.84,18a3,3,0,0,0,.13.88A.63.63,0,0,0,20,19a1.68,1.68,0,0,0,.49.62,2.87,2.87,0,0,0,.36.28,2.2,2.2,0,0,0,.85.38,1.59,1.59,0,0,0,.48,0A1.9,1.9,0,0,0,22.73,20.26Z"/><path d="M3,5.32V5.25A2.23,2.23,0,0,0,3,5V4.75a.25.25,0,0,0,0-.08A.64.64,0,0,1,3,4.36V4.3a.07.07,0,0,0,0-.05h0l-.4-.06a.05.05,0,0,0-.06,0c-.06.18-.12.36-.19.53A.51.51,0,0,0,2.21,5a1.58,1.58,0,0,1-.09.22.2.2,0,0,1,0,.05H2.07a.08.08,0,0,1-.15-.07h0V5.13a2.76,2.76,0,0,0,.14-.37c.05-.17.12-.34.17-.52V4.09h0C2.13,4,2,4,1.91,3.92a.07.07,0,0,0-.09,0L1.72,4l-.53.47L1,4.6H1a.07.07,0,0,1-.1-.07.1.1,0,0,1,0-.06l.3-.22.41-.33.06-.05a0,0,0,0,0,0-.06h0l-.16-.21a.12.12,0,0,0-.06-.08L1,3.57l-.48.1a.36.36,0,0,1-.17,0h0a.06.06,0,0,1,0-.07H.38l.2-.1L.8,3.45l.41-.07h0c.13,0,.16,0,.1-.18a2.23,2.23,0,0,1-.06-.25.07.07,0,0,0-.07-.05h-1a.47.47,0,0,1-.19,0A.06.06,0,0,1,0,2.8H0a.11.11,0,0,1,.1,0H.58a3.09,3.09,0,0,0,.5,0H1.2s.06,0,.07-.09,0-.06,0-.1a1,1,0,0,1,0-.16.13.13,0,0,0,0-.06.07.07,0,0,0,0-.1h0A3.38,3.38,0,0,1,.5,2L.3,1.91a.13.13,0,0,1-.08-.1.05.05,0,0,1,0-.06H.32l.45.16a2,2,0,0,0,.51.1.08.08,0,0,0,.09,0h0a2.41,2.41,0,0,1,.16-.3V1.59s0,0,0,0l-.22-.18A3.22,3.22,0,0,0,.9,1L.84,1a.08.08,0,0,1,0-.09.09.09,0,0,1,.08,0H1l.5.42.21.2a.08.08,0,0,0,.1,0,1.6,1.6,0,0,1,.28-.22.07.07,0,0,0,0-.1h0v0L1.82.58c0-.09-.07-.17-.1-.26a.08.08,0,0,1,0-.09.06.06,0,0,1,.08,0h0A.55.55,0,0,1,1.9.36L2.17,1a.68.68,0,0,1,.07.14.1.1,0,0,0,.09,0,.26.26,0,0,0,.14-.05A.51.51,0,0,1,2.64,1a.1.1,0,0,0,.07-.1V.32a1.49,1.49,0,0,0,0-.19.23.23,0,0,1,0-.1.07.07,0,0,1,.09,0h0v0a.16.16,0,0,1,0,.06,4.46,4.46,0,0,1,0,.48,2.7,2.7,0,0,0,0,.27.23.23,0,0,0,0,.06h0l.33,0h.06L3.3.9c.1-.18.21-.34.31-.51L3.78.15,4,.09H4A.07.07,0,0,1,4,.09V.15A.15.15,0,0,1,4,.24c-.05.08-.1.15-.15.23L3.57,1a.33.33,0,0,0,0,.1.07.07,0,0,0,0,.07l.24.13a.13.13,0,0,0,.1,0L4,1.22l.19-.1L4.82.75,5,.65a.08.08,0,0,1,.09,0,.06.06,0,0,1,0,.08h0L5,.83,4.74.95l-.37.19-.27.16L4,1.36a0,0,0,0,0,0,.05.3.3,0,0,0,.08.08l.15.19h0a.14.14,0,0,0,.12,0h.07l.35-.09.49-.13h.13a.06.06,0,0,1,0,.07h0a.1.1,0,0,1-.07.07L5,1.74l-.13,0-.36.1H4.44V2a2.7,2.7,0,0,0,.06.28.07.07,0,0,0,.08.06H5.75a.07.07,0,0,1,0,.07.06.06,0,0,1-.05,0H5.61a8.06,8.06,0,0,1-1,0H4.52V3a.08.08,0,0,0,.05.09l.27.08h.08c.13,0,.24.08.36.1l.09,0a.07.07,0,0,1,0,.08.06.06,0,0,1-.05.05h-.1A1.27,1.27,0,0,0,5,3.35l-.5-.15H4.39a.18.18,0,0,0,0,.05,1,1,0,0,1-.18.34v0a.07.07,0,0,0,0,.06l.13.1c.17.1.33.22.5.31l.22.17a.16.16,0,0,1,.06.09.06.06,0,0,1,0,.08.08.08,0,0,1-.16,0H5a2.81,2.81,0,0,0-.43-.3L4.25,4c-.05,0-.12-.07-.17-.12s0,0-.06,0A2.18,2.18,0,0,1,3.7,4h0a.05.05,0,0,0,0,.06v0s.16.19.23.3.19.25.27.37a.22.22,0,0,1,.05.1.16.16,0,0,1,0,.06s-.07.07-.1,0A.12.12,0,0,1,4.11,5c-.15-.22-.32-.44-.49-.65,0-.05-.06-.1-.09-.15a.08.08,0,0,0-.07,0H3.23c-.15,0-.15,0-.13.19A3.74,3.74,0,0,0,3.15,5a2.07,2.07,0,0,1,0,.23.32.32,0,0,1,0,.09.07.07,0,0,1,0,.06,0,0,0,0,1-.05,0ZM3.15,4a1.23,1.23,0,0,0,.39-.1,1.49,1.49,0,0,0,.4-.3,1.26,1.26,0,0,0,.28-.48s0-.06,0-.09a1.23,1.23,0,0,0,.08-.49,1.83,1.83,0,0,0,0-.28,1.37,1.37,0,0,0-.13-.41,1.49,1.49,0,0,0-.32-.39c-.06-.06-.16-.1-.16-.16a.46.46,0,0,0-.22-.09H2.86a.07.07,0,0,0-.06,0,.14.14,0,0,1-.16.07H2.41l-.27.1a1.21,1.21,0,0,0-.46.44,2,2,0,0,0-.13.23.35.35,0,0,0,0,.08,1.43,1.43,0,0,0-.08.42,1,1,0,0,0,0,.35,1.31,1.31,0,0,0,.12.31A1.09,1.09,0,0,0,2,3.81,1.82,1.82,0,0,0,2.48,4,1.67,1.67,0,0,0,3.11,4Zm-.58-.51a1.06,1.06,0,0,1-.31-.17,1.29,1.29,0,0,1-.36-.49.67.67,0,0,1,0-.23.05.05,0,0,1,0-.05.06.06,0,0,1,.08,0H2a.13.13,0,0,1,0,.06,1,1,0,0,0,.26.45l.13.13a.83.83,0,0,0,.55.22,1.06,1.06,0,0,0,.47-.07.53.53,0,0,0,.21-.14A2.12,2.12,0,0,0,3.7,3a2.16,2.16,0,0,0,.19-.49.3.3,0,0,1,0-.1h0a.06.06,0,0,1,.08,0v0a1,1,0,0,1-.08.3A.56.56,0,0,1,3.8,3a.94.94,0,0,1-.1.29.55.55,0,0,1-.27.22,1.12,1.12,0,0,1-.45.1,1.32,1.32,0,0,1-.4-.07Zm-.3-1.71a.11.11,0,0,1,0-.15h.05a.1.1,0,0,1,.09.11v0a.1.1,0,0,1-.1.08.1.1,0,0,1-.07,0Zm.23.65a.27.27,0,0,1-.1-.17V2.23a.19.19,0,0,1,0-.16A.25.25,0,0,1,2.62,2,.29.29,0,0,1,2.76,2a0,0,0,0,1,0,.05H2.59a.1.1,0,0,0-.1,0,.15.15,0,0,0,0,.21h0l.13.06a.05.05,0,0,1,0,.07H2.57Zm.61-.7a.13.13,0,0,1,0-.13.11.11,0,0,1,.1-.06h0a.1.1,0,0,1,.08.12h0a.1.1,0,0,1-.1.09h0a.15.15,0,0,1-.12,0Z"/><path d="M37.67,17.5v-.23A7.06,7.06,0,0,1,37,15.16c-.15-.81-.32-1.61-.53-2.44l-.19-.92a.19.19,0,0,0-.15-.13h-.86s-.15-.09-.15-.13V11.1a4,4,0,0,0,.3-.71L36.69,6.9c.32-.77.53-1.54.79-2.29a1.69,1.69,0,0,1,.11-.32.19.19,0,0,1,.13,0,5.76,5.76,0,0,0,1.54-.06H46c.39,0,.39-.06.39-.34V3a.23.23,0,0,1,0-.19h2.14a.28.28,0,0,1,.23.08.94.94,0,0,1,.11.43V4a.28.28,0,0,0,.24.26h1c.19,0,.23,0,.15.24a.56.56,0,0,0-.15.3l.13.41c.64,1.88,1.33,3.75,2,5.5.11.24.21.53.32.77s0,.11,0,.15,0,.21-.13.21h-1.3a.24.24,0,0,1-.11.19c-.11.08-.11.54-.15.81-.06,1.16-.24,2.1-.32,3a11.29,11.29,0,0,1-.19,1.58,1.18,1.18,0,0,1,0,.26.21.21,0,0,1-.3.24,18.32,18.32,0,0,1-1.88.11H42.51c-.23,0-.38.23-.64,0s-.43,0-.64,0a2.42,2.42,0,0,0-.47-.32H38.89A8.88,8.88,0,0,1,37.67,17.5Zm5.93-6h8.63s.11-.11,0-.19a2.08,2.08,0,0,0-.11-.36Q51,8.08,50,5.08l-.13-.36a.24.24,0,0,0-.17-.11H45.36a37.58,37.58,0,0,0-4.6,0H37.93a.24.24,0,0,0-.19.13l-.13.43L37,7c-.43,1.31-.9,2.57-1.35,3.9a.77.77,0,0,0,0,.24v.13H41.8Zm-.79.26c-1.88,0-3.87-.11-5.8,0h-.26v.11a2.85,2.85,0,0,0,.11.77,26.52,26.52,0,0,1,.54,2.67,5.09,5.09,0,0,0,.32,1.28,1.28,1.28,0,0,0,.32.64.38.38,0,0,0,.26.19h1.15l2.1.15c.54,0,.49,0,.58-.47a1.11,1.11,0,0,0,0-.26V16a5.62,5.62,0,0,1,.15-1.6,4.26,4.26,0,0,1,0-.49s0-.11.15-.13h.21a3.27,3.27,0,0,0,.81,0h.45a7.34,7.34,0,0,0,1,0h.26s.21,0,.21.19a6,6,0,0,1,.15.69c.13.86.26,1.71.45,2.53a1.31,1.31,0,0,0,.11.32.15.15,0,0,0,.11,0h3.38c.58.08.58.21.58-.47a.64.64,0,0,0,0-.21c.13-.94.21-1.88.34-2.85a11.85,11.85,0,0,1,.26-1.88c0-.23,0-.26-.19-.3H44.24Zm-3.25.94h.88a.51.51,0,0,1,.43.38.86.86,0,0,1,0,.23A9.39,9.39,0,0,0,41,15a3.44,3.44,0,0,1,0,.49.26.26,0,0,1-.19.21l-.68.15h-.32a1.88,1.88,0,0,1-.6,0l-.51-.15a.51.51,0,0,1-.38-.41V13.22a.79.79,0,0,1,0-.23.26.26,0,0,1,.21-.23,1.13,1.13,0,0,1,.38,0Zm1.46-3a1.33,1.33,0,0,1-.11.43.23.23,0,0,1-.15.17h-.51a1,1,0,0,0-.43,0,.19.19,0,0,1-.15,0,.79.79,0,0,0-.32,0h-.3c-.38,0-.41,0-.49-.47V9.28a12.84,12.84,0,0,1,.15-1.35,5.52,5.52,0,0,1,.15-.54,1.88,1.88,0,0,1,.32-.53A1.11,1.11,0,0,1,40,6.49a.66.66,0,0,1,.53.26,2,2,0,0,1,.23.47,4.43,4.43,0,0,1,.19.92c0,.47,0,.94.09,1.52Zm-1.5,4h.94a.21.21,0,0,0,.13-.15v-.11c0-.24,0-.36-.34-.36H38.89a.34.34,0,0,0-.15,0,.21.21,0,0,0-.15.13.56.56,0,0,0,0,.38h.23Zm-.13,1.6a3.89,3.89,0,0,0-.11-1.13.13.13,0,0,0-.15-.13H38.7a.17.17,0,0,0-.19.19,4.6,4.6,0,0,0,.11,1.11.17.17,0,0,0,.15.13,2.29,2.29,0,0,0,.43.11.2.2,0,0,0,.19-.15Zm.15-6V9c0-.38,0-.41-.41-.41H39a.19.19,0,0,0-.11.17,3.25,3.25,0,0,0,0,.92.32.32,0,0,0,.3.26h.19c.15,0,.23,0,.23-.23Zm0-1.73a3.15,3.15,0,0,0,0-.47h-.11l-.19.13a1.67,1.67,0,0,0-.36.56c0,.45,0,.64.53.53a.17.17,0,0,0,.13-.13,5.63,5.63,0,0,0,.06-.62ZM40.05,14H39.6v.19a4,4,0,0,0,.11,1.15.32.32,0,0,0,.15.13,3.17,3.17,0,0,0,.66,0,.26.26,0,0,0,.24-.17,8.6,8.6,0,0,0,0-1.11c-.13-.19-.19-.19-.36-.19Zm.58-5.16-.38-.15h-.17a.19.19,0,0,0-.23.19,4.45,4.45,0,0,1,0,.54c0,.68,0,.64.66.6h.11V9.9a2.93,2.93,0,0,0,0-1.15Zm-.75-1.26a5.18,5.18,0,0,0,0,.58.17.17,0,0,0,.15.19h.36c.15,0,.23,0,.21-.23a3.9,3.9,0,0,0,0-.49,1.41,1.41,0,0,0-.13-.41A.73.73,0,0,0,40.33,7h-.26Zm4.49,10.17h1.28a.17.17,0,0,0,.13-.13.24.24,0,0,1,0-.11c-.11-.56-.23-1.13-.32-1.69s-.13-.71-.19-1.09a2.35,2.35,0,0,0-.11-.38.15.15,0,0,0-.15-.11H42.79a.21.21,0,0,0-.19.19l-.13,1.11a15.5,15.5,0,0,1-.19,1.88v.11l.11.11h.24A16.14,16.14,0,0,0,44.37,17.75Zm.26-2.14a.56.56,0,0,1,.45.21.39.39,0,0,1-.11.55l0,0a.38.38,0,0,1-.43-.24V16c-.36-.3-.09-.47.13-.47Zm1.76-2.23c0-.11.19-.23.26-.36a2.25,2.25,0,0,1,.56,0h1.61a.24.24,0,0,1,.15.13,1.48,1.48,0,0,1,0,.43,22.32,22.32,0,0,1,.11,2.29.26.26,0,0,1-.23.23H47c-.36,0-.47-.15-.56-.53a2.1,2.1,0,0,1,0-.77Zm0-3.6a6.74,6.74,0,0,1,.23-1.67,2.68,2.68,0,0,1,.15-.45A1.73,1.73,0,0,1,47.41,7a.9.9,0,0,1,.34-.13.73.73,0,0,1,.75.3,1.73,1.73,0,0,1,.32.56,7.51,7.51,0,0,1,.3.94,8,8,0,0,1,.15,1.26.47.47,0,0,1-.47.47h-.58a.69.69,0,0,0-.36,0,.23.23,0,0,1-.21,0,.58.58,0,0,0-.38,0h-.69a.19.19,0,0,1-.19-.11A2.65,2.65,0,0,1,46.4,9.77ZM47.65,14h1a.88.88,0,0,0,0-.54H46.75a.19.19,0,0,0-.15.13V14a.23.23,0,0,0,.23,0Zm0-9.63h.77a.19.19,0,0,0,.19-.19V3.41a.25.25,0,1,0-.34-.36H46.87c-.19,0-.24.11-.24.3v.71a.17.17,0,0,0,.19.15h0Zm-1,10.49a1.52,1.52,0,0,1,0,.34,1,1,0,0,0,.11.54.19.19,0,0,0,.17.13,1.46,1.46,0,0,0,.69,0,.17.17,0,0,0,.15-.18v-.23a2.72,2.72,0,0,1-.21-1,.24.24,0,0,0,0-.11.15.15,0,0,0,0-.11.94.94,0,0,0-.66,0,.24.24,0,0,0-.13.15Zm.94-5.5h0a2.57,2.57,0,0,0,0-.43.15.15,0,0,0-.13-.13h-.56a.15.15,0,0,0-.15.13,3.75,3.75,0,0,0,0,1s0,.11.15.11h.58a.26.26,0,0,0,.15-.15,1.54,1.54,0,0,1,0-.51Zm0-1.48V7.31h0a1.35,1.35,0,0,0-.71,1.05s0,.15.11.15h.43a.24.24,0,0,0,.21-.15,3.23,3.23,0,0,1,0-.47ZM48.84,15v-.64c0-.21,0-.15-.13-.15H48a.19.19,0,0,0-.15.13,2.08,2.08,0,0,0,0,.66,6,6,0,0,0,.23.69l.15.13h.21c.13,0,.23,0,.23-.21S48.82,15.27,48.84,15Zm-.92-5.63c0,.68,0,.6.56.66s.47,0,.45-.43a.51.51,0,0,0,0-.19c-.11-.71,0-.66-.79-.66A.21.21,0,0,0,48,9a1.94,1.94,0,0,0-.06.41Zm0-1.6a1.13,1.13,0,0,1,0,.26c0,.41,0,.41.41.41h.15a.15.15,0,0,0,.18-.11v0a5.26,5.26,0,0,0-.23-.64,1,1,0,0,0-.26-.41h-.11A1.08,1.08,0,0,0,48,7.8Z"/></svg>